<?xml version="1.0" encoding="utf-8"?>
<!-- Generator: Adobe Illustrator 21.1.0, SVG Export Plug-In . SVG Version: 6.00 Build 0)  -->
<svg version="1.1" id="Layer_1" xmlns="http://www.w3.org/2000/svg" xmlns:xlink="http://www.w3.org/1999/xlink" x="0px" y="0px"
	 viewBox="0 0 219.1 198" style="enable-background:new 0 0 219.1 198;" xml:space="preserve">
<style type="text/css">
	.st0{opacity:0.1;enable-background:new    ;}
	.st1{fill:#1F1F1F;}
	.st2{fill:#575757;}
	.st3{fill:#4B4B4B;}
	.st4{fill:#6A6A6A;}
	.st5{fill:#FFECBF;}
	.st6{fill:#4F4F4F;}
	.st7{fill:#595958;}
	.st8{fill:#F2EEE5;}
	.st9{fill:#EEDEB2;}
	.st10{fill:#7A7A79;}
	.st11{fill:#F1DEB4;}
	.st12{fill:#59370E;}
	.st13{fill:#2F61A7;}
	.st14{fill:#FDF9F0;}
	.st15{fill:#2D91AE;}
	.st16{fill:#83CADE;}
	.st17{fill:#F7F7F7;}
	.st18{fill:#E5E5E5;}
	.st19{fill:#C0BDCB;}
	.st20{fill:#CBCBCB;}
	.st21{fill:#FFFFFF;}
	.st22{fill:#696969;}
	.st23{fill:#CECFD1;}
	.st24{fill:#EFEFEF;}
	.st25{fill:#C4C4C4;}
	.st26{fill:#C2C2C2;}
	.st27{fill:#0D0D0D;}
	.st28{fill:#FFDDC7;}
	.st29{fill:#FFD5C9;}
	.st30{fill:#544845;}
	.st31{fill:#4F4948;}
	.st32{fill:#705F5C;}
	.st33{fill:#FFE5DB;}
	.st34{fill:#FFEFD4;}
	.st35{fill:#404040;}
	.st36{fill:#1C1C1C;}
	.st37{fill:#242424;}
	.st38{fill:#919191;}
	.st39{fill:#BDBDBD;}
	.st40{fill:#24749E;}
	.st41{fill:#C1DBE8;}
	.st42{fill:#32A1DB;}
	.st43{fill:#FFC23D;}
	.st44{fill:#59361C;}
	.st45{fill:#694521;}
	.st46{fill:#248FB5;stroke:#F4F4F4;stroke-width:2;stroke-linecap:round;stroke-linejoin:round;stroke-miterlimit:10;}
</style>
<title>decaf-graphic</title>
<path class="st0" d="M171.2,133.5c4.1,6.2-9.4,10.2-16.5,12.4s-21.3-7.5-28.5-16.5s8.5-11,9.5-10.8
	C145.5,120.4,167.1,127.2,171.2,133.5z"/>
<path class="st1" d="M145,111.8c0,0-4.5,4.3-5.1,4.8s-6,3.4-4.3,4.8c2.7,0.3,5.5,0.3,8.2-0.2c1.7-0.8,3.3-1.9,4.7-3.1
	c0.3-0.3,1,0.2,1,0.2c0.7-0.2,1.5-0.4,2.1-0.8c-0.4-0.7-0.6-5.7-0.6-5.7L145,111.8z"/>
<path class="st2" d="M157.5,130.4c0,0-4.5,4.3-5.1,4.8s-6,3.4-4.3,4.8c2.7,0.3,5.5,0.3,8.2-0.2c1.7-0.8,3.3-1.9,4.7-3.1
	c0.3-0.3,1,0.2,1,0.2c0.7-0.2,1.5-0.4,2.1-0.8c-0.4-0.7-0.6-5.7-0.6-5.7H157.5z"/>
<path class="st3" d="M151.9,78l-2.8,44.1c0,0,0.4,3.5-0.5,3.9c-5.5,2.6-9.1-2.3-9.1-2.3l1.1-2.4l-2.1-45.8L151.9,78z"/>
<path class="st4" d="M160.8,76.2l3.8,55.2c0,0-2.6,2.1-4.3,2.1s-5.9-2.2-6.4-2.6s1-2.2,1.3-2.7s-0.7-5-1.6-14.1S147.2,75,147.2,75
	L160.8,76.2z"/>
<path class="st5" d="M125.7,53.6l1.4,1.3l-1.8,3.4c0,0-7.6,3.3-8.5,3.4s-4.9-2.3-4-2.9s5.4-3.5,5.4-3.5s1.9-0.6-0.6-0.7
	s-0.8-1.4-0.8-1.4s1.2,0,3.3-0.2c3.8-0.3,5.6,0.9,5.6,0.9V53.6z"/>
<path class="st6" d="M144.3,31c1.8,3.3,0.2,29.3,0.2,29.3S126.8,59,125,58.4s-1.8-6.7-1.8-6.7l14.8,0.5c0,0-1-16.6-0.6-19.9
	c0.1-1.8,1.3-3.2,3-3.6C142,28.8,143.5,29.6,144.3,31z"/>
<path class="st7" d="M149.8,28.1c6.7,2.5,11.7,8.5,13.6,10c3.6,3-0.7,37.4-0.9,39.6s-8.2,6.4-12,6.6c-2.2,0.1-8.3-2-12.2-6.6
	c-2.8-3.3-0.6-7.2-0.6-7.2c0.1-2.7,0.3-5.4,0.8-8c0.6-2.2-1.8-12.3-2.2-14.5s2.1-15.7,2.1-15.7C141.9,28.3,145.8,26.6,149.8,28.1z"
	/>
<path class="st8" d="M150.9,42.4l-2.7,3.5l0.6,2.1l-3.4,11.2l-2.6-8.2c0,0-4.5-22.9,2.4-23.4s8.4,3,8.4,3L150.9,42.4z"/>
<path class="st6" d="M142.2,30.7c-1.6,2.4-2.9,12-2.9,12l2.1,2.3l-0.5,2.4l4.5,12c0,0-1.8-9.3-3-13.6s0.6-12.7,0.6-12.7
	S143.8,28.3,142.2,30.7z"/>
<path class="st9" d="M154,77.1l1.6,0.9l-0.8,3.7c0,0-6.4,5.3-7.3,5.6s-5.3-0.9-4.6-1.8s4.2-4.8,4.2-4.8s1.7-1.1-0.8-0.5
	s-1.1-1.1-1.1-1.1s1.1-0.4,3.1-1.1c3.5-1.4,5.6-0.7,5.6-0.7L154,77.1z"/>
<path class="st10" d="M163.1,38.1c2.6,2.7,8.2,28.1,8.2,28.1S156.6,82.1,154.7,82s-3.6-5.9-3.6-5.9l11.4-11.2c0,0-5.2-20.3-5.7-23.6
	c-0.4-1.7,0.4-3.5,1.9-4.3C160.3,36.5,161.9,36.9,163.1,38.1z"/>
<path class="st10" d="M152.2,29.3c0.9,0.8-1.2,7-3.1,11.7s-3.6,18.5-3.6,18.5l4.6-11.1l-1.4-2.5l3-1.2l2.8-14
	C154.5,30.7,151.3,28.4,152.2,29.3z"/>
<path class="st11" d="M142.3,30.2c-0.4,0.9,2.3,7.5,2.3,7.5s7.1-7.3,6.1-8.2s-0.5-4.4-0.5-4.4S142.7,29.3,142.3,30.2z"/>
<path class="st12" d="M136.6,15.9c-2.6,3.4,4.1,5.4,4.1,5.4s11.4,6.8,10.9,4.4s1-5.2,1.1-9.2s-5.1-5.9-5.1-5.9
	C143.7,10.1,139.2,12.5,136.6,15.9z"/>
<path class="st5" d="M137.8,17.5c0.7-0.9,5.1,0.7,5.1,0.7s-4.9-1.7-1-1c2.9,0.5,5.3,2.5,6.3,5.2c0,0,1.3-2.5,2.5-1.1
	s-1.3,3.7-1.3,3.7s0.3-0.1,0.3,1.9c0,1.7-5.2,4.8-6.8,5.7c-0.3,0.2-0.6,0.2-0.9,0.1l-0.9-0.2c-0.5-0.1-0.8-0.5-0.9-0.9L137,18.3
	L137.8,17.5z"/>
<polygon class="st13" points="145.4,37.8 146.7,38.4 145.2,40.4 144.1,38.7 "/>
<path class="st14" d="M152.4,29.5c0.3-0.2-1.1-1.2-2.1-1.4c-0.2,0,0.7,0.5,0.3,1.1c-1.7,2.3-5.2,8.6-5.2,8.6l1.3,2.6L152.4,29.5z"/>
<path class="st14" d="M145.4,37.8l-1.6,2.8c-1-2.3-0.6-7.5-0.6-7.5L145.4,37.8z"/>
<polygon class="st13" points="144.3,45.8 144.6,55.2 145.4,59.1 146.1,55.3 146.7,46.2 145.4,39.1 "/>
<path class="st0" d="M57.8,144.8l37.4-19.2c5.1-2.6,13.5-2.4,18.4,0.4l60.5,35.6c5,2.8,4.9,7.4-0.2,10l-37.4,19.2
	c-5.1,2.6-13.5,2.4-18.4-0.4l-60.5-35.6C52.5,152,52.6,147.4,57.8,144.8z"/>
<path class="st15" d="M129.4,101.5V183c2,0,4-0.5,5.8-1.4l25.9-13.5c1.9-1,2.8-2.1,2.8-3.2L164,95l-27.6,6.5l-1.2-0.3
	C133.4,100.9,131.4,101,129.4,101.5z"/>
<path class="st16" d="M66.6,76.6l-0.1,69.7c0,1.1,0.9,2.3,2.7,3.2l56.4,31.7c2,1,4.2,1.6,6.4,1.7V95.2c-2.2-0.2-4.4,0-6.3,0.8
	l-1.3,0.5L66.6,76.6z"/>
<path class="st17" d="M60.4,79.1l29.8-14.9c4.6-2,9.8-2,14.5,0l63.5,33.2c4,2,4,5.2,0,7.2l-29.8,14.9c-4.6,2-9.8,2-14.4,0L60.4,86.3
	C56.4,84.3,56.4,81.1,60.4,79.1z"/>
<polygon class="st18" points="86.8,73.6 99.9,80.1 81.3,89.3 68.3,82.8 "/>
<polygon class="st19" points="86.6,74.1 98.8,80.2 97,81.1 84.7,75 "/>
<polygon class="st20" points="85.1,76.8 93.4,80.9 92.8,81.2 84.5,77.1 "/>
<polygon class="st20" points="82.2,76.9 93.4,82.6 92.8,82.9 81.6,77.3 "/>
<polygon class="st20" points="81,77.6 92.2,83.2 91.6,83.5 80.3,77.9 "/>
<polygon class="st20" points="79.7,78.2 91,83.8 90.3,84.1 79.1,78.5 "/>
<polygon class="st20" points="78.5,78.8 89.7,84.4 89.1,84.7 77.9,79.1 "/>
<polygon class="st20" points="77.3,79.4 88.5,85 87.9,85.3 76.7,79.7 "/>
<polygon class="st20" points="76,80 87.3,85.6 86.6,85.9 75.4,80.3 "/>
<polygon class="st20" points="71.3,82.2 75.6,84.4 74.9,84.7 70.7,82.5 "/>
<polygon class="st18" points="86.8,71 99.9,77.5 81.3,86.8 68.3,80.3 "/>
<polygon class="st19" points="86.6,71.5 98.8,77.6 97,78.6 84.7,72.4 "/>
<polygon class="st20" points="85.1,74.2 93.4,78.4 92.8,78.7 84.5,74.5 "/>
<polygon class="st20" points="82.2,74.4 93.4,80 92.8,80.3 81.6,74.7 "/>
<polygon class="st20" points="81,75 92.2,80.6 91.6,80.9 80.3,75.3 "/>
<polygon class="st20" points="79.7,75.6 91,81.2 90.3,81.5 79.1,75.9 "/>
<polygon class="st20" points="78.5,76.2 89.7,81.8 89.1,82.2 77.9,76.5 "/>
<polygon class="st20" points="77.3,76.8 88.5,82.4 87.9,82.8 76.7,77.2 "/>
<polygon class="st20" points="76,77.5 87.3,83.1 86.6,83.4 75.4,77.8 "/>
<polygon class="st20" points="71.3,79.7 75.6,81.8 74.9,82.1 70.7,80 "/>
<polygon class="st18" points="86.8,68.4 99.9,74.9 81.3,84.2 68.3,77.7 "/>
<polygon class="st19" points="86.6,68.9 98.8,75.1 97,76 84.7,69.9 "/>
<polygon class="st20" points="85.1,71.6 93.4,75.8 92.8,76.1 84.5,72 "/>
<g>
	<polygon class="st18" points="139.6,92.2 114.8,79.8 97.3,90 122,102.4 	"/>
	<path class="st21" d="M112.1,92.1l0.4-6.8l16.5,8.1c0.2,0.1,0.2,0.2,0.2,0.3l-2.8-0.2c0,0,0,0-0.1,0l-12.8-0.7L112.1,92.1z"/>
	<path class="st22" d="M114.1,92.6l0.3-0.2c0.1-0.1,0.3-0.1,0.4,0l0.8,0.4c0.1,0,0.1,0.1,0.1,0.2l-1.2-0.1l-0.2-0.1
		C114,92.7,114,92.7,114.1,92.6z"/>
	<path class="st22" d="M113.5,91.8l0.6,0.3c0.2,0.1,0.2,0.2,0,0.3l-0.1,0.1c-0.1,0.1-0.4,0.1-0.5,0l-0.6-0.3c-0.2-0.1-0.2-0.2,0-0.3
		l0.1-0.1C113.1,91.8,113.3,91.8,113.5,91.8z"/>
	<path class="st22" d="M112.1,91.8v-0.6l0.7,0.4c0.1,0.1,0.1,0.1,0,0.2l-0.3,0.2c-0.1,0.1-0.3,0.1-0.4,0L112.1,91.8z"/>
	<path class="st22" d="M123.6,92.4l1,0.5l0,0l-0.8,0.5h-0.1l-1-0.5l0,0L123.6,92.4L123.6,92.4z"/>
	<path class="st22" d="M116.3,93.5l0.8-0.5h0.1l1,0.5l0,0h-0.1H116.3z"/>
	<path class="st22" d="M125.3,93.1l0.9-0.5h0.1l1,0.5l0,0l-0.9,0.5l0,0c0,0,0,0-0.1,0l0,0L125.3,93.1L125.3,93.1z"/>
	<path class="st22" d="M125.1,91.9l1,0.5l0,0l-0.9,0.5h-0.1l-1-0.5l0,0L125.1,91.9C125,91.9,125.1,91.9,125.1,91.9z"/>
	<path class="st22" d="M123.5,91.1l1.3,0.6c0,0,0,0,0,0.1l-0.9,0.5h-0.1l-1.3-0.6c0,0,0,0,0-0.1L123.5,91.1L123.5,91.1z"/>
	<path class="st22" d="M115.7,87.3l1.3,0.6c0,0,0,0,0,0.1l-0.9,0.5H116l-1.3-0.6c0,0,0,0,0-0.1L115.7,87.3L115.7,87.3z"/>
	<path class="st22" d="M114.5,86.7l0.9,0.5l0,0l-0.9,0.5h-0.1l-0.9-0.5l0,0L114.5,86.7C114.4,86.7,114.4,86.7,114.5,86.7z"/>
	<path class="st22" d="M117.3,88.1l5.8,2.9c0.1,0,0.1,0.1,0,0.1l-0.8,0.5c-0.1,0-0.1,0-0.2,0l-5.8-2.9c-0.1,0-0.1-0.1,0-0.1l0.8-0.5
		C117.2,88.1,117.3,88.1,117.3,88.1z"/>
	<path class="st23" d="M121.5,84.6l6.4,3.2c0.1,0.1,0.2,0.2,0,0.3l-3.8,2.3c-0.1,0.1-0.3,0.1-0.5,0l-6.4-3.2c-0.1-0.1-0.2-0.2,0-0.3
		l3.8-2.3C121.2,84.5,121.4,84.5,121.5,84.6z"/>
	<path class="st22" d="M122.4,91.8l1,0.5l0,0l-0.8,0.5h-0.1l-1-0.5l0,0L122.4,91.8C122.3,91.8,122.4,91.8,122.4,91.8z"/>
	<path class="st22" d="M121.1,91.2l1,0.5l0,0l-0.8,0.5h-0.1l-1-0.5l0,0L121.1,91.2L121.1,91.2z"/>
	<path class="st22" d="M119.9,90.6l1,0.5l0,0l-0.8,0.5H120l-1-0.5l0,0L119.9,90.6C119.8,90.6,119.8,90.6,119.9,90.6z"/>
	<path class="st22" d="M118.6,90l1,0.5l0,0l-0.8,0.5h-0.1l-1-0.5l0,0L118.6,90C118.6,89.9,118.6,89.9,118.6,90z"/>
	<path class="st22" d="M117.4,89.3l1,0.5l0,0l-0.8,0.5h-0.1l-1-0.5l0,0L117.4,89.3C117.3,89.3,117.3,89.3,117.4,89.3z"/>
	<path class="st22" d="M116.1,88.7l1,0.5l0,0l-0.8,0.5h-0.1l-1-0.5l0,0L116.1,88.7L116.1,88.7z"/>
	<path class="st22" d="M114.9,88.1l1,0.5l0,0l-0.8,0.5H115l-1-0.5l0,0L114.9,88.1C114.8,88.1,114.8,88.1,114.9,88.1z"/>
	<path class="st22" d="M113.6,87.5l1,0.5l0,0l-0.8,0.5h-0.1l-1-0.5l0,0L113.6,87.5L113.6,87.5z"/>
	<path class="st22" d="M113.3,86.1l0.7,0.4c0.1,0,0.1,0.1,0,0.2l-0.2,0.1c-0.1,0-0.2,0-0.3,0l-0.7-0.4c-0.1,0-0.1-0.1,0-0.2l0.2-0.1
		C113.1,86.1,113.2,86.1,113.3,86.1z"/>
	<path class="st22" d="M112.4,86.2v-0.5l0.4,0.2c0.1,0,0.1,0.1,0,0.2l-0.2,0.1C112.6,86.2,112.5,86.2,112.4,86.2z"/>
	<path class="st22" d="M121.1,93.2l0.8-0.5h0.1l1,0.5l0,0l-0.2,0.1L121.1,93.2L121.1,93.2L121.1,93.2z"/>
	<path class="st22" d="M120.7,92.1l1,0.5l0,0l-0.8,0.5h-0.1l-1-0.5l0,0L120.7,92.1L120.7,92.1z"/>
	<path class="st22" d="M119.5,91.5l1,0.5l0,0l-0.8,0.5h-0.1l-1-0.5l0,0L119.5,91.5C119.4,91.5,119.4,91.5,119.5,91.5z"/>
	<path class="st22" d="M118.2,90.9l1,0.5l0,0l-0.8,0.5h-0.1l-1-0.5l0,0L118.2,90.9L118.2,90.9z"/>
	<path class="st22" d="M116.9,90.3l1,0.5l0,0l-0.8,0.5H117l-1-0.5l0,0L116.9,90.3C116.9,90.2,116.9,90.2,116.9,90.3z"/>
	<path class="st22" d="M115.7,89.7l1,0.5l0,0l-0.8,0.5h-0.1l-1-0.5l0,0L115.7,89.7C115.7,89.6,115.7,89.6,115.7,89.7z"/>
	<path class="st22" d="M114.5,89l1,0.5l0,0l-0.8,0.5h-0.1l-1-0.5l0,0L114.5,89C114.4,89,114.5,89,114.5,89z"/>
	<path class="st22" d="M113.2,88.4l1,0.5l0,0l-0.8,0.5h-0.1l-1-0.5l0,0L113.2,88.4L113.2,88.4z"/>
	<path class="st22" d="M112.3,88.7v-0.8l0.6,0.3l0,0L112.3,88.7z"/>
	<path class="st22" d="M112.3,87.8l0.1-0.9l1,0.5l0,0l-0.8,0.5h-0.1L112.3,87.8z"/>
	<path class="st22" d="M124.1,93.5l0.7-0.4h0.1l1.1,0.5L124.1,93.5z"/>
	<path class="st22" d="M119.4,93.2l0.5-0.3h0.1l0.8,0.4L119.4,93.2z"/>
	<path class="st22" d="M117.9,92.7l0.8-0.5h0.1l1,0.5l0,0l-0.7,0.4h-0.4L117.9,92.7C117.8,92.8,117.8,92.7,117.9,92.7z"/>
	<path class="st22" d="M117.5,91.6l1,0.5l0,0l-0.8,0.5h-0.1l-1-0.5l0,0L117.5,91.6C117.4,91.6,117.5,91.6,117.5,91.6z"/>
	<path class="st22" d="M116.2,91l1,0.5l0,0l-0.8,0.5h-0.1l-1-0.5l0,0L116.2,91L116.2,91z"/>
	<path class="st22" d="M115,90.4l1,0.5l0,0l-0.8,0.5h-0.1l-1-0.5l0,0L115,90.4L115,90.4z"/>
	<path class="st22" d="M113.8,89.8l1,0.5l0,0l-0.8,0.5h-0.1l-1-0.5l0,0L113.8,89.8C113.7,89.8,113.7,89.8,113.8,89.8z"/>
	<path class="st22" d="M112.2,90v-0.7l0.2-0.1h0.1l1,0.5l0,0l-0.8,0.5h-0.1L112.2,90z"/>
	<path class="st22" d="M116.3,93l0.8-0.5h0.1l1,0.5l0,0h-0.1H116.3z"/>
	<path class="st22" d="M115.9,92l1,0.5l0,0L116,93h-0.1l-1-0.5l0,0L115.9,92C115.8,91.9,115.9,91.9,115.9,92z"/>
	<path class="st22" d="M114.6,91.3l1,0.5l0,0l-0.8,0.5h-0.1l-1-0.5l0,0L114.6,91.3C114.5,91.3,114.6,91.3,114.6,91.3z"/>
	<path class="st22" d="M113.4,90.7l1,0.5l0,0l-0.8,0.5h-0.1l-1-0.5l0,0L113.4,90.7C113.3,90.7,113.3,90.7,113.4,90.7z"/>
	<path class="st22" d="M112.1,91.1l0.1-0.9l0.9,0.4l0,0l-0.8,0.5C112.2,91.1,112.2,91.1,112.1,91.1L112.1,91.1z"/>
	<polygon class="st24" points="122,102.3 97.3,89.9 93.7,72.1 118.5,84.5 	"/>
</g>
<polygon class="st20" points="82.2,71.8 93.4,77.4 92.8,77.7 81.6,72.1 "/>
<polygon class="st20" points="81,72.4 92.2,78 91.6,78.3 80.3,72.7 "/>
<polygon class="st20" points="79.7,73 91,78.7 90.3,79 79.1,73.3 "/>
<polygon class="st20" points="78.5,73.7 89.7,79.3 89.1,79.6 77.9,74 "/>
<polygon class="st20" points="77.3,74.3 88.5,79.9 87.9,80.2 76.7,74.6 "/>
<polygon class="st20" points="76,74.9 87.3,80.5 86.6,80.8 75.4,75.2 "/>
<g>
	<polygon class="st18" points="132.9,95.9 145.9,102.4 127.4,111.7 114.4,105.2 	"/>
	<polygon class="st19" points="132.7,96.4 144.9,102.5 143.1,103.5 130.8,97.3 	"/>
	<polygon class="st20" points="131.2,99.1 139.5,103.3 138.9,103.6 130.6,99.4 	"/>
	<polygon class="st20" points="128.3,99.3 139.5,104.9 138.9,105.2 127.7,99.6 	"/>
	<polygon class="st20" points="127.1,99.9 138.3,105.5 137.7,105.8 126.4,100.2 	"/>
	<polygon class="st20" points="125.8,100.5 137.1,106.1 136.4,106.4 125.2,100.8 	"/>
	<polygon class="st20" points="124.6,101.1 135.8,106.7 135.2,107 124,101.4 	"/>
	<polygon class="st20" points="123.4,101.7 134.6,107.3 134,107.7 122.7,102 	"/>
	<polygon class="st20" points="122.1,102.4 133.4,108 132.7,108.3 121.5,102.7 	"/>
	<polygon class="st20" points="117.4,104.6 121.7,106.7 121,107 116.8,104.9 	"/>
	<polygon class="st25" points="114.4,107.2 114.4,105.2 127.4,111.7 127.4,113.7 	"/>
	<polygon class="st26" points="127.4,111.7 145.9,102.4 145.9,104.6 127.4,113.7 	"/>
	<polygon class="st18" points="132.9,93.3 145.9,99.8 127.4,109.1 114.4,102.6 	"/>
	<polygon class="st19" points="132.7,93.8 144.9,100 143.1,100.9 130.8,94.8 	"/>
	<polygon class="st20" points="131.2,96.5 139.5,100.7 138.9,101 130.6,96.9 	"/>
	<polygon class="st20" points="128.3,96.7 139.5,102.3 138.9,102.6 127.7,97 	"/>
	<polygon class="st20" points="127.1,97.3 138.3,102.9 137.7,103.2 126.4,97.6 	"/>
	<polygon class="st20" points="125.8,97.9 137.1,103.5 136.4,103.9 125.2,98.2 	"/>
	<polygon class="st20" points="124.6,98.5 135.8,104.2 135.2,104.5 124,98.9 	"/>
	<polygon class="st20" points="123.4,99.2 134.6,104.8 134,105.1 122.7,99.5 	"/>
	<polygon class="st20" points="122.1,99.8 133.4,105.4 132.7,105.7 121.5,100.1 	"/>
	<polygon class="st20" points="117.4,102 121.7,104.1 121,104.4 116.8,102.3 	"/>
	<polygon class="st25" points="114.4,104.6 114.4,102.6 127.4,109.1 127.4,111.1 	"/>
	<polygon class="st26" points="127.4,109.1 145.9,99.8 145.9,102 127.4,111.1 	"/>
	<polygon class="st18" points="132.9,90.8 145.9,97.3 127.4,106.5 114.4,100 	"/>
	<polygon class="st19" points="132.7,91.3 144.9,97.4 143.1,98.3 130.8,92.2 	"/>
	<polygon class="st20" points="131.2,94 139.5,98.1 138.9,98.4 130.6,94.3 	"/>
	<polygon class="st20" points="128.3,94.1 139.5,99.7 138.9,100.1 127.7,94.4 	"/>
	<polygon class="st20" points="127.1,94.7 138.3,100.4 137.7,100.7 126.4,95.1 	"/>
	<polygon class="st20" points="125.8,95.4 137.1,101 136.4,101.3 125.2,95.7 	"/>
	<polygon class="st20" points="124.6,96 135.8,101.6 135.2,101.9 124,96.3 	"/>
	<polygon class="st20" points="123.4,96.6 134.6,102.2 134,102.5 122.7,96.9 	"/>
	<polygon class="st20" points="122.1,97.2 133.4,102.8 132.7,103.1 121.5,97.5 	"/>
	<polygon class="st20" points="117.4,99.4 121.7,101.5 121,101.9 116.8,99.7 	"/>
	<polygon class="st25" points="114.4,102.1 114.4,100 127.4,106.5 127.4,108.6 	"/>
	<polygon class="st26" points="127.4,106.5 145.9,97.3 145.9,99.4 127.4,108.6 	"/>
	<polygon class="st18" points="134.2,88.7 146.1,97.1 126.4,103.5 114.5,95.1 	"/>
	<polygon class="st20" points="132.1,91.6 139.7,97 139,97.2 131.4,91.8 	"/>
	<polygon class="st20" points="129.2,91.3 139.4,98.6 138.7,98.8 128.5,91.6 	"/>
	<polygon class="st20" points="127.8,91.8 138.1,99 137.4,99.2 127.2,92 	"/>
	<polygon class="st20" points="126.5,92.2 136.8,99.4 136.1,99.6 125.9,92.4 	"/>
	<polygon class="st20" points="125.2,92.6 135.5,99.9 134.8,100.1 124.5,92.8 	"/>
	<polygon class="st20" points="123.9,93 134.2,100.3 133.5,100.5 123.2,93.2 	"/>
	<polygon class="st20" points="122.6,93.5 132.9,100.7 132.2,100.9 121.9,93.7 	"/>
	<polygon class="st20" points="117.6,94.9 121.5,97.7 120.8,97.9 116.9,95.1 	"/>
	<polygon class="st25" points="114.2,97.1 114.5,95.1 126.4,103.5 126.1,105.5 	"/>
	<polygon class="st26" points="126.4,103.5 146.1,97.1 145.8,99.2 126.1,105.5 	"/>
</g>
<path class="st27" d="M48.4,65.4c0,0-0.7,2.2,2.1,6.6c4.1-2.1,4.4-4.4,4.4-4.4L48.4,65.4z"/>
<path class="st28" d="M47.5,65.6c0,0,0.4,2.4,2.6,2.4c0.2,0,0.6,0.4,1.4,1.2c0.7,0.9,1.4,1.7,2.3,2.4c0.6,0.5,1.9,2.9,2.8,2.8
	s0.7-2.5-0.1-4.6S51.3,65,51.3,65L47.5,65.6z"/>
<path class="st0" d="M66.8,173.6c8.2,4.1,8.2,10.7,0,14.8s-21.4,4.1-29.6,0s-8.2-10.7,0-14.8S58.6,169.5,66.8,173.6z"/>
<path class="st29" d="M52.9,176.1c-0.5,0.9-10.4,0.9-10.4,0.9c0.1-2,0.3-4,0.6-5.9c0.1-0.7,0.1-1.3-0.1-2h4.6
	c0.2,1.2,0.5,2.5,0.9,3.6C49.1,174,53.4,175.1,52.9,176.1z"/>
<path class="st30" d="M56.6,174.9c0.2,0.2,0.4,0.5,0.5,0.8c0.3,0.9-0.6,2.3-4.2,3.6s-4.3,0.5-7.2,1.6c-1.4,0.6-4.2,0.7-3.4-4
	c0,0,1.8,0,3.9,0c0.2,0.1,0.4,0.2,0.6,0.2c1.6,0.5,3.3,0.5,4.9,0.1c1.3-0.2,2.1-1.4,3.1-1.8L56.6,174.9z"/>
<path class="st31" d="M45.4,180.3c3-0.9,3.6,0,7.3-1.1s4.7-2.5,4.4-3.4c-0.7-2.2-0.3,0.5-7.4-1.1c-0.5-0.1,2.5,0.5,2.4,0.8
	c-0.5,1.5-9.9,0.5-9.9,0.5C41.1,180.7,43.9,180.7,45.4,180.3z"/>
<path class="st29" d="M62,182.4c-0.5,1.1-11.3,1.5-11.3,1.5c0-2.2,0.1-4.3,0.4-6.5c0.4-1.9-1-4.6-2-8.3h6c0.2,3.4,0.9,6.7,2.1,9.9
	C57.8,180.3,62.5,181.3,62,182.4z"/>
<path class="st32" d="M65.1,181.6c0.2,0.3,0.3,0.6,0.4,0.9c0.2,0.9-1,2.1-4.8,2.8s-4.4-0.2-7.4,0.3c-1.5,0.3-4.3-0.1-2.6-4.6
	c0,0,1.8,0.4,3.8,0.7c0.2,0.1,0.4,0.2,0.5,0.3c1.5,0.7,3.1,1.1,4.8,1c1.3,0,2.3-1,3.4-1.2L65.1,181.6z"/>
<path class="st31" d="M53.1,184.9c3.1-0.3,3.6,0.6,7.4,0.2s5.1-1.6,4.9-2.5c-0.3-2.2-1.2-0.5-7.9-3.2c-0.4-0.2,3.2,1.9,3.1,2.1
	c-0.8,1.4-9.8-1.3-9.8-1.3C48.8,184.5,51.6,185.1,53.1,184.9z"/>
<path class="st33" d="M48.4,73.7c0.4,0-2.6,6.4-2.6,6.4l1,4l8.4-1.8v-6.2L48.4,73.7z"/>
<path class="st34" d="M73.1,112.1c2,3.1,8.9,5.7,10.9,4c0.6-0.5,3.2-4.2,0.3-3.6s-11.2-3.7-11.2-3.7S71.2,109,73.1,112.1z"/>
<g>
	<g>
		<path class="st35" d="M56.7,138.5c0.2-0.1,0.4-0.3,0.3-0.6l-1.6-19.1c0-0.6-0.6-1-1.1-0.8l-23.6,9.6c-0.1,0-0.2,0.1-0.2,0.2
			l18.3,13.9L56.7,138.5z"/>
		<path class="st36" d="M30.5,127.9c-0.1,0.1-0.1,0.2-0.1,0.4l1.6,19.1c0,0.6,0.6,1,1.1,0.8l15.8-6.4L30.5,127.9z"/>
	</g>
	<polygon class="st35" points="55,118.2 60.4,121.7 35.8,131.9 30.5,127.9 	"/>
	<polygon class="st36" points="37.8,151.7 32.4,148 30.5,127.9 35.9,131.4 	"/>
	<path class="st37" d="M33.3,130.5c0-0.3,0.1-0.5,0.3-0.6l24.2-9.8c-0.2-0.2-0.6-0.4-1-0.2l-23.6,9.6c-0.2,0.1-0.4,0.3-0.3,0.6
		l1.6,18.9c0,0.3,0.2,0.5,0.4,0.7L33.3,130.5z"/>
	<g>
		<path class="st38" d="M35.2,127.8l2.5,1.7c0.3,0.2,0.7,0.2,0.9,0.1l0.7-0.3c0.3-0.1,0.3-0.6,0.1-0.8l-2.6-1.4
			c-0.3-0.2-0.7-0.2-0.9-0.1H35C34.7,127.1,34.9,127.7,35.2,127.8z"/>
		<path class="st39" d="M35.1,127.4l2.5,1.7c0.3,0.2,0.7,0.2,0.9,0.1l0.7-0.3c0.3-0.1,0.2-0.3,0-0.5l-2.5-1.7
			c-0.3-0.2-0.7-0.2-0.9-0.1l-0.7,0.3C34.8,127,34.9,127.2,35.1,127.4z"/>
	</g>
	<g>
		<path class="st38" d="M52.5,120.5l2.5,1.7c0.3,0.2,0.7,0.2,0.9,0.1l0.7-0.3c0.3-0.1,0.3-0.6,0.1-0.8l-2.6-1.4
			c-0.3-0.2-0.7-0.2-0.9-0.1l-0.8-0.1C52.1,119.7,52.2,120.3,52.5,120.5z"/>
		<path class="st39" d="M52.5,120l2.5,1.7c0.3,0.2,0.7,0.2,0.9,0.1l0.7-0.3c0.3-0.1,0.2-0.3,0-0.5l-2.5-1.7
			c-0.3-0.2-0.7-0.2-0.9-0.1l-0.7,0.3C52.2,119.6,52.2,119.9,52.5,120z"/>
	</g>
	<g>
		<path class="st38" d="M42.1,125.5l1.3,0.9c0.1,0.1,0.4,0.1,0.5,0.1l0.4-0.1c0.1-0.1,0.2-0.3,0-0.4l-1.4-0.7
			c-0.1-0.1-0.4-0.1-0.5-0.1H42C41.9,125.1,41.9,125.4,42.1,125.5z"/>
		<path class="st39" d="M42.1,125.3l1.3,0.9c0.1,0.1,0.4,0.1,0.5,0.1l0.4-0.1c0.1-0.1,0.1-0.2,0-0.3L43,125
			c-0.1-0.1-0.4-0.1-0.5-0.1L42,125C41.9,125,41.9,125.2,42.1,125.3z"/>
	</g>
	<g>
		<path class="st38" d="M47.4,122.8l1.3,0.9c0.1,0.1,0.4,0.1,0.5,0.1l0.4-0.1c0.1-0.1,0.2-0.3,0-0.4l-1.4-0.7
			c-0.1-0.1-0.4-0.1-0.5-0.1h-0.4C47.2,122.4,47.3,122.7,47.4,122.8z"/>
		<path class="st39" d="M47.4,122.6l1.3,0.9c0.1,0.1,0.4,0.1,0.5,0.1l0.4-0.1c0.1-0.1,0.1-0.2,0-0.3l-1.3-0.9
			c-0.1-0.1-0.4-0.1-0.5-0.1l-0.4,0.1C47.2,122.4,47.2,122.5,47.4,122.6z"/>
	</g>
	<path class="st36" d="M43.2,125.9c-0.2,0-0.3-0.2-0.3-0.4l-0.2-2.9c0-0.1,0-0.2,0.2-0.3l5.4-2.1c0.1,0,0.2,0,0.3,0.1
		s0.2,0.2,0.2,0.3l0.2,2.3c0,0.2-0.1,0.3-0.3,0.3l0,0c-0.2,0-0.3-0.2-0.3-0.4L48,121l-4.8,1.9l0.2,2.7
		C43.5,125.8,43.4,125.9,43.2,125.9z"/>
	<path class="st37" d="M62,142.1l-23.6,9.6c-0.4,0.2-1-0.3-1.1-0.8l-1.6-19.1c0-0.3,0.1-0.5,0.3-0.6l23.6-9.6c0.4-0.2,1,0.3,1.1,0.8
		l1.6,19.1C62.4,141.8,62.3,142.1,62,142.1z"/>
</g>
<path class="st40" d="M54.3,126.4c0,0,4,43-5,45.8s-7.7-0.4-7.7-0.4v-44.3L54.3,126.4z"/>
<path class="st41" d="M46.3,109.8l11.9,9.9l-3.3,7.7l-13.7-12.3c0,0-1.5-2.1-1.9-9c-1.1-16.2,1.8-22,4.6-24c2.2-1.5,4.6,1.4,4.3,5
	C47.5,96.9,46.3,109.8,46.3,109.8z"/>
<path class="st42" d="M59.5,127.4l-2.4,49.4c0,0-7.8,5.2-7.5,0.9s-6-50.3-6-50.3S59.5,127.4,59.5,127.4z"/>
<path class="st43" d="M42.6,83.9c-2.6,8.2,1.1,26.2,1.1,26.2l-4.1,9c0,0-2.5,14.8,1,15.6c12.4,2.8,23.1-3.2,23.1-3.2l-1.1-30
	c0,0-4.9-14.8-5.7-18s-11.3-3.8-11.3-3.8S43,82.2,42.6,83.9z"/>
<path class="st33" d="M50.7,65.5l-1.4,9.9c0,0,7.7,2.5,9.7,1.4c2-1,1.9-13.6,1.9-13.6L50.7,65.5z"/>
<path class="st41" d="M62.5,104.6l16.2,5.4l-1.9,6.2L58,109.3c0,0-2.2-1.3-4.5-6.3c-5.3-11.8-3.4-16.5-0.7-18.4
	c2.2-1.5,5.6,0.3,6.2,3C60.7,94.9,62.5,104.6,62.5,104.6z"/>
<path class="st44" d="M57.4,55.5c2.6,1.6,4,4.7,3.5,7.7l-2.7,4.4c0,0,0.3,2.2-1.5,6.5c-0.9,2.1-9.1,3.2-10.7,1.5
	c-10.4-10.9-0.5-18.2-0.5-18.2C50.3,54.1,53,52.8,57.4,55.5z"/>
<path class="st45" d="M43.7,65.8c-2.4,0-5,4.2-5,6.6c0,0.4,0.7-1.3,0.8-0.9c0.3,1,0.6,2.1,1,3.1c0.2,0.4,0-1.3,0.4-1
	c0.8,0.6,1.7,1,2.8,1c2.4,0,4.3-2,4.3-4.4C48,67.8,46,65.8,43.7,65.8z"/>
<polygon class="st46" points="99.9,153.5 86.6,145.8 81.5,127.4 89.7,116.8 103,124.6 108.1,142.9 "/>
<polygon class="st21" points="107,86.6 107.8,88.2 107.2,89.1 105.8,88.5 105,86.9 105.6,86 "/>
</svg>
