<?xml version="1.0" encoding="utf-8"?>
<!-- Generator: Adobe Illustrator 22.1.0, SVG Export Plug-In . SVG Version: 6.00 Build 0)  -->
<svg version="1.1" id="images" xmlns="http://www.w3.org/2000/svg" xmlns:xlink="http://www.w3.org/1999/xlink" x="0px" y="0px"
	 viewBox="0 0 401 468" style="enable-background:new 0 0 401 468;" xml:space="preserve">
<style type="text/css">
	.st0{fill:url(#SVGID_1_);}
	.st1{fill:url(#SVGID_2_);}
	.st2{opacity:0.3;fill:#4C57A7;}
	.st3{fill:url(#SVGID_3_);}
	.st4{fill:url(#SVGID_4_);}
	.st5{fill:url(#SVGID_5_);}
	.st6{fill:#823E29;}
	.st7{fill:#EFD4CB;}
	.st8{fill:none;stroke:#DB8231;stroke-width:3;stroke-miterlimit:10;}
	.st9{fill:#EDD2C8;}
	.st10{fill:none;stroke:#DB8231;stroke-width:2;stroke-miterlimit:10;}
	.st11{fill:#FCEAE6;}
	.st12{fill:#F9DFD7;}
	.st13{fill:#FCF1ED;}
	.st14{opacity:0.8;}
	.st15{fill:url(#SVGID_6_);}
	.st16{fill:url(#SVGID_7_);}
	.st17{fill:url(#SVGID_8_);}
	.st18{opacity:0.3;}
	.st19{fill:#FFFFFF;}
	.st20{fill:#FFE233;}
	.st21{fill:url(#SVGID_9_);}
	.st22{fill:url(#SVGID_10_);}
	.st23{fill:url(#SVGID_11_);}
	.st24{fill:url(#SVGID_12_);}
	.st25{fill:#CC3300;}
	.st26{fill:#003399;}
	.st27{opacity:0.9;}
	.st28{fill:#85D855;}
	.st29{fill:#66CC33;}
	.st30{fill:url(#SVGID_13_);}
	.st31{fill:#C2CCCC;}
	.st32{fill:#CC9966;}
	.st33{fill:#336699;}
	.st34{fill:#6B2C20;}
	.st35{fill:#262626;}
	.st36{fill:#545454;}
	.st37{fill:#EFDDC5;}
	.st38{fill:#C67E59;}
	.st39{fill:#FFD9BD;}
	.st40{fill:#E5E5E5;}
	.st41{fill:#515151;}
	.st42{fill:#EDB554;}
	.st43{fill:#BABABA;}
	.st44{fill:#7A4D17;}
	.st45{fill:#492908;}
	.st46{fill:#232323;}
	.st47{fill:#494949;}
	.st48{fill:#383838;}
	.st49{fill:#2D2D2D;}
	.st50{fill:#DDDDDD;}
	.st51{fill:#C4C4C4;}
	.st52{fill:#684116;}
	.st53{fill:#353535;}
	.st54{fill:#FFCC99;}
	.st55{fill:#2E4266;}
	.st56{fill:#303030;}
	.st57{fill:#263954;}
	.st58{fill:#1B2D54;}
	.st59{fill:#AF7E56;}
	.st60{fill:#444D84;}
	.st61{fill:#3F4775;}
	.st62{fill:#5D66A5;}
	.st63{fill:#EA9524;}
	.st64{fill:#565E9B;}
	.st65{fill:#93735C;}
	.st66{fill:#664A35;}
	.st67{fill:#634023;}
	.st68{fill:#7F532B;}
	.st69{fill:#3A3A3A;}
	.st70{fill:#674D6D;}
	.st71{fill:#5E3E66;}
	.st72{fill:#EFAF75;}
	.st73{fill:#DB9F6E;}
</style>
<g id="COFFEE">
	<g id="BIG-COFFEE-PLATE">
		<g id="XMLID_51_">
			<g>
				<radialGradient id="SVGID_1_" cx="197.2085" cy="300.0639" r="157.7064" gradientUnits="userSpaceOnUse">
					<stop  offset="0" style="stop-color:#337DCC"/>
					<stop  offset="0.3008" style="stop-color:#3678C7"/>
					<stop  offset="0.6654" style="stop-color:#4069B9"/>
					<stop  offset="1" style="stop-color:#4D55A5"/>
				</radialGradient>
				<path class="st0" d="M197.2,184c105.2,0,190.5,52,190.5,116s-85.3,116.1-190.5,116.1S6.7,364.2,6.7,300.1S92,184,197.2,184z
					 M371,299.8c0-54.9-77.4-99.4-173-99.4s-173,44.5-173,99.4s77.4,99.4,173,99.4S371,354.7,371,299.8z"/>
				<radialGradient id="SVGID_2_" cx="198.0785" cy="299.7539" r="141.0656" gradientUnits="userSpaceOnUse">
					<stop  offset="0" style="stop-color:#4C57A7"/>
					<stop  offset="9.770453e-02" style="stop-color:#6D76B7"/>
					<stop  offset="0.2482" style="stop-color:#999FCD"/>
					<stop  offset="0.4003" style="stop-color:#BEC2DF"/>
					<stop  offset="0.5518" style="stop-color:#DADDED"/>
					<stop  offset="0.7025" style="stop-color:#EFF0F7"/>
					<stop  offset="0.8523" style="stop-color:#FBFBFD"/>
					<stop  offset="1" style="stop-color:#FFFFFF"/>
				</radialGradient>
				<ellipse class="st1" cx="198.1" cy="299.8" rx="173" ry="99.4"/>
			</g>
			<g>
			</g>
		</g>
		<ellipse class="st2" cx="200.6" cy="298" rx="73.2" ry="32.1"/>
	</g>
	<g id="BIG-COFFEE">
		<g id="coffee-mug">
			<g>
				<linearGradient id="SVGID_3_" gradientUnits="userSpaceOnUse" x1="302.8385" y1="211.017" x2="367.3633" y2="211.017">
					<stop  offset="0" style="stop-color:#1B1B6D"/>
					<stop  offset="3.080451e-02" style="stop-color:#1D1D77"/>
					<stop  offset="0.116" style="stop-color:#22228D"/>
					<stop  offset="0.2165" style="stop-color:#26269E"/>
					<stop  offset="0.3409" style="stop-color:#2929A9"/>
					<stop  offset="0.5155" style="stop-color:#2B2BB0"/>
					<stop  offset="1" style="stop-color:#2B2BB2"/>
				</linearGradient>
				<path class="st3" d="M366.8,185.4c1.3,6,0.2,12.2-1.3,18.1c-3.8,14.8-10.9,29.1-22.1,39.5c-10.8,10.1-25.9,16.2-40.6,14.6
					c2.4-5.4,4.6-10.8,6.7-16.3l0.2,0.1c7.3-1.8,14.6-4.8,20.3-9.8c4.4-3.8,8-8.7,10.9-13.7c5.1-8.6,11.6-24.8,2.7-33.3
					c-5.1-4.9-13.1-1.6-18.4,1.1c1.1-6.8,1.9-13.6,2.4-20.5l1.8,0.1c7.6-1.9,16-1.4,23.1,2.1S365.2,177.7,366.8,185.4z"/>
				<linearGradient id="SVGID_4_" gradientUnits="userSpaceOnUse" x1="100.7185" y1="232.5322" x2="328.2085" y2="232.5322">
					<stop  offset="0" style="stop-color:#1B1B6D"/>
					<stop  offset="0.2186" style="stop-color:#1C1C72"/>
					<stop  offset="0.4842" style="stop-color:#202081"/>
					<stop  offset="0.7728" style="stop-color:#252599"/>
					<stop  offset="1" style="stop-color:#2B2BB2"/>
				</linearGradient>
				<path class="st4" d="M325.3,185.7c-2.3,14.2-5.9,28.2-10.7,41.8c-1.6,4.5-3.3,9.2-5.1,13.8c-2.1,5.4-4.3,10.9-6.7,16.3
					c-6,13.4-13.2,26.3-22.4,37c-6.3,7.4-19.9,12.8-29.3,15.8c-25.5,8.2-54.8,4.8-79.9-3.3c-9.1-3-17.1-8.5-23.4-15.7
					c-15.4-17.7-24.5-39.8-32.5-61.6c-9.4-25.5-14.5-52.5-14.7-79.7h0.4c0,28.3,50.8,51.2,113.4,51.2S328,178.3,328,150h0.2
					c0,5.1-0.2,10.2-0.5,15.2C327.2,172.1,326.4,178.9,325.3,185.7z"/>
				<linearGradient id="SVGID_5_" gradientUnits="userSpaceOnUse" x1="101.1485" y1="149.9989" x2="328.0085" y2="149.9989">
					<stop  offset="0" style="stop-color:#1B1B6D"/>
					<stop  offset="0.2186" style="stop-color:#1C1C72"/>
					<stop  offset="0.4842" style="stop-color:#202081"/>
					<stop  offset="0.7728" style="stop-color:#252599"/>
					<stop  offset="1" style="stop-color:#2B2BB2"/>
				</linearGradient>
				<path class="st5" d="M214.6,98.8c62.6,0,113.4,22.9,113.4,51.2c0,28.3-50.8,51.2-113.4,51.2S101.1,178.3,101.1,150
					C101.1,121.7,151.9,98.8,214.6,98.8z M312.5,150c0-23.7-43.9-43-98-43s-98,19.2-98,43c0,23.7,43.9,43,98,43
					S312.5,173.7,312.5,150z"/>
				<path class="st6" d="M214.6,107c54.1,0,98,19.2,98,43c0,23.7-43.9,43-98,43s-98-19.2-98-43C116.6,126.3,160.5,107,214.6,107z"/>
			</g>
			<g>
			</g>
		</g>
		<g id="coffee-art">
			<g id="fifth_2_">
				<g>
					<path class="st7" d="M221.7,179.2c0.6,0.9,0.4,2.3-0.4,3c-0.6,0.5-1.4,0.8-2.2,1c-3,0.7-6.2,1.2-9.4,1.3
						c-4.5,0.2-9.1,0.1-13.5-0.3c-8.8-0.8-17.1-3.6-25.6-5.5c-5.7-1.3-11.6-3.4-17-5.7c-10.8-4.5-22.1-12.1-21.8-25.1
						c0.1-5.2,3.9-10.3,7.5-13.8c6.2-6.1,14.2-9.2,22.3-11.8c5.3-1.7,10.8-3,16.4-3.9c10.7-1.8,22.4-4.3,33.2-2.8
						c1,0.1,2,0.3,2.7,1.1c0.1,0.2,0.3,0.4,0.2,0.6c0,0.1-0.1,0.2-0.2,0.3c-0.6,0.5-1.2,1.1-1.9,1.4c-2.4,1.1-6.1,0.8-8.8,1
						c-3.6,0.3-7.1,0.9-10.6,1.6c-6.8,1.4-13.6,3.5-20,6.2c-5.2,2.2-10.2,4.9-14,9c-5.9,6.4-7.2,15.3-1.7,22.4
						c0.9,1.2,2,2.2,3.1,3.3c1.1,1.1,2.3,2.2,3.5,3.1c3.4,2.6,8.3,4.8,12.3,6.4c5.4,2.2,11.2,3.9,16.9,5.1c3.9,0.8,7.8,1.4,11.7,1.7
						c3.6,0.3,7-0.4,10.6-0.5C217,178.3,220.6,177.3,221.7,179.2z"/>
				</g>
				<g>
					<path class="st8" d="M209.7,184.5c-4.5,0.2-9.1,0.1-13.5-0.3c-8.8-0.8-17.1-3.6-25.6-5.5c-5.7-1.3-11.6-3.4-17-5.7
						c-10.8-4.5-22.1-12.1-21.8-25.1c0.1-5.2,3.9-10.3,7.5-13.8c6.2-6.1,14.2-9.2,22.3-11.8c5.3-1.7,10.8-3,16.4-3.9
						c10.7-1.8,22.4-4.3,33.2-2.8c1,0.1,2,0.3,2.7,1.1c0.1,0.2,0.3,0.4,0.2,0.6c0,0.1-0.1,0.2-0.2,0.3c-0.6,0.5-1.2,1.1-1.9,1.4
						c-2.4,1.1-6.1,0.8-8.8,1c-3.6,0.3-7.1,0.9-10.6,1.6c-6.8,1.4-13.6,3.5-20,6.2c-5.2,2.2-10.2,4.9-14,9
						c-5.9,6.4-7.2,15.3-1.7,22.4c0.9,1.2,2,2.2,3.1,3.3c1.1,1.1,2.3,2.2,3.5,3.1c3.4,2.6,8.3,4.8,12.3,6.4
						c5.4,2.2,11.2,3.9,16.9,5.1c3.9,0.8,7.8,1.4,11.7,1.7c3.6,0.3,7-0.4,10.6-0.5c1.8-0.1,5.4-1,6.5,0.8c0.6,0.9,0.4,2.3-0.4,3
						c-0.6,0.5-1.4,0.8-2.2,1C216,183.9,212.9,184.3,209.7,184.5z"/>
				</g>
			</g>
			<g id="fourth_2_">
				<g>
					<path class="st9" d="M237.8,168.3c0.3,1.8-2.6,2.4-3.7,2.7c-2.9,0.7-5.8,1.7-8.7,2.4c-6.5,1.5-13.1,2.4-19.7,2.1
						c-7.9-0.4-15.7-2.5-23.2-5c-5.7-1.9-11.4-4.1-15.8-8.2c-3.1-3-5.4-6.9-6.1-11.1c-0.7-4.2,0.2-8.8,2.9-12.2
						c1.6-2.1,3.7-3.7,6-5.1c11.7-7,25.7-8.1,38.8-9.8c4.2-0.5,8.5-0.7,12.7-0.5c1.9,0.1,4.6,0,6.3,0.9c2.1,1.2,2,3.2-0.6,3.9
						c-0.3,0.1-0.6,0.1-0.9,0.2c-2.7,0.5-5.6,0.1-8.4,0.2c-2.6,0.1-5.2,0.6-7.7,1.6c1.4,0.9,5,2.2,5.3,3.9c-3.1,1.1-6.7,1.3-10,1.9
						c-2.4,0.4-4.8,0.9-7.1,1.9c-4,1.8-7.1,5.3-11.2,6.8c-4.3,1.5-9,2.4-12.8,5.1c2,1.4,5.9,1.1,8.3,1.7c3.1,0.8,6.1,1.9,8.6,3.8
						c1.4,1,2.7,2.3,4.1,3.2c4,2.7,9.1,3.1,14,3c4.8-0.2,9.7-0.8,14.5,0c-1.2,1-2.4,1.9-3.6,2.9c4.2,0.3,8.5,0.6,12.7,0.8
						C234.6,165.4,237.5,166.1,237.8,168.3z"/>
				</g>
				<g>
					<path class="st10" d="M225.7,128.6c0.3-0.1,0.6-0.1,0.9-0.2c2.6-0.7,2.7-2.7,0.6-3.9c-1.7-0.9-4.4-0.8-6.3-0.9
						c-4.2-0.2-8.5-0.1-12.7,0.5c-13.2,1.7-27.1,2.8-38.8,9.8c-2.2,1.4-4.4,3-6,5.1c-2.6,3.4-3.6,8-2.9,12.2c0.7,4.2,3,8.2,6.1,11.1
						c4.4,4.1,10.1,6.3,15.8,8.2c7.5,2.5,15.3,4.6,23.2,5c6.6,0.3,13.3-0.6,19.7-2.1c2.9-0.7,5.8-1.7,8.7-2.4c1-0.4,3.9-0.9,3.7-2.7
						c-0.3-2.2-3.2-2.9-5.4-3c-4.2-0.3-8.5-0.5-12.7-0.8c1.2-1,2.4-1.9,3.6-2.9c-4.8-0.8-9.7-0.1-14.5,0c-4.8,0.2-9.9-0.3-14-3
						c-1.5-1-2.7-2.2-4.1-3.2c-2.6-1.9-5.6-3-8.6-3.8c-2.4-0.6-6.4-0.2-8.3-1.7c3.8-2.7,8.5-3.6,12.8-5.1c4.2-1.4,7.2-5,11.2-6.8
						c2.2-1,4.7-1.4,7.1-1.9c3.3-0.6,6.9-0.8,10-1.9c-0.3-1.6-3.8-3-5.3-3.9c2.4-0.9,5.1-1.5,7.7-1.6
						C220.2,128.7,223,129.1,225.7,128.6z"/>
				</g>
			</g>
			<g id="third_2_">
				<g>
					<path class="st11" d="M244.9,160.9c0.5,0.4,0.9,0.9,0.7,1.5c-0.2,0.5-0.8,0.7-1.4,0.8c-2.4,0.3-4.9-0.5-7.2-0.7
						c-2.8-0.3-5.6-0.7-8.2-1.7c-2.4-0.9-4.9-1.9-7.4-2.6c-2.2-0.6-4.4-0.2-6.6-0.2c-5.2,0.1-10.3-0.5-14.8-3.3
						c-1.6-1-3.2-2.2-4.9-3.1c-3.1-1.6-6.5-2.6-10-2.6c2.9-0.6,5.6-1.6,8.2-2.7c1.8-0.7,3.5-1.6,5-2.7c0.9-0.6,1.7-1.3,2.5-1.9
						c0.7-0.5,1.4-1.1,2.1-1.6c2.9-1.9,5.9-1.9,9.1-2.7c7.7-1.9,14.6-6.5,22.4-8.1c1.2-0.3,2.6-0.1,3.7,0.6c-0.9,0.9-2.1,1.4-3.2,2
						c-2.1,1.1-3.9,2.9-5,5c-0.5,0.9-0.8,1.8-1.4,2.6c-1.1,1.4-2.9,2.2-4.6,2.8c-5.4,1.9-10.3,4.3-15.8,5.9
						c3.4-0.9,9.1,0.7,12.4,1.3c3.4,0.7,6.9,1,9.7,3.2c1.1,0.9,2,2,3.2,2.7c1.4,0.8,3,1.1,4.6,1.5
						C240.8,157.8,242.8,159,244.9,160.9z"/>
				</g>
				<g>
					<path class="st10" d="M200.9,141.8c0.7-0.5,1.4-1.1,2.1-1.6c2.9-1.9,5.9-1.9,9.1-2.7c7.7-1.9,14.6-6.5,22.4-8.1
						c1.2-0.3,2.6-0.1,3.7,0.6c-0.9,0.9-2.1,1.4-3.2,2c-2.1,1.1-3.9,2.9-5,5c-0.5,0.9-0.8,1.8-1.4,2.6c-1.1,1.4-2.9,2.2-4.6,2.8
						c-5.4,1.9-10.3,4.3-15.8,5.9c3.4-0.9,9.1,0.7,12.4,1.3c3.4,0.7,6.9,1,9.7,3.2c1.1,0.9,2,2,3.2,2.7c1.4,0.8,3,1.1,4.6,1.5
						c2.8,0.8,4.7,2,6.9,3.9c0.5,0.4,0.9,0.9,0.7,1.5c-0.2,0.5-0.8,0.7-1.4,0.8c-2.4,0.3-4.9-0.5-7.2-0.7c-2.8-0.3-5.6-0.7-8.2-1.7
						c-2.4-0.9-4.9-1.9-7.4-2.6c-2.2-0.6-4.4-0.2-6.6-0.2c-5.2,0.1-10.3-0.5-14.8-3.3c-1.6-1-3.2-2.2-4.9-3.1
						c-3.1-1.6-6.5-2.6-10-2.6c2.9-0.6,5.6-1.6,8.2-2.7c1.8-0.7,3.5-1.6,5-2.7C199.3,143.1,200.1,142.4,200.9,141.8z"/>
				</g>
			</g>
			<g id="second_2_">
				<g>
					<path class="st12" d="M262,152.1c3.6,5.3-10.7,5.3-13,4.8c-3.7-0.8-7-2.7-10.4-4.3c-6.8-3.2-14.3-5.1-21.8-5.6v-0.1
						c5.1,0,11.3-2.6,15.4-5.2c3.9-2.4,7.4-5.7,11.6-7.3c5-1.9,10.9-1.4,15.5,1.5c0.5,1.4-0.9,2.7-2.2,3.4c-3.7,2-7.7,3.3-11.7,4.3
						c-1.7,0.4-10.9,1.1-11.2,2.6c2.5,1.2,6.9,1,9.7,1.4c3.2,0.4,6.5,0.8,9.7,1.5C255.8,149.5,260.6,150.1,262,152.1z"/>
				</g>
				<g>
					<path class="st10" d="M215.9,146.9c0.3,0,0.6,0,0.9,0c5.1,0,11.3-2.6,15.4-5.2c3.9-2.4,7.4-5.7,11.6-7.3
						c5-1.9,10.9-1.4,15.5,1.5c0.5,1.4-0.9,2.7-2.2,3.4c-3.7,2-7.7,3.3-11.7,4.3c-1.7,0.4-10.9,1.1-11.2,2.6c2.5,1.2,6.9,1,9.7,1.4
						c3.2,0.4,6.5,0.8,9.7,1.5c2.3,0.5,7,1.1,8.5,3.2c3.6,5.3-10.7,5.3-13,4.8c-3.7-0.8-7-2.7-10.4-4.3c-6.8-3.2-14.3-5.1-21.8-5.6"
						/>
				</g>
			</g>
			<g id="first_2_">
				<g>
					<path class="st13" d="M272.5,142.6c1.5,1.4,1.4,2.7,0.6,3.6c-0.9,1.1-2.8,1.7-4.3,1.9c-4.4,0.4-8.7-0.6-13-1.4
						c-3.2-0.5-8.3-1.9-11.4-0.9c4-1.2,8.2-1.3,12.2-2.8c2.2-0.8,4.5-1.2,6.7-1.9C266.2,140,270.2,140.4,272.5,142.6z"/>
				</g>
				<g>
					<path class="st10" d="M273.1,146.2c-0.9,1.1-2.8,1.7-4.3,1.9c-4.4,0.4-8.7-0.6-13-1.4c-3.2-0.5-8.3-1.9-11.4-0.9
						c4-1.2,8.2-1.3,12.2-2.8c2.2-0.8,4.5-1.2,6.7-1.9c2.9-1,6.9-0.6,9.2,1.5C274,144,273.9,145.3,273.1,146.2z"/>
				</g>
			</g>
		</g>
		<g id="wisps">
			<g id="wisp-3" class="st14">
				<g>
					<linearGradient id="SVGID_6_" gradientUnits="userSpaceOnUse" x1="214.5269" y1="63.0726" x2="243.0021" y2="63.0726">
						<stop  offset="0" style="stop-color:#FFFFFF;stop-opacity:0.16"/>
						<stop  offset="0.5358" style="stop-color:#FFFFFF;stop-opacity:0.5"/>
						<stop  offset="0.9394" style="stop-color:#FFFFFF;stop-opacity:6.415084e-02"/>
						<stop  offset="0.9988" style="stop-color:#FFFFFF;stop-opacity:0"/>
					</linearGradient>
					<path class="st15" d="M243,9.7c0.2,1.6-3,4.7-4,6c-8.7,11.2-17.5,24-16.6,39.1c0.3,4.6,1.5,9.2,2.6,13.7c1,3.9,4,7,4.6,11.1
						c0.9,5.4-1.8,10.7-2.9,15.8c-1.1,4.6-4.2,10.1-3.6,14.9c0.2,1.7,0.9,3.3,0.9,5c0,1.3-0.5,2.8-1.7,3.3c-4,1.8-6.4-7.3-6.3-9.6
						c0.1-2.3,0.6-4.4,1.4-6.5c2.2-6.3,6.3-12.2,5.4-19.3c-0.7-5-3.7-9.2-5.7-13.8c-4.8-11.1-2-21,1.2-31.9
						c3.2-10.5,8.9-19.2,16.9-26.8c1.5-1.5,3.2-2.9,5.3-3.3C242.6,7,242.7,7.6,243,9.7z"/>
				</g>
				<g>
				</g>
			</g>
			<g id="wisp-2" class="st14">
				<g>
					<linearGradient id="SVGID_7_" gradientUnits="userSpaceOnUse" x1="258.4592" y1="82.2513" x2="275.9726" y2="82.2513">
						<stop  offset="0" style="stop-color:#FFFFFF;stop-opacity:0.16"/>
						<stop  offset="0.5358" style="stop-color:#FFFFFF;stop-opacity:0.5"/>
						<stop  offset="0.9394" style="stop-color:#FFFFFF;stop-opacity:6.415084e-02"/>
						<stop  offset="0.9988" style="stop-color:#FFFFFF;stop-opacity:0"/>
					</linearGradient>
					<path class="st16" d="M275.8,83.6c0.7,4.8-1.4,9.5-3.7,13.8c-2.2,4.3-4.8,8.7-5.1,13.5c-0.1,1.8,0.1,3.6-0.2,5.4
						c-0.2,1.8-1,3.6-2.5,4.5c-2,1.2-4.7,0.1-5.2-2.2c-1.4-5.3-0.8-11.1,1.5-16.1c2.5-5.4,7.1-10.1,7.5-16.1c0.2-3.2-0.6-6.2-1.8-9
						c-1-2.6-2.3-5.1-3.4-7.6c-2.1-5.2-1.7-11.1,0.6-16.2c1-2.1,8.3-13.3,11.6-10.2c0.4,0.4,0.5,1.1,0.3,1.7
						c-1.5,4.5-5.2,8.2-6.4,13c-1.1,4.6,0.5,9.3,2,13.6C272.6,75.9,275.3,79.5,275.8,83.6z"/>
				</g>
				<g>
				</g>
			</g>
			<g id="wisp-1" class="st14">
				<g>
					<linearGradient id="SVGID_8_" gradientUnits="userSpaceOnUse" x1="159.0988" y1="82.5104" x2="189.6535" y2="82.5104">
						<stop  offset="0" style="stop-color:#FFFFFF;stop-opacity:0.16"/>
						<stop  offset="0.5358" style="stop-color:#FFFFFF;stop-opacity:0.5"/>
						<stop  offset="0.9394" style="stop-color:#FFFFFF;stop-opacity:6.415084e-02"/>
						<stop  offset="0.9988" style="stop-color:#FFFFFF;stop-opacity:0"/>
					</linearGradient>
					<path class="st17" d="M187.6,93.4c1.1,5.1,2.2,10.2,2,15.4c-0.2,3.2-0.8,6.3-1.7,9.4c-0.7,2.3-1.5,4.8-3.5,6.3
						c-1.9,1.5-5.2,1.4-6.4-0.8c-0.8-1.4-0.3-3.2,0.1-4.8c1.9-6.8,3.7-13.8,2.9-20.8c-0.5-4.3-2-7.7-4.3-10.5
						c-2-2.5-4.7-4.6-7.9-6.6c-5.8-3.6-10.1-8.2-9.8-15.4c0.3-8.9,5.4-21.1,15.1-25.6c1-0.5,2.4-0.8,3.1-0.1
						c0.8,0.7,0.2,1.9-0.4,2.8c-6.2,9.2-12.9,21.6-4.8,31.1c3.1,3.6,8.4,4.5,11.5,8.6C185.9,85.6,186.8,89.6,187.6,93.4z"/>
				</g>
				<g>
				</g>
			</g>
		</g>
		<g id="rocket">
			<g id="mug-constellations">
				<g class="st18">
					<g>
						<path class="st19" d="M158.8,225.6c7.7,0,7.7-12,0-12C151.1,213.6,151.1,225.6,158.8,225.6L158.8,225.6z"/>
					</g>
				</g>
				<g class="st18">
					<g>
						<path class="st19" d="M134.4,208.9c5.8,0,5.8-9,0-9C128.7,199.9,128.6,208.9,134.4,208.9L134.4,208.9z"/>
					</g>
				</g>
				<g class="st18">
					<g>
						<path class="st19" d="M140.5,235.9c0-0.1,0-0.2,0-0.3c0-5.8-9-5.8-9,0c0,0.1,0,0.2,0,0.3C131.5,241.7,140.5,241.7,140.5,235.9
							c0-0.1,0-0.2,0-0.3c0-5.8-9-5.8-9,0c0,0.1,0,0.2,0,0.3C131.5,241.7,140.5,241.7,140.5,235.9L140.5,235.9z"/>
					</g>
				</g>
				<g class="st18">
					<g>
						<path class="st19" d="M171,244.4c5.8,0,5.8-9,0-9C165.2,235.4,165.2,244.4,171,244.4L171,244.4z"/>
					</g>
				</g>
				<g class="st18">
					<path class="st20" d="M286.1,207c0.2,0,0.3,0,0.5,0"/>
					<g>
						<path class="st19" d="M286.1,211.7c0.2,0,0.3,0,0.5,0c1.2,0,2.5-0.5,3.4-1.4c0.8-0.8,1.4-2.2,1.4-3.4
							c-0.1-2.6-2.1-4.7-4.7-4.7c-0.2,0-0.3,0-0.5,0c-1.2,0-2.5,0.5-3.4,1.4c-0.8,0.8-1.4,2.2-1.4,3.4
							C281.5,209.5,283.5,211.7,286.1,211.7L286.1,211.7z"/>
					</g>
				</g>
				<g class="st18">
					<g>
						<path class="st19" d="M311.5,193.5c-0.3,0-0.7,0-1,0c-1.5,0-2.9,1.3-2.8,2.8c0.1,1.5,1.2,2.8,2.8,2.8c0.3,0,0.7,0,1,0
							c1.5,0,2.9-1.3,2.8-2.8C314.3,194.8,313.1,193.5,311.5,193.5L311.5,193.5z"/>
					</g>
				</g>
				<g class="st18">
					<g>
						<path class="st19" d="M303.4,225.5c3.7,0,3.7-5.7,0-5.7C299.7,219.8,299.7,225.5,303.4,225.5L303.4,225.5z"/>
					</g>
				</g>
				<g class="st18">
					<g>
						<path class="st19" d="M200.4,293.4c-0.2,0-0.3,0-0.5,0c-1.5,0-2.9,1.3-2.8,2.8c0.1,1.5,1.2,2.8,2.8,2.8c0.2,0,0.3,0,0.5,0
							c1.5,0,2.9-1.3,2.8-2.8C203.2,294.7,202,293.4,200.4,293.4L200.4,293.4z"/>
					</g>
				</g>
				<g class="st18">
					<g>
						<path class="st19" d="M221.7,283.1c-0.2-0.2-0.3-0.3-0.5-0.5c-1.1-1.1-3-1.1-4,0c-1,1.1-1.1,2.9,0,4c0.2,0.2,0.3,0.3,0.5,0.5
							c1.1,1.1,3,1.1,4,0C222.7,285.9,222.8,284.2,221.7,283.1L221.7,283.1z"/>
					</g>
				</g>
				<g class="st18">
					<g>
						<path class="st19" d="M228.8,293.5c-0.1,0-0.2,0-0.3,0c-6.1,0-6.1,9.5,0,9.5c0.1,0,0.2,0,0.3,0
							C234.9,303,234.9,293.5,228.8,293.5c-0.1,0-0.2,0-0.3,0c-6.1,0-6.1,9.5,0,9.5c0.1,0,0.2,0,0.3,0
							C234.9,303,234.9,293.5,228.8,293.5L228.8,293.5z"/>
					</g>
				</g>
				<g class="st18">
					<g>
						<path class="st19" d="M274.1,283.8c-0.2,0-0.3,0-0.5,0c-1,0-1.9,0.9-1.9,1.9c0,1,0.8,1.9,1.9,1.9c0.2,0,0.3,0,0.5,0
							c1,0,1.9-0.9,1.9-1.9C275.9,284.7,275.1,283.8,274.1,283.8L274.1,283.8z"/>
					</g>
				</g>
				<g class="st18">
					<g>
						<path class="st19" d="M276.2,273.5c6.1,0,6.1-9.5,0-9.5C270.1,264,270.1,273.5,276.2,273.5L276.2,273.5z"/>
					</g>
				</g>
				<g class="st18">
					<g>
						<path class="st19" d="M291.3,258.6c3.7,0,3.7-5.7,0-5.7C287.6,252.9,287.6,258.6,291.3,258.6L291.3,258.6z"/>
					</g>
				</g>
				<g class="st18">
					<g>
						<path class="st19" d="M137,235.1c-0.1-9.7-0.8-19.3-1.3-29c0-1-1.5-1-1.5,0c0.5,9.7,1.3,19.3,1.3,29
							C135.5,236.1,137,236.1,137,235.1L137,235.1z"/>
					</g>
				</g>
				<g class="st18">
					<g>
						<path class="st19" d="M136.7,235.8c6.7-6.4,14.7-11.1,22.8-15.6c0.8-0.5,0.1-1.8-0.8-1.3c-8.2,4.6-16.3,9.3-23.1,15.8
							C134.9,235.5,136,236.5,136.7,235.8L136.7,235.8z"/>
					</g>
				</g>
				<g class="st18">
					<g>
						<path class="st19" d="M158.6,219.8c4.7,6.2,8.8,12.8,12.1,19.8c0.4,0.9,1.7,0.1,1.3-0.8c-3.3-7-7.4-13.6-12.1-19.8
							C159.4,218.3,158.1,219,158.6,219.8L158.6,219.8z"/>
					</g>
				</g>
				<g class="st18">
					<g>
						<path class="st19" d="M200.3,297.1c6.1-4.2,12.4-8.1,19-11.6c0.8-0.5,0.1-1.8-0.8-1.3c-6.5,3.6-12.8,7.4-19,11.6
							C198.7,296.3,199.5,297.6,200.3,297.1L200.3,297.1z"/>
					</g>
				</g>
				<g class="st18">
					<g>
						<path class="st19" d="M218.4,284.7c0.9,2.3,2.6,4.2,4,6.3c1.7,2.5,3.5,5.1,5.2,7.6c0.5,0.8,1.8,0,1.3-0.8
							c-1.5-2.3-3.1-4.5-4.6-6.8c-1.5-2.1-3.4-4.3-4.4-6.7C219.5,283.4,218,283.8,218.4,284.7L218.4,284.7z"/>
					</g>
				</g>
				<g class="st18">
					<g>
						<path class="st19" d="M289.7,256.2c-4.7,3.6-9.3,7.2-13.5,11.4c-0.7,0.7,0.4,1.7,1.1,1.1c4.1-4.1,8.6-7.6,13.2-11.1
							C291.3,256.9,290.5,255.6,289.7,256.2L289.7,256.2z"/>
					</g>
				</g>
				<g class="st18">
					<g>
						<path class="st19" d="M275.3,268c-0.8,5.5-1.7,11.1-2.6,16.6c-0.2,0.9,1.3,1.4,1.4,0.4c0.9-5.5,1.8-11,2.6-16.6
							C276.9,267.5,275.4,267.1,275.3,268L275.3,268z"/>
					</g>
				</g>
				<g class="st18">
					<g>
						<path class="st19" d="M286.4,208.1c8.1-4.2,16.2-8.3,24.7-11.5c0.9-0.3,0.5-1.8-0.4-1.4c-8.7,3.2-16.9,7.4-25.1,11.7
							C284.8,207.3,285.6,208.6,286.4,208.1L286.4,208.1z"/>
					</g>
				</g>
				<g class="st18">
					<g>
						<path class="st19" d="M285.6,207.8c5.7,5,11.4,10.1,17.2,15.1c0.7,0.6,1.8-0.4,1.1-1.1c-5.7-5-11.4-10.1-17.2-15.1
							C285.9,206.1,284.8,207.2,285.6,207.8L285.6,207.8z"/>
					</g>
				</g>
				<g class="st18">
					<g>
						<path class="st19" d="M183.2,228.2c1.9,0,1.9-3,0-3C181.3,225.2,181.3,228.2,183.2,228.2L183.2,228.2z"/>
					</g>
				</g>
				<g class="st18">
					<g>
						<path class="st19" d="M149.9,247.9c1.9,0,1.9-3,0-3C147.9,244.9,147.9,247.9,149.9,247.9L149.9,247.9z"/>
					</g>
				</g>
				<g class="st18">
					<g>
						<path class="st19" d="M163,293.8c1.9,0,1.9-3,0-3C161.1,290.8,161.1,293.8,163,293.8L163,293.8z"/>
					</g>
				</g>
				<g class="st18">
					<g>
						<path class="st19" d="M247.7,210.5c1.9,0,1.9-3,0-3C245.8,207.5,245.8,210.5,247.7,210.5L247.7,210.5z"/>
					</g>
				</g>
				<g class="st18">
					<g>
						<path class="st19" d="M255.6,213.2c1.9,0,1.9-3,0-3C253.7,210.2,253.7,213.2,255.6,213.2L255.6,213.2z"/>
					</g>
				</g>
				<g class="st18">
					<g>
						<path class="st19" d="M262.2,201.4c1.9,0,1.9-3,0-3C260.3,198.4,260.3,201.4,262.2,201.4L262.2,201.4z"/>
					</g>
				</g>
				<g class="st18">
					<g>
						<path class="st19" d="M188.6,221.9c1.9,0,1.9-3,0-3C186.7,218.9,186.7,221.9,188.6,221.9L188.6,221.9z"/>
					</g>
				</g>
				<g class="st18">
					<g>
						<path class="st19" d="M173.7,216.4c1.9,0,1.9-3,0-3C171.8,213.4,171.8,216.4,173.7,216.4L173.7,216.4z"/>
					</g>
				</g>
				<g class="st18">
					<g>
						<path class="st19" d="M143,215.6c1.9,0,1.9-3,0-3C141.1,212.6,141.1,215.6,143,215.6L143,215.6z"/>
					</g>
				</g>
				<g class="st18">
					<g>
						<path class="st19" d="M121.4,223.8c1.9,0,1.9-3,0-3C119.5,220.8,119.5,223.8,121.4,223.8L121.4,223.8z"/>
					</g>
				</g>
				<g class="st18">
					<g>
						<path class="st19" d="M119.4,191.2c1.9,0,1.9-3,0-3C117.5,188.2,117.5,191.2,119.4,191.2L119.4,191.2z"/>
					</g>
				</g>
				<g class="st18">
					<g>
						<path class="st19" d="M281.5,280c1.9,0,1.9-3,0-3C279.6,277,279.6,280,281.5,280L281.5,280z"/>
					</g>
				</g>
				<g class="st18">
					<g>
						<path class="st19" d="M280.8,255.8c1.9,0,1.9-3,0-3C278.8,252.8,278.8,255.8,280.8,255.8L280.8,255.8z"/>
					</g>
				</g>
				<g class="st18">
					<g>
						<path class="st19" d="M264.6,281c1.9,0,1.9-3,0-3C262.6,278,262.6,281,264.6,281L264.6,281z"/>
					</g>
				</g>
				<g class="st18">
					<g>
						<path class="st19" d="M260.5,289.4c1.9,0,1.9-3,0-3C258.6,286.4,258.6,289.4,260.5,289.4L260.5,289.4z"/>
					</g>
				</g>
				<g class="st18">
					<g>
						<path class="st19" d="M248.4,296c1.9,0,1.9-3,0-3C246.4,293,246.4,296,248.4,296L248.4,296z"/>
					</g>
				</g>
				<g class="st18">
					<g>
						<path class="st19" d="M200.1,285.2c1.9,0,1.9-3,0-3C198.1,282.2,198.1,285.2,200.1,285.2L200.1,285.2z"/>
					</g>
				</g>
				<g class="st18">
					<g>
						<path class="st19" d="M316.1,181.3c1.9,0,1.9-3,0-3C314.2,178.3,314.2,181.3,316.1,181.3L316.1,181.3z"/>
					</g>
				</g>
				<g class="st18">
					<g>
						<path class="st19" d="M304.9,189.3c1.9,0,1.9-3,0-3C303,186.3,303,189.3,304.9,189.3L304.9,189.3z"/>
					</g>
				</g>
				<g class="st18">
					<g>
						<path class="st19" d="M168.9,200.6c1.9,0,1.9-3,0-3C167,197.6,167,200.6,168.9,200.6L168.9,200.6z"/>
					</g>
				</g>
				<g class="st18">
					<g>
						<path class="st19" d="M203.6,209.4c1.9,0,1.9-3,0-3C201.7,206.4,201.7,209.4,203.6,209.4L203.6,209.4z"/>
					</g>
				</g>
				<g class="st18">
					<g>
						<path class="st19" d="M214,206.3c1.9,0,1.9-3,0-3C212,203.3,212,206.3,214,206.3L214,206.3z"/>
					</g>
				</g>
				<g class="st18">
					<g>
						<path class="st19" d="M207.8,231.9c1.9,0,1.9-3,0-3C205.9,228.9,205.9,231.9,207.8,231.9L207.8,231.9z"/>
					</g>
				</g>
				<g class="st18">
					<g>
						<path class="st19" d="M356.6,203.3c1.9,0,1.9-3,0-3C354.7,200.3,354.7,203.3,356.6,203.3L356.6,203.3z"/>
					</g>
				</g>
				<g class="st18">
					<g>
						<path class="st19" d="M346.7,215.6c1.9,0,1.9-3,0-3C344.8,212.6,344.8,215.6,346.7,215.6L346.7,215.6z"/>
					</g>
				</g>
				<g class="st18">
					<g>
						<path class="st19" d="M352.2,221.6c1.9,0,1.9-3,0-3C350.3,218.6,350.3,221.6,352.2,221.6L352.2,221.6z"/>
					</g>
				</g>
				<g class="st18">
					<g>
						<path class="st19" d="M329.4,240.2c1.9,0,1.9-3,0-3C327.5,237.2,327.5,240.2,329.4,240.2L329.4,240.2z"/>
					</g>
				</g>
				<g class="st18">
					<g>
						<path class="st19" d="M340.9,238.4c1.9,0,1.9-3,0-3C339,235.4,339,238.4,340.9,238.4L340.9,238.4z"/>
					</g>
				</g>
				<g class="st18">
					<g>
						<path class="st19" d="M316.1,250.7c1.9,0,1.9-3,0-3C314.2,247.7,314.2,250.7,316.1,250.7L316.1,250.7z"/>
					</g>
				</g>
				<g class="st18">
					<g>
						<path class="st19" d="M344.6,176.6c1.9,0,1.9-3,0-3C342.7,173.6,342.7,176.6,344.6,176.6L344.6,176.6z"/>
					</g>
				</g>
				<g class="st18">
					<g>
						<path class="st19" d="M348.5,183.7c1.9,0,1.9-3,0-3C346.6,180.7,346.6,183.7,348.5,183.7L348.5,183.7z"/>
					</g>
				</g>
				<g class="st18">
					<g>
						<path class="st19" d="M332.9,172.2c1.9,0,1.9-3,0-3C331,169.2,331,172.2,332.9,172.2L332.9,172.2z"/>
					</g>
				</g>
			</g>
			<g id="rocket_flame_2_" class="st14">
				<g>
					<linearGradient id="SVGID_9_" gradientUnits="userSpaceOnUse" x1="155.3685" y1="267.0807" x2="198.7945" y2="267.0807">
						<stop  offset="0" style="stop-color:#FFE233"/>
						<stop  offset="0.3798" style="stop-color:#FFB926"/>
						<stop  offset="0.7863" style="stop-color:#FF931A"/>
						<stop  offset="1" style="stop-color:#FF8415"/>
					</linearGradient>
					<path class="st21" d="M195.1,253.8c8.1,6.6,1.8,20-6.8,22.7c-2.4,0.7-4.9,0.9-7.4,1.2c-2.8,0.4-2-0.1-6,0.9s-7,4-7,4
						s1.4-3.4,2-4c2.1-2.1,3.2-3.3,6-4c3.9-0.9,4.2-4,4.1-3.9c-3.6,1-7.3,0.3-10.9,0.5c-3.2,0.2-5.6,0.5-8.1,2.5
						c-1.6,1.4-5.4,4.1-5.6,4.3c0.1-0.3,2-6.1,4.3-8.3c2.8-2.7,5.6-4.3,9.3-5.4c1.1-0.3,8.9-3.3,9.5-3c-3.1-1.5-7.2,0.1-10.4-0.5
						c-2.7-0.5-4.8-1.3-7-3c-0.6-0.5-3.4-3.4-3-4c0.4-0.5,4.4,0.9,5,1c6,1.5,10.4-0.4,16.1-1.9c4.7-1.3,11.1-2.4,15.4,0.6
						C194.7,253.5,194.9,253.7,195.1,253.8z"/>
				</g>
				<g>
				</g>
			</g>
			<g id="rocket-body">
				<g id="XMLID_50_">
					<g>
						<linearGradient id="SVGID_10_" gradientUnits="userSpaceOnUse" x1="270.7685" y1="225.2324" x2="289.0776" y2="225.2324">
							<stop  offset="0" style="stop-color:#0066CC"/>
							<stop  offset="0.3909" style="stop-color:#0069CC"/>
							<stop  offset="0.6369" style="stop-color:#0071CC"/>
							<stop  offset="0.8422" style="stop-color:#0080CC"/>
							<stop  offset="1" style="stop-color:#0091CC"/>
						</linearGradient>
						<path class="st22" d="M288.8,219.1c0.5,0.5,0.2,1.3-0.1,2c-2,4.1-4.6,8.3-7.5,12.2l-0.1-0.7c-1.7-5.7-5.1-10.9-9.7-14.7
							l-0.7-0.4c5.8-0.3,11.6,0.1,17.1,1.3C288.2,218.7,288.6,218.8,288.8,219.1z"/>
						<linearGradient id="SVGID_11_" gradientUnits="userSpaceOnUse" x1="262.2285" y1="228.3439" x2="281.2685" y2="228.3439">
							<stop  offset="0" style="stop-color:#FF9733"/>
							<stop  offset="1" style="stop-color:#FFC933"/>
						</linearGradient>
						<path class="st23" d="M281.2,232.5l0.1,0.7c-1.5,2-3.1,3.9-4.7,5.6c-0.2,0.2-0.3,0.4-0.5,0.5l0-1.2c-1.4-7.9-6.2-15.2-13-19.5
							l-0.8-0.5c2.8-0.4,5.7-0.6,8.5-0.8l0.7,0.4C276,221.6,279.4,226.8,281.2,232.5z"/>
						<linearGradient id="SVGID_12_" gradientUnits="userSpaceOnUse" x1="201.5085" y1="243.7261" x2="276.0185" y2="243.7261">
							<stop  offset="0" style="stop-color:#004BCC"/>
							<stop  offset="0.3319" style="stop-color:#004ECC"/>
							<stop  offset="0.5409" style="stop-color:#0056CC"/>
							<stop  offset="0.7159" style="stop-color:#0065CC"/>
							<stop  offset="0.8712" style="stop-color:#0079CC"/>
							<stop  offset="1" style="stop-color:#0091CC"/>
						</linearGradient>
						<path class="st24" d="M243.1,261.9c-3.3,1.4-6.7,2.5-10.2,3.5c-4.2,1.2-8.9,2.9-13.3,3.2c-1.8,0.2-5.3,0.7-8.5,0.6l0-0.3
							c2.6-9.8-1.4-20.9-9.5-26.9l-0.2-0.2c1.2-1.1,2.5-2.1,3.8-3c4-2.9,8.3-5.2,12.7-7.4c1.8-0.9,3.6-1.7,5.4-2.5
							c5.5-2.4,11.3-4.5,17.1-6.2c1.1-0.3,2.3-0.7,3.4-1c5.8-1.5,12-2.9,18.3-3.7l0.8,0.5c6.8,4.4,11.6,11.6,13,19.5l0,1.2
							c-5,5.2-10.5,9.8-16.5,13.8c-0.9,0.6-1.8,1.2-2.8,1.8C252.4,257.7,247.8,260,243.1,261.9z"/>
						<path class="st25" d="M259.5,253.2L259.5,253.2c-0.4,1.5-0.9,3-1.4,4.4c-1.9,5.3-4.9,10.3-8.5,14.6
							c-3.1,3.7-7.3,8.5-11.8,10.5c-0.8,0.3-1.8,0.5-2.3-0.1c2.5-3.2,4.4-5.7,5.6-9.6c1.1-3.6,1.8-7.3,2-11
							c4.7-1.9,9.3-4.2,13.6-6.9C257.7,254.4,258.6,253.8,259.5,253.2z"/>
						<path class="st25" d="M240.2,221.8l0.3,1c-5.8,1.7-11.5,3.8-17.1,6.2c-3.4-2-6.9-3.7-10.6-5.1c-4.3-1.6-7.8-2.2-12.3-2.3
							c-0.5,0-1.2-0.2-1.1-0.7c0-0.2,0.2-0.4,0.4-0.5c8.6-6,21.9-6.3,31.4-2.4C234.2,219.2,237.1,220.9,240.2,221.8z"/>
						<path class="st26" d="M201.7,242.1c8.1,6,12,17.1,9.5,26.9l0,0.3c-3-0.1-5.7-0.7-6.7-2.8c-1-2.1,0.3-5.3-0.2-7.7
							c-0.6-2.5-1.8-4.8-3.3-6.9c-0.5-0.7-1.1-1.4-1.7-2.1c-2.5-2.9-2.8-3.2,0.1-6c0.7-0.7,1.4-1.4,2.2-2L201.7,242.1z"/>
					</g>
					<g>
					</g>
				</g>
			</g>
			<g id="rocket-window-small_2_" class="st27">
				<g>
					<path class="st28" d="M256.8,228.5c6.7-0.2,9.5,7.7,6.7,12.2c-0.9,1.4-2.2,2.4-4.1,2.9c-2.5,0.6-5.2-0.4-7.2-2.1
						C246.8,237,250.1,228.8,256.8,228.5z"/>
				</g>
				<g>
				</g>
			</g>
			<g id="rocket-window-big_2_" class="st14">
				<g>
					<path class="st29" d="M241.1,239.4c3-1.5,5.4,2.5,2.8,4.5C240.5,246.5,237.2,241.4,241.1,239.4z"/>
				</g>
				<g>
				</g>
			</g>
		</g>
	</g>
</g>
<g id="SPOON">
	<g id="XMLID_59_">
		<g>
			<linearGradient id="SVGID_13_" gradientUnits="userSpaceOnUse" x1="150.5686" y1="394.0347" x2="322.2915" y2="394.0347">
				<stop  offset="0" style="stop-color:#628090"/>
				<stop  offset="0.5386" style="stop-color:#4D7588"/>
				<stop  offset="0.6459" style="stop-color:#50788A"/>
				<stop  offset="0.7345" style="stop-color:#5A8191"/>
				<stop  offset="0.8164" style="stop-color:#6C909D"/>
				<stop  offset="0.8938" style="stop-color:#84A5AE"/>
				<stop  offset="0.94" style="stop-color:#96B5BB"/>
			</linearGradient>
			<path class="st30" d="M322.3,340.3c0,1.7-0.3,3.4-0.7,5.1c-2.9,11.9-14.5,20.3-25.5,24.4c-30.2,11.3-58.9,34.1-84.9,53
				c-10.1,7.4-20.5,14.1-30.3,21.7c-5,3.9-10.2,7.7-15.9,10.5c-2.4,1.2-9.9,4.9-12.7,3.4c-3.6-2-0.6-11.2,1.2-13.7
				c2.8-4,6.8-7,10.6-9.9c4.4-3.3,9-6.4,13.8-9.4c14.6-9.1,30.6-16.8,45.3-25.5c13.6-8,28.1-15.6,39.5-26.7
				c8.3-8,11.8-20.1,19.2-28.9c7.2-8.6,22.4-19,34.2-13.6C319.7,332.5,322.2,336.3,322.3,340.3z M311,349.6c1.4-3.8,1.7-9.2-3-10.2
				c-4.1-0.9-9.4,1.8-12.7,4c-3.2,2.1-6.4,4.9-8.3,8.3c-1.4,2.6-3.2,8.8-0.3,10.8c1.3,0.9,2.9,1.1,4.5,1c2.7,0,5.3-0.6,7.7-2
				c4.4-2.6,9-5.8,11.4-10.4C310.6,350.7,310.8,350.2,311,349.6z"/>
			<path class="st31" d="M308,339.4c4.6,1,4.3,6.4,3,10.2c-0.2,0.6-0.4,1.1-0.7,1.6c-2.4,4.6-7,7.9-11.4,10.4c-2.4,1.4-5,2-7.7,2
				c-1.6,0-3.2-0.1-4.5-1c-2.9-2.1-1.2-8.2,0.3-10.8c1.9-3.4,5-6.2,8.3-8.3C298.6,341.3,303.9,338.5,308,339.4z"/>
		</g>
		<g>
		</g>
	</g>
</g>
<g id="right">
	<g id="person-2">
		<g id="XMLID_48_">
			<g>
				<path class="st32" d="M337.3,256.3c0.1,0.4-0.3,0.6-0.6,0.8c-0.3,0.1-0.7,0.3-0.8,0.6c0,0.1,0,0.3-0.1,0.4
					c-0.1,0.3-0.5,0.3-0.9,0.3c-0.7-0.1-1.4-0.1-2.1-0.2l-0.3-0.3c-0.2-1.2-0.9-2.6-1.1-3.1h0l0.2-0.3c0.5-1.2,1.3-2.3,2.4-3
					c0.3-0.2,0.6-0.3,0.9-0.3c0.4,0.1,0.6,0.5,0.6,0.9c0,0.4-0.2,0.8-0.3,1.1c0.4,0,0.9,0,1.3,0.2c0.4,0.2,0.6,0.8,0.3,1.1
					c-0.1,0.2-0.4,0.3-0.5,0.5C336.3,255.6,337.3,255.8,337.3,256.3z"/>
				<path class="st33" d="M318.5,270.6c-1.3-0.3-2.6-0.6-4-0.8l-0.2-0.3c0-5.5,0.1-11,0.1-16.4v-1.1c0.5-0.5,1-0.9,1.3-1.1
					c0.6-0.3,1.3,0.2,1.8,0.6c0-0.9,0.2-1.9,0.4-2.8c0-0.2,0.1-0.3,0.1-0.5c0-0.1-0.1-0.3-0.2-0.4c-1.1-1.4-1.6-2.6-2.8-4
					c0,0,0,0,0,0c1.7,1.4,4.8,2.3,6.8,3.2c1,0.5,2,1,2.9,1.6c1.4,1,0.8,3.8,1.5,5.5c0.4,0.8,0.9,1.5,1.6,1.9
					c1.2,0.5,2.6-0.2,3.5-1.2c0,0,0,0.1,0.1,0.2c0.2,0.5,0.9,1.9,1.1,3.1c0,0,0,0.1,0,0.1c0,0.1,0,0.1,0,0.2c0,0.1-0.1,0.1-0.1,0.2
					c-1.8,1.3-3.6,2.5-5.9,2.3c-2.4-0.1-4.1-2.3-5.6-3.9l-0.1,0.8c-0.3,4.5-0.3,9,0,13.5c-0.6-0.2-1.3-0.3-1.9-0.5v0
					C318.8,270.6,318.7,270.6,318.5,270.6z"/>
				<path class="st34" d="M305.8,243.8c-1.8,0.1-4,0.8-5.1-0.9c-1-1.7-0.6-4.3,0.5-5.8c0.4-0.5,0.8-0.9,1.1-1.4
					c0.6-1.1,0.4-2.5,0.3-3.7c-0.1-1.3,0.1-2.8,1.2-3.4c0.5-0.3,1-0.4,1.5-0.6c1.5-0.5,2.6-1.9,3.8-3c1.7-1.5,4.1-2.5,6.4-2.1
					s4.4,2.1,4.7,4.4c0.2,1.5-0.4,3-0.2,4.5c0.3,2.3,2.3,4,3,6.2c0.5,1.6,0.4,3.6,1.8,4.5c0.7,0.5-2.3,1.9-2.8,1.9
					c-1.6,0-3.5-0.7-5-1.3l-0.8-0.7c0.3-0.5,0.6-1,0.9-1.6c0.7-1.6,0.9-3.4,0.7-5.1c-0.6-0.3-1.2-0.6-1.8-0.9
					c-0.1-0.1-0.3-0.1-0.4-0.2c-0.7-0.5-0.5-1.5-0.4-2.3c-0.7,0.2-1.5,0.3-2.2,0.2c-0.7-0.2-1.4-0.8-1.4-1.5c0-0.2,0-0.4-0.1-0.6
					c-0.1-0.1-0.2-0.2-0.4-0.2c-0.6-0.2-1.2-0.4-1.8-0.6l-0.2,0.1c-1.6,0.6-2.1,2.5-2.1,4.2c-0.1,2.7,0.2,5.4,0.9,8
					c0.1,0.4,0.2,0.8,0.4,1.1l-0.7,0.7c-0.5,0-1,0-1.5,0C306.1,243.8,305.9,243.8,305.8,243.8z"/>
				<path class="st35" d="M321.6,309.3c0.7,1,1.2,2.6,0.8,3.9c-0.3,1-0.5,2.1-1.6,1.8c-0.6-0.1-1.1-0.2-1.6-0.5
					c-0.5-0.3-1-0.8-1.5-1.1c-0.7-0.4-1.6-0.4-2.3-0.8c-0.2-0.1-0.3-0.3-0.4-0.5c0-0.1,0-0.3,0-0.4c0.1-1.5,0.4-3,0.4-4.4l0.5,0.6
					c1,1.5,3.1,1.9,4.5,0.8l0.4-0.3C321.1,308.6,321.4,308.9,321.6,309.3z"/>
				<path class="st32" d="M320.8,308.3l-0.4,0.3c-1.4,1.1-3.5,0.7-4.5-0.8l-0.5-0.6c0-0.8-0.1-1.6-0.4-2.5l-0.2-0.6
					c0.9-0.1,1.8-0.2,2.6-0.1c0.4,0,0.9,0.2,1.3,0.3l0,0.6c0.4,1,0.8,2,1.5,2.8C320.4,307.9,320.6,308.1,320.8,308.3z"/>
				<path class="st36" d="M319,270.7c0.9,5.2,1.7,10.9,1.5,16.2c-0.2,5.9-0.2,11.7-0.6,17.6c-0.4,0-0.8-0.1-1.2-0.2
					c-0.4-0.1-0.9-0.3-1.3-0.3c-0.8-0.1-1.8,0-2.6,0.1c-0.2,0-0.4,0-0.6,0c-0.1-2.9,0.2-6.1-0.2-8.9c-1-5.9-0.2-12.1-1.4-18.2
					c-0.2,2.1-3.1,26.3-3.1,26.3l-0.5,0l-5-0.1l-1.1,0c0,0,0.6-21.9,1.1-32.5c0,0,0,0,0,0c1.4,0.7,3.8,0.7,5.4,0.6
					c2.6-0.1,6.1,0.2,8.6-0.6l0.5-0.1C318.7,270.6,318.8,270.6,319,270.7L319,270.7L319,270.7z"/>
				<path class="st37" d="M318.5,270.6l-0.5,0.1c-2.5,0.8-6,0.5-8.6,0.6c-1.5,0.1-4,0.1-5.4-0.6c0.9-0.1,1.7-0.2,2.6-0.5l1.1-0.8
					c-0.3-5.2-0.4-10.4-0.3-15.6l0.1-1.4c1.2,1,2.5,2.1,3.4,3.3c1.3-0.9,2.4-2.6,2.4-2.6s0.5-0.6,1-1.2v1.1c0,5.5-0.1,10.9-0.1,16.4
					l0.2,0.3C315.9,270,317.2,270.3,318.5,270.6z"/>
				<path class="st19" d="M314.4,251.9c-0.6,0.6-1,1.2-1,1.2s-1.1,1.7-2.4,2.6c0,0,0.5-2.8,1.7-4.6c0.4-0.6,0.8-1.1,1.1-1.7
					c0.8-1.7,1.4-3.6,1.2-5.5c0,0,0,0,0.1-0.1c1.1,1.4,1.6,2.6,2.8,4c0.1,0.1,0.2,0.2,0.2,0.4c0,0.2,0,0.4-0.1,0.5
					c-0.3,0.9-0.4,1.9-0.4,2.8c-0.5-0.5-1.2-0.9-1.8-0.6C315.4,251,314.9,251.5,314.4,251.9z"/>
				<path class="st32" d="M317.7,235.8c0.2,1.7-0.1,3.5-0.7,5.1c-0.2,0.6-0.5,1.1-0.9,1.6c-0.3,0.5-0.6,0.9-1,1.2c0,0-0.1,0-0.1-0.1
					c0,0.1,0,0.1,0,0.1c-0.5,0.4-1,0.8-1.6,1c-1.7,0.7-3.9,0.2-4.9-1.4c-0.1-0.1-0.1-0.2-0.2-0.3c-0.2-0.4-0.3-0.8-0.4-1.1
					c-0.7-2.6-1-5.3-0.9-8c0.1-1.7,0.6-3.7,2.1-4.2l0.2-0.1c0.6,0.2,1.2,0.4,1.8,0.6c0.1,0.1,0.3,0.1,0.4,0.2
					c0.1,0.2,0.1,0.4,0.1,0.6c0,0.7,0.6,1.3,1.4,1.5c0.7,0.2,1.5,0,2.2-0.2c-0.2,0.8-0.3,1.8,0.4,2.3c0.1,0.1,0.2,0.2,0.4,0.2
					C316.5,235.2,317.1,235.5,317.7,235.8z"/>
				<path class="st38" d="M315,243.8c0.1,1.9-0.5,3.7-1.2,5.5c-0.3,0.6-0.7,1.2-1.1,1.7c-1.2,1.8-1.7,4.6-1.7,4.6
					c-0.3-3.8-3-7.3-3.1-11.1l0.5-1.4c0.1,0.1,0.1,0.2,0.2,0.3c0.9,1.6,3.1,2.1,4.9,1.4C314,244.6,314.5,244.3,315,243.8z"/>
				<path class="st35" d="M309.8,310c0,0.4,0.1,0.7-0.1,1.1c-0.1,0.2-0.4,0.4-0.6,0.5c-2,1-5.9,3.7-8,1.8c-0.1-0.1-0.2-0.2-0.3-0.4
					c0-0.1,0-0.3,0-0.4c0.1-1.7,0.6-3.3,1.5-4.7c0.1-0.1,0.2-0.3,0.3-0.4c-0.2,0.4-0.1,1,0.1,1.5c0.9,1.5,2.2,1.3,3.5,1.1
					c1-0.1,2.1-0.8,2.8-1.6l0.4-0.5C309.7,308.6,309.8,309.3,309.8,310z"/>
				<path class="st19" d="M307.9,244.5c0.1,3.8,2.9,7.3,3.1,11.1c-0.9-1.2-2.2-2.3-3.4-3.3v0c-0.6-0.5-1.2-1-1.7-1.5
					c-0.1-0.1-0.2-0.2-0.2-0.3c0-0.1,0-0.2,0.1-0.3c0.2-0.3,0.4-0.7,0.6-1c-0.9-0.3-1.8-0.5-2.6-0.6c1.3-1.8,2.7-3.4,4.3-4.9
					l0.4-0.7L307.9,244.5z"/>
				<path class="st32" d="M309.6,307.9l-0.4,0.5c-0.8,0.7-1.8,1.4-2.8,1.6c-1.3,0.2-2.6,0.4-3.5-1.1c-0.2-0.4-0.3-1-0.1-1.5
					c0,0,0,0,0,0c0.1-0.1,0.2-0.3,0.3-0.4c0.7-0.9,1.3-1.9,1.1-3.1l-0.1-0.6l5,0.1l0,0.2C309.2,305,309.4,306.5,309.6,307.9z"/>
				<path class="st33" d="M308.3,243.1l-0.4,0.7c-1.5,1.5-3,3.2-4.3,4.9c0.9,0.1,1.8,0.3,2.6,0.6c-0.2,0.3-0.4,0.7-0.6,1
					c-0.1,0.1-0.1,0.2-0.1,0.3c0,0.1,0.1,0.2,0.2,0.3c0.6,0.5,1.1,1,1.7,1.5v0l-0.1,1.4c-0.1,5.2,0,10.4,0.3,15.6l-1.1,0.8
					c-0.8,0.2-1.7,0.4-2.6,0.5c0,0,0,0,0,0v0c-1.4,0.1-2.8,0.1-4.2-0.1c0.9-4.9,1.3-9.9,1.5-14.9c0-0.3,0-0.7-0.3-0.8
					c-0.2-0.1-0.4,0-0.5,0.1c-1.5,0.7-3.1,1.3-4.6,2c-1.6-3.8-3.1-7.7-4.3-11.6c-0.5-1.4-0.9-2.8-1.6-4.1c0,0,0.1-0.1,0.1-0.1
					c0.9-0.5,2.1-0.8,3-1.3c0.1-0.1,0.2-0.1,0.2-0.2c1.4,3.4,3.4,6.6,4.6,10.1c0.6-0.5,1.3-1.1,1.8-1.7c0.3-0.3,0.5-0.7,0.9-0.9
					c0.3-0.2,0.7-0.3,1-0.4c1.4-0.4,3.1-2,4.3-2.9c0.1,0,0.2,0,0.4,0c0.5,0,1,0,1.5,0L308.3,243.1z"/>
				<path class="st32" d="M293.4,236.8c0.2,1,0,2-0.4,2.9l0,0.2c-0.9,0.5-2,0.9-3,1.3l-0.2-0.2c-0.8-0.5-1.6-1-2.4-1.5
					c-0.5-0.3-1-0.8-0.8-1.3c0.3-0.1,0.6-0.2,1-0.2c-0.3-0.4-0.6-0.7-0.8-1.1c-0.1-0.2-0.3-0.4-0.3-0.6c0-0.2,0.1-0.5,0.3-0.6
					c0.3,0.1,0.5,0.4,0.8,0.7c0.3,0.2,0.8,0.2,0.8-0.2c0-0.1,0-0.2-0.1-0.3c-0.3-0.7-0.4-1.4-0.3-2.2c0.5-0.1,0.9,0.6,1.1,1.1
					c0.1,0.2,0.4,0.6,0.6,0.4c0.1-0.1,0.1-0.2,0.1-0.3c0-0.5-0.1-2.2,1-1.3c0.3,0.2,1,2,1.3,2.2c0.5,0.2,0.5-1.6,0.8-1.2
					c0.1,0.1,0.1,0.2,0.1,0.4C293.1,235.5,293.2,236.2,293.4,236.8z"/>
			</g>
			<g>
			</g>
		</g>
	</g>
	<g id="person-1">
		<g id="XMLID_55_">
			<g>
				<path class="st39" d="M310.1,276.5c0,0.1-0.1,0.2-0.2,0.3c-0.5,0.4-1,0.7-1.6,0.9c0.2,0.3,0.8,0.4,0.8,0.8
					c0,0.3-0.4,0.5-0.8,0.5c-0.3,0-0.7-0.1-1,0c0.3,0.4,0.1,1-0.4,1.2c-0.4,0.1-0.7,0-1.1-0.1c-0.6-0.2-1.1-0.4-1.6-0.6l-0.7-0.1
					c-0.4-1.1-0.5-2.3-0.9-3.4l0.4-0.4c0.9-0.9,1.8-1.9,3-2.4c0.3-0.1,0.6-0.2,0.9-0.1c0.3,0.1,0.5,0.4,0.5,0.7
					c-0.1,0.3-0.4,0.5-0.4,0.7c0.5,0,1,0,1.5,0c0.2,0,0.5,0.1,0.6,0.4c0.1,0.4-0.6,0.6-0.9,0.9c0.5,0,1,0.1,1.4,0.3
					C309.9,276.2,310.1,276.3,310.1,276.5z"/>
				<path class="st40" d="M303.6,279.4c0.1,0.1,0.1,0.3,0.2,0.4c-3,1.6-6.1,3-9.4,4.1c-1.3-1-2.4-2.1-3.3-3.5l-0.3-0.3
					c0.7-5.2,1.1-10.3,1.4-15.4v-1.1c0.4,0.2,0.8,0.2,1.1-0.1c0,0-0.1-0.1-0.2-0.3l0.1,0c1.7,0.7,2.8,2.6,3,4.4
					c0.5,3.5-0.9,6.6,1,10.1c0.2,0,5-1.7,5.5-1.8c0,0.1,0,0.1,0.1,0.2C303.1,277.1,303.2,278.2,303.6,279.4z"/>
				<path class="st41" d="M291.6,321.2c0.1,0,0.2,0,0.3,0c0.1,0.4,0.2,0.9,0.3,1.3c0.5,2.2,3.7,1.8,5.1,3.1c0.4,0.4,0.8,0.9,0.6,1.4
					c-0.1,0.4-0.4,0.6-0.7,0.8c-0.8,0.5-1.7,0.9-2.6,1.1c-0.3,0.1-0.7,0.2-1,0.3c-0.3,0.2-0.5,0.5-0.8,0.7c-0.4,0.4-1,0.6-1.5,0.7
					c-1.8,0.3-3.3-0.4-3.2-2.3c0.1-2.2,0.7-4.4,0.2-6.6c0,0.1,0.3,0,0.7,0C289.8,321.5,291,321.3,291.6,321.2z"/>
				<path class="st33" d="M292.1,313.6c-1.5,0.4-2.9,0.2-4.4,0c-1.1-0.2-2.2-0.4-3.5-0.4c-0.8,0-1.7,0-2.5,0.1
					c-1.2,0.1-2.4,0.2-3.7,0.2c-0.2,0-0.8,0-1.5-0.1c-1.7-0.2-4.2-0.5-4.3-1c-0.5-4.3-0.6-8.6-0.3-12.9c0.2-4,0.8-7,2-10.9l0.1,0
					c1.2-0.2,2.4,0,3.6,0.2c2.1,0.3,4.2,0.5,6.4,0.4c2.6-0.1,4.7-0.7,7.2-1.5c0,0,0.1,0,0.1-0.1c0,0,0-0.1,0-0.1c0-0.1,0-0.1,0-0.1
					l0.2,1.1c2.7,7.9,4.2,15,3.9,23.3l-1.1,0.7C293.7,313.1,292.9,313.4,292.1,313.6z"/>
				<path class="st42" d="M293.6,255.2c0.5,0.8,0.1,1.9-0.4,2.8c-0.5,0.8-1.1,1.9-1.1,2.9c0,0.2,0.6,1.6,0.9,2.3
					c0.1,0.2,0.2,0.3,0.2,0.3c-0.4,0.3-0.7,0.3-1.1,0.1c-0.1-0.1-0.3-0.1-0.4-0.2c-0.6-0.3-1.4-0.5-2-0.2c0.3,0.4,0.5,0.9,0.6,1.4
					c0,0.1,0,0.3,0,0.4c-0.1,0.1-0.3,0.1-0.4,0.1c-1.1-0.1-2.1-0.5-3-1.1c0.1,0.6,0,1.2-0.1,1.8c-1.5-0.2-2.9-1-3.7-2.2
					c-0.5,0.9-0.7,1.9-0.7,2.8c-1-0.4-1.9-1.1-2.4-2.1c-1.9,0.6-3.9,1.2-5.8,1.7c1.1-0.6,2.1-1.6,2.6-2.8c-0.4,0-0.9,0-1.5,0
					c-0.5,0-1,0-1.5,0c-0.7,0-1.3-0.2-1.7-0.4c0.2-0.2,1.2-1.2,1.5-1.1c-1.1-0.3-1.7-1.6-1.2-2.6c0.2-0.6,0.8-1.1,0.7-1.7
					c-0.1-0.7-1-1.1-1.3-1.8c-0.4-0.8,0.1-1.7,0.6-2.3c0.6-0.6,1.3-1.1,1.7-1.9c0.4-0.9,0.3-2-0.3-2.8c1.4-2.3,4-3.9,6.7-4.3
					c2.9-0.4,6.6-0.9,8.9,1c1.4,1.1,2.9,2.5,3,4.3c0,1-0.4,1.9-0.3,2.9c0,0.7,0.2,1.3,0.6,1.8c0.1,0.1,0.1,0.2,0.2,0.2
					C293.1,254.7,293.4,254.9,293.6,255.2z"/>
				<path class="st39" d="M292.1,313.6v0.3c-0.1,2.4-0.3,4.8-0.5,7.2c-0.6,0.1-1.9,0.3-2.7,0.4c0,0-0.7-5.1-1-7.2l-0.2-0.7
					C289.2,313.9,290.7,314,292.1,313.6z"/>
				<path class="st43" d="M292.1,263.5v1.1c-0.3,5.2-0.6,10.3-1.4,15.4c0,0.1,0,0.2,0,0.3c-0.3,2.3,0.2,4.8,0.7,7.1
					c0,0.1,0,0.1,0,0.1c0,0,0,0.1,0,0.1c0,0-0.1,0.1-0.1,0.1c-2.5,0.8-4.6,1.3-7.2,1.5c-2.1,0.1-4.3,0-6.4-0.4
					c-1.2-0.2-2.5-0.5-3.6-0.2c-0.1-3.8-0.1-7.6-0.4-11.4c0-0.3,0-0.5-0.1-0.8c-0.1-1.9-0.2-3.7-0.5-5.6c-0.4-2.3-0.9-5.9,1.6-7.2
					l0.6-0.5c0.5,0,1,0,1.5,0c-0.5,1.2-1.5,2.2-2.6,2.8c2-0.5,3.9-1.1,5.8-1.7c0.5,1,1.4,1.8,2.4,2.1c0-1,0.2-2,0.7-2.8
					c0.8,1.2,2.2,2.1,3.7,2.2c0.1-0.6,0.2-1.2,0.1-1.8c0.9,0.6,2,1,3,1.1c0.1,0,0.3,0,0.4-0.1c0.1-0.1,0.1-0.3,0-0.4
					c-0.1-0.5-0.3-1-0.6-1.4c0.6-0.2,1.4-0.1,2,0.2C291.8,263.4,292,263.5,292.1,263.5z"/>
				<path class="st41" d="M280.7,320.9c0.4,0.6,0.1,1.8,0.6,2.4c0.8,0.9,3,0.4,3.5,1.5c0.9,1.7-2.8,2.2-3.4,3.1
					c-0.2,0.2-0.3,0.5-0.5,0.7c-0.4,0.4-0.9,0.5-1.4,0.5c-0.9,0.1-1.8,0.1-2.7-0.2c-0.3-0.1-0.5-0.2-0.7-0.5
					c-0.1-0.1-0.1-0.4-0.1-0.9c0-2,0.6-6.6,0-6.8c0.2,0,0.4,0.1,0.6,0.1c0.6,0,1.3,0,1.9-0.1c0.4-0.1,1.3-0.5,1.7-0.3
					C280.5,320.6,280.6,320.7,280.7,320.9z"/>
				<path class="st39" d="M281.8,313.4l-0.1,0.7c-0.3,2.2-0.6,4.5-1,6.8c-0.1-0.1-0.2-0.3-0.4-0.3c-0.4-0.1-1.2,0.2-1.7,0.3
					c-0.6,0.1-1.3,0.1-1.9,0.1v0c0,0-0.1-4.5-0.1-6.3v-1.2v0c0.7,0.1,1.3,0.1,1.5,0.1C279.3,313.6,280.5,313.5,281.8,313.4z"/>
				<path class="st40" d="M275.3,263.1l-0.6,0.5c-2.5,1.3-2,5-1.6,7.2c0.3,1.9,0.4,3.7,0.5,5.6c0,0.3,0,0.5,0.1,0.8l-0.3,1
					c-0.5,1.1-1.2,2.2-2.2,2.9c-0.7,0.5-1.7,0.7-2.5,0.3c-0.7-0.4-1.1-1.1-1.3-1.9c-0.1-0.8-0.1-1.6,0.1-2.4
					c0.3-2.4,0.7-4.8,1.1-7.1c0.3-2,0.1-4.1,2.1-5.1c0.9-0.5,1.7-0.9,2.6-1.4l0.6-0.5C274.2,263.1,274.8,263.1,275.3,263.1z"/>
			</g>
			<g>
			</g>
		</g>
	</g>
</g>
<g id="left">
	<g id="person-2_1_">
		<g id="XMLID_46_">
			<g>
				<path class="st44" d="M120.6,204.6c0.8-0.3,1.7-0.4,2.5-0.3c-0.2,0.8-0.8,1.5-1.6,1.7c0.5,0.4,0.9,1,1.2,1.7
					c-1.7,0.3-1.8,1.7-3.2,2.1c-1.4,0.4-2.3-0.9-3.5-1.2c0-0.6-0.6-3.5-0.5-4.1v0c0,0,0,0,0.1-0.1c0.5-0.8,1.2-2.4,2.2-2.4
					c1,0,1.5,0.7,0.7,1.5c0.9-0.8,2.1-1.2,3.3-1.1C121.7,203.3,121.3,204,120.6,204.6z"/>
				<path class="st35" d="M115.5,204.5c-0.1,0.6,0.5,3.4,0.5,4.1c0,0,0,0.1,0,0.1c-0.3,1.2-1.3,0.8-2.3,1.3
					c-2.8,1.4-5.9,2.4-9.1,2.5c-0.5,0-1,0-1.3-0.3c-0.3-0.2-0.4-0.5-0.5-0.8c-1.2-2.6-2.4-5.1-3.6-7.6c-0.1-2.9-0.1-5.9,0-9
					l-0.9-0.7l0,0c-0.1-0.1-0.1-0.1-0.2-0.2c-0.2-0.1-0.5-0.2-0.6-0.4c-0.1-0.2,0.1-0.4,0.2-0.6c0.6-0.7,1.2-1.3,1.8-2
					c-0.8-1.1-1.7-2.2-2.6-3.1c1.8,0.8,3.6,1.6,5.4,2.5c0.2,0.1,0.5,0.2,0.6,0.4c0.2,0.2,0.3,0.4,0.3,0.6c0.8,2.2,1.7,4.5,2.1,6.8
					c0.5,2.8,1,4.7,2.2,7.3C108.3,207.6,113.8,204.9,115.5,204.5C115.5,204.4,115.5,204.5,115.5,204.5L115.5,204.5z"/>
				<path class="st45" d="M105.1,261.3c0,0.3,0,0.6-0.2,0.8c-1.3,1.2-3.6,0.3-4.4-0.9c-0.3-0.4-0.5-0.8-0.8-1.1
					c-0.4-0.5-1-0.6-1.5-1c-0.2,0.2-0.3,0.9-0.6,1c-0.2,0-0.3,0-0.4-0.1c-0.3-0.1-0.6-0.2-0.9-0.4c0-1.6-0.3-3.4-0.1-5l-0.1-0.6
					c0.9-0.1,3.7-0.5,5-1.1v0l0,0.6c0.1,1.5,0.9,2.8,1.9,3.8c0.3,0.2,0.6,0.5,0.9,0.8C104.7,259,105,260.2,105.1,261.3z"/>
				<path class="st46" d="M84.2,254.4c0,0-0.1,0-0.1,0c-0.3-2.5-0.1-5.3-0.1-7.8c-0.1-3.3-0.1-6.6-0.3-9.8c-0.2-6.5-0.6-13-1.1-19.4
					c0.9,0.5,8.5,0.3,9.2,0.3c2.8,0,5.4-0.6,8.1-1.2l0,0.3c0.5,6.6,0.2,11.1,0.7,17.6c0.2,3.3,0.5,6.6,0.7,9.8
					c0.2,2.6-0.2,5.7,0.5,8.2c0.1,0.2-0.3,0.4-0.8,0.6c-1.4,0.6-4.1,1-5,1.1c-0.1,0-0.2,0-0.3,0c-0.4-5.4-1-10.8-1.6-16.2
					c-0.3-2.7-0.7-5.4-1-8.2c-0.2-1.7-0.1-4.1-0.8-5.7c-1.2,1.9-1.5,5-1.8,7.2c-0.3,2.5-0.4,5.1-0.3,7.7c0,1.3-0.4,15.7-0.2,15.7
					c-0.2,0-0.4,0-0.7,0C87.6,254.6,85.8,254,84.2,254.4z"/>
				<path class="st47" d="M82.2,214.5c-0.7-6.3-1.7-12.7-3.2-18.9v-0.6H79c0,0.2,0,0.3,0.2,0.6c0.4,0.8,1.7,1.6,2.3,2.3
					c0.8,0.9,1.4,1.9,2.1,2.9c1.4,2.4,2.7,4.9,4.7,6.9l0.4,0.1c-0.1,0.4-0.1,0.8-0.2,1.2c-0.1,0.1-0.2,0.3-0.1,0.4
					c0-0.1,0-0.3,0.1-0.4c0,0,0,0,0,0c2.8-4.1,5.7-8.4,8.9-12.1c0.4-0.5,0.8-0.9,1-1.5c0.1-0.5,0.1-1-0.2-1.4l0.9,0.7
					c-0.1,3.1-0.1,6.1,0,9c0.2,4.1,0.6,8.2,1.4,12.5c-0.1,0-0.3,0.1-0.4,0.1c-2.8,0.6-5.3,1.2-8.1,1.2c-0.8,0-8.4,0.1-9.2-0.3
					c0,0-0.1,0-0.1-0.1C82.4,216.3,82.3,215.4,82.2,214.5z"/>
				<path class="st48" d="M96.7,187.7c1,0.9,1.8,2,2.6,3.1c-0.6,0.7-1.2,1.3-1.8,2c-0.1,0.2-0.3,0.4-0.2,0.6
					c0.1,0.2,0.3,0.3,0.6,0.4c0.1,0.1,0.2,0.1,0.2,0.2l0,0c0.3,0.4,0.4,0.9,0.2,1.4c-0.2,0.6-0.6,1-1,1.5c-3.3,3.7-6.2,8-8.9,12.1
					c0,0,0,0,0,0c0-0.4,0.1-0.8,0.2-1.2c0.1-0.7,0.3-1.5,0.5-2.2c0.3-0.9,0.9-1.7,1.2-2.6c0.3-0.8,0.6-1.6,0.8-2.3
					c0.6-1.7,1.2-3.4,1.8-5.1l0.3-0.7c0.2,0.1,0.3,0.2,0.4,0.3c0.6-1.6,1.2-3.1,1.8-4.6c0.1-0.3,0.3-0.7,0.2-1.1
					c-0.1-0.2-0.2-0.4-0.4-0.5c-0.7-0.9-1.5-1.7-2.2-2.6l-0.2-0.3c0,0,0,0,0,0c0.2-0.3,0.5-0.6,0.7-0.9l0.4,0.2
					C94.9,186.1,95.8,186.9,96.7,187.7z"/>
				<path class="st49" d="M95.5,180.1c-0.5-2.5-1.4-4.8-2.6-7.1c-0.1-0.2-0.2-0.4-0.4-0.5c-0.2-0.2-0.5-0.2-0.8-0.3
					c-2.2-0.4-4.5-0.4-6.7,0.1c-0.3,0.1-0.7,0.2-0.9,0.4c-0.3,0.3-0.4,0.7-0.5,1.2c-0.4,2.5-0.2,4.8-1.4,7.2c0,0,0,0.1,0,0.1
					c-0.8-3.1-1.4-6.1-1.8-9.2c-0.1-0.4-0.1-0.8,0-1.2c0.2-0.4,0.5-0.8,0.9-1.1c1.2-1.1,2.5-2.2,4.1-2.3c0.8,0,1.5,0.2,2.3,0.4
					c2.2,0.6,4.4,1.2,6.6,1.8c0.5,0.1,1,0.3,1.3,0.6c0.3,0.3,0.5,0.8,0.6,1.3c0.6,3,0.5,6.1-0.5,9C95.5,180.3,95.5,180.2,95.5,180.1
					z"/>
				<path class="st50" d="M90.4,193.5c-0.8-0.3-1.6-0.6-2.4-0.8c0,0,0-0.1,0.1-0.1l-0.1-0.1c1.6-1.2,3.2-2.3,4.8-3.5
					c0.2-0.1,0.4-0.3,0.4-0.6c0-0.3-0.3-0.5-0.5-0.7c-0.2-0.2,0-1.6,0-1.8l0.2,0.3c0.7,0.9,1.5,1.7,2.2,2.6c0.2,0.2,0.3,0.3,0.4,0.5
					c0.1,0.4,0,0.7-0.2,1.1c-0.6,1.6-1.2,3.1-1.8,4.6c-0.1-0.1-0.3-0.2-0.4-0.3C92.3,194.4,91.4,193.9,90.4,193.5z"/>
				<path class="st44" d="M85,186.7c-0.1-0.1-0.2-0.1-0.2-0.2c-0.4-0.4-0.8-0.9-1.2-1.4c-0.8-1.2-1.2-2.7-1.2-4.1l0,0
					c1.2-2.4,1-4.7,1.4-7.2c0.1-0.4,0.2-0.9,0.5-1.2c0.2-0.2,0.6-0.3,0.9-0.4c2.2-0.5,4.5-0.5,6.7-0.1c0.3,0.1,0.5,0.1,0.8,0.3
					c0.2,0.1,0.3,0.3,0.4,0.5c1.2,2.2,2,4.6,2.6,7.1c-0.3,1.7-1,3.5-2,5c-0.2,0.3-0.5,0.6-0.7,0.9c0,0,0,0,0,0c-1.8,2-4.3,3-7,1.3
					C85.5,187.2,85.2,187,85,186.7z"/>
				<path class="st51" d="M93.2,195l-0.3,0.7c-0.6,1.7-1.2,3.4-1.8,5.1l-0.2-0.1c-0.5-0.5-0.6-1.1-1.3-2.6c-0.7-1.4-0.5-1.6-0.5-1.6
					c0.3,0,0.6-0.1,0.8-0.2c0-1,0.2-1.9,0.4-2.8C91.4,193.9,92.3,194.4,93.2,195z"/>
				<path class="st52" d="M93.3,188.5c0,0.2-0.2,0.4-0.4,0.6c-1.6,1.2-3.2,2.3-4.8,3.5c-1-0.8-2.1-1.5-3.1-2.3
					c-0.1-0.1-0.3-0.2-0.3-0.4c-0.3-0.6,0.8-1.1,0.8-1.9l0.4-0.7c2.7,1.8,5.2,0.8,7-1.3c0,0.1-0.2,1.6,0,1.8
					C93,188.1,93.3,188.2,93.3,188.5z"/>
				<path class="st53" d="M91.1,200.7c-0.3,0.8-0.5,1.6-0.8,2.3c-0.3,0.9-0.9,1.7-1.2,2.6c-0.2,0.7-0.4,1.4-0.5,2.2l-0.4-0.1
					c-0.5-2.2-1.1-4.5-1.6-6.7l0.4-0.8c0.4-0.8,0.8-2.6,1-3.5l0.1-0.5v0c0.3,0.2,0.7,0.3,1.1,0.3c0,0-0.2,0.2,0.5,1.6
					c0.7,1.4,0.8,2,1.3,2.6L91.1,200.7z"/>
				<path class="st53" d="M90.4,193.5c-0.3,0.9-0.4,1.8-0.4,2.8c-0.3,0.1-0.6,0.2-0.8,0.2c-0.4,0-0.8-0.1-1.1-0.3
					c-0.4-0.2-0.7-0.5-0.8-0.9c-0.2-0.5-0.3-1.1-0.6-1.5c0.4-0.4,0.9-0.8,1.4-1.2C88.8,192.9,89.7,193.2,90.4,193.5z"/>
				<path class="st45" d="M89.6,260.1c0,0.1,0,0.2-0.1,0.3c-0.1,0.1-0.2,0.1-0.3,0.1c-0.7,0.1-1.4,0.3-2.1,0.5c-0.2,0-0.4,0.1-0.7,0
					c-0.2-0.1-0.4-0.2-0.4-0.5c-0.8,0.2-1.5,0.6-2.2,1c-0.8,0.5-1.5,1.1-2.4,1.3c-0.3,0.1-0.6,0.1-0.8,0c-0.4-0.2-0.7-0.6-0.7-1.1
					c0-0.5,0.2-0.9,0.5-1.2c0.7-1,1.8-1.6,2.4-2.7c0.6-1.1,0.4-2.6,1.3-3.5c1.6-0.3,3.4,0.2,5.1,0.2v0.1
					C89.4,256.5,89.5,258.3,89.6,260.1z"/>
				<path class="st48" d="M86.6,201c0.5,2.2,1.1,4.5,1.6,6.7c-1.9-2-3.2-4.5-4.7-6.9c-0.6-1-1.3-2-2.1-2.9c-0.6-0.7-1.9-1.5-2.3-2.3
					c-0.1-0.2-0.2-0.4-0.2-0.6c0-0.5,0.4-0.8,0.5-1.4c0.1-0.9,0.1-0.6-0.5-1.2c-0.1-0.1-1.1-0.8-1.1-0.8c1.3-1.4,2.5-2.8,3.7-4.2
					c0.5-0.6,0.9-1.1,1.4-1.7l0.5-0.7c0.3,0.5,0.7,1,1.2,1.4c0.1,0.1,0.2,0.1,0.2,0.2l-0.6,0.6c-1,1.3-2.1,2.6-3.3,3.7
					c1.7,1.2,3.1,2.8,4,4.6c0.1-0.1,0.1-0.1,0.2-0.2c0.1,0.2,0.1,0.4,0.2,0.6C85.8,197.6,86.2,199.3,86.6,201z"/>
				<path class="st50" d="M88,192.7c-0.5,0.4-1,0.8-1.4,1.2c-0.5,0.5-1,1-1.4,1.5c-0.1,0.1-0.1,0.1-0.2,0.2c-0.9-1.8-2.3-3.4-4-4.6
					c1.2-1.2,2.3-2.4,3.3-3.7l0.6-0.6c0.3,0.2,0.6,0.5,0.8,0.6l-0.4,0.7c0,0.7-1.2,1.2-0.8,1.9c0.1,0.2,0.2,0.2,0.3,0.4
					c1,0.8,2.1,1.5,3.1,2.3L88,192.7C88.1,192.6,88,192.7,88,192.7z"/>
				<path class="st51" d="M88.1,196.2L88.1,196.2l-0.1,0.5c-0.1,0.9-0.6,2.7-1,3.5l-0.4,0.8c-0.4-1.7-0.8-3.4-1.2-5.1
					c-0.1-0.2-0.1-0.4-0.2-0.6c0.4-0.5,0.9-1,1.4-1.5c0.4,0.4,0.4,1,0.6,1.5C87.4,195.7,87.7,196,88.1,196.2z"/>
				<path class="st35" d="M79,195.1v0.6c1.6,6.2,2.6,12.5,3.2,18.9c-0.7-0.7-1.6-1-2.4-1.4c-2.3-0.9-4.5-2-6.7-3.2
					c-0.3-0.1-0.6-0.3-0.7-0.6c-0.2-0.3,0-0.7,0.1-1.1c1.6-4.8,2.4-9.6,1.8-14.5c0-0.3-0.1-0.6,0-0.9c0.1-0.2,0.3-0.4,0.5-0.6
					c2-1.6,4.1-2.8,6.2-4.4l0.7-0.4c-1.2,1.4-2.5,2.8-3.7,4.2c0,0,1,0.7,1.1,0.8c0.6,0.6,0.6,0.4,0.5,1.2
					C79.4,194.3,79,194.6,79,195.1L79,195.1z"/>
			</g>
			<g>
			</g>
		</g>
	</g>
	<g id="person-1_1_">
		<g id="XMLID_47_">
			<g>
				<path class="st54" d="M102,221.9c0.3,0.4,0.1,1-0.3,1.4c-0.4,0.3-0.9,0.5-1.4,0.6c0.4,0.2,0.4,0.9,0,1.2
					c-0.4,0.3-0.9,0.2-1.4,0.1c-0.5-0.1-1-0.2-1.5,0l-0.8,0.4c-0.6-0.8-1.5-1.8-2.4-2.4l0.1-0.6c-0.3-0.7-0.4-1.4-0.4-2.1
					c0-0.5,0.1-1.1,0.4-1.6c0.3-0.5,0.9-0.8,1.4-0.6c0.5,0.1,0.9,0.8,0.6,1.3c0.7-0.9,1.3-1.8,2-2.7c0.2-0.2,0.3-0.4,0.6-0.4
					c0.4,0,0.6,0.6,0.5,1c-0.1,0.7-0.2,1.3-0.5,1.9c0.4,0.1,0.7-0.3,1-0.4c0.6-0.1,1,0.5,0.9,1.1c-0.1,0.5-0.5,1-0.9,1.4
					C100.7,221.4,101.6,221.3,102,221.9z"/>
				<path class="st55" d="M97.3,226.6c-3.4,3-6.8,6-10.2,9c-0.7,0.6-1.6,1.3-2.5,1.1c-0.4-0.1-0.8-0.3-1.1-0.6
					c-1.8-1.3-3.6-2.6-5.3-3.9l-0.5-0.3c-0.6-4.3-0.4-9.1-1.7-13.2l0.3-0.2c1.1,1,2.5,1.7,3.9,2.2c0.7,0.3,1.5,0.5,1.9,1.1
					c0.3,0.4,0.4,0.8,0.5,1.3c0.5,1.8,1.4,3.5,2.6,4.9c0.1,0.1,0.2,0.2,0.3,0.2s0.3-0.1,0.4-0.1c2.6-1.6,4.6-3.6,7.5-5l0.2-0.2
					c0.2,0.1,0.4,0.2,0.7,0.3c0.9,0.6,1.8,1.6,2.4,2.4C97,226.2,97.3,226.6,97.3,226.6z"/>
				<path class="st56" d="M89,284.7c0,0.7-3.4,2.9-4,3.2c-2,1-3.9,1.9-5.9,2.9c-0.8,0.4-1.7,0.8-2.4,0.4c-0.4-0.2-0.6-0.5-0.8-0.9
					c-0.7-1.3-0.5-2.9-0.2-4.4c0-0.3,0.1-0.7,0.2-1c0.2-0.9,0.3-1.9,0.5-2.8l0-0.5c1.6-0.2,3.2-0.5,4.8-0.6l0,0.1
					c0.5,1.5,2.3,1,3.8,1.6c0.5,0.2,2.5-0.2,3,0S89,284.2,89,284.7z"/>
				<path class="st57" d="M68.1,281.9c0,0.1,0,0.3,0,0.4l-0.1,0.2c-2-0.1-3.9-0.3-5.9-0.4c-0.2,0-1.5-0.1-2.3-0.3
					c-0.4-0.1-0.6-0.1-0.6-0.1c0.5-1.7,0.5-3.4,0.5-5.1c0-2.2,0-4.5-0.1-6.8c-0.1-4.5-0.2-9-0.5-13.5c-0.1-1.8-0.2-3.6-0.3-5.4
					l0.1-0.9c2.4,0.3,4.8,0.6,7.2,1c0.1-3,0.6-4.4,0.8-7.4c-0.2,3.1,0.5,4.7,0.9,7.7c0.8,0.1,2.2-0.6,3.1-0.8
					c1.1-0.3,2.3-0.5,3.5-0.8c1.4-0.3,2.7-0.6,4.1-1.1c1,10.6,1.9,21.1,4.3,31.5l0.2,0.5l-0.4,0.2c-0.5,0-1,0-1.4,0.1
					c-1.6,0.1-3.2,0.4-4.8,0.6c-0.5,0.1-1.1,0.2-1.6,0.3c-0.7-5-1-10.4-2.6-15.3c-1-3-3.4-6.6-2.8-9.9c-0.9,4.2-0.5,8.7-0.8,13
					C68.2,273.7,68.1,277.8,68.1,281.9z"/>
				<path d="M58.4,219.6C58.4,219.6,58.3,219.6,58.4,219.6c-0.8-0.6-0.3-1.7,0.2-2.4c-1.1,0.8-2.4,1.7-3.8,1.6
					c-0.3,0-0.6-0.1-0.8-0.3c-0.1-0.2-0.1-0.4-0.1-0.5c-0.1-1.4,0.5-2.8,1.6-3.7c-1.1,0.7-2.7,0-3.1-1.2c-0.6-1.9,1.5-2.2,2.2-3.3
					c-1.3-0.3-3-0.6-3.5-1.9c-0.2-0.4-0.2-0.8-0.2-1.3c0.1-1.6,0.7-3.2,1.9-4.2c1.2-1,3-1.3,4.4-0.6c-0.6-1.9,0.5-4.1,2.4-4.9
					c2-0.8,3.1,0.3,4.4,1.6c-0.5-0.5,0.6-3.6,1.2-4c0.6-0.4,1.6-0.1,2,0.6c0.4,0.6,0.5,1.4,0.6,2.2c0.7-1,1.5-2,2.6-2.4
					c1.2-0.4,2.7,0.1,3,1.3c0.7-1.3,2.9-0.7,3.5,0.6c0.6,1.4,0.2,2.9-0.3,4.3c0.7-0.3,1.5,0.2,1.8,0.9s0.2,1.5,0.1,2.2
					c0.8-0.8,2.3-0.4,2.9,0.5c0.6,0.9,0.5,2.2,0,3.2c-0.5,1-1.4,1.8-2.2,2.5c1,0.1,1.9,0.9,2.1,1.8c0.2,0.7,0,2.2-0.5,2.8
					c-0.2,0.2-2.5,1.2-2.5,0.5c0,0.6-0.2,1.3-0.4,1.9c-0.1,0.3-0.2,0.6-0.5,0.7c-0.2,0.1-0.5,0.1-0.7,0.1c-0.2,0-0.4,0-0.6,0
					c-0.7,0-1.4,0-2.2,0c0.1,0.6,0.1,1.3,0,1.9c-0.6,2.3-2.8,0.9-4.3,1.3c-1.5,0.4-2.9,2.4-4.6,1.3c-0.7-0.4-0.8-1.6-0.2-2
					c-0.7,0.2-1.4-0.1-1.8-0.6c-0.4-0.6-0.4-1.4-0.1-1.9c-1.1,1-2.6,1.5-4.1,1.4c0,0-0.1,0-0.1,0C58.8,219.8,58.6,219.7,58.4,219.6z
					"/>
				<path class="st58" d="M77.7,231.9c0.1,0.4,0.1,0.9,0.2,1.3c0.9,4.9,2.2,9.5,3.1,14.4c-0.8,0.5-1.6,0.9-2.5,1.2
					c-1.3,0.5-2.7,0.8-4.1,1.1c-1.2,0.3-2.3,0.5-3.5,0.8c-0.9,0.2-2.3,1-3.1,0.8c-0.4-3-1.1-4.7-0.9-7.7c-0.2,3-0.8,4.4-0.8,7.4
					c-2.4-0.3-4.8-0.6-7.2-1c-0.8-0.1-1.5-0.2-2.3-0.3c1-5.2,1.3-10.6,1-16c-0.1-1.5-0.5-3.2-0.7-4.8c-0.1-0.9-0.2-1.8-0.2-2.7
					c0.1-1.9,1-5.2,2.3-6.5l0-0.1c0,0,0.1,0,0.1,0c1.5,0.1,3-0.4,4.1-1.4c-0.4,0.6-0.3,1.4,0.1,1.9c0.4,0.6,1.2,0.8,1.8,0.6
					c-0.7,0.4-0.5,1.5,0.2,2c1.7,1.1,3.1-0.8,4.6-1.3c1.5-0.4,3.7,0.9,4.3-1.3c0.2-0.6,0.1-1.3,0-1.9c0.7,0,1.4,0,2.2,0v0.1
					l-0.3,0.2C77.3,222.8,77.1,227.5,77.7,231.9z"/>
				<path class="st56" d="M71,282.7c1.8,0.6,2.3,1.2,2.2,1.7c-0.3,1.4-4.5,2.6-5.2,3.3c-1,1-1.5,2.5-4.5,3.5c-1,0-3,0-4-1
					c-1-3,0-5,0.3-8.2l0-0.1c0.8,0.1,2.1,0.2,2.3,0.3c2,0.1,3.9,0.3,5.9,0.4l0.1-0.2c0-0.2,0-0.3,0-0.4
					C68.8,282.3,70.5,282.5,71,282.7z"/>
				<path class="st55" d="M44.9,224.5c0-0.1,0.1-0.2,0.1-0.4c0.6-1.4,1.5-2.6,2.5-3.7l0.1,0.1l0.3,0.2c0.7,1.8,1.6,3.5,2.8,5
					c1.4-1.5,3-4.5,5-5.2c0.9-0.3,1.8-0.6,2.6-0.9c0.2,0.1,0.4,0.2,0.7,0.2l0,0.1c-1.4,1.3-2.3,4.7-2.3,6.5c0,0.9,0,1.8,0.2,2.7
					l-0.2,0c-2.3,0.6-3.9,2.5-5.9,3.9c-0.2,0.2-0.5,0.3-0.8,0.3c-0.5,0-0.9-0.4-1.1-0.8c-1.6-2.1-3-4.4-3.9-6.9l0-0.5
					C44.8,225,44.8,224.7,44.9,224.5z"/>
				<path class="st54" d="M48.4,217.4c0.2,0,0.3,0.1,0.5,0.1c-0.5,0.9-0.9,2-1.2,3l-0.1,0.1l-0.1-0.1c-1.1,1.1-1.9,2.4-2.5,3.7
					c0,0.1-0.1,0.2-0.1,0.4l-0.6-1c-0.7-0.6-1.3-1.3-1.8-2c-0.5-0.8-0.9-1.8-0.6-2.7c0.4,0.2,0.7,0.3,1.1,0.5
					c-0.3-0.8-0.5-1.6-0.4-2.4c0-0.4,0.3-1,0.7-0.9c0.1,0,0.2,0.1,0.3,0.2c0.3,0.3,0.5,0.7,0.6,1.1c0-0.7,0.2-1.4,0.5-2
					c0.1-0.2,0.3-0.5,0.6-0.5c0.2,0,0.4,0.3,0.5,0.5c0.2,0.5,0.4,1,0.6,1.4c0.2-1,0.8-1.9,1.5-2.6c0.1-0.1,0.2-0.2,0.4-0.2
					c0.2,0,0.2,0.3,0.3,0.5C48.4,215.6,48.4,216.5,48.4,217.4z"/>
			</g>
			<g>
			</g>
		</g>
	</g>
</g>
<g id="XMLID_9_">
	<g>
		<path class="st59" d="M171,299.7l0.4,0.5l-0.9,1.6c-1.2,0.9-2.6,1.6-4.1,1.3c-0.8-0.2-1.6-0.7-2.4-0.5l-0.6,0l0.2-0.2
			c0.2-1.2,0.5-2.4,1-3.5l0.2,0.1c1-0.4,2.1-0.8,3.1-1.1L171,299.7z"/>
		<path class="st60" d="M164.7,298.6c-0.1,0.1-0.1,0.2-0.1,0.3c-0.5,1.1-0.8,2.3-1,3.5l-0.2,0.2l-0.5,0.5c-1.3-0.3-2.6-0.4-3.9-0.8
			c-1.8-0.6-3-1.9-3.8-3.5c-0.8-1.7-1.5-3.6-2.2-5.4c-0.2-1.5-0.3-3-0.4-4.4c-0.1-0.5-0.1-1-0.3-1.5c-0.2-0.6-0.7-1.1-1.1-1.6
			c-1.1-1.4-2-3-2.6-4.8l-0.2-0.8c2.6,0.4,5.2,0.9,7.8,1.4c0.8,3.2,1.8,6.3,2.8,9.4C160.1,294.1,161.5,297.1,164.7,298.6z"/>
		<path class="st45" d="M163.8,356.4c0.5,4.7-8.7,1.3-11,2.1c-0.2-1.7-0.2-3.4,0-5l0-0.1c1.4,0.2,3.4-0.2,4.6-0.2
			c0.5-0.3,0.9-0.8,1-1.4c0.7,1,2,2.1,2.8,2.4C162.4,354.6,163.7,355.3,163.8,356.4z"/>
		<path class="st61" d="M141.8,339.9L141.8,339.9c0-5,0-10.1,0-15.1c0,0-0.1,0.1-0.1,0.1h0c-1.7-0.8-3.4-1.5-5.2-2.2
			c0-2.6,0-5.1,0-7.7c0.1,0.1,0.3,0.1,0.4,0c2.9-0.2,5.8-0.3,8.7-0.5c0.8,0,1.6-0.1,2.4-0.3c0.8-0.2,1.5-0.7,2.3-1.1
			c1.2-0.7,2.5-1.5,3.7-2.2l0.2,0.3c1.4,12,2.4,23,4.4,35c0,1.5,0.5,4,0,5.6c-0.2,0.6-0.5,1.1-1,1.4c-1.2,0-3.3,0.4-4.6,0.2
			c-0.8-0.1-1.4-0.5-1.4-1.2c-3-10-3-20-3.7-30.2c-0.1,0.5-0.1,1-0.1,1.5c0,0.3-0.1,0.5-0.1,0.8c-0.2,2.6-0.3,3.7-0.3,3.8
			c0-0.1,0.1-1,0.2-2.3c-0.7,10.9,0.6,21.6-3,32.4c0,0.1,0,0.1,0,0.2c-0.3,1.3-3.5,0.3-6.3-0.6c-0.6-0.2-1.2-0.4-1.7-0.6
			c0-4.2,0-8.3,0-12.5l0.1-0.1c0,0,0.1-0.1,0.1-0.1l0.1-0.1c0.2-0.2,0.4-0.4,0.7-0.6l0.1,0c0.1-0.1,0.3-0.3,0.4-0.4l0.6-0.5
			c0.3-0.2,0.5-0.5,0.8-0.7c0.5-0.4,0.9-0.8,1.4-1.2c0.1-0.1,0.3-0.3,0.4-0.4C141.3,340.3,141.6,340.1,141.8,339.9z"/>
		<path class="st62" d="M146.9,282.6c0.2-0.3,0.5-0.6,0.8-0.9c-0.4-0.6-0.9-1-1.5-1.4l-0.3-0.4l0.7-0.1c0.6,0.1,1.2,0.2,1.8,0.3
			l0.2,0.8c0.6,1.7,1.4,3.3,2.6,4.8c0.4,0.5,0.9,1,1.1,1.6c0.2,0.5,0.3,1,0.3,1.5c0.2,1.4,0.3,2.9,0.4,4.4
			c0.6,5.3,1.2,10.8,2.7,15.8c0.1,0.2,0.1,0.4,0,0.6c-0.1,0.2-0.2,0.3-0.4,0.3c-0.4,0.3-0.9,0.5-1.3,0.8c-1.2,0.7-2.5,1.5-3.7,2.2
			c-0.7,0.4-1.5,0.9-2.3,1.1c-0.8,0.2-1.6,0.3-2.4,0.3c-2.9,0.1-5.8,0.3-8.7,0.5c-0.1,0-0.3,0-0.4,0c0,0-0.1,0-0.1-0.1
			c-0.2-0.1-0.2-0.3-0.2-0.5c-0.5-5.4-1.6-10.5-2.2-15.9c-0.1-0.9-0.2-1.9-0.3-3.1c-0.5-4.7-1.1-11.1-0.6-11.6l-0.2-0.2
			c1.3-1,2.6-1.8,4-1.9c0,0,0,0,0,0c-0.1,0.2-0.9,1.4-0.9,1.4c-0.2,0.5-0.4,1-0.7,1.5c0,0.1-0.1,0.2-0.1,0.3
			c0.1,0.1,0.2,0.2,0.3,0.2c0.3,0.1,0.6,0.2,0.9,0.2c1.8,0.5,3.6,1,5.4,1.6c-0.4,1.2-0.4,1.4-0.8,2.6c-0.1,0.2-0.1,0.8,0,1
			c0.1,0.1,1.7,1.2,2.8,1.5l-0.1,0.4c-0.6,1.5-1.9,3.8-1.7,4.1c1.5,2.3,3.3,6.4,4,9c0.3-3,0-5.2,0.3-8.2c0.1-0.7,0.2-1.4,0.7-1.9
			c-1-1.1-1.8-2.4-2.7-3.5c0.1-0.8,0.2-1.6,0.4-2.4c0-0.3,0.1-0.6,0-0.8c-0.2-0.9-0.8-1.2-1.4-1.9c0.1-0.1,0.2-0.2,0.2-0.3
			C144.6,285.3,145.7,283.9,146.9,282.6z"/>
		<path class="st45" d="M149.4,363.5c0.7,1,0.8,2.6-0.2,3.2c-0.6,0.4-1.4,0.3-2.1,0.2c-2.7-0.3-5.4-0.7-8.1-1c-0.1,0-0.3,0-0.4-0.1
			c-0.3-0.2-0.3-0.6-0.3-0.9c0-2-0.3-4.2-0.3-6.2l0.2-0.9c2.8,0.9,6,2,6.3,0.6h0.1c0.5,1.1,1.2,2,2.1,2.7
			C147.5,361.9,148.6,362.5,149.4,363.5z"/>
		<path class="st59" d="M148.8,262.7c0,4.9,1.8,12.7-3,15.9c-0.1,0-0.1,0.1-0.2,0.1c-2.7,1.7-6.5,1.7-9.2,0.2
			c-1.4-0.8-2.5-1.9-3.1-3.4l-0.4-1c0.2,0,0.4-0.1,0.6-0.3c2-1,0-5,3-8c0-1,0-2,0-3c4-2,10-5,12,0c0-0.2,0.1-0.4,0.1-0.5
			L148.8,262.7z"/>
		<path class="st63" d="M139.5,256.2c4.8-1,9.6,1.8,9.1,6.5c0,0.2,0,0.3-0.1,0.5c-2-5-8-2-12,0c0,1,0,2,0,3c-3,3-1,7-3,8
			c-0.2,0.1-0.4,0.2-0.6,0.3c-2.5,0.6-3.2-5.5-3.2-5.5C127.5,262.2,133.5,258.2,139.5,256.2z"/>
		<path class="st64" d="M147.6,281.7c-0.2,0.3-0.5,0.6-0.8,0.9l-0.9-0.9h0c-0.1-0.6-0.1-1.2-0.2-1.8l0.1,0l0.3,0.4
			C146.7,280.7,147.2,281.1,147.6,281.7z"/>
		<path class="st65" d="M143.2,286.9c-0.1,0.1-0.2,0.2-0.4,0.2c-0.3,0.1-0.7,0-1-0.1c0,0-0.1,0-0.1,0c-1.8-0.5-3.6-1-5.4-1.6
			l0.3-1.4c0.1-0.8,0.1-1.6,0.1-2.4c0,0,0,0,0,0c0-0.6-0.1-1.2-0.2-1.8l-0.1-1c2.8,1.5,6.6,1.5,9.2-0.2l0.4,3.5c0-0.2,0-0.3-0.1-0.5
			h0l0.9,0.9c-1.1,1.3-2.3,2.7-3.4,4.1C143.4,286.7,143.3,286.8,143.2,286.9z"/>
		<path class="st66" d="M136.4,327.5c0-0.1,0-0.1,0-0.2h0.1c1.1-0.6,3.7-1.7,5.1-2.4h0c0,0,0.1-0.1,0.1-0.1c0,5,0,10,0,15.1l0,0
			l-0.7,0.7c-0.1,0.1-0.3,0.3-0.4,0.4l-1.4,1.2c-0.3,0.2-0.5,0.5-0.8,0.7l-0.6,0.5c-0.2,0.1-0.3,0.3-0.4,0.4l-0.1,0
			c-0.3,0.2-0.5,0.5-0.7,0.6l-0.1,0.1c0,0-0.1,0.1-0.1,0.1l-0.1,0.1C136.5,339,136.5,333.3,136.4,327.5z"/>
		<path class="st67" d="M141.6,324.9c-1.4,0.7-4,1.8-5.1,2.4h-0.1c0-1.5,0-3,0-4.6C138.2,323.4,139.9,324.1,141.6,324.9z"/>
		<path class="st64" d="M136.7,281.7c0,0.8,0,1.6-0.1,2.4l-0.3,1.4c-0.3-0.1-0.6-0.2-0.9-0.2c-0.1,0-0.3-0.1-0.3-0.2
			c0-0.1,0-0.2,0.1-0.3c0.2-0.5,0.4-1,0.7-1.5C135.9,283.2,136.6,282,136.7,281.7z"/>
		<path class="st68" d="M136.4,327.5c0,5.8,0,11.5,0,17.2l0,0c0,0-0.1,0-0.1,0.1l0,0c-0.1,0-0.2-0.1-0.4-0.1l0,0
			c0.4-5.8,0-11.5,0-17.3C136.1,327.4,136.3,327.5,136.4,327.5z"/>
		<path class="st67" d="M136,327.4c-3.4-1.2-6.9-2.4-10.4-3.5l0-0.2c-0.4-1.1-0.5-2.4-0.5-3.6c0-0.1,0-0.3,0.1-0.3c0,0,0.1,0,0.1,0
			v0c0.8,0.1,1.6,0.1,2.3-0.1l0,0.1c0.6,0.2,1.2,0.4,1.8,0.5c0.7,0.2,1.3,0.4,2,0.7c1.7,0.6,3.4,1.2,5.1,1.8c0,1.5,0,3,0,4.6
			c0,0.1,0,0.1,0,0.2C136.3,327.5,136.1,327.4,136,327.4z"/>
		<path class="st68" d="M123.3,323.2c0.8,0.2,1.5,0.4,2.2,0.7c3.5,1.1,7,2.3,10.4,3.5c0,5.8,0.4,11.5,0,17.3l0,0
			c-8.2-2.7-24.5-7.7-24.5-7.7c0-5,0.1-15.8,0.1-16.6C115.5,321.1,119.5,322.1,123.3,323.2z"/>
		<path class="st60" d="M133.6,295.4L133.6,295.4l-0.3,0.6c-2,5.9-2.5,7.3-4.2,17.8c0,0-0.1,0-0.4,0c-0.8,0-2.4,0-3.3-0.4
			c-0.5-0.2-1-0.4-1.5-0.5c-0.2,0-0.4,0-0.6,0l0.2-0.5c1.8-6.6,1.8-12.9,2-19.6c0-0.5,0-0.9,0.2-1.3c0.2-0.5,0.6-0.9,1-1.3
			c1.6-1.6,3.8-4.6,6.2-6.6l0.2,0.2C132.5,284.2,133.1,290.6,133.6,295.4z"/>
		<path class="st69" d="M130.6,317.7c0.2,1.1,0.5,2.2,0.8,3.2c-0.7-0.2-1.3-0.4-2-0.7l-0.4-1.5h-1h-0.2c0-0.7,0.2-1.4,0.7-1.9
			c0.5,0.1,1,0.2,1.5,0.2c0.1,0,0.3,0.1,0.4,0.1C130.5,317.3,130.6,317.5,130.6,317.7z"/>
		<path class="st59" d="M127.8,318.7c0,0.3,0.1,0.5,0.2,0.8c-0.1,0.1-0.2,0.1-0.4,0.2c-0.7,0.3-1.5,0.2-2.3,0.1
			c-0.2,0-0.4-0.1-0.6-0.1c-0.8-0.2-1.7-0.4-2.3-1c-0.1-0.1-0.2-0.2-0.3-0.4c-0.5-0.8-0.4-1.7,0-2.5c0.3-0.8,0.9-1.5,1.5-2.1
			l0.2-0.7c0.5,0.1,1,0.3,1.5,0.5c0.9,0.4,2.6,0.4,3.3,0.4l0.1,0.6c0.1,0.5,0.1,1,0.2,1.5c0,0.2,0,0.3,0,0.5
			c-0.1,0.2-0.2,0.3-0.3,0.4c0,0,0,0,0,0.1C128,317.3,127.8,318,127.8,318.7z"/>
		<path class="st69" d="M125.6,323.7l0,0.2c-0.7-0.2-1.5-0.5-2.2-0.7c-0.1-1.3-0.2-2.6-0.3-3.9l-0.6-0.6l0,0c0.6,0.6,1.5,0.9,2.3,1
			c0.2,0,0.4,0.1,0.6,0.1v0c0,0-0.1,0-0.1,0c-0.1,0.1-0.1,0.2-0.1,0.3C125.1,321.4,125.3,322.6,125.6,323.7z"/>
		<path class="st67" d="M123,319.3c0.1,1.3,0.2,2.6,0.3,3.9c-3.9-1.1-7.8-2.1-11.8-2.7c0,0,0,0,0,0l6.9-2.9l3.3,1l0.7,0.1L123,319.3
			z"/>
	</g>
	<g>
	</g>
</g>
<g id="ponytail">
	<g id="XMLID_8_">
		<g>
			<path class="st70" d="M209.9,260.4c3.5,4,3.1,10.1,5.1,14.8c-2.5-1-5.6-1-7.9-2.4c-2-1.3-3-3.8-3.9-5.9l-0.2-0.4l0,0
				c0-0.2,0-0.3-0.1-0.5c-0.2-1.3-0.6-2.6-1.3-3.7c-0.4-0.6-1-1-1.5-1.4l0.2-0.3C202.4,256.6,207.3,257.5,209.9,260.4z"/>
			<path class="st41" d="M209.2,349.5c0.7,3.4,1.7,6.4,1.6,10c-1.8,0.6-3.3,0.4-5.2,0.4c-1.8,0-3.6,1.2-5.4,0.4
				c-3.3-1.4,0.8-4.5,2.2-5.5c0.5-0.4,1-0.8,1.3-1.3c0.5-0.8,0.7-1.7,0.8-2.7l0-0.3l0-0.1C205.9,350.5,208,350.2,209.2,349.5z"/>
			<path class="st69" d="M208.6,343.8l1.4,4.9c-0.1,0.3-0.4,0.6-0.8,0.8c-1.2,0.7-3.3,1-4.7,1.1c-0.9,0.1-1.5,0.1-1.5,0.1
				s-1.3-3.7-1.9-5.7c-1.1-3.8-2.1-7.6-3.1-11.4c0.5-4.9,1.4-9.5,3.1-13.8c0.3,0,0.5-0.1,0.8-0.2c0.6-0.2,1.1-0.3,1.4-0.5
				C203.5,328.1,207.5,335.5,208.6,343.8z"/>
			<path class="st43" d="M209.8,298.6c1.2,3-1.5,6-4,3.1c-1.2-1.4-2.3-2.9-3.3-4.5l-0.5-0.7v0c0.1-1.3,0.3-2.5,0.3-3.8
				c-0.1-3.7-1.8-7.1-3.5-10.4c0-0.1-0.1-0.1-0.1-0.2l0.5,0.1c0.9-0.6,2.2-0.2,3,0.5c0.8,0.7,1.3,1.7,1.7,2.7
				C205.9,289.9,208,294.2,209.8,298.6z"/>
			<path class="st40" d="M203.4,319.1c-0.3,0.2-0.8,0.4-1.4,0.5c-0.3,0.1-0.5,0.1-0.8,0.2c-3.8,0.8-7.7,0.3-11.5-0.3
				c-0.7-0.1-1.4-0.2-2.1-0.4c0-7,2-15,1.2-21.6l0-0.3c0.2-0.5,0.5-1,0.8-1.6c1.5-2.8,3-5.6,3.9-8.6c0.1-0.3,0.2-0.7,0.1-1.1
				c-0.1-0.7-0.9-1.1-1.5-1.4c-0.9-0.4-1.9-0.8-2.8-0.5c-0.1,0-0.2,0.1-0.3,0.1l-0.1-0.4c-0.3-0.8-0.3-1.8-0.3-1.8
				c0.5-0.3,1-0.4,1.6-0.5c1.7-0.4,3.2-0.1,4.9,0.1c0.8,0.1,1.7,0.1,2.6,0c0.3,0,0.6-0.1,0.9,0.1c0.2,0.1,0.3,0.2,0.4,0.4
				c0,0.1,0.1,0.1,0.1,0.2c1.7,3.3,3.4,6.7,3.5,10.4c0,1.3-0.2,2.5-0.3,3.8v0c0,0.2,0,0.4-0.1,0.7c-0.3,3.3,0.7,6.3,1.1,9.5
				c0.3,2.7,0.6,5.5,0.9,8.2C204.2,317.2,204.7,318.3,203.4,319.1z"/>
			<path class="st71" d="M203.1,266.5c0.3,2.3,0.2,4.6-0.7,6.7c-0.8,1.8-2.2,3.2-3.9,4.1c-0.2-1.1-0.4-2.3-0.6-3.4
				c0-0.2-0.1-0.5-0.1-0.8c0-0.2-0.1-0.4-0.2-0.6c-0.2-0.2-0.6-0.2-0.9-0.2c-2,0-3.6-2.4-2.9-4.2c-1.2,1.1-2.5,2.2-3.7,3.3
				c-0.3-1.3-0.5-2.7-0.8-4c-0.2-0.8-0.3-1.6-0.7-2.3c-0.2-0.3-0.4-0.6-0.6-0.8c-1.2-1.3-3.2-1.9-5.1-2.3c1.7-1.2,3.6-2,5.7-2.3
				c-0.6-0.7-1-1.6-1.1-2.6c1.4,0,4,1,4,1c1.1-0.5,2.3-1,3.4-0.7c0.7,0.2,1.3,0.6,1.9,1c0.9,0.7,1.9,1.4,2.9,2.1
				c0.2,0.1,0.4,0.3,0.6,0.4c0.6,0.4,1.1,0.9,1.5,1.4c0.8,1,1.1,2.4,1.3,3.7C203,266.1,203,266.3,203.1,266.5L203.1,266.5z"/>
			<path class="st46" d="M194.2,359.3c-1.6,0.2-3.9,0.2-5.2-0.1c-0.6-0.1-1-0.3-1-0.5c-1-17.9,2.5-26.4,1.6-39.1
				c3.8,0.6,7.7,1,11.5,0.3c-1.7,4.3-2.6,9-3.1,13.8c-0.9,8.2-0.8,16.9-2,25C195.7,359,195,359.2,194.2,359.3z"/>
			<path class="st72" d="M197.7,273.1c0,0.2,0.1,0.5,0.1,0.8l-0.2,0.3c-0.9,1.1-0.9,2.3-2,3.2c-0.2,0.2-0.5,0.4-0.8,0.5
				c-1,0.5-2.2,0.6-3.2,0.6c-0.6,0-1.2,0-1.7-0.1c-1.5-0.2-2.9-0.9-3.7-2c-1.5-2-1.1-4.7-0.7-7.2c0.2-1.1,0.8-1.9,0.6-3.2
				c-0.2-1.3,1.7-1.8,1.7-1.8c0.2,0.2,0.4,0.5,0.6,0.8c0.4,0.7,0.6,1.5,0.7,2.3c0.3,1.4,0.5,2.7,0.8,4c1.2-1.1,2.5-2.2,3.7-3.3
				c-0.7,1.9,0.9,4.2,2.9,4.2c0.3,0,0.6,0,0.9,0.2C197.7,272.7,197.7,272.9,197.7,273.1z"/>
			<path class="st73" d="M195,277.9l-0.1,0.5c0,0.8,0,1.5,0,2.2l0.1,1.1c-1.7-0.1-3.3-0.4-4.9-0.1v0c0.2-0.9,0.3-1.8,0.2-2.6
				l-0.2-0.6l0,0c0.6,0.1,1.2,0.1,1.7,0.1C192.8,278.5,194,278.3,195,277.9z"/>
			<path class="st41" d="M194.2,359.3c-0.1,3-0.3,6.1-0.4,9.1c-2.8-0.2-5.3,1.4-8,0.8c-0.7-0.2-2.9-0.4-3.2-0.9
				c-0.8-1.2,0.2-3.2,1-3.9c0.9-0.8,2-1.2,2.9-1.8c1.1-0.7,1.9-1.9,2.6-3.2C190.3,359.5,192.6,359.5,194.2,359.3z"/>
			<path class="st43" d="M172.8,297.7c0.1-0.1,0.2-0.3,0.4-0.4c0.2-0.1,0.5,0,0.8,0c2,0.5,6.1,0.2,6.1,0.2c2.4-4,4.3-8.8,7.5-12.2
				c0.4-0.4,0.8-0.8,1.3-1.1c0.1,0,0.2-0.1,0.3-0.1c0.9-0.3,1.9,0.1,2.8,0.5c0.7,0.3,1.4,0.7,1.5,1.4c0.1,0.4,0,0.7-0.1,1.1
				c-0.9,3-2.4,5.8-3.9,8.6c-0.3,0.5-0.5,1.1-0.8,1.6c-0.6,1.1-1.1,2.3-2,3.3c-1.4,1.7-2.9,3.3-4.2,5.1c-0.1,0.1-0.2,0.3-0.3,0.3
				c-0.1,0-0.2,0-0.4,0c-3.9-1.1-7.3-3.9-11.4-3.9c0.2-0.5,0.5-0.9,0.8-1.4c0.5-0.9,1-1.8,1.5-2.7
				C172.7,297.9,172.7,297.8,172.8,297.7z"/>
			<path class="st72" d="M171.2,297.7h1.6c-0.1,0.1-0.1,0.2-0.2,0.3c-0.5,0.9-1,1.8-1.5,2.7l-0.4-0.2c-0.5-0.4-1.1-0.7-1.8-0.8
				c-0.4,0-0.8,0.1-1.2,0.2c-0.4,0.1-0.9,0-1-0.3c-0.1-0.2,0.1-0.4,0.2-0.6c0.5-0.6,1-1.2,1.5-1.7c0.1-0.1,0.3-0.3,0.5-0.3
				c0.1,0,0.2,0,0.4,0C170.1,297.1,170.6,297.4,171.2,297.7z"/>
			<path class="st72" d="M167.1,303.1c0,0,0,0.1,0,0.1c-0.1,0.2-0.1,0.4-0.2,0.5c0,0,0,0.1-0.1,0.1c0,0-0.1,0-0.2,0
				c-0.6,0-1.3,0-1.9,0c-0.1,0-0.3,0-0.3-0.2l0.1-0.5c0.3-0.4,0.7-0.8,1.1-0.8c0.2,0,0.4,0.1,0.6,0.2c0.3,0.1,0.5,0.3,0.8,0.4
				C167,303,167.1,303.1,167.1,303.1z"/>
		</g>
		<g>
		</g>
	</g>
</g>
</svg>
