<?xml version="1.0" encoding="utf-8"?>
<!-- Generator: Adobe Illustrator 22.1.0, SVG Export Plug-In . SVG Version: 6.00 Build 0)  -->
<svg version="1.1" id="Layer_1" xmlns="http://www.w3.org/2000/svg" xmlns:xlink="http://www.w3.org/1999/xlink" x="0px" y="0px"
	 viewBox="0 0 271.4 57" style="enable-background:new 0 0 271.4 57;" xml:space="preserve">
<style type="text/css">
	.st0{fill:#FFFFFF;}
</style>
<g id="text">
	<g>
		<path class="st0" d="M72,27.2c0-2.2,0.3-4.1,1-5.8c0.7-1.7,1.5-3,2.6-4.2c1.1-1.1,2.3-1.9,3.7-2.5c1.4-0.6,2.8-0.8,4.3-0.8
			c3.5,0,6.2,1.1,8.1,3.2s2.9,5.3,2.9,9.6c0,0.3,0,0.7,0,1.1s0,0.8-0.1,1.1H78c0.2,2,0.9,3.6,2.1,4.7c1.3,1.1,3.1,1.7,5.5,1.7
			c1.4,0,2.7-0.1,3.9-0.4c1.2-0.3,2.1-0.5,2.8-0.8l0.8,4.8c-0.3,0.2-0.8,0.3-1.3,0.5c-0.6,0.2-1.2,0.3-1.9,0.5
			c-0.7,0.1-1.5,0.3-2.3,0.4c-0.8,0.1-1.7,0.1-2.5,0.1c-2.2,0-4.1-0.3-5.8-1c-1.6-0.7-3-1.6-4-2.7c-1.1-1.2-1.8-2.5-2.4-4.1
			C72.2,30.8,72,29.1,72,27.2z M88.8,24.6c0-0.8-0.1-1.6-0.3-2.3c-0.2-0.7-0.6-1.3-1-1.9c-0.4-0.5-1-0.9-1.6-1.2
			c-0.6-0.3-1.4-0.5-2.2-0.5c-0.9,0-1.7,0.2-2.4,0.5s-1.2,0.8-1.7,1.3s-0.8,1.2-1.1,1.9c-0.3,0.7-0.4,1.4-0.5,2.2H88.8z"/>
		<path class="st0" d="M107.1,35.4c1.5,0,2.7-0.2,3.4-0.6c0.7-0.4,1.1-1,1.1-1.9c0-0.8-0.4-1.5-1.1-2.1c-0.8-0.5-2-1.1-3.7-1.8
			c-1.1-0.4-2-0.8-2.9-1.2c-0.9-0.4-1.6-0.9-2.3-1.5c-0.6-0.6-1.1-1.3-1.5-2.1c-0.4-0.8-0.6-1.8-0.6-3c0-2.3,0.8-4.1,2.5-5.4
			s4-2,6.9-2c1.5,0,2.9,0.1,4.2,0.4c1.3,0.3,2.4,0.5,3,0.8l-1.1,4.7c-0.6-0.3-1.5-0.6-2.4-0.8c-1-0.2-2.1-0.4-3.5-0.4
			c-1.2,0-2.1,0.2-2.9,0.6c-0.7,0.4-1.1,1-1.1,1.8c0,0.4,0.1,0.8,0.2,1.1c0.1,0.3,0.4,0.6,0.7,0.9c0.4,0.3,0.8,0.5,1.4,0.8
			s1.3,0.6,2.1,0.8c1.4,0.5,2.5,1,3.5,1.5s1.8,1.1,2.4,1.7s1.1,1.3,1.4,2.1s0.4,1.8,0.4,2.9c0,2.4-0.9,4.2-2.7,5.4s-4.3,1.8-7.6,1.8
			c-2.2,0-4-0.2-5.3-0.6c-1.3-0.4-2.3-0.7-2.8-0.9l1-4.8c0.9,0.4,1.9,0.7,3.1,1C104.2,35.3,105.5,35.4,107.1,35.4z"/>
		<path class="st0" d="M145.3,27.1c0,1.9-0.2,3.7-0.7,5.3c-0.5,1.6-1.2,3-2.1,4.1c-0.9,1.2-2.1,2-3.5,2.7s-3,1-4.7,1
			c-1.2,0-2.3-0.1-3.3-0.4c-1-0.3-1.8-0.6-2.4-1v9.7h-5.9V15.3c1.2-0.3,2.6-0.6,4.4-0.9s3.6-0.4,5.5-0.4c2,0,3.8,0.3,5.3,0.9
			c1.6,0.6,2.9,1.5,4,2.6s2,2.5,2.5,4.1C145,23.3,145.3,25.1,145.3,27.1z M139.4,27.2c0-2.6-0.6-4.6-1.8-6s-3-2.2-5.6-2.2
			c-0.5,0-1.1,0-1.7,0.1c-0.6,0-1.2,0.2-1.8,0.3v14.4c0.5,0.4,1.2,0.7,2,1s1.8,0.5,2.7,0.5c2.1,0,3.7-0.7,4.6-2.2
			C138.9,31.6,139.4,29.6,139.4,27.2z"/>
		<path class="st0" d="M165.6,19.7c-0.5-0.2-1.1-0.3-2-0.5c-0.8-0.2-1.8-0.3-3-0.3c-0.6,0-1.3,0.1-2,0.2s-1.2,0.2-1.5,0.3v20.1h-5.8
			V15.7c1.1-0.4,2.5-0.8,4.2-1.2s3.5-0.6,5.6-0.6c0.4,0,0.8,0,1.3,0.1c0.5,0,1,0.1,1.5,0.2c0.5,0.1,1,0.2,1.5,0.3s0.9,0.2,1.2,0.3
			L165.6,19.7z"/>
		<path class="st0" d="M169.3,27.2c0-2.2,0.3-4.1,1-5.8c0.7-1.7,1.5-3,2.6-4.2c1.1-1.1,2.3-1.9,3.7-2.5s2.8-0.8,4.3-0.8
			c3.5,0,6.2,1.1,8.1,3.2c1.9,2.1,2.9,5.3,2.9,9.6c0,0.3,0,0.7,0,1.1s0,0.8-0.1,1.1h-16.6c0.2,2,0.9,3.6,2.1,4.7
			c1.3,1.1,3.1,1.7,5.5,1.7c1.4,0,2.7-0.1,3.9-0.4c1.2-0.3,2.1-0.5,2.8-0.8l0.8,4.8c-0.3,0.2-0.8,0.3-1.3,0.5
			c-0.6,0.2-1.2,0.3-1.9,0.5c-0.7,0.1-1.5,0.3-2.3,0.4c-0.8,0.1-1.7,0.1-2.5,0.1c-2.2,0-4.1-0.3-5.8-1c-1.6-0.7-3-1.6-4-2.7
			c-1.1-1.2-1.8-2.5-2.4-4.1C169.5,30.8,169.3,29.1,169.3,27.2z M186.1,24.6c0-0.8-0.1-1.6-0.3-2.3c-0.2-0.7-0.6-1.3-1-1.9
			c-0.4-0.5-1-0.9-1.6-1.2c-0.6-0.3-1.4-0.5-2.2-0.5c-0.9,0-1.7,0.2-2.4,0.5s-1.2,0.8-1.7,1.3s-0.8,1.2-1.1,1.9
			c-0.3,0.7-0.4,1.4-0.5,2.2H186.1z"/>
		<path class="st0" d="M204.4,35.4c1.5,0,2.7-0.2,3.4-0.6c0.7-0.4,1.1-1,1.1-1.9c0-0.8-0.4-1.5-1.1-2.1c-0.8-0.5-2-1.1-3.7-1.8
			c-1.1-0.4-2-0.8-2.9-1.2c-0.9-0.4-1.6-0.9-2.3-1.5c-0.6-0.6-1.1-1.3-1.5-2.1c-0.4-0.8-0.6-1.8-0.6-3c0-2.3,0.8-4.1,2.5-5.4
			s4-2,6.9-2c1.5,0,2.9,0.1,4.2,0.4c1.3,0.3,2.4,0.5,3,0.8l-1.1,4.7c-0.6-0.3-1.5-0.6-2.4-0.8s-2.1-0.4-3.5-0.4
			c-1.2,0-2.1,0.2-2.9,0.6c-0.7,0.4-1.1,1-1.1,1.8c0,0.4,0.1,0.8,0.2,1.1c0.1,0.3,0.4,0.6,0.7,0.9c0.4,0.3,0.8,0.5,1.4,0.8
			c0.6,0.3,1.3,0.6,2.1,0.8c1.4,0.5,2.5,1,3.5,1.5s1.8,1.1,2.4,1.7c0.6,0.6,1.1,1.3,1.4,2.1s0.4,1.8,0.4,2.9c0,2.4-0.9,4.2-2.7,5.4
			s-4.3,1.8-7.6,1.8c-2.2,0-4-0.2-5.3-0.6c-1.3-0.4-2.3-0.7-2.8-0.9l1-4.8c0.9,0.4,1.9,0.7,3.1,1C201.5,35.3,202.8,35.4,204.4,35.4z
			"/>
		<path class="st0" d="M226.3,35.4c1.5,0,2.7-0.2,3.4-0.6c0.7-0.4,1.1-1,1.1-1.9c0-0.8-0.4-1.5-1.1-2.1c-0.8-0.5-2-1.1-3.7-1.8
			c-1.1-0.4-2-0.8-2.9-1.2c-0.9-0.4-1.6-0.9-2.3-1.5c-0.6-0.6-1.1-1.3-1.5-2.1c-0.4-0.8-0.6-1.8-0.6-3c0-2.3,0.8-4.1,2.5-5.4
			s4-2,6.9-2c1.5,0,2.9,0.1,4.2,0.4c1.3,0.3,2.4,0.5,3,0.8l-1.1,4.7c-0.6-0.3-1.5-0.6-2.4-0.8s-2.1-0.4-3.5-0.4
			c-1.2,0-2.1,0.2-2.9,0.6c-0.7,0.4-1.1,1-1.1,1.8c0,0.4,0.1,0.8,0.2,1.1c0.1,0.3,0.4,0.6,0.7,0.9c0.4,0.3,0.8,0.5,1.4,0.8
			c0.6,0.3,1.3,0.6,2.1,0.8c1.4,0.5,2.5,1,3.5,1.5s1.8,1.1,2.4,1.7c0.6,0.6,1.1,1.3,1.4,2.1s0.4,1.8,0.4,2.9c0,2.4-0.9,4.2-2.7,5.4
			s-4.3,1.8-7.6,1.8c-2.2,0-4-0.2-5.3-0.6c-1.3-0.4-2.3-0.7-2.8-0.9l1-4.8c0.9,0.4,1.9,0.7,3.1,1C223.4,35.3,224.8,35.4,226.3,35.4z
			"/>
		<path class="st0" d="M264.7,27c0,2-0.3,3.8-0.9,5.4c-0.6,1.6-1.4,3-2.4,4.2c-1.1,1.2-2.3,2-3.8,2.7s-3.1,1-4.9,1
			c-1.8,0-3.4-0.3-4.9-1c-1.5-0.6-2.7-1.5-3.8-2.7s-1.9-2.5-2.5-4.2c-0.6-1.6-0.9-3.4-0.9-5.4s0.3-3.8,0.9-5.4
			c0.6-1.6,1.4-3,2.5-4.2s2.3-2,3.8-2.7c1.5-0.6,3.1-0.9,4.8-0.9c1.8,0,3.4,0.3,4.9,0.9s2.8,1.5,3.8,2.7c1.1,1.2,1.9,2.5,2.5,4.2
			C264.4,23.3,264.7,25.1,264.7,27z M258.7,27c0-2.5-0.5-4.5-1.6-5.9s-2.6-2.2-4.5-2.2s-3.4,0.7-4.5,2.2s-1.6,3.4-1.6,5.9
			s0.5,4.5,1.6,6s2.6,2.2,4.5,2.2s3.4-0.7,4.5-2.2C258.2,31.6,258.7,29.6,258.7,27z"/>
	</g>
</g>
<g>
	<g id="plate">
		<g>
			<path class="st0" d="M7.7,42.5h58c0,0-1.5,4.5-5.5,5.5s-10,1-21,1s-24,0-27-1S7.7,42.5,7.7,42.5z"/>
			<path class="st0" d="M39.2,49.5c-11.3,0-24.1,0-27.2-1c-3.2-1.1-4.8-5.6-4.8-5.8c-0.1-0.2,0-0.3,0.1-0.5C7.4,42.1,7.5,42,7.7,42
				h58c0.2,0,0.3,0.1,0.4,0.2c0.1,0.1,0.1,0.3,0.1,0.5c-0.1,0.2-1.6,4.8-5.9,5.8C56.3,49.5,50.2,49.5,39.2,49.5z M8.4,43
				c0.5,1.2,1.9,3.8,3.9,4.5c2.9,1,16.2,1,26.8,1c10.9,0,16.9,0,20.9-1c2.8-0.7,4.3-3.3,4.9-4.5H8.4z"/>
		</g>
	</g>
	<g>
		<g id="handle">
			<path class="st0" d="M22.7,30.5h-7c-4.2,0-7-2.7-8.1-3.9c-1.8-1.8-2.9-4.8-2.9-8.1c0-5.2,2.7-8,3.9-9.1c1.9-1.9,5-2.9,9.1-2.9h5
				c1.7,0,3,1.3,3,3v18C25.7,29.2,24.4,30.5,22.7,30.5z M17.7,12.5c-3.5,0-4.6,0.9-4.9,1.1c-0.8,0.8-2.1,2.1-2.1,4.9
				c0,2.7,1,3.8,1.1,3.9c0.8,0.8,2.1,2.1,3.9,2.1h4v-12H17.7z"/>
		</g>
		<g id="body">
			<path class="st0" d="M28.2,39.1c-4.6,0-8.5-3.9-8.5-8.6v-21c0-1.7,1.3-3,3-3h33c1.7,0,3,1.3,3,3v21c0,5.1-3.2,8.4-8.4,8.6
				L28.2,39.1z M25.7,12.5v18c0,1.4,1.2,2.6,2.5,2.6h22c2.1-0.1,2.5-1,2.5-2.6v-18H25.7z"/>
		</g>
	</g>
</g>
</svg>
