<?xml version="1.0" encoding="utf-8"?>
<!-- Generator: Adobe Illustrator 22.1.0, SVG Export Plug-In . SVG Version: 6.00 Build 0)  -->
<svg version="1.1" id="Layer_1" xmlns="http://www.w3.org/2000/svg" xmlns:xlink="http://www.w3.org/1999/xlink" x="0px" y="0px"
	 viewBox="0 0 63.6 45.7" style="enable-background:new 0 0 63.6 45.7;" xml:space="preserve">
<style type="text/css">
	.st0{fill:#FFFFFF;}
</style>
<g>
	<g id="plate">
		<g>
			<path class="st0" d="M4.1,37.3h58c0,0-1.5,4.5-5.5,5.5s-10,1-21,1s-24,0-27-1S4.1,37.3,4.1,37.3z"/>
			<path class="st0" d="M35.6,44.3c-11.3,0-24.1,0-27.2-1c-3.2-1.1-4.8-5.6-4.8-5.8c-0.1-0.2,0-0.3,0.1-0.5c0.1-0.1,0.2-0.2,0.4-0.2
				h58c0.2,0,0.3,0.1,0.4,0.2c0.1,0.1,0.1,0.3,0.1,0.5c-0.1,0.2-1.6,4.8-5.9,5.8C52.7,44.3,46.6,44.3,35.6,44.3z M4.8,37.8
				c0.5,1.2,1.9,3.8,3.9,4.5c2.9,1,16.2,1,26.8,1c10.9,0,16.9,0,20.9-1c2.8-0.7,4.3-3.3,4.9-4.5H4.8z"/>
		</g>
	</g>
	<g>
		<g id="handle">
			<path class="st0" d="M19.1,25.3h-7c-4.2,0-7-2.7-8.1-3.9c-1.8-1.8-2.9-4.8-2.9-8.1c0-5.2,2.7-8,3.9-9.1c1.9-1.9,5-2.9,9.1-2.9h5
				c1.7,0,3,1.3,3,3v18C22.1,24,20.8,25.3,19.1,25.3z M14.1,7.3c-3.5,0-4.6,0.9-4.9,1.1c-0.8,0.8-2.1,2.1-2.1,4.9
				c0,2.7,1,3.8,1.1,3.9c0.8,0.8,2.1,2.1,3.9,2.1h4v-12H14.1z"/>
		</g>
		<g id="body">
			<path class="st0" d="M24.6,33.9c-4.6,0-8.5-3.9-8.5-8.6v-21c0-1.7,1.3-3,3-3h33c1.7,0,3,1.3,3,3v21c0,5.1-3.2,8.4-8.4,8.6H24.6z
				 M22.1,7.3v18c0,1.4,1.2,2.6,2.5,2.6h22c2.1-0.1,2.5-1,2.5-2.6v-18C49.1,7.3,22.1,7.3,22.1,7.3z"/>
		</g>
	</g>
</g>
</svg>
