<?xml version="1.0" encoding="utf-8"?>
<!-- Generator: Adobe Illustrator 17.0.0, SVG Export Plug-In . SVG Version: 6.00 Build 0)  -->
<!DOCTYPE svg PUBLIC "-//W3C//DTD SVG 1.1//EN" "http://www.w3.org/Graphics/SVG/1.1/DTD/svg11.dtd">
<svg version="1.1" id="Layer_1" xmlns="http://www.w3.org/2000/svg" xmlns:xlink="http://www.w3.org/1999/xlink" x="0px" y="0px"
	 width="475.2px" height="418.6px" viewBox="0 0 475.2 418.6" style="enable-background:new 0 0 475.2 418.6;" xml:space="preserve"
	>
<style type="text/css">
	.st0{fill:none;stroke:#EAF5ED;stroke-width:2;stroke-miterlimit:10;}
	.st1{fill:#C8E0F5;}
	.st2{fill:#FCCFC6;}
	.st3{fill:#E9F2FA;}
	.st4{fill:none;}
	.st5{fill:#C3E3CB;}
	.st6{fill:none;stroke:#FFF4CB;stroke-width:2;stroke-miterlimit:10;}
	.st7{fill:none;stroke:#C4E0F5;stroke-width:2;stroke-linecap:round;stroke-linejoin:round;}
	.st8{fill:none;stroke:#FFEFB2;stroke-width:2;stroke-linecap:round;stroke-linejoin:round;stroke-miterlimit:10;}
</style>
<title>shapes-mobile</title>
<polygon class="st0" points="141,194.5 134.7,193.1 136.6,199.3 138.6,205.5 143,200.7 147.4,195.9 "/>
<path class="st1" d="M391.4,19L391.4,19c3.5-2.4,4.4-7,2.1-10.5c-2.1-3.5-6.7-4.7-10.3-2.5L383.1,6L391.4,19z"/>
<path class="st2" d="M355.9,114c-3,0-5.5-2.5-5.5-5.5s2.5-5.5,5.5-5.5s5.5,2.5,5.5,5.5c0,0,0,0,0,0C361.4,111.5,359,114,355.9,114z
	 M355.9,104c-2.4,0-4.4,2-4.4,4.4s2,4.4,4.4,4.4s4.4-2,4.4-4.4l0,0C360.3,106,358.4,104,355.9,104z"/>
<path class="st2" d="M119.2,315.7c-3,0-5.5-2.5-5.5-5.5s2.5-5.5,5.5-5.5s5.5,2.5,5.5,5.5l0,0C124.7,313.2,122.3,315.7,119.2,315.7z
	 M119.2,305.8c-2.4,0-4.4,2-4.4,4.4s2,4.4,4.4,4.4s4.4-2,4.4-4.4l0,0l0,0C123.6,307.7,121.7,305.8,119.2,305.8z"/>
<polygon class="st0" points="311.9,229.8 310.3,223.5 305.7,228 301,232.5 307.3,234.3 313.5,236.1 "/>
<path class="st3" d="M450.7,250.9v-0.2l-1-6l-5.5,2.6l-0.9-6l-5.6,2.5l-0.7-4.7l-1,0.1l0.9,6l5.5-2.6l0.9,6l5.6-2.6l1,6l0.9-0.4
	C450.7,251.4,450.6,251.1,450.7,250.9C450.7,250.8,450.7,250.9,450.7,250.9z"/>
<line class="st4" x1="408.7" y1="224.5" x2="408.9" y2="225.8"/>
<path class="st3" d="M51.3,214.9v-0.2l-1-6l-5.6,2.5l-0.9-6l-5.5,2.6l-0.7-4.6l-1,0.1l0.8,6l5.6-2.7l0.9,6l5.6-2.6l1,6l0.9-0.4
	C51.3,215.4,51.3,215.1,51.3,214.9C51.3,214.8,51.3,215,51.3,214.9z"/>
<line class="st4" x1="23.9" y1="202.8" x2="24" y2="204.1"/>
<path class="st1" d="M73.4,396L73.4,396c-3.7,2.3-4.7,7.1-2.4,10.7c2.3,3.6,7.1,4.6,10.6,2.4l0,0l0.1-0.1L73.4,396z"/>
<path class="st2" d="M6.1,41.1c4.9-1,8-6,6.9-11.3v-0.1l-9.6,1.9"/>
<path class="st2" d="M454,390.7c-4.8,1.3-7.6,6.5-6.2,11.7l0,0.1l9.4-2.5"/>
<polygon class="st5" points="410.5,316.6 406.2,321.4 400,320.1 398,314 402.2,309.3 408.5,310.6 "/>
<polygon class="st5" points="70,114.4 65.8,119.2 59.5,117.9 57.5,111.8 61.8,107 68,108.3 "/>
<polygon class="st6" points="300,26.4 295.8,31.2 289.5,29.9 287.5,23.8 291.8,19 298,20.4 "/>
<polygon class="st6" points="188,404.1 183.8,408.9 177.5,407.5 175.5,401.5 179.8,396.7 186,398 "/>
<path class="st7" d="M9.7,276c1.5,2.9-2.3,3.6-0.7,6.2"/>
<path class="st7" d="M13.3,283.4c-1.6-0.3-3.4,0.6-4.4-1.2"/>
<path class="st7" d="M3.9,273.5"/>
<path class="st7" d="M9.7,276c-1.1-1.9-2.9-0.9-4.3-1.3"/>
<path class="st7" d="M440.3,160c1.5,2.9-2.3,3.6-0.7,6.2"/>
<path class="st7" d="M444,167.4c-1.6-0.3-3.4,0.6-4.4-1.2"/>
<path class="st7" d="M434.6,157.6"/>
<path class="st7" d="M440.3,160c-1.1-1.9-2.9-0.9-4.3-1.3"/>
<g>
	<path class="st8" d="M135.8,59.8c1.9,1.2-0.6,4.5,1.9,6"/>
	<path class="st8" d="M127.6,54.6c1.9,1.2-0.6,4.5,1.9,6"/>
	<path class="st8" d="M135.8,59.8c-1.9-1.2-3.8,2.4-6.2,0.9"/>
	<path class="st8" d="M121.4,55.5"/>
	<path class="st8" d="M127.6,54.6c-1.9-1.2-3.8,2.4-6.2,0.9"/>
</g>
<g>
	<path class="st8" d="M307,341.5c1.9,1.2-0.6,4.5,1.9,6"/>
	<path class="st8" d="M298.8,336.4c1.9,1.2-0.6,4.5,1.9,6"/>
	<path class="st8" d="M307,341.5c-1.9-1.2-3.8,2.4-6.2,0.9"/>
	<path class="st8" d="M292.6,337.2"/>
	<path class="st8" d="M298.8,336.4c-1.9-1.2-3.8,2.4-6.2,0.9"/>
</g>
</svg>
