<?xml version="1.0" encoding="utf-8"?>
<!-- Generator: Adobe Illustrator 17.0.0, SVG Export Plug-In . SVG Version: 6.00 Build 0)  -->
<!DOCTYPE svg PUBLIC "-//W3C//DTD SVG 1.1//EN" "http://www.w3.org/Graphics/SVG/1.1/DTD/svg11.dtd">
<svg version="1.1" id="Layer_1" xmlns="http://www.w3.org/2000/svg" xmlns:xlink="http://www.w3.org/1999/xlink" x="0px" y="0px"
	 width="475.2px" height="1255.8px" viewBox="0 0 475.2 1255.8" style="enable-background:new 0 0 475.2 1255.8;"
	 xml:space="preserve">
<style type="text/css">
	.st0{fill:none;stroke:#EAF5ED;stroke-width:2;stroke-miterlimit:10;}
	.st1{fill:#C8E0F5;}
	.st2{fill:#FCCFC6;}
	.st3{fill:#E9F2FA;}
	.st4{fill:none;}
	.st5{fill:#C3E3CB;}
	.st6{fill:none;stroke:#FFF4CB;stroke-width:2;stroke-miterlimit:10;}
	.st7{fill:none;stroke:#C4E0F5;stroke-width:2;stroke-linecap:round;stroke-linejoin:round;}
	.st8{fill:none;stroke:#FFEFB2;stroke-width:2;stroke-linecap:round;stroke-linejoin:round;stroke-miterlimit:10;}
</style>
<title>shapes-mobile</title>
<polygon class="st0" points="318.9,533.3 306.3,530.5 310.2,542.9 314.1,555.3 322.9,545.7 331.7,536.1 "/>
<path class="st1" d="M362.5,311.2l0.2-0.1c6.9-4.7,8.6-14,4-20.9c-4.3-7.1-13.5-9.3-20.6-5.1l-0.2,0.1L362.5,311.2z"/>
<path class="st2" d="M388.9,439.4c-6.1,0-11-4.9-11-11s4.9-11,11-11c6.1,0,11,4.9,11,11c0,0,0,0,0,0
	C400,434.5,395,439.4,388.9,439.4z M388.9,419.6c-4.9,0-8.8,3.9-8.8,8.8s3.9,8.8,8.8,8.8s8.8-3.9,8.8-8.8l0,0
	C397.7,423.5,393.8,419.6,388.9,419.6z"/>
<path class="st2" d="M226.6,849.6c-6.1,0-11-4.9-11-11s4.9-11,11-11s11,4.9,11,11l0,0C237.6,844.7,232.7,849.6,226.6,849.6z
	 M226.6,829.8c-4.9,0-8.8,3.9-8.8,8.8s3.9,8.8,8.8,8.8s8.8-3.9,8.8-8.8l0,0l0,0C235.4,833.7,231.4,829.8,226.6,829.8z"/>
<path class="st3" d="M90.9,661.9v-0.4l-2-12l-11.1,5.1l-1.9-12l-11,5.1l-1.4-9.1l-2,0.3l1.6,12l11.2-5.3l1.9,12l11.1-5.1l2,12
	l1.9-0.9c-0.2-0.5-0.3-1-0.3-1.6C90.9,661.8,90.9,662.1,90.9,661.9z"/>
<line class="st4" x1="10.1" y1="414.8" x2="10.5" y2="417.4"/>
<path class="st1" d="M142.2,1061l-0.2,0.1c-7.2,4.6-9.3,14.1-4.7,21.3c4.6,7.2,14.1,9.3,21.3,4.7l0,0l0.2-0.1L142.2,1061z"/>
<path class="st2" d="M15.5,30.4c9.7-2,16-12,13.8-22.5V7.6l-19.1,3.9"/>
<path class="st2" d="M374.7,1123.4c-9.6,2.6-15.2,13-12.4,23.3l0.1,0.3l18.8-5"/>
<polygon class="st5" points="354.6,698.5 346.1,708.1 333.6,705.5 329.6,693.3 338.1,683.8 350.6,686.4 "/>
<polygon class="st5" points="73.1,475.7 64.6,485.3 52.1,482.7 48.1,470.5 56.6,461 69.1,463.6 "/>
<polygon class="st6" points="344,115.7 335.5,125.3 323,122.7 319,110.5 327.5,101 340,103.6 "/>
<polygon class="st6" points="74,1195.2 65.5,1204.8 53,1202.2 49,1190 57.5,1180.5 70,1183.1 "/>
<path class="st7" d="M78.5,884.4c3,5.7-4.5,7.2-1.5,12.5"/>
<path class="st7" d="M85.8,899.2c-3.2-0.7-6.8,1.2-8.8-2.3"/>
<path class="st7" d="M66.9,879.5"/>
<path class="st7" d="M78.5,884.4c-2.2-3.8-5.7-1.9-8.6-2.6"/>
<g>
	<path class="st8" d="M113.7,271c3.9,2.4-1.1,8.9,3.8,12"/>
	<path class="st8" d="M97.3,260.7c3.9,2.4-1.1,8.9,3.8,12"/>
	<path class="st8" d="M113.7,271c-3.9-2.4-7.5,4.9-12.5,1.7"/>
	<path class="st8" d="M84.9,262.5"/>
	<path class="st8" d="M97.3,260.7c-3.9-2.4-7.5,4.9-12.5,1.7"/>
</g>
<g>
	<path class="st8" d="M374,932.2c3.9,2.4-1.1,8.9,3.8,12"/>
	<path class="st8" d="M357.7,921.9c3.9,2.4-1.1,8.9,3.8,12"/>
	<path class="st8" d="M374,932.2c-3.9-2.4-7.5,4.9-12.5,1.7"/>
	<path class="st8" d="M345.2,923.7"/>
	<path class="st8" d="M357.7,921.9c-3.9-2.4-7.5,4.9-12.5,1.7"/>
</g>
</svg>
