<?xml version="1.0" encoding="utf-8"?>
<!-- Generator: Adobe Illustrator 22.1.0, SVG Export Plug-In . SVG Version: 6.00 Build 0)  -->
<svg version="1.1" id="Layer_1" xmlns="http://www.w3.org/2000/svg" xmlns:xlink="http://www.w3.org/1999/xlink" x="0px" y="0px"
	 viewBox="0 0 276 304" style="enable-background:new 0 0 276 304;" xml:space="preserve">
<style type="text/css">
	.st0{fill:#FFFFFF;}
	.st1{fill:#18A3C6;}
	.st2{fill:#2D728F;}
	.st3{font-family:'Righteous-Regular';}
	.st4{font-size:40.5px;}
</style>
<path class="st0" d="M138.2-0.3c-9.2,0-22.5,6.1-27.6,9.2c-5.1,3.1-83.8,48-88.9,51.1S9.4,67.2,5.3,73.3c-4.1,6.1-5.1,12.3-5.1,17.4
	c0,5.1,0,109.4,0,116.5c0,7.2,2,16.4,5.1,21.5s10.2,10.2,11.2,11.2c1,1,93,55.2,100.2,58.3c7.2,3.1,13.3,5.1,19.4,5.1
	c6.1,0,15.3-2,19.4-4.1c4.3-2.1,97.1-55.2,100.2-57.2c3.1-2,10.2-8.2,14.3-14.3c4.1-6.1,4.1-15.3,5.1-22.5c0.8-5.7,1-97.1,1-105.3
	s0-12.3-3.1-19.4s-12.3-11.2-16.4-14.3c-4.1-3.1-90-57.2-94-59.3C158.7,4.8,147.4-0.3,138.2-0.3z"/>
<path class="st1" d="M138,22.9c-7.8,0-19,5.2-23.4,7.8S43.7,71.4,39.3,74s-10.4,6.1-13.9,11.3c-3.5,5.2-4.3,10.4-4.3,14.7
	s0,92.6,0,98.7s1.7,13.9,4.3,18.2c2.6,4.3,8.7,8.7,9.5,9.5s78.8,46.7,84.8,49.3s11.3,4.3,16.4,4.3s13-1.7,16.4-3.5
	c3.5-1.7,81.2-48.7,83.8-50.5c2.6-1.7,9.7-4.9,13.1-10.1c3.5-5.2,3.5-13,4.3-19c0.7-4.9,0.9-82.2,0.9-89.2s0-10.4-2.6-16.4
	s-10.4-9.5-13.9-12.1c-3.5-2.6-76.2-48.5-79.6-50.2C155.3,27.3,145.8,22.9,138,22.9z"/>
<g>
	<path class="st2" d="M143.8,149.2c-0.6-1-1-2.1-1.8-2.9c-1.9-2-4.5-1.7-7-1.3c-0.7,0.1-1.5,0.2-2.1,0.6c-0.9,0.6-1.3,1.6-1.7,2.5
		c-0.5,0.9-1,1.8-1.7,2.5c-0.7,0.8-1.6,1.6-2.7,1.7c-2.2,0.1-4.8-1.6-6.7-2.4c-0.7-0.3-1.4-0.6-1.9-1.2c-3.1-3-1.4-5.4,0.2-8.7
		c0.2-0.5,0.5-1,0.6-1.6c0.2-1.6-0.8-3-1.7-4.3c-1.8-2.4-3.7-3.2-6.6-3.1c-2,0-4.4,0.6-5.8-1.3c-1.9-2.5-2.5-10.2-0.6-12.7
		c1.7-2.2,5.4-1.6,7.8-2.1c2.3-0.5,5.5-4.7,6-6.9c0.8-3.5-4.2-5.9-2.6-9.7c1.4-3.3,11.1-7.8,13.9-4.9c2.4,2.4,3.3,7.5,7.3,7.8
		c1.8,0.1,3.5-0.7,4.9-1.8c1.9-1.5,3.8-5.5,6.5-5.4c0.9,0.1,1.8,0.4,2.6,0.8c2.3,1.1,5,2.3,6.9,4.2c0.5,0.5,0.9,1,1,1.7
		c0.1,0.5-0.1,1-0.2,1.4c-1.3,3.7-4.1,5.6-1.8,9.7c1,1.8,2.8,3.2,4.9,3.7c2.6,0.6,5.7,0.2,6.2,3.5c0.3,2.3,0.7,7.1-0.5,9.2
		c-1.2,2.1-4.6,1.8-6.6,2.2c-2.8,0.5-4.8,3.6-4.7,6.4c0.2,2.8,3,5.2,2.4,8.1c-0.2,1.1-1.2,1.9-2.1,2.5c-2.7,1.9-6.9,5.7-10.5,3.7
		C144.9,150.8,144.3,150,143.8,149.2z"/>
</g>
<circle class="st1" cx="137.5" cy="122.5" r="8.7"/>
<g>
	<g>
		<path class="st0" d="M123.2,57.5c-16,9-32,18-48,27c-4.9,2.8-4.8,10.1,0,13c16,9.3,32,18.7,48,28c-1.2-2.2-2.5-4.3-3.7-6.5
			c0,21.3,0,42.7,0,64c3.8-2.2,7.5-4.3,11.3-6.5c-15.7-9-31.4-17.9-47-27c1.2,2.2,2.5,4.3,3.7,6.5c0-8.3,0-16.7,0-25
			c0-9.7-15-9.7-15,0c0,6.6,0,13.3,0,19.9c0,2.9-0.4,6.3,1,8.9c1.8,3.2,7.1,5.2,10.2,7c13.2,7.6,26.3,15.1,39.5,22.7
			c4.9,2.8,11.3-0.8,11.3-6.5c0-18,0-36,0-54c0-6.4,1.4-13.3-4.8-17.1c-7.9-4.9-16.1-9.4-24.2-14.1c-7.6-4.4-15.1-8.8-22.7-13.3
			c0,4.3,0,8.6,0,13c16-9,32-18,48-27C139.2,65.7,131.6,52.8,123.2,57.5L123.2,57.5z"/>
	</g>
</g>
<g>
	<g>
		<path class="st0" d="M142.5,164c0,6.3,0,12.7,0,19c0,5.6,6.4,9.4,11.3,6.5c12.3-7.5,24.6-14.9,37-22.2c3-1.8,7.7-3.6,9.6-6.7
			c1.1-1.9,1-3.7,1-5.7c0.1-5.4,0-10.7,0-16.1c0-14,0.1-28.1,0.1-42.1c0-4.7,0.7-9.2-3.8-12.3c-3.6-2.5-7.5-4.6-11.2-6.9
			c-11.1-6.8-22.1-13.7-33.2-20.5c-4.9-3-11.3,0.9-11.3,6.5c0,6,0,12,0,18c0,9.7,15,9.7,15,0c0-6,0-12,0-18
			c-3.8,2.2-7.5,4.3-11.3,6.5c14.8,9.2,29.7,18.3,44.5,27.5c-1.2-2.2-2.5-4.3-3.7-6.5c0,21.9-0.1,43.9-0.1,65.8
			c1.2-2.2,2.5-4.3,3.7-6.5c-14.8,8.5-29.3,17.4-43.9,26.2c3.8,2.2,7.5,4.3,11.3,6.5c0-6.3,0-12.7,0-19
			C157.5,154.3,142.5,154.3,142.5,164L142.5,164z"/>
	</g>
</g>
<text transform="matrix(1 0 0 1 71.2412 232.5479)" class="st0 st3 st4">HACKS</text>
<g>
	<g>
		<path class="st0" d="M220.1,61.2c1.9,0,1.9-3,0-3C218.2,58.2,218.2,61.2,220.1,61.2L220.1,61.2z"/>
	</g>
</g>
</svg>
