<?xml version="1.0" encoding="utf-8"?>
<!-- Generator: Adobe Illustrator 22.1.0, SVG Export Plug-In . SVG Version: 6.00 Build 0)  -->
<svg version="1.1" xmlns="http://www.w3.org/2000/svg" xmlns:xlink="http://www.w3.org/1999/xlink" x="0px" y="0px"
	 viewBox="0 0 1110.8 205" style="enable-background:new 0 0 1110.8 205;" xml:space="preserve">
<style type="text/css">
	.st0{fill:#2D728F;}
	.st1{fill:#CCFFFF;}
	.st2{fill:#ADE0DD;}
	.st3{fill:none;stroke:#CCFFFF;stroke-miterlimit:10;}
</style>
<g id="Layer_1">
</g>
<g id="_x32__ABOUT">
	<g id="ocean_top">
		<path class="st0" d="M949,0c0,0-88,72-162,79s-132-23-221-8s-134.1,70.6-188,81c-109.6,21.3-162.6-10-235-14
			C62.1,133.6,0,205,0,205V0H949z"/>
		<g id="XMLID_13_">
			<g>
				<path class="st1" d="M366.5,154.3c-1,5.2-5.8,8.3-10.9,9.7c-5.5,1.4-11.9-1-14.5-6.1l-0.1-0.4c1.4,0,1.5-9.8,11.4-10.9
					C362.3,145.3,365.4,154.3,366.5,154.3z"/>
			</g>
			<g>
			</g>
		</g>
		<g id="Layer_243">
			<path class="st2" d="M340.9,157.5c0,0,7.5-0.5,12.8-1.5c5.3-1,12.5-1.9,12.5-1.9S362,145,353,146S340.9,157.5,340.9,157.5z"/>
		</g>
	</g>
	<g id="bubbles">
		<g id="XMLID_32_">
			<g>
				<path class="st1" d="M499.7,131.8c0,1.1-0.3,2.1-0.8,3.1c-1.4,2.8-4.1,5-7.2,5.4c-6.2,0.8-10.9-4.3-8.1-10.4
					C486.5,123.5,499.6,124,499.7,131.8z"/>
			</g>
			<g>
			</g>
		</g>
		<g id="XMLID_60_">
			<g>
				<path class="st1" d="M468.3,186.7c-3.9-17.5,24.9,2.3,6.7,4.7C472,191.8,469,189.6,468.3,186.7z"/>
			</g>
			<g>
				<path class="st3" d="M475,191.4c18.2-2.4-10.6-22.2-6.7-4.7C469,189.6,472,191.8,475,191.4z"/>
			</g>
		</g>
		<g id="XMLID_61_">
			<g>
				<path class="st1" d="M496.7,157.2c5.4,2.2,1.6,12-3.7,7.7c-1.4-1.1-1.9-2.9-1.7-4.5C491.7,157.9,493.7,155.9,496.7,157.2z"/>
			</g>
			<g>
				<path class="st3" d="M493,164.9c5.3,4.3,9.1-5.5,3.7-7.7c-3-1.2-5,0.8-5.4,3.2C491.1,161.9,491.6,163.7,493,164.9z"/>
			</g>
		</g>
		<g id="XMLID_63_">
			<g>
				<path class="st1" d="M462.2,165.5c2.3,10.4-14,7.1-11-1.4C453.4,157.7,461,159.8,462.2,165.5z"/>
			</g>
			<g>
				<path class="st3" d="M451.2,164.1c-2.9,8.5,13.3,11.7,11,1.4C461,159.8,453.4,157.7,451.2,164.1z"/>
			</g>
		</g>
		<g id="XMLID_64_">
			<g>
				<path class="st1" d="M513.4,179.5c4.2-1,8.6,3.5,7.6,7.6c-1.1,4.2-7.1,6-10.3,3.1c-3.2-2.9-2-9.1,2-10.6L513.4,179.5z"/>
			</g>
			<g>
				<path class="st3" d="M513.4,179.5c4.2-1,8.6,3.5,7.6,7.6c-1.1,4.2-7.1,6-10.3,3.1c-3.2-2.9-2-9.1,2-10.6"/>
			</g>
		</g>
		<g id="XMLID_65_">
			<g>
				<path class="st1" d="M393.8,170.5c1.2,4-3.5,8.4-7.4,7C375.3,173.7,390.2,158.8,393.8,170.5z"/>
			</g>
			<g>
				<path class="st3" d="M393.8,170.5c-3.6-11.7-18.5,3.2-7.4,7C390.3,178.9,395.1,174.5,393.8,170.5z"/>
			</g>
		</g>
		<g id="XMLID_66_">
			<g>
				<path class="st1" d="M554.2,190.2c0.7,4.1-3,8.3-7.2,8.2c-4.2-0.1-7.7-4.4-7-8.5c0.3-2,1.5-3.8,3.2-4.9l1.5,0.1
					C548.4,183.4,553.4,186.1,554.2,190.2z"/>
			</g>
			<g>
				<path class="st3" d="M544.4,184.4c-0.4,0.2-0.9,0.4-1.2,0.6c-1.7,1.1-2.9,2.9-3.2,4.9c-0.6,4.1,2.9,8.4,7,8.5
					c4.2,0.1,7.9-4.1,7.2-8.2c-0.7-4.1-5.8-6.8-9.5-5.1"/>
			</g>
		</g>
		<g id="XMLID_62_">
			<g>
				<path class="st1" d="M432,156.7c0.7,5.7-8.7,6.6-7.2,0.3C425.7,152.9,431.4,152,432,156.7z"/>
			</g>
			<g>
				<path class="st3" d="M432,156.7c-0.6-4.7-6.3-3.8-7.2,0.3C423.4,163.3,432.7,162.4,432,156.7z"/>
			</g>
		</g>
		<g id="XMLID_70_">
			<g>
				<path class="st1" d="M1074.2,97.2c6.1-0.4,9.4,5.5,6,10.7c-2.5,3.8-8.9,4.1-11.7,0.4C1065,103.5,1068.7,97.5,1074.2,97.2z"/>
			</g>
			<g>
				<path class="st3" d="M1068.5,108.3c2.7,3.7,9.2,3.4,11.7-0.4c3.4-5.2,0.1-11.1-6-10.7C1068.7,97.5,1065,103.5,1068.5,108.3z"/>
			</g>
		</g>
		<g id="XMLID_69_">
			<g>
				<path class="st1" d="M1099.9,66.7c0.3,0.8,0.1,1.6-0.2,2.4c-0.7,1.9-2.3,3.4-4.3,3.8c-4.5,0.9-6.8-3.6-3.9-6.9
					c2-2.3,5.1-2.5,7.4-0.6C1099.3,65.8,1099.7,66.2,1099.9,66.7z"/>
			</g>
			<g>
				<path class="st3" d="M1095.4,72.9c2-0.4,3.6-2,4.3-3.8c0.3-0.8,0.5-1.6,0.2-2.4c-0.2-0.5-0.6-1-1-1.3c-2.3-1.9-5.4-1.7-7.4,0.6
					C1088.6,69.4,1090.9,73.9,1095.4,72.9z"/>
			</g>
		</g>
		<g id="XMLID_68_">
			<g>
				<path class="st1" d="M1060.9,33.9c0.1,5.5-8.9,4.5-7-0.7C1055.2,29.7,1060.8,29.9,1060.9,33.9z"/>
			</g>
			<g>
				<path class="st3" d="M1060.9,33.9c-0.1-4-5.8-4.2-7-0.7C1052,38.4,1061.1,39.4,1060.9,33.9z"/>
			</g>
		</g>
		<g id="XMLID_67_">
			<g>
				<path class="st1" d="M1081.9,7.1c0.5,1.6-0.8,3.3-2.3,4.1c-3.1,1.6-10.2-0.5-5.6-4.4C1075.7,5.2,1080.9,3.9,1081.9,7.1z"/>
			</g>
			<g>
				<path class="st3" d="M1079.6,11.1c1.5-0.8,2.8-2.5,2.3-4.1c-1-3.2-6.1-1.9-7.9-0.4C1069.3,10.7,1076.5,12.8,1079.6,11.1z"/>
			</g>
		</g>
	</g>
</g>
</svg>
