<?xml version="1.0" encoding="utf-8"?>
<!-- Generator: Adobe Illustrator 22.1.0, SVG Export Plug-In . SVG Version: 6.00 Build 0)  -->
<svg version="1.1" id="Layer_1" xmlns="http://www.w3.org/2000/svg" xmlns:xlink="http://www.w3.org/1999/xlink" x="0px" y="0px"
	 viewBox="0 0 1366 537" style="enable-background:new 0 0 1366 537;" xml:space="preserve">
<style type="text/css">
	.st0{fill:#4592AD;}
	.st1{fill:#B5E5E4;}
	.st2{opacity:0.5;}
	.st3{fill:#D3AD57;}
	.st4{fill:url(#SVGID_1_);}
</style>
<g id="Layer_1_1_">
</g>
<g id="_x34__FAQ">
	<g id="XMLID_294_">
		<g>
			<path class="st0" d="M438.1,332.6c4.8,3,9.5,6,14.3,9c6.5,4.1,13.2,8.2,20.8,9.6c5.3,0.9,10.6,0.4,16-0.2c19.5-2,39.1-4,58.6-6
				c-1.2-8.8-10-15-18.8-16.4s-17.8,0.7-26.5,2.3C481.2,334.6,459.5,335.2,438.1,332.6z M1367.5,295.7c0,11.8,0,23.4,0,34.9
				c-14.2-0.5-16.2,8.1-27.2,12.3c-13.6,5.2-28.3,1.2-42.4-0.8c-63.1-8.6-120.7,33-181.7,51.3c-37.3,11.2-76.6,13.7-115.6,16.1
				c-23.4,1.5-44.3-4.2-67.2-5.3c-37.4-1.7-67.2-12.7-103.6-18.5c-41.2-6.5-82.7,13.7-124.2,9.8c-16.8-1.6-33.3-7.2-50.2-6.6
				c-13.7,0.4-27,4.9-40.8,5.4c-16.4,0.7-32.5-4.2-48.4-8.1c-42-10.1-85.4-13.1-128.5-16.1c-20.5-1.4-41.3-2.8-61.5,1.3
				c-20.1,4.1-39.9,14.3-51,31.6c45,17,101.2-0.3,139.6,28.7c-73.3,15.9-149.5,18.1-223.5,6.4c-21.5-3.4-43.5-7.9-64.8-3.5
				c-20.7,4.3-39.2,16.9-60.1,20.4c-38.2,6.4-79.4-18.8-114.7-2.7h-2.3c0-52.2,0-104.4,0-156.6
				C455.6,295.7,1367.5,295.7,1367.5,295.7z M1081.5,383c2.7-5-3-10.8-8.5-12.2s-11.9-1.2-16.3-4.9c-3.1-2.7-4.5-6.8-6.2-10.5
				c-7.7-16.8-26.5-27.8-44.9-26.3c-16.2,1.3-30.7,11.1-46.8,13.1c-15.1,1.8-30.2-3.3-45.4-2.8c-11.6,0.4-22.8,4.1-34.3,5.1
				c-35.1,3-73.5-19-103.8-1c19.5,12.3,42.4,19.1,65.4,19.6c20.5,0.4,42-4.1,61.1,3.2l-0.3,0.8c21.8,18.1,56.1-1.6,82.5,8.3
				c6.3,2.4,12,6.4,18.5,8c8.8,2.2,17.9-0.3,26.8-1.8C1046.6,378.6,1064.4,379.1,1081.5,383z M296.2,389.6
				c-2.5-10.4-13.1-16.5-22.6-21.4c-18.8-9.6-40.3-19.4-60.3-12.7c-7.1,2.4-13.4,6.8-20.5,9.4c-9.6,3.6-20.1,3.8-30.3,3.9
				c-33.4,0.4-66.9,0.8-100.4,1.3l-2.6,1.2c5.2,3.1,10.4,6.2,15.8,8.8c25.9,12.3,55.6,12.8,84.2,13.1c26.8,0.2,53.6,0.5,80.4,0.7
				C258.9,394.1,278,394.2,296.2,389.6z"/>
			<path class="st1" d="M600.1,465.4c-121.6,19.8-242.6,50.7-365.8,49.7C154.8,514.5,69.9,501.7-0.6,537c0-28.2,0-56.5,0-84.7h2.3
				c35.3-16,76.5,9.1,114.7,2.8c20.9-3.4,39.3-16,60.1-20.4c21.3-4.5,43.3,0.1,64.8,3.5c74.1,11.7,150.3,9.5,223.5-6.4
				c-38.3-29.1-94.6-11.7-139.6-28.7c11.1-17.3,30.9-27.5,51-31.6c20.2-4.1,41-2.7,61.5-1.3c43.1,3,86.5,5.9,128.5,16.1
				c16,3.9,32,8.8,48.4,8.1c13.7-0.5,27-5,40.8-5.4c16.9-0.5,33.4,5,50.2,6.6c41.5,3.9,83-16.3,124.2-9.8
				c36.3,5.8,66.2,16.8,103.6,18.5c22.9,1,43.8,6.8,67.2,5.3c38.9-2.4,78.2-4.9,115.6-16.1c61-18.3,118.6-59.9,181.7-51.3
				c14,1.9,28.8,5.9,42.4,0.8c10.9-4.2,12.9-12.7,27.2-12.3c0,18.2,0,36.4,0,55.1l-1.7,3.8c-64.8,0-129.3,19.5-192.1,32.9
				c-76.9,16.4-154.6,32.9-233.1,31.3c-60.2-1.2-120-12.2-180.3-5.4C707.1,454.4,653.6,456.7,600.1,465.4z"/>
			<path class="st1" d="M901.8,366.2c-19.1-7.3-40.6-2.8-61.1-3.2c-23-0.4-45.9-7.3-65.4-19.6c30.3-18,68.7,3.9,103.8,1
				c11.5-1,22.7-4.7,34.3-5.1c15.2-0.5,30.3,4.6,45.4,2.8c16.1-2,30.6-11.8,46.8-13.1c18.4-1.5,37.2,9.5,44.9,26.3
				c1.7,3.7,3,7.9,6.2,10.5c4.3,3.7,10.7,3.5,16.3,4.9c5.5,1.5,11.2,7.2,8.5,12.2c-17.1-3.9-34.9-4.4-52.2-1.4
				c-8.9,1.5-18,4-26.8,1.8c-6.5-1.6-12.2-5.6-18.5-8c-26.5-10-60.8,9.8-82.5-8.3L901.8,366.2z"/>
			<path class="st1" d="M547.8,345c-19.5,2-39.1,4-58.6,6c-5.3,0.5-10.7,1.1-16,0.2c-7.5-1.3-14.3-5.5-20.8-9.6c-4.8-3-9.6-6-14.3-9
				c21.4,2.6,43.1,2,64.3-1.8c8.8-1.6,17.7-3.7,26.5-2.3C537.7,330,546.5,336.1,547.8,345z"/>
			<path class="st1" d="M273.6,368.2c9.6,4.9,20.1,11,22.6,21.4c-18.3,4.6-37.3,4.5-56.1,4.3c-26.8-0.2-53.6-0.5-80.4-0.7
				c-28.6-0.2-58.4-0.7-84.2-13.1c-5.4-2.6-10.7-5.7-15.8-8.8l2.6-1.2c33.5-0.4,66.9-0.8,100.4-1.3c10.2-0.1,20.7-0.3,30.3-3.9
				c7-2.6,13.4-7,20.5-9.4C233.3,348.8,254.7,358.6,273.6,368.2z"/>
		</g>
	</g>
	<g class="st2">
		<path class="st3" d="M1057.4,477.2c0.4,1.7-1.5,3.2-3.2,3.1c-1.7-0.1-3.2-1.3-4.4-2.5c-2.5-2.6-4.7-5.5-6.2-8.8
			c-1.2-2.4-2.1-5.1-3.9-7.1c-2.7-3-6.8-4.2-10.4-5.9s-7.4-4.7-7.4-8.7c-0.1-4.1,3.5-7.2,6.7-9.6c3.2-2.4,6.7-4.9,10.8-5.2
			c4.9-0.5,9.4,2.2,13.2,5.3c4.3,3.4,8,7.5,11.2,11.9c4,5.7,7.1,12.7,5.8,19.5s-8.5,12.8-15.1,10.7"/>
	</g>
	<g class="st2">
		<path class="st3" d="M939.9,467.7c-10.7,4.3-17.3-1.4-26.9-7.5c-10.7-6.8-22.9-15.8-23.3-28.5c-0.1-4.3,0.7-8.7,3.1-12.3
			c8.2-11.5,18-5.6,24.1,0.8c8.4,8.7-0.6,14.8,9,22c5.3,4,19,11,19,17S942.9,466.5,939.9,467.7z"/>
	</g>
	
		<linearGradient id="SVGID_1_" gradientUnits="userSpaceOnUse" x1="682.9329" y1="769.0811" x2="682.9329" y2="458.8" gradientTransform="matrix(1 0 0 -1 0 768)">
		<stop  offset="0" style="stop-color:#EFDC8E"/>
		<stop  offset="1" style="stop-color:#4592AD"/>
	</linearGradient>
	<polygon class="st4" points="1366,304.2 0,309.2 -0.1,-0.1 1366,-1.1 	"/>
</g>
</svg>
