<?xml version="1.0" encoding="utf-8"?>
<!-- Generator: Adobe Illustrator 22.1.0, SVG Export Plug-In . SVG Version: 6.00 Build 0)  -->
<svg version="1.1" xmlns="http://www.w3.org/2000/svg" xmlns:xlink="http://www.w3.org/1999/xlink" x="0px" y="0px"
	 viewBox="0 0 1366 1862" style="enable-background:new 0 0 1366 1862;" xml:space="preserve">
<style type="text/css">
	.st0{opacity:0.5;}
	.st1{fill:#D3AD57;}
	.st2{fill:#F2B844;}
	.st3{fill:#F2BDBD;}
	.st4{fill:#CFE5C3;}
	.st5{fill:#ADD2DB;}
	.st6{fill:#FFCC66;}
	.st7{fill:#F9C170;}
	.st8{fill:#DDB79B;}
	.st9{fill:#BFA594;}
	.st10{opacity:0.3;}
	.st11{fill:#6D6D6D;}
	.st12{fill:#BC7B50;}
	.st13{fill:#D3926E;}
	.st14{fill:#595959;}
	.st15{fill:#953D2F;}
	.st16{fill:#B23E40;}
	.st17{fill:#98242C;}
	.st18{fill:#D5592A;}
	.st19{fill:#9F0017;}
	.st20{fill:#760401;}
	.st21{fill:#060000;}
	.st22{fill:#FFFFFF;}
	.st23{fill:#2F0905;}
	.st24{fill:#ECD0B4;}
	.st25{fill:#5B412B;}
	.st26{fill:#FFF1CB;}
	.st27{fill:#954923;}
	.st28{fill:#940012;}
	.st29{fill:#715E3F;}
	.st30{fill:#EEC6AA;}
	.st31{fill:#A31F34;}
	.st32{fill:#C7AB91;}
	.st33{fill:#8D1E2A;}
	.st34{fill:#B59981;}
</style>
<g id="Layer_1">
</g>
<g id="_x34__FAQ">
	<g id="XMLID_1_" class="st0">
		<g>
			<path class="st1" d="M804.7,505.7c24.8-3,50.3-2.2,75.3-2.3c-25.6,4.9-47.2,11.9-70.4,22.7c-21.7,10.1-45.8,26.9-69,32.3
				c-8.5,2-17.3,2-25.7,4.2c-27.4,7.3-45.2,36.2-72.8,42.7c-16.3,3.8-33.2-1-49.9-1.7c-17.8-0.8-100.7,24.8-105.6,7.5
				c23.4-12.4,54.1-12.2,79.7-18.2c43.5-10.3,82.6-32.8,119.8-56.8C721.8,512.9,762,504.7,804.7,505.7z"/>
		</g>
		<g>
		</g>
	</g>
	<g class="st0">
		<path class="st1" d="M907.9,42.8c-8-1.4-15.9-4.5-21.3-10.5S879.1,17,883,9.9s14.5-10,20.6-4.6c4,3.5,5.2,9.3,9.3,12.7
			c3.9,3.2,9.6,3.5,13.6,6.6c4.7,3.7,5.7,11.2,2.1,16c-3.2,4.3-9.2,5.9-14.5,5.2c-5.3-0.7-10.2-3.4-14.8-6.1"/>
	</g>
	<g class="st0">
		<path class="st1" d="M1079.7,51.2c0.4-6.1-6.4-9.9-12.1-12c-5.8-2.1-12.6-5.2-13.2-11.3c-0.2-2.4,0.7-4.9,2.1-6.9
			c5.8-8.8,19-10.9,28.2-5.7c9.2,5.1,14.4,15.9,14.8,26.5c0.2,5.6-1.3,12-6,14.9c-6.2,3.8-15.7-1.9-15.2-9.1"/>
	</g>
	<g class="st0">
		<path class="st1" d="M1084.7,159.1c0,1.1-0.2,2.2-0.4,3.3c-6.1,23-38.2-14.6-41.7-24.6c-7-19.5,28.5-25.1,31.4-7.9
			c0.6,3.6-0.3,7.5,1.1,10.9c1,2.5,3.2,4.3,4.9,6.4C1082.8,150.5,1084.7,154.8,1084.7,159.1z"/>
	</g>
	<g class="st0">
		<path class="st1" d="M1182.3,126.1c13.1-11.8,35.8-10.7,45.7,4.9c10.5,16.6,1,32.3-14.2,20c-5.3-4.3-12-6.9-18.9-7.5
			c-6.5-0.5-15-0.3-17-6.5C1176.6,133.1,1179.2,128.9,1182.3,126.1z"/>
	</g>
	<g class="st0">
		<path class="st1" d="M1266.2,238.3c-13.3,23.2-48.6,6.3-59.5-9.1c-1-1.4-1.9-2.9-1.8-4.6c0.1-1.8,1.3-3.4,2.5-4.7
			c4.8-5.5,11-11,18.3-10.5c7.6,0.5,13.3,7.4,20.6,9.8c7,2.3,16.3,0.8,20.4,7C1268.9,229.7,1268.3,234.6,1266.2,238.3z"/>
	</g>
	<g id="shells">
		<g id="shells2">
			<g id="XMLID_89_" class="st0">
				<g>
					<path class="st2" d="M526.6,1387.6c1,6.7,6.7,12.4,13.4,13.4c-7,3.2-8.3,12.7-2.8,17.7c-2.3,1-4.5,2.1-6.5,3.2
						c-5.2,2.9-10.3,6.2-16.1,7.7c-5.5,1.5-11.3,1.2-17,1c0.3-1,0.6-2,0.9-2.9l-0.6-1.4c-7.3-0.8-14.6-2.3-21.7-4.4
						c-4.9-1.5-13.9-3.7-10.1-10.8c2.8-5.2,10.1-3.7,10.8-10.3c0.2-1.7-0.4-6,1.3-7.1c0.9-0.6,5.8,0.9,7.5,0.7
						c5.8-0.5,11.4-4.1,13.7-9.6C507.3,1390.1,517.8,1391.1,526.6,1387.6z"/>
					<path class="st1" d="M497.6,1430.6c5.7,0.2,11.5,0.5,17-1c5.8-1.5,10.9-4.9,16.1-7.7c2-1.1,4.2-2.2,6.5-3.2
						c12.3-5.4,28.1-8.5,38.4,0.6c-9.2-0.5-18.7-0.3-27.1,3.4c-11.7,5-20.6,16.1-33,18.5c-6.8,1.3-13.7-0.2-20.5-0.7
						c-13.8-0.9-24.4,4.2-37.2,7.1c-0.6-14.2,24.3-16.9,34.1-17.1C493.6,1430.5,495.6,1430.5,497.6,1430.6z"/>
				</g>
				<g>
				</g>
			</g>
		</g>
		<g id="shells1" class="st0">
			<g>
				<path class="st1" d="M534.5,98.8l-0.6,0.5c-5.6-6.5-14.3-9.6-22.9-11c-9.1-1.5-18.4-1.3-27.5-3.2c-18-3.9-34.3-16.2-52.7-15.7
					c-25.2,0.6-45,24.8-70.1,26.1c-3.4,0.2-7.8-0.9-8.4-4.3c3.5-2.6,9.5-0.7,13.7-1.9c4.9-1.4,9-4.6,13.1-7.5
					c10.4-7.4,21.5-13.9,33.1-19.1c14.7-6.6,31.8-11.2,46.5-4.9c9.8,4.2,17.2,12.6,26.7,17.2c8.5,4.2,18.1,5.1,27.1,7.7
					C521.6,85.2,530.9,90.1,534.5,98.8z"/>
				<path class="st3" d="M495.1,124.6c0.5,2.3,0.9,5-0.8,6.6c-1.9,1.7-10.2,1.9-17,1.2c-0.5-6.5-5.6-12.9-11.8-14.9l-0.4-0.1
					c0.2-1.2,0.4-2.4,0.5-3.4c0.3-2.1,0.6-4.2,1.6-6c2.2-4.1,7.6-6,12.2-5c4.6,1,8.4,4.4,10.9,8.3C492.8,115.4,494,120,495.1,124.6z
					"/>
				<path class="st4" d="M465.5,117.5c6.2,2,11.3,8.3,11.8,14.9c-4.1-0.4-7.6-1.2-9.1-2.1c-4.4-2.8-3.9-8.2-3.1-12.8L465.5,117.5z"
					/>
				<path class="st5" d="M453.5,126.5c0,1-1,3-1,3l0,0.3c-1.4-0.1-2.8-0.9-3.3-2.3l-0.1-0.1c1.4-1,2.5-2.5,3.5-3.9
					C452.6,123.5,453.5,125.5,453.5,126.5z"/>
				<path class="st5" d="M457.6,123.8c0,2.2-1,4.6-2.9,5.6c-0.7,0.4-1.5,0.5-2.2,0.4l0-0.3c0,0,1-2,1-3s-0.9-3-0.9-3
					c-1,1.4-2.2,2.8-3.5,3.9c-1.3,1-2.9,1.6-4.5,1.4c-3.7-0.7-5-5.8-3.2-9.1c1.9-3.3,6.1-5.2,9.8-4.2
					C454.8,116.3,457.6,120,457.6,123.8z"/>
				<path class="st6" d="M432.2,104.2c1,1,1.6,2.7,0.6,3.6c-0.3,0.3-0.8,0.5-1.3,0.6c-2.7,0.8-7.3,3.4-10,4.2l-0.3-0.5
					c-1.4-2.9-0.4-6.7,2.2-8.6C426,101.6,429.9,101.9,432.2,104.2z"/>
				<path class="st7" d="M421.5,112.5c2.7-0.8,7.3-3.4,10-4.2c0.5-0.1,0.9-0.3,1.3-0.6c1-0.9,0.4-2.6-0.6-3.6
					c-2.3-2.3-6.2-2.6-8.8-0.7c-2.6,1.9-3.6,5.7-2.2,8.6L421.5,112.5z M426.5,115.5c-4.7,2.2-11-0.6-12.7-5.5
					c-1.7-5,0.7-10.9,5-13.9c4.3-3.1,10.1-3.6,15.2-2c2.9,0.9,5.7,2.7,6.8,5.4c0.9,2.4,0.3,5.3-1,7.5c-1.3,2.2-3.3,4-5.2,5.8
					c-1.1,1-2.1,1.9-3.5,2.5c-1.6,0.6-3,0.5-4.4,0L426.5,115.5z"/>
			</g>
			<g>
			</g>
		</g>
		<g id="shells3">
			<g id="XMLID_4_">
				<g>
					<path class="st1" d="M109.8,1826.6l-0.1-1.1c4.4-0.2,8.7-0.8,13-1.8c-2.4-3.2-4.3-6.6-5.5-10.3c-0.6-1.8-1.1-3.6-1.5-5.5
						c-0.1-0.6-0.2-1.3,0.2-1.8c0.3-0.4,1-0.6,1.5-0.8c2.7-0.8,5.5-1.6,8.2-2.3c0-0.1-0.1-0.1-0.1-0.2c14.2-2.6,29.7-2.7,43.6,0.8
						c-9,1.1-29.4-3.1-36.5,3.2c-10.1,8.9,12,23.2-3.8,30.2c-2.8,1.2-5.9,1.3-9,1.5c-7.3,0.3-14.7,0.5-22-0.6
						c-7.2-1.1-14.4-3.8-19.5-8.5C89.1,1830.2,99.2,1827.3,109.8,1826.6z"/>
					<path class="st8" d="M125.5,1802.8c0.1,0.1,0.1,0.1,0.1,0.2c-2.7,0.8-5.5,1.6-8.2,2.3c-0.6,0.2-1.2,0.4-1.5,0.8
						c-0.4,0.5-0.3,1.2-0.2,1.8c0.4,1.8,0.8,3.7,1.5,5.5l-1.3,0.4c-13.5,3.4-28.6,0.9-39.8-6.6l-0.5-0.6c8.5-6,19.2-9.4,30-10.1
						C113,1796.1,121.5,1797.3,125.5,1802.8z"/>
					<path class="st9" d="M117.2,1813.4c1.3,3.6,3.1,7.1,5.5,10.3c-4.3,1-8.6,1.5-13,1.8c-15.2,0.8-30.6-2.6-43.6-9.8
						c2.6-3.5,5.8-6.5,9.5-9.1l0.5,0.6c11.2,7.6,26.4,10.1,39.8,6.6L117.2,1813.4z"/>
				</g>
				<g>
				</g>
			</g>
		</g>
	</g>
	<g id="rocks">
		<g id="XMLID_3_" class="st10">
			<g>
				<path class="st11" d="M760.8,1080.4l2.4-1c29.5-1.4,59.1,1,88,7.1c30.8,6.5,62.1,17.4,93,11.4c9.9-1.9,19.6-5.6,29.7-5.7
					c14.1-0.2,27.6,6.3,41.7,6c10.2-0.3,19.9-4.1,29.3-7.9c14.3-5.8,28.5-11.5,42.8-17.3c1-0.4,2-0.8,2.9-1.5l1.9,0.2
					c4,9.6,8,19.1,12,28.7c0.6,1.5,1.3,3.2,0.8,4.8c-0.5,1.8-2.2,2.9-3.8,3.8c-21.4,12.5-44.4,24.2-69.2,25.4
					c-14.6-7.3-30.8-11.3-46.7-15.2c-5.7-1.4-11.5-2.8-17.3-1.9c-4.5,0.7-8.6,2.7-12.6,4.8c-11.9,6.2-23.3,13.5-33.8,21.8
					c-1.4,1.1-2.8,2.6-3.7,4.2l-1.2-0.8c-12.3-0.9-24.5-1.9-36.8-2.8c-3.8-0.3-7.6-0.6-11.3-0.9c-16.8-1.3-33.7-2.6-50.3-5.7
					c-14-2.7-27.8-6.7-42-8c-16-1.4-32.4,0.8-48-3.1c4.9-5.1,6.6-12.5,7.9-19.5c1.3-7,2.4-14.3,6.4-20.2
					C746.8,1081.4,754.5,1077.7,760.8,1080.4z"/>
				<path class="st12" d="M1091.4,1064.4c0.7,1.7,1.3,3.6,0.7,5.2c-0.3,0.8-0.9,1.4-1.5,1.8c-0.8,0.6-1.9,1.1-2.9,1.5
					c-14.3,5.8-28.5,11.5-42.8,17.3c-9.4,3.8-19.1,7.7-29.3,7.9c-14.1,0.4-27.6-6.2-41.7-6c-10.1,0.2-19.8,3.8-29.7,5.7
					c-30.9,6-62.2-4.8-93-11.4c-28.9-6.1-58.5-8.5-88-7.1c10.6-14.1,21.2-28.1,31.7-42.2l1.7,0.8c-1.4,4.1,4.7,7.5,9.4,8.3
					c53.2,8.4,106.9,13.4,160.8,14.9c8.4,0.2,16.9,0.4,24.9,2.8c9.8,2.9,18.4,9.1,28.5,10.8c17.6,2.9,29.4-10.4,45.1-15.1
					c5.5-1.7,15-0.1,18.3-5.6c1.4-2.4,1.6-4.1,0.9-5.4l0.6-0.2C1087.1,1053.7,1089.2,1059,1091.4,1064.4z"/>
				<path class="st13" d="M1084.4,1048.6c0.6,1.3,0.4,3.1-0.9,5.4c-3.2,5.5-12.8,3.9-18.3,5.6c-15.6,4.7-27.5,18.1-45.1,15.1
					c-10.1-1.7-18.8-7.9-28.5-10.8c-8-2.4-16.5-2.6-24.9-2.8c-53.8-1.5-107.6-6.4-160.8-14.9c-4.7-0.7-10.8-4.2-9.4-8.3
					c0.1-0.2,0.2-0.5,0.3-0.8c30.1-0.7,64.4-0.7,93.8-8.1c15.8-4,31.6-8.6,47.9-9.8c11.7-0.9,23.5-0.1,35.3,0.8
					c17.8,1.3,35.7,2.6,53.5,3.9c9.1,0.7,18.7,1.5,25.9,7.1c4.4,3.3,7.9,8.8,12.9,11.2C1070.7,1044.5,1082.2,1044,1084.4,1048.6z"/>
				<path class="st14" d="M918.2,1154.6C918.2,1154.5,918.2,1154.5,918.2,1154.6c-0.2-0.2-0.4-0.4-0.5-0.5l0,0
					c-1.3-1.6-0.8-3.9,0.4-6c0.9-1.6,2.3-3.1,3.7-4.2c10.6-8.3,21.9-15.6,33.8-21.8c4-2.1,8.2-4.1,12.6-4.8
					c5.8-0.9,11.6,0.5,17.3,1.9c15.9,3.9,32,7.9,46.7,15.2c1.7,0.8,3.4,1.7,5.1,2.7c3.6,2,7.5,5,7.4,9.1c-0.1,1.8-0.9,3.6-1.8,5.2
					c-4.4,8.4-10.1,17.8-19.5,19.4c-4.3,0.7-8.7-0.4-13-0.9c-20.2-2.6-40.9,6.6-60.9,2.6C937.6,1170,927.1,1163,918.2,1154.6z"/>
				<path class="st11" d="M748.4,1141.6c3.9,3.5,8.2,8.2,6.9,13.3c-1.5,5.8-9.1,7.3-15.1,7.5c-7.8,0.3-36.3,5.9-39.1-5.3
					c-2.9-11.7,15.4-10.9,21.8-13.6c5.7-2.4,10.8-7.9,17-7C743.1,1137,745.8,1139.3,748.4,1141.6z"/>
				<path class="st14" d="M711,1125c4,3.1,8.3,8.3,5.4,12.4c-1.2,1.7-3.3,2.4-5.2,3.1c-10.5,3.5-21.5,7-32.4,5.3
					c-6.7-1-13-4-19.8-4.2c-3.1-0.1-6.2,0.4-9.2-0.3c-3-0.7-5.9-3.1-5.9-6.2c0-3,2.7-5.1,5.2-6.8c14-9.8,31.1-19.2,47.4-14.5
					C701.3,1117.5,706.2,1121.2,711,1125z"/>
			</g>
			<g>
			</g>
		</g>
	</g>
	<g id="hermit_crab">
		<g id="hermit_outline">
			<g id="XMLID_86_">
				<g>
					<path class="st15" d="M650.5,177.7c-0.6,1.9,0.3,4,1.4,5.8c1.1,1.7,2.4,3.4,2.6,5.5c1.3,0.4,2.7,0.6,4.1,0.5
						c1,0,2.1-0.3,2.4-1.3c0.1-0.4,0-0.8,0-1.2c-0.7-3-3-5.5-5.3-7.6c-0.5-0.5-1-1-1.3-1.5c-0.7-1.3-0.6-2.9-0.4-4.4l-0.2-0.2
						C652.3,174.7,651.1,176.1,650.5,177.7z"/>
					<path class="st16" d="M654.5,188.9c-0.2-2-1.5-3.7-2.6-5.5c-1.1-1.7-2-3.8-1.4-5.8c0.5-1.6,1.8-3.1,3.2-4.4
						c1.7-1.6,3.6-3,4.9-4.3l0,0c-0.4,0.3-0.8,0.5-1.2,0.8c1.1-2.7,1.4-5.7,1.1-8.6l0.3-0.3c0,0,0,0-0.1-0.1
						c1.2-1.8,2.4-3.7,3.7-5.5l-0.2-0.1c-3.4-0.4-6.9,0.6-9.8,2.3c-3,1.7-5.5,4-8.1,6.3c-1.3,1.1-2.6,2.4-3.1,4
						c-0.7,1.9-0.1,4.1,0.5,6c0.8,2.8,1.6,5.7,3.2,8.2C647.1,185.4,650.6,188,654.5,188.9C654.5,189,654.5,189,654.5,188.9z"/>
					<path class="st15" d="M657.5,169.7c0.4-0.3,0.8-0.6,1.2-0.8c1.4-1,3-1.8,4.6-2.4l-0.1-0.4c-0.1,0-0.2,0.1-0.3,0.1l-0.2-0.8
						c-1-1.7-2.3-3.3-3.8-4.6l-0.3,0.3C658.9,164,658.6,167,657.5,169.7z"/>
					<path class="st16" d="M658.8,160.8C658.8,160.8,658.8,160.8,658.8,160.8c1.6,1.4,2.8,3,3.8,4.7c2-4,5.1-7.5,8.8-10
						c1.4-0.9,2.9-1.7,4.2-2.8c3.5-2.9,5.7-7.8,10-9.2l1,0.2c0.4-2.6,1-5.3,1.5-7.9l-0.4-0.1c-3.9,1.5-7.9,3-11.5,5.3
						c-5.7,3.6-10,8.9-13.9,14.4C661.2,157.1,660,158.9,658.8,160.8z"/>
					<path class="st15" d="M662.6,165.4l0.2,0.8c0.1,0,0.2-0.1,0.3-0.1c2.7-0.7,5.4-1.3,8.1-2c1.9-0.5,3.8-1,5.2-2.2
						c1.5-1.2,2.3-3.4,1.3-5.1c-0.4-0.6-1-1.2-1.2-1.9c-0.4-1.4,0.9-2.7,2.3-3.3c1.8-0.8,4-0.9,5.9-0.4l1,0c0.1-2.6,0.4-5.2,0.8-7.7
						l-1-0.2c-4.4,1.4-6.5,6.3-10,9.2c-1.3,1.1-2.8,1.9-4.2,2.8C667.7,157.9,664.6,161.4,662.6,165.4z"/>
					<path class="st17" d="M681.1,156.3c-0.9,1.9-1.1,4.3,0,6.1c0.5,0.9,1.3,1.6,2,2.2c1.5,1.3,3,2.7,4.5,4l0.7,0.3
						c0.2-0.2,0.4-0.4,0.6-0.6c-1.3-3.9-2.5-7.9-3-11.9c-0.2-1.7-0.2-3.4-0.2-5.2l-1,0C683.4,152.8,682,154.4,681.1,156.3z"/>
					<path class="st18" d="M684.8,174.4c-0.1,1.1,0.5,2.4,1.5,2.8c1.3-1.7,2.6-3.2,4.1-4.7c-0.1-0.2-0.2-0.5-0.2-0.7
						c-0.4-1.1-0.8-2.3-1.2-3.5c-0.2,0.2-0.4,0.4-0.6,0.6c-0.8,0.7-1.5,1.5-2.1,2.3C685.5,172.2,684.9,173.2,684.8,174.4z"/>
					<path class="st18" d="M689,168.4c0.4,1.2,0.8,2.3,1.2,3.5c0.1,0.2,0.2,0.5,0.2,0.7c2-2,4.1-3.8,6.4-5.3c0.5-0.3,1-0.7,1.5-0.9
						c-0.5-1-0.9-2.1-1.2-3.2c-0.3,0.2-0.6,0.4-0.9,0.6C693.8,165,691.2,166.5,689,168.4z"/>
					<path class="st19" d="M696.8,167.2c-2.3,1.6-4.4,3.4-6.4,5.3c0.4,1.1,0.8,2.2,1.5,3.2c0.7,1.1,1.7,2.1,2.6,3
						c2,2,4.2,3.9,6.4,5.6c-0.1-4.7-0.3-9.5-0.4-14.2c-0.8-1.2-1.5-2.4-2.1-3.6c0-0.1-0.1-0.2-0.1-0.3
						C697.8,166.5,697.3,166.8,696.8,167.2z"/>
					<path class="st20" d="M696.6,130c-1.7,8.8-2,17.9-0.7,26.7c0.3,2.1,0.7,4.3,1.3,6.3c0.6-0.4,1.2-0.8,1.7-1.4
						c0.6-0.8,0.9-1.7,1.3-2.6c1.1-3,2.1-6,3.2-9.1c0.1-0.3,0.2-0.5,0.1-0.8c-0.1-0.3-0.3-0.5-0.5-0.8c-2.2-2.4-1.8-6.5-0.4-9.6
						c0,0,0,0,0,0c0.1-1.1,0.4-2.1,0.9-3.1l0.7,0c-0.3-0.2-0.6-0.5-0.7-0.9l0,0c-1-0.7-2-1.8-2.7-2.9c-0.8-1.2-1.3-2.4-1.6-3.4
						c-0.3-1.4-0.4-2.8-0.2-4.2l-1.2-0.2C697.5,126.1,697,128.1,696.6,130z"/>
					<path class="st19" d="M697.4,122.1c-1.5,2.8-3.5,5.3-5.8,7.5c-0.4,0.4-0.8,0.8-1.2,1.2c-0.4,0.4-0.8,0.8-1,1.3
						c-0.6,1-0.9,2.2-1.1,3.4c0,0.1,0,0.1,0,0.2c-0.6,2.6-1.1,5.2-1.5,7.9c-0.4,2.6-0.7,5.1-0.8,7.7c-0.1,1.7,0,3.4,0.2,5.2
						c0.4,4.1,1.6,8,3,11.9c2.2-1.9,4.8-3.3,7.3-4.8c0.3-0.2,0.6-0.4,0.9-0.6c-0.6-2.1-1-4.2-1.3-6.3c-1.2-8.9-1-17.9,0.7-26.7
						c0.4-1.9,0.8-3.9,1.1-5.8c0.1-0.7,0.1-1.3,0.2-2l-0.1-0.2L697.4,122.1z"/>
					<path class="st18" d="M697.2,163c0.3,1.1,0.7,2.2,1.2,3.2c0.4-0.2,0.8-0.4,1.3-0.5c0.2,0,0.5-0.1,0.7,0.1
						c0.1,0.1,0.2,0.4,0.2,0.6c0,1.3,0.1,2.5,0.1,3.8c0.5,0.8,1.1,1.7,1.7,2.5c0.9,1.3,1.9,2.7,2.8,4c-0.2-4.6-0.4-9.2-0.7-13.8
						c0-0.6,0-1.2,0.5-1.5c0.2-0.1,0.4-0.1,0.6-0.1c2,0.2,3.8,1.6,5,3.3c1.2,1.7,1.9,3.6,2.7,5.5c3.1,7.7,7.3,15,12.3,21.6
						c0.1,0,0.2,0,0.3,0c-2.7-6.1-5-12.5-6.7-19c-0.5-2-1.1-4.1-1.8-6.1c0,0-0.1-0.1-0.1-0.2c-0.8-1.2-1.7-2.4-2.3-3.8
						c-0.2-0.5-0.4-1-0.6-1.6c-0.1-0.2-0.3-0.3-0.4-0.5c-2.1-2.2-5.1-3.6-8.1-3.8c1-2.8,1.7-5.8,2-8.7l0-0.1
						c-2.1-0.9-3.8-2.6-4.7-4.6c-0.7-1.5-0.9-3.1-0.7-4.7c-1.4,3.1-1.9,7.2,0.4,9.6c0.2,0.2,0.4,0.4,0.5,0.8c0.1,0.3,0,0.5-0.1,0.8
						c-1.1,3-2.1,6-3.2,9.1c-0.3,0.9-0.6,1.9-1.3,2.6C698.4,162.2,697.8,162.6,697.2,163z"/>
					<path class="st21" d="M700,120.9c-0.6,1-1,2.2-1.2,3.4c-0.2,1.4-0.2,2.8,0.2,4.2c0.2,1,0.8,2.2,1.6,3.4l0.3-0.3
						c0.6,0,1.2-0.4,1.5-0.8c0.4-0.6,0.6-1.2,0.6-1.9c0.3-2.8-0.6-5.8-2.6-7.9l-0.3-0.2C700.1,120.8,700.1,120.8,700,120.9z"/>
					<path class="st18" d="M700.6,170.2c0.1,4.7,0.3,9.5,0.4,14.2c1.5,1.1,3,2.1,4.7,3c-0.2-3.6-0.3-7.2-0.5-10.7
						c-1-1.3-1.9-2.7-2.8-4C701.7,171.9,701.1,171,700.6,170.2z"/>
					<path class="st22" d="M700.9,131.6l-0.3,0.3c0.7,1.1,1.7,2.2,2.7,2.9c0.8,0.6,1.7,0.9,2.6,0.9c2.8-0.1,2.9-3.9,3.1-5.9
						c0.1-2.3-0.5-4.7-1.9-6.5c-1.4-1.8-3.6-3-5.9-3c-0.2,0-0.5,0-0.7,0.1c-0.1,0.1-0.3,0.2-0.3,0.3l0.3,0.2c2,2.1,2.9,5.1,2.6,7.9
						c-0.1,0.7-0.2,1.4-0.6,1.9C702.1,131.2,701.5,131.6,700.9,131.6z"/>
					<path class="st18" d="M701,184.5c0,0.7,0,1.5-0.4,2c-0.3,0.4-0.8,0.6-1.2,0.7c-2.7,1.2-5.4,2.3-8.1,3.5
						c4.2,0.7,8.4,0.8,12.6,0.3c0.6-0.1,1.2-0.2,1.5-0.6c0.3-0.4,0.3-1,0.3-1.5c0-0.5,0-1-0.1-1.5C704,186.5,702.5,185.5,701,184.5
						C701,184.4,701,184.4,701,184.5z"/>
					<path class="st20" d="M705,161.4c-0.5,0.2-0.6,0.9-0.5,1.5c0.2,4.6,0.4,9.2,0.7,13.8c4.2,5.7,8.9,11,15.3,13.7
						c1.6,0.7,3.4,1.2,5.2,1.3c-5-6.6-9.2-13.9-12.3-21.6c-0.8-1.9-1.5-3.9-2.7-5.5c-1.2-1.7-3-3.1-5-3.3
						C705.4,161.3,705.2,161.3,705,161.4z"/>
					<path class="st19" d="M705.1,176.7c0.2,3.6,0.3,7.2,0.5,10.7c0.8,0.4,1.6,0.8,2.4,1.2c3.1,1.4,6.5,2.2,9.8,3.1
						c2.8,0.7,5.6,1.4,8.5,1.4l0-0.4c-0.2-0.3-0.5-0.6-0.7-0.9c-1.8-0.1-3.6-0.6-5.2-1.3C714,187.7,709.3,182.4,705.1,176.7z"/>
					<path class="st19" d="M710.5,129.8c-0.4-3.3,0.3-6.8,2-9.6c0.2-0.3,0.4-0.7,0.8-0.8c0.6-0.2,1.2,0.2,1.6,0.7
						c0.1,0.1,0.2,0.3,0.3,0.4c0.8,0.9,1.3,2,1.7,3.2c0.8,2.1,1.3,4.3,1.2,6.6c-0.2,2.9-3.7,9.4-6.2,4.3
						C711.1,132.9,710.7,131.4,710.5,129.8z M725.8,132.9c0.3,0,0.6-0.1,1-0.1c5.1-0.9,8.1-6.4,7.8-11.2l0.1-0.2
						c-0.4-0.3-0.7-0.7-1-1c0,0-0.1-0.1-0.1-0.1c-1.4-1-2.7-2.2-4.4-2.5c-0.9-0.2-1.8-0.1-2.6-0.4c-0.7-0.3-1.3-0.9-1.8-1.3
						c-0.5-0.4-1.1-0.8-1.6-1.2c-4.6-2.1-9.3-1.5-14.4-0.2c-3.2,0.8-5.6,1.3-8.3,3.5c-1.1,0.9-2.2,1.9-2.6,3.2
						c0,0.2-0.1,0.4-0.1,0.6l0.1,0.2c0,0.7-0.1,1.3-0.2,2l1.2,0.2c0.2-1.2,0.6-2.3,1.2-3.4c0-0.1,0.1-0.2,0.2-0.3
						c0.1-0.1,0.2-0.3,0.3-0.3c0.2-0.1,0.5-0.1,0.7-0.1c2.3,0,4.5,1.2,5.9,3c1.4,1.8,2,4.2,1.9,6.5c-0.1,2-0.2,5.8-3.1,5.9
						c-0.9,0-1.8-0.3-2.6-0.9l0,0c0.2,0.4,0.4,0.6,0.7,0.9c0.3,0.2,0.7,0.4,1,0.6c2,1,4,1.9,6.1,2.3c2.1,0.4,4.4,0.3,6.4-0.8
						c2.3-1.2,4-3.6,6.5-4.1c0.5-0.3,1.1-0.5,1.8-0.6L725.8,132.9z"/>
					<path class="st20" d="M707.8,148.2c-0.3,3-0.9,5.9-2,8.7c3.1,0.2,6,1.6,8.1,3.8c0.1,0.2,0.3,0.3,0.4,0.5
						c-0.3-0.8-0.5-1.7-0.7-2.5c-0.8-2.9-1.8-5.8-2.8-8.7c-0.1-0.3-0.2-0.7-0.5-1c-0.3-0.3-0.8-0.4-1.3-0.5
						c-0.4-0.1-0.9-0.3-1.3-0.4L707.8,148.2z"/>
					<path class="st21" d="M712.5,120.1c-1.7,2.8-2.4,6.3-2,9.6c1.2,0.9,1.9,1.9,3.4,1.1c1.2-0.6,1.6-2.2,1.8-3.4
						c0.3-2.2,0-4.8-0.9-6.8l0.4-0.3c-0.1-0.1-0.2-0.3-0.3-0.4c-0.4-0.4-1-0.9-1.6-0.7C712.9,119.5,712.7,119.8,712.5,120.1z"/>
					<path class="st18" d="M714.4,161.2c0.2,0.5,0.4,1.1,0.6,1.6c0.6,1.3,1.5,2.6,2.3,3.8c0,0,0.1,0.1,0.1,0.2
						C716.7,164.7,715.7,162.8,714.4,161.2z"/>
					<path class="st22" d="M714.8,120.7c0.9,2,1.2,4.7,0.9,6.8c-0.2,1.2-0.6,2.8-1.8,3.4c-1.5,0.8-2.2-0.2-3.4-1.1
						c0.2,1.6,0.7,3.2,1.4,4.6c2.6,5.2,6.1-1.3,6.2-4.3c0.1-2.2-0.4-4.5-1.2-6.6c-0.4-1.1-0.9-2.2-1.7-3.2L714.8,120.7z"/>
					<path class="st23" d="M723.1,114.9c-4-2.3-9.3-2.3-14-2c-2.7,0.2-5.5,0.4-7.9,1.7c-2.4,1.3-4.2,4.1-3.5,6.7l0.2,0
						c0.3-1.3,1.5-2.3,2.6-3.2c2.7-2.1,5.1-2.7,8.3-3.5C713.8,113.5,718.6,112.8,723.1,114.9z"/>
					<path class="st18" d="M717.4,166.7c0.7,2,1.2,4,1.8,6.1c1.8,6.5,4,12.8,6.7,19c1.9,0.1,3.8-0.2,5.5-1
						C727.4,182.4,722.7,174.3,717.4,166.7z"/>
					<path class="st19" d="M724.1,133.7c-0.3,0.2-0.7,0.4-0.9,0.8c-0.4,0.4-0.6,0.9-0.9,1.4c-1.2,2.4-2.3,4.9-2.9,7.6
						c-0.5,2.7-0.4,5.5,0.7,8c0.2,0.6,0.7,1.2,1.3,1.2l0-0.2c1.3-1.2,3.1-1.6,4.8-1.5c1.7,0.1,3.4,0.6,5.1,1.2
						c1.1,0.4,2.3,0.9,2.9,1.8l0.3-0.2c-2.9-5-4.9-10.5-5.7-16.2c-0.2-1.3-0.3-2.7,0.1-3.9l-0.5-0.4c-0.8-0.1-1.7-0.2-2.6-0.1
						C725.2,133.2,724.6,133.4,724.1,133.7z"/>
					<path class="st18" d="M731.6,190.5c-0.8-1.6-1-3.5-1.4-5.3c-1.8-8.2-7.2-15.5-7.5-23.9c-0.1-2.9,0.4-6-0.7-8.7l-0.4,0.1
						c-0.1,0-0.1,0-0.2,0c-0.6,0-1.1-0.6-1.3-1.2c-1.1-2.5-1.2-5.3-0.7-8c0.5-2.7,1.6-5.2,2.9-7.6c0.3-0.5,0.5-1,0.9-1.4
						c0.3-0.3,0.6-0.6,0.9-0.8c-2.5,0.5-4.2,2.9-6.5,4.1c-1.9,1-4.2,1.2-6.4,0.8c-2.1-0.4-4.2-1.3-6.1-2.3c-0.4-0.2-0.7-0.4-1-0.6
						l-0.7,0c-0.5,1-0.8,2-0.9,3.1c0,0,0,0,0,0c-0.2,1.6,0,3.2,0.7,4.7c0.9,2.1,2.6,3.7,4.7,4.6c0.4,0.2,0.8,0.3,1.3,0.4
						c0.4,0.1,0.9,0.2,1.3,0.5c0.3,0.3,0.4,0.6,0.5,1c1,2.9,2,5.8,2.8,8.7c0.2,0.8,0.4,1.7,0.7,2.5c1.4,1.6,2.3,3.5,3,5.5
						c5.3,7.6,10,15.7,14,24c0.1,0,0.1-0.1,0.2-0.1C731.6,190.6,731.6,190.5,731.6,190.5z"/>
					<path class="st19" d="M726.3,193.1c0.7,0,1.4-0.1,2.1-0.2c1.3-0.2,2.9-1,3.2-2.2c-0.1,0-0.1,0.1-0.2,0.1
						c-1.7,0.8-3.6,1.1-5.5,1c0.1,0.3,0.3,0.6,0.4,0.9L726.3,193.1z"/>
					<path class="st23" d="M741.7,140.4c0.1-0.2,0.1-0.4,0.2-0.6c1.7-5.5-0.1-9.6-3.5-14c-0.6-0.8-1.3-1.7-1.9-2.5
						c-0.5-0.6-1.1-1.2-1.8-1.8l-0.1,0.2c0.3,4.8-2.7,10.3-7.8,11.2c-0.3,0.1-0.6,0.1-1,0.1l0,0.2c0.8-0.1,1.7-0.1,2.6,0.1l0.5,0.4
						C733.9,133.9,738.3,136.7,741.7,140.4L741.7,140.4z"/>
					<path class="st19" d="M736.5,193.6c1-7.3,0.9-14.9-0.4-22.2c-0.8-4.9-2.2-10.1-0.4-14.8l0.4-0.3c-0.6-0.9-1.2-1.8-1.7-2.7
						l-0.3,0.2c-0.6-0.9-1.8-1.4-2.9-1.8c-1.6-0.5-3.3-1.1-5.1-1.2c-1.7-0.1-3.6,0.3-4.8,1.5l0,0.2c0.1,0,0.1,0,0.2,0l0.4-0.1
						c1.2,2.7,0.6,5.7,0.7,8.7c0.3,8.4,5.7,15.7,7.5,23.9c0.4,1.8,0.7,3.7,1.4,5.3c0,0.1,0,0.1,0.1,0.2c0.1,0.3,0.3,0.5,0.4,0.8
						c0.9,1.5,2.7,2.5,4.4,2.4L736.5,193.6z"/>
					<path class="st23" d="M734.7,121.4c0.6,0.6,1.3,1.2,1.8,1.8c0.6,0.8,1.3,1.7,1.9,2.5c3.4,4.4,5.2,8.5,3.5,14l0.2,0
						c1.3-0.8,2.5-1.9,3.5-3c1.4-1.6,2.6-3.4,3.4-5.4c-2.2-1-4.2-2.6-5.6-4.6c-0.4-0.6-0.8-1.3-1.3-2c-0.7-1.1-1.6-2-2.8-2.4
						c-0.7-0.2-1.5-0.2-2.2-0.3c-1.3-0.3-2.5-1-3.6-1.9c0,0,0.1,0.1,0.1,0.1C734,120.8,734.4,121.1,734.7,121.4z"/>
					<path class="st20" d="M739.1,161.9c-0.2-0.5-0.3-1-0.4-1.6l0.3-0.2c-1-1.2-2-2.4-2.8-3.7l-0.4,0.3c-1.8,4.7-0.5,9.9,0.4,14.8
						c1.2,7.3,1.4,14.8,0.4,22.2l0,0.2c0.4,0,0.9-0.2,1.3-0.4c1.7-1,2.3-3.4,4.1-4.1c1-0.4,2.3-0.2,3.1-0.9c0.7-0.6,0.7-1.7,0.8-2.6
						c0-0.8,0-1.6,0-2.4c0-3.3,0.1-6.6,0.1-9.9c0-0.7,0-1.3,0-2c0-0.9,0-1.8-0.3-2.6c-0.7-1.9-3-2.7-4.5-4.1
						C740.2,164,739.5,163,739.1,161.9z"/>
					<path class="st20" d="M739,160.1l-0.3,0.2c0.1,0.5,0.2,1,0.4,1.6c0.5-0.5,1.1-0.7,1.7-0.8c1.5-0.2,3.3,0.3,4.8-0.2
						c1.6-0.5,2.6-2.1,2.9-3.8c0.3-1.6-0.1-3.3-0.6-4.9c-0.7-2.3-1.6-4.5-2.7-6.5c-1-1.8-2.2-3.6-3.6-5.2c-3.3-3.8-7.7-6.6-12.7-6.9
						c-0.4,1.2-0.3,2.6-0.1,3.9c0.8,5.7,2.7,11.3,5.7,16.2c0.5,0.9,1.1,1.8,1.7,2.7C737,157.7,738,158.9,739,160.1z"/>
					<path class="st24" d="M739.4,122.5c1.2,0.4,2,1.3,2.8,2.4l0.5-0.4c2.3-3.2,2.6-7.4,2.9-11.3c0.5-6.4,1.4-12.8,3.6-18.9
						c2.2-6,5.9-11.6,11.2-15.2l1.1-0.1c-4.7-2-10.5-1.4-15.7-0.6c-6.3,0.9-12.6,1.8-18.9,2.7c-3.2,0.5-6.3,0.9-9.3,2.1
						c-4.4,1.8-7.9,5.1-11.1,8.6c-5.3,5.7-10.1,12-14.1,18.6c-1.9,3.1-3.7,6.4-4.4,9.9c-0.7,3.6-0.3,7.5,1.9,10.4l0.5,0.1
						c0.4-0.4,0.8-0.8,1.2-1.2c2.3-2.2,4.3-4.7,5.8-7.5l0.4-0.2c0-0.2,0-0.4,0.1-0.6l-0.2,0c-0.7-2.6,1.1-5.4,3.5-6.7
						c2.4-1.3,5.2-1.6,7.9-1.7c4.8-0.3,10-0.4,14,2c0.6,0.3,1.1,0.7,1.6,1.2c0.6,0.5,1.1,1.1,1.8,1.3c0.8,0.3,1.7,0.3,2.6,0.4
						c1.7,0.3,3,1.4,4.4,2.5c1.1,0.8,2.2,1.6,3.6,1.9C737.9,122.3,738.7,122.3,739.4,122.5z"/>
					<path class="st25" d="M741.9,139.8c-0.1,0.2-0.1,0.4-0.2,0.6l-0.1,0.1c1.4,1.6,2.6,3.3,3.6,5.2c1.1,2.1,2,4.3,2.7,6.5
						c0.5,1.6,0.8,3.3,0.6,4.9c-0.3,1.6-1.3,3.2-2.9,3.8c-1.5,0.5-3.3,0-4.8,0.2l0.1,0.4c5.1,4.6,10.5,8.9,16,13
						c4,2.9,8,5.7,12.2,8.3c3,1.8,5.9,3.6,9,5.3c2.4,1.3,4.9,2.6,7.7,2.7c6.3,0.2,11.1-5.9,17.3-6.9l0.3-0.7
						c-7.4-2.9-14.7-6.2-21.9-9.5c-0.6-0.3-1.1-0.5-1.5-1c-0.5-0.6-0.5-1.4-0.6-2.2c-0.1-1.2-0.1-2.4-0.2-3.5l-0.4,0
						c-1.3,1-2.7,2-4,3c-0.5,0.4-1.1,0.8-1.7,0.8c-0.7,0-1.3-0.5-1.8-0.9c-2-1.7-4-3.4-6-5.2c-4.4-3.7-8.7-7.5-12.3-12
						c-3.6-4.5-6.4-9.8-7.1-15.5l-0.3-0.3c-1,1.1-2.2,2.2-3.5,3L741.9,139.8z"/>
					<path class="st26" d="M749.1,131.3c6.5,3.9,10.5,11.2,16.5,16l0.3-0.3c0.4,0.1,0.9,0.3,1.3,0.5l0.1-0.3c2.5-5.1,1.9-11,2-16.7
						c0.2-13,5-26.3,14.8-34.8l1-0.6c-1.3-0.4-2.6-1-3.8-1.5c-4.2-1.8-8.5-3.7-11.7-7c-1.6-1.7-2.8-3.8-4.6-5.3
						c-1-0.9-2.2-1.6-3.4-2.1l-1.1,0.1c-5.3,3.6-9,9.2-11.2,15.2c-2.2,6-3.1,12.5-3.6,18.9c-0.3,3.9-0.6,8.1-2.9,11.3l-0.5,0.4
						c0.4,0.6,0.8,1.3,1.3,2c1.4,2,3.3,3.6,5.6,4.6L749.1,131.3z"/>
					<path class="st27" d="M745.9,173.5c0,3.3-0.1,6.6-0.1,9.9h0.1c7.7-0.2,15.6,1.7,23-0.3l0.2-0.3c-4.2-2.6-8.2-5.4-12.2-8.3
						l-0.2,0.2C753.1,174.1,749.5,173.7,745.9,173.5z"/>
					<path class="st28" d="M749,131.5c-0.8,2-1.9,3.8-3.4,5.4l0.3,0.3c0.7,5.7,3.5,11,7.1,15.5c3.6,4.5,8,8.3,12.3,12
						c2,1.7,4,3.4,6,5.2c0.5,0.4,1.1,0.9,1.8,0.9c0.6,0,1.2-0.4,1.7-0.8c1.3-1,2.7-2,4-3l0.4,0c-0.1-1.4-0.1-2.7-0.2-4.1
						c0-1-0.1-2,0.5-2.8c0.4-0.6,1-0.8,1.6-0.9l-1.1-0.3c-2.1-5.3-8.4-7.3-13.1-10.5c-0.4-0.3-0.9-0.6-1.3-1
						c-6-4.8-9.9-12.1-16.5-16L749,131.5z"/>
					<path class="st29" d="M766.9,148.2c4.7,3.3,11,5.2,13.1,10.5l1.1,0.3c1.1-0.2,2.3,0.1,3.4,0.5c8.5,2.9,16.8,5.9,25.1,9.2
						c1.3,0.5,2.7,1.1,3.7,2.1c0.5,0.5,0.9,1.1,1.1,1.8l0.4-0.1c3.6-3.7,3.8-9.5,5.2-14.6l-1-0.3c-3.1-4.5-5.3-9.4-6.9-14.6
						c-1.8,4.3-2.8,8.4-6,12.1c-2.1,2.4-4.9,4.4-8,4.8c-2.1,0.2-4.2-0.2-6.2-0.8c-8.7-2.7-16.1-8.5-24.7-11.6
						c-0.4-0.2-0.9-0.3-1.3-0.5l-0.3,0.3C766,147.6,766.4,147.9,766.9,148.2z"/>
					<path class="st30" d="M767.3,147.1l-0.1,0.3c8.5,3.1,16,9,24.7,11.6c2,0.6,4.1,1.1,6.2,0.8c3.2-0.4,6-2.3,8-4.8
						c3.2-3.7,4.2-7.8,6-12.1c-1.2-3.9-2.1-7.9-2.8-11.8c-1.6-9.3-2.1-18.8-3.4-28.2c-0.2-1.7-0.5-3.5-1.4-4.9l0.1-0.3
						c-3.8-1-7.7-1.7-11.7-1.9c-1.8-0.1-3.6-0.1-5.4-0.4c-0.8-0.1-1.6-0.4-2.4-0.6l-1,0.6c-9.8,8.5-14.5,21.9-14.8,34.8
						C769.2,136.1,769.8,142,767.3,147.1z"/>
					<path class="st31" d="M814.4,174.5c0.2-0.6,0.2-1.3,0-2c-0.2-0.7-0.6-1.3-1.1-1.8c-1-1-2.4-1.6-3.7-2.1
						c-8.3-3.3-16.7-6.3-25.1-9.2c-1-0.4-2.3-0.7-3.4-0.5c-0.6,0.1-1.2,0.4-1.6,0.9c-0.6,0.8-0.5,1.8-0.5,2.8
						c0.1,1.4,0.1,2.7,0.2,4.1c0.1,1.2,0.1,2.4,0.2,3.5c0,0.8,0.1,1.6,0.6,2.2c0.4,0.5,0.9,0.8,1.5,1c7.2,3.3,14.5,6.7,21.9,9.5
						c0.9,0.3,1.8,0.7,2.6,1c1.9,0.7,4.6,1.1,5.7-0.5c-0.2-1-0.2-2.2,0.1-3.2c0.7-2.7,1.9-4.7,3.6-5.7L814.4,174.5z"/>
					<path class="st32" d="M804.5,97.8l-0.1,0.3c0.9,1.4,1.2,3.2,1.4,4.9c1.3,9.4,1.8,18.9,3.4,28.2c0.7,4,1.6,8,2.8,11.8
						c0.2-0.4,0.4-0.8,0.5-1.3c1.9-4.3,4.6-8.2,8.1-11.3c5.8-5,13.5-7.4,19.4-12.3l0.7-1C829.5,109.4,817.5,101.4,804.5,97.8z"/>
					<path class="st33" d="M811.7,183.7c0.2,0.9,0.6,1.7,1.3,2.4c1.1,1,2.6,1.5,4,1.8c5.7,1.5,11.3,2.9,17.1,3.8
						c1.6,0.3,3.8,0.1,4.3-1.4c0.2-0.5,0-1.1-0.1-1.7c-1.4-4.4-6.1-6.6-9.9-9.3c-2.2-1.5-4.2-3.3-6.6-4.3c-2.6-1.2-4.8-1.2-6.4-0.2
						c-1.7,1-2.9,2.9-3.6,5.7C811.5,181.5,811.4,182.6,811.7,183.7z"/>
					<path class="st34" d="M812.6,141.7c-0.2,0.4-0.4,0.8-0.5,1.3c1.6,5.2,3.9,10.1,6.9,14.6l1,0.3c0.7-2.8,1.8-5.4,4.1-7.3
						c1.9-1.6,4.4-2.3,6.3-3.9c1.3-1.1,2.2-2.6,3-4c2.8-4.6,5.5-9.1,8.3-13.7c1.6-2.7,4.2-5.8,2.2-9c-0.7-1.1-1.7-1.8-2.8-2.5
						c-0.1-0.1-0.2-0.2-0.4-0.2l-0.7,1c-5.9,4.9-13.6,7.3-19.4,12.3C817.2,133.5,814.5,137.5,812.6,141.7z"/>
				</g>
				<g>
				</g>
			</g>
		</g>
	</g>
</g>
</svg>
