<?xml version="1.0" encoding="utf-8"?>
<!-- Generator: Adobe Illustrator 22.1.0, SVG Export Plug-In . SVG Version: 6.00 Build 0)  -->
<svg version="1.1" xmlns="http://www.w3.org/2000/svg" xmlns:xlink="http://www.w3.org/1999/xlink" x="0px" y="0px"
	 viewBox="0 0 1366 1859" style="enable-background:new 0 0 1366 1859;" xml:space="preserve">
<style type="text/css">
	.st0{opacity:0.5;}
	.st1{fill:#D3AD57;}
	.st2{fill:#F2B844;}
	.st3{opacity:0.75;}
	.st4{fill:#F2BDBD;}
	.st5{fill:#CFE5C3;}
	.st6{fill:#ADD2DB;}
	.st7{fill:#F9C170;}
	.st8{fill:#FFCC66;}
	.st9{fill:#DDB79B;}
	.st10{fill:#BFA594;}
	.st11{opacity:0.3;}
	.st12{fill:#6D6D6D;}
	.st13{fill:#BC7B50;}
	.st14{fill:#D3926E;}
	.st15{fill:#595959;}
</style>
<g id="Layer_1">
</g>
<g id="_x34__FAQ">
	<g id="XMLID_291_" class="st0">
		<g>
			<path class="st1" d="M837.7,502.7c24.8-3,50.3-2.2,75.3-2.3c-25.6,4.9-47.2,11.9-70.4,22.7c-21.7,10.1-45.8,26.9-69,32.3
				c-8.5,2-17.3,2-25.7,4.2c-27.4,7.3-45.2,36.2-72.8,42.7c-16.3,3.8-33.2-1-49.9-1.7c-17.8-0.8-100.7,24.8-105.6,7.5
				c23.4-12.4,54.1-12.2,79.7-18.2c43.5-10.3,82.6-32.8,119.8-56.8C754.8,509.9,795,501.7,837.7,502.7z"/>
		</g>
		<g>
		</g>
	</g>
	<g class="st0">
		<path class="st1" d="M940.9,39.8c-8-1.4-15.9-4.5-21.3-10.5S912.1,14,916,6.9s14.5-10,20.6-4.6c4,3.5,5.2,9.3,9.3,12.7
			c3.9,3.2,9.6,3.5,13.6,6.6c4.7,3.7,5.7,11.2,2.1,16c-3.2,4.3-9.2,5.9-14.5,5.2c-5.3-0.7-10.2-3.4-14.8-6.1"/>
	</g>
	<g class="st0">
		<path class="st1" d="M1088.7,53.2c0.4-6.1-6.4-9.9-12.1-12c-5.8-2.1-12.6-5.2-13.2-11.3c-0.2-2.4,0.7-4.9,2.1-6.9
			c5.8-8.8,19-10.9,28.2-5.7c9.2,5.1,14.4,15.9,14.8,26.5c0.2,5.6-1.3,12-6,14.9c-6.2,3.8-15.7-1.9-15.2-9.1"/>
	</g>
	<g class="st0">
		<path class="st1" d="M1094.7,154.1c0,1.1-0.2,2.2-0.4,3.3c-6.1,23-38.2-14.6-41.7-24.6c-7-19.5,28.5-25.1,31.4-7.9
			c0.6,3.6-0.3,7.5,1.1,10.9c1,2.5,3.2,4.3,4.9,6.4C1092.8,145.5,1094.7,149.8,1094.7,154.1z"/>
	</g>
	<g class="st0">
		<path class="st1" d="M1160.3,96.1c13.1-11.8,35.8-10.7,45.7,4.9c10.5,16.6,1,32.3-14.2,20c-5.3-4.3-12-6.9-18.9-7.5
			c-6.5-0.5-15-0.3-17-6.5C1154.6,103.1,1157.2,98.9,1160.3,96.1z"/>
	</g>
	<g class="st0">
		<path class="st1" d="M1267.2,215.3c-13.3,23.2-48.6,6.3-59.5-9.1c-1-1.4-1.9-2.9-1.8-4.6c0.1-1.8,1.3-3.4,2.5-4.7
			c4.8-5.5,11-11,18.3-10.5c7.6,0.5,13.3,7.4,20.6,9.8c7,2.3,16.3,0.8,20.4,7C1269.9,206.7,1269.3,211.6,1267.2,215.3z"/>
	</g>
	<g id="shells_1_">
		<g id="shells2_1_">
			<g id="XMLID_25_" class="st0">
				<g>
					<path class="st1" d="M530.6,1427.6c5.7,0.2,11.5,0.5,17-1c5.8-1.5,10.9-4.9,16.1-7.7c2-1.1,4.2-2.2,6.5-3.2
						c12.3-5.4,28.1-8.5,38.4,0.6c-9.2-0.5-18.7-0.3-27.1,3.4c-11.7,5-20.5,16.1-33,18.5c-6.8,1.3-13.7-0.2-20.5-0.7
						c-13.8-0.9-24.4,4.2-37.2,7.1c-0.6-14.2,24.3-16.9,34.1-17.1C526.7,1427.5,528.6,1427.5,530.6,1427.6z"/>
					<path class="st2" d="M559.6,1384.6c1,6.7,6.7,12.4,13.4,13.4c-7,3.2-8.3,12.7-2.8,17.7c-2.3,1-4.5,2.1-6.5,3.2
						c-5.2,2.9-10.3,6.2-16.1,7.7c-5.5,1.5-11.3,1.2-17,1c0.3-1,0.6-2,0.9-2.9l-0.6-1.4c-7.3-0.8-14.6-2.3-21.7-4.4
						c-4.9-1.5-13.9-3.7-10.1-10.8c2.8-5.2,10.1-3.7,10.8-10.3c0.2-1.7-0.4-6,1.3-7.1c0.9-0.6,5.8,0.9,7.5,0.7
						c5.8-0.5,11.4-4.1,13.7-9.5C540.3,1387.1,550.8,1388.1,559.6,1384.6z"/>
				</g>
				<g>
				</g>
			</g>
		</g>
		<g id="shells1_2_" class="st3">
			<g>
				<path class="st1" d="M567.5,95.8l-0.6,0.5c-5.6-6.5-14.3-9.6-22.9-11c-9.1-1.5-18.4-1.3-27.4-3.2c-18-3.9-34.3-16.2-52.7-15.7
					c-25.2,0.6-45,24.8-70.1,26.1c-3.4,0.2-7.8-0.9-8.4-4.3c3.5-2.6,9.5-0.7,13.7-1.9c4.9-1.4,9-4.6,13.1-7.5
					c10.4-7.4,21.5-13.9,33.1-19.1c14.7-6.6,31.8-11.2,46.5-4.9c9.8,4.2,17.2,12.6,26.7,17.2c8.5,4.2,18,5.1,27.1,7.7
					C554.6,82.2,563.9,87.1,567.5,95.8z"/>
				<path class="st4" d="M528.1,121.6c0.5,2.3,0.9,5-0.8,6.6c-1.9,1.7-10.2,1.9-17,1.2c-0.5-6.5-5.6-12.9-11.8-14.9l-0.4-0.1
					c0.2-1.2,0.4-2.4,0.5-3.4c0.3-2.1,0.6-4.2,1.6-6c2.2-4.1,7.6-6,12.2-5c4.6,1,8.4,4.4,10.9,8.3C525.8,112.4,527,117,528.1,121.6z
					"/>
				<path class="st5" d="M498.5,114.5c6.2,2,11.3,8.3,11.8,14.9c-4.1-0.4-7.6-1.2-9.1-2.1c-4.4-2.8-3.9-8.2-3.1-12.8L498.5,114.5z"
					/>
				<path class="st6" d="M490.6,120.8c0,2.2-1,4.6-2.9,5.6c-0.7,0.4-1.5,0.5-2.2,0.4l0-0.3c0,0,1-2,1-3s-0.9-3-0.9-3
					c-1,1.4-2.2,2.8-3.5,3.9c-1.3,1-2.9,1.7-4.5,1.4c-3.7-0.7-5-5.8-3.2-9.1c1.9-3.3,6.1-5.2,9.8-4.2
					C487.8,113.3,490.6,117,490.6,120.8z"/>
				<path class="st6" d="M485.6,120.5c0,0,0.9,2,0.9,3s-1,3-1,3l0,0.3c-1.4-0.1-2.8-0.9-3.3-2.3l-0.1-0.1
					C483.4,123.4,484.6,121.9,485.6,120.5z"/>
				<path class="st7" d="M459.5,112.4l0,0.1c-4.7,2.2-11-0.6-12.7-5.5c-1.7-5,0.7-10.9,5-13.9c4.3-3.1,10.1-3.6,15.2-2
					c2.9,0.9,5.7,2.7,6.8,5.4c0.9,2.4,0.3,5.3-1,7.5c-1.3,2.2-3.3,4-5.2,5.8c-1.1,1-2.1,1.9-3.5,2.5
					C462.4,113,461,112.9,459.5,112.4z M454.5,109.5c2.7-0.8,7.3-3.4,10-4.2c0.5-0.1,0.9-0.3,1.3-0.6c1-0.9,0.4-2.6-0.6-3.6
					c-2.3-2.3-6.2-2.6-8.8-0.7c-2.6,1.9-3.6,5.7-2.2,8.6L454.5,109.5z"/>
				<path class="st8" d="M465.2,101.2c1,1,1.6,2.7,0.6,3.6c-0.3,0.3-0.8,0.5-1.3,0.6c-2.7,0.8-7.3,3.4-10,4.2l-0.3-0.5
					c-1.4-2.9-0.4-6.7,2.2-8.6C459,98.6,462.9,98.9,465.2,101.2z"/>
			</g>
			<g>
			</g>
		</g>
		<g id="shells3_1_">
			<g id="XMLID_297_">
				<g>
					<path class="st1" d="M142.8,1823.6l-0.1-1.1c4.4-0.2,8.7-0.8,13-1.8c-2.4-3.2-4.3-6.6-5.5-10.3c-0.6-1.8-1.1-3.6-1.5-5.5
						c-0.1-0.6-0.2-1.3,0.2-1.8c0.3-0.4,1-0.6,1.5-0.8c2.7-0.8,5.5-1.6,8.2-2.3c0-0.1-0.1-0.1-0.1-0.2c14.2-2.6,29.7-2.7,43.6,0.8
						c-9,1.1-29.4-3.1-36.5,3.2c-10.1,8.9,12,23.2-3.8,30.2c-2.8,1.2-5.9,1.3-9,1.5c-7.3,0.3-14.7,0.5-22-0.6
						c-7.2-1.1-14.4-3.8-19.5-8.5C122.1,1827.2,132.2,1824.3,142.8,1823.6z"/>
					<path class="st9" d="M158.5,1799.8c0.1,0.1,0.1,0.1,0.1,0.2c-2.7,0.8-5.5,1.6-8.2,2.3c-0.6,0.2-1.2,0.4-1.5,0.8
						c-0.4,0.5-0.3,1.2-0.2,1.8c0.4,1.8,0.8,3.7,1.5,5.5l-1.3,0.4c-13.5,3.4-28.6,0.9-39.8-6.6l-0.5-0.6c8.5-6,19.2-9.4,30-10.1
						C146,1793.1,154.5,1794.3,158.5,1799.8z"/>
					<path class="st10" d="M150.2,1810.4c1.3,3.6,3.1,7.1,5.5,10.3c-4.3,1-8.6,1.5-13,1.8c-15.2,0.8-30.6-2.6-43.6-9.8
						c2.6-3.5,5.8-6.5,9.5-9.1l0.5,0.6c11.2,7.6,26.4,10.1,39.8,6.6L150.2,1810.4z"/>
				</g>
				<g>
				</g>
			</g>
		</g>
	</g>
	<g id="rocks_1_">
		<g id="XMLID_296_" class="st11">
			<g>
				<path class="st12" d="M793.8,1077.4l2.4-1c29.5-1.4,59.1,1,88,7.1c30.8,6.5,62.1,17.4,93,11.4c9.9-1.9,19.6-5.6,29.7-5.7
					c14.1-0.2,27.6,6.3,41.7,6c10.2-0.3,19.9-4.1,29.3-7.9c14.3-5.8,28.5-11.5,42.8-17.3c1-0.4,2-0.8,2.9-1.5l1.9,0.2
					c4,9.6,8,19.1,12,28.7c0.6,1.5,1.3,3.2,0.8,4.8c-0.5,1.8-2.2,2.9-3.8,3.8c-21.4,12.5-44.4,24.2-69.2,25.4
					c-14.6-7.3-30.8-11.3-46.7-15.2c-5.7-1.4-11.5-2.8-17.3-1.9c-4.5,0.7-8.6,2.7-12.6,4.8c-11.9,6.2-23.3,13.5-33.8,21.8
					c-1.4,1.1-2.8,2.6-3.7,4.2l-1.2-0.8c-12.3-0.9-24.5-1.9-36.8-2.8c-3.8-0.3-7.6-0.6-11.3-0.9c-16.8-1.3-33.7-2.6-50.3-5.7
					c-14-2.7-27.8-6.7-42-8c-16-1.4-32.4,0.8-48-3.1c4.9-5.1,6.6-12.5,7.9-19.5c1.3-7,2.4-14.3,6.4-20.2
					C779.8,1078.4,787.5,1074.7,793.8,1077.4z"/>
				<path class="st13" d="M1124.4,1061.4c0.7,1.7,1.3,3.6,0.7,5.2c-0.3,0.8-0.9,1.4-1.5,1.8c-0.8,0.6-1.9,1.1-2.9,1.5
					c-14.3,5.8-28.5,11.5-42.8,17.3c-9.4,3.8-19.1,7.7-29.3,7.9c-14.1,0.4-27.6-6.2-41.7-6c-10.1,0.2-19.8,3.8-29.7,5.7
					c-30.9,6-62.2-4.8-93-11.4c-28.9-6.1-58.5-8.5-88-7.1c10.6-14.1,21.2-28.1,31.7-42.2l1.7,0.8c-1.4,4.1,4.7,7.5,9.4,8.3
					c53.2,8.4,106.9,13.4,160.8,14.9c8.4,0.2,16.9,0.4,24.9,2.8c9.8,2.9,18.5,9.1,28.5,10.8c17.6,2.9,29.4-10.4,45.1-15.1
					c5.5-1.7,15-0.1,18.3-5.6c1.4-2.4,1.6-4.1,0.9-5.4l0.6-0.2C1120.1,1050.7,1122.2,1056,1124.4,1061.4z"/>
				<path class="st14" d="M1117.4,1045.6c0.6,1.3,0.4,3.1-0.9,5.4c-3.2,5.5-12.8,3.9-18.3,5.6c-15.6,4.7-27.5,18.1-45.1,15.1
					c-10-1.7-18.8-7.9-28.5-10.8c-8-2.4-16.5-2.6-24.9-2.8c-53.8-1.5-107.6-6.4-160.8-14.9c-4.7-0.7-10.8-4.2-9.4-8.3
					c0.1-0.2,0.2-0.5,0.3-0.8c30.1-0.7,64.4-0.7,93.8-8.1c15.8-4,31.6-8.6,47.9-9.8c11.7-0.9,23.5-0.1,35.3,0.8
					c17.8,1.3,35.7,2.6,53.5,3.9c9.1,0.7,18.7,1.5,25.9,7.1c4.4,3.3,7.9,8.8,12.9,11.2C1103.7,1041.5,1115.2,1041,1117.4,1045.6z"/>
				<path class="st15" d="M951.2,1151.6C951.2,1151.5,951.2,1151.5,951.2,1151.6c-0.2-0.2-0.4-0.4-0.5-0.5l0,0
					c-1.3-1.6-0.8-3.9,0.4-6c0.9-1.6,2.3-3.1,3.7-4.2c10.6-8.3,21.9-15.6,33.8-21.8c4-2.1,8.2-4.1,12.6-4.8
					c5.8-0.9,11.6,0.5,17.3,1.9c15.9,3.9,32,7.9,46.7,15.2c1.7,0.8,3.4,1.7,5.1,2.7c3.6,2,7.5,5,7.4,9.1c-0.1,1.8-0.9,3.6-1.8,5.2
					c-4.4,8.4-10.1,17.8-19.5,19.4c-4.3,0.7-8.7-0.4-13-0.9c-20.2-2.6-40.9,6.6-60.9,2.6C970.6,1167,960.1,1160,951.2,1151.6z"/>
				<path class="st12" d="M781.4,1138.6c3.9,3.5,8.2,8.2,6.9,13.3c-1.5,5.8-9.1,7.3-15.1,7.5c-7.8,0.3-36.3,5.9-39.1-5.3
					c-2.9-11.7,15.4-10.9,21.8-13.6c5.7-2.4,10.8-7.9,17-7C776.1,1134,778.8,1136.3,781.4,1138.6z"/>
				<path class="st15" d="M744,1122c4,3.1,8.3,8.3,5.4,12.4c-1.2,1.7-3.3,2.4-5.2,3.1c-10.5,3.5-21.5,7-32.4,5.3
					c-6.7-1-13-4-19.8-4.2c-3.1-0.1-6.2,0.4-9.2-0.3c-3-0.7-5.9-3.1-5.9-6.2c0-3,2.7-5.1,5.2-6.8c14-9.8,31.1-19.2,47.4-14.5
					C734.3,1114.5,739.2,1118.2,744,1122z"/>
			</g>
			<g>
			</g>
		</g>
	</g>
</g>
</svg>
