<?xml version="1.0" encoding="utf-8"?>
<!-- Generator: Adobe Illustrator 22.1.0, SVG Export Plug-In . SVG Version: 6.00 Build 0)  -->
<svg version="1.1" xmlns="http://www.w3.org/2000/svg" xmlns:xlink="http://www.w3.org/1999/xlink" x="0px" y="0px"
	 viewBox="0 0 1366 768" style="enable-background:new 0 0 1366 768;" xml:space="preserve">
<style type="text/css">
	.st0{fill:#4592AD;}
	.st1{fill:#B5E5E4;}
	.st2{opacity:0.5;}
	.st3{fill:#D3AD57;}
	.st4{fill:url(#SVGID_1_);}
	.st5{fill:#FFFFFF;}
</style>
<g id="Layer_1">
	<g id="Layer_1_1_">
	</g>
	<g id="_x34__FAQ">
		<g id="XMLID_294_">
			<g>
				<path class="st0" d="M438.1,542.4c4.8,3,9.5,6,14.3,9c6.5,4.1,13.2,8.2,20.8,9.6c5.3,0.9,10.6,0.4,16-0.2c19.5-2,39.1-4,58.6-6
					c-1.2-8.8-10-15-18.8-16.4s-17.8,0.7-26.5,2.3C481.2,544.4,459.5,545,438.1,542.4z M1367.5,505.5c0,11.8,0,23.4,0,34.9
					c-14.2-0.5-16.2,8.1-27.2,12.3c-13.6,5.2-28.3,1.2-42.4-0.8c-63.1-8.6-120.7,33-181.7,51.3c-37.3,11.2-76.6,13.7-115.6,16.1
					c-23.4,1.5-44.3-4.2-67.2-5.3c-37.4-1.7-67.2-12.7-103.6-18.5c-41.2-6.5-82.7,13.7-124.2,9.8c-16.8-1.6-33.3-7.2-50.2-6.6
					c-13.7,0.4-27,4.9-40.8,5.4c-16.4,0.7-32.5-4.2-48.4-8.1c-42-10.1-85.4-13.1-128.5-16.1c-20.5-1.4-41.3-2.8-61.5,1.3
					c-20.1,4.1-39.9,14.3-51,31.6c45,17,101.2-0.3,139.6,28.7c-73.3,15.9-149.5,18.1-223.5,6.4c-21.5-3.4-43.5-7.9-64.8-3.5
					c-20.7,4.3-39.2,16.9-60.1,20.4C78.2,671.2,37,646,1.7,662.1h-2.3c0-52.2,0-104.4,0-156.6
					C455.6,505.5,1367.5,505.5,1367.5,505.5z M1081.5,592.8c2.7-5-3-10.8-8.5-12.2s-11.9-1.2-16.3-4.9c-3.1-2.7-4.5-6.8-6.2-10.5
					c-7.7-16.8-26.5-27.8-44.9-26.3c-16.2,1.3-30.7,11.1-46.8,13.1c-15.1,1.8-30.2-3.3-45.4-2.8c-11.6,0.4-22.8,4.1-34.3,5.1
					c-35.1,3-73.5-19-103.8-1c19.5,12.3,42.4,19.1,65.4,19.6c20.5,0.4,42-4.1,61.1,3.2l-0.3,0.8c21.8,18.1,56.1-1.6,82.5,8.3
					c6.3,2.4,12,6.4,18.5,8c8.8,2.2,17.9-0.3,26.8-1.8C1046.6,588.4,1064.4,588.9,1081.5,592.8z M296.2,599.4
					c-2.5-10.4-13.1-16.5-22.6-21.4c-18.8-9.6-40.3-19.4-60.3-12.7c-7.1,2.4-13.4,6.8-20.5,9.4c-9.6,3.6-20.1,3.8-30.3,3.9
					c-33.4,0.4-66.9,0.8-100.4,1.3l-2.6,1.2c5.2,3.1,10.4,6.2,15.8,8.8c25.9,12.3,55.6,12.8,84.2,13.1c26.8,0.2,53.6,0.5,80.4,0.7
					C258.9,603.9,278,604,296.2,599.4z"/>
				<path class="st1" d="M600.1,675.2c-121.6,19.8-242.6,50.7-365.8,49.7c-79.5-0.6-164.4-13.4-234.9,21.9c0-28.2,0-56.5,0-84.7h2.3
					c35.3-16,76.5,9.1,114.7,2.8c20.9-3.4,39.3-16,60.1-20.4c21.3-4.5,43.3,0.1,64.8,3.5c74.1,11.7,150.3,9.5,223.5-6.4
					c-38.3-29.1-94.6-11.7-139.6-28.7c11.1-17.3,30.9-27.5,51-31.6c20.2-4.1,41-2.7,61.5-1.3c43.1,3,86.5,5.9,128.5,16.1
					c16,3.9,32,8.8,48.4,8.1c13.7-0.5,27-5,40.8-5.4c16.9-0.5,33.4,5,50.2,6.6c41.5,3.9,83-16.3,124.2-9.8
					c36.3,5.8,66.2,16.8,103.6,18.5c22.9,1,43.8,6.8,67.2,5.3c38.9-2.4,78.2-4.9,115.6-16.1c61-18.3,118.6-59.9,181.7-51.3
					c14,1.9,28.8,5.9,42.4,0.8c10.9-4.2,12.9-12.7,27.2-12.3c0,18.2,0,36.4,0,55.1l-1.7,3.8c-64.8,0-129.3,19.5-192.1,32.9
					c-76.9,16.4-154.6,32.9-233.1,31.3c-60.2-1.2-120-12.2-180.3-5.4C707.1,664.2,653.6,666.5,600.1,675.2z"/>
				<path class="st1" d="M901.8,576c-19.1-7.3-40.6-2.8-61.1-3.2c-23-0.4-45.9-7.3-65.4-19.6c30.3-18,68.7,3.9,103.8,1
					c11.5-1,22.7-4.7,34.3-5.1c15.2-0.5,30.3,4.6,45.4,2.8c16.1-2,30.6-11.8,46.8-13.1c18.4-1.5,37.2,9.5,44.9,26.3
					c1.7,3.7,3,7.9,6.2,10.5c4.3,3.7,10.7,3.5,16.3,4.9c5.5,1.5,11.2,7.2,8.5,12.2c-17.1-3.9-34.9-4.4-52.2-1.4
					c-8.9,1.5-18,4-26.8,1.8c-6.5-1.6-12.2-5.6-18.5-8c-26.5-10-60.8,9.8-82.5-8.3L901.8,576z"/>
				<path class="st1" d="M547.8,554.8c-19.5,2-39.1,4-58.6,6c-5.3,0.5-10.7,1.1-16,0.2c-7.5-1.3-14.3-5.5-20.8-9.6
					c-4.8-3-9.6-6-14.3-9c21.4,2.6,43.1,2,64.3-1.8c8.8-1.6,17.7-3.7,26.5-2.3C537.7,539.8,546.5,545.9,547.8,554.8z"/>
				<path class="st1" d="M273.6,578c9.6,4.9,20.1,11,22.6,21.4c-18.3,4.6-37.3,4.5-56.1,4.3c-26.8-0.2-53.6-0.5-80.4-0.7
					c-28.6-0.2-58.4-0.7-84.2-13.1c-5.4-2.6-10.7-5.7-15.8-8.8l2.6-1.2c33.5-0.4,66.9-0.8,100.4-1.3c10.2-0.1,20.7-0.3,30.3-3.9
					c7-2.6,13.4-7,20.5-9.4C233.3,558.6,254.7,568.4,273.6,578z"/>
			</g>
		</g>
		<g class="st2">
			<path class="st3" d="M1057.4,687c0.4,1.7-1.5,3.2-3.2,3.1c-1.7-0.1-3.2-1.3-4.4-2.5c-2.5-2.6-4.7-5.5-6.2-8.8
				c-1.2-2.4-2.1-5.1-3.9-7.1c-2.7-3-6.8-4.2-10.4-5.9s-7.4-4.7-7.4-8.7c-0.1-4.1,3.5-7.2,6.7-9.6c3.2-2.4,6.7-4.9,10.8-5.2
				c4.9-0.5,9.4,2.2,13.2,5.3c4.3,3.4,8,7.5,11.2,11.9c4,5.7,7.1,12.7,5.8,19.5s-8.5,12.8-15.1,10.7"/>
		</g>
		<g class="st2">
			<path class="st3" d="M939.9,677.5c-10.7,4.3-17.3-1.4-26.9-7.5c-10.7-6.8-22.9-15.8-23.3-28.5c-0.1-4.3,0.7-8.7,3.1-12.3
				c8.2-11.5,18-5.6,24.1,0.8c8.4,8.7-0.6,14.8,9,22c5.3,4,19,11,19,17S942.9,676.3,939.9,677.5z"/>
		</g>
		
			<linearGradient id="SVGID_1_" gradientUnits="userSpaceOnUse" x1="683" y1="769" x2="683" y2="249" gradientTransform="matrix(1 0 0 -1 0 768)">
			<stop  offset="0" style="stop-color:#EFDC8E"/>
			<stop  offset="1" style="stop-color:#4592AD"/>
		</linearGradient>
		<polygon class="st4" points="1366,514 0,519 0,-1 1366,-1 		"/>
	</g>
</g>
<g id="_x34__FAQ_1_">
	<g id="bubbles_2_">
		<g class="st2">
			<path class="st5" d="M292.8,703.4c-3.9-3.4-3.3-13.4,2.7-14c5.8-0.6,12.3,4.6,10.1,10.8C303.9,705,296.7,706.8,292.8,703.4z"/>
		</g>
		<g class="st2">
			<path class="st5" d="M270.5,683.4c-5.6-6.4-16.3,4.2-9.5,10.1C268.1,699.6,276.1,689.9,270.5,683.4z"/>
		</g>
		<g class="st2">
			<path class="st5" d="M321.8,683.9c-3.6-0.6-7-4.7-4.2-7.7c0.7-0.8,1.5-1.7,2.5-2.2c2.7-1.4,6.9,0.2,7.7,3.2
				C328.8,680.7,325.3,684.5,321.8,683.9z"/>
		</g>
		<g class="st2">
			<path class="st5" d="M587.1,645.8c-1.5-5.9-12-7-16.8-5.2c-5,1.8-8.1,4.8-7.5,10.2c0.6,4.6,4.5,8.4,9.1,9c4.9,0.6,9.9-2,12.9-5.9
				C586.7,651.5,587.8,648.6,587.1,645.8z"/>
		</g>
		<g class="st2">
			<path class="st5" d="M532.6,643.5c2.9,1.9,7.1,1.8,9.6-0.6c5.3-5.1-1.7-14.2-7.9-9C532.8,635.1,530,641.8,532.6,643.5z"/>
		</g>
		<g class="st2">
			<path class="st5" d="M558.5,630.8c6.1,3.5,14.2-2.7,7.1-7.2C561,620.6,551.7,626.8,558.5,630.8z"/>
		</g>
		<g class="st2">
			<path class="st5" d="M483.6,620.2c0.3-2.1-0.5-3.6-1.8-4.3c-1.7-0.9-4.2-0.6-5.9,1.1C470.2,622.8,482.5,627.2,483.6,620.2z"/>
		</g>
		<g class="st2">
			<path class="st5" d="M501.1,621.7c3.3,1.8,7.7-2.2,6.7-5.7c-1.3-4.6-9-5-9.9,0.1C497.7,617.7,499.7,620.9,501.1,621.7z"/>
		</g>
		<g class="st2">
			<path class="st5" d="M629.2,644c2.5,0.7,4.8-1.5,6-3.8c1-1.9,1.7-4.2,0.8-6.2c-0.8-1.9-3.1-3-5.1-2.5
				C626.3,632.6,623.1,642.3,629.2,644z"/>
		</g>
		<g class="st2">
			<path class="st5" d="M412.2,609.2c2.9-5.9-5.5-13.5-9.9-7C397.8,608.7,408.8,616,412.2,609.2z"/>
		</g>
		<g class="st2">
			<path class="st5" d="M847.5,641.3c5.4,3.4,13.6-1.9,12.9-8.3c-0.7-5.9-6.6-8.2-11.7-7.3c-2.6,0.4-4.6,2.8-5.1,5.4
				C842.9,634.6,844.3,639.3,847.5,641.3z"/>
		</g>
		<g class="st2">
			<path class="st5" d="M820.6,626.9c7.1-4.9,1.9-15.9-5.8-12.1c-2.3,1.1-11.2,10.3-6.3,12.6C812.4,629.1,817.2,629.3,820.6,626.9z"
				/>
		</g>
		<g class="st2">
			<path class="st5" d="M995.2,575.9c9.4,2.7,13.2-12.4,1.9-14.3C986.5,559.9,986.9,573.5,995.2,575.9z"/>
		</g>
		<g class="st2">
			<path class="st5" d="M758.7,631.1c2.8,3.6,12.5,2.3,11.8-3.3c-0.2-1.4-3.8-4.6-4.9-5.5c-2.1-1.8-3.4-3-6.1-0.9
				C757.1,623.4,756.8,628.8,758.7,631.1z"/>
		</g>
		<g class="st2">
			<path class="st5" d="M51.8,701.1c3.2-0.4,6-2.6,7.5-5.4c2-3.6,2-8.5-0.8-11.6c-1.9-2.1-6.1-3.2-8.8-2.2c-1.4,0.6-2.6,1.6-3.7,2.7
				C40.7,690,42.5,702.2,51.8,701.1z"/>
		</g>
		<g class="st2">
			<path class="st5" d="M98.7,688.2c-0.4-8.9-10.6-8.7-13.4-1.3C81,698.3,99.2,698.4,98.7,688.2z"/>
		</g>
		<g class="st2">
			<path class="st5" d="M134,700.4c-2.2,5.8,2.9,13.1,9.2,12.9c6.2-0.2,11-7.7,8.5-13.4c-2.5-5.7-11.2-7.3-15.6-2.8
				c-2.4,2.5-3.3,6.2-2.4,9.5"/>
		</g>
		<g class="st2">
			<path class="st5" d="M157.9,675.1c2.9-4.1,10.2-3.7,12.7,0.7c2.4,4.4-1.1,10.8-6.1,11.1c-5,0.3-9.3-5.6-7.4-10.3"/>
		</g>
		<g class="st2">
			<path class="st5" d="M177.8,702.4c3.8,1.6,6.2-1.3,6.7-4.6c0.6-4.4-2.7-7.9-7.1-5.8C173.1,694.1,173.3,700.6,177.8,702.4z"/>
		</g>
		<g class="st2">
			<path class="st5" d="M1286.5,598.4c13.4-6.6-13.5-20.5-9.7-5.6C1277.7,596.4,1282.9,600.1,1286.5,598.4z"/>
		</g>
		<g class="st2">
			<path class="st5" d="M1243.4,584.5c2.2-2,1.5-7.6-1.5-8.6c-1.5-0.5-3.2,0.1-4.3,1.2C1233.2,581.7,1238.3,589.4,1243.4,584.5z"/>
		</g>
		<g class="st2">
			<path class="st5" d="M1297,572.1c-1.5,1.5-2.8,3.6-2.1,5.6c0.7,2.1,3.2,3,5.4,3.6c0.7,0.2,1.3,0.3,2,0.2
				C1309.4,580.3,1304.3,565.2,1297,572.1z"/>
		</g>
		<g class="st2">
			<path class="st5" d="M1132,626.9c4.2-8.1-8.5-13.7-13-4.9C1114.6,630.8,1128.3,634,1132,626.9z"/>
		</g>
		<g class="st2">
			<path class="st5" d="M1154.8,615.5c1.8-4.2-4.6-9.4-7.4-5C1142.9,617.3,1151.9,622.2,1154.8,615.5z"/>
		</g>
		<g class="st2">
			<path class="st5" d="M1101.7,628.5c-2.5,0.1-3.8-2.5-3.9-4.7c-0.1-3.4,2.1-4.6,4.8-5.9c0.3-0.1,0.6-0.3,0.9-0.2
				c0.2,0.1,0.4,0.3,0.5,0.4C1106,620.8,1106.4,628.4,1101.7,628.5z"/>
		</g>
		<g class="st2">
			<path class="st5" d="M517.7,618.5c5.1,7,19.3-0.9,13.7-8.5C525.8,602.1,511.8,610.3,517.7,618.5z"/>
		</g>
		<g class="st2">
			<path class="st5" d="M321.1,704c1.2-2.2,0.3-5.6-1.8-7c-2.5-1.7-6.5-0.8-7.7,1.9C309.3,704.1,318.3,709.1,321.1,704z"/>
		</g>
		<g class="st2">
			<path class="st5" d="M916.7,573.1c2.8,3.6,12.5,2.3,11.8-3.3c-0.2-1.4-3.8-4.6-4.9-5.5c-2.1-1.8-3.4-3-6.1-0.9
				C915.1,565.4,914.8,570.8,916.7,573.1z"/>
		</g>
		<g class="st2">
			<path class="st5" d="M210.7,590.1c2.8,3.6,12.5,2.3,11.8-3.3c-0.2-1.4-3.8-4.6-4.9-5.5c-2.1-1.8-3.4-3-6.1-0.9
				C209.1,582.4,208.8,587.8,210.7,590.1z"/>
		</g>
	</g>
</g>
</svg>
