<?xml version="1.0" encoding="utf-8"?>
<!-- Generator: Adobe Illustrator 22.1.0, SVG Export Plug-In . SVG Version: 6.00 Build 0)  -->
<svg version="1.1" xmlns="http://www.w3.org/2000/svg" xmlns:xlink="http://www.w3.org/1999/xlink" x="0px" y="0px"
	 viewBox="0 0 1366 1672" style="enable-background:new 0 0 1366 1672;" xml:space="preserve">
<style type="text/css">
	.st0{fill:url(#SVGID_1_);}
	.st1{fill:#EFDC8E;}
	.st2{fill:#D3926E;}
	.st3{fill:#BC7B50;}
	.st4{fill:#518E51;}
	.st5{fill:#62A862;}
	.st6{fill:#444444;}
	.st7{fill:#757575;}
	.st8{fill:#8C8C8C;}
	.st9{fill:#D3AD57;}
	.st10{opacity:0.7;}
	.st11{fill:#339933;}
	.st12{fill:#66CC66;}
	.st13{opacity:0.8;}
	.st14{fill:#282828;}
	.st15{fill:#4F4F4F;}
	.st16{fill:#87D6D3;}
	.st17{fill:#7FA09D;}
	.st18{fill:#99CCCC;}
	.st19{opacity:0.3;}
	.st20{fill:#8F8BA0;}
	.st21{fill:#B58C4B;}
	.st22{fill:#70655D;}
	.st23{fill:#997455;}
	.st24{fill:#7F786B;}
	.st25{fill:#F9E373;}
	.st26{fill:#EAD07C;}
	.st27{fill:#CEA572;}
	.st28{fill:#F1EEDB;}
	.st29{fill:#B0A6A4;}
	.st30{fill:#FFFFFF;}
	.st31{opacity:0.9;}
	.st32{fill:#993333;}
	.st33{fill:#7A4040;}
	.st34{fill:#663333;}
	.st35{fill:#895F5F;}
	.st36{fill:#996666;}
	.st37{fill:#A1A399;}
	.st38{fill:#A8AB9F;}
	.st39{fill:#76A2B5;}
	.st40{fill:#7BA9C1;}
	.st41{fill:#6E8395;}
	.st42{fill:#667987;}
	.st43{fill:#808082;}
	.st44{fill:#91867D;}
	.st45{fill:#747475;}
	.st46{fill:#9E9287;}
	.st47{fill:#A7A19E;}
	.st48{fill:#E57A55;}
	.st49{fill:#FCFCFC;}
	.st50{fill:#69A39D;}
	.st51{fill:#D8684A;}
	.st52{fill:#E5724A;}
	.st53{fill:#8E705B;}
	.st54{fill:#BA9875;}
	.st55{fill:#997A61;}
	.st56{fill:#CEA980;}
	.st57{fill:#725F52;}
	.st58{fill:#6D6D6D;}
	.st59{opacity:0.2;}
</style>
<g id="Layer_1">
</g>
<g id="_x33__SCHEDULE">
	<g id="Background">
		<linearGradient id="SVGID_1_" gradientUnits="userSpaceOnUse" x1="683.5" y1="0" x2="683.5" y2="1673">
			<stop  offset="0" style="stop-color:#4592AD"/>
			<stop  offset="0.1743" style="stop-color:#39829C"/>
			<stop  offset="0.4551" style="stop-color:#2B6F88"/>
			<stop  offset="0.7323" style="stop-color:#22647B"/>
			<stop  offset="1" style="stop-color:#1F6077"/>
		</linearGradient>
		<rect class="st0" width="1367" height="1673"/>
	</g>
	<g id="sea_floor_COLOR">
		<g id="XMLID_24_">
			<g>
				<path class="st1" d="M1049.3,1401c32.6-12.6,67-20.2,101.9-22.7c53.1-3.8,110.1-14.3,162,2.1c4.4,1.4,9,3,13.6,2.7
					c4.5-0.2,8.8-2.1,13.1-3.4c7.5-2.2,15.5-2.7,23.2-1.4l0,0.1c0,98.1,0,196.3,0,294.4h-1.5c-453.8,0-907.6,0-1361.4,0h0
					c0-62.8,0-125.6,0-188.4l1.8-0.4c66,6.7,125.6-44.2,191.9-46.4c20,20.5,52.7,18.5,81.4,18.5c41.3,0,82.6,7.4,121.3,21.8
					c15.9,5.9,32.1,13.1,49,12.1c31.9-1.8,55.6-31.3,86.6-38.6c42.4-9.9,90.2,22.9,128.2,1.7c7.3,6,15.2,11.3,23.4,15.9
					c6.6,3.7,13.5,6.8,20.5,9.5c5.9,2.3,11.8,4.2,17.9,5.8c44.4,11.6,93.8,5.6,132.7-19.2c11.2-7.1,22.2-15.9,35.5-17.4
					c13.5-1.6,26.6,4.8,40.1,5.6c23.6,1.5,44.5-13.4,64.7-25.7c3.6-2.2,7.2-4.3,10.8-6.3C1019.9,1413.5,1034.4,1406.7,1049.3,1401z"
					/>
				<path class="st2" d="M1022,1390c9.9-1,22.8,1,27.3,11c-14.9,5.7-29.4,12.5-43.4,20.3c-13.8-0.8-28.9,4.6-42.6,5.6
					c-17.1,1.2-34.2,0.8-51.2-1.3c-12.4-1.5-24.9-4-37.4-3c-21,1.6-39.5,12.6-57.6,22.3c-20.1,10.8-37.7,15.9-59.9,19.3l-0.2-0.3
					c6.7-3.8,13.2-7.9,19-13.1c3.1-2.7,6.6-6.6,7.8-10.8c0.3-1.1,0.5-2.3,0.4-3.4c0.1,0.4,0.2,0.8,0.3,1c0.4-0.8,0.1-1.8-0.5-2.5
					c0-0.1,0-0.1,0-0.1c9-1,16-4,24-7c25-10,47-22,70-36c4-2,9-3,14-4c16-1,31-6,47-11c6-1,12-1,16,4c6,7,10,16,19,17
					C990,1398,1006,1392,1022,1390z"/>
				<path class="st3" d="M963.3,1426.9c13.7-1,28.8-6.4,42.6-5.6c-3.6,2-7.3,4.1-10.8,6.3c-20.2,12.2-41.2,27.1-64.7,25.7
					c-13.5-0.8-26.6-7.2-40.1-5.6c-13.2,1.5-24.2,10.3-35.5,17.4c-38.9,24.7-88.2,30.8-132.7,19.2l0.2-0.6
					c10.8-7.7,23.1-13.2,34.6-19.7l0.2,0.3c22.2-3.4,39.8-8.5,59.9-19.3c18.1-9.8,36.6-20.7,57.6-22.3c12.5-1,25,1.5,37.4,3
					C929,1427.7,946.2,1428.2,963.3,1426.9z"/>
				<path class="st4" d="M826,1371c5,1,6,7,5,11c-1,3-4,6-7,8c-7,3-15,4-23,4c-5,0-7,3-10,7c-1,1-2,3,0,5c5,3,12-1,17,1
					c4,2,5,8,1,13c-7,8-17,4-26,4c-4-1-12,2-10,8c1,4,6,5,8.7,7.7l2,0.4c-1.2,4.2-4.7,8.1-7.8,10.8c-5.8,5.2-12.3,9.3-19,13.1
					c-11.6,6.5-23.8,12-34.6,19.7l-0.2,0.6c-6.1-1.6-12.1-3.5-17.9-5.8l0.2-0.5c20.4-17.5,34.2-41.2,47.5-64.5
					c5.9-10.3,11.8-20.6,16.6-31.4c13.7-31.1,17.5-65.8,16.8-99.8c1.4-0.2,2.9-0.3,4.6-0.2c7,0,6,10,6,16c-1,8-4,17-1,25
					c1,1,0,4,4,1c4-4,4-11,9-11c3-1,6,2,8,5c3,7,1,14-5,18c-4,3-8,4-10,8c-1,2,0,6,3,6c6,0,12-3,18-5c4-1,9-1,9,5c-1,4-3,8-6,10
					c-7,3-14,4-21,7c-2,2-5,6-2,9c2,1,4,1,6,1C815,1376,819,1370,826,1371z"/>
				<path class="st5" d="M785.4,1282.2c0.7,34-3.1,68.7-16.8,99.8c-4.8,10.8-10.7,21.2-16.6,31.4c-13.4,23.3-27.2,47-47.5,64.5
					l-0.2,0.5c-7-2.7-13.9-5.9-20.5-9.5l0.5-0.8c0.3-5.6,4.6-8.5,9.9-8.3c5.8,0.2,11.6,1.4,14.9-4.7c2.8-5.2,0.2-9.4-4.1-12.5
					c-3.6-2.6-8.3-5.7-5.7-10.8c1.9-3.7,6.9-5.3,10.6-3.6c3.3,1.5,6.1,5.7,10,5.7c4.1,0,4.6-5.6,4.7-8.7c0.1-4.2-0.7-7.7-4.4-10
					c-3.7-2.3-8.6-3.2-12.9-3.4c-3.3-0.2-9.6,0.3-10.7-3.9c-8.2,7.1-16.7,13.7-27.3,16.6c-7.1,2.7-16.1-2.3-15.1-9.3
					c0-9,11-13,19-17c4-2,5-7,4-11c-5-9-16-2-21,4c-2,2-4,4-8,3s-11-6-7-10c8-6,16-11,23-19c-3-4-3-9-7-11c-5-1-10,2-13,6
					c-3,3-7,0-9-2c-5-9,3-15,8-21c1-7-6-11-7-18c0-5,5-8,9-9c5-1,8,5,13.4,6c-0.4-2-1.4-4-0.4-5c5-3,9-9,16-7c1,0,2,2,2,3
					c-2,8-9,13-10,21c0,5,3,9,9,8s11-9,17-6c4,9-5,16-11,21c1,11,10,21,21,23c8,1,12-9,18-13c2,0,5-2,7,2c1,3-1,6,0,9c4,6,14,6,20,2
					c2-9,2-19,0-28c-1-2-2-3-4-4c-3-1-6-2-9-3s-7-3-7-8c-1-7-2-13-1-20c1-5,6-5,9-5c6,1,13-1,18,6c-1,9,1,21,12,22c3,0,6-3,7-5
					C776.7,1314.1,766.5,1285.3,785.4,1282.2z"/>
			</g>
			<g>
			</g>
		</g>
		<g id="XMLID_23_">
			<g>
				<path class="st6" d="M1339.6,1410.3c0.5,1.7,0.2,3.5-0.1,5.2c-1.5,8.7-3,17.4-4.5,26.1c-0.5,3-1.2,6.3-3.5,8.2
					c-2.2,1.8-5.2,1.9-8,2.2c-30,2.2-59.6,18.1-88.8,10.8c-8.2-2.1-16.1-5.9-24.5-5.4c-5.5,0.3-10.7,2.5-16.1,3.7
					c-13.2,3-27.7,0.2-38.8-7.6l-1-3.4c1.8-7.1,7.1-13.2,13.8-15.9c1.2-0.5,2.4-0.9,3.7-1.2v0l8.9,0.5c14.9-1.6,29.8-3.2,44.8-4.9
					c13.4-1.5,27.2-2.9,40.3,0.7c4.6,1.3,9.2,3.2,14,3.2c6.5,0,12.4-3.4,17.9-6.7c11.6-6.9,23.2-13.7,34.9-20.6
					C1335.8,1406,1338.6,1407.2,1339.6,1410.3z"/>
				<path class="st7" d="M1332.6,1405.1c-11.6,6.9-23.3,13.7-34.9,20.6c-5.6,3.3-11.5,6.7-17.9,6.7c-4.8,0-9.4-1.9-14-3.2
					c-13-3.5-26.8-2.1-40.3-0.7c-14.9,1.6-29.8,3.2-44.8,4.9l-8.9-0.5v0c2.9-0.8,5.8-1.5,8.5-2.8c12.1-5.9,17-23.6,30.2-25.6v0
					l1.4,2.6c26.1-0.8,52.4,0.1,78.4,2.8c11.7,1.2,25.9,1.7,32.6-8.1l0.2-0.2c0,0,0.1,0.1,0.1,0.1
					C1325.8,1403.6,1329.4,1404.2,1332.6,1405.1z"/>
				<path class="st8" d="M1323,1401.6l-0.2,0.2c-6.6,9.7-20.8,9.2-32.6,8.1c-26-2.6-52.2-3.6-78.4-2.8l-1.4-2.6v0c0.1,0,0.2,0,0.4,0
					c2.1-11.2,12.4-19,22.6-24.1c10.2-5.1,21.5-9,29.4-17.2c2.3-2.4,4.5-5.3,7.8-6.1c2.1-0.6,4.4-0.1,6.5,0.3
					c16.4,3.2,35.9,9.2,39.8,25.4C1318.6,1389.2,1317.7,1397.4,1323,1401.6z"/>
			</g>
			<g>
			</g>
		</g>
		<g id="XMLID_22_">
			<g>
				<path class="st9" d="M785.6,1605.2c-11.1,2.9-20-8.7-29.9-14.5c-6-3.5-12.9-4.9-19.7-6.3c-53.1-10.8-106.1-21.7-159.2-32.5
					c-13.8-2.8-28.2-6-38.6-15.4c-5.7-5.1-11.6-12.4-19-10.6c21.6-5.3,44.6,3.4,65.1,9.5c23.5,7,42,5.5,66.4,5.1
					C702.7,1539.5,756.9,1561.7,785.6,1605.2z"/>
			</g>
			<g>
			</g>
		</g>
		<g id="XMLID_21_">
			<g>
				<path class="st9" d="M1161.4,1563.6c-37.4,7.6-74.8,15.1-112.2,22.7c-15.6,3.2-20.7,15.6-36.6,20.3
					c-19.9,5.9-39.3,13.6-59.5,18.5c2.8-1,3.3-5.1,1.6-7.6c-1.7-2.4-4.7-3.6-7.5-4.6c-23-8.1-47.5-15.2-71.5-13
					c-3.5,0.3-7.1,0.8-10.6,1.6c-25.2,5.3-33.5,6.7-51.1-11.5c-14.8-15.2-32-27.4-50.4-37.8c15.6-5.5,33.9,4.6,49.1-2
					c4.9-2.1,8.9-5.8,13.9-7.8c10.6-4.1,22.2,0.8,32.9,4.5c18,6.2,44.2,14.2,63.4,12.1c21.6-2.3,46.7-19.2,66.6-28.2
					c11.7-5.3,23.5-10.6,35.8-14.2c30.1-9,62.2-8.2,93.6-7.3c-17.2,12.9-34.5,25.7-51.7,38.6
					C1099.2,1545.2,1131.9,1550.7,1161.4,1563.6z"/>
			</g>
			<g>
			</g>
		</g>
		<g id="XMLID_20_" class="st10">
			<g>
				<path class="st11" d="M349.8,1283.5c21.4,20.9,31.4,54.1,20.6,81.9c-7.9,20.4-25.3,35.8-43.9,47.4c-18.6,11.6-39,20.1-57.4,32.1
					c-7,4.6-11.4,10.2-17.5,15.6c-5.4,4.8-12.1,10-18.5,13.3c-5.8,3.1-10.7,5.2-15,10.7c-0.1-1.2-0.3-2.4-0.4-3.6l0.8-0.1
					c19.8-30.1,54.9-45.9,82.6-69.1c10.7-9,20.4-19.3,29.9-29.6c5.9-6.4,11.9-12.9,16.6-20.3
					C362.3,1338.7,363.1,1307.4,349.8,1283.5z"/>
				<path class="st12" d="M349.8,1283.5c13.3,24,12.5,55.2-2.2,78.4c-4.7,7.4-10.6,13.9-16.6,20.3c-9.5,10.3-19.2,20.6-29.9,29.6
					c-27.6,23.2-62.7,39-82.6,69.1l-0.8,0.1c-0.7-9,0.7-15.8,5.9-24.3c5.1-8.2,12-15.2,19.7-21c16-12,34.9-20,49.9-33.3
					c15.1-13.4,25.4-31.3,34.4-49.3c11.3-22.7,21.3-47.4,18.9-72.6C347.6,1281.4,348.7,1282.4,349.8,1283.5z"/>
				<path class="st12" d="M264.8,1277.8c8.6,20.5,12,43.9,4.9,64.9c-4.4,12.9-12.3,24.2-19.6,35.8c-10.1,16-19,33-25.1,51
					c-6.1,17.9-7.8,36.5-9.7,55.2c-1-1.8-3.3-2.5-5.1-3.5c-7-4-10.2-15.9-11.6-23.2c-1.7-9.4-1.2-19.2,1.1-28.5
					c5.1-20.5,17.4-38.2,28.5-56.2c11.1-18,21.4-37.5,21.6-58.6c0.4-31.9-22.3-60.9-21-92.8C242.7,1239.3,256.2,1257.3,264.8,1277.8
					z"/>
				<path class="st12" d="M212.1,1483l0.1,1.4c-5.8,0.3-11.6,0.2-17.4-0.5c-3.6-0.4-7.4-1.1-10.1-3.4c-11.4-9.8-23.6-16.9-32.8-29.2
					c-9-11.9-15.2-25.8-18.2-40.3c-3.2-15.5-2.7-32.2,4.2-46.3c10-20.3,31.1-32.1,47.4-47.8c9.2-8.8,13.8-18.7,17.5-30.2
					c10.7,8.8,8.4,26.8,5.1,38.7c-3,10.7-7.2,21.1-12.4,30.9c-6.2,11.5-14,22.3-18.6,34.6C164.2,1424.5,180.2,1466.3,212.1,1483z"/>
			</g>
			<g>
			</g>
		</g>
		<g id="XMLID_19_" class="st13">
			<g>
				<path class="st14" d="M285,1528c0,7-5,12-12,13c-14,0-29-3-43,1c-6,1-12,4-19,5c-8,1-16,0-24-3c-9-4-18-6-27-9
					c-3-1.1-4.7-3.1-5.5-5.4l0.6-0.1c4.6-4,11.4-4.1,17.4-2.8c6,1.2,11.7,3.6,17.8,3.8c9.7,0.4,18.6-4.6,27.5-8.4
					c2.7-1.2,5.4-2.2,8.3-2.6c3.2-0.4,6.5,0.2,9.7-0.3c11.4-1.8,17.7-16.1,29.1-17.7l1-1.1C276.4,1505.7,283.1,1516.4,285,1528z"/>
				<path class="st15" d="M266,1500.5l-1,1.1c-11.4,1.7-17.7,15.9-29.1,17.7c-3.2,0.5-6.5-0.1-9.7,0.3c-2.9,0.3-5.6,1.4-8.3,2.6
					c-8.9,3.8-17.8,8.8-27.5,8.4c-6.1-0.2-11.9-2.6-17.8-3.8c-6-1.2-12.8-1.1-17.4,2.8l-0.6,0.1c-1.3-3.9,0-8.8,2.5-12.6
					c2-1,3-3,5-5c15.3-15.3,37.5-32.9,61-27c12,9,27,15,42,15C265.3,1500.2,265.7,1500.3,266,1500.5z"/>
			</g>
			<g>
			</g>
		</g>
	</g>
	<g id="fish_colored">
		<g id="school_of_fish_1_">
			<g id="XMLID_18_" class="st13">
				<g>
					<path class="st16" d="M772,277.8l1.4-0.1c-1.9-5.4,3.1-11.2,8.7-12.4c5.6-1.1,11.3,1,16.7,3c0,11.9-10.8,22.7-22.7,22.8
						c-1.2,1.3-2.3,2.6-3.5,4c-4.2-4.7-7.6-10.1-9.9-15.9C765.5,277.7,768.8,277.1,772,277.8z"/>
					<path class="st16" d="M768.7,206.7l0-0.7c4.8-8.8,17-12.6,25.9-8c-0.5,9.9-10.2,18.4-20.1,17.5l-0.1,1.5
						c-0.9,2.2-2.4,4.2-4.4,5.7c-4.5-4.3-7.9-9.8-9.5-15.8C763.2,206.8,765.9,206.7,768.7,206.7z"/>
					<path class="st17" d="M742.8,379.5c-0.7,2.8-2.4,5.4-4.7,7.1c-4.4-4.6-7.6-10.2-9.4-16.3c4.4-1.7,9.2-2.2,13.8-1.6l0-0.1
						c3.5-8.2,13.3-16.5,22.2-15.3c1.7,0.2,3.5,0.8,4.6,2.1c1.8,2.2,0.8,5.6-0.7,8.1C763.9,371.6,752.1,377.8,742.8,379.5z"/>
					<path class="st18" d="M732.2,256.4c0.7-5.6,5.6-10.1,11.1-11.8c5.7-1.8,11.8-1.2,17.7-0.7c1.2,0.1,2.5,0.3,3.4,1
						c1.9,1.6,1.3,4.6,0.2,6.9c-5.6,11.7-18.7,19.3-31.7,18.4l-0.1,1.7c-1.6,2.2-3.6,4-5.9,5.4c-4-7.1-8-14.2-12-21.3
						C720.7,255.1,726.5,255.3,732.2,256.4z"/>
					<path class="st17" d="M716.9,330.9c0.2-5.5,5.5-9.7,10.9-10.7c5.4-1,11,0.5,16.3,2c-1.7,11.9-14.3,21.1-26.2,19.2
						c-1.3,2-2.6,4-3.8,5.9c-4.1-5-8.2-10-12.3-15C706.7,330.8,711.9,330.4,716.9,330.9z"/>
					<path class="st16" d="M702.7,230.6l-1,2.6c-1.8,2-3.6,4-5.4,6c-2.7-6.4-5.3-12.8-8-19.2c4.1,0,8.3-0.1,12.4-0.1l0-2.4
						c6.7-7.4,19.1-8.9,27.3-3.2c0.6,0.4,1.2,0.9,1.4,1.7c0.1,0.8-0.4,1.5-0.8,2.1c-3.2,4.4-6.6,8.9-11.3,11.7
						C712.9,232.5,707,233.3,702.7,230.6z"/>
					<path class="st18" d="M654.3,381.5L654.3,381.5c5.8-11.6,21.5-17,33.2-11.5c1.3,0.6,2.8,1.5,3.2,3c0.3,1.2-0.1,2.4-0.5,3.5
						c-5.7,13.7-21.9,21.9-36.3,18.7c-3.2,2.2-6.4,4.4-9.6,6.6c-4.6-5.6-7.2-12.8-7.2-20.1C642.8,381.6,648.6,381.5,654.3,381.5z"/>
					<path class="st18" d="M668.6,320.4l0-1.2c-0.7-5.2,3.9-9.9,9-11.1c5.1-1.2,10.4,0.4,15.2,2.5c-3.8,9.4-12.6,16.6-22.5,18.6
						l-0.7-0.1c-0.9,3-5.9,3.6-8.3,1.3c-2.6-2.5-2.9-6.5-2.9-10.2C661.9,320.3,665.2,320.3,668.6,320.4z"/>
					<path class="st16" d="M651.3,277.1L651.3,277.1c2.9-7.4,11.1-11.6,19-12c7.9-0.5,15.6,2.1,23,4.9
						c-4.9,17.3-24.3,29.1-41.9,25.6c-2.5,3.5-6.1,6.1-10.2,7.4c-2.7-7-5.3-13.9-8-20.9c-0.5-1.3-1-2.9-0.1-4c0.8-1,2.2-1.1,3.5-1.1
						C641.5,277,646.4,277,651.3,277.1z"/>
					<path class="st16" d="M598.6,346.3c1.1-7.9,10-13.9,18.3-13.4c9.2,0.6,17.1,6.9,22.9,14.1c-6,12-20.1,19.5-33.4,17.6
						c-3-0.4-6.6-2.8-5.9-5.4c-2.2,1.2-3.1,3.9-4.4,6.1c-1.3,2.3-4.2,4.5-6.5,3.1c-1.1-0.6-1.6-1.8-2.1-3
						c-2.1-5.3-3.2-11.1-3.3-16.8c0-1.9,0.3-4.1,2-4.9c1.1-0.5,2.3-0.2,3.4,0.1C592.6,344.7,595.6,345.5,598.6,346.3z"/>
					<path class="st16" d="M605,468.5c-2,3.6-5.2,6.6-9,8.4c-2.7-4.9-5.3-9.8-8-14.7c-1.1-2-2.1-4.6-0.6-6.2c1-1.1,2.8-1.2,4.3-1.2
						c4.5,0.1,9.1,0.1,13.6,0.2l0-1.7c2.2-7.2,9.9-11.8,17.4-12.6c7.5-0.8,15,1.4,22.2,3.9c-5.2,16-22.8,26.8-39.4,24.3L605,468.5z"
						/>
					<path class="st16" d="M598.5,254.1c-1.1,2.5-2.8,4.6-5.1,6.1c-3.1-3.8-6.1-7.7-9.2-11.5c-1.4-1.8-2.8-4.6-1-6
						c0.8-0.6,1.8-0.6,2.8-0.6c2.5,0,5.1,0.1,7.6,0.1l0-0.4c5.3-11.9,22.5-16.2,32.8-8.4C622.5,245.1,610.8,253.8,598.5,254.1z"/>
					<path class="st17" d="M584.5,292.3l0-0.4c1.9-4.6,7.1-7.2,12.1-7.2c5,0.1,9.7,2.4,13.8,5.2c-2.1,11.1-14.8,18.7-25.7,16
						c-1.5,1.8-3,3.7-4.5,5.5c-0.5,0.6-1.1,1.3-2,1.4c-1.2,0.1-2.1-1.2-2.6-2.3c-2.6-5.4-4.9-10.9-6.8-16.5
						C573.9,292.6,579.2,292,584.5,292.3z"/>
					<path class="st17" d="M571.8,415.5c3-4.6,7.8-7.9,13.2-9c2.6-0.5,5.4-0.5,7.7,0.7c6.5,3.4,4.9,14-1.1,18.2
						c-5.2,3.6-11.8,3.8-18.2,3.5c-1.8,2-4,3.5-6.5,4.5c-2.4-5.9-4.9-11.7-7.3-17.5C563.7,415.6,567.7,415.6,571.8,415.5z"/>
					<path class="st17" d="M537.3,263.7c3-4.3,8.7-6.4,14-5.8c5.5,0.6,10.6,3.6,14.7,7.4c1,0.9,2,2.1,1.9,3.4
						c-0.1,1.1-0.9,2-1.7,2.7c-4.6,4.5-9.5,9.2-15.6,11.2c-4.9,1.6-10.9,0.8-14.6-2.5c-2,3.9-5.1,7.1-8.9,9.1
						c-0.7-7.4-3.1-14.7-6.8-21.2c-0.9-1.6-1.9-3.7-0.6-5c0.9-0.9,2.3-0.8,3.5-0.7C527.8,262.7,532.6,263.2,537.3,263.7z"/>
					<path class="st16" d="M534.2,338c-2.2,2.3-4.4,4.6-6.5,6.9c-0.9,1-2.3,2-3.5,1.4c-0.8-0.4-1.1-1.3-1.3-2.1c-2-6.7-4-13.4-6-20
						c-0.2-0.7-0.4-1.4,0-2c0.5-0.8,1.7-0.7,2.6-0.6c5.9,1.1,11.8,2.1,17.8,3.2l0.7-1.2c0.3-3.7,4.3-5.9,8-6.8
						c10.2-2.4,21.7,1,28.9,8.6c-4.6,7.2-11.5,12.9-19.4,16.1c-7,2.8-16.3,3.1-20.6-3L534.2,338z"/>
					<path class="st18" d="M528.5,379.5l0.2-0.9c-0.1-1.6,1.1-3,2.4-4c9.3-7.2,23.2-5.3,33,1.3c0.7,0.4,1.4,1,1.6,1.8
						c0.2,0.8-0.2,1.5-0.6,2.2c-3.8,6.6-10.5,11.4-18,12.7c-7,1.2-14.4-0.5-20.1-4.8c-3.1,1.9-6.3,3.8-9.5,5.8
						c-0.4,0.2-0.8,0.5-1.2,0.4c-0.6-0.1-0.9-0.8-1-1.4c-1.3-5.3-2.6-10.6-3.9-15.9C517.2,377.2,522.8,378.1,528.5,379.5z"/>
					<path class="st16" d="M520.6,502.2l0.1-1c6.8-9.4,21.8-11.5,30.9-4.2c0.3,14.2-16.3,25.9-29.6,21l-1-1.1
						c-2.8,2.4-5.5,4.7-8.2,7c-0.8-8.1-3.1-16-6.7-23.4C510.9,501,515.7,501.6,520.6,502.2z"/>
					<path class="st18" d="M502.1,236.8c-2.5,3.9-5,7.9-7.5,11.9c-6.7-6.1-11.9-13.7-15.1-22.1c4.3-2.7,9.4-4.1,14.4-3.9v-0.1
						c5.9-18,31.7-25.6,46.5-13.8C535.3,224.8,519.1,236.7,502.1,236.8L502.1,236.8z"/>
					<path class="st18" d="M495.3,437.6c-2.9,3.1-6.4,5.6-10.3,7.3c-1.9-6.7-3.9-13.4-5.8-20.1c-0.2-0.7-0.4-1.5,0.1-2.1
						c0.4-0.5,1.2-0.6,1.9-0.6c6.2,0,12.5,0.1,18.7,0.1c10.9-9.6,28.6-10.6,40.4-2.1c-8.8,13.4-25.4,21.1-41.3,19.3
						C497.6,439.2,496,438.6,495.3,437.6z"/>
					<path class="st16" d="M510,356.9c-2.6,7.7-8.8,14-16.4,16.9c-7.6,2.8-16.4,2-23.4-2.1l-0.2-0.2c-3.6,3-6.8,6.4-9.7,10.1
						c-0.2-7-2.8-13.9-7.1-19.5c5.1,0.5,10.2,1,15.4,1.5l0.9-1.1C479,350.9,497.8,348.3,510,356.9z"/>
					<path class="st16" d="M463.1,298.6L463.1,298.6c4.5-6.1,11.9-9.9,19.5-10c7.5,0,15,3.7,19.5,9.7c0.2,0.3,0.5,0.7,0.5,1.1
						c0,0.5-0.3,1-0.6,1.4c-4.3,5.9-9.2,11.6-15.6,15c-6.2,3.2-14.2,3.8-20-0.1c-3.7,2.7-7.7,4.8-12,6.4c-1.5-8.4-3.1-16.8-4.6-25.2
						c-0.1-0.4-0.1-0.8,0-1.1c0.4-0.9,1.6-0.8,2.6-0.5C456,296.5,459.6,297.6,463.1,298.6z"/>
					<path class="st17" d="M443.7,278.5l-0.1,0.3c-4.3,3.5-9.5,5.8-14.9,6.5c-1.3-7.2-2.6-14.4-3.8-21.6c5.5,1.9,11.3,2.9,17.2,3.2
						l0.1-1.3c4.2-5.8,11.1-9.6,18.3-10c7.2-0.4,14.5,2.7,19.2,8.1c0.5,0.6,1.1,1.3,1.1,2.1c0.1,1.1-0.8,2.1-1.7,2.8
						C469.7,277.2,456.2,280.9,443.7,278.5z"/>
					<path class="st17" d="M425.9,397.8L425.9,397.8c4.5-6.1,11.9-9.9,19.5-10c7.5,0,15,3.7,19.5,9.7c0.2,0.3,0.5,0.7,0.5,1.1
						c0,0.5-0.3,1-0.6,1.4c-4.3,5.9-9.2,11.6-15.6,15c-6.2,3.2-14.2,3.8-20-0.1c-3.6,2.7-7.7,4.8-12,6.4c-1.5-8.4-3.1-16.8-4.6-25.2
						c-0.1-0.4-0.1-0.8,0-1.1c0.4-0.9,1.6-0.8,2.6-0.5C418.8,395.6,422.3,396.7,425.9,397.8z"/>
					<path class="st18" d="M425.7,504.9c-5.7,5.1-12.2,9.3-19.2,12.3c-2.9-6.9-5.1-14.1-6.6-21.4c-0.3-1.4-0.5-2.9,0.3-4
						c0.9-1.2,2.6-1.4,4.1-1.5c5.8-0.4,11.6-0.5,17.4-0.4l0-1.8c11.6-17.1,39.2-20.2,54.3-6.1C465.4,498.3,444.9,507.6,425.7,504.9z
						"/>
					<path class="st18" d="M404.1,354.5l0.1-0.9c9.5-11.6,28.2-14.2,40.5-5.6c-2.6,7.7-8.8,14-16.4,16.9c-7,2.6-15.1,2.1-21.8-1.2
						c-3.1,2.7-6,5.8-8.5,9c-0.2-7-2.8-13.9-7.1-19.5C395.4,353.7,399.8,354.1,404.1,354.5z"/>
					<path class="st18" d="M393,313l0.1-1.3c4.2-5.8,11.1-9.6,18.3-10c7.2-0.4,14.5,2.7,19.2,8.1c0.5,0.6,1.1,1.3,1.1,2.1
						c0.1,1.1-0.8,2.1-1.7,2.8c-9.5,8.4-23,12.1-35.5,9.8l-0.1,0.3c-4.3,3.5-9.5,5.8-14.9,6.5c-1.3-7.2-2.6-14.4-3.8-21.6
						C381.4,311.6,387.2,312.7,393,313z"/>
					<path class="st17" d="M397.4,229.6c-0.2-5.3,5.4-9.5,10.8-9.5c5.4,0,10.2,3,14.5,6.3c-3.2,10-15.3,16.1-25.2,12.9h0
						c-0.6,2.7-2,5.2-4.1,7c-1.9-5.1-3.9-10.2-5.8-15.3C390.8,230.5,394.1,230,397.4,229.6z"/>
					<path class="st16" d="M385.6,447.4c1.8-6.9,8.7-11.9,15.9-12.9c7.4-1.1,14.9,1.4,21.5,4.8c-1.9,15.9-18.7,28.3-34.4,25.5
						c-3.7,3.5-7.4,7-11.1,10.5c0.1-11.4-3.3-22.7-9.6-32.2C374,442.3,380.4,443.9,385.6,447.4z"/>
					<path class="st16" d="M348.5,270.4c7.4-3.7,15-7,23.1-8.4c8.4-1.4,17.3-0.6,24.7,3.6c0.8,0.5,1.7,1,2.1,1.9c1,1.8,0,4-1.1,5.7
						c-5.7,8.5-15,14.5-25,16.2c-9.5,1.6-19.5-0.6-27.4-6c-5.5,2.8-11,5.6-16.6,8.4c-1-6-1.9-11.9-2.9-17.9
						c-0.1-0.8-0.3-1.7,0.1-2.4c0.6-1.2,2.2-1.3,3.6-1.3C335.6,270.3,342,270.4,348.5,270.4z"/>
					<path class="st18" d="M360.4,411.7l-0.1,0.3c-4.3,3.5-9.5,5.8-14.9,6.5c-1.3-7.2-2.6-14.4-3.9-21.5c5.5,1.8,11.4,2.9,17.2,3.1
						l0.1-1.3c4.2-5.8,11.1-9.6,18.3-10c7.2-0.3,14.5,2.7,19.2,8.1c0.5,0.6,1.1,1.3,1.1,2.1c0.1,1.1-0.8,2.1-1.7,2.8
						C386.4,410.4,372.9,414,360.4,411.7z"/>
					<path class="st17" d="M324.2,352.6c7.4-3.7,15-7,23.1-8.4c8.4-1.4,17.4-0.7,24.7,3.6c0.8,0.5,1.7,1,2.1,1.9c1,1.8,0,4-1.1,5.7
						c-5.7,8.5-15,14.5-25.1,16.2c-9.4,1.6-19.5-0.6-27.4-5.9c-5.5,2.8-11,5.6-16.6,8.4c-1-6-2-11.9-2.9-17.9
						c-0.1-0.8-0.2-1.7,0.1-2.4c0.6-1.2,2.3-1.3,3.6-1.3C311.3,352.5,317.8,352.5,324.2,352.6z"/>
					<path class="st16" d="M323.3,498.5L323.3,498.5c0.1-4.9,4.7-8.7,9.5-9.4c4.8-0.7,9.6,1.1,13.9,3.4c0.9,0.5,1.9,1.1,2.1,2.1
						c0.2,0.8-0.1,1.6-0.4,2.3c-1.9,4.9-5.1,9.5-9.8,12.1c-4.2,2.2-9.6,2.4-13.6-0.1c-1.6,3.3-4,6.3-6.9,8.6
						c-3.1-4.9-5.2-10.5-6.1-16.2c-0.1-0.7-0.2-1.5,0.2-2.1c0.5-0.6,1.5-0.7,2.3-0.7C317.5,498.4,320.4,498.5,323.3,498.5z"/>
					<path class="st18" d="M284.5,408.6l0-0.1c2.4-4.2,9.1-8.5,13.9-8.4c4.8,0,9.5,2,13.7,4.3c-2.9,4.6-5.8,9.4-10.1,12.7
						c-4,3.1-9.6,4.7-14.3,3c-0.6,1.9-1.8,3.6-3.3,4.9c-0.5,0.4-1.1,0.8-1.8,0.6c-0.6-0.1-1-0.8-1.4-1.3c-2.4-4.1-4.9-8.1-7.3-12.2
						C276.6,409.5,280.7,408.1,284.5,408.6z"/>
					<path class="st18" d="M325.8,436c-1,11.7-12.3,21.6-24.1,20.9l-1.2-0.6c-1.5,2.9-3.1,5.8-4.6,8.6c-3.9-4.5-7.8-9-11.8-13.5
						c4.3-1.3,9-1.8,13.5-1.3c0.3-5.6,4.9-10.4,10.2-12.5C313.5,435.3,319.8,435.5,325.8,436z"/>
					<path class="st18" d="M274.1,337.2c-1.4,2.2-2.9,4.4-4.3,6.6c-0.5,0.8-1,1.6-1.9,1.9c-2,0.8-3.9-1.4-4.9-3.3
						c-2.2-4.1-4.4-8.1-6.7-12.1c-0.3-0.5-0.5-1-0.4-1.5c0.2-0.6,0.8-0.9,1.3-1.1c4-1.5,8.3-2.2,12.6-2.2l0.4-0.9
						c0.9-5.7,4.9-10.8,10.3-13c5.4-2.1,11.8-1.3,16.4,2.2C297.2,326,286.2,337.1,274.1,337.2z"/>
					<path class="st16" d="M242.7,405.9c-0.3-4.9,3.9-9.2,8.5-10.6c4.7-1.5,9.8-0.8,14.8-0.1c2.1,11.3-7.6,23.2-19,24
						c-1.2,3.1-3.3,5.8-6.1,7.6c-3.9-5.9-7.6-11.9-11.2-18C233.6,406.2,238.3,405.2,242.7,405.9z"/>
					<path class="st17" d="M214.7,482.1l0-1.1c-0.6-6.5,5.2-12.1,11.5-13.8c6.3-1.6,12.9-0.2,19.3,1.2c-2.2,14.8-18.2,26.1-32.9,23
						l-0.6-0.5c-0.9,0.9-1.8,1.8-2.7,2.7c-0.6,0.6-1.4,1.3-2.3,1.3c-1-0.1-1.7-1.1-2.2-2c-1-1.8-2-3.6-3-5.5
						c-0.8-1.6-1.5-3.8-0.1-4.9c0.6-0.4,1.5-0.5,2.3-0.5C207.6,482,211.1,482.1,214.7,482.1z"/>
				</g>
				<g>
				</g>
			</g>
		</g>
		<g id="lionfish_1_">
			<g id="XMLID_16_" class="st19">
				<g>
					<path class="st20" d="M936.3,975.4c0,7.3,1.2,13.2-2.9,19.9c-1.4,2.3-3.3,4.5-4.1,7.1c-0.7,2.2-0.6,4.6-1,6.8
						c-1.1,6.6-7.4,12.5-14.1,11.6c-6.6-0.9-10.8-7.4-13.7-13.4c-2.7-5.6-6.5-12.4-7.3-18.7c0.1,0,0.2,0,0.3,0
						c1.5-6.4,4.5-12.5,8.8-17.5c-0.2-0.1-0.4-0.3-0.6-0.4c3.5-0.6,6.7-2.7,10-4.2c4.9-2.3,10.4-3.4,15.9-3.2
						C936,963.7,936.3,968.7,936.3,975.4z"/>
					<path class="st20" d="M876.1,944.8c0,0-0.1,0-0.1,0c3.3-1.6,7.2-1.3,10.7-2.3c3.5-0.9,7.2-3.9,6.5-7.5
						c-0.4-2.5-2.9-4.2-5.4-4.7c-2.5-0.4-5,0.1-7.5,0.7c-1.4,0.4-2.9,0.7-4.3,1.1l-0.3-0.8c-4.4-2.3-8.8-4.4-13.2-6.5l0.2-0.5
						c10.3-3.2,20-8.1,29.7-12.9c3.4-1.5,8.2-2.9,10.7,1.5c2.9,5.8,1.9,12.1-0.5,17.5c-3.4,6.8-5.8,13.1-10,19.2l-0.7,0.1
						c-0.1-0.2-0.2-0.4-0.3-0.5c-1-1.4-2.7-2.1-4.4-2.7C883.6,945.4,879.8,944.8,876.1,944.8z"/>
					<path class="st21" d="M893.1,988.7c-6.5-0.6-13-1.4-19.5-2.2c-3.8-0.5-7.7-1-11.5-1.6c2.6,0.1,5.4-0.8,7.6-2.3
						c1.8-1.2,3.3-2.6,4.9-4.1c1.6-1.5,3.1-2.9,4.8-4.2c0.8-0.6,1.7-1.2,2.1-2.1c0.3-0.9,0-1.9-0.1-2.8c-0.1-0.7,0-1.4,0.2-2
						c0.8-3.5,3.9-6.4,4.8-10c0.2-0.7,0.3-1.4,0.7-2c0,0,0.1-0.1,0.1-0.1c0.5-0.6,1.3-0.7,2.1-0.9l0,0.1c2.7,6.3,7,11.9,12.4,16.2
						c0.2,0.1,0.4,0.3,0.6,0.4c-4.3,5-7.4,11.1-8.8,17.5C893.3,988.7,893.2,988.7,893.1,988.7z"/>
					<path class="st22" d="M902.1,902.2c-11.3,4.9-22.6,9.7-33.9,14.6c-2,0.9-4,1.7-6,2.6c-1.3,0.5-3.9,1-4.7,2.1l-0.4,0.9
						c-1.6-0.7-3.2-1.4-4.8-2.1c-0.4-0.1-0.7-0.3-1.1-0.4l0.4-1c0.1,0.1,0.3,0.1,0.5,0.1c1.6,0.1,2.5-0.9,3.8-1.5
						c1.7-0.8,3.4-1.2,5-2.1c9.7-3.9,18.9-7.3,28.6-12.1c2.4-1,4.9-1.9,7.8-2.4c1.6-0.4,2.8,0.2,4.3,0.7
						C898,901.1,892.5,906.2,902.1,902.2z"/>
					<path class="st23" d="M893.1,935c0.6,3.6-3,6.6-6.5,7.5c-3.5,0.9-7.4,0.7-10.7,2.3c0,0,0.1,0,0.1,0c-4.3,1.1-8.9,1.4-13.3,1.8
						c-5.2,0.5-10.4,1.1-15.6,1.8c-9.6,1.2-19.2,2.6-28.7,4.3c-0.7,0.1-1.3,0.2-2,0.3c-0.1,0-0.3,0-0.4,0.1l-0.6-0.1
						c3.7-2.8,10-4.3,14.2-5.9c2.5-1,5.1-1.9,7.6-2.9c3-1.1,6-2.2,9-3.2c9.8-3.3,19.7-6.3,29.7-8.8c1.4-0.4,2.9-0.7,4.3-1.1
						c2.5-0.6,5-1.2,7.5-0.7C890.3,930.8,892.7,932.5,893.1,935z"/>
					<path class="st24" d="M891.9,949.7c0.7,1.4,0.5,3.3-0.8,4.1c-0.5,0.4-1.2,0.5-1.8,0.6c-0.8,0.2-1.6,0.3-2.1,0.9
						c-22.7-2.1-45.9-3-68.7-2.4l0-0.3c9.5-1.7,19.1-3.1,28.7-4.3c5.2-0.7,10.4-1.2,15.6-1.8c4.4-0.4,9-0.7,13.3-1.8
						c3.8,0,7.5,0.5,11.1,1.7c1.7,0.5,3.4,1.3,4.4,2.7C891.7,949.4,891.8,949.5,891.9,949.7z"/>
					<path class="st25" d="M887.2,955.3c0,0-0.1,0.1-0.1,0.1c-0.5,0.6-0.6,1.3-0.7,2c-0.9,3.6-4,6.6-4.8,10l-1-0.2
						c-16.3-3.5-32.6-7-48.8-10.6c-4.5-1-8.9-1.8-13.4-2.7c-0.6-0.1-1.2-0.2-1.8-0.3l-0.1-0.7c0.7-0.1,1.3-0.2,2-0.3l0,0.3
						C841.3,952.3,864.5,953.2,887.2,955.3z"/>
					<path class="st23" d="M880.5,967.2l1,0.2c-0.1,0.7-0.2,1.3-0.2,2c0.1,0.9,0.4,1.9,0.1,2.8c-0.3,1-1.2,1.6-2.1,2.1
						c-1.7,1.2-3.3,2.7-4.8,4.2l-0.9-0.5c-3.8-1.9-7.5-4-11.4-5.8c-7.3-3.3-14.9-5.9-22.5-8.5c-7.4-2.6-14.4-5.9-21.6-9l0.1-0.7
						c4.5,0.9,8.9,1.7,13.4,2.7C848,960.2,864.2,963.7,880.5,967.2z"/>
					<path class="st26" d="M746.7,928.1c-0.7,1.4-0.2,3.5,1.3,4.1c2.1,0.8,4.6-1.7,3.7-3.7C750.9,926.5,747.7,926.4,746.7,928.1z
						 M875.7,931.3l0.3,0.8c-10,2.5-19.9,5.5-29.7,8.8c-3,1-6,2.1-9,3.2l-0.1-0.3c-12.2-1.7-24.7-3.3-36.7-0.8
						c-3.8,0.8-7.6,2-11.5,2.6c-4.1,0.6-8.3,0.3-12.5,0.5c-7.3,0.3-14.5,1.8-21.3,4.3c-6.6,2.5-12.8,6.1-19.4,8.6
						c-7.2,2.7-14.3,2.8-21.6,4.4l0,0.3c-1.6-0.2-3.1-0.6-4.6-1.2c0.3-6.1,1.3-12.2,2.9-18.2c1.6-5.7,4.8-12.2,10.7-12.9
						c1.3-0.2,2.7,0,3.9-0.7c0.7-0.4,1.2-1.1,1.7-1.8c2.4-3.3,4.8-6.7,7.2-10c0.5-0.6,0.9-1.3,1.6-1.7c0.9-0.5,2.1-0.4,3.2-0.3
						c3.9,0.4,8,0.5,11.7-0.9c2.9-1,5.4-2.9,7.8-4.8c1.3-1,2.5-1.9,3.8-2.9l0.4,0.5c3-2.2,6.7-3.2,10.4-3.6
						c3.5-0.4,7.2-0.3,10.5-0.3c0.3,0,0.6,0,0.9,0c0.2,0.1,0.4,0.1,0.6,0c3.8,0.1,7.5,0.3,11.3,0.7c3.3,0.3,6.7,0.8,10,1.4
						c1.4,0.2,2.8,0.5,4.2,0.8c5.4,1.1,10.7,2.4,16,3.9c4.7,1.4,9.3,2.9,13.8,4.6c3.1,1.1,6.1,2.3,9.1,3.6c0.4,0.1,0.7,0.3,1.1,0.4
						c1.6,0.7,3.2,1.4,4.8,2.1c1.8,0.8,3.7,1.6,5.5,2.5C867,926.9,871.4,929.1,875.7,931.3z"/>
					<path class="st22" d="M875.5,889.2c0.5,0.1,1.1,0.3,1.6,0.3c-2.2,0.1-4.1,2-6.6,3.5c-7.3,5.8-14.1,10.7-22.3,15
						c-2.4,1-6.8,1.9-6.8,5.8c0.4,0.3,0.8,0.5,1.3,0.7l-0.6,1.7c-4.5-1.7-9.1-3.2-13.8-4.6l0.2-0.8c2.6,0.9,5.7-0.6,8.1-1.4
						c12.1-5.3,22.3-12.1,34-18.9C872.1,889.9,873.6,889.1,875.5,889.2z"/>
					<path class="st27" d="M862.1,984.9c-1.6-0.1-3-0.6-4.3-1.5c0,0,0,0.1,0,0.1c-0.5-0.3-0.9-0.6-1.4-0.8c-0.8-0.4-1.7-0.6-2.6-0.9
						c-1-0.4-1.9-1-2.7-1.6c-8.7-5.9-17.4-12-25.9-18.2l-0.4,0.1c-0.9-5.1-6.4-5.7-10.1-8.5c0.2-0.2,0.5-0.4,0.7-0.6l0.6,0.1
						c0.1,0,0.3,0,0.4-0.1l0.1,0.7c0.6,0.1,1.2,0.2,1.8,0.3l-0.1,0.7c7.2,3.1,14.2,6.4,21.6,9c7.6,2.7,15.2,5.2,22.5,8.5
						c3.9,1.8,7.6,3.8,11.4,5.8l0.9,0.5c-1.5,1.5-3.1,2.9-4.9,4.1C867.5,984.1,864.7,985.1,862.1,984.9z"/>
					<path class="st20" d="M857.9,983.5C857.9,983.4,857.9,983.4,857.9,983.5c1.2,0.9,2.7,1.4,4.2,1.5c3.8,0.6,7.6,1.1,11.5,1.6
						l0,0.2c-3.3,6.9-4.8,15.2-10.2,20.9c-1.1,1.1-2.3,2.2-3.8,2.6c-1.1,0.3-2.2,0.4-3.3,0.3c-4.3-0.1-8.6-0.8-12.7-2.2
						c0.3-0.3,0.6-0.7,0.8-1c1.7-2.2,3.4-4.4,5.1-6.6c2-2.6,4-5.2,6-7.9C857.6,990.1,859.6,986.4,857.9,983.5z"/>
					<path class="st22" d="M860.2,909.1l1.1,2.1c-0.9,0.5-1.7,1-2.6,1.5c-0.9,0.5-9.2,4.6-7.4,6.2c0,0,0.1,0.1,0.1,0.1l-0.4,1
						c-3-1.2-6-2.4-9.1-3.6l0.6-1.7c2.4,0.9,5.5,0.1,8-0.7C853.9,912.4,857.1,910.8,860.2,909.1z"/>
					<path class="st28" d="M859.1,884.8C857.7,884.5,853.4,890,859.1,884.8c-6,6.3-12.3,10.6-19.6,16c-4.4,2.4-8.2,4.4-12.1,7.8
						c-0.5,0.5-1,1-0.5,1.5c0.5,0.4,1.1,0.7,1.6,0.9l-0.2,0.8c-5.3-1.6-10.6-2.9-16-3.9l0-0.2c15-4.9,27.2-15,40.8-23.8
						C855,882.9,857,884.3,859.1,884.8z"/>
					<path class="st23" d="M857.9,983.5c1.7,2.9-0.4,6.6-2.4,9.3c-2,2.6-4,5.3-6,7.9l-0.8-0.6c-1-1.6-2-3.1-3-4.7
						c-6.3-9.3-13.8-17.7-21.3-26.1l-0.8-0.4c0.6-1.3,1.1-2.6,1.3-4.1c0.1-1.1,0.1-2-0.1-2.8l0.4-0.1c8.5,6.2,17.2,12.3,25.9,18.2
						c0.9,0.6,1.8,1.2,2.7,1.6c0.8,0.3,1.7,0.5,2.6,0.9C857,982.9,857.5,983.2,857.9,983.5z"/>
					<path class="st25" d="M843.6,1008.3c-1.1,1.3-2.3,2.5-3.6,3.6l-0.2-0.2c-2.7-9.2-6.7-17.5-11.6-25.6c-2.4-4-4.8-8-7.2-11.9
						l-0.9-0.1c0.9-1,1.7-2,2.4-3.1c0.4-0.6,0.8-1.3,1.2-2l0.8,0.4c7.5,8.4,15.1,16.8,21.3,26.1c1,1.5,2,3.1,3,4.7l0.8,0.6
						c-1.7,2.2-3.4,4.4-5.1,6.6C844.2,1007.6,843.9,1008,843.6,1008.3z"/>
					<path class="st22" d="M840,878.5c0.5,0,1.5,1,1.5,1c-8.3,8.2-17.5,14.6-25.7,22.8c-1,1.5-3.9,2.9-3.4,5.3l0,0.2
						c-1.4-0.3-2.8-0.5-4.2-0.8c-3.3-0.6-6.7-1-10-1.4l0.1-1.3c4.3,0.4,7.5-2.3,11.2-4.5c5.8-4.4,11.6-7.8,17-12.6
						C830.3,883.3,834.7,879.5,840,878.5z"/>
					<path class="st24" d="M839.9,1011.6l0.2,0.2c-4.4,3.8-10.1,6.6-15.8,6.8c0-13.5-6.5-26.2-7.9-39.7l-2.2,0c2.2-1.4,4.2-3,6-5
						l0.9,0.1c2.4,4,4.8,8,7.2,11.9C833.2,994.2,837.2,1002.5,839.9,1011.6z"/>
					<path class="st21" d="M837.2,943.8l0.1,0.3c-2.5,0.9-5.1,1.9-7.6,2.9c-4.2,1.6-10.5,3.1-14.2,5.9c-0.2,0.2-0.5,0.4-0.7,0.6
						c3.8,2.8,9.2,3.5,10.1,8.5c0.2,0.8,0.2,1.8,0.1,2.8c-0.2,1.4-0.6,2.8-1.3,4.1c-0.3,0.7-0.7,1.4-1.2,2c-0.7,1.1-1.5,2.1-2.4,3.1
						c-1.7,1.9-3.8,3.6-6,5c-1.1,0.7-2.3,1.3-3.5,1.8c-1,0.4-1.9,0.7-2.9,1c-1.3,0.3-2.7,0.5-4.1,0.4c-1.5-0.1-3-0.6-4.2-1.5
						c-0.7-0.5-1.4-1.2-1.8-1.9c-0.6-1-1-2.2-1.6-3.1c-0.1-0.1-0.2-0.3-0.3-0.4c-2.7-3.2-8.9,1.1-10.4,4.1c-0.1,0.1-0.1,0.3-0.2,0.4
						c-5.8,1.5-12.2,0.8-17.5-2c-2.3-1.2-4.5-2.9-6.9-3.7l0.3-0.7c0.4,0,0.7,0,1.1,0c11.4-0.2,22.7-5.3,31-12.9
						c3.7-3.4,7.3-8.3,5.9-13.2c-7.9,9.1-20.3,12.7-30.6,18.9c-2.7,1.6-5.4,3.6-6.3,6.6l-0.1,0.3c-4.3-2.3-9.9-0.8-14.6-2.4
						c-2.8-1-5.1-3.1-7.8-4.4c-7.6-3.8-16.9-1.2-25.3-2.5l0-0.3c7.3-1.6,14.4-1.7,21.6-4.4c6.6-2.5,12.8-6.1,19.4-8.6
						c6.8-2.6,14-4.1,21.3-4.3c4.2-0.2,8.4,0.1,12.5-0.5c3.9-0.5,7.6-1.8,11.5-2.6C812.5,940.5,825,942.2,837.2,943.8z"/>
					<path class="st23" d="M824.2,1018.7c-2.4,0.1-4.8-0.3-7.1-1.2c-2.6-1-4.9-2.8-7-4.8c0,0-0.1-0.1-0.1-0.1l0,0
						c-0.7-9.8-1.4-19.7-2-29.5l-0.4-1.4c1-0.2,2-0.6,2.9-1c1.2-0.5,2.4-1.1,3.5-1.8l2.2,0C817.7,992.5,824.2,1005.2,824.2,1018.7z"
						/>
					<path class="st29" d="M825.9,878.5c-1.3,0.1-2.8,1.8-3.7,2.6c-4.1,3.7-8.4,7.1-12.3,11c-1.9,1.9-4.9,2.9-6.8,4.9
						c-1.9,2.4-5.3,3.9-5.8,7.3c0.3,0.1,0.6,0.1,1,0.1l-0.1,1.3c-3.7-0.4-7.5-0.6-11.3-0.7c0,0,0,0,0,0c1.5-0.3,3.5-2.7,4.7-3.6
						c1.6-1.3,3.2-2.6,4.8-3.9c3.1-2.5,6.2-5.1,9.3-7.6c3.5-2.9,7.1-5.8,10.6-8.7C818.8,879.1,822.8,876.3,825.9,878.5z"/>
					<path class="st24" d="M808.1,983.1c0.7,9.8,1.3,19.7,2,29.5l0,0c-2.9-2.8-5.4-6-7.4-9.4c-1.7-2.9-3.3-6.3-6.4-7.6l0.1-0.2
						c1.2-4.7,2.2-9.5,2.8-14.3l0.3-0.5c1.2,0.9,2.7,1.4,4.2,1.5c1.4,0.1,2.7,0,4.1-0.4L808.1,983.1z"/>
					<path class="st22" d="M799.7,867.8c-2-0.5-2.4,6.7-0.1,0.4c-2.3,6.9-4.9,13.8-8,20.4c-1.4,3-3.1,6-4.3,9.1
						c-0.4,0.9-2.9,6.6-1,7.2c-0.3,0-0.6,0-0.9,0c-3.3,0-7-0.1-10.5,0.3l-0.1-1.1c0.8-2.3,1.7-4.7,2.7-7.2
						c4.9-9.7,12.1-18.4,14.6-29.1C794.4,866.8,797.3,866.8,799.7,867.8z"/>
					<path class="st27" d="M799.4,980.6l-0.3,0.5c-0.6,4.8-1.5,9.6-2.8,14.3l-0.1,0.2c-0.1,0-0.1-0.1-0.2-0.1
						c-1.6-0.6-3.5-0.6-5.1-1.4c-1.6-0.8-2.7-3-1.5-4.3c-0.6,0.7-1.5,0.4-2.4-0.3l1.9-0.1c1.6-4.7,3.6-9.3,6.1-13.7l0.7-0.5
						c0.1,0.1,0.2,0.2,0.3,0.4c0.6,1,1,2.1,1.6,3.1C798,979.4,798.7,980.1,799.4,980.6z"/>
					<path class="st23" d="M798.8,947.2c1.4,4.9-2.1,9.7-5.9,13.2c-8.3,7.6-19.6,12.6-31,12.9v-0.1c-0.1,0-0.1-0.1-0.2-0.1l0.1-0.3
						c0.9-3,3.7-5,6.3-6.6C778.6,959.9,790.9,956.3,798.8,947.2z"/>
					<path class="st25" d="M785.1,979.7c0.1-0.2,0.1-0.3,0.2-0.4c1.5-2.9,7.7-7.2,10.4-4.1l-0.7,0.5c-2.4,4.4-4.5,9-6.1,13.7
						l-1.9,0.1c-1.1-1-2.2-2.6-2.4-3.1C784,984.6,784.3,981.5,785.1,979.7z"/>
					<path class="st28" d="M774.7,904.1l0.1,1.1c-3.8,0.4-7.4,1.4-10.4,3.6l-0.4-0.5c1.6-1.2,3.2-2.5,4.9-3.7l-0.1-0.4
						c-2.1-8.2-5-15.5-6.9-23.7c0-0.5,0.5-1,0.5-1c2.4-0.5,4.4,0.5,5.8,2.4C772.1,888.7,772.6,896.9,774.7,904.1z"/>
					<path class="st30" d="M751.7,928.4c0.9,2.1-1.7,4.6-3.7,3.7c-1.5-0.6-1.9-2.7-1.3-4.1C747.7,926.4,750.9,926.5,751.7,928.4z"/>
				</g>
				<g>
				</g>
			</g>
		</g>
		<g id="fish1_1_">
			<g id="XMLID_10_" class="st31">
				<g>
					<path class="st32" d="M444.1,1427.7c-7,1.5-16.4,2.4-18.8,2c-1.4-0.2-2.7-0.5-3.9-0.9c-11.8-3.4-19.4-12.8-20.5-25.4
						c-0.1-1.3-0.2-2.7,0.2-3.9c0.9-3.1,4-4.9,7-6.2c3.2-1.4,6.8-2.7,10.2-2c1.6,0.3,3.1,0.8,4.5,1.5c9.9,4.5,16.2,16.1,24,22.8
						c2.8,2.4,6.3,5.4,5.1,8.9C451.6,1425.7,448.3,1426.8,444.1,1427.7z M428.3,1406.8c3.6-1.4-1.1-8.2-4.4-5.4
						C421.6,1403.6,426.2,1407.7,428.3,1406.8z"/>
					<path class="st30" d="M424,1401.5c3.2-2.8,8,4,4.4,5.4C426.2,1407.7,421.6,1403.6,424,1401.5z"/>
					<path class="st33" d="M407.7,1462.3l0.2,0.6c-5.4,7.6-13.2,13.5-22,16.5c-1.5,0.5-3.1,1-4.6,0.3c-2.3-0.9-2.8-4.1-1.8-6.3
						c0.9-2,4.2-6,6.2-7.1v-0.2C393.1,1466.3,400.7,1465,407.7,1462.3z"/>
					<path class="st33" d="M405.4,1435.4l0.1,0.4c-4.7,0.6-9.6,2.6-14.4,2.4c-3.5-0.2-7.2-1.8-9-4.8c-1.1-2-1.4-4.3-2.5-6.3
						c-2.4-4.4-8.5-7.2-8.2-12.2c7.5,2.6,15.1,5.1,22.6,7.7C403.8,1426,398.9,1429.1,405.4,1435.4z"/>
					<path class="st34" d="M395.9,1375c1.2,1.5,3.6,3.5,4,5.5c-12-3.2-24.8-2.8-36.7,1.4c-13.9,5.6-23.6,15.7-35.4,24.6
						c-7.3-1-14.4-2.6-21.4-4.9c4.5-1,8-3.8,11.2-6.9c-2-0.6-4.2-1.5-5.9-2.7c5.7-0.3,11.3-1.6,16.6-3.7c-2.2-0.9-4.5-1.8-6.7-2.7
						c5.7-0.9,11.3-2.5,16.7-4.7c-2-1.2-4.1-2.4-6.1-3.6c6.1,0.9,12.3,0.7,18.3-0.7c-1.8-1.2-3.3-2.9-4-5c5.2-0.5,10.5-0.5,15.7,0
						c-2.1-1.2-3.9-2.9-5.3-4.9c6.2,0.4,12.3,1.6,18.2,3.6c-0.6-2.3-1.3-4.6-1.9-7c0.2,0.8,11.1,6.2,12.4,6.8
						c1.3-1.4,1.6-3.3,0.8-5.1c1.6,0.2,2.8,1.5,3.8,2.8C392,1370.2,393.9,1372.6,395.9,1375z"/>
					<path class="st33" d="M358.5,1459.3l-0.1,0.2c-3.5,0-6.9-0.1-10.4-0.3c-10.3-0.6-20.6-1.2-30.9-1.8c3-2.5,6.1-4.8,9.4-7
						c2.4-1.6,6.3-5.3,9.3-5.3l0.1-0.1c2.8,1.5,5.6,3.2,8.3,5C348.9,1453.2,353.6,1456.6,358.5,1459.3z"/>
					<path class="st35" d="M350.2,1451.9c9,1.8,18.2,2.8,27.4,2.9c3.8,0,7.7-0.1,11.4-1.2c3.3-1,6.4-2.7,9.4-4.4
						c8.9-5.1,18.4-10.7,22.9-19.9l0.1-0.4c1.3,0.4,2.6,0.7,3.9,0.9c2.3,0.4,11.8-0.5,18.8-2c-1.7,7.8-9,15.5-14.6,20.8
						c-6.2,5.9-13.5,10.6-21.5,13.7c-0.1,0-0.2,0.1-0.3,0.1v0c-7,2.6-14.5,4-22,3.9c-8.9-0.1-17.7-2-25.5-6.1
						c-0.5-0.3-1.1-0.6-1.6-0.9c-4.9-2.7-9.6-6.1-14.4-9.3l0.1-0.2C346,1451,348.1,1451.5,350.2,1451.9z"/>
					<path class="st33" d="M303.6,1439.1c2.9,2.3,6.7,2.2,10.5,1.8l0.1,0.6c-8.2,3.1-16.2,3.8-25,5.3c-6.3,1.4-11.9,4.1-17.8,6.7
						c2.3-1.5-1.5-5.2-0.9-0.2c-0.8-6.2,1.4-12.7,5.9-17l0.2-0.4c1.2,0.5,2.5,0.8,4.1,0.9c5.8,0.3,13.9-1.3,19.4-3.8
						C300.8,1435.3,301.8,1437.6,303.6,1439.1z"/>
					<path class="st34" d="M299.4,1431.2c0.2,0.6,0.4,1.2,0.6,1.8c-5.5,2.4-13.6,4.1-19.4,3.8c-1.6-0.1-2.9-0.4-4.1-0.9
						c-4.2-1.7-6.3-5.8-9.6-10.2c-1.3-1.7-2.6-3.5-3.3-5.6c-0.6-2.1-0.4-4.6,1.1-6.2c11.6,0.3,23.1,2.2,34.2,5.7l0.4,0.2
						C297.2,1422.1,298.9,1429.7,299.4,1431.2z"/>
					<path class="st36" d="M405.4,1435.8l-0.1-0.4c-6.4-6.3-1.6-9.4-11.4-12.8c-7.5-2.6-15.1-5.1-22.6-7.7c-0.2,5,5.9,7.7,8.2,12.2
						c1.1,2,1.3,4.3,2.5,6.3c1.8,3.1,5.4,4.7,9,4.8C395.8,1438.4,400.7,1436.4,405.4,1435.8z M327.8,1406.4
						c11.8-8.9,21.5-18.9,35.4-24.6c11.9-4.2,24.7-4.6,36.7-1.4c8.4,2.2,16.4,6.3,23.3,12l-0.3,0.3c-1.4-0.6-2.9-1.1-4.5-1.5
						c-3.5-0.7-7,0.5-10.2,2c-2.9,1.3-6,3.1-7,6.2c-0.4,1.3-0.3,2.6-0.2,3.9c1.1,12.6,8.7,22,20.5,25.4l-0.1,0.4
						c-4.5,9.2-14,14.9-22.9,19.9c-3,1.7-6.1,3.4-9.4,4.4c-3.7,1.1-7.6,1.2-11.4,1.2c-9.2-0.1-18.4-1-27.4-2.9
						c-2.1-0.4-4.2-0.9-5.9-2.1l-0.1,0.2c-2.7-1.8-5.5-3.6-8.3-5c-5.3-2.8-10.8-4.7-16.9-4.5c-1.6,0.1-3.2,0.2-4.9,0.4
						c-3.8,0.4-7.6,0.5-10.5-1.8c-1.8-1.5-2.9-3.7-3.6-6c-0.2-0.6-0.4-1.2-0.6-1.8c-0.5-1.6-2.2-9.2-0.2-11.5
						c0.1-0.1,0.2-0.2,0.3-0.2l0.1,0.1c7.8-0.3,14-4.2,20.9-8.1C323,1409.9,325.4,1408.2,327.8,1406.4z"/>
					<path class="st33" d="M270.4,1453.3c-0.6-5,3.2-1.3,0.9,0.2c-0.3,0.1-0.6,0.2-0.8,0.4C270.5,1453.7,270.5,1453.5,270.4,1453.3z
						"/>
				</g>
				<g>
				</g>
			</g>
		</g>
		<g id="flying_fish_1_">
			<g id="XMLID_6_">
				<g>
					<path class="st37" d="M1194.4,319.1c-5,0-9.8-1.6-14.2-4.1c-4.3-2.4-8.2-5.7-11.8-9c-2-1.8-4-3.6-6.5-4.4
						c3.9-0.9,7.6-2.5,8.7-5.7c2.9-0.3,5.8-0.7,8.7-1.3l0.5,0.3c-1.6,1.4-3.2,2.9-4.5,4.5c3.4,4.6,7.4,8.8,12,12.4
						C1190,313.8,1193,315.9,1194.4,319.1z"/>
					<path class="st38" d="M1164.6,294.5c-0.1,0-0.1,0-0.2,0l0-0.2c3.4-1.3,6.9-2.6,10.3-3.9c4.7-1.8,9.6-3.6,14.6-3.2
						c-3,2.5-6.5,5-9.7,7.7l-0.5-0.3c-2.9,0.6-5.8,1-8.7,1.3c0,0,0-0.1,0-0.1C1168.6,295.4,1166.6,294.9,1164.6,294.5z"/>
					<path class="st39" d="M1161.9,301.6c-0.7,0.2-1.4,0.3-2.1,0.4c-2.4,0.4-4.6,0.5-6.2,0.6c-5.2,0.2-10.3,0.4-15.5,0.6
						c-4.9,0.2-9.9,0.5-14.8,0.9c-2.1,0.1-4.2,0.3-6.3,0.4c-0.1,0-0.2,0-0.4,0c-6.6,0.5-13.1,0.3-19.7,0c-5.1-0.2-10.1-0.3-15.2-0.5
						c-2-0.1-9.7-1.1-15.3-3.1l0-0.5c17.5,1.1,35,0.6,52.4-1.3c5-0.6,10-1.2,15.1-1.6c10.3-0.6,20.9,0.2,30.6-3c2,0.4,4,0.8,6,1.2
						c0,0,0,0.1,0,0.1C1169.4,299,1165.7,300.7,1161.9,301.6z"/>
					<path class="st40" d="M1074.8,293.4c-0.8-0.6-2-0.6-2.9-0.1c-0.9,0.5-1.5,1.7-1.3,2.7c0.1,0.5,0.3,1,0.8,1.3
						c0.3,0.2,0.6,0.3,0.9,0.3c1.2,0.2,2.5-0.3,3.2-1.3C1076,295.4,1075.7,294,1074.8,293.4L1074.8,293.4z M1066.5,300.4l0,0.5
						c-4.8-1.7-8.2-4.3-5.4-7.6c1.8-2.2,7.5-2.5,10.1-3.2c4.9-1.2,9.9-2,14.9-2.2c1.1-0.1,2.3-0.1,3.4-0.1l0.7,0.2
						c-0.5,1.4-0.9,2.9-1.2,4.4l0.2,0.5c0.3,0.1,0.5,0.2,0.8,0.3v0c10.2,3.2,21,5.2,31.4,3c1-0.2,2-0.5,2.7-1.1
						c1.1-1,1.3-2.7,1.3-4.2c0-1.5,0-3-0.1-4.5c4.5,0.9,8.9,1.9,13.4,2.8c7.6,1.6,15.3,3.2,22.9,4.8c1,0.2,2.1,0.4,3.1,0.6
						c0.1,0,0.1,0,0.2,0c-9.7,3.2-20.4,2.3-30.6,3c-5.1,0.3-10.1,1-15.1,1.6C1101.5,301,1083.9,301.5,1066.5,300.4z"/>
					<path class="st41" d="M1161.4,293.7l0,0.2c-7.6-1.6-15.3-3.2-22.9-4.8l0-0.2c2.2-0.5,4.4-1.3,6.4-2.3c3.3-1.6,4.6-2.6,7.7-0.9
						C1155.7,287.5,1158.7,291.2,1161.4,293.7z"/>
					<path class="st42" d="M1159.8,302l0,0.1c-2.6,2-5.3,3.9-7.9,5.9c-0.2,0.2-0.4,0.3-0.7,0.4c-0.4,0.1-0.8-0.1-1.1-0.2
						c-4-1.8-8-3.5-12-5c5.1-0.3,10.3-0.5,15.5-0.6C1155.2,302.5,1157.4,302.3,1159.8,302z"/>
					<path class="st43" d="M1142.4,319c0.1,0.3-0.1,0.5-0.3,0.8c-4,6.2-8.5,12.9-15.4,15.5c-0.2,0.1-0.5,0.2-0.8,0.1
						c-0.2-0.1-0.4-0.2-0.5-0.4c-0.2-0.2-0.4-0.4-0.5-0.6c-6.5-7.9-9.5-18.6-7.8-28.7l-0.6-0.1c0-0.2,0.1-0.4,0.1-0.6l0-0.4
						c0.1,0,0.2,0,0.4,0c2.1-0.2,4.2-0.3,6.3-0.4l0.1,0.9c6.8,3.6,13.1,8.2,18.7,13.5C1142.2,318.5,1142.4,318.7,1142.4,319z"/>
					<path class="st44" d="M1125.1,286.3c0.1,1.5,0.1,3,0.1,4.5c0,1.5-0.2,3.2-1.3,4.2c-0.7,0.7-1.7,0.9-2.7,1.1
						c-10.4,2.2-21.2,0.2-31.4-3v0l0.1-0.3c3.4-1.1,6.7-2.1,10.1-3.2c2-0.6,4.1-1.3,6-2.1c6.6-2.7,12.5-7.1,16.9-12.8l0.1,0
						C1124.2,278.5,1124.8,282.4,1125.1,286.3z"/>
					<path class="st45" d="M1124.9,334.4l-0.9,0.9c-2,0.9-4.6,1.3-5.8,3.3c-3.5-10.6-4.1-22.1-1.7-33l0.6,0.1
						C1115.5,315.7,1118.4,326.5,1124.9,334.4z"/>
					<path class="st46" d="M1102.9,267c2.5-3.3,5-6.6,7.7-9.8c0.6-0.8,1.4-1.6,2.4-1.4c0.7,0.1,1.2,0.7,1.7,1.3
						c3.9,5.3,6.7,11.3,8.5,17.6l-0.1,0c-4.4,5.6-10.3,10.1-16.9,12.8c-2,0.8-4,1.4-6,2.1c-3.4,1.1-6.7,2.1-10.1,3.2l-0.1,0.3
						c-0.3-0.1-0.5-0.2-0.8-0.3l-0.2-0.5c0.3-1.5,0.7-3,1.2-4.4c2-5.6,5.3-10.7,8.8-15.6C1100.2,270.6,1101.5,268.8,1102.9,267z"/>
					<path class="st47" d="M1093.2,244.3c5,5.7,13.1,14.4,9.7,22.7c-1.3,1.8-2.7,3.6-4,5.5c-3.5,4.9-6.8,10-8.8,15.6l-0.7-0.2
						c-1.1,0-2.3,0-3.4,0.1c-9.3-6.7-12.4-20.2-16.9-30c-3.4-7.3-5.6-15.1-6.6-23.2c-0.5-4-0.1-8.2-1.3-12c4.6,1.3,9,3.2,13.2,5.6
						C1081.5,232.5,1087.7,238.1,1093.2,244.3z"/>
					<path class="st30" d="M1074.8,293.4c0.9,0.6,1.2,2,0.6,3c-0.6,1-2,1.5-3.2,1.3c-0.3-0.1-0.6-0.1-0.9-0.3
						c-0.4-0.3-0.7-0.8-0.8-1.3c-0.2-1.1,0.4-2.2,1.3-2.7C1072.8,292.8,1073.9,292.8,1074.8,293.4L1074.8,293.4z"/>
				</g>
				<g>
				</g>
			</g>
		</g>
		<g id="fish2_1_">
			<g id="XMLID_8_" class="st13">
				<g>
					<path class="st48" d="M875.3,455.7C875.3,455.7,875.3,455.7,875.3,455.7c1.3-0.2,2.7,0.9,2.8,2.2c0.1,1.4-1.3,2.8-2.8,2.6
						c-1.4-0.2-2.4-1.9-1.9-3.2C873.7,456.4,874.4,455.8,875.3,455.7z M886.4,474.9l0.4-0.5c3.2-6.3,3.6-13.9,1.2-20.5
						c-0.5-1.4-1.2-2.8-2-4.2c-2.8-4.7-7-8.5-12-10.7l0,0.1c-5,5.3-9.4,11.4-12.9,17.8c-0.4,0.8-0.9,1.7-0.9,2.6
						c0,1,0.5,1.9,1.1,2.7c4.2,6.3,10.6,10.9,17.9,12.9c2.1,0.6,4.4,0.9,6.2-0.3L886.4,474.9z"/>
					<path class="st49" d="M873.4,457.2c-0.5,1.3,0.5,3,1.9,3.2c1.4,0.2,2.9-1.1,2.8-2.6c-0.1-1.3-1.5-2.4-2.8-2.2c0,0,0,0,0,0
						C874.4,455.8,873.7,456.4,873.4,457.2z"/>
					<path class="st50" d="M900.4,464.4c-1,5.8,0.7,13.5,2.5,20.1c4.4,1.3,9.1,2,13.7,2.1c1.9,0,3.8,0,5.7-0.1
						c0.3-0.3,0.7-0.5,1-0.8c3.6-3,8.7-8,3-10.6c-3.3-1.6-7,0-10.3-0.6c-4.1-0.8-8-3.7-10.7-6.8c-1.3-1.4-2.7-3.1-4.5-3.2
						C900.6,464.4,900.5,464.4,900.4,464.4z"/>
					<path class="st50" d="M918.2,488.9c1.4-0.7,2.7-1.5,4-2.5c-1.9,0.1-3.8,0.2-5.7,0.1c-4.6-0.1-9.3-0.8-13.7-2.1
						c0.5,2,1.1,3.9,1.6,5.5c0.2,0.7,0.4,1.5,1,1.9c0.8,0.6,1.9,0.5,2.9,0.3C911.7,491.6,915.1,490.5,918.2,488.9z"/>
					<path class="st50" d="M922.2,486.4c-1.3,0.9-2.6,1.8-4,2.5c5.1,5,11.6,8.5,18.5,9.9c-1.6-4.3-3.2-8.6-4.8-12.9l-0.1-0.7
						C928.6,485.8,925.4,486.2,922.2,486.4z"/>
					<path class="st50" d="M952,479.8l0.2,0.5c2.1,2.2,4.2,4.5,7,5.6c4.2,1.8,9,0.7,13.4-0.3c6.5-1.5,13-3.1,19.5-4.6
						c-3.5,0.3-7-1.2-9.8-3.4c-2.8-2.2-5-5-7.2-7.7l-0.5-0.9C967.2,472.7,960,477,952,479.8z"/>
					<path class="st50" d="M970.2,432.4c0.1,0.2,0.2,0.3,0.4,0.5l0.6-0.4c0.3-4.3,4.6-7.1,7.7-10.1c3.9-3.8,6.5-9,7.2-14.4
						c0.1-1,0.2-2.1-0.3-3c-0.5-0.9-1.4-1.5-2.3-1.9c-7-3.4-15.2-2.7-22.8-0.8c-7.5,1.9-14.8,4.8-22.5,5.9c-9.4,1.3-19-0.4-28.4,1.1
						c-8.2,1.3-18.3,5.6-23.5,12.3l1.1,0.9c4.5-2.4,9.4-3.9,14.1-4.2c16-1.2,32.1-0.5,47.9,2.1C958.8,421.9,964.6,424.7,970.2,432.4
						z"/>
					<path class="st51" d="M995.8,460.3c-6.5-2.1-13.5-1.2-20.1,0.6c-6.5,1.8-12.8,4.6-19.4,6.3c-5.8,1.5-11.8,2.1-17.6,3.8
						c-2.2,0.7-4.4,1.5-6.7,1.6c-2.5,0.2-5.1-0.5-7.5-1.4c-13.5-5.1-23.4-17.9-37.4-21.7l-1.2,0.2c0.8,1.3,1.4,2.7,2,4.2
						c2.4,6.6,2,14.2-1.2,20.5l-0.4,0.5c4.5,4.6,10.2,7.8,16.5,9.6c-1.8-6.6-3.5-14.3-2.5-20.1c0.1,0,0.2,0,0.4,0
						c1.8,0.1,3.2,1.8,4.5,3.2c2.8,3.1,6.6,6,10.7,6.8c3.3,0.6,7-1,10.3,0.6c5.7,2.6,0.5,7.7-3,10.6c-0.3,0.3-0.7,0.6-1,0.8
						c3.2-0.2,6.4-0.7,9.6-1.3c6.2-1.2,12.3-2.9,18.3-4.8c0.6-0.2,1.3-0.4,1.9-0.6c8-2.8,15.2-7.1,22.5-10.8
						c6.5-3.3,13.2-6.1,20.7-7c0.3,0,0.7-0.1,1-0.1l-0.1-0.7C996.3,461.1,996.2,460.4,995.8,460.3z"/>
					<path class="st52" d="M995.8,460.3c0.4,0.1,0.5,0.9,0.3,0.9l0.1,0.7c1.6-0.2,3.2-0.2,4.7,0.3l0-0.1c0.2,0.1,0.4,0.1,0.6,0.2
						l0.1-0.3c0.4-3.3,0.9-6.7,1.3-10c0.5-4.2,0.9-9-2.1-11.9l0.1-1.2c0,0-0.1,0-0.1,0l-1.4,0.2c-6.9,1.6-14,0.1-20.9-1.3
						c-1.7-0.3-3.4-0.7-4.9-1.7c-1.2-0.8-2.1-1.9-2.9-3.1c-0.1-0.2-0.2-0.3-0.4-0.5c-5.6-7.7-11.4-10.5-20.9-12.1
						c-15.8-2.6-31.9-3.3-47.9-2.1c-4.7,0.3-9.6,1.8-14.1,4.2c-6.5,3.5-12,9.1-13.8,16.2l0.4,0.4c0,0,0.1,0,0.1,0.1
						c5,2.2,9.3,6,12,10.7l1.2-0.2c14,3.8,23.9,16.5,37.4,21.7c2.4,0.9,4.9,1.6,7.5,1.4c2.3-0.2,4.5-1,6.7-1.6
						c5.7-1.7,11.7-2.3,17.6-3.8c6.6-1.7,12.8-4.4,19.4-6.3C982.3,459.1,989.3,458.2,995.8,460.3z"/>
					<path class="st50" d="M1000.8,440c3,2.9,2.7,7.8,2.1,11.9c-0.4,3.3-0.9,6.7-1.3,10l-0.1,0.3c7.7,2.5,15.4,5.5,22.8,8.9
						c2.5,1.1,5,2.3,7.7,2.4c2.7,0.1,5.7-1.2,6.6-3.8c0.9-2.6-0.4-5.4-2-7.6c-2.9-4-6.7-7.4-11-9.7v0c10.5-0.9,23.5-3.7,16.7-14.9
						c-2.2-3.7-5-7.7-9.2-8.5c-10.7-2.1-21,10.4-32.3,9.8L1000.8,440z"/>
				</g>
				<g>
				</g>
			</g>
		</g>
		<g id="sea_lion_2_">
			<g id="XMLID_2_">
				<g>
					<path class="st53" d="M1073,1493.4c-3.8,0.7-7.4,2.7-10.3,5.1c-1.7,1.6-3.5,3.2-5.3,4.7c-8.9,7.7-18.3,14.4-28.2,20.2
						c-8.2,4.9-16.7,9.2-25.6,13.1c-24.4,10.2-48.2-2-72-8.1c-4.8-0.7-9.5,0-14.3,0.7c-13,3.5-27.1,4.8-39,0.1l0.1-0.3
						c9.5-1,18.8-3.5,27.5-7.3c8.9-3.9,16.3-9.4,24-15.1c3.9-2.9,8.1-5.3,12.9-6.4c4.9-1.1,10-0.9,15-0.5c5,0.4,10.1,1.1,15.1,0.7
						c4.9-0.4,9.6-2,14.1-4c15.9-7.4,27.2-20.4,41.1-30.5c6.8-5,14.3-8.7,22.7-10.1c8.7-1.5,18.3-1.4,25.5-7.1
						c7.1-5.7,9.2-14.4,11-22.9c1.8-8.9,3.2-18.2,1.4-27.3c-0.3-1.4-0.6-2.7-1-4l0.5-0.1c3.8,12.5,5.9,25.7,7.2,38.6
						c0.7,5.4,2,10.9,5.4,15.6c0.7,0.7,0,2,0.7,2.7c0.7,0.7,1.4,1.4,2,2c2,4.1,4.8,7.5,8.8,10.2c12.2,8.1,24.4,13.6,34,25.1
						c5.4,7.5,10.9,13.6,16.3,21.7c6.8,8.8,14.9,15.6,16.3,26.5c0.7,6.1-1.4,11.5-3.4,17c-6.1,3.4-12.2-3.4-17.7-5.4
						c-5.4-1.4-10.9-4.1-16.3-6.1c-3.4-2-6.8-2.7-10.2-4.8c-0.7-0.7-1.4-1.4-2-2c-12.2-6.8-20.4-17.7-29.2-28.5
						C1093.4,1498.2,1083.4,1492.6,1073,1493.4z"/>
					<path class="st54" d="M1087.7,1394.2c0.4,1.3,0.8,2.7,1,4c1.8,9,0.4,18.4-1.4,27.3c-1.7,8.5-3.9,17.2-11,22.9
						c-7.2,5.8-16.8,5.6-25.5,7.1c-8.4,1.4-15.9,5.2-22.7,10.1c-14,10.1-25.2,23.1-41.1,30.5c-4.4,2.1-9.2,3.7-14.1,4
						c-5,0.4-10.1-0.3-15.1-0.7c-5-0.4-10.1-0.6-15,0.5c-4.8,1.1-8.9,3.6-12.9,6.4c-7.7,5.7-15.2,11.2-24,15.1
						c-8.7,3.8-18,6.3-27.5,7.3l-0.1,0.3c-4.3-1.7-8.3-4.1-11.9-7.6c-3.4-3.4,0-8.8,2.7-12.2c4.1-4.1,7.5-8.1,11.5-12.2
						c1.4-1.4,2-2.7,2.7-4.1c5.4-12.2,10.9-26.5,25.1-30.6c0.7,0,2,0,2.7,0c8.1-2.7,15.6-1.4,23.8,0c10.9,2,20.4,5.4,31.2,4.8
						c4.8-0.7,9.5-2,13.6-5.4c6.8-6.8,10.9-14.9,15.6-23.8c1.4-2.7,2.7-6.1,5.4-8.2c0,0,0,0,0,0c0.1-0.1,0.2-0.2,0.3-0.3
						c2-1.5,3.5-3.6,4.9-5.7c19-28.6,15-71.8,6.9-103.3l0.2-1.7c3.8,1.2,7.5,3.1,10.8,5.6c10.2,8.1,19.7,15.6,31.2,23.1
						c17.5,11,27.2,27.8,32.9,46.3L1087.7,1394.2z M916.8,1496.2c10.4-4.9-11.4-10.4-6.2-1.6c0.3,0.5,0.8,0.9,1.3,1.2
						C913.3,1496.6,915.2,1496.9,916.8,1496.2z M882.3,1516.5c0-0.5-0.3-1-0.7-1.3c-0.1-0.1-0.2-0.1-0.3-0.2
						c-4.9-3.5-17,0.2-8.8,6.6c1.2,1,3,1.5,4.4,0.8c0.7-0.4,1.3-1,1.8-1.5c1-1.1,1.9-2.1,2.9-3.2
						C882,1517.3,882.3,1516.9,882.3,1516.5z"/>
					<path class="st55" d="M1057.5,1503.2c3.3,8.3,4.6,17.4,3.6,26.3c-0.4,3.9-1.2,7.7-1.3,11.6c-0.1,3.4,5,28.5-5.2,22.1
						c-2-1.2-3.1-3.4-4.2-5.4c-2.4-4.3-5.1-8.3-8.3-12c-2.8-3.4-6-6.6-8.5-10.3c-2.5-3.6-4.4-7.7-4.4-12.1
						C1039.1,1517.6,1048.6,1510.9,1057.5,1503.2z"/>
					<path class="st56" d="M973.4,1356.6c-1.8-6.5-2.1-13.2,0.4-20.4c0,0,0-0.1,0.1-0.1c3.1-8,9.3-13.5,16.7-16.4
						c6.1-2.4,13.1-2.9,19.7-1.5c1,0.2,2.1,0.5,3.1,0.8l-0.2,1.7c8.1,31.5,12.2,74.7-6.9,103.3c-1.4,2.1-3,4.1-4.9,5.7
						c-0.4-10.2-2.4-20.9-5.7-30.3C989.8,1385.1,977.5,1371.6,973.4,1356.6z"/>
					<path class="st57" d="M1012.2,1311.5c0.2,2.4,0.2,5.4-2,6.6c-6.6-1.4-13.5-0.9-19.7,1.5l-0.2-1.5c-1.7-0.2-5.1-5.7-6.1-6.9
						c-2.6-2.9-5.4-5.6-7.8-8.8c-4.6-6-8.3-12.9-9-20.6c-0.1-1.3-0.1-2.6,0.5-3.7c0.9-1.6,2.9-2.3,4.8-2.1c1.8,0.2,3.5,1.1,5.1,1.9
						c-0.5-3.9,0.5-8.3,3.6-10.7s8.7-1.2,9.7,2.6c1-2.8,5-3.6,7.7-2.2s4.2,4.2,5.5,7C1009.3,1286.3,1011,1299,1012.2,1311.5z"/>
					<path class="st57" d="M973.9,1336c0,0,0,0.1-0.1,0.1c-2.5,7.2-2.2,13.9-0.4,20.4c-11.3,6.3-27.7,8.6-40.6,9.3
						c-3.4,0.2-6.8,0.3-10-0.7c-3.2-1-6.1-3.5-6.8-6.8c-0.7-3.3,1.7-7.2,5-7.3c-3.3-0.7-5.9-3.9-5.9-7.3c0-5.4,5.6-9,10.7-11
						c-2.1-1.4-4-3.2-5.5-5.2c3.6-4.9,10.9-4.4,16.9-3.4c6,1,12,2.2,17.9,3.4c3.8,0.8,7.6,1.6,10.9,3.6
						C968.2,1332.6,971.4,1334.9,973.9,1336z"/>
					<path class="st30" d="M910.5,1494.5c-5.2-8.8,16.6-3.3,6.2,1.6c-1.5,0.7-3.4,0.5-4.9-0.4
						C911.3,1495.5,910.8,1495.1,910.5,1494.5z"/>
					<path class="st58" d="M881.7,1515.1c0.4,0.4,0.7,0.8,0.7,1.3c0,0.5-0.4,0.8-0.7,1.2c-1,1.1-1.9,2.1-2.9,3.2
						c-0.5,0.6-1.1,1.2-1.8,1.5c-1.4,0.7-3.2,0.2-4.4-0.8c-8.2-6.5,3.9-10.1,8.8-6.6C881.5,1515,881.6,1515.1,881.7,1515.1z"/>
				</g>
				<g>
				</g>
			</g>
		</g>
	</g>
	<g id="bubbles_1_" class="st59">
		<g>
			<path class="st30" d="M1078,565c1.6,30.4,26.8-3.4,9.4-7.1C1080.3,556.5,1077.7,560.3,1078,565z"/>
		</g>
		<g>
			<path class="st30" d="M864.6,685.1c-1.8,12.4,14.7,6.6,11.4,2.2C874.7,685.7,865.8,676.4,864.6,685.1z"/>
		</g>
		<g>
			<path class="st30" d="M1046.4,598.5c-0.6,9.5,17.5,8.3,13.5-0.9C1057.6,592.5,1046.8,591.9,1046.4,598.5z"/>
		</g>
		<g>
			<path class="st30" d="M1037.7,551.6c-1-15.2,21.8-15.5,20.5-0.2C1057,564.5,1038.6,565.6,1037.7,551.6z"/>
		</g>
		<g>
			<path class="st30" d="M868.8,711c0.7,6.8-11.8,15.3-15.5,6.7C847.3,703.9,867.5,699,868.8,711z"/>
		</g>
		<g>
			<path class="st30" d="M813.8,448.3c-0.3,5.7,12.7,13.2,17.2,8.7c2.1-2,2.3-5.4,1.5-8.1c-1.2-4.3-5-7.9-9.5-8.2
				C818.6,440.3,814,443.8,813.8,448.3z"/>
		</g>
		<g>
			<path class="st30" d="M846.3,413c-3.7-5.2-13.5-3.5-14.9,2.9C828,431.6,855.7,426.3,846.3,413z"/>
		</g>
		<g>
			<path class="st30" d="M815.1,381.5c3.3-9,17.8-6.7,15.5,3.4C828.2,395.7,811,392.5,815.1,381.5z"/>
		</g>
		<g>
			<path class="st30" d="M709.5,155.7c9.1-18,17.4,18.9,1.9,7.4C708.5,161,708.3,158.1,709.5,155.7z"/>
		</g>
		<g>
			<path class="st30" d="M613.1,172.6c4.7-10.7,19-7.9,18.1,4.1C630.1,190.2,606.4,187.7,613.1,172.6z"/>
		</g>
		<g>
			<path class="st30" d="M687.3,123.4c-1.3,6.9,10.9,7.1,9.7,0.5C696.1,119,688.2,118.3,687.3,123.4z"/>
		</g>
		<g>
			<path class="st30" d="M777,159.5c6.8-3.5-2-10.2-6.6-7.8C762.7,155.5,771.1,162.5,777,159.5z"/>
		</g>
		<g>
			<path class="st30" d="M803,122.7c-8.7,3.1-1,16.6,5.9,10.6C814.4,128.6,810,120.2,803,122.7z"/>
		</g>
		<g>
			<path class="st30" d="M801.9,100.5c-5.5,2-4.7,9.1,1.2,9.8C811.8,111.4,809.2,97.9,801.9,100.5z"/>
		</g>
		<g>
			<path class="st30" d="M448.9,207.6c2,2.6,6,3,8.9,1.4C479.3,196.9,435.6,190.1,448.9,207.6z"/>
		</g>
		<g>
			<path class="st30" d="M483.5,175.7c-10.9,5-2.2,17.8,5.4,10.7C493.1,182.5,490.1,172.7,483.5,175.7z"/>
		</g>
		<g>
			<path class="st30" d="M691.9,407.3c-13.2,0.7-7,21.2,3.9,15.3C703.4,418.5,700.6,406.9,691.9,407.3z"/>
		</g>
		<g>
			<path class="st30" d="M519.2,455.7c-0.7,13.3,15,7.6,7.2,0.6C524.5,454.6,521.4,454.4,519.2,455.7z"/>
		</g>
		<g>
			<path class="st30" d="M255.7,442.5c13-10,11,14.3,0,8C251.6,448,252.9,444.7,255.7,442.5z"/>
		</g>
		<g>
			<path class="st30" d="M811,216.6c5.4-4.1,11.5,3.7,7.4,8.3C812.7,231.2,805.3,220.9,811,216.6z"/>
		</g>
		<g>
			<path class="st30" d="M816.9,159.2c-4.9,2.8-5.9,9.3,1.4,9.1c8.9-0.2,2.2-10.5-1.4-7.8"/>
		</g>
		<g>
			<path class="st30" d="M662.3,224.5c1.7-2.8,1.3-6-3.7-6.9C644.1,215,652.9,240.6,662.3,224.5z"/>
		</g>
		<g>
			<path class="st30" d="M1033.7,247c8.4,17.6,18.6-11.6,4.1-7.6C1032.9,240.8,1032.4,244.1,1033.7,247z"/>
		</g>
		<g>
			<path class="st30" d="M1025.4,207.8c7.2,1.4,4.5,11.3-1.3,12.8C1013.9,223.2,1014.8,205.8,1025.4,207.8z"/>
		</g>
		<g>
			<path class="st30" d="M1042.1,189.4c-1.4-5-5.9-9.4-9.6-2c-1.1,2.1-0.7,4.8,0.6,6.7c0.8,1.2,2.1,2.2,3.5,2.6
				C1042.3,198.2,1043.3,193.6,1042.1,189.4z"/>
		</g>
		<g>
			<path class="st30" d="M461.3,1314.4c-9.1,5.2-0.7,18.7,7.6,11.4C474.9,1320.6,469,1310,461.3,1314.4z"/>
		</g>
		<g>
			<path class="st30" d="M488.8,1296.7c-7.9,16.2,22,8.5,9.8-2.1C495.7,1292,490.5,1293.2,488.8,1296.7z"/>
		</g>
		<g>
			<path class="st30" d="M676.4,931.8c-9.2-3.1-15.1,13-7,16.6C678,952.1,686.9,935.3,676.4,931.8z"/>
		</g>
		<g>
			<path class="st30" d="M680,902.5c7.5-5.7-0.6-15.3-8.4-11.2c-4.5,2.4-4.1,6.5-1.7,9.4C672.3,903.5,676.6,905.1,680,902.5z"/>
		</g>
		<g>
			<path class="st30" d="M852.3,1475.8c-10.1,5.8,0,26.8,5.4,13.5C859.3,1485.6,859.3,1471.9,852.3,1475.8z"/>
		</g>
		<g>
			<path class="st30" d="M840.7,1459.1c1-5.4-7.5-7.6-8-1.3C832.3,1462.9,839.8,1463.8,840.7,1459.1z"/>
		</g>
	</g>
</g>
</svg>
