<?xml version="1.0" encoding="utf-8"?>
<!-- Generator: Adobe Illustrator 22.1.0, SVG Export Plug-In . SVG Version: 6.00 Build 0)  -->
<svg version="1.1" xmlns="http://www.w3.org/2000/svg" xmlns:xlink="http://www.w3.org/1999/xlink" x="0px" y="0px"
	 viewBox="0 0 340 334" style="enable-background:new 0 0 340 334;" xml:space="preserve">
<style type="text/css">
	.st0{opacity:0.3;}
	.st1{fill:#8F8BA0;}
	.st2{fill:#B58C4B;}
	.st3{fill:#997455;}
	.st4{fill:#EAD07C;}
	.st5{fill:#70655D;}
	.st6{fill:#F9E373;}
	.st7{fill:#7F786B;}
	.st8{fill:#F1EEDB;}
	.st9{fill:#CEA572;}
	.st10{fill:#B0A6A4;}
	.st11{fill:#FFFFFF;}
</style>
<g id="Layer_1">
</g>
<g id="_x33__SCHEDULE">
	<g id="lionfish_1_">
		<g id="XMLID_327_" class="st0">
			<g>
				<path class="st1" d="M271.3,284.4c0,7.3,1.2,13.2-2.9,19.9c-1.4,2.3-3.3,4.5-4.1,7.1c-0.7,2.2-0.6,4.6-1,6.8
					c-1.1,6.6-7.4,12.5-14.1,11.6c-6.6-0.9-10.8-7.4-13.7-13.4c-2.7-5.6-6.5-12.4-7.3-18.7c0.1,0,0.2,0,0.3,0
					c1.5-6.4,4.5-12.5,8.8-17.5c-0.2-0.1-0.4-0.3-0.5-0.4c3.5-0.6,6.7-2.7,10-4.2c4.9-2.3,10.4-3.4,15.9-3.2
					C271,272.7,271.3,277.7,271.3,284.4z"/>
				<path class="st1" d="M237.6,239.4c-3.4,6.8-5.8,13.1-10,19.2l-0.7,0c-0.1-0.2-0.2-0.3-0.3-0.5c-1-1.4-2.7-2.1-4.4-2.7
					c-3.6-1.2-7.3-1.7-11.1-1.7c-0.1,0-0.1,0-0.2,0c3.3-1.6,7.2-1.3,10.7-2.3c3.5-0.9,7.2-3.9,6.5-7.5c-0.4-2.5-2.9-4.2-5.4-4.7
					c-2.5-0.4-5,0.1-7.5,0.7c-1.4,0.4-2.9,0.7-4.3,1.1l-0.3-0.8c-4.4-2.3-8.8-4.4-13.2-6.5l0.2-0.5c10.3-3.2,20-8.1,29.7-12.9
					c3.4-1.5,8.2-2.9,10.7,1.5C241,227.8,240,234.1,237.6,239.4z"/>
				<path class="st2" d="M236.7,279.7c0.2,0.2,0.4,0.3,0.5,0.4c-4.3,5-7.4,11.1-8.8,17.5c-0.1,0-0.2,0-0.3,0
					c-6.5-0.6-13-1.4-19.5-2.2c-3.8-0.5-7.7-1-11.5-1.6c2.6,0.1,5.4-0.8,7.6-2.3c1.8-1.2,3.3-2.6,4.9-4.1c1.6-1.5,3.1-2.9,4.8-4.2
					c0.8-0.6,1.7-1.2,2.1-2.1c0.3-0.9,0-1.9-0.1-2.8c-0.1-0.7,0-1.4,0.2-2c0.8-3.5,3.9-6.4,4.8-10c0.2-0.7,0.3-1.4,0.7-2
					c0,0,0.1-0.1,0.1-0.1c0.5-0.6,1.3-0.7,2.1-0.9l0,0.1C227,269.9,231.4,275.5,236.7,279.7z"/>
				<path class="st3" d="M215.5,276.2l1,0.2c-0.1,0.7-0.2,1.3-0.2,2c0.1,0.9,0.4,1.9,0.1,2.8c-0.3,1-1.2,1.6-2.1,2.1
					c-1.7,1.2-3.3,2.7-4.8,4.2l-0.9-0.5c-3.8-1.9-7.5-4-11.4-5.8c-7.3-3.3-14.9-5.9-22.5-8.5c-7.4-2.6-14.4-5.9-21.6-9l0.1-0.7
					c4.5,0.9,8.9,1.7,13.4,2.7C183,269.2,199.2,272.7,215.5,276.2z"/>
				<path class="st4" d="M81.7,237.1c-0.7,1.4-0.2,3.4,1.3,4.1c2.1,0.8,4.6-1.7,3.7-3.7C85.9,235.5,82.7,235.4,81.7,237.1z
					 M210.7,240.3l0.3,0.8c-10,2.6-19.9,5.5-29.7,8.8c-3,1-6,2.1-9,3.2l-0.1-0.3c-12.2-1.7-24.7-3.3-36.7-0.8
					c-3.8,0.8-7.6,2-11.5,2.6c-4.1,0.6-8.3,0.3-12.5,0.5c-7.3,0.3-14.5,1.8-21.3,4.4c-6.6,2.5-12.8,6.1-19.4,8.6
					c-7.2,2.7-14.3,2.8-21.6,4.4l0,0.3c-1.6-0.2-3.1-0.6-4.6-1.2c0.3-6.1,1.3-12.2,2.9-18.2c1.6-5.7,4.8-12.2,10.7-12.9
					c1.3-0.2,2.7,0,3.9-0.7c0.7-0.4,1.2-1.1,1.7-1.8c2.4-3.3,4.8-6.7,7.2-10c0.5-0.6,0.9-1.3,1.6-1.7c1-0.5,2.1-0.4,3.2-0.3
					c3.9,0.4,8,0.5,11.7-0.9c2.9-1.1,5.3-2.9,7.8-4.8c1.3-1,2.5-1.9,3.8-2.9l0.4,0.5c3-2.2,6.7-3.2,10.4-3.6
					c3.5-0.4,7.2-0.3,10.5-0.3c0.3,0,0.6,0,0.9,0c0.2,0.1,0.4,0.1,0.6,0c3.8,0.1,7.5,0.3,11.3,0.7c3.3,0.3,6.7,0.8,10,1.4
					c1.4,0.2,2.8,0.5,4.2,0.8c5.4,1.1,10.7,2.4,16,3.9c4.7,1.4,9.3,2.9,13.8,4.6c3.1,1.1,6.1,2.3,9.1,3.6c0.4,0.1,0.7,0.3,1.1,0.4
					c1.6,0.7,3.2,1.4,4.8,2.1c1.8,0.8,3.7,1.6,5.5,2.5C202,235.9,206.4,238.1,210.7,240.3z"/>
				<path class="st1" d="M192.9,292.4c1.2,1,2.7,1.5,4.3,1.5c3.8,0.6,7.6,1.1,11.5,1.6l0,0.2c-3.3,6.9-4.8,15.2-10.2,20.9
					c-1.1,1.1-2.3,2.1-3.8,2.6c-1.1,0.3-2.2,0.4-3.3,0.3c-4.3-0.1-8.6-0.8-12.6-2.2c0.3-0.3,0.6-0.7,0.8-1c1.7-2.2,3.4-4.4,5.1-6.6
					c2-2.6,4-5.2,6-7.9C192.5,299.1,194.6,295.4,192.9,292.4C192.9,292.4,192.9,292.4,192.9,292.4z"/>
				<path class="st5" d="M187.1,228c1.6,0.1,2.5-0.9,3.8-1.5c1.7-0.8,3.4-1.2,5-2.1c9.7-3.9,18.9-7.3,28.6-12.1
					c2.4-1,4.9-1.9,7.8-2.4c1.6-0.4,2.8,0.2,4.3,0.8c-3.5-0.5-9,4.7,0.6,0.7c-11.3,4.9-22.6,9.7-33.9,14.6c-2,0.9-4,1.7-6,2.6
					c-1.3,0.5-3.9,1-4.7,2.1l-0.4,0.9c-1.6-0.7-3.2-1.4-4.8-2.1c-0.4-0.1-0.7-0.3-1.1-0.4l0.4-1C186.7,227.9,186.9,227.9,187.1,228z
					"/>
				<path class="st6" d="M178.6,317.3c-1.1,1.3-2.3,2.5-3.6,3.6l-0.2-0.2c-2.7-9.2-6.7-17.5-11.6-25.6c-2.4-4-4.8-8-7.2-11.9
					l-0.9-0.1c0.9-1,1.7-2,2.4-3.1c0.4-0.6,0.8-1.3,1.2-2l0.8,0.4c7.5,8.4,15.1,16.8,21.3,26.1c1,1.5,2,3.1,3,4.7l0.8,0.6
					c-1.7,2.2-3.4,4.4-5.1,6.6C179.2,316.6,178.9,317,178.6,317.3z"/>
				<path class="st5" d="M186.4,227.8c0,0,0.1,0.1,0.1,0.1l-0.4,1c-3-1.2-6-2.4-9.1-3.6l0.6-1.7c2.4,0.9,5.5,0.1,8-0.7
					c3.3-1.5,6.5-3.1,9.6-4.9l1.1,2.1c-0.9,0.5-1.7,1-2.6,1.5C192.9,222.1,184.6,226.2,186.4,227.8z"/>
				<path class="st7" d="M174.9,320.6l0.2,0.2c-4.4,3.8-10.1,6.6-15.8,6.8c0-13.5-6.5-26.2-7.9-39.7l-2.2,0c2.2-1.4,4.2-3,6-5
					l0.9,0.1c2.4,4,4.8,8,7.2,11.9C168.2,303.1,172.2,311.5,174.9,320.6z"/>
				<path class="st7" d="M153.4,261.7c9.5-1.7,19.1-3.1,28.7-4.3c5.2-0.6,10.4-1.2,15.6-1.8c4.4-0.4,9-0.7,13.4-1.8
					c3.8,0,7.5,0.5,11.1,1.7c1.7,0.5,3.4,1.3,4.4,2.7c0.1,0.2,0.2,0.3,0.3,0.5c0.7,1.4,0.5,3.3-0.8,4.1c-0.5,0.4-1.2,0.5-1.9,0.6
					c-0.8,0.2-1.6,0.3-2.1,0.9c-22.7-2.1-45.9-3-68.7-2.4L153.4,261.7z"/>
				<path class="st5" d="M171.6,218.5c12.1-5.3,22.3-12.1,34-18.9c1.5-0.8,3-1.5,4.9-1.4c0.5,0.1,1.1,0.3,1.6,0.3
					c-2.2,0.1-4.1,2-6.6,3.5c-7.3,5.8-14.1,10.7-22.3,15c-2.4,1-6.8,1.9-6.8,5.8c0.4,0.3,0.8,0.5,1.3,0.7l-0.6,1.7
					c-4.5-1.7-9.1-3.2-13.8-4.6l0.2-0.8C166.1,220.8,169.2,219.3,171.6,218.5z"/>
				<path class="st8" d="M163.3,220.7c-5.3-1.6-10.6-2.9-16-3.9l0-0.2c15-4.9,27.2-15,40.8-23.8c1.9-1,3.9,0.5,6,1
					c-1.4-0.4-5.7,5.2,0,0c-6,6.3-12.3,10.6-19.6,16c-4.4,2.4-8.2,4.4-12.1,7.8c-0.5,0.5-1,1-0.5,1.5c0.5,0.4,1.1,0.7,1.6,0.9
					L163.3,220.7z"/>
				<path class="st3" d="M160.3,271c8.5,6.2,17.2,12.3,25.9,18.2c0.9,0.6,1.8,1.2,2.7,1.6c0.8,0.3,1.8,0.5,2.6,0.9
					c0.5,0.2,1,0.5,1.4,0.8c1.7,2.9-0.4,6.6-2.4,9.3c-2,2.6-4,5.3-6,7.9l-0.8-0.6c-1-1.6-2-3.1-3-4.7c-6.3-9.3-13.8-17.7-21.3-26.1
					l-0.8-0.4c0.6-1.3,1.1-2.6,1.3-4c0.1-1.1,0.1-2-0.1-2.8L160.3,271z"/>
				<path class="st6" d="M153.5,261.9c22.8-0.6,46,0.3,68.7,2.4c0,0-0.1,0.1-0.1,0.1c-0.5,0.6-0.5,1.3-0.7,2c-0.9,3.6-4,6.5-4.8,10
					l-1-0.2c-16.3-3.5-32.6-7-48.8-10.6c-4.5-1-8.9-1.8-13.4-2.7c-0.6-0.1-1.2-0.2-1.8-0.3l-0.1-0.7c0.7-0.1,1.3-0.2,2-0.3
					L153.5,261.9z"/>
				<path class="st3" d="M182.1,257.4c-9.6,1.2-19.2,2.6-28.7,4.3c-0.7,0.1-1.3,0.2-2,0.3c-0.1,0-0.3,0-0.4,0.1l-0.6-0.1
					c3.7-2.8,10-4.3,14.2-5.9c2.5-1,5.1-1.9,7.6-2.9c3-1.1,6-2.2,9-3.2c9.8-3.3,19.7-6.3,29.7-8.8c1.4-0.4,2.9-0.7,4.3-1.1
					c2.5-0.6,5-1.2,7.5-0.7c2.5,0.4,4.9,2.2,5.4,4.7c0.6,3.6-3,6.6-6.5,7.5c-3.5,0.9-7.4,0.7-10.7,2.3c0.1,0,0.1,0,0.2,0
					c-4.3,1.1-9,1.4-13.4,1.8C192.5,256.1,187.3,256.7,182.1,257.4z"/>
				<path class="st9" d="M153.2,263.7c7.2,3.1,14.2,6.4,21.6,9c7.6,2.7,15.2,5.2,22.5,8.5c3.9,1.8,7.6,3.8,11.4,5.8l0.9,0.5
					c-1.5,1.5-3.1,2.9-4.9,4.1c-2.2,1.5-5,2.4-7.6,2.3c-1.6-0.1-3-0.6-4.3-1.5c0,0,0,0.1,0,0.1c-0.5-0.3-0.9-0.6-1.4-0.8
					c-0.8-0.4-1.7-0.6-2.6-0.9c-1-0.4-1.9-1-2.7-1.6c-8.7-5.9-17.4-12-25.9-18.2l-0.4,0.1c-0.9-5.1-6.4-5.7-10.2-8.5
					c0.2-0.2,0.5-0.4,0.7-0.6l0.6,0.1c0.1,0,0.3,0,0.4-0.1l0.1,0.7c0.6,0.1,1.2,0.2,1.8,0.3L153.2,263.7z"/>
				<path class="st3" d="M145.2,321.8c0,0-0.1-0.1-0.1-0.1l0,0c-0.7-9.8-1.4-19.7-2-29.5l-0.4-1.4c1-0.2,2-0.6,2.9-1
					c1.2-0.5,2.4-1.1,3.5-1.8l2.2,0c1.4,13.4,7.9,26.1,7.9,39.7c-2.4,0.1-4.8-0.3-7.1-1.2C149.5,325.5,147.2,323.7,145.2,321.8z"/>
				<path class="st7" d="M134.1,290.1l0.3-0.5c1.2,0.9,2.7,1.4,4.2,1.5c1.4,0.1,2.7,0,4.1-0.4l0.4,1.4c0.7,9.8,1.4,19.7,2,29.5l0,0
					c-2.9-2.8-5.4-6-7.4-9.4c-1.7-2.9-3.3-6.3-6.4-7.6l0.1-0.2C132.6,299.7,133.5,294.9,134.1,290.1z"/>
				<path class="st5" d="M143.1,216c-3.3-0.6-6.7-1-10-1.4l0.1-1.3c4.3,0.4,7.5-2.2,11.2-4.5c5.8-4.4,11.6-7.8,17-12.6
					c3.9-3.9,8.2-7.8,13.6-8.7c0.5,0,1.5,1,1.5,1c-8.2,8.2-17.5,14.6-25.7,22.8c-1,1.5-3.9,2.9-3.4,5.3l0,0.2
					C145.9,216.5,144.5,216.2,143.1,216z"/>
				<path class="st9" d="M131,304.5c-1.6-0.6-3.5-0.6-5.1-1.4c-1.6-0.8-2.7-3-1.5-4.3c-0.6,0.7-1.5,0.4-2.4-0.3l1.9-0.1
					c1.6-4.7,3.6-9.3,6.1-13.7l0.7-0.5c0.1,0.1,0.2,0.2,0.3,0.4c0.6,1,1,2.1,1.6,3.2c0.5,0.8,1.1,1.4,1.8,1.9l-0.3,0.5
					c-0.6,4.8-1.5,9.6-2.8,14.3l-0.1,0.2C131.2,304.6,131.1,304.5,131,304.5z"/>
				<path class="st6" d="M120.1,288.7c0.1-0.2,0.1-0.3,0.2-0.4c1.5-2.9,7.7-7.2,10.4-4.1l-0.7,0.5c-2.4,4.4-4.5,9-6.1,13.7l-1.9,0.1
					c-1.1-1-2.2-2.6-2.4-3.1C119,293.6,119.3,290.5,120.1,288.7z"/>
				<path class="st10" d="M133.1,214.6c-3.7-0.4-7.5-0.6-11.3-0.7c0,0,0,0,0,0c1.5-0.3,3.5-2.7,4.7-3.6c1.6-1.3,3.2-2.6,4.8-3.9
					c3.1-2.5,6.2-5,9.3-7.6c3.5-2.9,7.1-5.8,10.6-8.7c2.5-2,6.5-4.8,9.6-2.6c-1.3,0.1-2.8,1.8-3.7,2.6c-4.1,3.7-8.4,7.1-12.3,11
					c-1.9,1.9-4.9,2.9-6.8,4.9c-1.9,2.4-5.3,3.9-5.8,7.3c0.3,0.1,0.7,0.1,1,0.1L133.1,214.6z"/>
				<path class="st5" d="M120.4,213.9c-3.3,0-7-0.1-10.5,0.3l-0.1-1.1c0.8-2.3,1.7-4.7,2.7-7.2c4.9-9.7,12.1-18.4,14.6-29.1
					c2.4-1,5.3-1,7.7,0c-2-0.5-2.4,6.7-0.1,0.4c-2.3,6.9-4.9,13.8-8,20.4c-1.4,3-3.1,6-4.3,9.1c-0.4,0.8-2.9,6.6-1,7.2
					C120.9,213.9,120.6,213.9,120.4,213.9z"/>
				<path class="st8" d="M109.8,214.2c-3.8,0.4-7.4,1.4-10.4,3.6l-0.4-0.5c1.6-1.3,3.2-2.5,4.9-3.7l-0.1-0.4
					c-2.1-8.2-5-15.5-6.9-23.7c0-0.5,0.5-1,0.5-1c2.4-0.5,4.4,0.5,5.8,2.4c3.9,6.8,4.4,15,6.5,22.2L109.8,214.2z"/>
				<path class="st3" d="M128,269.4c-8.3,7.6-19.6,12.6-31,12.9v-0.1c-0.1,0-0.1-0.1-0.2-0.1l0.1-0.3c1-3,3.7-5,6.3-6.6
					c10.3-6.2,22.6-9.8,30.6-18.9C135.3,261.1,131.7,266,128,269.4z"/>
				<path class="st11" d="M86.7,237.4c0.9,2.1-1.7,4.6-3.7,3.7c-1.5-0.6-1.9-2.6-1.3-4.1C82.7,235.4,85.9,235.5,86.7,237.4z"/>
				<path class="st2" d="M102.6,286.7c-2.3-1.2-4.5-2.9-6.9-3.7l0.3-0.7c0.4,0,0.7,0,1.1,0c11.4-0.2,22.7-5.3,31-12.9
					c3.7-3.4,7.3-8.3,5.8-13.2c-7.9,9.1-20.3,12.7-30.6,18.9c-2.7,1.6-5.4,3.6-6.3,6.6l-0.1,0.3c-4.3-2.3-9.9-0.8-14.6-2.4
					c-2.8-1-5.1-3.1-7.8-4.4c-7.6-3.8-16.9-1.2-25.3-2.5l0-0.3c7.3-1.6,14.4-1.7,21.6-4.4c6.6-2.5,12.8-6.1,19.4-8.6
					c6.8-2.6,14-4.1,21.3-4.4c4.2-0.2,8.4,0.1,12.5-0.5c3.9-0.5,7.6-1.8,11.5-2.6c12-2.5,24.5-0.9,36.7,0.8l0.1,0.3
					c-2.5,0.9-5.1,1.9-7.6,2.9c-4.2,1.6-10.5,3.1-14.2,5.9c-0.2,0.2-0.5,0.4-0.7,0.6c3.8,2.8,9.2,3.5,10.2,8.5
					c0.2,0.8,0.2,1.8,0.1,2.8c-0.2,1.4-0.6,2.8-1.3,4c-0.3,0.7-0.7,1.4-1.2,2c-0.7,1.1-1.5,2.1-2.4,3.1c-1.7,1.9-3.8,3.6-6,5
					c-1.1,0.7-2.3,1.3-3.5,1.8c-1,0.4-1.9,0.8-2.9,1c-1.3,0.3-2.7,0.5-4.1,0.4c-1.5-0.1-3-0.6-4.2-1.5c-0.7-0.5-1.4-1.2-1.8-1.9
					c-0.6-1-1-2.2-1.6-3.2c-0.1-0.1-0.2-0.3-0.3-0.4c-2.7-3.2-8.9,1.2-10.4,4.1c-0.1,0.1-0.1,0.3-0.2,0.4
					C114.3,290.2,107.9,289.5,102.6,286.7z"/>
			</g>
			<g>
			</g>
		</g>
	</g>
	<g>
		<path class="st11" d="M319,29c1.6,30.4,26.8-3.4,9.4-7.1C321.3,20.5,318.7,24.3,319,29z"/>
	</g>
	<g>
		<path class="st11" d="M222.6,76.1c-1.8,12.4,14.7,6.6,11.4,2.2C232.7,76.7,223.8,67.4,222.6,76.1z"/>
	</g>
	<g>
		<path class="st11" d="M271.4,49.5c-0.6,9.5,17.5,8.3,13.5-0.9C282.6,43.5,271.8,42.9,271.4,49.5z"/>
	</g>
	<g>
		<path class="st11" d="M278.7,11.6c-1-15.2,21.8-15.5,20.5-0.2C298,24.5,279.6,25.6,278.7,11.6z"/>
	</g>
	<g>
		<path class="st11" d="M171.8,127c0.7,6.8-11.8,15.3-15.5,6.7C150.3,119.9,170.5,115,171.8,127z"/>
	</g>
	<g>
		<path class="st11" d="M11.4,240.8c-9.2-3.1-15.1,13-7,16.6C13,261.1,21.9,244.3,11.4,240.8z"/>
	</g>
	<g>
		<path class="st11" d="M56,181.5c7.5-5.7-0.6-15.3-8.4-11.2c-4.5,2.4-4.1,6.5-1.7,9.4C48.3,182.5,52.6,184.1,56,181.5z"/>
	</g>
</g>
</svg>
