<?xml version="1.0" encoding="utf-8"?>
<!-- Generator: Adobe Illustrator 22.1.0, SVG Export Plug-In . SVG Version: 6.00 Build 0)  -->
<svg version="1.1" xmlns="http://www.w3.org/2000/svg" xmlns:xlink="http://www.w3.org/1999/xlink" x="0px" y="0px"
	 viewBox="0 0 995 424" style="enable-background:new 0 0 995 424;" xml:space="preserve">
<style type="text/css">
	.st0{opacity:0.8;}
	.st1{fill:#87D6D3;}
	.st2{fill:#7FA09D;}
	.st3{fill:#99CCCC;}
	.st4{fill:#A1A399;}
	.st5{fill:#A8AB9F;}
	.st6{fill:#76A2B5;}
	.st7{fill:#7BA9C1;}
	.st8{fill:#6E8395;}
	.st9{fill:#667987;}
	.st10{fill:#808082;}
	.st11{fill:#91867D;}
	.st12{fill:#747475;}
	.st13{fill:#9E9287;}
	.st14{fill:#A7A19E;}
	.st15{fill:#FFFFFF;}
	.st16{fill:#E57A55;}
	.st17{fill:#FCFCFC;}
	.st18{fill:#69A39D;}
	.st19{fill:#D8684A;}
	.st20{fill:#E5724A;}
</style>
<g id="Layer_1">
</g>
<g id="_x33__SCHEDULE">
	<g id="school_of_fish_1_">
		<g id="XMLID_18_" class="st0">
			<g>
				<path class="st1" d="M573,177.8l1.4-0.1c-1.9-5.4,3.1-11.2,8.7-12.4c5.6-1.1,11.3,0.9,16.7,3c0,11.9-10.8,22.7-22.7,22.8
					c-1.2,1.3-2.3,2.6-3.5,4c-4.2-4.7-7.6-10.1-9.9-15.9C566.5,177.7,569.8,177.1,573,177.8z"/>
				<path class="st1" d="M569.7,106.7l0-0.7c4.8-8.8,17-12.6,25.9-8c-0.5,9.9-10.2,18.4-20.1,17.5l-0.1,1.5
					c-0.9,2.2-2.4,4.2-4.4,5.7c-4.5-4.3-7.9-9.8-9.5-15.8C564.2,106.8,566.9,106.7,569.7,106.7z"/>
				<path class="st2" d="M543.8,279.5c-0.7,2.8-2.4,5.4-4.7,7.1c-4.4-4.6-7.6-10.2-9.4-16.3c4.4-1.7,9.2-2.2,13.8-1.6l0-0.1
					c3.5-8.2,13.3-16.5,22.2-15.3c1.7,0.2,3.5,0.8,4.6,2.1c1.8,2.2,0.8,5.6-0.7,8.1C564.9,271.6,553.1,277.8,543.8,279.5z"/>
				<path class="st3" d="M533.2,156.4c0.7-5.6,5.6-10.1,11.1-11.8c5.7-1.8,11.8-1.2,17.7-0.7c1.2,0.1,2.5,0.3,3.4,1
					c1.9,1.6,1.3,4.6,0.2,6.9c-5.6,11.7-18.7,19.3-31.7,18.4l-0.1,1.7c-1.6,2.2-3.6,4-5.9,5.4c-4-7.1-8-14.2-12-21.3
					C521.7,155.1,527.5,155.3,533.2,156.4z"/>
				<path class="st2" d="M517.9,230.9c0.2-5.5,5.5-9.7,10.9-10.7c5.4-1,11,0.5,16.3,2c-1.7,11.9-14.3,21.1-26.2,19.2
					c-1.3,2-2.6,4-3.8,5.9c-4.1-5-8.2-10-12.3-15C507.7,230.8,512.9,230.4,517.9,230.9z"/>
				<path class="st1" d="M503.7,130.6l-1,2.6c-1.8,2-3.6,4-5.4,6c-2.6-6.4-5.3-12.8-8-19.2c4.1-0.1,8.3-0.1,12.4-0.1l0-2.4
					c6.7-7.4,19.1-8.9,27.3-3.2c0.6,0.4,1.2,0.9,1.4,1.7c0.1,0.8-0.4,1.5-0.8,2.1c-3.2,4.4-6.6,8.9-11.3,11.7
					C513.9,132.5,508,133.3,503.7,130.6z"/>
				<path class="st3" d="M455.3,281.5L455.3,281.5c5.8-11.6,21.5-17,33.2-11.5c1.4,0.6,2.8,1.5,3.2,3c0.3,1.2-0.1,2.4-0.5,3.5
					c-5.7,13.7-21.9,21.9-36.3,18.7c-3.2,2.2-6.4,4.4-9.6,6.6c-4.6-5.6-7.2-12.8-7.2-20.1C443.8,281.6,449.6,281.5,455.3,281.5z"/>
				<path class="st3" d="M469.6,220.4l0-1.2c-0.7-5.2,3.9-9.9,9-11.1c5.1-1.2,10.4,0.4,15.2,2.5c-3.9,9.4-12.6,16.6-22.5,18.6
					l-0.7-0.1c-0.9,3-5.9,3.6-8.3,1.3c-2.6-2.5-2.9-6.5-2.9-10.2C462.9,220.3,466.2,220.3,469.6,220.4z"/>
				<path class="st1" d="M452.3,177.1L452.3,177.1c2.9-7.4,11.1-11.6,19-12c7.9-0.5,15.6,2.1,23,4.9c-4.9,17.3-24.3,29-41.9,25.6
					c-2.5,3.5-6.1,6.1-10.2,7.4c-2.6-7-5.3-13.9-7.9-20.9c-0.5-1.3-1-2.9-0.1-4c0.8-1,2.2-1.1,3.5-1.1
					C442.5,177,447.4,177.1,452.3,177.1z"/>
				<path class="st1" d="M399.6,246.3c1.1-7.9,10-13.9,18.3-13.4c9.2,0.6,17.1,6.9,22.9,14.1c-6,12-20.1,19.5-33.4,17.6
					c-3-0.4-6.6-2.8-5.9-5.4c-2.2,1.2-3.1,3.9-4.4,6.1c-1.3,2.3-4.2,4.5-6.5,3.1c-1.1-0.6-1.6-1.8-2.1-3c-2.1-5.3-3.2-11.1-3.3-16.8
					c0-1.9,0.3-4.1,2-4.9c1-0.5,2.3-0.2,3.4,0.1C393.6,244.7,396.6,245.5,399.6,246.3z"/>
				<path class="st1" d="M406,368.5c-2,3.6-5.2,6.6-9,8.4c-2.6-4.9-5.3-9.8-7.9-14.7c-1.1-2-2.1-4.6-0.6-6.2c1-1.1,2.8-1.2,4.3-1.2
					c4.5,0.1,9.1,0.1,13.6,0.2l0-1.7c2.2-7.2,9.9-11.8,17.4-12.6c7.5-0.8,15,1.4,22.2,3.9c-5.2,16-22.8,26.8-39.4,24.3L406,368.5z"
					/>
				<path class="st1" d="M399.5,154.1c-1.1,2.5-2.8,4.6-5.1,6.1c-3.1-3.8-6.1-7.7-9.2-11.5c-1.4-1.8-2.8-4.6-1-6
					c0.8-0.6,1.8-0.6,2.8-0.6c2.5,0,5.1,0.1,7.6,0.1l0-0.4c5.3-11.9,22.5-16.2,32.8-8.4C423.5,145.1,411.8,153.8,399.5,154.1z"/>
				<path class="st2" d="M385.5,192.3l0-0.3c1.9-4.6,7.1-7.2,12.1-7.2c5,0.1,9.7,2.4,13.8,5.2c-2.1,11.1-14.8,18.7-25.7,16
					c-1.5,1.8-3,3.7-4.5,5.5c-0.5,0.6-1.1,1.3-2,1.4c-1.2,0.1-2.1-1.2-2.6-2.3c-2.6-5.4-4.9-10.9-6.8-16.5
					C374.9,192.6,380.2,192,385.5,192.3z"/>
				<path class="st2" d="M372.8,315.5c3-4.6,7.8-7.9,13.2-9c2.6-0.5,5.4-0.5,7.7,0.7c6.4,3.4,4.9,14-1.1,18.2
					c-5.2,3.6-11.8,3.8-18.2,3.5c-1.8,2-4,3.5-6.5,4.5c-2.4-5.9-4.9-11.7-7.3-17.5C364.6,315.6,368.7,315.6,372.8,315.5z"/>
				<path class="st2" d="M338.3,163.7c3-4.3,8.7-6.4,14-5.8c5.6,0.6,10.6,3.6,14.7,7.4c1,0.9,2,2.1,1.9,3.4c-0.1,1.1-0.9,2-1.7,2.7
					c-4.6,4.5-9.5,9.2-15.6,11.2c-4.9,1.6-10.9,0.8-14.6-2.5c-1.9,3.9-5.1,7.1-8.9,9.1c-0.7-7.4-3.1-14.7-6.8-21.2
					c-0.9-1.6-1.9-3.7-0.6-5.1c0.9-0.9,2.3-0.8,3.5-0.7C328.9,162.7,333.6,163.2,338.3,163.7z"/>
				<path class="st1" d="M335.2,238c-2.2,2.3-4.4,4.6-6.5,6.9c-0.9,1-2.3,2-3.5,1.4c-0.8-0.4-1.1-1.3-1.3-2.1c-2-6.7-4-13.3-6-20
					c-0.2-0.7-0.4-1.4,0-2c0.5-0.8,1.7-0.7,2.6-0.6c5.9,1.1,11.8,2.1,17.8,3.2l0.7-1.2c0.3-3.7,4.3-5.9,8-6.8
					c10.2-2.4,21.7,1,28.9,8.6c-4.6,7.2-11.5,12.9-19.4,16.1c-7,2.8-16.3,3.1-20.6-3L335.2,238z"/>
				<path class="st3" d="M329.5,279.5l0.2-0.9c-0.1-1.6,1.1-3,2.4-4c9.3-7.2,23.2-5.3,33,1.3c0.7,0.4,1.4,1,1.6,1.8
					c0.2,0.8-0.2,1.5-0.6,2.2c-3.8,6.6-10.5,11.4-18,12.7c-7,1.2-14.4-0.5-20.1-4.8c-3.2,1.9-6.3,3.8-9.5,5.8
					c-0.4,0.2-0.8,0.5-1.2,0.4c-0.6-0.1-0.9-0.8-1-1.4c-1.3-5.3-2.6-10.6-3.9-15.9C318.2,277.2,323.9,278.1,329.5,279.5z"/>
				<path class="st1" d="M321.6,402.2l0.1-1c6.8-9.4,21.8-11.5,30.9-4.2c0.3,14.2-16.3,26-29.6,21l-0.9-1.1c-2.8,2.4-5.5,4.7-8.2,7
					c-0.8-8.1-3.1-16-6.7-23.4C311.9,401,316.7,401.6,321.6,402.2z"/>
				<path class="st3" d="M294.9,122.6L294.9,122.6c5.9-18.1,31.7-25.7,46.5-13.9c-5.1,16.1-21.3,28.1-38.3,28.1l0,0
					c-2.5,3.9-5,7.9-7.5,11.9c-6.7-6.1-11.9-13.7-15.1-22.1C284.8,123.7,289.9,122.4,294.9,122.6z"/>
				<path class="st3" d="M296.3,337.6c-2.9,3.1-6.4,5.6-10.3,7.3c-1.9-6.7-3.9-13.4-5.8-20.1c-0.2-0.7-0.4-1.5,0.1-2.1
					c0.4-0.5,1.2-0.6,1.9-0.6c6.2,0,12.5,0.1,18.7,0.1c10.9-9.6,28.6-10.6,40.4-2.1c-8.8,13.4-25.4,21.1-41.3,19.3
					C298.6,339.2,297,338.6,296.3,337.6z"/>
				<path class="st1" d="M311,256.9c-2.6,7.7-8.8,14-16.4,16.9c-7.6,2.8-16.4,2-23.4-2.1l-0.2-0.2c-3.6,3-6.8,6.4-9.7,10.1
					c-0.2-7-2.8-13.9-7.1-19.5c5.1,0.5,10.2,1,15.3,1.5l0.9-1.1C280,250.9,298.8,248.3,311,256.9z"/>
				<path class="st1" d="M264.1,198.6L264.1,198.6c4.5-6.1,11.9-9.9,19.5-10c7.5,0,15,3.7,19.5,9.7c0.2,0.3,0.5,0.7,0.5,1.1
					c0,0.5-0.3,1-0.6,1.4c-4.3,5.9-9.2,11.6-15.6,15c-6.2,3.2-14.2,3.8-20-0.1c-3.7,2.7-7.7,4.8-12,6.4c-1.5-8.4-3.1-16.8-4.6-25.2
					c-0.1-0.4-0.1-0.8,0-1.1c0.4-0.9,1.7-0.8,2.6-0.5C257,196.5,260.6,197.6,264.1,198.6z"/>
				<path class="st2" d="M244.7,178.6l-0.1,0.3c-4.3,3.5-9.5,5.8-14.9,6.5c-1.3-7.2-2.6-14.4-3.8-21.6c5.5,1.8,11.3,2.9,17.2,3.2
					l0.1-1.3c4.2-5.8,11.1-9.6,18.3-10c7.2-0.4,14.5,2.7,19.2,8.1c0.5,0.6,1.1,1.3,1.1,2.1c0.1,1.1-0.8,2.1-1.7,2.8
					C270.7,177.2,257.2,180.9,244.7,178.6z"/>
				<path class="st2" d="M226.9,297.8L226.9,297.8c4.5-6.1,11.9-9.9,19.5-10c7.5,0,15,3.7,19.5,9.7c0.2,0.3,0.5,0.7,0.5,1.1
					c0,0.5-0.3,1-0.6,1.4c-4.3,5.9-9.2,11.6-15.6,15c-6.2,3.2-14.2,3.8-20-0.1c-3.6,2.7-7.7,4.8-12,6.4c-1.5-8.4-3.1-16.8-4.6-25.2
					c-0.1-0.4-0.1-0.8,0-1.1c0.4-0.9,1.6-0.8,2.6-0.5C219.8,295.6,223.3,296.7,226.9,297.8z"/>
				<path class="st3" d="M222.7,389.9l0.1-1.8c11.6-17.1,39.2-20.2,54.3-6.1c-10.6,16.3-31.1,25.5-50.3,22.8
					c-5.7,5.1-12.2,9.3-19.2,12.3c-2.9-6.9-5.1-14.1-6.6-21.4c-0.3-1.4-0.5-2.9,0.3-4c0.9-1.2,2.6-1.4,4.1-1.5
					C211.1,389.9,216.9,389.8,222.7,389.9z"/>
				<path class="st3" d="M205.1,254.5l0.1-0.9c9.5-11.6,28.2-14.2,40.5-5.6c-2.6,7.7-8.8,14-16.4,16.9c-7,2.6-15.1,2.1-21.8-1.2
					c-3.1,2.7-5.9,5.8-8.5,9c-0.2-7-2.8-13.9-7.1-19.5C196.4,253.7,200.8,254.1,205.1,254.5z"/>
				<path class="st3" d="M194.1,213l0.1-1.3c4.2-5.8,11.1-9.6,18.3-10c7.2-0.4,14.5,2.7,19.2,8.1c0.6,0.6,1.1,1.3,1.1,2.1
					c0.1,1.1-0.8,2.1-1.7,2.8c-9.5,8.4-23,12.1-35.5,9.8l-0.1,0.3c-4.3,3.5-9.5,5.8-14.9,6.5c-1.3-7.2-2.6-14.4-3.8-21.6
					C182.4,211.6,188.2,212.7,194.1,213z"/>
				<path class="st2" d="M198.4,129.6c-0.2-5.3,5.4-9.5,10.8-9.5c5.4,0,10.2,3,14.5,6.3c-3.2,10-15.3,16.1-25.2,12.9h0
					c-0.6,2.7-2,5.2-4.1,7c-1.9-5.1-3.9-10.2-5.8-15.3C191.8,130.5,195.1,130,198.4,129.6z"/>
				<path class="st1" d="M186.6,347.4c1.8-6.9,8.7-11.9,15.8-12.9c7.4-1.1,14.9,1.4,21.6,4.8c-1.9,15.9-18.7,28.3-34.4,25.5
					c-3.7,3.5-7.4,7-11.1,10.5c0.1-11.4-3.3-22.7-9.6-32.2C175,342.3,181.4,343.9,186.6,347.4z"/>
				<path class="st1" d="M149.5,170.4c7.4-3.7,15-7,23.1-8.4c8.4-1.4,17.4-0.6,24.7,3.6c0.8,0.5,1.7,1,2.1,1.9c1,1.8,0,4-1.1,5.7
					c-5.7,8.5-15,14.5-25.1,16.2c-9.4,1.6-19.5-0.6-27.4-6c-5.5,2.8-11,5.6-16.6,8.4c-1-6-2-11.9-2.9-17.9c-0.1-0.8-0.3-1.7,0.1-2.4
					c0.6-1.2,2.2-1.3,3.6-1.3C136.6,170.3,143.1,170.4,149.5,170.4z"/>
				<path class="st3" d="M161.4,311.7l-0.1,0.3c-4.3,3.5-9.5,5.8-14.9,6.5c-1.3-7.2-2.6-14.4-3.8-21.5c5.5,1.8,11.3,2.9,17.2,3.1
					l0.1-1.3c4.2-5.8,11.1-9.6,18.3-10c7.2-0.3,14.5,2.7,19.2,8.1c0.5,0.6,1.1,1.3,1.1,2.1c0.1,1.1-0.8,2.1-1.7,2.8
					C187.4,310.4,173.9,314,161.4,311.7z"/>
				<path class="st2" d="M125.2,252.6c7.4-3.7,15-7,23.1-8.4c8.4-1.4,17.3-0.6,24.7,3.6c0.8,0.5,1.7,1,2.2,1.9c1,1.8,0,4-1.1,5.7
					c-5.7,8.5-15,14.5-25.1,16.2c-9.4,1.6-19.5-0.6-27.4-5.9c-5.5,2.8-11,5.6-16.6,8.4c-1-6-2-11.9-2.9-17.9
					c-0.1-0.8-0.2-1.7,0.1-2.4c0.6-1.2,2.3-1.3,3.6-1.3C112.3,252.5,118.8,252.5,125.2,252.6z"/>
				<path class="st1" d="M124.3,398.5L124.3,398.5c0.1-4.9,4.7-8.7,9.5-9.4c4.8-0.7,9.6,1.1,13.9,3.4c0.9,0.5,1.9,1.1,2.1,2.1
					c0.2,0.8-0.1,1.6-0.4,2.3c-1.9,4.9-5.1,9.5-9.8,12.1c-4.2,2.2-9.6,2.4-13.6-0.1c-1.6,3.3-4,6.3-6.9,8.6
					c-3.1-4.9-5.2-10.5-6.2-16.2c-0.1-0.7-0.2-1.5,0.2-2.1c0.5-0.6,1.5-0.7,2.3-0.7C118.5,398.4,121.4,398.5,124.3,398.5z"/>
				<path class="st3" d="M88.7,320.2c-0.6,1.9-1.8,3.6-3.3,4.9c-0.5,0.4-1.1,0.8-1.8,0.6c-0.6-0.1-1-0.8-1.4-1.3
					c-2.4-4.1-4.9-8.1-7.3-12.2c2.7-2.8,6.8-4.1,10.6-3.6l0-0.1c2.4-4.2,9.1-8.5,13.9-8.4c4.8,0,9.5,2,13.7,4.3
					c-2.9,4.6-5.8,9.4-10.2,12.7C98.9,320.2,93.4,321.8,88.7,320.2z"/>
				<path class="st3" d="M126.8,336c-0.9,11.7-12.3,21.6-24.1,20.9l-1.2-0.6c-1.5,2.9-3.1,5.8-4.6,8.6c-3.9-4.5-7.8-9-11.8-13.5
					c4.3-1.3,9-1.8,13.5-1.3c0.3-5.6,4.9-10.4,10.2-12.5C114.5,335.3,120.8,335.5,126.8,336z"/>
				<path class="st3" d="M75.1,237.2c-1.4,2.2-2.9,4.4-4.3,6.6c-0.5,0.8-1,1.6-1.9,1.9c-2,0.8-3.8-1.4-4.9-3.3
					c-2.2-4.1-4.4-8.1-6.7-12.2c-0.3-0.5-0.5-1-0.4-1.5c0.2-0.6,0.8-0.9,1.4-1.1c4-1.5,8.3-2.2,12.6-2.2l0.4-0.9
					c0.9-5.7,4.9-10.8,10.3-13c5.4-2.1,11.8-1.3,16.4,2.2C98.2,226,87.2,237.1,75.1,237.2z"/>
				<path class="st1" d="M43.7,305.9c-0.3-4.9,3.9-9.2,8.5-10.6c4.7-1.5,9.8-0.8,14.8-0.1c2.1,11.3-7.6,23.2-19,24
					c-1.2,3.1-3.3,5.8-6,7.6c-3.9-5.9-7.6-11.9-11.2-18C34.6,306.2,39.3,305.2,43.7,305.9z"/>
				<path class="st2" d="M15.7,382.1l0-1.1c-0.6-6.5,5.2-12.1,11.5-13.8c6.3-1.6,12.9-0.2,19.3,1.2c-2.2,14.8-18.2,26.1-32.9,23
					l-0.5-0.5c-0.9,0.9-1.8,1.8-2.7,2.7c-0.6,0.6-1.4,1.3-2.3,1.3c-1-0.1-1.7-1.1-2.2-2c-1-1.8-2-3.6-3-5.5
					c-0.8-1.6-1.5-3.8-0.1-4.9C3.4,382,4.2,382,5,382C8.6,382,12.1,382.1,15.7,382.1z"/>
			</g>
			<g>
			</g>
		</g>
	</g>
	<g id="flying_fish_1_">
		<g id="XMLID_2_">
			<g>
				<path class="st4" d="M995.4,219.1c-5,0-9.8-1.6-14.2-4.1c-4.3-2.4-8.2-5.7-11.8-9c-2-1.8-4-3.6-6.5-4.4c3.9-0.9,7.6-2.5,8.7-5.7
					c2.9-0.3,5.8-0.7,8.7-1.3l0.5,0.3c-1.6,1.4-3.2,2.9-4.5,4.5c3.4,4.6,7.4,8.8,12,12.4C991,213.8,994,215.9,995.4,219.1z"/>
				<path class="st5" d="M965.6,194.5c-0.1,0-0.1,0-0.2,0l0-0.2c3.4-1.3,6.9-2.6,10.3-3.9c4.7-1.8,9.6-3.6,14.7-3.2
					c-3,2.5-6.5,5-9.7,7.7l-0.5-0.3c-2.9,0.6-5.8,1-8.7,1.3c0,0,0-0.1,0-0.1C969.6,195.4,967.6,194.9,965.6,194.5z"/>
				<path class="st6" d="M971.5,195.9c-1.1,3.1-4.8,4.8-8.7,5.7c-0.7,0.2-1.4,0.3-2.1,0.4v0c-2.4,0.4-4.6,0.5-6.2,0.5
					c-5.2,0.2-10.3,0.4-15.5,0.6c-4.9,0.2-9.9,0.5-14.8,0.9c-2.1,0.1-4.2,0.3-6.3,0.4c-0.1,0-0.2,0-0.3,0
					c-6.6,0.5-13.1,0.3-19.7,0.1c-5.1-0.2-10.1-0.3-15.2-0.5c-2-0.1-9.7-1.1-15.3-3.1l0-0.5c17.5,1.1,35,0.6,52.4-1.3
					c5-0.6,10-1.2,15.1-1.6c10.3-0.6,20.9,0.2,30.6-3c2,0.4,4,0.8,6,1.2C971.6,195.8,971.6,195.9,971.5,195.9z"/>
				<path class="st7" d="M875.8,193.4c-0.8-0.6-2-0.6-2.9-0.1c-0.9,0.5-1.5,1.7-1.3,2.7c0.1,0.5,0.3,1,0.8,1.3
					c0.3,0.2,0.6,0.3,0.9,0.3c1.2,0.2,2.5-0.3,3.2-1.3C877,195.4,876.7,194,875.8,193.4L875.8,193.4z M867.5,200.4l0,0.5
					c-4.8-1.7-8.2-4.3-5.4-7.6c1.8-2.2,7.5-2.5,10.1-3.2c4.9-1.2,9.9-2,14.9-2.2c1.1-0.1,2.3-0.1,3.4-0.1l0.7,0.2
					c-0.5,1.4-0.9,2.9-1.2,4.4l0.2,0.5c0.3,0.1,0.5,0.2,0.8,0.3v0c10.2,3.2,21,5.2,31.4,3c1-0.2,2-0.5,2.7-1.1
					c1.1-1,1.3-2.7,1.3-4.2c0-1.5,0-3-0.1-4.5c4.5,0.9,8.9,1.9,13.4,2.8c7.6,1.6,15.3,3.2,22.9,4.8c1,0.2,2.1,0.4,3.1,0.6
					c0.1,0,0.1,0,0.2,0c-9.8,3.2-20.4,2.4-30.6,3c-5,0.3-10.1,1-15.1,1.6C902.5,201,884.9,201.5,867.5,200.4z"/>
				<path class="st8" d="M962.4,193.7l0,0.2c-7.6-1.6-15.3-3.2-22.9-4.8l0-0.2c2.2-0.5,4.4-1.3,6.4-2.3c3.3-1.6,4.6-2.6,7.6-0.9
					C956.7,187.5,959.7,191.2,962.4,193.7z"/>
				<path class="st9" d="M960.8,202l0,0.1c-2.6,2-5.3,3.9-7.9,5.9c-0.2,0.2-0.4,0.3-0.7,0.4c-0.4,0.1-0.8-0.1-1.1-0.2
					c-4-1.8-8-3.5-12-5c5.1-0.3,10.3-0.5,15.5-0.6C956.2,202.5,958.4,202.3,960.8,202z"/>
				<path class="st10" d="M943.4,219c0.1,0.3-0.1,0.5-0.3,0.8c-4,6.2-8.5,12.9-15.4,15.5c-0.2,0.1-0.5,0.2-0.8,0.1
					c-0.2-0.1-0.4-0.2-0.5-0.4c-0.2-0.2-0.4-0.4-0.5-0.6c-6.5-7.9-9.5-18.6-7.8-28.7l-0.6-0.1c0-0.2,0.1-0.4,0.1-0.6l0-0.4
					c0.1,0,0.2,0,0.3,0c2.1-0.2,4.2-0.3,6.3-0.4l0.1,0.9c6.8,3.6,13.1,8.2,18.7,13.5C943.2,218.5,943.4,218.7,943.4,219z"/>
				<path class="st11" d="M926.1,186.3c0.1,1.5,0.1,3,0.1,4.5c0,1.5-0.2,3.2-1.3,4.2c-0.7,0.7-1.7,0.9-2.7,1.1
					c-10.4,2.2-21.2,0.2-31.4-3v0l0.1-0.3c3.4-1.1,6.7-2.1,10.1-3.2c2-0.6,4.1-1.3,6-2.1c6.6-2.7,12.5-7.1,16.9-12.8l0.1,0
					C925.2,178.5,925.8,182.4,926.1,186.3z"/>
				<path class="st12" d="M925.9,234.4l-0.9,0.9c-2,0.9-4.6,1.3-5.8,3.3c-3.5-10.6-4.1-22.1-1.7-33l0.6,0.1
					C916.5,215.7,919.4,226.5,925.9,234.4z"/>
				<path class="st13" d="M903.9,167c2.5-3.3,5-6.6,7.7-9.8c0.6-0.8,1.4-1.6,2.4-1.4c0.7,0.1,1.2,0.7,1.7,1.3
					c3.9,5.3,6.7,11.3,8.5,17.6l-0.1,0c-4.4,5.6-10.3,10.1-16.9,12.8c-2,0.8-4,1.4-6,2.1c-3.4,1.1-6.7,2.1-10.1,3.2l-0.1,0.3
					c-0.3-0.1-0.5-0.2-0.8-0.3l-0.2-0.5c0.3-1.5,0.7-3,1.2-4.4c2-5.6,5.3-10.7,8.8-15.6C901.2,170.6,902.5,168.8,903.9,167z"/>
				<path class="st14" d="M894.2,144.3c5,5.7,13.1,14.4,9.7,22.7c-1.3,1.8-2.7,3.6-4,5.5c-3.5,4.9-6.8,10-8.8,15.6l-0.7-0.2
					c-1.1,0-2.3,0-3.4,0.1c-9.3-6.7-12.4-20.2-16.9-30c-3.4-7.3-5.6-15.1-6.6-23.2c-0.5-4-0.1-8.2-1.3-12c4.6,1.3,9,3.2,13.2,5.6
					C882.5,132.5,888.7,138.1,894.2,144.3z"/>
				<path class="st15" d="M875.8,193.4c0.9,0.6,1.2,2,0.6,3c-0.6,1-2,1.5-3.2,1.3c-0.3-0.1-0.6-0.1-0.9-0.3
					c-0.4-0.3-0.7-0.8-0.8-1.3c-0.2-1.1,0.4-2.2,1.3-2.7C873.8,192.8,874.9,192.9,875.8,193.4L875.8,193.4z"/>
			</g>
			<g>
			</g>
		</g>
	</g>
	<g id="fish2_1_">
		<g id="XMLID_8_" class="st0">
			<g>
				<path class="st16" d="M676.3,355.7C676.3,355.7,676.3,355.7,676.3,355.7c1.3-0.2,2.7,0.9,2.8,2.2c0.1,1.4-1.3,2.8-2.8,2.6
					c-1.4-0.2-2.4-1.9-1.9-3.2C674.7,356.4,675.4,355.8,676.3,355.7z M687.4,374.9l0.4-0.5c3.2-6.3,3.6-13.9,1.2-20.5
					c-0.5-1.4-1.2-2.8-2-4.2c-2.8-4.7-7-8.5-12-10.7l0,0.1c-5,5.3-9.4,11.4-12.9,17.8c-0.4,0.8-0.9,1.7-0.9,2.6c0,1,0.5,1.9,1.1,2.7
					c4.2,6.3,10.6,10.9,17.9,12.9c2.1,0.6,4.4,0.9,6.2-0.3L687.4,374.9z"/>
				<path class="st17" d="M674.4,357.2c-0.5,1.4,0.5,3,1.9,3.2c1.4,0.2,2.9-1.1,2.8-2.6c-0.1-1.3-1.5-2.4-2.8-2.2c0,0,0,0,0,0
					C675.4,355.8,674.7,356.4,674.4,357.2z"/>
				<path class="st18" d="M701.4,364.4c-1,5.8,0.7,13.5,2.5,20.1c4.4,1.3,9.1,2,13.7,2.1c1.9,0,3.8,0,5.7-0.1c0.3-0.3,0.7-0.5,1-0.8
					c3.6-3,8.7-8,3-10.6c-3.3-1.6-7,0-10.3-0.6c-4.1-0.8-8-3.7-10.7-6.8c-1.3-1.4-2.7-3.1-4.5-3.2
					C701.6,364.4,701.5,364.4,701.4,364.4z"/>
				<path class="st18" d="M719.2,388.9c1.4-0.7,2.7-1.5,4-2.5c-1.9,0.1-3.8,0.2-5.7,0.1c-4.6-0.1-9.3-0.8-13.7-2.1
					c0.5,2,1.1,3.8,1.6,5.5c0.2,0.7,0.4,1.5,1,1.9c0.8,0.6,1.9,0.5,2.9,0.3C712.7,391.6,716.1,390.5,719.2,388.9z"/>
				<path class="st18" d="M723.2,386.4c-1.3,0.9-2.6,1.8-4,2.5c5.1,5,11.6,8.5,18.5,9.9c-1.6-4.3-3.2-8.6-4.8-12.9l-0.1-0.7
					C729.6,385.8,726.4,386.2,723.2,386.4z"/>
				<path class="st18" d="M753,379.8l0.2,0.5c2.1,2.2,4.2,4.5,7,5.6c4.2,1.8,9,0.7,13.4-0.3c6.5-1.5,13-3.1,19.5-4.6
					c-3.5,0.3-7-1.2-9.8-3.4c-2.8-2.2-5-5-7.2-7.7l-0.5-0.9C768.2,372.7,761,377,753,379.8z"/>
				<path class="st18" d="M771.2,332.4c0.1,0.2,0.2,0.3,0.4,0.5l0.6-0.4c0.3-4.3,4.6-7.1,7.7-10.1c3.9-3.8,6.5-9,7.2-14.4
					c0.1-1,0.2-2.1-0.3-3c-0.5-0.9-1.4-1.5-2.3-1.9c-7-3.4-15.2-2.7-22.8-0.8c-7.5,1.9-14.8,4.8-22.5,5.9c-9.4,1.3-19-0.4-28.4,1.1
					c-8.2,1.3-18.3,5.6-23.5,12.3l1.1,0.9c4.5-2.4,9.4-3.9,14.1-4.2c16-1.2,32.1-0.5,47.9,2.1C759.8,321.9,765.6,324.7,771.2,332.4z
					"/>
				<path class="st19" d="M796.8,360.3c-6.5-2.1-13.5-1.2-20.1,0.6c-6.5,1.8-12.8,4.6-19.4,6.3c-5.8,1.5-11.8,2.1-17.6,3.8
					c-2.2,0.7-4.4,1.5-6.7,1.6c-2.5,0.2-5.1-0.5-7.5-1.4c-13.5-5.1-23.4-17.9-37.4-21.7l-1.2,0.2c0.8,1.3,1.4,2.7,2,4.2
					c2.4,6.6,2,14.2-1.2,20.5l-0.4,0.5c4.5,4.6,10.2,7.8,16.5,9.6c-1.8-6.6-3.5-14.3-2.5-20.1c0.1,0,0.2,0,0.4,0
					c1.8,0.1,3.2,1.8,4.5,3.2c2.8,3.1,6.6,6,10.7,6.8c3.3,0.6,7-1,10.3,0.6c5.7,2.7,0.5,7.7-3,10.6c-0.3,0.3-0.7,0.6-1,0.8
					c3.2-0.2,6.4-0.7,9.6-1.3c6.2-1.2,12.3-2.9,18.3-4.8c0.6-0.2,1.3-0.4,1.9-0.6c8-2.8,15.2-7.1,22.5-10.8c6.5-3.3,13.1-6.1,20.7-7
					c0.3,0,0.7-0.1,1-0.1l-0.1-0.7C797.3,361.1,797.2,360.4,796.8,360.3z"/>
				<path class="st20" d="M796.8,360.3c0.4,0.1,0.5,0.9,0.3,0.9l0.1,0.7c1.6-0.2,3.2-0.2,4.7,0.3l0-0.1c0.2,0.1,0.4,0.1,0.6,0.2
					l0.1-0.3c0.4-3.3,0.9-6.7,1.3-10c0.5-4.2,0.9-9-2.1-11.9l0.1-1.2c0,0-0.1,0-0.1,0l-1.4,0.2c-6.9,1.6-14,0.1-20.9-1.3
					c-1.7-0.3-3.4-0.7-4.9-1.7c-1.2-0.8-2.1-1.9-3-3.1c-0.1-0.2-0.2-0.3-0.4-0.5c-5.6-7.7-11.4-10.5-20.9-12.1
					c-15.8-2.6-31.9-3.3-47.9-2.1c-4.7,0.3-9.6,1.8-14.1,4.2c-6.5,3.5-12,9.1-13.8,16.2l0.4,0.4c0,0,0.1,0,0.1,0.1
					c5,2.2,9.3,6,12,10.7l1.2-0.2c14,3.8,23.9,16.5,37.4,21.7c2.4,0.9,4.9,1.6,7.5,1.4c2.3-0.2,4.5-1,6.7-1.6
					c5.7-1.7,11.8-2.3,17.6-3.8c6.6-1.7,12.8-4.4,19.4-6.3C783.3,359.1,790.3,358.2,796.8,360.3z"/>
				<path class="st18" d="M801.8,340c3,2.9,2.7,7.8,2.1,11.9c-0.4,3.3-0.9,6.7-1.3,10l-0.1,0.3c7.8,2.5,15.4,5.5,22.8,8.9
					c2.5,1.1,5,2.3,7.7,2.4c2.7,0.1,5.7-1.2,6.6-3.8c0.9-2.6-0.4-5.4-2-7.6c-2.9-4-6.7-7.4-11-9.7v0c10.5-0.9,23.5-3.7,16.7-14.9
					c-2.2-3.7-5-7.7-9.2-8.5c-10.7-2.1-21,10.4-32.3,9.8L801.8,340z"/>
			</g>
			<g>
			</g>
		</g>
	</g>
	<g>
		<path class="st15" d="M614.8,348.3c-0.3,5.7,12.7,13.2,17.2,8.7c2.1-2,2.3-5.4,1.5-8.1c-1.2-4.3-5-7.9-9.5-8.2
			C619.6,340.3,615,343.8,614.8,348.3z"/>
	</g>
	<g>
		<path class="st15" d="M647.3,313c-3.7-5.2-13.5-3.5-14.9,2.9C629,331.6,656.7,326.3,647.3,313z"/>
	</g>
	<g>
		<path class="st15" d="M616.1,281.5c3.3-9,17.8-6.7,15.5,3.4C629.2,295.7,612,292.5,616.1,281.5z"/>
	</g>
	<g>
		<path class="st15" d="M510.5,55.7c9.1-18,17.4,18.9,1.9,7.4C509.5,61,509.3,58.1,510.5,55.7z"/>
	</g>
	<g>
		<path class="st15" d="M414.1,72.6c4.7-10.7,19-7.9,18.1,4.1C431.1,90.2,407.4,87.7,414.1,72.6z"/>
	</g>
	<g>
		<path class="st15" d="M488.3,23.4c-1.3,6.9,10.9,7.1,9.7,0.5C497.1,19,489.2,18.3,488.3,23.4z"/>
	</g>
	<g>
		<path class="st15" d="M578,59.5c6.8-3.5-2-10.2-6.6-7.8C563.7,55.5,572.1,62.5,578,59.5z"/>
	</g>
	<g>
		<path class="st15" d="M604,22.7c-8.7,3.1-1,16.6,5.9,10.6C615.4,28.6,611,20.2,604,22.7z"/>
	</g>
	<g>
		<path class="st15" d="M602.9,0.5c-5.5,2-4.7,9.1,1.2,9.8C612.8,11.4,610.2-2.1,602.9,0.5z"/>
	</g>
	<g>
		<path class="st15" d="M249.9,107.6c2,2.6,6,3,8.9,1.4C280.3,96.9,236.6,90.1,249.9,107.6z"/>
	</g>
	<g>
		<path class="st15" d="M284.5,75.7c-10.9,5-2.2,17.8,5.4,10.7C294.1,82.5,291.1,72.7,284.5,75.7z"/>
	</g>
	<g>
		<path class="st15" d="M492.9,307.3c-13.2,0.7-7,21.2,3.9,15.3C504.4,318.5,501.6,306.9,492.9,307.3z"/>
	</g>
	<g>
		<path class="st15" d="M320.2,355.7c-0.7,13.3,15,7.6,7.2,0.6C325.5,354.6,322.4,354.4,320.2,355.7z"/>
	</g>
	<g>
		<path class="st15" d="M56.7,342.5c13-10,11,14.3,0,8C52.6,348,53.9,344.7,56.7,342.5z"/>
	</g>
	<g>
		<path class="st15" d="M612,116.6c5.4-4.1,11.5,3.7,7.4,8.3C613.7,131.2,606.3,120.9,612,116.6z"/>
	</g>
	<g>
		<path class="st15" d="M617.9,59.2c-4.9,2.8-5.9,9.3,1.4,9.1c8.9-0.2,2.2-10.5-1.4-7.8"/>
	</g>
	<g>
		<path class="st15" d="M463.3,124.5c1.7-2.8,1.3-6-3.7-6.9C445.1,115,453.9,140.6,463.3,124.5z"/>
	</g>
	<g>
		<path class="st15" d="M834.7,147c8.4,17.6,18.6-11.6,4.1-7.6C833.9,140.8,833.4,144.1,834.7,147z"/>
	</g>
	<g>
		<path class="st15" d="M826.4,107.8c7.2,1.4,4.5,11.3-1.3,12.8C814.9,123.2,815.8,105.8,826.4,107.8z"/>
	</g>
	<g>
		<path class="st15" d="M843.1,89.4c-1.4-5-5.9-9.4-9.6-2c-1.1,2.1-0.7,4.8,0.6,6.7c0.8,1.2,2.1,2.2,3.5,2.6
			C843.3,98.2,844.3,93.6,843.1,89.4z"/>
	</g>
</g>
</svg>
