<?xml version="1.0" encoding="utf-8"?>
<!-- Generator: Adobe Illustrator 22.1.0, SVG Export Plug-In . SVG Version: 6.00 Build 0)  -->
<svg version="1.1" xmlns="http://www.w3.org/2000/svg" xmlns:xlink="http://www.w3.org/1999/xlink" x="0px" y="0px"
	 viewBox="0 0 1366 446" style="enable-background:new 0 0 1366 446;" xml:space="preserve">
<style type="text/css">
	.st0{fill:#EFDC8E;}
	.st1{fill:#D3926E;}
	.st2{fill:#BC7B50;}
	.st3{fill:#518E51;}
	.st4{fill:#62A862;}
	.st5{fill:#444444;}
	.st6{fill:#757575;}
	.st7{fill:#8C8C8C;}
	.st8{fill:#D3AD57;}
	.st9{opacity:0.7;}
	.st10{fill:#66CC66;}
	.st11{fill:#339933;}
	.st12{opacity:0.8;}
	.st13{fill:#282828;}
	.st14{fill:#4F4F4F;}
	.st15{opacity:0.9;}
	.st16{fill:#993333;}
	.st17{fill:#895F5F;}
	.st18{fill:#FFFFFF;}
	.st19{fill:#996666;}
	.st20{fill:#7A4040;}
	.st21{fill:#663333;}
	.st22{fill:#8E705B;}
	.st23{fill:#BA9875;}
	.st24{fill:#997A61;}
	.st25{fill:#725F52;}
	.st26{fill:#CEA980;}
	.st27{fill:#6D6D6D;}
</style>
<g id="Layer_1">
</g>
<g id="_x33__SCHEDULE">
	<g id="sea_floor_COLOR">
		<g id="XMLID_334_">
			<g>
				<path class="st0" d="M1006.9,195.3c14-7.8,28.5-14.5,43.4-20.3c32.6-12.6,67-20.2,101.9-22.7c53.1-3.8,110.1-14.3,162,2.1
					c4.4,1.4,9,3,13.6,2.7c4.5-0.2,8.8-2.1,13.1-3.4c7.6-2.3,15.8-2.7,23.6-1.4l2,0.2c0,98.2,0,195.8,0,294h-2
					c-453.8,0-909.5,0.2-1363.3,0.2h0c0-62.8,0-125.6,0-188.4l1.8-0.4c66,6.7,125.6-44.2,191.9-46.4c20,20.5,52.7,18.5,81.4,18.5
					c41.3,0,82.6,7.4,121.3,21.8c15.9,5.9,32.1,13.1,49,12.1c31.9-1.8,55.6-31.3,86.6-38.6c42.4-9.9,90.2,22.9,128.2,1.7
					c7.3,6,15.2,11.3,23.4,15.9c6.6,3.7,13.5,6.9,20.5,9.6c5.9,2.3,11.8,4.2,17.9,5.8c44.4,11.6,93.8,5.6,132.7-19.2
					c11.2-7.1,22.2-15.9,35.5-17.4c13.5-1.6,26.6,4.8,40.1,5.6c23.6,1.5,44.5-13.4,64.7-25.7C999.7,199.4,1003.3,197.3,1006.9,195.3
					z"/>
				<path class="st1" d="M1023,164c9.9-1,22.8,1,27.3,11c-14.9,5.7-29.4,12.5-43.4,20.3c-13.8-0.8-28.9,4.6-42.6,5.6
					c-17.1,1.2-34.2,0.8-51.2-1.3c-12.4-1.5-24.9-4-37.4-3c-21,1.6-39.5,12.6-57.6,22.3c-20.1,10.8-37.7,15.9-59.9,19.3l-0.2-0.3
					c6.7-3.8,13.2-7.9,19-13.1c3.1-2.7,6.6-6.6,7.8-10.8c0.3-1.1,0.5-2.3,0.4-3.4c0.1,0.4,0.2,0.8,0.3,1c0.4-0.8,0.1-1.8-0.5-2.5
					c0-0.1,0-0.1,0-0.1c9-1,16-4,24-7c25-10,47-22,70-36c4-2,9-3,14-4c16-1,31-6,47-11c6-1,12-1,16,4c6,7,10,16,19,17
					C991,172,1007,166,1023,164z"/>
				<path class="st2" d="M964.3,200.9c13.7-1,28.8-6.4,42.6-5.6c-3.6,2-7.3,4.1-10.8,6.3c-20.2,12.2-41.2,27.1-64.7,25.7
					c-13.5-0.8-26.6-7.1-40.1-5.6c-13.2,1.5-24.2,10.3-35.5,17.4c-38.9,24.7-88.2,30.8-132.7,19.2l0.2-0.6
					c10.8-7.7,23.1-13.1,34.6-19.7l0.2,0.3c22.2-3.4,39.8-8.5,59.9-19.3c18.1-9.8,36.6-20.7,57.6-22.3c12.5-1,25,1.5,37.4,3
					C930,201.7,947.2,202.1,964.3,200.9z"/>
				<path class="st3" d="M827,145c5,1,6,7,5,11c-1,3-4,6-7,8c-7,3-15,4-23,4c-5,0-7,3-10,7c-1,1-2,3,0,5c5,3,12-1,17,1c4,2,5,8,1,13
					c-7,8-17,4-26,4c-4-1-12,2-10,8c1,4,6,5,8.7,7.6l2,0.4c-1.2,4.2-4.7,8.1-7.8,10.8c-5.8,5.2-12.3,9.3-19,13.1
					c-11.6,6.5-23.8,12-34.6,19.7l-0.2,0.6c-6.1-1.6-12.1-3.5-17.9-5.8l0.2-0.5c20.4-17.5,34.2-41.2,47.5-64.5
					c5.9-10.3,11.8-20.6,16.6-31.4c13.7-31.1,17.5-65.8,16.8-99.8c1.4-0.2,2.9-0.3,4.6-0.2c7,0,6,10,6,16c-1,8-4,17-1,25
					c1,1,0,4,4,1c4-4,4-11,9-11c3-1,6,2,8,5c3,7,1,14-5,18c-4,3-8,4-10,8c-1,2,0,6,3,6c6,0,12-3,18-5c4-1,9-1,9,5c-1,4-3,8-6,10
					c-7,3-14,4-21,7c-2,2-5,6-2,9c2,1,4,1,6,1C816,150,820,144,827,145z"/>
				<path class="st4" d="M786.4,56.2c0.7,34-3.1,68.7-16.8,99.8c-4.8,10.9-10.7,21.2-16.6,31.4c-13.4,23.3-27.2,47-47.5,64.5
					l-0.2,0.5c-7-2.7-13.9-5.9-20.5-9.6l0.5-0.8c0.3-5.6,4.6-8.5,9.9-8.3c5.8,0.2,11.6,1.4,14.9-4.7c2.8-5.2,0.2-9.4-4.1-12.5
					c-3.6-2.6-8.3-5.7-5.7-10.8c1.9-3.7,6.9-5.3,10.6-3.6c3.3,1.5,6.1,5.7,10,5.7c4.1,0,4.6-5.6,4.7-8.7c0.1-4.2-0.7-7.7-4.4-10
					c-3.7-2.3-8.6-3.2-12.9-3.4c-3.3-0.2-9.6,0.3-10.7-4c-8.2,7.1-16.7,13.7-27.3,16.6C663,201,654,196,655,189c0-9,11-13,19-17
					c4-2,5-7,4-11c-5-9-16-2-21,4c-2,2-4,4-8,3s-11-6-7-10c8-6,16-11,23-19c-3-4-3-9-7-11c-5-1-10,2-13,6c-3,3-7,0-9-2
					c-5-9,3-15,8-21c1-7-6-11-7-18c0-5,5-8,9-9c5-1,8,5,13.4,6c-0.4-2-1.4-4-0.4-5c5-3,9-9,16-7c1,0,2,2,2,3c-2,8-9,13-10,21
					c0,5,3,9,9,8s11-9,17-6c4,9-5,16-11,21c1,11,10,21,21,23c8,1,12-9,18-13c2,0,5-2,7,2c1,3-1,6,0,9c4,6,14,6,20,2c2-9,2-19,0-28
					c-1-2-2-3-4-4c-3-1-6-2-9-3s-7-3-7-8c-1-7-2-13-1-20c1-5,6-5,9-5c6,1,13-1,18,6c-1,9,1,21,12,22c3,0,6-3,7-5
					C777.7,88.1,767.5,59.3,786.4,56.2z"/>
			</g>
			<g>
			</g>
		</g>
		<g id="XMLID_333_">
			<g>
				<path class="st5" d="M1342.6,188.3c0.5,1.7,0.2,3.5-0.1,5.2c-1.5,8.7-3,17.4-4.5,26.1c-0.5,3-1.2,6.3-3.5,8.2
					c-2.2,1.8-5.2,1.9-8,2.1c-30,2.2-59.6,18.1-88.8,10.8c-8.2-2.1-16.1-5.9-24.5-5.4c-5.5,0.3-10.7,2.5-16.1,3.7
					c-13.2,3-27.7,0.2-38.8-7.6l-1-3.4c1.8-7.1,7.1-13.2,13.8-15.9c1.2-0.5,2.4-0.9,3.7-1.2v0l8.9,0.5c14.9-1.6,29.8-3.2,44.8-4.9
					c13.4-1.5,27.2-2.9,40.3,0.6c4.6,1.3,9.2,3.2,14,3.2c6.5,0,12.4-3.4,17.9-6.6c11.6-6.9,23.2-13.7,34.9-20.6
					C1338.8,184,1341.6,185.2,1342.6,188.3z"/>
				<path class="st6" d="M1326.2,179.7c2.6,1.9,6.2,2.5,9.4,3.4c-11.6,6.9-23.3,13.7-34.9,20.6c-5.6,3.3-11.5,6.7-17.9,6.6
					c-4.8,0-9.4-1.9-14-3.2c-13-3.5-26.8-2.1-40.3-0.6c-14.9,1.6-29.8,3.2-44.8,4.9l-8.9-0.5v0c2.9-0.8,5.8-1.5,8.5-2.8
					c12.1-5.9,17-23.6,30.2-25.6v0l1.4,2.6c26.1-0.8,52.4,0.1,78.4,2.8c11.7,1.2,25.9,1.7,32.6-8.1l0.2-0.2
					C1326.1,179.6,1326.1,179.6,1326.2,179.7z"/>
				<path class="st7" d="M1213.9,182.4c2.1-11.2,12.4-19,22.6-24.1c10.2-5.1,21.5-9,29.4-17.2c2.3-2.4,4.5-5.3,7.8-6.1
					c2.1-0.6,4.4-0.1,6.5,0.3c16.4,3.2,35.9,9.2,39.8,25.4c1.6,6.6,0.7,14.8,6,18.9l-0.2,0.2c-6.6,9.7-20.8,9.2-32.6,8.1
					c-26-2.6-52.2-3.6-78.4-2.8l-1.4-2.6v0C1213.6,182.5,1213.8,182.4,1213.9,182.4z"/>
			</g>
			<g>
			</g>
		</g>
		<g id="XMLID_332_">
			<g>
				<path class="st8" d="M788.6,383.2c-11.1,2.9-20-8.7-29.9-14.5c-6-3.5-12.9-4.9-19.7-6.3c-53.1-10.9-106.1-21.7-159.2-32.5
					c-13.8-2.8-28.2-6-38.6-15.4c-5.7-5.1-11.6-12.4-19-10.6c21.6-5.3,44.6,3.4,65.1,9.5c23.5,7,42,5.5,66.4,5.1
					C705.7,317.5,759.9,339.7,788.6,383.2z"/>
			</g>
			<g>
			</g>
		</g>
		<g id="XMLID_331_">
			<g>
				<path class="st8" d="M1164.4,341.6c-37.4,7.6-74.8,15.1-112.2,22.7c-15.6,3.1-20.7,15.6-36.6,20.3
					c-19.9,5.9-39.3,13.6-59.5,18.5c2.8-1,3.3-5.1,1.6-7.6c-1.7-2.4-4.7-3.6-7.5-4.6c-23-8.1-47.5-15.1-71.5-13
					c-3.5,0.3-7.1,0.8-10.6,1.6c-25.2,5.3-33.5,6.7-51.1-11.5c-14.8-15.2-32-27.5-50.4-37.8c15.6-5.5,33.9,4.6,49.1-2
					c4.9-2.1,8.9-5.8,13.9-7.8c10.6-4.1,22.2,0.8,32.9,4.5c18,6.2,44.2,14.2,63.4,12.1c21.6-2.3,46.7-19.2,66.6-28.2
					c11.7-5.3,23.5-10.6,35.8-14.2c30.1-9,62.2-8.2,93.6-7.3c-17.2,12.9-34.5,25.7-51.7,38.6
					C1102.2,323.2,1134.9,328.7,1164.4,341.6z"/>
			</g>
			<g>
			</g>
		</g>
		<g id="XMLID_330_" class="st9">
			<g>
				<path class="st10" d="M352.8,61.5c13.3,23.9,12.5,55.2-2.2,78.4c-4.7,7.4-10.6,13.9-16.6,20.3c-9.5,10.3-19.2,20.6-29.9,29.6
					c-27.6,23.2-62.7,39-82.6,69.1l-0.8,0.1c-0.7-9,0.7-15.8,5.9-24.3c5.1-8.2,12-15.2,19.7-21c16-12,34.9-20,49.9-33.3
					c15.1-13.4,25.4-31.3,34.4-49.3c11.3-22.7,21.3-47.4,18.9-72.6C350.6,59.4,351.7,60.4,352.8,61.5z"/>
				<path class="st10" d="M267.8,55.8c8.6,20.5,12,43.9,4.9,64.9c-4.4,12.9-12.3,24.2-19.6,35.8c-10.1,16-19,33-25.1,51
					c-6.1,17.9-7.8,36.5-9.7,55.2c-1-1.8-3.3-2.5-5.1-3.5c-7-4-10.2-15.9-11.6-23.2c-1.7-9.4-1.2-19.2,1.1-28.5
					c5.1-20.5,17.4-38.2,28.5-56.2c11.1-17.9,21.4-37.5,21.6-58.6c0.4-31.9-22.3-60.9-21-92.8C245.7,17.3,259.2,35.3,267.8,55.8z"/>
				<path class="st11" d="M221.6,258.9c19.8-30.1,54.9-45.9,82.6-69.1c10.7-9,20.4-19.3,29.9-29.6c5.9-6.4,11.9-12.9,16.6-20.3
					c14.7-23.2,15.5-54.4,2.2-78.4c21.4,20.9,31.4,54.1,20.6,81.9c-7.9,20.4-25.3,35.8-43.9,47.4c-18.6,11.6-39,20.1-57.4,32.1
					c-7,4.6-11.4,10.2-17.5,15.6c-5.4,4.8-12.1,10-18.5,13.3c-5.8,3.1-10.7,5.2-15,10.7c-0.1-1.2-0.3-2.4-0.4-3.6L221.6,258.9z"/>
				<path class="st10" d="M215.1,261l0.1,1.4c-5.8,0.3-11.6,0.2-17.4-0.5c-3.6-0.4-7.4-1.1-10.1-3.4c-11.4-9.8-23.6-16.9-32.8-29.2
					c-9-11.9-15.2-25.8-18.2-40.3c-3.2-15.5-2.7-32.2,4.2-46.4c10-20.3,31.1-32.1,47.4-47.8c9.2-8.8,13.8-18.7,17.5-30.2
					c10.7,8.8,8.4,26.8,5.1,38.7c-3,10.7-7.2,21.1-12.4,30.9c-6.2,11.5-14,22.3-18.6,34.6C167.2,202.5,183.2,244.3,215.1,261z"/>
			</g>
			<g>
			</g>
		</g>
		<g id="XMLID_329_" class="st12">
			<g>
				<path class="st13" d="M288,306c0,7-5,12-12,13c-14,0-29-3-43,1c-6,1-12,4-19,5c-8,1-16,0-24-3c-9-4-18-6-27-9
					c-3-1.1-4.7-3.1-5.5-5.4l0.6-0.1c4.6-4,11.4-4.1,17.4-2.8c6,1.2,11.7,3.6,17.8,3.8c9.7,0.4,18.6-4.5,27.5-8.4
					c2.7-1.2,5.4-2.2,8.3-2.6c3.2-0.4,6.5,0.2,9.7-0.3c11.4-1.8,17.7-16,29.1-17.7l1-1.1C279.4,283.7,286.1,294.4,288,306z"/>
				<path class="st14" d="M226,263c12,9,27,15,42,15c0.3,0.2,0.7,0.3,1,0.5l-1,1.1c-11.4,1.6-17.7,15.9-29.1,17.7
					c-3.2,0.5-6.5-0.1-9.7,0.3c-2.9,0.3-5.6,1.4-8.3,2.6c-8.9,3.8-17.8,8.8-27.5,8.4c-6.1-0.2-11.9-2.6-17.8-3.8
					c-6-1.2-12.8-1.1-17.4,2.8l-0.6,0.1c-1.3-3.9,0-8.8,2.5-12.6c2-1,3-3,5-5C180.3,274.7,202.5,257.1,226,263z"/>
			</g>
			<g>
			</g>
		</g>
	</g>
	<g id="fish1_1_">
		<g id="XMLID_3_" class="st15">
			<g>
				<path class="st16" d="M447.1,205.7c-7,1.5-16.4,2.4-18.8,2c-1.3-0.2-2.7-0.5-3.9-0.9c-11.8-3.4-19.4-12.8-20.5-25.4
					c-0.1-1.3-0.1-2.7,0.2-3.9c0.9-3.1,4-4.9,7-6.2c3.2-1.4,6.8-2.7,10.2-2c1.6,0.3,3.1,0.8,4.5,1.5c9.9,4.5,16.2,16.1,24,22.8
					c2.8,2.4,6.3,5.4,5.1,8.9C454.6,203.7,451.3,204.8,447.1,205.7z M431.3,184.8c3.6-1.4-1.1-8.2-4.4-5.4
					C424.6,181.6,429.2,185.7,431.3,184.8z"/>
				<path class="st17" d="M447.1,205.7c-1.7,7.8-9,15.5-14.6,20.8c-6.2,5.9-13.5,10.6-21.5,13.7c-0.1,0-0.2,0.1-0.3,0.1v0
					c-7,2.6-14.5,4-22,3.9c-8.9-0.1-17.7-2-25.5-6.1c-0.5-0.3-1.1-0.6-1.6-0.9c-4.8-2.6-9.4-5.9-14-9l0.1-0.2c1.6,1,3.6,1.5,5.5,1.9
					c9,1.8,18.2,2.8,27.4,2.9c3.8,0,7.7-0.1,11.4-1.2c3.3-1,6.4-2.7,9.4-4.4c8.9-5.1,18.4-10.7,22.9-19.9l0.1-0.4
					c1.3,0.4,2.6,0.7,3.9,0.9C430.7,208.1,440.1,207.2,447.1,205.7z"/>
				<path class="st18" d="M427,179.5c3.2-2.8,8,4,4.4,5.4C429.2,185.7,424.6,181.6,427,179.5z"/>
				<path class="st19" d="M408.4,213.8l-0.1-0.4c-6.4-6.3-1.6-9.4-11.4-12.8c-7.5-2.6-15.1-5.1-22.6-7.7c-0.2,5,5.9,7.7,8.2,12.2
					c1.1,2,1.3,4.3,2.5,6.3c1.8,3.1,5.5,4.7,9,4.8C398.8,216.4,403.7,214.4,408.4,213.8z M330.8,184.4c11.8-8.9,21.5-18.9,35.4-24.5
					c11.9-4.2,24.7-4.6,36.7-1.4c8.4,2.2,16.4,6.3,23.3,12l-0.3,0.3c-1.4-0.6-2.9-1.1-4.5-1.5c-3.5-0.7-7,0.5-10.2,2
					c-2.9,1.3-6,3.1-7,6.2c-0.4,1.3-0.3,2.6-0.2,3.9c1.1,12.6,8.7,22,20.5,25.4l-0.1,0.4c-4.5,9.2-14,14.9-22.9,19.9
					c-3,1.7-6.1,3.4-9.4,4.4c-3.7,1.1-7.6,1.2-11.4,1.2c-9.2-0.1-18.4-1-27.4-2.9c-1.9-0.4-3.9-0.9-5.5-1.9l-0.1,0.2
					c-2.9-1.9-5.7-3.7-8.7-5.3c-5.3-2.8-10.8-4.7-16.9-4.5c-1.6,0.1-3.2,0.2-4.8,0.4c-3.8,0.4-7.6,0.5-10.5-1.8
					c-1.8-1.5-2.9-3.7-3.6-6c-0.2-0.6-0.4-1.2-0.6-1.8c-0.5-1.6-2.2-9.2-0.2-11.5c0.1-0.1,0.2-0.2,0.2-0.2l0.1,0.1
					c7.8-0.3,14-4.2,20.9-8.1C326,187.9,328.4,186.2,330.8,184.4z"/>
				<path class="st20" d="M410.7,240.3l0.2,0.6c-5.4,7.6-13.2,13.5-22,16.5c-1.5,0.5-3.1,1-4.6,0.3c-2.3-0.9-2.8-4.1-1.8-6.3
					c0.9-2,4.2-6,6.2-7.1v-0.2C396.1,244.3,403.7,243,410.7,240.3z"/>
				<path class="st20" d="M408.4,213.4l0.1,0.4c-4.7,0.6-9.6,2.6-14.4,2.4c-3.5-0.2-7.2-1.8-9-4.8c-1.1-2-1.4-4.3-2.5-6.3
					c-2.4-4.4-8.5-7.2-8.2-12.2c7.5,2.6,15.1,5.1,22.6,7.7C406.8,204,401.9,207.1,408.4,213.4z"/>
				<path class="st21" d="M398.9,153c1.2,1.5,3.6,3.5,4,5.5c-12-3.2-24.8-2.8-36.7,1.4c-13.9,5.6-23.6,15.7-35.4,24.5
					c-7.3-1-14.4-2.6-21.4-4.9c4.5-1,8-3.8,11.2-6.9c-2-0.6-4.2-1.5-5.9-2.7c5.7-0.3,11.3-1.6,16.6-3.7c-2.2-0.9-4.5-1.8-6.7-2.7
					c5.7-0.9,11.4-2.5,16.7-4.7c-2-1.2-4.1-2.4-6.1-3.6c6.1,0.9,12.3,0.7,18.3-0.7c-1.8-1.2-3.3-2.9-4-5c5.2-0.5,10.5-0.5,15.7,0
					c-2.1-1.2-3.9-2.9-5.3-4.9c6.2,0.4,12.3,1.6,18.2,3.6c-0.6-2.3-1.3-4.6-1.9-7c0.2,0.8,11.1,6.2,12.4,6.8
					c1.3-1.4,1.6-3.3,0.8-5.1c1.6,0.2,2.8,1.5,3.8,2.8C395,148.2,396.9,150.6,398.9,153z"/>
				<path class="st20" d="M361.5,237.3l-0.1,0.2c-3.5,0-6.9-0.1-10.4-0.3c-10.3-0.6-20.6-1.2-30.9-1.8c3-2.5,6.1-4.8,9.4-7
					c2.4-1.6,6.3-5.3,9.3-5.3l0.1-0.1c2.9,1.6,5.8,3.4,8.7,5.3C352.1,231.4,356.7,234.7,361.5,237.3z"/>
				<path class="st20" d="M317.1,218.9l0.1,0.6c-8.2,3.1-16.2,3.8-25,5.3c-6.3,1.4-11.9,4.1-17.8,6.7c2.3-1.5-1.5-5.2-0.9-0.2
					c-0.8-6.2,1.4-12.7,5.9-17l0.2-0.4c1.2,0.5,2.5,0.8,4.1,0.9c5.8,0.3,13.9-1.3,19.4-3.8c0.8,2.3,1.8,4.5,3.6,6
					C309.5,219.4,313.3,219.2,317.1,218.9z"/>
				<path class="st21" d="M302.4,209.2c0.2,0.6,0.4,1.2,0.6,1.8c-5.5,2.4-13.6,4.1-19.4,3.8c-1.6-0.1-2.9-0.4-4.1-0.9
					c-4.2-1.7-6.3-5.8-9.6-10.2c-1.3-1.7-2.6-3.5-3.3-5.6c-0.6-2.1-0.4-4.6,1.1-6.2c11.6,0.3,23.1,2.2,34.2,5.7l0.4,0.2
					C300.2,200.1,301.9,207.7,302.4,209.2z"/>
				<path class="st20" d="M273.4,231.3c-0.6-5,3.2-1.3,0.9,0.2c-0.3,0.1-0.6,0.2-0.8,0.4C273.5,231.7,273.5,231.5,273.4,231.3z"/>
			</g>
			<g>
			</g>
		</g>
	</g>
	<g id="sea_lion_2_">
		<g id="XMLID_308_">
			<g>
				<path class="st22" d="M1091.1,172.1c3.8,12.5,5.9,25.7,7.2,38.6c0.7,5.4,2,10.9,5.4,15.6c0.7,0.7,0,2,0.7,2.7s1.4,1.4,2,2
					c2,4.1,4.8,7.5,8.8,10.2c12.2,8.1,24.4,13.6,34,25.1c5.4,7.5,10.9,13.6,16.3,21.7c6.8,8.8,14.9,15.6,16.3,26.5
					c0.7,6.1-1.4,11.5-3.4,17c-6.1,3.4-12.2-3.4-17.7-5.4c-5.4-1.4-10.9-4.1-16.3-6.1c-3.4-2-6.8-2.7-10.2-4.8c-0.7-0.7-1.4-1.4-2-2
					c-12.2-6.8-20.4-17.7-29.2-28.5c-6.7-8.4-16.7-14.1-27.1-13.3c-3.8,0.7-7.4,2.7-10.3,5.1c-1.7,1.6-3.5,3.2-5.3,4.7
					c-8.9,7.7-18.3,14.4-28.2,20.2c-8.2,4.9-16.7,9.2-25.6,13.1c-24.4,10.2-48.2-2-72-8.1c-4.8-0.7-9.5,0-14.3,0.7
					c-13,3.5-27.1,4.8-39,0.1l0.1-0.3c9.5-1,18.8-3.5,27.5-7.3c8.9-3.9,16.3-9.4,24-15.1c3.9-2.9,8.1-5.3,12.9-6.4
					c4.9-1.1,10-0.9,15-0.5s10.1,1.1,15.1,0.7c4.9-0.4,9.6-2,14.1-4c15.9-7.4,27.2-20.4,41.1-30.5c6.8-5,14.3-8.7,22.7-10.1
					c8.7-1.5,18.3-1.4,25.5-7.1c7.1-5.7,9.2-14.4,11-22.9c1.8-8.9,3.2-18.2,1.4-27.3c-0.3-1.4-0.6-2.7-1-4L1091.1,172.1z"/>
				<path class="st23" d="M1090.7,172.2c0.4,1.3,0.8,2.7,1,4c1.8,9,0.4,18.4-1.4,27.3c-1.7,8.5-3.8,17.2-11,22.9
					c-7.2,5.8-16.8,5.6-25.5,7.1c-8.4,1.5-15.9,5.2-22.7,10.1c-13.9,10.1-25.2,23.1-41.1,30.5c-4.4,2.1-9.2,3.7-14.1,4
					c-5,0.4-10.1-0.3-15.1-0.7s-10.1-0.6-15,0.5c-4.8,1.1-8.9,3.6-12.9,6.4c-7.7,5.7-15.2,11.2-24,15.1c-8.7,3.8-18,6.3-27.5,7.3
					l-0.1,0.3c-4.3-1.7-8.3-4.1-11.9-7.6c-3.4-3.4,0-8.8,2.7-12.2c4.1-4.1,7.5-8.1,11.5-12.2c1.4-1.4,2-2.7,2.7-4.1
					c5.4-12.2,10.9-26.5,25.1-30.6c0.7,0,2,0,2.7,0c8.1-2.7,15.6-1.4,23.8,0c10.9,2,20.4,5.4,31.2,4.8c4.8-0.7,9.5-2,13.6-5.4
					c6.8-6.8,10.9-14.9,15.6-23.8c1.4-2.7,2.7-6.1,5.4-8.2c0,0,0,0,0,0c0.1-0.1,0.2-0.2,0.4-0.3c2-1.5,3.5-3.6,4.9-5.7
					c19-28.6,15-71.8,6.9-103.3l0.2-1.7c3.8,1.2,7.5,3.1,10.8,5.6c10.2,8.1,19.7,15.6,31.2,23.1c17.5,11,27.2,27.8,32.9,46.3
					L1090.7,172.2z M919.8,274.2c10.4-4.9-11.4-10.4-6.2-1.6c0.3,0.5,0.8,0.9,1.3,1.2C916.3,274.6,918.2,274.9,919.8,274.2z
					 M885.3,294.4c0.1-0.5-0.3-1-0.7-1.3c-0.1-0.1-0.2-0.1-0.3-0.2c-4.9-3.5-17,0.2-8.8,6.6c1.2,1,3,1.5,4.4,0.8
					c0.7-0.3,1.3-1,1.8-1.5c1-1.1,1.9-2.1,2.9-3.2C885,295.3,885.3,294.9,885.3,294.4z"/>
				<path class="st24" d="M1060.5,281.2c3.3,8.3,4.6,17.4,3.6,26.4c-0.4,3.9-1.2,7.7-1.3,11.6c-0.1,3.4,5,28.5-5.2,22.1
					c-2-1.2-3.1-3.4-4.2-5.4c-2.4-4.3-5.1-8.3-8.3-12c-2.8-3.4-6-6.6-8.5-10.3c-2.5-3.6-4.4-7.7-4.4-12.1
					C1042.2,295.6,1051.6,288.9,1060.5,281.2z"/>
				<path class="st25" d="M1015.2,89.5c0.2,2.4,0.2,5.4-2,6.6c-6.6-1.4-13.5-0.9-19.7,1.5l-0.2-1.5c-1.7-0.2-5.1-5.7-6.1-6.9
					c-2.6-2.9-5.4-5.6-7.8-8.8c-4.6-6-8.3-12.9-9-20.6c-0.1-1.3-0.1-2.6,0.5-3.7c0.9-1.6,2.9-2.3,4.8-2.1c1.8,0.2,3.5,1.1,5.1,1.9
					c-0.5-3.9,0.5-8.3,3.6-10.7c3.2-2.3,8.7-1.2,9.7,2.6c1-2.8,5-3.6,7.7-2.1c2.7,1.4,4.2,4.2,5.5,7
					C1012.3,64.3,1014,77,1015.2,89.5z"/>
				<path class="st26" d="M1013.2,96.2c1,0.2,2.1,0.5,3.1,0.8l-0.2,1.7c8.1,31.5,12.2,74.7-6.9,103.3c-1.4,2.1-3,4.1-4.9,5.7
					c-0.4-10.2-2.4-20.9-5.7-30.3c-5.7-14.2-18-27.8-22.1-42.8c-1.8-6.5-2.1-13.2,0.4-20.4c0,0,0-0.1,0.1-0.1
					c3.1-8,9.3-13.5,16.7-16.4C999.6,95.3,1006.6,94.8,1013.2,96.2z"/>
				<path class="st25" d="M976.8,114c0,0,0,0.1-0.1,0.1c-2.5,7.2-2.2,13.9-0.4,20.4c-11.3,6.3-27.7,8.6-40.6,9.3
					c-3.4,0.2-6.8,0.3-10-0.7c-3.2-1-6.1-3.5-6.8-6.8c-0.7-3.3,1.7-7.2,5-7.3c-3.3-0.7-5.9-3.9-5.9-7.3c0-5.4,5.6-9,10.7-11
					c-2.1-1.4-4-3.2-5.5-5.2c3.6-4.9,10.9-4.5,16.9-3.4c6,1,12,2.2,17.9,3.4c3.8,0.8,7.6,1.6,10.9,3.6
					C971.2,110.6,974.4,112.9,976.8,114z"/>
				<path class="st18" d="M913.5,272.5c-5.2-8.8,16.7-3.3,6.2,1.6c-1.5,0.7-3.4,0.5-4.9-0.4C914.3,273.5,913.8,273.1,913.5,272.5z"
					/>
				<path class="st27" d="M884.7,293.1c0.4,0.3,0.7,0.8,0.7,1.3c0,0.5-0.4,0.8-0.7,1.2c-1,1.1-1.9,2.1-2.9,3.2
					c-0.5,0.6-1.1,1.2-1.8,1.5c-1.4,0.7-3.2,0.2-4.4-0.8c-8.1-6.5,3.9-10.1,8.8-6.6C884.5,293,884.6,293,884.7,293.1z"/>
			</g>
			<g>
			</g>
		</g>
	</g>
	<g>
		<path class="st18" d="M464.3,160.4c-9.1,5.2-0.7,18.7,7.6,11.4C477.9,166.6,472,156,464.3,160.4z"/>
	</g>
	<g>
		<path class="st18" d="M484.8,138.7c-7.9,16.2,22,8.5,9.8-2.1C491.7,134,486.5,135.2,484.8,138.7z"/>
	</g>
	<g>
		<path class="st18" d="M855.3,253.8c-10.1,5.8,0,26.8,5.4,13.5C862.3,263.6,862.3,249.9,855.3,253.8z"/>
	</g>
	<g>
		<path class="st18" d="M843.7,237.1c1-5.4-7.5-7.6-8-1.3C835.3,240.9,842.8,241.8,843.7,237.1z"/>
	</g>
</g>
</svg>
