<?xml version="1.0" encoding="utf-8"?>
<!-- Generator: Adobe Illustrator 22.1.0, SVG Export Plug-In . SVG Version: 6.00 Build 0)  -->
<svg version="1.1" xmlns="http://www.w3.org/2000/svg" xmlns:xlink="http://www.w3.org/1999/xlink" x="0px" y="0px"
	 viewBox="0 0 207 118" style="enable-background:new 0 0 207 118;" xml:space="preserve">
<style type="text/css">
	.st0{fill:#953D2F;}
	.st1{fill:#B23E40;}
	.st2{fill:#98242C;}
	.st3{fill:#D5592A;}
	.st4{fill:#9F0017;}
	.st5{fill:#760401;}
	.st6{fill:#060000;}
	.st7{fill:#FFFFFF;}
	.st8{fill:#2F0905;}
	.st9{fill:#ECD0B4;}
	.st10{fill:#5B412B;}
	.st11{fill:#FFF1CB;}
	.st12{fill:#954923;}
	.st13{fill:#940012;}
	.st14{fill:#715E3F;}
	.st15{fill:#EEC6AA;}
	.st16{fill:#A31F34;}
	.st17{fill:#C7AB91;}
	.st18{fill:#8D1E2A;}
	.st19{fill:#B59981;}
</style>
<g id="Layer_1">
</g>
<g id="_x34__FAQ">
	<g id="hermit_crab_1_">
		<g id="hermit_outline_1_">
			<g id="XMLID_21_">
				<g>
					<path class="st0" d="M10.5,100.7c-0.6,1.9,0.3,4,1.4,5.8c1.1,1.7,2.4,3.4,2.6,5.5c1.3,0.4,2.7,0.6,4.1,0.5c1,0,2.1-0.3,2.4-1.3
						c0.1-0.4,0-0.8,0-1.2c-0.7-3-3-5.5-5.3-7.6c-0.5-0.5-1-1-1.3-1.5c-0.7-1.3-0.6-2.9-0.4-4.4l-0.2-0.2
						C12.3,97.7,11,99.1,10.5,100.7z"/>
					<path class="st1" d="M13.8,96.3c1.7-1.6,3.6-3,4.9-4.3l0,0c-0.4,0.3-0.8,0.5-1.2,0.8c1.1-2.7,1.4-5.7,1.1-8.6l0.3-0.3
						c0,0,0,0-0.1-0.1c1.2-1.8,2.4-3.7,3.7-5.5l-0.2-0.1c-3.4-0.4-6.9,0.6-9.8,2.3s-5.5,4-8.1,6.3c-1.3,1.1-2.6,2.4-3.1,4
						c-0.7,1.9-0.1,4.1,0.5,6c0.8,2.8,1.7,5.7,3.2,8.2c2.1,3.4,5.6,6,9.6,7c0,0,0,0,0,0c-0.2-2-1.5-3.7-2.6-5.5
						c-1.1-1.7-2-3.8-1.4-5.8C11,99.1,12.3,97.7,13.8,96.3z"/>
					<path class="st0" d="M17.5,92.7c0.4-0.3,0.8-0.6,1.2-0.8c1.4-1,3-1.8,4.6-2.4l-0.1-0.4c-0.1,0-0.2,0.1-0.3,0.1l-0.2-0.8
						c-1-1.7-2.3-3.3-3.8-4.6l-0.3,0.3C18.9,87,18.6,90,17.5,92.7z"/>
					<path class="st1" d="M18.8,83.8C18.8,83.8,18.8,83.8,18.8,83.8c1.6,1.4,2.8,3,3.8,4.7c2-4,5.1-7.5,8.8-10
						c1.4-0.9,2.9-1.7,4.2-2.8c3.5-2.9,5.7-7.8,10-9.2l1,0.2c0.4-2.6,1-5.3,1.5-7.9l-0.4-0.1c-3.9,1.5-7.9,3-11.5,5.3
						c-5.7,3.6-10,8.9-13.9,14.4C21.2,80.1,20,81.9,18.8,83.8z"/>
					<path class="st0" d="M22.6,88.4l0.2,0.8c0.1,0,0.2-0.1,0.3-0.1c2.7-0.7,5.4-1.3,8.1-2c1.9-0.5,3.8-1,5.2-2.2
						c1.5-1.2,2.3-3.4,1.3-5.1c-0.4-0.6-1-1.2-1.2-1.9c-0.4-1.4,0.9-2.7,2.3-3.3c1.8-0.8,4-0.9,5.9-0.4l1,0c0.1-2.6,0.4-5.2,0.8-7.7
						l-1-0.2c-4.4,1.4-6.5,6.3-10,9.2c-1.3,1.1-2.8,1.9-4.2,2.8C27.7,80.9,24.6,84.4,22.6,88.4z"/>
					<path class="st2" d="M41.1,79.3c-0.9,1.9-1.1,4.3,0,6.1c0.5,0.9,1.3,1.6,2,2.2c1.5,1.3,3,2.7,4.5,4l0.7,0.3
						c0.2-0.2,0.4-0.4,0.6-0.6c-1.3-3.9-2.5-7.9-3-11.9c-0.2-1.7-0.2-3.4-0.2-5.2l-1,0C43.4,75.8,42,77.4,41.1,79.3z"/>
					<path class="st3" d="M44.8,97.4c-0.1,1.1,0.5,2.4,1.5,2.8c1.3-1.7,2.6-3.2,4.1-4.7c-0.1-0.2-0.2-0.5-0.2-0.7
						c-0.4-1.1-0.8-2.3-1.2-3.5c-0.2,0.2-0.4,0.4-0.6,0.6c-0.8,0.7-1.5,1.5-2.1,2.3C45.5,95.2,44.9,96.2,44.8,97.4z"/>
					<path class="st3" d="M49,91.4c0.4,1.2,0.8,2.3,1.2,3.5c0.1,0.2,0.2,0.5,0.2,0.7c2-2,4.1-3.8,6.4-5.3c0.5-0.3,1-0.7,1.5-0.9
						c-0.5-1-0.9-2.1-1.2-3.2c-0.3,0.2-0.6,0.4-0.9,0.6C53.8,88,51.2,89.5,49,91.4z"/>
					<path class="st4" d="M56.8,90.2c-2.3,1.6-4.4,3.4-6.4,5.3c0.4,1.1,0.8,2.2,1.5,3.2c0.7,1.1,1.7,2.1,2.6,3c2,2,4.2,3.9,6.4,5.6
						c-0.1-4.7-0.3-9.5-0.4-14.2c-0.8-1.2-1.5-2.4-2.1-3.7c0-0.1-0.1-0.2-0.1-0.3h0C57.8,89.5,57.3,89.8,56.8,90.2z"/>
					<path class="st5" d="M56.6,53c-1.7,8.8-2,17.9-0.7,26.7c0.3,2.1,0.7,4.3,1.3,6.3c0.6-0.4,1.2-0.8,1.7-1.4
						c0.6-0.8,0.9-1.7,1.3-2.6c1-3,2.1-6,3.2-9.1c0.1-0.3,0.2-0.5,0.1-0.8c-0.1-0.3-0.3-0.5-0.5-0.8c-2.2-2.4-1.8-6.5-0.4-9.6
						c0,0,0,0,0,0c0.1-1.1,0.4-2.1,0.9-3.1l0.7,0c-0.3-0.2-0.6-0.5-0.7-0.9l0,0c-1-0.7-2-1.8-2.7-2.9c-0.8-1.2-1.3-2.4-1.6-3.4
						c-0.3-1.4-0.4-2.8-0.2-4.2l-1.2-0.2C57.5,49.1,57,51.1,56.6,53z"/>
					<path class="st4" d="M57.4,45.1c-1.5,2.8-3.5,5.3-5.8,7.5c-0.4,0.4-0.8,0.8-1.2,1.2c-0.4,0.4-0.8,0.8-1,1.3
						c-0.6,1-0.9,2.2-1.1,3.4c0,0.1,0,0.1,0,0.2h0c-0.6,2.6-1.1,5.2-1.5,7.9c-0.4,2.6-0.7,5.1-0.8,7.7c-0.1,1.7,0,3.4,0.2,5.2
						c0.4,4.1,1.6,8,3,11.9c2.2-1.9,4.8-3.3,7.3-4.8c0.3-0.2,0.6-0.4,0.9-0.6c-0.6-2.1-1-4.2-1.3-6.3c-1.2-8.9-1-17.9,0.7-26.7
						c0.4-2,0.8-3.9,1.1-5.9c0.1-0.7,0.1-1.3,0.2-2L57.8,45L57.4,45.1z"/>
					<path class="st3" d="M57.2,86c0.3,1.1,0.7,2.2,1.2,3.2h0c0.4-0.2,0.8-0.4,1.3-0.5c0.2,0,0.5-0.1,0.7,0.1
						c0.1,0.1,0.2,0.4,0.2,0.6c0,1.3,0.1,2.5,0.1,3.8c0.5,0.8,1.1,1.7,1.7,2.5c0.9,1.3,1.9,2.7,2.8,4c-0.2-4.6-0.4-9.2-0.7-13.8
						c0-0.6,0-1.2,0.5-1.5c0.2-0.1,0.4-0.1,0.6-0.1c2,0.2,3.8,1.6,5,3.3c1.2,1.7,1.9,3.6,2.7,5.5c3.1,7.7,7.3,15,12.3,21.6
						c0.1,0,0.2,0,0.3,0c-2.7-6.1-5-12.5-6.7-19c-0.5-2-1.1-4.1-1.8-6.1c0,0-0.1-0.1-0.1-0.2c-0.8-1.2-1.7-2.4-2.3-3.8
						c-0.2-0.5-0.4-1-0.6-1.6c-0.1-0.2-0.3-0.3-0.4-0.5c-2.1-2.2-5.1-3.6-8.1-3.8c1-2.8,1.7-5.8,2-8.7l0-0.1
						c-2.1-0.9-3.8-2.6-4.7-4.6c-0.7-1.5-0.9-3.1-0.7-4.7c-1.4,3.1-1.9,7.2,0.4,9.6c0.2,0.2,0.4,0.5,0.5,0.8c0.1,0.3,0,0.5-0.1,0.8
						c-1.1,3-2.1,6-3.2,9.1c-0.3,0.9-0.7,1.9-1.3,2.6C58.4,85.2,57.8,85.6,57.2,86z"/>
					<path class="st6" d="M60.9,54.6c0.6,0,1.2-0.4,1.5-0.8c0.4-0.6,0.6-1.2,0.6-1.9c0.3-2.8-0.6-5.8-2.6-7.9l-0.3-0.2
						c-0.1,0.1-0.1,0.2-0.2,0.3c-0.6,1-1,2.2-1.2,3.4c-0.2,1.4-0.2,2.8,0.2,4.2c0.2,1,0.8,2.2,1.6,3.4L60.9,54.6z"/>
					<path class="st3" d="M60.6,93.2c0.1,4.7,0.3,9.4,0.4,14.2c1.5,1.1,3,2.1,4.7,3c-0.2-3.6-0.3-7.2-0.5-10.7c-1-1.3-1.9-2.7-2.8-4
						C61.7,94.9,61.1,94,60.6,93.2z"/>
					<path class="st7" d="M60.9,54.6l-0.3,0.3c0.7,1.1,1.7,2.2,2.7,2.9c0.8,0.6,1.7,0.9,2.6,0.9c2.8-0.1,2.9-3.9,3.1-5.9
						c0.1-2.3-0.5-4.7-1.9-6.5c-1.4-1.8-3.6-3-5.9-3c-0.2,0-0.5,0-0.7,0.1c-0.1,0.1-0.3,0.2-0.4,0.3l0.3,0.2c2,2.1,2.9,5.1,2.6,7.9
						c-0.1,0.7-0.2,1.4-0.6,1.9C62.1,54.2,61.5,54.6,60.9,54.6z"/>
					<path class="st3" d="M65.6,110.4c-1.6-0.9-3.2-1.9-4.7-3c0,0,0,0,0,0.1c0,0.7,0,1.5-0.4,2c-0.3,0.4-0.8,0.6-1.2,0.7
						c-2.7,1.2-5.4,2.3-8.1,3.5c4.2,0.7,8.4,0.8,12.6,0.3c0.6-0.1,1.2-0.2,1.5-0.6c0.3-0.4,0.3-1,0.3-1.5
						C65.7,111.4,65.7,110.9,65.6,110.4z"/>
					<path class="st5" d="M65,84.4c-0.5,0.2-0.6,0.9-0.5,1.5c0.2,4.6,0.4,9.2,0.7,13.8c4.2,5.7,8.9,11.1,15.3,13.7
						c1.6,0.7,3.4,1.2,5.2,1.3c-5-6.6-9.2-13.9-12.3-21.6c-0.8-1.9-1.5-3.9-2.7-5.5c-1.2-1.7-3-3.1-5-3.3
						C65.4,84.3,65.2,84.3,65,84.4z"/>
					<path class="st4" d="M65.1,99.7c0.2,3.6,0.3,7.2,0.5,10.7c0.8,0.4,1.6,0.8,2.4,1.2c3.1,1.4,6.5,2.2,9.8,3.1
						c2.8,0.7,5.6,1.4,8.5,1.4l0-0.4c-0.2-0.3-0.5-0.6-0.7-0.9c-1.8-0.1-3.6-0.6-5.2-1.3C74,110.7,69.3,105.4,65.1,99.7z"/>
					<path class="st4" d="M70.5,52.8c-0.4-3.3,0.3-6.8,2-9.6c0.2-0.3,0.4-0.7,0.8-0.8c0.6-0.2,1.2,0.2,1.6,0.7
						c0.1,0.1,0.2,0.3,0.3,0.4c0.7,0.9,1.3,2,1.7,3.2c0.8,2.1,1.3,4.3,1.2,6.6c-0.2,2.9-3.7,9.4-6.2,4.3
						C71.1,55.9,70.7,54.4,70.5,52.8z M66,58.6c-0.9,0-1.8-0.3-2.6-0.9l0,0c0.2,0.4,0.4,0.6,0.7,0.9c0.3,0.2,0.7,0.4,1,0.6
						c2,1,4,1.9,6.1,2.3c2.1,0.4,4.4,0.3,6.4-0.8c2.3-1.2,4-3.6,6.5-4.1c0.5-0.3,1.1-0.5,1.8-0.6l0-0.2c0.3,0,0.6-0.1,1-0.1
						c5.1-0.9,8.1-6.4,7.8-11.2l0.1-0.2c-0.4-0.3-0.7-0.7-1-1c0,0-0.1-0.1-0.1-0.1c-1.4-1-2.7-2.2-4.4-2.5c-0.9-0.2-1.8-0.1-2.6-0.4
						c-0.7-0.3-1.3-0.9-1.8-1.3c-0.5-0.4-1.1-0.8-1.6-1.1c-4.6-2.1-9.3-1.5-14.4-0.2c-3.2,0.8-5.6,1.4-8.3,3.5
						c-1.1,0.9-2.2,1.9-2.6,3.2c0,0.2-0.1,0.4-0.1,0.6l0.1,0.2c0,0.7-0.1,1.3-0.2,2l1.2,0.2c0.2-1.2,0.6-2.3,1.2-3.4
						c0-0.1,0.1-0.2,0.2-0.3c0.1-0.1,0.2-0.3,0.4-0.3c0.2-0.1,0.5-0.1,0.7-0.1c2.3,0,4.5,1.2,5.9,3c1.4,1.8,2,4.2,1.9,6.5
						C68.9,54.8,68.8,58.5,66,58.6z"/>
					<path class="st5" d="M67.8,71.2c-0.3,3-0.9,5.9-2,8.7c3.1,0.2,6,1.6,8.1,3.8c0.1,0.2,0.3,0.3,0.4,0.5c-0.3-0.8-0.5-1.7-0.7-2.5
						c-0.8-2.9-1.8-5.8-2.8-8.7c-0.1-0.3-0.2-0.7-0.5-1c-0.3-0.3-0.8-0.4-1.3-0.5c-0.4-0.1-0.9-0.3-1.3-0.4L67.8,71.2z"/>
					<path class="st6" d="M72.5,43.1c-1.7,2.9-2.4,6.3-2,9.6c1.2,0.9,1.9,1.9,3.4,1.1c1.2-0.6,1.6-2.2,1.8-3.4
						c0.3-2.2,0-4.8-0.9-6.8l0.4-0.3c-0.1-0.1-0.2-0.3-0.3-0.4c-0.4-0.4-1-0.9-1.6-0.7C72.9,42.5,72.7,42.8,72.5,43.1z"/>
					<path class="st3" d="M74.4,84.2c0.2,0.5,0.4,1.1,0.6,1.6c0.6,1.3,1.5,2.6,2.3,3.8c0,0,0.1,0.1,0.1,0.2
						C76.7,87.7,75.7,85.8,74.4,84.2z"/>
					<path class="st7" d="M76.9,46.6c-0.4-1.1-0.9-2.2-1.7-3.2l-0.4,0.3c0.9,2,1.2,4.7,0.9,6.8c-0.2,1.2-0.6,2.8-1.8,3.4
						c-1.5,0.8-2.2-0.2-3.4-1.1c0.2,1.6,0.7,3.2,1.4,4.6c2.6,5.2,6.1-1.3,6.2-4.3C78.2,50.9,77.7,48.7,76.9,46.6z"/>
					<path class="st8" d="M57.9,44.4c0.3-1.3,1.5-2.3,2.6-3.2c2.7-2.1,5.1-2.7,8.3-3.5c5.1-1.3,9.9-1.9,14.4,0.2
						c-4-2.4-9.3-2.3-14-2c-2.7,0.2-5.5,0.4-7.9,1.7c-2.4,1.3-4.2,4.1-3.5,6.7L57.9,44.4z"/>
					<path class="st3" d="M77.4,89.7c0.7,2,1.2,4,1.8,6.1c1.8,6.5,4,12.8,6.7,19h0c1.9,0.1,3.8-0.2,5.5-1
						C87.4,105.4,82.7,97.3,77.4,89.7z"/>
					<path class="st4" d="M81.4,75.4c1.3-1.2,3.1-1.6,4.8-1.5c1.7,0.1,3.4,0.6,5.1,1.2c1.1,0.4,2.3,0.9,2.9,1.8l0.3-0.2
						c-2.9-5-4.9-10.5-5.7-16.3c-0.2-1.3-0.3-2.7,0.1-3.9l-0.5-0.4c-0.8-0.1-1.7-0.2-2.6-0.1c-0.6,0.1-1.2,0.3-1.8,0.6
						c-0.4,0.2-0.7,0.4-1,0.8c-0.4,0.4-0.6,0.9-0.9,1.4c-1.2,2.4-2.3,4.9-2.9,7.6c-0.5,2.7-0.4,5.5,0.7,8c0.2,0.6,0.7,1.2,1.3,1.2
						L81.4,75.4z"/>
					<path class="st3" d="M65.1,59.3c-0.4-0.2-0.7-0.4-1-0.6l-0.7,0c-0.5,1-0.8,2-0.9,3.1c0,0,0,0,0,0c-0.2,1.6,0,3.3,0.7,4.7
						c0.9,2.1,2.6,3.7,4.7,4.6c0.4,0.2,0.8,0.3,1.3,0.4c0.4,0.1,0.9,0.2,1.3,0.5c0.3,0.3,0.4,0.6,0.5,1c1,2.9,2,5.8,2.8,8.7
						c0.2,0.8,0.4,1.7,0.7,2.5c1.4,1.6,2.3,3.5,3,5.5c5.3,7.6,10,15.7,14,24c0.1,0,0.1-0.1,0.2-0.1c0-0.1,0-0.2,0-0.2
						c-0.8-1.6-1-3.5-1.4-5.3c-1.8-8.2-7.2-15.5-7.5-23.9c-0.1-2.9,0.4-6-0.7-8.7l-0.4,0.1c-0.1,0-0.1,0-0.2,0
						c-0.6,0-1.1-0.6-1.3-1.2c-1.1-2.5-1.2-5.3-0.7-8c0.5-2.7,1.6-5.2,2.9-7.6c0.3-0.5,0.5-1,0.9-1.4c0.3-0.3,0.6-0.6,1-0.8
						c-2.5,0.5-4.2,2.9-6.5,4.1c-1.9,1-4.2,1.2-6.4,0.8C69.1,61.1,67.1,60.2,65.1,59.3z"/>
					<path class="st4" d="M91.4,113.8c-1.7,0.8-3.6,1.1-5.5,1c0.1,0.3,0.3,0.6,0.4,0.9l0,0.4c0.7,0,1.4-0.1,2.1-0.2
						c1.3-0.2,2.9-1,3.2-2.2C91.5,113.7,91.4,113.7,91.4,113.8z"/>
					<path class="st8" d="M96.5,46.3c-0.5-0.6-1.1-1.2-1.8-1.8l-0.1,0.2c0.3,4.8-2.7,10.3-7.8,11.2c-0.3,0.1-0.6,0.1-1,0.1l0,0.2
						c0.8-0.1,1.7-0.1,2.6,0.1l0.5,0.4c5,0.3,9.4,3.1,12.7,6.9l0.1-0.1c0.1-0.2,0.1-0.4,0.2-0.6c1.7-5.5-0.1-9.6-3.5-14
						C97.8,48,97.1,47.1,96.5,46.3z"/>
					<path class="st4" d="M92.1,114.4c0.9,1.5,2.7,2.5,4.4,2.4l0-0.2c1-7.3,0.9-14.9-0.4-22.2c-0.8-4.9-2.2-10.1-0.4-14.8l0.4-0.3
						c-0.6-0.9-1.2-1.8-1.7-2.7l-0.3,0.2c-0.6-0.9-1.8-1.4-2.9-1.8c-1.6-0.5-3.3-1.1-5.1-1.2c-1.7-0.1-3.6,0.3-4.8,1.5l0,0.2
						c0.1,0,0.1,0,0.2,0l0.4-0.1c1.2,2.7,0.6,5.7,0.7,8.7c0.3,8.4,5.7,15.7,7.5,23.9c0.4,1.8,0.7,3.7,1.4,5.3c0,0.1,0,0.1,0.1,0.2
						C91.8,113.9,92,114.1,92.1,114.4z"/>
					<path class="st5" d="M99.1,84.9c-0.2-0.5-0.3-1-0.4-1.5l0.2-0.2c-1-1.2-2-2.4-2.8-3.7l-0.4,0.3c-1.8,4.7-0.5,9.9,0.4,14.8
						c1.2,7.3,1.4,14.8,0.4,22.2l0,0.2c0.4,0,0.9-0.2,1.3-0.4c1.7-1,2.3-3.4,4.1-4.1c1-0.4,2.3-0.2,3.1-0.9c0.7-0.6,0.7-1.6,0.8-2.6
						c0-0.8,0-1.6,0-2.4c0-3.3,0.1-6.6,0.1-9.9c0-0.7,0-1.3,0-2c0-0.9,0-1.8-0.3-2.6c-0.7-1.9-3-2.7-4.5-4.1
						C100.2,87,99.5,86,99.1,84.9z"/>
					<path class="st8" d="M97.2,45.2c-1.3-0.2-2.5-1-3.6-1.9c0,0,0.1,0.1,0.1,0.1c0.3,0.3,0.7,0.7,1,1c0.6,0.6,1.3,1.2,1.8,1.8
						c0.6,0.8,1.3,1.7,1.9,2.5c3.4,4.4,5.2,8.5,3.5,14l0.2,0c1.3-0.8,2.5-1.9,3.5-3c1.4-1.6,2.6-3.4,3.3-5.4c-2.2-1-4.2-2.6-5.6-4.6
						c-0.4-0.6-0.8-1.3-1.3-2c-0.7-1.1-1.6-2-2.8-2.4C98.7,45.3,97.9,45.3,97.2,45.2z"/>
					<path class="st5" d="M99.1,84.9c0.5-0.5,1.1-0.7,1.7-0.8c1.5-0.2,3.3,0.3,4.8-0.2c1.6-0.5,2.6-2.1,2.9-3.8
						c0.3-1.6-0.1-3.3-0.6-4.9c-0.7-2.3-1.6-4.5-2.7-6.5c-1-1.8-2.2-3.6-3.6-5.2c-3.3-3.8-7.7-6.6-12.7-6.9
						c-0.4,1.2-0.3,2.6-0.1,3.9c0.8,5.7,2.7,11.3,5.7,16.3c0.5,0.9,1.1,1.8,1.7,2.7c0.9,1.3,1.8,2.5,2.8,3.7l-0.2,0.2
						C98.8,83.8,98.9,84.4,99.1,84.9z"/>
					<path class="st9" d="M99.4,45.5c1.2,0.4,2,1.3,2.8,2.4l0.5-0.4c2.3-3.2,2.6-7.4,2.9-11.3c0.5-6.4,1.4-12.8,3.6-18.9
						c2.2-6,5.9-11.6,11.2-15.3l1.1-0.1c-4.7-2-10.5-1.4-15.7-0.6c-6.3,0.9-12.6,1.8-18.9,2.7c-3.2,0.4-6.3,0.9-9.3,2.1
						c-4.4,1.8-7.9,5.1-11.1,8.6c-5.3,5.7-10.1,12-14.1,18.6c-1.9,3.1-3.7,6.4-4.4,9.9c-0.7,3.6-0.3,7.5,1.9,10.4l0.5,0.1
						c0.4-0.4,0.8-0.8,1.2-1.2c2.3-2.2,4.3-4.7,5.8-7.5l0.4-0.1c0-0.2,0-0.4,0.1-0.6l-0.2,0c-0.7-2.6,1.1-5.4,3.5-6.7
						c2.4-1.3,5.2-1.6,7.9-1.7c4.8-0.3,10-0.4,14,2c0.6,0.3,1.1,0.7,1.6,1.1c0.6,0.5,1.1,1.1,1.8,1.3c0.8,0.3,1.7,0.3,2.6,0.4
						c1.7,0.3,3,1.4,4.4,2.5c1.1,0.8,2.2,1.6,3.6,1.9C97.9,45.3,98.7,45.3,99.4,45.5z"/>
					<path class="st10" d="M100.9,84.4c5.1,4.6,10.5,8.9,16,13c4,2.9,8,5.7,12.2,8.3c2.9,1.8,5.9,3.6,9,5.3c2.4,1.3,4.9,2.6,7.7,2.7
						c6.3,0.2,11.1-5.9,17.3-6.9l0.3-0.7c-7.4-2.8-14.7-6.2-21.9-9.5c-0.6-0.3-1.1-0.5-1.5-1c-0.5-0.6-0.5-1.4-0.6-2.2
						c-0.1-1.2-0.1-2.4-0.2-3.5l-0.4,0c-1.3,1-2.7,2-4,3c-0.5,0.4-1.1,0.8-1.7,0.8c-0.7,0-1.3-0.5-1.8-0.9c-2-1.7-4-3.4-6-5.2
						c-4.4-3.7-8.7-7.5-12.3-12c-3.6-4.5-6.4-9.8-7.1-15.5l-0.3-0.3c-1,1.1-2.2,2.2-3.5,3l-0.2,0c-0.1,0.2-0.1,0.4-0.2,0.6l-0.1,0.1
						c1.4,1.6,2.6,3.3,3.6,5.2c1.1,2.1,2,4.3,2.7,6.5c0.5,1.6,0.8,3.3,0.6,4.9c-0.3,1.6-1.3,3.2-2.9,3.8c-1.5,0.5-3.3,0-4.8,0.2
						L100.9,84.4z"/>
					<path class="st11" d="M109.1,54.3c6.5,3.9,10.5,11.2,16.5,16l0.3-0.3c0.4,0.1,0.9,0.3,1.3,0.5l0.1-0.3c2.5-5.1,1.9-11,2-16.7
						c0.2-13,5-26.3,14.8-34.9l1-0.6c-1.3-0.4-2.6-1-3.8-1.5c-4.2-1.8-8.5-3.7-11.7-7c-1.6-1.7-2.8-3.8-4.6-5.3
						c-1-0.9-2.2-1.6-3.4-2.1l-1.1,0.1c-5.3,3.6-9,9.2-11.2,15.3c-2.2,6-3.1,12.5-3.6,18.9c-0.3,3.9-0.6,8.1-2.9,11.3l-0.5,0.4
						c0.4,0.6,0.8,1.3,1.3,2c1.4,2,3.3,3.6,5.6,4.6L109.1,54.3z"/>
					<path class="st12" d="M105.9,96.5c0,3.3-0.1,6.6-0.1,9.9h0.1c7.7-0.2,15.6,1.7,23-0.3l0.2-0.3c-4.2-2.6-8.2-5.4-12.2-8.3
						l-0.2,0.2C113.1,97.1,109.5,96.7,105.9,96.5z"/>
					<path class="st13" d="M109,54.5c-0.8,2-1.9,3.8-3.3,5.4l0.3,0.3c0.7,5.7,3.5,11,7.1,15.5c3.6,4.5,8,8.3,12.3,12
						c2,1.7,4,3.4,6,5.2c0.5,0.4,1.1,0.9,1.8,0.9c0.6,0,1.2-0.4,1.7-0.8c1.3-1,2.7-2,4-3l0.4,0c-0.1-1.4-0.1-2.7-0.2-4.1
						c0-1-0.1-2,0.5-2.8c0.4-0.6,1-0.8,1.6-0.9l-1.1-0.3c-2.1-5.3-8.4-7.3-13.1-10.5c-0.4-0.3-0.9-0.6-1.3-1
						c-6-4.8-9.9-12.1-16.5-16L109,54.5z"/>
					<path class="st14" d="M126.9,71.3c4.7,3.3,11,5.2,13.1,10.5l1.1,0.3c1.1-0.2,2.3,0.1,3.4,0.5c8.4,2.9,16.8,5.9,25.1,9.2
						c1.3,0.5,2.7,1.1,3.7,2.1c0.5,0.5,0.9,1.1,1.1,1.8l0.4-0.2c3.6-3.7,3.8-9.5,5.2-14.6l-1-0.3c-3.1-4.5-5.3-9.4-6.9-14.6
						c-1.8,4.3-2.8,8.4-6,12.1c-2.1,2.4-4.9,4.4-8,4.8c-2.1,0.2-4.2-0.2-6.2-0.8c-8.7-2.7-16.1-8.5-24.7-11.6
						c-0.4-0.2-0.9-0.3-1.3-0.5l-0.3,0.3C126,70.6,126.4,70.9,126.9,71.3z"/>
					<path class="st15" d="M127.3,70.1l-0.1,0.3c8.5,3.1,16,9,24.7,11.6c2,0.6,4.1,1.1,6.2,0.8c3.2-0.4,6-2.3,8-4.8
						c3.2-3.7,4.2-7.8,6-12.1c-1.2-3.9-2.1-7.8-2.8-11.8c-1.6-9.3-2.1-18.8-3.4-28.2c-0.2-1.7-0.5-3.5-1.4-4.9l0.1-0.3
						c-3.8-1-7.7-1.7-11.7-1.9c-1.8-0.1-3.6-0.1-5.4-0.4c-0.8-0.1-1.6-0.4-2.4-0.6l-1,0.6c-9.8,8.6-14.5,21.9-14.8,34.9
						C129.2,59.1,129.8,65,127.3,70.1z"/>
					<path class="st16" d="M174.4,97.5c0.2-0.6,0.2-1.3,0-1.9c-0.2-0.7-0.6-1.3-1.1-1.8c-1-1-2.4-1.6-3.7-2.1
						c-8.3-3.3-16.7-6.3-25.1-9.2c-1-0.4-2.3-0.7-3.4-0.5c-0.6,0.1-1.2,0.4-1.6,0.9c-0.6,0.8-0.5,1.8-0.5,2.8
						c0.1,1.4,0.1,2.7,0.2,4.1c0.1,1.2,0.1,2.4,0.2,3.5c0,0.8,0.1,1.6,0.6,2.2c0.4,0.5,0.9,0.8,1.5,1c7.2,3.3,14.5,6.7,21.9,9.5
						c0.9,0.3,1.8,0.7,2.6,1c1.9,0.7,4.6,1.1,5.7-0.4c-0.2-1.1-0.2-2.2,0.1-3.2c0.7-2.7,1.9-4.7,3.6-5.7L174.4,97.5z"/>
					<path class="st17" d="M164.5,20.8l-0.1,0.3c0.9,1.4,1.2,3.2,1.4,4.9c1.3,9.4,1.8,18.9,3.4,28.2c0.7,4,1.6,8,2.8,11.8
						c0.2-0.4,0.3-0.8,0.5-1.2c1.9-4.3,4.6-8.2,8.1-11.3c5.8-5,13.5-7.4,19.4-12.3l0.7-1C189.5,32.4,177.5,24.4,164.5,20.8z"/>
					<path class="st18" d="M171.7,106.7c0.2,0.9,0.6,1.7,1.3,2.4c1.1,1,2.6,1.5,4,1.8c5.7,1.5,11.3,2.9,17.1,3.8
						c1.6,0.3,3.8,0.1,4.3-1.4c0.2-0.5,0-1.1-0.1-1.7c-1.4-4.4-6.1-6.6-9.9-9.3c-2.2-1.5-4.2-3.3-6.6-4.3c-2.6-1.2-4.8-1.2-6.4-0.2
						c-1.7,1-2.9,2.9-3.6,5.7C171.5,104.5,171.4,105.6,171.7,106.7z"/>
					<path class="st19" d="M172.6,64.7c-0.2,0.4-0.4,0.8-0.5,1.2c1.6,5.2,3.9,10.1,6.9,14.6l1,0.3c0.7-2.8,1.8-5.4,4.1-7.3
						c1.9-1.6,4.4-2.3,6.3-3.9c1.3-1.1,2.2-2.6,3-4c2.8-4.6,5.5-9.1,8.3-13.7c1.6-2.7,4.2-5.8,2.2-9c-0.7-1.1-1.7-1.8-2.8-2.5
						c-0.1-0.1-0.2-0.2-0.4-0.2l-0.7,1c-5.9,4.9-13.6,7.3-19.4,12.3C177.2,56.5,174.5,60.5,172.6,64.7z"/>
				</g>
				<g>
				</g>
			</g>
		</g>
	</g>
</g>
</svg>
