<?xml version="1.0" encoding="utf-8"?>
<!-- Generator: Adobe Illustrator 22.1.0, SVG Export Plug-In . SVG Version: 6.00 Build 0)  -->
<svg version="1.1" xmlns="http://www.w3.org/2000/svg" xmlns:xlink="http://www.w3.org/1999/xlink" x="0px" y="0px"
	 viewBox="0 0 377 142" style="enable-background:new 0 0 377 142;" xml:space="preserve">
<style type="text/css">
	.st0{fill:#FFFFFA;}
</style>
<g id="Layer_1">
</g>
<g id="_x31__MAIN_v1_copy">
	<g id="seabirds_copy_3">
		<g id="XMLID_121_">
			<g>
				<path class="st0" d="M136.2,0.5c-1.7,14.4-4.1,30.3-15,39.9c-7.1,6.3-16.9,8.8-24.4,14.7c-4.8,3.7-8.5,8.7-10.7,14.4
					c-2.8-9.1-13.6-13.3-23.1-13.3c-9.5,0-18.9,2.8-28.4,2C19.7,56.9,6,46.2,1.3,32l1.2-0.5c8.8,9.9,22.9,14.8,35.8,11.7
					c11.5-2.7,24.1-4.9,35.6-1.5c8.3,2.5,6,3.8,11.3-1.6c4.5-4.5,10.6-7,16.6-9.1c7.2-2.4,14.8-4.4,20.8-9
					C128.8,17.3,134.1,8,136.2,0.5z"/>
			</g>
			<g>
			</g>
		</g>
		<g id="XMLID_120_">
			<g>
				<path class="st0" d="M251.5,56.1c0.3,5.9,0.8,11.9,3.6,17c2.5,4.4,6.5,7.8,10.5,10.8c13.1,9.6,28.9,18.1,34.4,33.4
					c23.5-11.6,53.8,2.1,77.2-9.9c-15.5,18.9-33.9,18.9-56.3,20.7c-11.1,0.9-23.2,4.3-29.5,13.5c-4.1-17.4-10.6-26.3-24.5-36.4
					C252,94.4,245.5,73.4,251.5,56.1z"/>
			</g>
			<g>
			</g>
		</g>
	</g>
</g>
</svg>
