<?xml version="1.0" encoding="utf-8"?>
<!-- Generator: Adobe Illustrator 22.1.0, SVG Export Plug-In . SVG Version: 6.00 Build 0)  -->
<svg version="1.1" id="_x31__MAIN_v1_copy" xmlns="http://www.w3.org/2000/svg" xmlns:xlink="http://www.w3.org/1999/xlink" x="0px"
	 y="0px" viewBox="0 0 1366 768" style="enable-background:new 0 0 1366 768;" xml:space="preserve">
<style type="text/css">
	.st0{fill:#2D728F;}
	.st1{fill:#4592AD;}
	.st2{fill:#FFFFFF;}
	.st3{fill:#BCE784;}
	.st4{fill:#F5EE9E;}
	.st5{fill:#E2DA8F;}
	.st6{fill:#B3D67B;}
	.st7{fill:#CCFFFF;}
	.st8{fill:#8E705B;}
	.st9{fill:#A57958;}
	.st10{fill:#323D44;}
	.st11{fill:#FFFFFA;}
	.st12{fill:#997A61;}
	.st13{fill:#859C9F;}
	.st14{fill:#D6D0C3;}
	.st15{fill:#040807;}
	.st16{fill:#AF8F77;}
	.st17{fill:#B58A66;}
	.st18{fill:#BF9C79;}
	.st19{fill:#CEA980;}
	.st20{fill:#AA8166;}
	.st21{fill:#C19D7A;}
	.st22{fill:#AF8E71;}
	.st23{fill:#AB3428;}
	.st24{fill:#18A3C6;}
	.st25{fill:#6D6D6D;}
	.st26{fill:#7F7F7F;}
	.st27{fill:#515151;}
	.st28{fill:#F49E4C;}
	.st29{fill:#1A936F;}
	.st30{fill:#114B5F;}
	.st31{fill:#424242;}
	.st32{fill:#D1CDAE;}
	.st33{fill:#7A7A7A;}
	.st34{fill:#FFFFEE;}
	.st35{fill:#9E9E9E;}
	.st36{fill:#80B1BC;}
	.st37{fill:#191919;}
	.st38{fill:#8CC2D3;}
	.st39{fill:#444444;}
	.st40{fill:#CC3333;}
	.st41{fill:#FFF75A;}
	.st42{fill:#5B858E;}
	.st43{fill:#3D3D3D;}
	.st44{fill:#FFCC33;}
	.st45{fill:#FFE448;}
	.st46{fill:#666666;}
	.st47{fill:#1E1E1E;}
	.st48{fill:#EFEFEF;}
	.st49{fill:#5E5E5E;}
</style>
<g id="wave_shadow_copy_2">
	<g id="Layer_85_copy_2">
		<path class="st0" d="M1365,589c0,0-24,1-48-41s-6-71-6-71s-38.9,29.2-53,46c-10.6,12.7-20.3,33.6-26,40c-13.2,14.8-27.8,25-39,44
			s-24.7,57.6-50,78c-35,14-69,44-132,48s-109-16-153-13s-115.4,3.6-153,18c-39.3-2.6-80-27.1-121-25s-236.9,15.4-339,10
			c-56-17-78-50-115.5-56.5S144,593,144,593s-43,4-59-7s-31-29-31-29s-17,24-30,33s-26,10-26,10v168l1366-1L1365,589z"/>
	</g>
	<g id="Layer_86_copy_2">
		<path class="st1" d="M1365,589c0,0-29-1-48-41s-7-75-7-75s-3,9-26,28s-22,15-34,34s-18,30-25,39c-9,7-28,22-35,37
			s-18.5,42.3-26,54c-10,10-26,25-75,47s-75,21-75,21l-71,36l421-2L1365,589z"/>
	</g>
</g>
<g id="SURFING_V2_copy_2">
	<g id="v2_copy_2">
		<g id="main_wave_copy_3">
			<g id="XMLID_146_">
				<g>
					<path class="st2" d="M1005.7,735.3c12.5-6.4,24.3-12,32.7-14.9c21.8-12.1,28-23.5,40.1-37.1c12-13.4,22.6-27.9,31.8-43.3
						c17.3-29,26.4-65.4,46.9-92c10-13,24.9-21.8,33.9-35.5c7.8-11.9,10.7-26.5,18.8-38.2c11.5-16.5,32.7-25.9,39.9-44.7
						c6-15.4,0.8-33.4,6.3-48.9c3.3-9.2,9.9-16.7,15.2-25s9.3-18.3,6.3-27.6c-2.5-7.8-9.5-13.6-12.2-21.3c-4-11.4,1.9-23.5,6.8-34.5
						c4.9-11,8.5-24.9,1-34.3c-8.6-10.8-26-8.8-37.2-16.8c-8.5-6.1-10.9-16.2-14.2-25.4c-22.3,7-43.5,13.3-64.3-3.3
						c-4.4-3.5-8.7-7.9-14.3-8.3c-4.1-0.3-7.9,1.7-11.8,2.7c-6.5,1.7-13.8,0.7-19-3.5c-5.2-4.2-7.6-11.9-4.8-18
						c-39.4-2.2-72.6,35.4-112.1,34.1c-7.4-0.2-15.3-2.2-20.2-7.8s-5.1-15.5,1.1-19.6c-3.5-4.2-10-3.1-15.4-3.5
						c-5.4-0.5-11.6-6.3-8.1-10.4c-16.6,4.3-31.5,22.4-47.4,15.7c-7.2-3-11.7-11.3-10.3-19c1.3-7.7,8.5-13.9,16.2-14.3
						c-10.3-2-20.1,3.7-30.1,7.6c-1.3,0.5-2.6,1-3.9,1.4c-11.3,3.8-27.9,0-28.3-11.9c-0.3-9.6,10.2-15.4,15.5-23.4
						c6.5-9.8,5.1-23.2,11.7-32.9c8.2-12.1,25.8-13.9,39.8-9.8c10.7,3.2,19.9,9.9,30.3,13.4c9.8,3.3,18.1,1.2,28.1-1.4
						c7.1-1.9,15.8-2.2,20.5,3.5c4,4.8,4.1,13.1,9.8,15.6c11.7-9.3,28-12.4,42.3-8.1c15.9-7.3,35.2-6.9,50.8,1
						c11.6,5.9,20.2,15.9,25.5,27.7c1.2,2.6,1.7,7,3.4,9.1c3.1,4,3.2,2.3,8.8,1c8.3-1.9,17-1.7,25.5-1.4c4.9,0.1,9.8,0.3,14.5,1.9
						c8.5,3,12.3,10.2,18.9,16c-0.1-0.1,38.5-12.7,44.4-12.1c8.1,0.8,10.8,3.2,18.6,1.4c22.9-5.3,38.6-10.3,60.5,4.9
						c9.8,6.8,15.2,18.4,18.9,29.8c12.1,36.5,16.2,69.8-4,103.3c-2,3.3-4.1,6.7-4.5,10.6c-0.6,6.1,3.2,11.6,5.5,17.3
						c7.7,19.3-2.2,37-10.3,54.1c-16.7,35,4.9,80-13.8,113.9c-11.2,20.4-33.1,30.8-49,46.8c-17.2,17.4-24.2,43.8-43.1,59.5
						c-16.9,14.1-23.5,22.1-33.1,41.5c-8.2,16.5-13.4,35.7-26.1,49.6c-10.9,12-25.5,19.8-39.8,27.3c-17.7,9.3-36.2,15.5-53.8,24.3
						c-18.8,9.4-105.8,43.5-125.7,46C946.6,767.6,978,749.5,1005.7,735.3z"/>
					<path class="st0" d="M1277.7,328.1c3,9.3-1,19.4-6.3,27.6s-11.9,15.7-15.2,25c-5.5,15.6-0.3,33.5-6.3,48.9
						c-7.2,18.8-28.4,28.2-39.9,44.7c-8.1,11.7-11,26.4-18.8,38.2c-9.1,13.7-23.9,22.5-33.9,35.5c-20.5,26.6-29.5,63-46.9,92
						c-9.2,15.4-19.9,29.9-31.8,43.3c-12.1,13.6-18.3,25-40.1,37.1c-8.4,2.8-20.1,8.5-32.7,14.9c-19.1,4.2-39.4,3.7-59,1.3
						c-29-3.5-57.5-10.9-86.6-12.1c-41.7-1.7-81,9.9-122,14.2c-24.7,2.6-49.8,3.3-74.4-0.5c-22.3-3.4-41.1-16.2-62.1-20.5
						c-24.8-5.1-57,1.2-82.1,3c-27.8,2.1-55.6,5-83.4,7.2c-37,3-73,4-109,3c-28-1-55-3-83-5c-20-2-40-4-57-17c-15-11-26-25-42-34
						c-29-15-60-22-91-26.1l-0.2-0.5c9.9-3.4,29.2-14.6,38.7-18.9c10.2-4.6,7.6-10.1,36-36c60-18,112-80,112-80s47,34,103,31
						s97.3-48.9,110-64c3,4.4,26,29,47,28s36.2-27.2,43-41c3.2,3.3,25,20,56,13s44.6-20.7,55-35c0.7-0.9,13,11,43,7
						s152-104,172.1-146.9c20.1-42.8,13.9-52.5,19.5-79c1.3-6.3,2.6-12.6,2.8-19c0.3-9.2-1.6-18.4-3.5-27.5
						c-2.1-10.1-4.2-20.2-6.3-30.3l-0.7-1.7c10-3.9,19.8-9.7,30.1-7.6c-7.8,0.4-14.9,6.6-16.2,14.3c-1.3,7.7,3.2,16,10.3,19
						c15.9,6.6,30.7-11.4,47.4-15.7c-3.6,4.1,2.6,10,8.1,10.4c5.4,0.5,11.9-0.6,15.4,3.5c-6.2,4.1-6,14-1.1,19.6s12.8,7.5,20.2,7.8
						c39.5,1.3,72.6-36.2,112.1-34.1c-2.8,6.1-0.4,13.8,4.8,18c5.2,4.2,12.5,5.2,19,3.5c3.9-1,7.8-3,11.8-2.7
						c5.6,0.4,9.9,4.8,14.3,8.3c20.8,16.6,42,10.3,64.3,3.3c3.3,9.2,5.7,19.3,14.2,25.4c11.2,8.1,28.7,6,37.2,16.8
						c7.5,9.5,3.8,23.3-1,34.3c-4.9,11-10.8,23.2-6.8,34.5C1268.2,314.5,1275.2,320.2,1277.7,328.1z"/>
				</g>
				<g>
				</g>
			</g>
		</g>
		<g id="light_waves_copy_3">
			<g id="XMLID_26_">
				<g>
					<path class="st1" d="M699.6,577.8c0.6,5.2-3.7,9.6-7.6,13.2c-8.1,7.4-16.3,14.8-24.5,22.2c-6,5.4-12,10.8-16.4,17.5
						c-3.4,5.1-5.8,10.8-9.1,16c-5.9,9.2-14.9,16.4-25.2,20.1c-5.6,2-11.6,3.1-17,5.8c-8.4,4.2-14.9,12.7-24,15.4
						c-6.6,2-15.2,1.6-22.5,3.2c-10,2.2-20.5-6.4-30.1-3c-2.8,1-5.2,2.9-7.9,4.1c-7,3.1-13.7,0.5-20.8,0.2
						c-8.6-0.3-17.6,1.2-26.2,1.8c-16.2,1.1-32.9,3.5-49.1,3.5c-9.1,0.6-18.3,1.3-27.3-0.6c-17.9-3.8-33.8-17.3-52-15.7
						c-11.9,1.1-22.3,8.7-34,11.5c-16.1,3.9-33.4-1.5-49.6,2c-11.6,2.5-27.2,7.9-32.8-2.5c16.2-12,37.9-16.4,57.5-11.5
						c-2.3-5.2,2.2-11.1,7.4-13.5c5.2-2.4,11.1-2.8,16.2-5.5c8.7-4.6,12.8-15,21.1-20.3c6.4-4.1,14.4-4.6,22-5.4
						c18.8-1.9,38.2-6.6,52.5-18.9c8.6-7.4,20.1-18,29.2-11.2c-5.8-4.4,41.6-27.4,46.2-28.2c8.7-1.5,17.2-3.7,26-4.6
						c6.7-0.7,19.5-2.4,23.7,4.6c-0.6-0.9,9.4-7,10.6-7.3c6.2-1.9,13.4,1.2,19.9,0.3c7.2-1,13.7-5.3,20.5-7.4
						c15.3-4.9,26.5-5.6,40.9,1.9c15.1,7.9,33.3,4.5,50.4,5.3C678.5,571.3,689.4,573.7,699.6,577.8z"/>
				</g>
				<g>
				</g>
			</g>
			<g id="XMLID_25_">
				<g>
					<path class="st1" d="M1043.2,320.7c0-32.7,34.4-52.1,54.2-66.4c11.8-8.5,23.6-17,35.4-25.5c-5.3,26.4-20.7,46.6-26.7,71.6
						c7.2-8.7,15.4-16.2,24.5-21.9c8.8-5.6,21.2-6.3,29.3-12.1c-39.8,28.5-45.9,100.5-86.8,126.7c10.5-22,17.3-46.4,20.1-71.5
						c-21.2,13.7-30.3,39.7-47.7,57.7c-11.3,13.4-25.3,20.7-39.3,28.8c-7.8,4.5-16,9.1-24.6,8.4c16.4-15,30.2-34,40.5-55.4
						c-9.9,8-19.8,15.9-29.7,23.9c-8.4,6.8-18.3,12.1-27.9,15.9c-5.1,2-13.5,1.4-17.9,4.1c32.8-20.4,47.2-55.6,65-91.9
						c15.2-30.9,34.1-62,62.2-74.8C1054.9,257.1,1043.1,291.8,1043.2,320.7z"/>
				</g>
				<g>
				</g>
			</g>
			<g id="XMLID_24_">
				<g>
					<path class="st1" d="M1223.1,301.2c-12.5,11.9-22.9,27.6-28.1,45.9c-2.9,10.3-4.2,21.2-7.5,31.3c-5.8,17.2-17.4,31.6-28.9,43.4
						c0.8-9.6,0.3-19.6-1.7-29.2c-6.5,10.6-11.1,21.1-20.9,27.7c-6.8,4.6-14.5,7.2-21.5,11.3c-8.6,5-13.4,12-17.9,21.4
						c-2.5-12.4,7.6-25.8,13.7-34.3c7-9.9,15.2-18.6,22.4-28.3c9-12,16.6-25.7,22.3-40.4c-0.2,0.5-0.1,1.2,0.2,2.1
						c1.1,4.1,5.5,11.8,6.7,13.7c7.8-14.6,13.3-30.2,23.6-42.9C1195.4,310.4,1208.8,301.2,1223.1,301.2z"/>
				</g>
				<g>
				</g>
			</g>
			<g id="XMLID_23_">
				<g>
					<path class="st1" d="M950.5,293.2c10.3-6.1,20.7-12,31.7-16.9c-14,14.2-26.7,32.1-33.2,51.1c-3,8.8-5.6,16.6-10.5,24.9
						c-4.4,7.5-13.6,16-16.4,24c3.5-10,4.2-27.4,3.2-38c-7.1,9.7-13,19.8-21.8,28.5c-7.7,7.7-20.8,15.2-26.8,24
						c9-13.3,18.8-31.6,19.6-47.8c-10.7,5-20.8,11.3-31.7,16c12.5-12,24.5-25.6,28.5-42.4c1-4.2,1.5-8.6,3-12.7
						c2.3-6.3,6.8-11.4,10.7-16.9c4.3-6,7.9-12.6,10.7-19.4c-1,3.1-1,6-0.8,8.9c0.5,5.1,2,10.1,1.4,15.4
						c15.3-21.6,35.4-38.3,59-50.4C959.3,250.6,961.7,278.7,950.5,293.2z"/>
				</g>
				<g>
				</g>
			</g>
			<g id="XMLID_22_">
				<g>
					<path class="st1" d="M973.9,670.5c-12.4,6.9-28.2,7.5-41,1.5c-18,18.7-46.8,26-71.5,18.2c-3.1-1-6.2-2.2-9.5-2.1
						c-2.8,0.1-5.5,1.3-8.2,2.2c-18.1,6.5-43.4,3.7-57.5-10.3c12.2-2.3,24.5,1.7,36.9-0.9c3.5-0.7,36.5-12.7,34-17.6
						c3.8,7.3,12.6,10.5,20.8,11c21.2,1.2,42.4-13,49.2-33.1C935.1,657.4,954.2,670,973.9,670.5z"/>
				</g>
				<g>
				</g>
			</g>
		</g>
		<g id="surfboard_copy_3">
			<g id="XMLID_140_">
				<g>
					<path class="st3" d="M1073.8,519.7l1.3,1.1c-2.9,3.6-6.1,7-9.1,10.2c-5.9,6.2-12.2,12-18.8,17.3l-0.4-0.5l-9.7,0.9
						c10.1-45.4-48.5-70.5-80.3-87c-0.4-0.2-0.8-0.4-1.2-0.5c22.9-2.2,45.6-3.8,69.2-3v0.1L1073.8,519.7z"/>
					<path class="st3" d="M1072.1,501.3c1.7,6,2.2,12.2,1.7,18.4l-49-61.3C1044.3,463.9,1066.4,481.5,1072.1,501.3z"/>
					<path class="st3" d="M1037.2,548.8l9.7-0.9c-3.6,1.9-7.3,3.8-10.9,5.6C1036.4,551.9,1036.9,550.3,1037.2,548.8z"/>
					<path class="st4" d="M1030.1,549.4l7.1-0.7c-0.3,1.5-0.8,3.1-1.3,4.7c-0.5,0.3-1.1,0.5-1.6,0.8L1030.1,549.4z"/>
					<path class="st5" d="M1035.9,553.5c3.7-1.8,7.3-3.7,10.9-5.6l0.4,0.5c-1.2,1-2.5,2-3.8,3c-16,12.4-33.6,22.5-51.8,31.1
						c-40.1,19-83.2,33.3-126.6,42.9c-24.8,5.5-49.3,12.2-74.4,16.2c-27.1,4.3-54.5,7.2-82,8.3c-4.5,0.2-9,0.3-13.5,0.4l0-2.1
						c1-5,1.5-9.8,1.6-14.5c0.1,0,0.2,0,0.3,0c16.1-0.4,32.3-1.2,48.3-2.7c34.6-3.4,68.7-10.8,102.8-18.1
						c64.2-13.9,127.4-29.4,186.4-58.5l1,1.1C1035.5,554.7,1035.7,554.1,1035.9,553.5z"/>
					<path class="st4" d="M1035.9,553.5c-0.2,0.6-0.4,1.2-0.6,1.9l-1-1.1C1034.9,554,1035.4,553.7,1035.9,553.5z"/>
					<path class="st4" d="M1030.1,549.4l4.2,4.8c-59,29.1-122.2,44.6-186.4,58.5c-34,7.4-68.1,14.7-102.8,18.1
						c-16.1,1.6-32.2,2.3-48.3,2.7c-0.1,0-0.2,0-0.3,0c0.3-19.2-6.4-36-16.6-51.2L1030.1,549.4z"/>
					<path class="st4" d="M1073.8,519.7c0.5-6.2,0-12.4-1.7-18.4c-5.7-19.9-27.9-37.4-47.3-42.9v-0.1c0.6,0,1.2,0,1.8,0.1
						c18.2,0.7,54.1,3.3,61.5,24c2.9,8.1,0.5,17-3.5,24.4c-2.6,4.9-6,9.6-9.6,14L1073.8,519.7z"/>
					<path class="st4" d="M956.9,461.8c31.8,16.5,90.4,41.6,80.3,87l-7.1,0.7l-76.6-87.3c0.1-0.3,0.2-0.5,0.4-0.6
						c0.5,0,1.1-0.1,1.6-0.2C956.1,461.4,956.5,461.6,956.9,461.8z"/>
					<path class="st4" d="M955.6,461.3c-0.5,0.1-1.1,0.1-1.6,0.2C954.4,461.2,955,461.2,955.6,461.3z"/>
					<path class="st4" d="M953.5,462.1l76.6,87.3L680,582.4c-11.9-17.6-28.5-33.1-44.3-47.4l-0.8-1.9c0.8-0.3,1.7-0.7,2.5-1
						c46.9-19.2,97.8-30.6,146.8-43.3c42.2-10.9,85.2-19,128.5-23.1c13.9-1.4,27.6-2.9,41.2-4.2
						C953.8,461.6,953.6,461.8,953.5,462.1z"/>
					<path class="st3" d="M680,582.4c10.2,15.2,17,32,16.6,51.2c-3,0.1-6,0.1-9.1,0.2l-26.1-49.7L680,582.4z"/>
					<path class="st6" d="M696.6,633.6c-0.1,4.7-0.6,9.5-1.6,14.5l-7.5-14.3C690.6,633.7,693.6,633.7,696.6,633.6z"/>
					<path class="st6" d="M695.1,648.1l0,2.1c-22.7,0.4-45.5-0.5-68.1-2.8l0.2-1.7c0.1-4.3-0.2-8.6-1-12.8
						c20.4,1.2,40.9,1.4,61.4,0.9L695.1,648.1z"/>
					<path class="st3" d="M661.5,584.1l26.1,49.7c-20.5,0.4-41,0.3-61.4-0.9c-2.8-15.4-10.9-29.9-18.8-43.7L661.5,584.1z"/>
					<path class="st3" d="M680,582.4l-18.5,1.7L635.7,535C651.5,549.3,668.1,564.7,680,582.4z"/>
					<path class="st3" d="M635.7,535l25.8,49.1l-54.1,5.1c0,0,0,0,0-0.1c-6.8-11.8-13.7-23.7-23.3-33.2l-0.9-1.7
						c17-8.7,34.2-14,51.9-21.1L635.7,535z"/>
					<path class="st5" d="M626.2,632.8c0.8,4.2,1.2,8.5,1,12.8l-6.4-13.2C622.6,632.6,624.4,632.7,626.2,632.8z"/>
					<path class="st4" d="M626.2,632.8c-1.8-0.1-3.6-0.2-5.3-0.4l-20.5-42.6l7-0.7C615.3,603,623.4,617.5,626.2,632.8z"/>
					<path class="st4" d="M600.3,589.8l20.5,42.6c-21.5-1.5-42.9-4.4-64-9.3c-7.2-1.7-14.5-3.6-20.6-7.9
						c-6.1-4.2-10.8-11.1-10.5-18.5L600.3,589.8z"/>
					<path class="st4" d="M607.3,589.1C607.3,589.1,607.3,589.2,607.3,589.1l-7,0.7L584,555.9C593.6,565.4,600.5,577.4,607.3,589.1z
						"/>
					<path class="st4" d="M584,555.9l16.3,33.9l-74.5,7l-0.7-0.4c2.1-3.1,4.7-6,7.2-8.4c14.5-14.1,31-23.4,48.5-32.6
						c0.8-0.4,1.5-0.8,2.3-1.2L584,555.9z"/>
					<path class="st5" d="M525.8,596.9c-0.3,7.4,4.4,14.3,10.5,18.5c6.1,4.2,13.4,6.2,20.6,7.9c21,4.9,42.4,7.7,64,9.3l6.4,13.2
						l-0.2,1.7c-9.1-0.9-18.1-2.1-27.1-3.5c-15.8-2.5-33.7-4.4-48.4-10.9c-9.3-4.2-24.2-9.5-29-18.9c-3-6-1.1-12.1,2.5-17.5
						L525.8,596.9z"/>
				</g>
				<g>
				</g>
			</g>
		</g>
		<g id="wave_curve_copy_3">
			<g id="XMLID_20_">
				<g>
					<path class="st0" d="M1032.7,563.4c-0.8,7.1-7.2,12-13.2,16c-6.5,4.3-13.1,8.6-19.7,12.7c-9.9,6.3-20,12.4-30.8,17.1
						c-20.4,9-42.6,12.7-64.5,16.5c-19.5,3.3-43.3,6.7-63.1,5.8c12-2,35.8-8.3,42-10c5.6-1.6,6.6-2.7,11.8-5.2
						c5.9-2.8,11.4-6.6,16.1-11.1c2.5-2.4,5-4.9,7.3-7.6c1.3-1.6,3.9-7.5,5.8-7.8c1.1-0.2,3.2,1.4,4.2,1.9c1.8,0.7,3.6,1.3,5.4,1.8
						c3.7,0.9,7.6,1.4,11.4,1.9c3.8,0.4,7.6,0.9,11.3,0.1c4.3-0.8,8.1-3.2,11.7-5.8c6.4-4.7,12.3-10.5,14.8-18
						c3.7,2.2,8.1,3,12.4,2.8c4.3-0.2,8.5-1.2,12.7-2.2C1012.6,571.4,1028.3,564.7,1032.7,563.4z"/>
				</g>
				<g>
				</g>
			</g>
		</g>
		<g id="bubbles_copy_3">
			<g id="XMLID_138_">
				<g>
					<path class="st7" d="M475.1,599.5c0,1.1-0.3,2.1-0.8,3.1c-1.4,2.8-4.1,5-7.2,5.4c-6.2,0.8-10.9-4.3-8.1-10.4
						C461.9,591.2,475,591.7,475.1,599.5z"/>
				</g>
				<g>
				</g>
			</g>
			<g id="XMLID_137_">
				<g>
					<path class="st7" d="M452.7,613.8c2.9,0.4,5.5,3,5.3,5.9c-0.2,3.1-3.5,5.3-6.6,5.1c-3.1-0.1-6.2-2.5-6.4-5.6
						c-0.1-1,0.2-2.1,0.8-2.9c1.2-1.1,2.6-1.9,4.1-2.3C450.8,613.8,451.7,613.7,452.7,613.8z"/>
				</g>
				<g>
				</g>
			</g>
			<g id="XMLID_136_">
				<g>
					<path class="st7" d="M494.8,598.4c1.3,4.9-7.9,5.9-7.9,1.2C486.9,595.6,493.7,594.2,494.8,598.4z"/>
				</g>
				<g>
				</g>
			</g>
			<g id="XMLID_135_">
				<g>
					<path class="st7" d="M435.3,581.6c-3.1-18.2,21.4-6.4,10.8,2.6C442.7,586.9,436.2,586.7,435.3,581.6z"/>
				</g>
				<g>
				</g>
			</g>
			<g id="XMLID_134_">
				<g>
					<path class="st7" d="M455.6,556.4c5-3.9,12.5,2,8.2,7.3C459.2,569.3,448.5,562,455.6,556.4z"/>
				</g>
				<g>
				</g>
			</g>
			<g id="XMLID_133_">
				<g>
					<path class="st7" d="M434.7,555.1c5.4-3.8,10.4,5.6,3.9,6.8C434.9,562.5,430.9,557.7,434.7,555.1z"/>
				</g>
				<g>
				</g>
			</g>
			<g>
				<path class="st7" d="M246.8,662.5c1,0,1.9-0.4,2.7-1c2.3-1.6,3.5-4.8,2.4-7.3C247.4,644.2,236.6,662.9,246.8,662.5z"/>
			</g>
			<g id="XMLID_132_">
				<g>
					<path class="st7" d="M233.7,641.3c3.5-1.9,9.5,1.5,6.5,5.5C235.8,653.1,227.2,644.8,233.7,641.3z"/>
				</g>
				<g>
				</g>
			</g>
			<path class="st7" d="M459,804"/>
		</g>
		<g id="sea_lion_copy_3">
			<g id="XMLID_131_">
				<g>
					<path class="st8" d="M936.5,542.9L936.5,542.9c-2.1,1.4-4.8,1.1-7.3,0.8c-15.6-1.6-31.2,1.5-46.9,2.7
						c-8.5,0.6-18.3,0.1-23.8-6.4c-4.8-5.7-4.5-13.9-4-21.3l-0.3-0.2c4-5.7,7.9-11.4,11.8-17.1c1.9-2.8,3.9-5.6,5.5-8.6
						c3.4-6.4,5-13.5,5.3-20.8l0.2,0c1.5,9.7,1.4,19.7-0.2,29.4c-0.4,2.6-1,5.1-1,7.8c0,6.5,3.7,12.9,9.2,16.1
						c5.8,3.4,12.8,3.4,19.4,4c6.3,0.6,12.5,1.8,18.5,3.5c3.9,1.1,12.8,2.7,14.4,7.1C937.7,541,937.3,542.4,936.5,542.9z"/>
					<path class="st9" d="M850.7,382.6c0.9,4.2,0.7,9.1-0.2,13.2c-0.5,2.3-1.3,4.6-2.8,6.4c-1.4,1.6-3.2,2.7-5.2,3.6
						c-3,1.4-6.1,2.5-9.3,3.5c-5.6,1.9-11.4,3.6-17.3,3.9c-11.2,0.5-22.4-4.7-29.9-13.1c-2.3-2.6-4.4-5.6-4.9-9.1c0-0.1,0-0.2,0-0.4
						c-0.2-1.9,0-3.8,0.2-5.7c0.3-2.9,1.3-6,2.2-9c-0.7,9.5,5.5,19,13.9,23.9c9.4,5.4,20.9,5.9,31.6,4.3c6.4-1,13.4-3.2,16.8-8.7
						c3.3-5.4,2.4-12.2,1.4-18.4c-0.7-4.1-1.3-8.2-2-12.3l0.7-0.1l0.2,0.1c1.5,2.8,2.2,5.9,2.8,9c0.2,1,0.4,2,0.6,3
						C849.8,378.5,850.2,380.6,850.7,382.6z"/>
					<path class="st10" d="M835.8,373.4c-1,0.9-2.7,1.1-3.6,0.2l-0.1,0c-0.3-0.6-0.5-1.3-0.8-1.9c-0.9-2-1.8-4-3-5.8l2.5-0.6
						c0.3,0.7,1,1.1,1.9,1c0.9-0.2,1.6-1.1,1.5-2.1l2.6-0.7c0.6,2,0.9,4.2,0.6,6.3C837.1,371.2,836.7,372.5,835.8,373.4z"/>
					<path class="st11" d="M834.1,364.4c0.1,0.9-0.6,1.9-1.5,2.1c-0.8,0.1-1.5-0.4-1.9-1c-0.3-0.7-0.3-1.6,0.5-2.1
						C832.3,362.5,834,363,834.1,364.4z"/>
					<path class="st10" d="M831.2,363.3c-0.8,0.5-0.8,1.4-0.5,2.1l-2.5,0.6c-0.8-1.3-1.8-2.5-3-3.5l0.2-0.2c-0.1-2.1,0-3.6,1.2-5.4
						c0.6-1,1.7-1.9,2.8-1.7c0.5,0.1,0.9,0.3,1.3,0.6c2.8,1.8,4.8,4.7,5.8,7.8l-2.6,0.7C834,363,832.3,362.5,831.2,363.3z"/>
					<path class="st12" d="M769.9,491.5c2.4-2.1,5.4-3.3,8.4-4.4c7.2-2.6,10.7-1.2,16.3,3.4c4.9,4,9.5,7.6,12.8,13.1
						c3.5,5.8,5.7,12.2,7.9,18.5c1.9,5.5,3.8,11.1,5.6,16.6c0.5,1.4,1,2.8,0.8,4.3c0,0.3-0.1,0.5-0.1,0.8c-0.2,1-0.7,1.9-1.2,2.8
						c-9.4,15.5-31.7,15.9-47.5,14.8c-5-0.4-10.3-0.8-14.5-3.4c-0.5-0.3-1.1-0.7-1.3-1.4c-0.2-0.6,0.1-1.3,0.3-1.9
						c0.9-1.9,2.1-3.5,3.4-5.1c3.6-4.2,8.3-7.8,11.2-12.4c0.7-1,1.3-2.1,1.7-3.2c0.9-2.2,1.3-4.5,0.6-6.9c-1.3-4.9-7-5.1-9.1-9.6
						c-0.9-1.9-1-4-1-6.1c-0.2-7.1,0.3-15,5.5-19.8C769.8,491.6,769.9,491.6,769.9,491.5z"/>
					<path class="st13" d="M816.1,362.2c1.4,0.4,2.2,2.1,2,3.5c-0.1,1.1-0.5,2.1-1,3.1c-0.2,0.3-0.4,0.7-0.5,1
						c-0.5,0.9-1.1,1.9-2,2.4c-1.5,0.8-3.5-0.9-4.5-2c-1.4-1.5-2.2-3.6-2.2-5.7c0-0.3,0-0.6,0.2-0.9c0.2-0.3,0.5-0.4,0.8-0.5
						c1.8-0.6,3.7-1,5.6-1.1C815.1,362,815.6,362,816.1,362.2z"/>
					<path class="st14" d="M814.6,362.1c-1.9,0.1-3.8,0.5-5.6,1.1c-0.3,0.1-0.7,0.2-0.8,0.5c-0.2,0.3-0.2,0.6-0.2,0.9
						c0,2.1,0.8,4.2,2.2,5.7c1,1,3,2.7,4.5,2c1-0.5,1.5-1.5,2-2.4c0.2-0.3,0.4-0.6,0.5-1c0.5-1,1-2,1-3.1c0.1-1.5-0.6-3.1-2-3.5
						C815.6,362,815.1,362,814.6,362.1z M804.7,361.7c2.7-1.2,5.7-1.6,8.6-1.9c3.6-0.3,7.4-0.2,10.5,1.7c0.5,0.3,1,0.7,1.5,1
						c1.2,1,2.1,2.1,3,3.5c1.2,1.8,2.1,3.8,3,5.8c0.3,0.6,0.6,1.3,0.8,1.9c0.4,1,0.8,2,1,3.1c0.5,2.3,0.4,4.7,0.2,7
						c-0.1,1.5-0.3,3-1.1,4.2c-0.5,0.8-1.3,1.4-2.1,2c-3.9,2.9-8.3,4.9-13,6.1c-1.3,0.3-2.6,0.6-3.8,0.4c-1.3-0.1-2.5-0.6-3.7-1
						c-2-0.8-4-1.5-6.1-2.3c-1.7-0.7-3.4-1.3-4.9-2.4c-1.4-1-2.5-2.4-2.8-4.1l0.1,0c-0.4-2.9-0.5-5.8-0.2-8.7c0-0.2,0-0.4,0.1-0.5
						c0.3-2.6,0.9-5.2,1.7-7.7c0.1-0.2,0.1-0.4,0.2-0.6c0.2-0.5,0.4-1.1,0.6-1.6c0.8-1.7,2.1-3.1,3.5-4.2
						C802.7,362.7,803.7,362.1,804.7,361.7z"/>
					<path class="st10" d="M792.5,366.8c-0.1,0.2-0.2,0.3-0.2,0.5l-2.1-0.5c0.7-2.2,1.8-4.3,3.1-6.3c0.8-1.2,1.9-2.4,3.3-2.3
						c0.5,0.1,1,0.3,1.5,0.6c1.5,0.8,3.2,1.9,3.5,3.6l0.3,1c-1.5,1.1-2.8,2.5-3.5,4.2c-0.2,0.5-0.5,1.1-0.6,1.6l-1-0.4
						c0-0.1,0.1-0.2,0.1-0.4c0.2-0.9-0.4-2.2-1.3-2.5c-0.1,0-0.2,0-0.3,0h0C794.2,365.5,793.2,365.6,792.5,366.8z"/>
					<path class="st11" d="M793.4,369.8c-0.4-0.2-0.7-0.6-0.7-1c-0.1-0.4,0.1-0.9,0.3-1.2c0.5-0.7,1.2-1.6,2.1-1.6h0
						c1.1,0.4,2,1.8,1.2,3.2C795.8,370,794.3,370.4,793.4,369.8z"/>
					<path class="st15" d="M793,367.5c-0.2,0.4-0.4,0.8-0.3,1.2c0.1,0.4,0.3,0.8,0.7,1c0.9,0.6,2.4,0.3,3-0.8
						c0.7-1.4-0.1-2.7-1.2-3.2c0.1,0,0.2,0,0.3,0c0.9,0.3,1.5,1.7,1.3,2.5c0,0.1-0.1,0.3-0.1,0.4c-0.5,1.1-1.9,1.8-3,1.3
						c-1.1-0.4-1.7-1.7-1.4-2.8c0-0.2,0.1-0.4,0.2-0.5c0.6-1.1,1.7-1.3,2.6-0.9C794.2,365.8,793.5,366.7,793,367.5z"/>
					<path class="st10" d="M792.3,367.3c-0.3,1.1,0.3,2.4,1.4,2.8c1.1,0.4,2.5-0.2,3-1.3l1,0.4c-0.1,0.2-0.1,0.4-0.2,0.6
						c-0.8,2.5-1.4,5.1-1.7,7.7c0,0.2,0,0.3-0.1,0.5l-0.7-0.1c-0.4,1.3-2.5,1.4-3.5,0.5c-1-1-1.2-2.5-1.4-3.9
						c-0.2-1.5-0.4-3.1-0.3-4.7c0.1-1.1,0.2-2.1,0.5-3.1L792.3,367.3z"/>
					<path class="st16" d="M791.4,378.4c1,1,3.1,0.9,3.5-0.5l0.7,0.1c-0.3,2.9-0.2,5.8,0.2,8.7l-0.1,0c0.3,1.6,1.5,3.1,2.8,4.1
						c1.5,1.1,3.2,1.7,4.9,2.4c2,0.8,4,1.5,6.1,2.3c1.2,0.5,2.5,0.9,3.7,1c1.3,0.1,2.6-0.1,3.8-0.4c4.7-1.1,9.1-3.2,13-6.1
						c0.8-0.6,1.6-1.2,2.1-2c0.8-1.2,1-2.8,1.1-4.2c0.2-2.4,0.3-4.7-0.2-7c-0.2-1.1-0.6-2.1-1-3.1l0.1,0c0.9,0.9,2.6,0.7,3.6-0.2
						c1-0.9,1.4-2.3,1.5-3.6c0.3-2.1,0.1-4.2-0.6-6.3c-1-3.1-3.1-6-5.8-7.8c-0.4-0.3-0.9-0.5-1.3-0.6c-1.2-0.2-2.2,0.7-2.8,1.7
						c-1.1,1.8-1.3,3.3-1.2,5.4l-0.2,0.2c-0.5-0.4-0.9-0.7-1.5-1c-3.1-1.8-6.9-1.9-10.5-1.7c-3,0.2-5.9,0.7-8.6,1.9
						c-1,0.4-2,1-2.9,1.7l-0.3-1c-0.3-1.7-1.9-2.7-3.5-3.6c-0.5-0.3-1-0.5-1.5-0.6c-1.4-0.1-2.5,1.1-3.3,2.3c-1.3,1.9-2.4,4-3.1,6.3
						c-0.3,1-0.5,2-0.5,3.1c-0.1,1.6,0.1,3.1,0.3,4.7C790.2,375.9,790.4,377.4,791.4,378.4z M845.1,364.6c0.7,4.1,1.3,8.2,2,12.3
						c1,6.2,1.9,13.1-1.4,18.4c-3.5,5.5-10.4,7.7-16.8,8.7c-10.7,1.7-22.2,1.2-31.6-4.3c-8.4-4.9-14.5-14.4-13.9-23.9
						c0.1-1.1,0.2-2.2,0.5-3.4l-0.3-0.6c1.6-17.4,12.2-28,29.8-29.4c14.1-1.1,31.1,5.6,32.4,21.9L845.1,364.6z"/>
					<path class="st17" d="M850.1,376.4c4.9,15.7,10.2,31.3,15.8,46.8c4.1,11.3,8.3,22.6,10.2,34.5c0.7,4.7,1,9.6,0.8,14.4
						c-0.4,7.2-2,14.4-5.3,20.8c-1.6,3-3.5,5.8-5.5,8.6c-4,5.7-7.9,11.4-11.8,17.1c-0.6,0.9-1.2,1.7-1.8,2.6
						c-3.8,5.6-7.7,11.1-12.5,16c-4.8,4.8-11.2,7.8-18.1,6.9l-0.2,0c0.1-0.3,0.1-0.5,0.1-0.8c0.1-1.5-0.3-2.9-0.8-4.3
						c-1.9-5.5-3.8-11.1-5.6-16.6c-2.2-6.4-4.4-12.8-7.9-18.5c-3.4-5.5-7.9-9.1-12.8-13.1c-5.6-4.6-9.1-6-16.3-3.4
						c-3,1.1-6.1,2.3-8.4,4.4c-2.1-2.3-2.5-5.7-2.7-8.8c-0.6-10.5,0.6-19.9,3.5-29.9c0.2-0.6,0.4-1.2,0.5-1.8c0-0.1,0-0.1,0.1-0.2
						c3.7-12.1,9.3-23.8,9.9-36.4c0.4-7.9-1.2-15.7-0.8-23.6l0.6-0.1c0,0.1,0,0.2,0,0.4c0.5,3.4,2.6,6.5,4.9,9.1
						c7.5,8.4,18.7,13.6,29.9,13.1c5.9-0.3,11.6-2.1,17.3-3.9c3.1-1,6.3-2.1,9.3-3.5c1.9-0.9,3.8-2,5.2-3.6c1.5-1.8,2.3-4.1,2.8-6.4
						c0.9-4.1,1.1-9.1,0.2-13.2c-0.4-2-0.9-4-1.3-6.1L850.1,376.4z"/>
					<path class="st18" d="M774.5,527.1c0.7,2.4,0.3,4.7-0.6,6.9l-1.1,0.1c-3.7,1.6-8.1,1.1-11.8-0.6c-3.7-1.7-6.8-4.5-9.5-7.5
						c-1.8-1.9-3.4-4-4.7-6.3c-3.7-6.6-4.2-14.7-2.7-22.1c1.4-7.4,4.7-14.4,8-21.2c4.5-9.2,9.8-18.7,18.7-23.7
						c-2.9,10-4.1,19.4-3.5,29.9c0.2,3.1,0.6,6.5,2.7,8.8c0,0-0.1,0.1-0.1,0.1c-5.2,4.8-5.6,12.7-5.5,19.8c0.1,2.1,0.2,4.2,1,6.1
						C767.5,522,773.2,522.3,774.5,527.1z"/>
					<path class="st19" d="M748,459.6c8.5-0.8,17.1-3.1,23.4-8.9c0,0.1,0,0.1-0.1,0.2c-0.2,0.6-0.4,1.2-0.5,1.8
						c-8.9,5-14.2,14.5-18.7,23.7c-3.4,6.8-6.6,13.8-8,21.2c-1.5,7.5-1,15.5,2.7,22.1c1.3,2.3,2.9,4.3,4.7,6.3
						c2.7,3,5.8,5.8,9.5,7.5c3.7,1.7,8.1,2.2,11.8,0.6l1.1-0.1c-0.5,1.1-1.1,2.2-1.7,3.2c-3,4.6-7.7,8.2-11.2,12.4l-0.2-0.2
						c-17.4,0.2-34.2-6.6-51.6-6.9c-8.9-0.1-17.8,1.4-26.7,1.9c-8.9,0.5-18.2-0.3-26-4.6l-1,0.5c-1.2-2.1-1.9-4.5-2.9-6.8
						c-2.8-6.8-7.5-13.3-14.4-15.8c-4.9-1.8-10.3-0.7-14.4,2.3c-0.6,0.4-1.1,0.9-1.6,1.4c0.8-6,3-11.9,6.6-16.9
						c2.4-3.4,5.4-6.3,8.5-9c19-16.3,43.8-24.1,67.9-30.8c5.7-1.6,11.4-3.1,17.2-3.9C730.9,459.9,739.5,460.4,748,459.6z"/>
					<path class="st12" d="M622.2,521.5c0.4-0.5,1-0.9,1.6-1.4c4.1-3,9.5-4.1,14.4-2.3c6.9,2.5,11.6,9,14.4,15.8
						c0.9,2.3,1.7,4.6,2.9,6.8c0.4,0.7,0.8,1.4,1.3,2c2.6,3.4,6.8,5.4,9.4,8.8c1.2,1.6,2,3.8,1,5.6c-1.4,2.6-5.2,2.2-8.1,1.7
						c-8.5-1.6-17.3-1.4-25.7,0.5c-1.1,0.2-2.3,0.5-3.4,0.1c-0.9-0.3-1.6-1.1-2.3-1.9c-2.7-3.2-5.4-6.3-8.1-9.5
						c-1.2-1.4-2.4-2.8-3-4.6c-1.3-3.7,0.6-6.6,1.5-10.1C619.2,528.7,619.3,524.7,622.2,521.5z"/>
				</g>
				<g>
				</g>
			</g>
			<g id="seal_lion_shadows_copy_2">
				<path class="st20" d="M821.8,543.9c0,0,9.2,2.1,18.2-6.9c2.5-2,10.1-10.1,17-20c6.9-9.9,13-21.5,15-25.1c0,0,7.9-11.7,3.5-37.8
					C871,428,849,374,849,374s2.4,7.9,2.2,12.4S852,413,849,436s-2,26-8,44s-25,42-25,42S815.7,524.9,821.8,543.9z"/>
				<path class="st8" d="M816,522c0,0-8,12-20,19s-38,12.8-38,12.8s-1.4,2.3-0.7,3.3c0.7,0.9,5.1,3.4,11.4,4
					c8.3,0.9,27.7,1.9,38-3.1s13-10.1,13-10.1l2.3-3.8c0,0-1.4-3.7-3-10C818.1,530.6,817,527,816,522z"/>
				<path class="st21" d="M764,514c0,0,1.9,5.1,1,8s-3,13-6,16s-13,10.4-15,10s7.1,0.6,11,1.3c4,0.7,5.8,0.4,5.8,0.4
					s6.3-6.6,9.2-9.7c2.9-3,6.1-7.8,4.6-12.3c-1.6-4.7-4.1-5.1-6.1-6.7c0,0-2.7-3.3-3.5-5.1"/>
				<path class="st22" d="M765,501c-0.1,1.8-0.8,14,1.6,17.5c2.4,3.5,5.9,4,7.6,7.9c1.7,3.9,0,8,0,8s-0.7,1.1-6.4,0.7
					s-6.4-1.7-6.4-1.7s0.8-1.5,0.7-3.5s-1.5-11.5-1.2-16S765,501,765,501"/>
			</g>
		</g>
		<g id="pencils_copy_3">
			<g id="XMLID_11_">
				<g>
					<path class="st11" d="M876.6,592c-10.7,2.2-21.4,4.4-32.1,6.5c-1.1,0.2-2.3,0.5-3.3,0c-1.5-0.6-2.2-2.7-1.4-4.1
						c5.4-1.1,10.7-2.2,16.1-3.4c-3.9-7.5-6.4-15.8-7.2-24.2l0.7-0.1c5.3-0.8,10.5-2.1,15.5-4.1c0.6,3.5,1.3,6.9,2.6,10.2
						C870.1,579.5,875.6,585,876.6,592z"/>
					<path class="st11" d="M839.7,594.5c-3.8,0.8-7.6,1.5-11.4,2.3c-0.2,0-0.3,0.1-0.5,0.1c-3,0.7-9.6,3-11.2,1.1
						c-1.6-1.9,0.1-12.5,0.2-15.2c0-3.2,0.1-6.5,0.1-9.7c0-2.2,0-4.3,0.1-6.4c0-0.4,0-0.8,0.2-1c0.2-0.3,0.6-0.4,0.9-0.4
						c4.8-1.1,9.8-3,14.7-2.8c4.6,0.2,8.9,0.6,13.5,0c0.5-0.1,1.1-0.1,1.5,0.2c0.5,0.4,0.5,1,0.6,1.6c0.1,0.9,0.1,1.9,0.2,2.8
						c0.9,8.4,3.3,16.7,7.2,24.2C850.5,592.3,845.1,593.4,839.7,594.5z"/>
					<path class="st11" d="M827.8,596.8c-3.6,3.9-7.3,7.7-10.9,11.6c-0.5,0.6-1.1,1.2-1.8,1.5c-1,0.5-2.2,0.3-3.3,0
						c-3-1-5.5-3.2-8.1-5c-3.5-2.3-7.4-3.8-11.2-5.3c-6.2-2.4-12.5-4.8-18.7-7.2c9.5-6.2,18.5-13.2,26.8-20.9
						c0.8-0.7,1.6-1.5,2.7-1.7c0.9-0.1,1.7,0.1,2.6,0.4c3.1,1,6.3,1.9,9.4,2.9l1.7,0.1c0,3.2-0.1,6.5-0.1,9.7
						c0,2.7-1.7,13.3-0.2,15.2C818.2,599.8,824.9,597.5,827.8,596.8z"/>
				</g>
				<g>
				</g>
			</g>
			<g id="XMLID_10_">
				<g>
					<path class="st23" d="M890.7,560.1c-3.5,0.4-6.9-1.7-9.8-3.7c7.5-1.4,15.2-1.2,22.8-1.1c5.7,0.1,11.5,0.2,17.2,0.3
						c2.4,0,5.7,0.9,5.6,3.4c-0.1,2.4-3.3,2.9-5.7,2.8c-10-0.5-20-1-30-1.5L890.7,560.1z"/>
				</g>
				<g>
				</g>
			</g>
			<g id="XMLID_9_">
				<g>
					<path class="st24" d="M896.9,575.2c-3.5-0.4-6.4-3.2-8.8-5.8c7.6,0.3,15.1,2.2,22.4,4c5.5,1.4,11.1,2.8,16.7,4.2
						c2.4,0.6,5.4,2.2,4.7,4.5c-0.7,2.3-3.9,2.1-6.2,1.5c-9.6-2.7-19.2-5.4-28.9-8.2L896.9,575.2z"/>
				</g>
				<g>
				</g>
			</g>
		</g>
		<g id="laptop_copy_3">
			<g id="XMLID_8_">
				<g>
					<path class="st25" d="M919.1,466.9c-0.2-0.2-0.3-0.5-0.4-0.8c-0.6-2,0.3-5.5,0.4-7.6c1-20.5,1.9-41,2.9-61.5
						c0-0.9,0.1-1.9,0.7-2.6c0.7-0.8,1.7-0.9,2.7-1c10.6-1.1,21.4-0.9,32.1-0.8c24,0.4,48,0.9,72.1,1.3c2.4,0,5.1,0.2,6.5,2.1
						c1.1,1.5,1.1,3.5,1,5.4c-0.7,12.8-1.3,25.5-1.9,38.3c-0.3,6.5-0.5,13-0.8,19.5c-0.1,3.1-0.2,6.3-0.3,9.4
						c-0.1,2.1,0.2,3.7-0.6,4.2c-0.4,0.3-1.2,0.4-2.6,0.1c-1.2-0.2-2.4-0.3-3.6-0.3c-10.7-0.2-21.2-0.4-31.8-1
						c-8.3-0.5-16.6-0.9-24.9-1.3c-10.4-0.5-20.9-1.1-31.3-1.7c-5.2-0.3-10.4-0.5-15.7-0.8C921.6,467.6,920,468.1,919.1,466.9z"/>
					<path class="st26" d="M1033.5,472.8c0.2,1.2-0.6,2.4-1.3,3.4c-7,8.8-14.4,17.2-22.1,25.3c-1.5,1.5-3,3.1-5,3.8
						c-2,0.8-4.3,0.6-6.5,0.4c-38-3.1-75.9-6.1-113.9-9.2c-0.5,0-1-0.1-1.2-0.5c-0.2-0.5,0.2-1.1,0.6-1.4
						c11.2-9.9,22.8-19.1,35-27.7c0.8,1.2,2.4,0.7,4.5,0.8c5.2,0.3,10.4,0.6,15.7,0.8c10.5,0.6,20.9,1.1,31.3,1.7
						c8.3,0.4,16.6,0.9,24.9,1.3c10.6,0.6,21.2,0.8,31.8,1c1.2,0,2.4,0.1,3.6,0.3C1032.3,473.2,1033.1,473.1,1033.5,472.8z"/>
				</g>
				<g>
				</g>
			</g>
			<g id="XMLID_7_">
				<g>
					<polygon class="st11" points="1026.6,403.9 1024.3,463.5 928.5,459.6 931.9,402.5 					"/>
				</g>
				<g>
				</g>
			</g>
			<g id="XMLID_6_">
				<g>
					<polygon class="st27" points="1013.3,480.8 999,496.5 908.6,489.6 924.2,475.7 					"/>
				</g>
				<g>
				</g>
			</g>
			<g id="laptop_text_copy_2">
				<g>
					<g>
						<path class="st3" d="M946.3,416.7c4.8,0.1,9.6,0.1,14.4,0.2c1.9,0,1.9-3,0-3c-4.8-0.1-9.6-0.1-14.4-0.2
							C944.4,413.6,944.4,416.6,946.3,416.7L946.3,416.7z"/>
					</g>
				</g>
				<g>
					<g>
						<path class="st3" d="M967.4,416.7c1.9,0,1.9-3,0-3C965.4,413.7,965.4,416.7,967.4,416.7L967.4,416.7z"/>
					</g>
				</g>
				<g>
					<g>
						<path class="st28" d="M951.7,422.9c6.3,0.1,12.6,0.2,18.9,0.2c1.9,0,1.9-3,0-3c-6.3-0.1-12.6-0.2-18.9-0.2
							C949.8,419.8,949.8,422.8,951.7,422.9L951.7,422.9z"/>
					</g>
				</g>
				<g>
					<g>
						<path class="st28" d="M945.3,422.8c1.9,0,1.9-3,0-3C943.4,419.8,943.4,422.8,945.3,422.8L945.3,422.8z"/>
					</g>
				</g>
				<g>
					<g>
						<path class="st28" d="M977,423.2c1.9,0,1.9-3,0-3C975,420.2,975,423.2,977,423.2L977,423.2z"/>
					</g>
				</g>
				<g>
					<g>
						<path class="st3" d="M984.8,422.8c4.8,0.1,9.7,0.1,14.5,0.2c1.9,0,1.9-3,0-3c-4.8-0.1-9.7-0.1-14.5-0.2
							C982.9,419.8,982.9,422.8,984.8,422.8L984.8,422.8z"/>
					</g>
				</g>
				<g>
					<g>
						<path class="st3" d="M1005.4,423.1c1.9,0,1.9-3,0-3C1003.5,420.1,1003.5,423.1,1005.4,423.1L1005.4,423.1z"/>
					</g>
				</g>
				<g>
					<g>
						<path class="st3" d="M964.9,429.6c6.6,0.1,13.2,0.1,19.8,0.2c1.9,0,1.9-3,0-3c-6.6-0.1-13.2-0.1-19.8-0.2
							C963,426.6,963,429.6,964.9,429.6L964.9,429.6z"/>
					</g>
				</g>
				<g>
					<g>
						<path class="st3" d="M958.3,429.6c1.9,0,1.9-3,0-3C956.4,426.6,956.4,429.6,958.3,429.6L958.3,429.6z"/>
					</g>
				</g>
				<g>
					<g>
						<path class="st29" d="M974.9,416.3c5.5,0.1,11.1,0.1,16.6,0.2c1.9,0,1.9-3,0-3c-5.5-0.1-11.1-0.1-16.6-0.2
							C973,413.3,972.9,416.3,974.9,416.3L974.9,416.3z"/>
					</g>
				</g>
				<g>
					<g>
						<path class="st29" d="M997.3,416.1c1.9,0,1.9-3,0-3C995.4,413.1,995.4,416.1,997.3,416.1L997.3,416.1z"/>
					</g>
				</g>
				<g>
					<g>
						<path class="st29" d="M944.1,429.7c2.4,0,4.8,0.1,7.1,0.1c1.9,0,1.9-3,0-3c-2.4,0-4.8-0.1-7.1-0.1
							C942.1,426.7,942.1,429.7,944.1,429.7L944.1,429.7z"/>
					</g>
				</g>
				<g>
					<g>
						<path class="st29" d="M993.2,429.4c4.8,0.1,9.7,0.3,14.5,0.4c1.9,0.1,1.9-2.9,0-3c-4.8-0.1-9.7-0.3-14.5-0.4
							C991.3,426.4,991.3,429.4,993.2,429.4L993.2,429.4z"/>
					</g>
				</g>
				<g>
					<g>
						<path class="st30" d="M949.4,436.8c6.4,0.1,12.8,0.2,19.2,0.2c1.9,0,1.9-3,0-3c-6.4-0.1-12.8-0.2-19.2-0.2
							C947.5,433.7,947.5,436.7,949.4,436.8L949.4,436.8z"/>
					</g>
				</g>
				<g>
					<g>
						<path class="st30" d="M943.9,437.1c1.9,0,1.9-3,0-3C942,434.1,942,437.1,943.9,437.1L943.9,437.1z"/>
					</g>
				</g>
				<g>
					<g>
						<path class="st30" d="M976.4,434.6c-0.1,0-0.1,0-0.2,0c-0.8,0-1.5,0.7-1.5,1.5c0,0.8,0.7,1.5,1.5,1.5c0.1,0,0.1,0,0.2,0
							c0.8,0,1.5-0.7,1.5-1.5C977.8,435.2,977.2,434.6,976.4,434.6L976.4,434.6z"/>
					</g>
				</g>
				<g>
					<g>
						<path class="st30" d="M997.5,434.5c-4.6-0.2-9.2-0.3-13.9-0.3c-1.9,0-1.9,3,0,3c4.6,0,9.2,0.1,13.9,0.3
							C999.4,437.5,999.4,434.5,997.5,434.5L997.5,434.5z"/>
					</g>
				</g>
				<g>
					<g>
						<path class="st30" d="M1005.5,435.7c0-0.1,0-0.1,0-0.2c0-0.8-0.7-1.5-1.5-1.5c-0.8,0-1.5,0.7-1.5,1.5c0,0.1,0,0.1,0,0.2
							c0,0.8,0.7,1.5,1.5,1.5C1004.8,437.2,1005.5,436.6,1005.5,435.7L1005.5,435.7z"/>
					</g>
				</g>
				<g>
					<g>
						<path class="st3" d="M956.9,444.6c6.6,0.1,13.2,0.1,19.8,0.2c1.9,0,1.9-3,0-3c-6.6-0.1-13.2-0.1-19.8-0.2
							C955,441.6,955,444.6,956.9,444.6L956.9,444.6z"/>
					</g>
				</g>
				<g>
					<g>
						<path class="st3" d="M950.3,444.6c1.9,0,1.9-3,0-3C948.4,441.6,948.4,444.6,950.3,444.6L950.3,444.6z"/>
					</g>
				</g>
				<g>
					<g>
						<path class="st28" d="M943.3,444.8c1.9,0,1.9-3,0-3C941.4,441.8,941.4,444.8,943.3,444.8L943.3,444.8z"/>
					</g>
				</g>
				<g>
					<g>
						<path class="st29" d="M984.2,445.4c4.8,0.1,9.7,0.3,14.5,0.4c1.9,0.1,1.9-2.9,0-3c-4.8-0.1-9.7-0.3-14.5-0.4
							C982.3,442.4,982.3,445.4,984.2,445.4L984.2,445.4z"/>
					</g>
				</g>
				<g>
					<g>
						<path class="st28" d="M942.7,451.9c6.3,0.1,12.6,0.2,18.9,0.2c1.9,0,1.9-3,0-3c-6.3-0.1-12.6-0.2-18.9-0.2
							C940.8,448.8,940.8,451.8,942.7,451.9L942.7,451.9z"/>
					</g>
				</g>
				<g>
					<g>
						<path class="st28" d="M968,452.2c1.9,0,1.9-3,0-3C966,449.2,966,452.2,968,452.2L968,452.2z"/>
					</g>
				</g>
				<g>
					<g>
						<path class="st29" d="M1007.3,446.1c1.9,0,1.9-3,0-3C1005.4,443.1,1005.4,446.1,1007.3,446.1L1007.3,446.1z"/>
					</g>
				</g>
				<g>
					<g>
						<path class="st28" d="M975,452.2c1.9,0,1.9-3,0-3C973,449.2,973,452.2,975,452.2L975,452.2z"/>
					</g>
				</g>
			</g>
		</g>
		<g id="arduino_copy_3">
			<g id="XMLID_124_">
				<g>
					<path class="st31" d="M1007.9,531.5C1007.9,531.5,1007.9,531.5,1007.9,531.5l-0.1,0c-2.7,1.7-5.5,3.3-8.2,5.1
						c-0.3-0.2-0.6-0.4-0.9-0.6l0,0c2.4-1.7,4.9-3.3,7.4-4.8c0.3-0.2,0.6-0.4,0.9-0.5l0,0C1007.3,530.9,1007.7,531.1,1007.9,531.5
						L1007.9,531.5z"/>
					<path d="M999.5,536.6c2.7-1.8,5.5-3.4,8.2-5.1l0.1,0c0.1,1,0.3,2,0.4,3.1c0,0.3,0.1,0.5,0.1,0.8l-0.1,0
						c-2.7,1.8-5.5,3.4-8.3,5.1C999.8,539.2,999.6,537.9,999.5,536.6L999.5,536.6C999.5,536.7,999.5,536.7,999.5,536.6z"/>
					<path class="st31" d="M1000,540.5c-0.4-0.2-0.7-0.4-1-0.6c-0.1-0.6-0.2-1.1-0.2-1.7c-0.1-0.7-0.2-1.4-0.3-2.1l0-0.1
						c0,0,0,0,0,0l0,0c0.3,0.2,0.6,0.4,0.9,0.6c0,0,0,0,0,0h0C999.6,537.9,999.8,539.2,1000,540.5C1000,540.5,1000,540.5,1000,540.5
						L1000,540.5z"/>
					<path d="M998.7,538.2c0.1,0.9,0.2,1.8,0.3,2.8l0,0c-1.2,0.8-2.3,1.6-3.5,2.4c-2.5,1.7-5,3.3-7.5,4.8c-0.2-1.3-0.4-2.6-0.5-3.9
						l0.1,0c0,0,0,0,0,0c2.1-1.4,4.3-2.8,6.4-4.2c0.5-0.3,0.9-0.7,1.5-1c1-0.5,2-1.2,2.9-1.9c0,0,0,0,0,0l0.2,0
						C998.7,537.6,998.7,537.9,998.7,538.2z"/>
					<path class="st32" d="M998.4,523.1c-0.2,0-0.4,0-0.4-0.1c0,0,0,0,0,0c0-0.4,0.7-0.2,0.7,0C998.6,523,998.6,523,998.4,523.1z"/>
					<path class="st32" d="M998.3,525.7c0-0.3-0.1-0.7-0.2-1c-0.1-0.6-0.2-1.2-0.2-1.8h0c0,0,0,0,0,0c0,0.2,0.3,0.2,0.4,0.1
						c0.2-0.1,0.2-0.1,0.2-0.2h0c0.1,0.7,0.2,1.5,0.3,2.2c0,0.2,0,0.3,0.1,0.4h0c0,0.1-0.1,0.3-0.3,0.3
						C998.6,525.9,998.5,525.9,998.3,525.7L998.3,525.7z"/>
					<path class="st32" d="M997.7,527.1C997.7,527.1,997.7,527.1,997.7,527.1C997.7,527.1,997.7,527.1,997.7,527.1z"/>
					<path d="M997.1,527.5c0.2-0.1,0.3-0.2,0.5-0.3c0,0,0,0,0.1,0c0,0,0,0,0,0c0,0,0,0,0,0c0,0,0,0,0,0c0.5-0.4,1.7-1.2,1.9-1.3l0,0
						c0,0.1,0,0.2,0,0.3c0,0.3,0,0.5,0.1,0.7h0c0,0-2.3,1.7-2.5,1.8L997.1,527.5z"/>
					<path d="M997.8,526.8c-0.1-0.5-0.1-1.1-0.2-1.6h0c0.1,0,0.2,0,0.2,0c0.1,0,0.1-0.1,0.2-0.2l0,0c0-0.2,0-0.4-0.1-0.5h0
						c0.1,0.1,0.1,0.1,0.2,0.2h0c0.1,0.3,0.1,0.7,0.2,1l0,0.1c0.1,0.1,0.2,0.2,0.4,0.1c0.1,0,0.3-0.2,0.3-0.3h0c0-0.2,0-0.3-0.1-0.4
						l0.1,0.1c0,0,0,0,0.1,0.1c0.1,0.1,0.4,0.3,0.5,0.4l0,0.1c-0.2,0.1-1.4,0.9-1.9,1.3C997.8,527,997.8,526.9,997.8,526.8
						L997.8,526.8z"/>
					<path class="st32" d="M997.6,521.9c0,0,0,0.1,0,0.1C997.6,522,997.6,522,997.6,521.9z"/>
					<path class="st32" d="M997.1,523.5c0.2,0,0.3,0.2,0.3,0.3c0,0.1,0,0.1-0.1,0.2c-0.1,0-0.1,0.1-0.2,0.1c-0.2,0-0.3,0-0.3-0.2
						c0-0.1,0-0.2,0.1-0.3C997,523.4,997,523.4,997.1,523.5z"/>
					<path class="st32" d="M997.6,522.2c-0.1,0.1-0.2,0.1-0.4,0.1c-0.1,0-0.2,0-0.2-0.1c0,0,0,0,0,0c-0.1-0.3,0.6-0.5,0.7-0.3
						c0,0,0,0.1,0,0.1c0,0,0,0,0,0C997.6,522.1,997.6,522.2,997.6,522.2z"/>
					<path class="st32" d="M997.6,525.2c-0.1-0.5-0.1-1-0.2-1.4h0c0-0.2-0.1-0.3-0.3-0.3c-0.1-0.4-0.1-0.8-0.2-1.2
						c0,0.1,0.1,0.1,0.2,0.1c0.1,0,0.3,0,0.4-0.1c0,0,0.1-0.1,0.1-0.1c0,0,0,0,0,0c0.1,0.8,0.2,1.6,0.3,2.4c0,0.2,0,0.4,0.1,0.5l0,0
						c0,0.1-0.1,0.1-0.2,0.2C997.8,525.2,997.7,525.2,997.6,525.2L997.6,525.2z"/>
					<path class="st32" d="M997.7,527.1C997.7,527.1,997.7,527.1,997.7,527.1C997.6,527.2,997.6,527.2,997.7,527.1
						c-0.2,0.1-0.4,0.1-0.5,0c-0.1-0.8-0.2-1.7-0.3-2.5c0-0.3-0.1-0.5-0.1-0.8h0c0,0.2,0.2,0.3,0.3,0.2c0.1,0,0.2,0,0.2-0.1
						c0.1-0.1,0.1-0.1,0.1-0.2h0c0.1,0.5,0.1,1,0.2,1.4c0.1,0.5,0.2,1,0.2,1.6l0,0C997.8,526.9,997.8,527,997.7,527.1
						C997.8,527.1,997.7,527.1,997.7,527.1C997.7,527.1,997.7,527.1,997.7,527.1z"/>
					<path class="st32" d="M996,521.6c-0.1-0.1-0.1-0.2,0-0.3c0.2-0.4,0.7-0.1,0.6,0.2c0,0,0,0,0,0.1c-0.1,0.1-0.2,0.1-0.3,0.1
						C996.3,521.7,996.2,521.7,996,521.6C996.1,521.6,996.1,521.6,996,521.6z"/>
					<path class="st32" d="M995.9,522.9c0.1-0.1,0.2-0.1,0.3,0c0,0,0,0,0,0c0.1,0.1,0.1,0.1,0.1,0.2c0,0.2-0.2,0.3-0.5,0.3
						c-0.1,0-0.1-0.1-0.1-0.1C995.7,523,995.7,522.9,995.9,522.9z"/>
					<path class="st32" d="M996.1,521.7c0.1,0,0.1,0,0.2,0c0.1,0,0.2,0,0.3-0.1c0,0,0,0,0-0.1c0.1,0.7,0.2,1.4,0.3,2
						c-0.1,0.1-0.1,0.2-0.1,0.3h0c0,0.3,0.1,0.5,0.1,0.8c-0.1,0-0.2,0.1-0.3,0l-0.1,0c-0.1-0.5-0.2-1.1-0.2-1.6h0
						c0-0.1,0-0.1-0.1-0.2l0,0c-0.1-0.2,0-0.4-0.1-0.6C996.1,522,996.1,521.8,996.1,521.7C996.1,521.6,996.1,521.6,996.1,521.7z"/>
					<path class="st32" d="M996.2,526.3c-0.2-1.1-0.3-2.1-0.5-3.2c0,0,0.1,0.1,0.1,0.1c0.2,0.1,0.5-0.1,0.5-0.3h0
						c0.1,0.5,0.2,1.1,0.2,1.6c0.1,0.5,0.2,1.1,0.2,1.6h0c0,0.1,0,0.2-0.1,0.3C996.5,526.6,996.2,526.6,996.2,526.3L996.2,526.3z"/>
					<path class="st32" d="M994.9,522c0.1,0,0.3,0,0.3,0.1c0,0,0,0.1,0,0.1c0,0.1-0.2,0.2-0.3,0.2c-0.1,0-0.2,0-0.2-0.1
						C994.6,522.2,994.7,522.1,994.9,522C994.8,522,994.9,522,994.9,522z"/>
					<path class="st0" d="M994.9,525c-0.1,0.1-0.2,0.2-0.4,0.3L994.9,525z"/>
					<path class="st32" d="M995.1,525.5c0-0.2-0.1-0.4-0.1-0.6v0c-0.1-0.9-0.2-1.7-0.4-2.6l0,0c0,0.1,0.1,0.1,0.2,0.1
						c0.1,0,0.3-0.1,0.3-0.2l0.4,3.1c0,0.1-0.1,0.3-0.2,0.3C995.3,525.7,995.2,525.7,995.1,525.5L995.1,525.5z"/>
					<path class="st33" d="M968.8,534.2C968.8,534.2,968.8,534.2,968.8,534.2v-0.1c-0.7-0.8-1.5-1.6-2.2-2.3l0.3-0.3
						c3.5-2,7-4,10.4-6l0,0c0-0.2,0-0.5-0.1-0.7l0.3,0.1c0.2,0.1,0.3,0.2,0.5,0.3c0,0,0,0,0.1,0c2.8-1.8,5.7-3.5,8.6-5.2l0.1,0.2
						c2.6,2.1,5.2,4.3,7.9,6.4c0.6,0.5,1.2,1,1.8,1.4l0,0c-3.6,2.2-7,4.6-10.5,6.9c-0.6,0.4-1.3,0.8-1.9,1.2
						c-0.9,0.6-1.8,1.1-2.7,1.7c-1.8,1.1-3.6,2.3-5.5,3.4c-0.3,0.2-0.5,0.3-0.8,0.5h-0.3c-1-1-1.9-2-2.9-3c-0.9-0.9-1.9-1.8-2.8-2.8
						C968.9,535.3,968.9,534.8,968.8,534.2L968.8,534.2z"/>
					<path d="M997.2,527.1c0.1,0.1,0.3,0.1,0.4,0.1c0,0,0,0,0,0c0,0,0,0-0.1,0c-0.1,0.1-0.3,0.2-0.5,0.3l0.1,1.1c0,0,0,0,0,0
						l-0.9-0.7l0,0c-0.6-0.5-1.2-0.9-1.8-1.4l0-1.2c0,0,0,0,0,0v0c0.1-0.1,0.3-0.2,0.4-0.3l0.1-0.1c0,0.2,0.1,0.4,0.1,0.6l0,0.1
						c0.1,0.1,0.3,0.1,0.4,0.1c0.1-0.1,0.2-0.2,0.2-0.3l-0.4-3.1l0.6,0.7c-0.1,0-0.2,0.2-0.2,0.3c0.2,1.1,0.3,2.1,0.5,3.2l0,0
						c0,0.2,0.4,0.3,0.5,0.2c0.1-0.1,0.1-0.2,0.1-0.3h0c-0.1-0.5-0.2-1.1-0.2-1.6l0.1,0c0.1,0.1,0.2,0,0.3,0
						C997,525.4,997.1,526.3,997.2,527.1z"/>
					<path class="st31" d="M997.4,536.5c0.4,0.2,0.7,0.5,1,0.8c-0.9,0.7-1.9,1.3-2.9,1.9c-0.5,0.3-1,0.6-1.5,1
						c-2.1,1.4-4.3,2.8-6.4,4.2v0c-0.3-0.2-0.7-0.5-1.1-0.7l-0.1-0.1c1.7-1.2,3.4-2.3,5.1-3.4c1.9-1.2,3.8-2.4,5.7-3.6L997.4,536.5z
						"/>
					<path class="st31" d="M977.6,521.9c-0.3-0.2-0.6-0.4-1-0.6l0-0.1c3.4-2,6.8-4.1,10.2-6.2l0.1,0c0.3,0.2,0.6,0.5,1,0.7
						c0,0,0,0.1,0,0.1l-0.2,0C984.5,518.1,981,519.9,977.6,521.9L977.6,521.9z"/>
					<path class="st31" d="M987.5,544.4c0.2,1.3,0.4,2.6,0.5,3.9c-0.1,0-0.1,0.1-0.2,0.1l-0.1,0c-0.3-0.2-0.6-0.4-0.9-0.6l0,0
						c-0.2-1.1-0.3-2.3-0.5-3.4c0-0.2-0.1-0.4-0.1-0.6l0-0.1c0,0,0.1,0,0.1-0.1l0.1,0.1C986.9,543.9,987.2,544.1,987.5,544.4
						L987.5,544.4C987.6,544.3,987.6,544.3,987.5,544.4L987.5,544.4z"/>
					<path class="st0" d="M986.5,519.9c0.6-0.3,1.1-0.7,1.7-1l0.1-0.1c0-0.3-0.1-0.6-0.1-0.9l0.2,0c0.2-0.1,0.3-0.2,0.5-0.4l0,0
						c1.9,1.6,4,2.9,5.9,4.5l0.1,0.1c-0.1,0.1-0.2,0.2-0.2,0.3l0,0c0.1,0.9,0.2,1.7,0.4,2.6v0l-0.1,0.1l-0.4,0.3v0c0,0,0,0,0,0
						l0,1.2c-2.7-2.1-5.2-4.3-7.9-6.4L986.5,519.9z"/>
					<path d="M977.6,521.9c3.4-2,6.9-3.8,10.1-6l0.2,0c0.1,0.7,0.2,1.3,0.3,2c0,0.3,0.1,0.6,0.1,0.9l-0.1,0.1
						c-0.6,0.3-1.1,0.7-1.7,1c-2.9,1.7-5.8,3.4-8.6,5.2C977.8,524,977.6,523,977.6,521.9L977.6,521.9z"/>
					<path class="st2" d="M980.4,548.4c1.5-1,3.1-2,4.7-3l0.1,0c0.2,0.2,0.4,0.3,0.6,0.5l-0.1,0.1c-1.6,0.9-3.1,1.9-4.7,2.8
						C980.7,548.8,980.5,548.6,980.4,548.4L980.4,548.4z"/>
					<path class="st34" d="M984.8,544.9c-1.1-1-2.1-2-3.1-3l-0.2-0.1c0.2-0.1,0.3-0.2,0.5-0.3c0.1-0.1,0.3-0.2,0.4-0.2
						c1.1,1,2.3,2.3,2.3,2.3l1.1,0.9C985.4,544.6,985.1,544.8,984.8,544.9L984.8,544.9z"/>
					<path class="st32" d="M984.4,538.9c-0.4,0.3-0.8,0.5-1.2,0.8h0c-0.7-0.5-1.3-1.2-1.9-1.8l0-0.1c0.9-0.6,1.8-1.1,2.7-1.7
						c0.3,0.3,0.6,0.6,0.9,0.9c0.4,0.3,0.7,0.6,1,1c-0.3,0.2-0.7,0.4-1,0.6C984.7,538.7,984.6,538.8,984.4,538.9z"/>
					<path class="st27" d="M978.5,544.2c-0.1-0.1-0.2-0.2-0.4-0.3l0.1-0.1c0.9-0.6,1.8-1.1,2.7-1.7l0.1-0.1c0,0,0.1,0.1,0.2,0.1
						c0.9,0.9,1.9,1.8,2.7,2.8l0,0c-1.2,0.8-2.5,1.5-3.7,2.3l-0.2,0.1c-0.4-0.5-0.8-0.9-1.2-1.4l-0.1,0c-0.1-0.5-0.1-1.1-0.2-1.6
						h-0.2L978.5,544.2z"/>
					<path class="st0" d="M985.1,545.4c-1.6,0.9-3.2,1.9-4.7,3l0,0c0.2,0.2,0.4,0.4,0.6,0.6c1.5-1,3.1-1.9,4.7-2.8l0.1-0.1
						C985.5,545.8,985.3,545.7,985.1,545.4L985.1,545.4z M1001.9,540.9c-2.7,1.7-5.3,3.4-8,5.1c-3.3,2.1-6.6,4.1-10,6.1
						c-1,0.6-2,1.2-3,1.8c-2.5,1.5-5,3.2-7.5,4.6c-0.8-1-1.8-1.9-2.7-2.8c0.2-0.1,0.3-0.2,0.5-0.3c2.7-1.6,5.4-3.2,8.1-4.8l0,0
						c-0.2-1.5-0.4-3-0.6-4.5l0.1,0c0.4,0.5,0.8,0.9,1.2,1.4l0.2-0.1c1.2-0.8,2.5-1.6,3.7-2.3l0,0c-0.8-1-1.8-1.9-2.7-2.8l0.4-0.4
						l0.2,0.1c1,1,2.1,2,3.1,3l0,0.1c0.3-0.2,0.6-0.3,0.9-0.5l0.8-0.1c0.2,1.1,0.3,2.3,0.5,3.4l0,0c0.3,0.2,0.6,0.4,0.9,0.6l0.1,0
						c0.1,0,0.1-0.1,0.2-0.1c2.5-1.5,5-3.2,7.5-4.8c1.2-0.8,2.3-1.6,3.5-2.4l0,0c-0.1-0.9-0.1-1.8-0.3-2.8l0,0
						c0.1,0.6,0.1,1.1,0.2,1.7c0.3,0.2,0.6,0.5,1,0.6h0c0,0,0,0,0,0c2.8-1.6,5.6-3.3,8.3-5.1l0.1,0c0-0.3-0.1-0.5-0.1-0.8l0.1,0
						c0.5,0.3,1,0.6,1.3,1c-1,1.1-2.6,1.9-3.9,2.7C1004.6,539.2,1003.2,540.1,1001.9,540.9z"/>
					<path class="st34" d="M980,541.1L980,541.1c0.2,0.1,0.4,0.3,0.6,0.5l0,0.1c-1,0.6-1.9,1.1-2.9,1.8l-0.1,0.1
						c-0.2-0.2-0.4-0.4-0.7-0.6l0.1-0.1C978.1,542.2,979.1,541.6,980,541.1z"/>
					<path class="st0" d="M998.4,537.3c-0.3-0.3-0.7-0.5-1-0.8l-0.2,0.1c-1.9,1.2-3.8,2.4-5.7,3.6c-1.7,1.1-3.4,2.2-5.1,3.4
						c0,0-0.1,0-0.1,0.1l0,0.1c0,0.2,0.1,0.4,0.1,0.6l-0.8,0.1l-1.1-0.9c0,0-1.2-1.3-2.3-2.3c-0.1,0.1-0.3,0.2-0.4,0.2
						c-0.2,0.1-0.3,0.2-0.5,0.3l-0.4,0.4c0,0-0.1-0.1-0.2-0.1l-0.1,0.1c-0.9,0.6-1.8,1.1-2.7,1.7l-0.1,0.1c-0.1-0.1-0.2-0.2-0.4-0.3
						l0.1-0.1c0.9-0.6,1.9-1.2,2.9-1.8l0-0.1c-0.2-0.2-0.4-0.3-0.6-0.6l-0.1,0.1c-1,0.6-1.9,1.1-2.9,1.7l-0.1,0.1
						c-0.2-0.2-0.4-0.3-0.6-0.5l-0.7-1.2c1.8-1.1,3.7-2.3,5.5-3.4l0,0.1c0.6,0.6,1.2,1.3,1.9,1.8h0c0.4-0.3,0.8-0.5,1.2-0.8
						c0.1-0.1,0.3-0.2,0.4-0.3c0.3-0.2,0.7-0.4,1-0.6c-0.3-0.3-0.7-0.7-1-1c-0.3-0.3-0.6-0.6-0.9-0.9c0.6-0.4,1.3-0.8,1.9-1.2
						c3.5-2.2,6.9-4.7,10.5-6.9l0.9,0.7c0,0,0,0,0,0c0.2-0.1,2.5-1.8,2.5-1.8h0c0-0.2,0-0.5-0.1-0.7h0.1c0.8,0.5,1.4,1.2,2.1,1.7
						c1.4,1.1,2.7,2.2,4.1,3.3c-2.5,1.5-5,3.1-7.4,4.8c0,0,0,0,0,0l0,0.1c0.1,0.7,0.2,1.4,0.3,2.1l0,0c0-0.3-0.1-0.6-0.1-0.9
						L998.4,537.3C998.4,537.3,998.4,537.3,998.4,537.3z"/>
					<path d="M966.8,531.5l-0.3,0.3c-0.7-0.7-1.3-1.4-2-2.1l0.2-0.2c3.9-2.4,7.9-4.7,11.9-6.9l0.2-0.1l0.2,0.1
						c0.1,0.7,0.2,1.4,0.2,2.1c0,0.2,0,0.5,0.1,0.7l0,0C973.8,527.5,970.3,529.5,966.8,531.5z"/>
					<path class="st35" d="M976.3,542.5l0.2-0.1c0.2,0.2,0.4,0.3,0.6,0.5c0.2,0.2,0.5,0.4,0.7,0.6c0.1,0.1,0.2,0.2,0.4,0.3
						c0.1,0.1,0.2,0.2,0.4,0.3l-0.3,0.3c-3.5,2.3-7,4.5-10.4,6.8l-0.1,0c-0.7-0.7-1.4-1.4-2-2.1h0v0l0.1-0.1
						C969.2,546.8,972.8,544.7,976.3,542.5z"/>
					<path class="st31" d="M976.6,522.1c-0.1-0.3-0.1-0.6-0.1-0.8l0.1,0c0.3,0.2,0.7,0.3,1,0.6l0,0l0,0c0,1,0.2,2.1,0.3,3.1
						c0,0,0,0-0.1,0c-0.2-0.1-0.3-0.2-0.5-0.3l-0.3-0.1c-0.1-0.7-0.2-1.4-0.2-2.1l-0.2-0.1l0.2-0.1
						C976.8,522.3,976.7,522.2,976.6,522.1L976.6,522.1z"/>
					<path class="st26" d="M971.1,555.5c-0.2,0.1-0.3,0.2-0.5,0.3c-0.7,0.4-1.4,0.8-2.1,1.2l-0.1,0c0,0,0,0-0.1-0.1l0,0
						c-0.3-1.9-0.5-3.8-0.8-5.6l0-0.1l0.1,0c3.5-2.3,7-4.5,10.4-6.8h0.2c0.1,0.5,0.1,1.1,0.2,1.6c0.2,1.5,0.4,3,0.6,4.5l0,0
						C976.5,552.2,973.8,553.9,971.1,555.5z"/>
					<path class="st26" d="M967.6,551.3c0.3,1.9,0.5,3.8,0.8,5.6l0,0c-0.7-0.6-1.3-1.2-1.9-2l-0.1-0.1c-0.2-1.3-0.4-2.7-0.6-4
						c-0.1-0.6-0.2-1.2-0.2-1.7h0C966.3,549.8,967,550.5,967.6,551.3L967.6,551.3z"/>
					<path class="st0" d="M976.3,542.5c-3.5,2.2-7.1,4.4-10.7,6.6l-0.1,0.1v0c0.1,0.6,0.2,1.2,0.2,1.7c-0.7-0.7-1.4-1.5-2.1-2.2
						c-0.8-0.9-1.8-1.7-2.7-2.6l0,0c0.9-0.5,1.8-1,2.7-1.5c2-1.2,4-2.3,6-3.5l0,0c-0.2-1.7-0.5-3.4-0.7-5.1c0.9,0.9,1.8,1.8,2.8,2.8
						c1,1,2,2,2.9,3h0.3c0.3-0.2,0.5-0.3,0.8-0.5l0.7,1.2L976.3,542.5z"/>
					<path class="st31" d="M975.7,521.7c0.3,0.2,0.6,0.3,0.9,0.5c0.1,0.1,0.2,0.1,0.3,0.2l-0.2,0.1l-0.2,0.1
						c-4,2.2-7.9,4.5-11.9,6.9l-0.2,0.2c-0.3-0.3-0.5-0.6-0.8-0.8l0,0C967.7,526.5,971.7,524.1,975.7,521.7L975.7,521.7z"/>
					<path class="st35" d="M968.8,534.2C968.8,534.2,968.8,534.2,968.8,534.2c-3.9,2.5-8,4.7-11.9,7h0c0,0,0,0,0,0l-0.2-0.1
						c-1.5-1.7-3-3.4-4.5-5l-0.1,0c0-0.1,0-0.2,0-0.3l0,0c3.8-2.2,7.6-4.5,11.3-6.7l0.3-0.3c0,0,0,0,0.1,0.1
						c0.3,0.3,0.5,0.6,0.8,0.8c0.7,0.7,1.3,1.4,2,2.1c0.8,0.8,1.5,1.6,2.2,2.3L968.8,534.2z"/>
					<path class="st26" d="M969,535.8c0.2,1.7,0.5,3.4,0.7,5.1l0,0c-2,1.2-4,2.3-6,3.5c-0.9,0.5-1.8,1-2.7,1.5
						c-0.1,0-0.2,0.1-0.3,0.2c-0.5,0.3-1,0.5-1.5,0.8c-0.4,0.2-1.1,0.4-1.4,0.6l-0.2-0.1c0,0,0-0.1,0-0.1c-0.3-2.1-0.6-4.1-0.9-6.2
						h0c4-2.3,8-4.5,11.8-7l0,0.1C968.9,534.8,968.9,535.3,969,535.8z"/>
					<path class="st26" d="M956.9,541.2c0.3,2.1,0.6,4.1,0.9,6.2l-0.2,0c-1.5-1.5-3-3.1-4.4-4.6l0-0.1c-0.3-2.2-0.6-4.4-0.9-6.7
						l0.1,0c1.5,1.7,3,3.4,4.5,5L956.9,541.2C956.9,541.2,956.9,541.2,956.9,541.2z"/>
				</g>
				<g>
				</g>
			</g>
			<g id="XMLID_123_">
				<g>
					<path class="st36" d="M972.7,512c4.4-2.2,8.1-1.3,12.7-0.3c4.6,1,9.7,2.3,14.1,3.8c3,1,1.6,1,4,0c2.3-1,4.7-3.4,6.6-5.1
						c8.6-7.7,16.5-16.1,23.7-25.1c0.4-0.5,0.8-1.1,0.9-1.7c0.2-2-4.2-3.1-6.2-3.1l1-1c1.1-1,3.4-0.3,4.8,0.4
						c1.3,0.7,2.1,2.2,1.9,3.7c-0.1,1-0.6,1.8-1.2,2.7c-1.1,1.5-2.3,2.9-3.5,4.3c-6.4,7.3-12.8,14.6-19.2,21.9c-1.7,2-3.5,4-5.9,5.1
						c-4.1,1.9-6.5,0.3-10.8-1c-3.8-1.2-10.2-2.1-14-3.3c-1.2-0.4-2.4-0.7-3.7-0.6c-1.3,0.1-2.5,0.8-3.7,1.4
						c-9.9,5.6-19.6,11.7-28.9,18.3c0,0,3.9,3.5,4.4,3.8c1.2,0.7,6.8,4.3,5.8,6.5c0,0,0.2,1.1-1,1s-5.8-3.8-6.8-4.4
						c-2.5-1.7-4.7-3.9-6.4-6.4c-0.2-0.3-0.4-0.7-0.3-1c0.1-0.4,0.4-0.7,0.7-0.9C951.5,523.7,961.9,517.4,972.7,512z"/>
				</g>
				<g>
				</g>
			</g>
		</g>
		<g id="soldering_copy_3">
			<g id="XMLID_3_">
				<g>
					<path class="st37" d="M744.3,587.8c0-0.1,0-0.2,0-0.3c-0.1-1.2-0.2-2.5-0.4-3.8l0.1,0c1,0.2,2,0.3,3,0.5c0.2,0,0.3,0,0.4,0.2
						c0.1,0.1,0.1,0.2,0.2,0.3c0.3,0.9,0.6,2-0.1,2.7c-0.2,0.2-0.3,0.3-0.5,0.5c-0.1,0.1-0.1,0.1-0.2,0.2c-0.1,0-0.2,0-0.2,0
						c-0.6,0-1.2,0.1-1.8,0c-0.2,0-0.4,0-0.6,0C744.2,588.1,744.3,588,744.3,587.8z"/>
					<path class="st37" d="M745.8,575.9c0.6,1.1,0.3,2-0.1,3.2c-0.7,0.3-1.4,0.5-2.1,0.7l-0.1,0c-0.2-1.7-0.3-3.3-0.5-5h0
						c0.6-0.1,1-0.4,1.6,0C745.2,574.9,745.5,575.4,745.8,575.9z"/>
					<path class="st36" d="M744.1,588.2c-0.4,0.9-0.7,1.8-1.1,2.7c-0.5,1.3-1.1,2.7-2,3.7c-2.8,1-6,1.1-9,1.5
						c-3.1,0.5-6.3,1-9.4,1.7c-2.2,0.4-4.4,0.9-6.6,1.1c-1.8,0.2-3.5,0.6-5.3,0.9c-4.5,0.8-9,1.4-13.5,2c-0.6,0.1-1.3,0.2-1.9,0
						c-0.7-0.2-1.2-0.6-1.7-1c-2.7-1.9-5.3-3.9-8-5.8c-1.7-1.2-3.4-2.5-4.9-3.9l-0.1-0.1c-0.5-2.2-1.1-4.4-1.6-6.6l0.1,0
						c2.2,1.8,4.5,3.6,6.9,5.3c1.4,1.1,3.2,2.2,4.3,3.6c1,1.2,2.1,1.9,3.7,2.2c0.2,0,0.3,0.1,0.5,0.1c1.6,0.2,3.2-0.1,4.7-0.4
						c7.1-1.2,14.2-2.4,21.3-3.8c7.1-1.3,14.2-2.6,21.4-3.6c0.8-0.1,1.5-0.2,2.3-0.3c0,0.1,0,0.2,0,0.3
						C744.3,588,744.2,588.1,744.1,588.2z"/>
					<path class="st38" d="M743.9,583.8c0.1,1.3,0.2,2.5,0.4,3.8c-0.8,0.1-1.5,0.2-2.3,0.3c-7.2,1.1-14.3,2.3-21.4,3.6
						c-7.1,1.3-14.2,2.6-21.3,3.8c-1.6,0.3-3.2,0.5-4.7,0.4c-0.2,0-0.3,0-0.5-0.1l0-0.2c1.5-4.4,2.9-8.8,4.4-13.1h0c0,0,0,0,0.1,0
						c3.4-1,6.9-1.9,10.3-2.9c1.9-0.5,3.6-1.3,5.5-1.9c4.4-1.3,8.9-2.5,13.3-3.8c4.4-1.3,8.9-2.7,13.2-4.3c0.4-0.1,0.9-0.3,1.2-0.5
						c0,0,0,0,0,0l0.1,0.1c0.3,1.3,0.4,2.7,0.5,4c0.1,0.6,0.1,1.2,0.2,1.8c0.2,1.7,0.3,3.4,0.5,5
						C743.6,581.1,743.8,582.4,743.9,583.8z"/>
					<path class="st36" d="M730.8,563.8c3.8,1.5,7.5,3.1,11.2,4.8l0.1,0.2c-0.4,0.2-0.8,0.4-1.2,0.5c-4.3,1.6-8.8,3-13.2,4.3
						c-4.4,1.3-8.9,2.5-13.3,3.8c-1.9,0.6-3.6,1.3-5.5,1.9c-3.4,1-6.9,1.9-10.3,2.9l0-0.2c-2.5-1.6-4.9-3.3-7.3-5
						c-1.1-0.8-2.2-1.5-3.2-2.3c-0.5-0.4-1.1-0.8-1.6-1.2c-0.5-0.4-1-0.8-1.5-1.1c0-0.1,0-0.1,0.1-0.2l0.2,0
						c0.4-0.2,0.9-0.2,1.3-0.3c0.5-0.1,0.9-0.3,1.4-0.4c2.9-0.8,5.8-1.6,8.6-2.4c2.9-0.8,5.8-1.6,8.6-2.4c2.9-0.8,5.8-1.6,8.6-2.4
						c3.5-1,7-2,10.5-3l0.1-0.1c1.3,0.5,2.6,1,3.9,1.5C729.1,563.1,729.9,563.5,730.8,563.8z M707,567.8c1,0.6,2,1.2,3.1,1.8
						c0.4,0.2,0.8,0.5,1.2,0.7c2.8,1.7,5.6,3.2,8.5,4.5l0.1,0c2-0.6,4-1.2,5.9-1.7c0.7-0.2,1.4-0.4,2.1-0.6c2.2-0.7,4.3-1.6,6.4-2.5
						l0.1-0.1c-0.5-0.3-1-0.5-1.6-0.8c-0.4-0.2-0.8-0.4-1.2-0.6c-2.1-1-4.1-2-6.2-3l-0.2,0c0-0.1,0-0.2,0-0.3c0-0.3-0.1-0.6-0.1-0.9
						l-0.1,0c0,0,0,0,0-0.1c0-0.2-0.2-0.4-0.4-0.5c-0.2-0.1-0.4-0.1-0.6-0.2c-0.8-0.1-1.7-0.1-2.5,0.1l0,0c-0.2-0.1-0.5-0.3-0.7-0.4
						l-0.1,0.1C716.2,564.8,711.6,566.3,707,567.8L707,567.8z M690,571.9L690,571.9c-0.1,0.1-0.1,0.1-0.1,0.2h0
						c-0.8,0.4-1.8,0.5-2.7,0.8l0,0.1c0.3,0.2,0.7,0.4,1,0.7c1.1,0.9,2.3,1.7,3.5,2.6c1.2,0.9,2.5,1.8,3.8,2.6
						c0.6,0.4,1.3,0.8,2,1.2c0.5,0.3,1,0.8,1.6,1l0.1-0.1c2.4-0.6,4.8-1.3,7.1-1.9c3-0.8,5.9-1.6,8.8-2.6v0
						c-0.8-0.7-1.8-1.2-2.7-1.8l-0.3-0.2c0-0.1,0-0.2-0.1-0.2c-0.6-0.6-1.6-1-2.3-1.4c-0.8-0.5-1.7-0.9-2.5-1.4
						c-1.7-0.9-3.3-1.8-5-2.7l-0.1,0.2C698.1,569.9,694.1,570.9,690,571.9L690,571.9C690,571.9,690,571.9,690,571.9z"/>
					<path class="st37" d="M739,545.3c0,0.1-0.1,0.2-0.1,0.3c-1.6,3.3-3.3,6.5-5.1,9.6l-0.2-0.1c-0.9-0.4-1.9-0.8-2.8-1.2
						c-0.4-0.2-0.9-0.4-1.3-0.6c-2-0.9-4-1.8-5.9-2.7c-2.4-1.2-4.7-2.6-7-3.9c-0.8-0.5-1.5-0.9-2.3-1.3c-1.6-1-3.2-1.9-4.9-2.6
						c0,0,0,0,0,0l0,0c2.1-3.5,3.7-7.3,4.7-11.2c0-0.2,0.1-0.4,0.1-0.6c-0.1-0.4-0.5-0.7-0.9-0.9l0,0c0.6,0.3,1.3,0.6,2,0.9
						c0.4,0.2,1,0.4,1.2,0.8c0.2,0.5,0.1,1.3,0,1.8c-0.1,0.4-0.1,0.8-0.2,1.1c-0.1,0.2-0.2,0.6-0.2,0.8c0,0.6,0.9,0.8,1.4,1
						c0.1,0,0.1,0,0.1,0c0,0,0.1-0.1,0.1-0.1c0.3-1,0.7-2.1,1-3.1c0-0.1,0.1-0.2,0.2-0.3c0.2-0.2,0.5-0.1,0.8,0
						c0.3,0.1,0.6,0.2,0.9,0.4c0.2,0.1,0.4,0.2,0.5,0.4c0.1,0.1,0.1,0.3,0.1,0.5c-0.1,1-0.6,1.9-0.7,2.9c0,0,0,0.1,0,0.1
						c0,0,0.1,0.1,0.1,0.1c0.3,0.2,0.6,0.3,1,0.5c0,0,0.1,0,0.1,0c0,0,0,0,0-0.1c0.3-0.8,0.6-1.7,0.9-2.5c0.1-0.2,0.2-0.4,0.3-0.5
						c0.5-0.3,1.3,0.3,1.7,0.6c0.1,0.1,0.3,0.2,0.3,0.3c0.1,0.2,0,0.4,0,0.5c-0.3,0.8-0.6,1.6-0.8,2.5c0.3,0.2,0.6,0.4,0.9,0.5
						c0.5,0.2,0.6,0.2,0.8-0.2c0.3-0.7,0.4-1.5,0.8-2.2c0.4-0.7,1.4-0.1,1.9,0.2c0.1,0.1,0.2,0.1,0.3,0.2c0.1,0.2,0,0.4,0,0.6
						c-0.3,0.9-0.6,1.8-0.8,2.8c0.2,0.1,0.7,0.3,0.9,0.3c0.3,0,0.3-0.3,0.4-0.7c0.2-0.7,0.5-1.3,0.7-2c0-0.1,0.1-0.2,0.2-0.3
						c0.1-0.1,0.3,0,0.4,0c0.4,0.2,0.9,0.4,1.3,0.7c0.4,0.2,0.2,0.7,0.1,1.1c-0.2,0.6-0.4,1.3-0.6,1.9c0.1-0.1,0.7,0.4,0.9,0.3
						c0.3-0.1,0.4-0.6,0.5-0.8c0.2-0.4,0.3-0.9,0.5-1.3c0.1-0.2,0.2-0.3,0.3-0.4c0.1,0,0.2,0,0.3,0c0.4,0.1,0.8,0.3,1.1,0.4
						c0.2,0.1,0.5,0.2,0.5,0.5c0,0.1,0,0.2,0,0.4c-0.3,0.8-0.7,1.6-1,2.4c0.2,0.2,0.6,0.5,0.9,0.5c0.4,0,0.3-0.3,0.5-0.6
						c0.3-0.7,0.6-1.3,1-1.9c0.9,0.2,1.9,0.5,2.3,1.4c0.2,0.4,0.2,0.9,0.2,1.4c0,0.6-0.1,1.2-0.3,1.8L739,545.3z"/>
					<path class="st39" d="M728.2,569.3c0.8,0,1.5-0.2,2.3-0.2l0-0.1c-0.4-0.5-1-0.8-1.6-1c-0.6-0.2-1.2-0.3-1.8-0.3v0
						c-0.3,0.2-0.5,0.5-0.7,0.8l0,0.1c0.3,0,0.7,0.1,1,0.2C727.7,568.8,728,569,728.2,569.3z M730.8,569.5c-0.5,0-1,0.1-1.4,0.1
						c-0.3,0-0.7,0.1-1,0.2l0,0c-0.1,0.3-0.3,0.6-0.6,0.8c-0.3,0.2-0.6,0.3-0.9,0.4c-0.1,0-0.2,0.1-0.4,0.1l0,0.1
						c0.5,0.2,0.9,0.5,1.4,0.6c0.2,0,0.4-0.1,0.6-0.2c0.3-0.2,0.6-0.3,1-0.5c0.2-0.1,0.4-0.2,0.6-0.4
						C730.4,570.5,730.7,570.1,730.8,569.5L730.8,569.5z M720.5,564.1L720.5,564.1c0,0.1,0,0.1-0.1,0.1c-0.1,0.1-0.2,0.2-0.2,0.4
						l0,0c0,1.2,0,2.5,0,3.7l-0.2,0.1c-0.6,0.3-1.2,0.7-1.7,1.2c-0.5,0.5-0.8,1.1-0.9,1.8l0.1,0c0.2,0.1,0.3,0.1,0.5,0.2l0,0
						c0.1-0.5,0.4-1,0.8-1.4c0.4-0.4,0.9-0.6,1.3-0.9h0.1c0,0,0,0.1,0,0.1l0,0.1c0.3,0.3,0.8,0.4,1.2,0.5c0.7,0.1,1.5,0.2,2.2,0.1
						c0.7-0.1,1.5-0.4,2-0.9v0c0-0.3-0.1-0.7-0.1-1h0c0.1,0,0.2,0,0.3,0l0-0.1c0.1-0.2,0.3-0.4,0.5-0.5l0,0
						c-0.2-0.1-0.5-0.1-0.7-0.1h-0.2c-0.1-0.6-0.2-1.1-0.2-1.7c0-0.1,0-0.2,0-0.4l0.2,0c2.1,1,4.1,2,6.2,3c0.4,0.2,0.8,0.4,1.2,0.6
						c0.5,0.3,1.1,0.5,1.6,0.8l-0.1,0.1c-2.1,0.9-4.2,1.8-6.4,2.5c-0.7,0.2-1.4,0.4-2.1,0.6c-2,0.6-4,1.1-5.9,1.7l-0.1,0
						c-3-1.3-5.8-2.8-8.5-4.5c-0.4-0.2-0.8-0.5-1.2-0.7c-1-0.6-2.1-1.2-3.1-1.8l0,0c4.6-1.4,9.1-2.9,13.6-4.5l0.1-0.1
						c0.2,0.1,0.5,0.3,0.7,0.4l0,0C721.1,563.7,720.8,563.9,720.5,564.1z M720.8,573.1c2,0.1,4-0.3,5.8-1l0.1-0.1
						c-0.4-0.3-0.8-0.5-1.3-0.7c-1.1,0.4-2.4,0.6-3.6,0.5l0,0.1C721.5,572.3,721.2,572.7,720.8,573.1L720.8,573.1z"/>
					<path class="st31" d="M719.8,549.1c-1.5-1-3.2-1.8-4.8-2.6c-1.8-0.9-3.5-1.8-5.3-2.6c-0.7-0.3-1.5-0.6-2.1-1.1
						c-0.1-0.1-0.2-0.2-0.3-0.2c-0.1-0.1-0.3-0.1-0.4-0.2c-0.8-0.2-1.5-0.6-2.2-1l0,0c0.3,0.2,0.7,0.3,1.1,0.3
						c1,0.2,1.9,0.6,2.9,0.9c0.2,0.1,0.5,0.2,0.7,0.2c1.7,0.7,3.3,1.7,4.9,2.6c0.8,0.5,1.5,0.9,2.3,1.3c2.3,1.4,4.6,2.8,7,3.9
						c2,0.9,3.9,1.8,5.9,2.7l0,0.1c0.5,0.5,0.9,1.1,1.1,1.7c0.3,0.8,0.2,1.7,0.2,2.5c0,2.1,0,4.1-0.1,6.2c-0.8-0.3-1.6-0.7-2.5-1
						l0.1-0.3c0.1-2.6,0-5.3-0.3-7.9c0-0.3-0.1-0.6-0.2-0.9c-0.2-0.2-0.5-0.4-0.7-0.5c-2.5-1.2-5.1-2.3-7.8-3.2
						C719.5,549.6,719.6,549.3,719.8,549.1z"/>
					<path class="st40" d="M730.8,569.5L730.8,569.5c-0.1,0.6-0.3,1-0.8,1.3c-0.2,0.2-0.4,0.2-0.6,0.4c-0.3,0.2-0.6,0.3-1,0.5
						c-0.2,0.1-0.4,0.2-0.6,0.2c-0.5-0.2-1-0.4-1.4-0.6l0-0.1c0.1,0,0.3,0,0.4-0.1c0.3-0.1,0.6-0.2,0.9-0.4c0.3-0.2,0.5-0.5,0.6-0.8
						l0,0c0.3-0.1,0.7-0.1,1-0.2C729.8,569.6,730.3,569.6,730.8,569.5z"/>
					<path class="st40" d="M730.5,569L730.5,569c-0.8,0.1-1.5,0.4-2.2,0.3c-0.2-0.3-0.5-0.5-0.8-0.6c-0.3-0.1-0.7-0.2-1-0.2l0-0.1
						c0.2-0.3,0.5-0.5,0.7-0.8v0c0.6,0.1,1.2,0.1,1.8,0.3C729.5,568.2,730.1,568.5,730.5,569z"/>
					<path class="st40" d="M726.8,572.1L726.8,572.1c-2,0.8-4,1.1-5.9,1v0c0.3-0.4,0.7-0.8,1-1.2l0-0.1c1.2,0.2,2.4,0,3.6-0.5
						C725.9,571.6,726.3,571.8,726.8,572.1z"/>
					<path class="st40" d="M726.4,567.6L726.4,567.6c-0.1,0.2-0.3,0.4-0.4,0.6l0,0.1c-0.1,0-0.2,0-0.3,0h0c0-0.2-0.1-0.5-0.1-0.8
						h0.2C725.9,567.5,726.2,567.5,726.4,567.6z"/>
					<path class="st37" d="M725.7,569.3L725.7,569.3c-0.6,0.5-1.3,0.8-2,0.9c-0.7,0.1-1.5,0-2.2-0.1c-0.5-0.1-0.9-0.2-1.2-0.5l0-0.1
						c0,0,0-0.1,0-0.1c0-0.3,0-0.7,0-1c0-1.2,0-2.5,0-3.7l0,0c0-0.1,0.1-0.3,0.2-0.4l0.1,0c0.6-0.1,1.3-0.2,1.9-0.1
						c-0.5,0.2-1.1,0.4-1.6,0.6l-0.2,0.1c0.7,0.4,1.5,0.4,2.3,0.3c0.8-0.1,1.4-0.2,1.9-0.8c0,0,0-0.1,0.1-0.1c0,0,0,0,0,0l0.1,0
						c0,0.3,0.1,0.6,0.1,0.9c0,0.1,0,0.2,0,0.3c0,0.1,0,0.2,0,0.4c0.1,0.6,0.2,1.1,0.2,1.7c0,0.2,0.1,0.5,0.1,0.8
						C725.6,568.6,725.7,568.9,725.7,569.3z"/>
					<path class="st40" d="M725,564.2C725,564.2,725,564.2,725,564.2c0,0.1,0,0.1-0.1,0.1c-0.5,0.6-1.2,0.6-1.9,0.8
						c-0.8,0.1-1.6,0.1-2.3-0.3l0.2-0.1c0.5-0.1,1.1-0.3,1.6-0.6c-0.6-0.1-1.3,0-1.9,0.1l-0.1,0c0,0,0.1-0.1,0.1-0.1l0,0
						c0.3-0.2,0.7-0.4,1-0.5c0.8-0.2,1.7-0.2,2.5-0.1c0.2,0,0.4,0.1,0.6,0.2C724.7,563.8,724.9,563.9,725,564.2
						C725,564.1,725,564.2,725,564.2z"/>
					<path class="st41" d="M720.2,568.3c0,0.3,0,0.7,0,1h-0.1c-0.5,0.3-0.9,0.5-1.3,0.9c-0.4,0.4-0.7,0.8-0.8,1.4l0,0
						c-0.2-0.1-0.3-0.2-0.5-0.2l-0.1,0c0-0.7,0.4-1.3,0.9-1.8c0.5-0.5,1.1-0.8,1.7-1.2L720.2,568.3z"/>
					<path class="st42" d="M699.2,580.3c4.5-1.2,9-2.4,13.4-3.6l0.1-0.2c-0.2-0.7-0.4-1.4-0.6-2.1l0.3,0.2c0.9,0.6,1.9,1.1,2.7,1.8
						v0c-2.9,1-5.9,1.8-8.8,2.6c-2.4,0.6-4.8,1.3-7.1,1.9L699,581c-0.5-0.3-1-0.7-1.6-1c-0.7-0.4-1.3-0.8-2-1.2
						c-1.3-0.8-2.6-1.7-3.8-2.6c-1.2-0.9-2.3-1.7-3.5-2.6c-0.3-0.2-0.6-0.5-1-0.7l0-0.1c0.9-0.2,1.8-0.4,2.7-0.8h0
						c0,0.7-0.1,1.5,0,2.1c1.7,0.9,3,2.3,4.6,3.3c1.5,0.9,2.9,1.9,4.4,2.8L699.2,580.3C699.2,580.3,699.2,580.3,699.2,580.3z"/>
					<path d="M712,530L712,530c-0.3-0.3-0.6-0.6-0.8-0.9c0.8,0.2,1.5,0.5,2.2,0.8c0.4,0.2,0.8,0.5,0.9,0.9c0,0.2,0,0.4-0.1,0.6
						c-1,3.9-2.6,7.8-4.7,11.2l0,0c0,0,0,0,0,0c-0.3,0-0.5-0.1-0.7-0.2c-1-0.3-1.9-0.7-2.9-0.9c-0.4-0.1-0.7-0.2-1.1-0.3l0,0
						c-0.1-0.1-0.2-0.1-0.3-0.2v0c1.1,0.1,2.1,0.2,3.2,0.4c3.3-1.2,5.3-5.3,5.1-8.7c0-0.5-0.1-1-0.2-1.4
						C712.4,530.9,712.1,530.5,712,530z"/>
					<path class="st43" d="M711.2,529.1c0.3,0.3,0.6,0.6,0.8,0.9l0,0c0.1,0.5,0.4,0.9,0.5,1.4c0.1,0.5,0.1,1,0.2,1.4
						c0.2,3.4-1.7,7.5-5.1,8.7c-1.1-0.2-2.1-0.3-3.2-0.4c-0.5-0.1-0.9-0.1-1.3-0.1c1.2-0.7,2.4-1.6,3.4-2.6c1.3-1.4,2.3-3.2,2.9-5
						c0.3-1,0.5-2,0.6-3c0-0.5,0.2-1.8,0-2.4c0.1,0.1,0.3,0.2,0.4,0.3C710.6,528.6,710.9,528.8,711.2,529.1z"/>
					<path class="st44" d="M712.7,576.5l-0.1,0.2c-4.5,1.2-9,2.4-13.4,3.6c0-0.8,0.1-1.5,0.1-2.3l0.1-0.2c4.2-1.1,8.3-2.2,12.5-3.3
						l0.2-0.1l0,0C712.2,575.1,712.5,575.8,712.7,576.5z"/>
					<path class="st45" d="M712,574.2c0,0.1,0,0.2,0.1,0.2l0,0l-0.2,0.1c-4.2,1.1-8.3,2.2-12.5,3.3l0-0.1c-1.7-0.9-3.4-1.9-5-3
						c-1.4-0.9-2.8-1.9-4.2-2.8l0,0c4-1,8-2,12-3l0.1-0.2c1.7,0.9,3.4,1.8,5,2.7c0.8,0.5,1.7,0.9,2.5,1.4
						C710.4,573.2,711.4,573.6,712,574.2z"/>
					<path class="st46" d="M709.9,527.9c0.2,0.7,0,1.9,0,2.4c-0.1,1-0.3,2-0.6,3c-0.6,1.9-1.6,3.6-2.9,5c-1,1.1-2.1,2-3.4,2.6
						c-0.1,0-0.2,0-0.2,0c-1.6-0.8-3.3-1.6-4.9-2.5l0-0.1c1.3,0.2,2.7-0.4,3.8-1.2c1.1-0.8,1.8-2,2.5-3.2c0.7-1.4,0.9-3,1.3-4.5
						c0.4-1.5-0.2-2.7-1-4c0.5,0.1,1,0.3,1.5,0.5c1.2,0.5,2.7,1,3.8,1.8C709.9,527.9,709.9,527.9,709.9,527.9z"/>
					<path d="M701.7,526.2c0.7-0.6,1.9-0.8,2.8-0.7c0,0,0,0,0,0c0.8,1.3,1.4,2.5,1,4c-0.4,1.5-0.6,3.1-1.3,4.5
						c-0.6,1.2-1.4,2.3-2.5,3.2c-1.1,0.8-2.4,1.4-3.8,1.2l-0.1-0.1c-0.7-0.7-1.1-1.8-1-2.8v-0.1c0.9,0.1,1.7-0.5,2.4-1
						c0.5-0.4,1-0.7,1.4-1.2c1.7-1.8,2.4-4.6,1.4-6.9l-0.4-0.1C701.6,526.2,701.7,526.2,701.7,526.2z"/>
					<path class="st47" d="M684.8,528.3c1.1-0.2,2-0.9,2.5-1.9c0.2-0.3,0.3-0.7,0.5-1.1c0.3-0.7,0.5-1.4,0.6-2.2
						c0.1-0.7,0-1.4-0.2-2c0,0,0-0.1-0.1-0.1c0.5-0.4,1.7-0.3,2.3-0.1c0.3,0.1,0.6,0.2,0.9,0.4c1.8,0.9,3.6,1.7,5.5,2.6
						c1,0.5,1.9,0.9,2.9,1.3c0.7,0.3,1.4,0.7,2.1,1.1c0,0-0.1,0.1-0.1,0.1l0.4,0.1c1,2.3,0.3,5.1-1.4,6.9c-0.4,0.4-0.9,0.8-1.4,1.2
						c-0.7,0.5-1.5,1.1-2.4,1l0,0c-2.1-1.1-4.2-2.1-6.2-3.2c-1-0.5-2-1.1-3.1-1.7c-0.5-0.3-1-0.6-1.5-0.9c-0.4-0.3-1.3-0.6-1.2-1.2
						L684.8,528.3C684.8,528.3,684.8,528.3,684.8,528.3z"/>
					<path class="st44" d="M699.3,577.7L699.3,577.7l-0.1,0.3c0,0.8,0,1.5-0.1,2.3c0,0,0,0,0,0l-0.2,0c-1.5-0.9-3-1.8-4.4-2.8
						c-1.6-1-2.9-2.4-4.6-3.3c-0.1-0.7,0-1.4,0-2.1c0,0,0,0,0-0.1l0.1-0.1c0,0,0,0,0,0c1.5,0.9,2.8,1.9,4.2,2.8
						C695.9,575.8,697.6,576.7,699.3,577.7z"/>
					<path class="st38" d="M683.2,576.6c0.2-0.5,0.5-1.1,0.7-1.6h0c0.3-0.8,0.6-1.6,1-2.4c0.5,0.3,1,0.7,1.5,1.1
						c0.5,0.4,1.1,0.8,1.6,1.2c1.1,0.8,2.2,1.5,3.2,2.3c2.4,1.7,4.9,3.4,7.3,5l0,0.2c0,0,0,0-0.1,0h0c-1.5,4.4-2.9,8.8-4.4,13.1
						l0,0.2c-1.5-0.2-2.7-1-3.7-2.2c-1.2-1.4-2.9-2.6-4.3-3.6c-2.3-1.7-4.6-3.5-6.9-5.3l-0.1,0c0,0,0-0.1,0-0.2l0.4-0.3
						C680.9,581.6,682.1,579.2,683.2,576.6z"/>
					<path class="st38" d="M688.2,521.1c0.3,0.6,0.3,1.4,0.2,2c-0.1,0.8-0.3,1.5-0.6,2.2c-0.1,0.4-0.3,0.8-0.5,1.1
						c-0.5,0.9-1.5,1.6-2.5,1.9c-0.4-0.1-0.7-0.4-1.1-0.6c-0.2-0.1-0.5-0.2-0.7-0.4l0,0c1.5-0.7,2.7-1.9,3.4-3.4
						c0.3-0.7,0.4-1.4,0.6-2.1c0-0.1,0-0.1,0-0.2c0,0,0,0-0.1-0.1c-0.4-0.2-0.9-0.5-1.3-0.7c-0.5-0.2-1-0.5-1.6-0.6
						c-0.7-0.2-0.8-0.4-1,0.2c-0.3,0.9-0.5,1.8-1,2.6c-0.5,0.9-1.4,1.7-2.4,2.1l-0.1,0.3c-1.7-0.9-3.4-1.9-5.1-2.8
						c-4.2-2.3-8.5-4.8-12.7-7.2c2-0.5,3.1-2.7,2.9-4.7l0,0c4.2,2.1,8.6,3.9,12.9,5.7c1.8,0.7,3.6,1.5,5.4,2.3
						C684.8,519.4,686.5,520.3,688.2,521.1z"/>
					<path class="st48" d="M687.1,521.6c0,0,0,0.1,0,0.2c-0.2,0.7-0.3,1.4-0.6,2.1c-0.7,1.5-1.9,2.8-3.4,3.4l0,0
						c-0.2-0.1-0.4-0.2-0.6-0.3c-0.9-0.5-1.8-1-2.7-1.5c0,0-0.1-0.1-0.2-0.1l0.1-0.3c1-0.4,1.8-1.2,2.4-2.1c0.5-0.9,0.7-1.7,1-2.6
						c0.2-0.6,0.3-0.4,1-0.2c0.5,0.2,1.1,0.4,1.6,0.6C686.1,521.1,686.5,521.3,687.1,521.6C687,521.6,687.1,521.6,687.1,521.6z"/>
					<path class="st49" d="M683.9,575c-0.2,0.5-0.5,1.1-0.7,1.6c-4.8-0.6-8.6-4.5-13.2-5.7c-1.8-0.5-3.6-0.5-5.4-0.4
						c-5.6,0.2-11.1,1.7-16.3,3.8l-0.2,0.2c-0.5-0.6-0.9-1.2-1.3-1.9c5.2-2.6,11-4.1,16.9-4.4c2.4-0.1,4.9-0.1,7.3,0.4
						C675.6,569.7,679.8,572.3,683.9,575z"/>
					<path class="st31" d="M669.6,589.5c0.7,1.2,1.2,2.8,0.5,4c-0.3,0.7-0.9,1.1-1.5,1.6c-5.4,3.8-13,5.2-19.4,4.2
						c-2.2-0.3-4.4-0.7-6.6-1.2c-1.4-0.3-2.8-0.6-3.9-1.4c-1.1-0.7-1.9-1.6-2.7-2.5c-1.3-1.5-2.7-3-3.5-4.8
						c-2.1-4.5,0.7-9.3,4.5-11.7c-1.2,1.2-2.1,2.7-2.5,4.3c-0.2,0.8-0.3,1.6-0.3,2.4c0,2.2,0.7,4.5,2.1,6.2c1.5,1.9,3.7,3.1,6,4
						c4.3,1.6,9,1.7,13.5,1.3c3.5-0.4,7.1-1.1,10.1-3c0.7-0.5,1.5-1.1,1.5-2c0-0.6-0.4-1.2-0.8-1.6c-2.5-2.8-5.6-5-9.1-6.4l0.7-1.8
						c0.4,0.2,0.8,0.3,1.2,0.5C663.2,583.6,667.4,585.7,669.6,589.5z"/>
					<path class="st37" d="M664.7,510.7c0.3,2-0.9,4.2-2.9,4.7c-0.1-0.1-0.2-0.1-0.3-0.2l-0.1,0.1c-0.5-0.3-0.8-0.9-0.9-1.5
						c0-0.2-0.1-0.5-0.3-0.6c-0.2-0.1-0.5,0.2-0.7,0.1c-0.1-0.1-0.2-0.2-0.3-0.3c-0.3-0.3-0.8,0-1.1,0.3c-0.3,0.3-0.7,0.7-1.1,0.5
						c-0.2-0.1-0.2-0.3-0.4-0.4c-0.3-0.2-0.7,0.2-0.9,0.6c-0.1,0.4-0.2,0.9-0.6,1c-0.4,0.1-0.9-0.2-1.2,0c-0.4,0.3-0.1,1.3-0.6,1.4
						c-0.3,0-0.5-0.3-0.8-0.3c-0.4,0.1-0.2,0.7-0.4,1c-0.2,0.4-0.7,0.5-1.1,0.3c-0.4-0.2-0.7-0.6-0.9-0.9c-0.3-0.5-0.6-0.9-0.9-1.3
						c0,0,0,0,0,0c-0.3-0.4-0.5-0.8-0.6-1.3c-0.1-0.5,0.2-1,0.6-1.1c0.4-0.1,0.8,0.1,1.2,0c0.8-0.3,0.5-1.8,1.3-1.9
						c0.5-0.1,0.9,0.5,1.3,0.3c0.5-0.2,0.3-1,0.8-1.3c0.5-0.3,1.2,0.5,1.7,0.1c0.1-0.1,0.2-0.3,0.3-0.4c0.4-0.5,1.2-0.6,1.6-0.2
						c0.1,0.1,0.2,0.2,0.4,0.3c0.5,0.2,1-0.6,1.5-0.5c0.6,0.1,0.6,1.1,1.2,1.3c0.3,0.1,0.6-0.1,0.9-0.2c0.9-0.4,2-0.2,2.7,0.5
						l0.3-0.1C664.6,510.6,664.6,510.6,664.7,510.7L664.7,510.7z"/>
					<path class="st31" d="M646.6,572.6c0.4,0.6,0.9,1.3,1.3,1.9c0.9,1.1,1.8,2.1,2.9,3c2,1.8,4.7,2.6,7.2,3.7l-0.7,1.8
						c-3.6-1.5-7.2-2.2-10.4-4.6c-1-0.8-2-1.6-2.8-2.6c-0.4-0.5-0.8-1-1.2-1.5c-1.2-1.7-2.1-3.5-2.8-5.3c-1.1-2.9-1.7-6.1-1.7-9.2
						c0-3,0.4-5.9,0.8-8.9c0.2-1.1,0.3-2.3,0.5-3.4l2.2,0.3c-0.3,2.5-0.5,5-0.5,7.5c0.1,5.5,1.4,11.2,4.2,16
						C646,571.6,646.3,572.1,646.6,572.6z"/>
					<path class="st31" d="M651,517.5l0,0.3c-1.3,3.4-2.5,6.8-3.7,10.3c-2.2,6.4-4.4,12.9-5.3,19.5l-2.2-0.3
						c0.2-1.2,0.3-2.3,0.5-3.5c0.4-2.6,0.7-5.2,1.3-7.7c1.6-7.2,4.5-14,7.5-20.8l0.1-0.1c0.3,0.5,0.6,0.9,0.9,1.3
						C650.4,517,650.6,517.3,651,517.5z"/>
					<path class="st49" d="M636.9,577.7c1-1,2.1-1.7,3.3-2.2l0,0c0.9-0.4,1.7-0.7,2.6-1.1l0.2-0.1c0.4,0.5,0.8,1,1.2,1.5l-0.1,0.1
						c-1.4,0.5-2.6,1.4-3.8,2.2c-2.5,1.7-5,3.6-6,6.4h-0.1c0-0.8,0.1-1.6,0.3-2.4C634.8,580.4,635.7,578.9,636.9,577.7z"/>
				</g>
				<g>
				</g>
			</g>
		</g>
		<g id="seabirds_copy_3">
			<g id="XMLID_121_">
				<g>
					<path class="st11" d="M612.2,115c-1.7,14.4-4,30.3-15,39.9c-7.2,6.3-16.9,8.8-24.4,14.7c-4.8,3.7-8.5,8.7-10.7,14.4
						c-2.8-9.1-13.5-13.3-23.1-13.3c-9.5,0-18.9,2.8-28.4,2c-14.9-1.2-28.6-11.9-33.3-26.1l1.2-0.5c8.8,9.9,22.9,14.8,35.8,11.7
						c11.5-2.7,24.1-4.9,35.7-1.5c8.3,2.5,6,3.8,11.3-1.6c4.5-4.5,10.6-7.1,16.6-9.1c7.2-2.4,14.8-4.4,20.8-9
						C604.8,131.8,610.1,122.5,612.2,115z"/>
				</g>
				<g>
				</g>
			</g>
			<g id="XMLID_120_">
				<g>
					<path class="st11" d="M742.9,219.6c-14.9-10.8-21.3-31.7-15.4-49c0.3,5.9,0.8,11.9,3.6,17c2.5,4.4,6.5,7.8,10.5,10.8
						c13.1,9.6,28.9,18.1,34.4,33.4c23.5-11.6,53.8,2.1,77.2-9.9c-15.5,18.9-33.9,18.9-56.3,20.7c-11.1,0.9-23.2,4.3-29.5,13.5
						C763.3,238.6,756.8,229.7,742.9,219.6z"/>
				</g>
				<g>
				</g>
			</g>
		</g>
	</g>
</g>
</svg>
