<?xml version="1.0" encoding="utf-8"?>
<!-- Generator: Adobe Illustrator 22.1.0, SVG Export Plug-In . SVG Version: 6.00 Build 0)  -->
<svg version="1.1" id="Layer_1" xmlns="http://www.w3.org/2000/svg" xmlns:xlink="http://www.w3.org/1999/xlink" x="0px" y="0px"
	 viewBox="0 0 438 484" style="enable-background:new 0 0 438 484;" xml:space="preserve">
<style type="text/css">
	.st0{fill:#FFF4DC;}
	.st1{fill:#FFEA80;}
	.st2{fill:#EDA85D;}
	.st3{fill:#E2C798;}
	.st4{fill:#D6B980;}
	.st5{fill:none;}
	.st6{fill:#AB3428;}
	.st7{fill:#F49E4C;}
	.st8{fill:#18A3C6;}
	.st9{fill:#F2ECBB;}
	.st10{fill:#CE694E;}
	.st11{fill:#E29C6D;}
	.st12{fill:#D88850;}
	.st13{fill:#AA5821;}
	.st14{fill:#8C410E;}
	.st15{fill:#BC5946;}
	.st16{fill:#723A14;}
	.st17{fill:#006699;}
	.st18{fill:#1A936F;}
	.st19{fill:#BCE784;}
	.st20{fill:#F5EE9E;}
	.st21{fill:#7F7F7F;}
	.st22{fill:#CCFFFF;}
	.st23{fill:#92F5F7;}
	.st24{fill:#F9F0CD;}
	.st25{fill:#F5FCD6;}
</style>
<g id="Layer_1_1_">
</g>
<g id="_x32__ABOUT">
	<g id="JUGGLER_V2">
		<g id="v2_1_">
			<g id="Layer_53_copy">
				<g id="XMLID_513_">
					<g>
						<path class="st0" d="M313.6,378.3c5.5,15.1,5.3,31.7-7.1,44.2c-3.1-2.5-6-5.3-8.7-8.2c-0.7-0.8-1.4-1.9-2.2-3l1.3-0.3
							c3.5-2.9,5.5-7.4,6.5-11.8c1.5-6.2,1.6-12.7,0.2-18.9h0.1C307,379.2,310.3,378.6,313.6,378.3L313.6,378.3z"/>
						<path class="st1" d="M313.6,378.3L313.6,378.3c-3.3,0.2-6.6,0.8-9.8,1.8h-0.1c-0.3-1.5-0.7-2.9-1.2-4.4l-0.2-1.9
							c0.1,0,0.2,0,0.3,0c2.8-0.4,5.1-2.5,7.1-4.5C311.2,372.2,312.5,375.3,313.6,378.3z"/>
						<path class="st2" d="M281.7,288.2c4.4,5.3,5,12.7,4.5,19.6h-0.5c0.1-0.7,0.1-1.4,0.1-2.1c-0.3-6.9-5.1-13.2-11.2-16.4
							c-6.1-3.2-13.4-3.7-20.3-2.8c-2.2,0.3-4.8,1.2-5.4,3.3c-3.3,2.1-5.6,5.6-6.6,9.4c-2.6-2-5.2-4.1-8.2-5.3
							c-1.7-0.7-3.5-1.1-5.3-1.1v-1c6.8-3.6,8.1-12.5,10.1-19.9c0.6-2.3,1.4-4.7,3.2-6.2s4.9-1.8,6.4,0.1c1.8,2.3,0.2,6.1,1.9,8.5
							c0.7,1,1.9,1.5,3,1.9C263.1,279.8,275.1,280.1,281.7,288.2z"/>
						<path class="st1" d="M266.5,452.1L266.5,452.1c-0.3,0.7-0.8,1.4-1.5,1.9c0.4-0.3,0.7-0.7,1-1.2
							C266.1,452.6,266.3,452.4,266.5,452.1z"/>
						<path class="st1" d="M230.8,271.6c-0.5-1.3-2.2-2-3.4-1.5l0,0c-1,0.5-1.8,1.6-1.6,2.7c0.2,1.5,1.7,2.6,3.2,2.3
							C230.4,274.8,231.3,273,230.8,271.6z M261.3,329.5C261.3,329.5,261.3,329.4,261.3,329.5c8.2-0.5,16.2-5.1,20.7-11.9
							c1.9-2.9,3.3-6.3,3.6-9.8h0.5c0.6-6.9-0.1-14.3-4.5-19.6c-6.6-8.1-18.6-8.3-28.3-12c-1.1-0.4-2.3-0.9-3-1.9
							c-1.8-2.4-0.1-6.2-1.9-8.5c-1.5-1.9-4.6-1.6-6.4-0.1c-1.8,1.5-2.6,3.9-3.2,6.2c-2,7.4-3.3,16.3-10.1,19.9v1
							c-1.5,0-2.9,0.3-4.2,0.9c-8.1,3.9-13.7,0.1-22.3,0.1c-6.8,0-13.9,3.1-18.8,7.7c-0.7,0.7-1.5,1.5-2.5,1.6
							c-1.2,0.2-2.3-0.6-3.2-1.3c-3.5-2.7-6.8-5.5-9.9-8.5c-0.7-0.7-1.4-1.4-1.7-2.3c-0.8-2.5,2.2-4.8,4.8-4.8s5.1,1.3,7.7,1.8
							c2.3,0.4,4.6,0.1,6.8-0.3c7.6-1.3,15.1-3.9,21.9-7.6l-0.1-0.1c0.8-1.8-0.1-4.2-1.9-5c7-1,11.5-10.1,8-16.3
							c5.4,1.8,11.7,0.5,16-3.1c4.3-3.7,6.6-9.6,5.8-15.3c7.4,2.2,16.1-0.6,20.8-6.8c0.7-0.9,1.4-1.9,2.4-2.1
							c0.8-0.2,1.5,0.1,2.3,0.4c4,1.6,8.1,3.2,12.1,4.8c2.8,1.1,6,2.7,6.5,5.7c-1.7,1.8-3.4,3.6-5.1,5.4c-0.8,0.9-1.7,2.1-1.2,3.1
							c0.3,0.6,0.9,0.9,1.5,1.2c9.9,4.6,20.3,8,30.9,10.1c-2.2,3.8-2,9,0.6,12.6s7.4,5.4,11.7,4.5c-5.1,1.1-0.6,12.8-0.5,15.8
							c0.1,7.8-1.7,15.5-2.5,23.3c-0.3,3.3,2.1,8.4,1.3,10.5c-1.5,3.9-6.1,6-8.1,9.8c-2.5,4.8-2.3,10.4,1,15
							c-5.2,0.3-8.7,5.3-10.9,10c-1.8,3.9-2.2,10.9,4.1,10.2l0.2,1.9c0.5,1.4,0.9,2.9,1.2,4.4c1.3,6.2,1.3,12.8-0.2,18.9
							c-1.1,4.4-3,8.9-6.5,11.8l-1.3,0.3c-1.5-2.2-3-4.7-4.7-5.7c-6-3.7-4.6,9-3,12.6c1.7,3.8,4.5,6.9,7.5,9.7
							c3.5,3.3,7.4,6.2,11.5,8.8c-3.5,8.5-3.6,18.3-0.3,26.9c-9,3.6-17.1,9.2-23.7,16.3c-4.8,5.1-3.8,5-10,2c-4-2-8.5-3-12.9-3.3
							c-3-0.2-6-0.2-9,0.1c-2.1,0.2-7,1.9-8.9,1.2c-3.8-1.3-1.8-5.2-2.1-8.9c-0.4-4.6-2-9.1-4.7-12.8c-0.7-1-8.1-8.9-9.5-7.5
							c5.9-5.9,10.5-13.1,13.3-20.9c5,0.9,10.2,0.7,15.1-0.6c5.9-1.6,6.6-3.8,10.9,0.9c4.9,5.4,12.4,10.1,13.5,17.9
							c0.8,5.7-2.7,11.6-7.9,14.1c-5.2,2.5-11.6,1.9-16.6-1c-3.8-2.3-6.9-6.3-6.5-10.7c0.1-0.8,0.3-1.6,0.7-2.4
							c0.5-0.9,1.2-1.8,2-2.5c0.1,0,0.2,0,0.3-0.1c2-0.9,3.8-2.2,6.1-2.1l0,0c0.8,0.1,1.6,0.2,2.4,0.4l0,0c0.7,0.3,1.4,0.6,2,1.1
							c0.3,0.3,0.7,0.6,1,1l0,0c0,0.1,0,0.1,0.1,0.2c0.1,0.2,0.3,0.4,0.4,0.7c0.2,0.3,0.4,0.7,0.6,1l0,0c0,0.2,0.1,0.3,0.1,0.4
							c-0.1,0.9-0.3,1.9-0.3,2.8c-0.1,0.3-0.3,0.6-0.6,0.9c-0.4,0.5-1,0.7-1.6,0.8h-0.4c-0.1,0-0.3,0-0.4,0
							c-0.6-0.2-1.2-0.5-1.7-0.9c-0.4-0.5-0.7-1.1-0.8-1.7l0,0c0-0.1,0-0.1-0.1-0.2c-0.2-0.8-1.3-0.6-1.4,0
							c-0.1,0.1-0.1,0.2-0.2,0.4c-0.2,1.1,0,1.9,0.4,2.7c0.9,1.7,3.1,2.5,5.2,2.5c1.6,0,2.9-0.5,3.8-1.3c0.7-0.5,1.2-1.2,1.5-2l0,0
							c0-0.1,0.1-0.1,0.1-0.2c0,0,0-0.1,0.1-0.1c1.4-2.7,0.6-6.5-2.1-8.6c-1.1-0.8-2.4-1.5-3.8-1.9c-3.8-1.2-8.2-0.8-10.8,2
							c-0.1,0.1-0.7,0.6-0.8,0.8c-1,0.9-2,2.1-2.7,3.5c-1,1.7-1.8,3.7-1.8,5.5c0,6,3.8,7.5,5.3,9c6.8,5.3,16.1,6.4,24.4,3.4
							c7.5-3,11.3-11.3,12.8-18.8c0.8-4.5,0.8-9-2.3-12.8c-3.8-4.5-9.8-12.8-16-9c0.3-4.7-2.1-8.8-6-11.4c-1.9-1.2-4-2.1-6.1-2.6
							c-1.5-0.4-4.8-1.7-6.8-1.9c5.1-1.2,9.7-4.6,12.4-9.1c3-5,3.5-11.3,1.5-16.8c-1.2-3.2-3.3-6.1-6.4-7.4c0.2-0.2,0.4-0.5,0.5-0.8
							c4.9-7.5,3.9-18.4-2.5-24.7c0.1,0,0.1-0.1,0.2-0.1l0,0C261.8,345.6,264.3,336.6,261.3,329.5z"/>
						<path class="st1" d="M262.9,451.3c-0.3,0.4-0.6,0.8-0.9,1.1c-0.2,0.1-0.4,0.2-0.6,0.3l0,0c-0.1,0-0.1,0-0.2,0h-0.4
							c0.6,0,1.2-0.3,1.6-0.8c0.2-0.3,0.4-0.5,0.6-0.9C262.9,451.1,262.9,451.2,262.9,451.3z"/>
						<path class="st1" d="M260.3,452.6L260.3,452.6c-0.1,0-0.2,0-0.2,0c-0.1,0-0.1,0-0.2-0.1C260,452.6,260.2,452.6,260.3,452.6z"
							/>
						<path class="st1" d="M261.8,445.3c0.1,0.1,0.1,0.2,0.2,0.3c0,0.1,0,0.2,0,0.3c-0.3-0.4-0.6-0.7-1-1c-0.6-0.5-1.3-0.9-2-1.1
							c0.3,0.1,0.5,0.1,0.8,0.2c0.1,0.1,0.2,0.3,0.4,0.3c0.5,0.2,0.9,0.5,1.3,0.8l0,0C261.7,445.2,261.7,445.2,261.8,445.3z"/>
						<path class="st3" d="M257.5,375.7c3.1,1.3,5.3,4.2,6.4,7.4c2,5.4,1.5,11.8-1.5,16.8c-2.7,4.5-7.3,7.9-12.4,9.1
							c-0.4,0-0.7,0-1,0.1c1.7-0.5,2.8-2,3.5-3.6c1.9-4.4,1.2-9.3-1.4-13.3c-4.3-6.7-11.7-11.5-19.6-12.7v-0.1
							c3.1-0.5,6.2-1,9.4-1.5c5.2-0.8,10.4-1.6,15.5-2.6c0.4-0.1,0.9-0.2,1.1-0.5l0.4,0.2C257.8,375.2,257.7,375.5,257.5,375.7z"/>
						<path class="st3" d="M242.3,318.6c1.5,0.3,2.7,1.3,3.9,2.2c4.7,3.5,9.7,6.4,15.1,8.7c3,7.1,0.5,16.1-5.7,20.7l0,0
							c-2.2,0-4.3-0.6-6.5-1.1c-6-1.3-12.2-1.8-18.4-1.3v0.1c-0.8-0.2-1.7-0.4-2.6-0.5c2,0.2,3.7-1.3,5-2.8
							c6.7-7.1,12.7-16.3,7.6-26l0.6-0.1C241.6,318.5,242,318.6,242.3,318.6z"/>
						<path class="st4" d="M254.2,286.4c6.9-1,14.1-0.5,20.3,2.8c6.1,3.2,10.9,9.5,11.2,16.4c0,0.7,0,1.4-0.1,2.1
							c-0.3,3.5-1.7,6.9-3.6,9.8c-4.6,6.9-12.5,11.4-20.8,11.9v0.1c-5.4-2.3-10.4-5.2-15.1-8.7c-1.2-0.9-2.5-1.9-3.9-2.2
							c-0.3-0.1-0.7-0.1-1-0.1l-0.6,0.1c-0.2-0.4-0.4-0.7-0.6-1.1c6.5-0.8,14.3,0.5,19.3-4.1c4.9-4.5,9-13.3,5.9-19.7
							c-2.2-4.6-8.2-6.8-13.1-5.4c-1.2,0.3-2.3,0.9-3.3,1.5C249.4,287.7,252,286.8,254.2,286.4z"/>
						<path class="st4" d="M257.6,374.7c-0.2,0.3-0.7,0.5-1.1,0.5c-5.2,1-10.3,1.8-15.5,2.6c-3.1,0.5-6.2,1-9.4,1.5v0.1
							c-0.1,0-0.2,0-0.4-0.1c5.6-4.7,10-12,9.2-19.6c-0.7-6.2-4-10.4-9.7-12v-0.1c6.2-0.5,12.4,0,18.4,1.3c2.1,0.5,4.3,1.1,6.5,1.1
							c-0.1,0-0.1,0.1-0.2,0.1c6.4,6.3,7.4,17.2,2.5,24.7L257.6,374.7z"/>
						<path d="M227.4,270.2c1.3-0.5,3,0.2,3.4,1.5c0.5,1.4-0.4,3.2-1.9,3.5c-1.4,0.3-3-0.8-3.2-2.3
							C225.6,271.7,226.3,270.6,227.4,270.2L227.4,270.2z"/>
					</g>
				</g>
				<path class="st5" d="M251.9,443.7"/>
			</g>
			<g id="circles_color">
				<g id="handshake_copy">
					<circle class="st6" cx="58.3" cy="209.1" r="57"/>
					<g id="XMLID_27_">
						<g>
							<path class="st7" d="M99.7,208.5l0.1,0.2c-1.4,0.3-2.6,1.3-3.9,1.7c-1.7,0.6-3.4,1.2-5.1,1.8c-3.3,1.2-6.5,2.3-9.7,3.6
								c0.4-0.5,0.7-1,1.1-1.6c1.5-3-2.3-3.8-3.7-6.3l-0.3-0.1c-3.4-1.8-6.2-4.1-10.1-5c-5.1-1.1-5,2.3-8.3,5.6
								c-1.5,1.5-3.3,2.8-5.4,3.2c-2.1,0.4-4.5-0.4-5.5-2.2c-1.4-2.5,0.1-5.6,1.8-8s3.7-4.6,5.8-6.7c0.7-0.7,1.4-1.4,2.2-2
								c4.1-3.6,9.3,0.2,13.6,1.8c3.6,1.3,7.4,1,11.1,0.4c3.4-0.6,6.7-1.2,9.8-2.8C95.8,197.4,98.8,202.6,99.7,208.5z"/>
							<path class="st8" d="M81,215.7c-4.3,6-9.2,10.8-15.4,15.7c-0.8,0.8-2.3,0-3.7-0.3h-0.1c0.2-1.1,0.3-2.3,0.3-3.4
								c0-1.6-0.3-3.4-1.7-4.2c-0.8-0.5-1.8-0.4-2.8-0.4c-5.3,0.1-10.7-0.7-15.7-2.4c-0.8-0.3-1.6-0.5-2.3-0.3
								c-0.8,0.3-1.3,1.1-1.8,1.8c-0.4,0.7-0.8,1.3-1.1,2l-0.8-0.5c-5.9-3.2-12-5.5-17.8-8.8c-0.1-0.1-0.3-0.2-0.3-0.3s0-0.3,0-0.4
								c0.8-3,1.7-5.9,2.8-8.7c0.9-2.5,1.7-5.8,3.3-7.9l0.4,0.3c1.7,0.8,3.5,1.4,5.3,1.9c1.3,0.4,2.5,0.8,3.8,0.8
								c3.7,0.1,6.9-2.4,10-4.5c3.9-2.7,8.2-4.2,12.5-1.5l0.3,0.3c-2.1,2.1-4,4.3-5.8,6.7c-1.7,2.3-3.2,5.5-1.8,8
								c1.1,1.8,3.5,2.6,5.5,2.2c2.1-0.4,3.9-1.7,5.4-3.2c3.3-3.3,3.2-6.7,8.3-5.6c3.9,0.9,6.7,3.2,10.1,5l0.3,0.1
								c1.4,2.5,5.2,3.3,3.7,6.3C81.8,214.7,81.4,215.2,81,215.7z"/>
							<path class="st7" d="M60.5,223.4c1.4,0.8,1.7,2.6,1.7,4.2c0,1.2-0.1,2.3-0.3,3.4c-0.2,1.2-0.5,2.3-0.8,3.5
								c-8.8-1.5-17.5-4-25.9-7.2V227c0.6-1,1.1-1.9,1.7-2.9c0.4-0.7,0.8-1.3,1.1-2c0.4-0.8,0.9-1.6,1.8-1.8c0.8-0.2,1.6,0,2.3,0.3
								c5.1,1.7,10.4,2.5,15.7,2.4C58.6,223,59.6,222.9,60.5,223.4z"/>
						</g>
					</g>
				</g>
				<g id="fist_copy">
					<circle class="st9" cx="159.9" cy="87.1" r="57"/>
					<g id="XMLID_511_">
						<g>
							<path class="st10" d="M185.8,75.9c0.6,5.9,1,13.1-2,18.8c-0.3,0.5-1.2,1.8-1.5,2.3c-3.8,6-4.9,12.4-3.5,18.8l0.3,0.3
								c-4.6,5-10.1,9.2-16.2,12.2l-0.4-0.8c-0.5-9.1,0.2-17.6,1.7-26.6c0.6-3.6,0.6-8.3-1.1-11.7c0,0,1.9-2.8,4.2-4.3s5.3-3,5.3-3
								c0-0.2,0-0.5,0.1-0.7c1.9,0.2,3.8,1.3,5.3,1.8c0.3,0.1,0.6,0.2,0.9,0.1c0.2-0.1,0.4-0.2,0.6-0.4c2.1-1.9,4-4,5.7-6.3
								c0.2-0.2,0.3-0.5,0.5-0.7L185.8,75.9z"/>
							<path class="st11" d="M179.4,82.8c-0.2,0.1-0.4,0.3-0.6,0.4c-0.3,0.1-0.6,0-0.9-0.1c-1.5-0.5-3.4-1.6-5.3-1.8
								c0.4-3.2,2.1-6.4,3.4-9.1c1.2-2.5,2.9-5.3,3.2-8.1c1.5,1.9,3.6,2.8,5.4,4.5c2.4,2.3,2.5,4.5,0.9,7.2
								c-0.1,0.2-0.3,0.5-0.5,0.7C183.4,78.8,181.5,80.9,179.4,82.8z"/>
							<path class="st12" d="M169,65.8c0.8-2.5,1.3-4.7-0.4-6.8l0.2-0.1c0.1,0.1,0.3,0.2,0.4,0.2c3.8-0.8,6.8,0,9.8,4.5
								c0.1,0.2,0.2,0.3,0.4,0.5c-0.4,2.8-2,5.6-3.2,8.1c-1.3,2.7-3.1,5.9-3.4,9.1c0,0,0,0-0.1,0c0,0-3.3,0.8-4.6,0.4
								c-1.4-0.4-2.1-1.9-2.1-1.9s0,0-0.1,0C165.7,74.8,167.6,70.4,169,65.8z"/>
							<path class="st7" d="M162.5,127.4l0.4,0.8c-0.2,0.1-0.5,0.2-0.7,0.3l-0.2-0.3c-2.2-2.5-5.2-4-8.3-5.4c-2.9-1.3-6.8-3-9.2-5.1
								c-1.4-1.1-2.8-2.6-2.8-4.4c0.1-3.3,1.4-6,0-9c-1-2.2-2.4-5.1-4.1-6.9c-2.9-3-7-7.5-8.2-11.6c-0.3-1.2-0.6-3.6-0.5-4.8
								c0.2-1.7,0.6-3.5,0.8-5.3c0.4-3.3,1.5-6.2,1.9-9.5c0.1-0.6,0.1-1.2,0.4-1.7c0.3-0.5,0.7-0.8,1.1-1.1c3.1-2.5,6.3-4.9,9.4-7.4
								c1.8-1.4,3.1-0.8,3.8,0.6c1.2,2.1,1.4,5.9,1.2,7.4c-0.6,3.5-1.7,6.7-3.6,9.5c-1,1.3-2.1,2.6-3.5,3.6l-0.6,0.3
								c0.4,0.5,6.2-0.2,7.9-0.2c0.4,0,0.5,0.1,0.6,0.2s0.2,0.2,0.4,0.3c1.8,1,4.8,2.7,4.9,2.6c0.1-0.1,7.4,5,9.3,8.3
								c0.1,0.1,0.1,0.3,0.2,0.4c1.7,3.4,1.7,8.1,1.1,11.7C162.7,109.9,162,118.3,162.5,127.4z"/>
							<path class="st13" d="M168.6,59c1.7,2.2,1.1,4.3,0.4,6.8c-1.4,4.6-3.3,9-3.3,13.9c-0.6,0-4.2,0.3-5.9,0
								c-1.4-0.2-4.2-1.9-4.2-1.9v-0.4c-0.1,0,0.1-2.4,0.1-2.6c0.2-1.3,0.4-2.6,0.8-3.9c0.9-2.6,1.8-5.3,2.1-8
								c0.2-1.4,0.2-2.8,0.1-4.2c-0.1-1.1-0.7-2.7-0.4-3.7l0,0c0.3,0,0.6,0,0.9,0c2,0.1,6-0.5,7.6,1.1c0.6,0.6,1.2,2.2,1.8,2.8
								L168.6,59z"/>
							<path class="st14" d="M158.4,54.9c-0.3,1,0.3,2.7,0.4,3.7c0.1,1.4,0.1,2.8-0.1,4.2c-0.4,2.7-1.2,5.4-2.1,8
								c-0.4,1.3-0.6,2.6-0.8,3.9c0,0.2-0.2,2.6-0.1,2.6v0.4c0,0-2.6,0.4-4.1,0.4s-2.9-0.5-2.9-0.5l-0.2-0.2l-4.5-3.8l0,0
								c2-2.7,3-6,3.6-9.5c0.2-1.4,0-5.3-1.2-7.4h0.4c1.1-1.3,2.5-3,4.3-3.4c1.6-0.3,2.8,0.8,4.2,1.1
								C156.4,54.8,157.4,54.9,158.4,54.9L158.4,54.9z"/>
							<path class="st15" d="M172.5,81.9c0,0-3,1.5-5.3,3s-4.2,4.3-4.2,4.3c-0.1-0.1-0.1-0.3-0.2-0.4c-1.9-3.3-9.1-8.4-9.3-8.3
								c-0.1,0.1-3-1.6-4.9-2.6c-0.2-0.1-0.2-0.2-0.4-0.3l0.1-0.1l0.2,0.2c0,0,1.4,0.5,2.9,0.5s4.1-0.4,4.1-0.4s2.8,1.7,4.2,1.9
								c1.7,0.3,5.3,0.1,5.9,0c0.1,0,0.1,0,0.1,0s0.8,1.5,2.1,1.9c1.4,0.4,4.6-0.4,4.6-0.4s0,0,0.1,0
								C172.6,81.4,172.6,81.7,172.5,81.9z"/>
							<path class="st16" d="M144,73.7l4.5,3.8l-0.1,0.1c-0.1-0.1-0.2-0.2-0.6-0.2c-1.7,0-7.5,0.8-7.9,0.2l0.6-0.3
								C141.9,76.2,143.1,75,144,73.7L144,73.7z"/>
						</g>
					</g>
				</g>
				<g id="spin_cap_color">
					<circle class="st17" cx="325.8" cy="58.1" r="57"/>
					<g id="XMLID_24_">
						<g>
							<path class="st18" d="M309.4,74.6c4,0.8,8,1.4,12,1.6c2.8,0.2,5.7,0.2,8.6-0.1c2.3-0.2,4.6-0.6,6.9-1.4
								c2.2-0.7,4.2-1.6,6.2-2.8c1.7-1,3.3-2.3,4.7-3.6c0.2-0.2,0.4-0.4,0.7-0.6c0.9-0.8,1.9-1.6,2.6-2.6c0.6-0.8,0.7-1.8,1.3-2.6
								h0.1c1.7,2.2,3.1,4.6,4.2,7.2c0.7,1.6,1.3,3.3,1.3,5c0.3,10.8-23.4,12-30.8,12.9c-5.7,0.7-12.1,1.1-16.5-2.6
								c-1.6-1.3-2.7-3.1-3.9-4.8c-1.6-2.4-3.2-4.6-4.3-7.3l0.1-0.1c0.1,0.1,0.2,0.2,0.3,0.3l0.2-0.1
								C305.2,73.7,307.3,74.2,309.4,74.6z"/>
							<path class="st8" d="M352.4,61.7l0.1,0.8c-0.1,0.1-0.1,0.1-0.1,0.2c-0.6,0.8-0.6,1.8-1.3,2.6c-0.7,0.9-1.7,1.8-2.6,2.6
								c-0.2,0.2-0.4,0.4-0.7,0.6l0,0c-0.5-6.7-3.1-13.3-7.4-18.4c-2.3-2.7-5.1-5-8.3-6.6c-1.6-0.8-3.2-1.4-5-1.9
								c-1.3-0.3-2.9-0.8-4.4-0.7c7.3-1.6,15.3-0.4,21.2,4C349.4,48.7,352.4,55.1,352.4,61.7z"/>
							<path class="st19" d="M347.8,68.4L347.8,68.4c-1.4,1.4-3,2.6-4.7,3.6c-2,1.2-4,2.1-6.2,2.8l-0.1-0.2
								c0.9-7.9-0.3-17.5-5.5-23.7c-0.9-1.1-1.8-2.2-2.7-3.3c-1.2-1.4-2.3-2.8-3.7-4c-1-0.9-2.1-1.6-3.3-2.2l-0.1-0.1
								c0-0.1,0-0.1,0.1-0.2c0.4-0.1,0.8-0.2,1.2-0.3l0,0c1.5-0.1,3.1,0.4,4.4,0.7c1.7,0.4,3.4,1.1,5,1.9c3.2,1.6,6,3.8,8.3,6.6
								C344.7,55.1,347.3,61.7,347.8,68.4z"/>
							<path class="st20" d="M320.6,33.9c-0.1-0.2-0.1-0.4-0.2-0.7c4.9-3.5,10.8-6,16.6-7.4c1.2-0.3,2.5-0.6,3.8-0.6
								c2.5,0,5.2,2,5.2,4.8c0,3-4.1,3.5-6.4,4c-6,1.4-12.4,2.6-18.5,1.6C320.9,35.1,320.7,34.5,320.6,33.9z"/>
							<path class="st20" d="M331.3,50.9c5.2,6.2,6.5,15.9,5.5,23.7l0.1,0.2c-2.2,0.7-4.5,1.1-6.9,1.4c-2.9,0.3-5.8,0.3-8.6,0.1
								v-0.1c-2.9-7.6-3.5-16.1-2.4-24.1c0.3-1.9,0.6-3.8,1-5.6c0.4-1.6,0.7-3.6,1.4-5.1l0.1,0.1c1.2,0.6,2.3,1.4,3.3,2.2
								c1.4,1.2,2.5,2.6,3.7,4C329.5,48.7,330.4,49.8,331.3,50.9z"/>
							<path class="st21" d="M321.6,41.1L321.6,41.1c-0.4,0.1-0.8,0.2-1.1,0.4l-0.1-0.3c-0.6-2-1.2-4.1-1.9-6.1
								c0.1,0,0.2-0.1,0.2-0.1l0.1,0.2c0.7,0.2,1.5,0.3,2.2,0.4c0.5,1.7,1,3.4,1.5,5.1v0.1c-0.2,0-0.5,0.1-0.7,0.1
								C321.8,41,321.7,41,321.6,41.1z"/>
							<path class="st7" d="M321.6,41.1c0,0.1-0.1,0.1-0.1,0.2c-0.8,1.5-1,3.5-1.4,5.1c-0.4,1.9-0.8,3.7-1,5.6
								c-1.1,8.1-0.5,16.5,2.4,24.1v0.1c-4-0.2-8-0.9-12-1.6c-0.5-6.1-0.6-12.2,1-18.1c0.8-3.1,2.2-6,4-8.6c0.9-1.3,2-2.5,3.1-3.6
								c0.6-0.5,1.2-1,1.8-1.5c0.6-0.5,1.2-1,1.9-1.4C321.4,41.3,321.5,41.2,321.6,41.1L321.6,41.1z"/>
							<path class="st6" d="M321.6,41.1c-0.1,0.1-0.2,0.1-0.3,0.2c-0.7,0.4-1.3,1-1.9,1.4c-0.6,0.5-1.3,1-1.8,1.5
								c-1.2,1.1-2.2,2.3-3.1,3.6c-1.8,2.6-3.1,5.5-4,8.6c-1.6,5.9-1.5,12.1-1,18.1c-2.1-0.4-4.2-0.9-6.3-1.3l-0.2,0.1
								c-0.1-0.1-0.2-0.2-0.3-0.3c-2.9-3.6-1.6-12.2-0.3-16c2.1-5.8,7.9-10.4,13.1-13.4c1.6-0.9,3.3-1.7,5-2.2
								C320.8,41.3,321.2,41.2,321.6,41.1z"/>
							<path class="st21" d="M320.6,33.9c0.2,0.6,0.3,1.1,0.5,1.7c-0.7-0.1-1.5-0.3-2.2-0.4l-0.1-0.2
								C319.3,34.6,320,34.3,320.6,33.9z"/>
							<path class="st21" d="M320.4,33.3c0.1,0.2,0.1,0.4,0.2,0.7c-0.6,0.4-1.2,0.7-1.8,1.1c-0.1,0.1-0.2,0.1-0.2,0.1
								c-0.1-0.4-0.3-0.8-0.4-1.2c0-0.1-0.1-0.2-0.1-0.2c-0.3-0.9-0.6-1.7-0.7-2.6c0-0.1,0-0.2,0.1-0.3l0.1-0.1
								c0.6-0.4,1.3-0.8,1.8-0.3c0.2,0.2,0.3,0.5,0.4,0.8C319.9,31.8,320.2,32.5,320.4,33.3z"/>
							<path class="st20" d="M318.1,33.9c0.1,0.4,0.3,0.8,0.4,1.2c-6.4,3.4-13.5,5.3-20.6,7.1c-1.4,0.3-4.2,0.7-4.9-0.9
								c-0.7-1.4,0.4-3,1.7-3.9c2.7-2.1,6.2-2.9,9.6-3.6c4.6-1,9.5-1.9,13.7,0C318,33.7,318,33.8,318.1,33.9z"/>
						</g>
					</g>
				</g>
			</g>
			<g id="bubbles_color">
				<g id="XMLID_509_">
					<g>
						<path class="st22" d="M106.7,280.1c3.2-2.9,10.3-2.3,13.1-0.2c5.4,4-0.2,13-4.5,15.6c-3.8,2.3-9.6,1.6-11.8-2.3
							c-1.9-3.4-0.6-7.7,1.1-11.2C105.1,281.1,105.9,280.1,106.7,280.1z"/>
					</g>
				</g>
				<g id="XMLID_508_">
					<g>
						<path class="st23" d="M73.7,281.2c1.1-0.8,2.5-1.1,3.8-1.1c2,0.1,3.9,0.9,5.7,1.7c0.6,0.3,1.2,0.6,1.5,1.2
							c0.2,0.4,0.2,1,0.2,1.4c-0.3,3.2-2.4,6.3-5.4,7.4s-6.8-0.1-8.4-2.9C69.6,286.2,70.8,282.3,73.7,281.2z"/>
					</g>
				</g>
				<g id="XMLID_507_">
					<g>
						<path class="st24" d="M112.8,152.6c4.8-19,31,8,9.1,9.2c-1.9,0.1-4,0.1-5.7-0.8C113.3,159.4,112,155.7,112.8,152.6z"/>
					</g>
				</g>
				<g id="XMLID_506_">
					<g>
						<path class="st22" d="M157.8,304.1c4.2,5.5-3.7,13.2-7.9,6.9C146.8,306.4,153.4,298.3,157.8,304.1z"/>
					</g>
				</g>
				<g id="XMLID_505_">
					<g>
						<path class="st24" d="M130.6,307.8c3.5,0.7,5.7,5.9,5.3,9.1c-0.5,3.6-3.8,6.7-7.4,6.9c-3.7,0.2-7.2-2.5-8.1-6.1
							C119,311.8,124.9,306.7,130.6,307.8z"/>
					</g>
				</g>
				<g id="XMLID_504_">
					<g>
						<path class="st23" d="M80.6,126.3c5.8-1.1,9.6,7.1,5.2,10.9c-2.5,2.2-6.6,3.2-8.8,0.8C73.8,134.6,75.8,127.1,80.6,126.3z"/>
					</g>
				</g>
				<g id="XMLID_503_">
					<g>
						<path class="st22" d="M80.5,107.3c2.5,2,1.2,6.8-2.3,6.5C72.7,113.4,76.1,103.7,80.5,107.3z"/>
					</g>
				</g>
				<g id="XMLID_48_">
					<g>
						<path class="st24" d="M235.4,76.9c8.5,0.9,6,15.9-2.3,10.7C228.8,84.9,229.1,76.3,235.4,76.9z"/>
					</g>
				</g>
				<g id="XMLID_46_">
					<g>
						<path class="st22" d="M264.3,87.8c4.6,13.6-17.3,2-6-2.3C261.6,84.3,263.5,85.8,264.3,87.8z"/>
					</g>
				</g>
				<g id="XMLID_500_">
					<g>
						<path class="st25" d="M328.4,177.4l-0.2-0.3c3.1-2.2,7.4-2.9,10.7-0.9c5.4,3.4,5.5,12.7,0,16.1c-4.2,2.6-10.5,1.2-13-3
							C323.6,185.4,324.8,180,328.4,177.4z"/>
					</g>
				</g>
				<g>
					<path class="st5" d="M310,225.9c1-2.6-0.6-6.5-3.5-6.9c-4-0.7-7.1,4.2-4.9,7.6C303.5,229.4,308.7,229.1,310,225.9z"/>
				</g>
				<g>
					<path class="st5" d="M333.4,210.8c-1.2,1.7-0.1,4.4,1.9,4.9s4.2-1.5,3.9-3.5s-2.9-3.4-4.7-2.4"/>
				</g>
				<g id="XMLID_499_">
					<g>
						<path class="st24" d="M323.6,241.3c4.8-4.3,13.9,1.8,11.3,7.9c-0.3,0.8-0.9,1.5-1.9,2c-0.8,0.4-1.7,0.5-2.6,0.6
							C323.8,252.4,316.8,247.4,323.6,241.3z"/>
					</g>
				</g>
				<g id="XMLID_498_">
					<g>
						<path class="st25" d="M302.2,171.1c3-0.3,6.7,2.1,6.4,5.1c-0.3,3.4-5.4,5.4-8,3.2C298,177.1,299.2,172.3,302.2,171.1z"/>
					</g>
				</g>
				<g id="XMLID_497_">
					<g>
						<path class="st24" d="M351.8,147.6c0.5-6.9,11.7-6.8,9.6-0.1C360.2,151.3,351.3,153.8,351.8,147.6z"/>
					</g>
				</g>
				<g id="XMLID_496_">
					<g>
						<path class="st25" d="M192.2,233.8c5.9-1.4,10.5,8.7,3.1,9.7C189.6,244.2,185.8,235.3,192.2,233.8z"/>
					</g>
				</g>
				<g id="XMLID_495_">
					<g>
						<path class="st24" d="M210.5,219.3c8.6-4.1,5,10.7-0.2,5.3C207.9,221.9,208.8,220.1,210.5,219.3z"/>
					</g>
				</g>
				<g id="XMLID_45_">
					<g>
						<path class="st24" d="M420.8,62.6c4,7.2-7.9,13-10.4,5.6C408.5,62.7,417,55.7,420.8,62.6z"/>
					</g>
				</g>
				<g id="XMLID_44_">
					<g>
						<path class="st23" d="M428.1,38.3c2.9-3.7,11.2-0.7,9.9,4.3C436.4,48.6,423.6,44,428.1,38.3z"/>
					</g>
				</g>
				<g id="XMLID_492_">
					<g>
						<path class="st25" d="M325.6,354.7c5.3-2.3,9.8,5.2,4.5,7.8C325.2,364.9,319.5,357.3,325.6,354.7z"/>
					</g>
				</g>
				<g id="XMLID_491_">
					<g>
						<path class="st24" d="M333.5,338.2c4,0.9,4.6,7.4-0.4,6.8c-2.1-0.2-3.2-1.9-3.4-3.5C329.5,339.5,330.7,337.6,333.5,338.2z"/>
					</g>
				</g>
				<g id="XMLID_490_">
					<g>
						<path class="st25" d="M345,362.1c3.5-3.1,5.9,2.5,4,5.4c-0.9,1.3-2.8,2.1-4.2,1.2c-0.9-0.6-1.2-1.8-1.3-2.9
							C343.5,364.5,343.9,363,345,362.1z"/>
					</g>
				</g>
				<g>
					<path class="st5" d="M358.2,252.6c4,2.4,6.2-1.7,5.6-4.8c-0.4-2-2.1-3.6-5.5-2.6C353.9,246.6,355.3,250.9,358.2,252.6z"/>
				</g>
				<g id="XMLID_43_">
					<g>
						<path class="st23" d="M249.4,65.9c1.7,5.3-7.6,5.3-7.7,0.5C241.7,61.9,248.3,62.3,249.4,65.9z"/>
					</g>
				</g>
				<g id="XMLID_42_">
					<g>
						<path class="st22" d="M417.1,15.5c5.5,1.6,3,10.8-2.9,8.8C408.7,22.3,411.6,13.8,417.1,15.5z"/>
					</g>
				</g>
			</g>
		</g>
	</g>
</g>
</svg>
