<svg id="Layer_1" data-name="Layer 1" xmlns="http://www.w3.org/2000/svg" viewBox="0 0 2668 741.1"><defs><style>.cls-1{fill:#0c85a9;}.cls-2{fill:#0d85aa;}.cls-3{fill:#eab011;}.cls-4{fill:#f9eac2;}</style></defs><title>cses_logo_vector</title><path class="cls-1" d="M1076,23c6,.65,12.06,1.35,18.1,1.94,74.46,7.33,144.11,29.37,208.3,68.11,1,.58,1.84,1.3,3,2.17L1254.66,203c-14.08-7.69-27.61-15.51-41.51-22.58-41-20.89-84.22-35.64-129.71-43-34.51-5.57-69-6-102.84,4.53-17.61,5.51-33.78,13.88-45.24,28.78-17.68,23-17.88,48.55-7.75,74.3,9.44,24,28.5,39.14,50.81,50.76,23.75,12.36,49.36,19.68,74.54,28.25,42.47,14.47,85.14,28.44,127.1,44.28,27.8,10.49,52.83,26.53,75.73,45.77,28.11,23.62,45.6,53.63,53.54,89.06,10,44.62,8.56,88.66-10.46,131-15.58,34.7-41.37,60.42-72.9,80.83-36,23.28-75.67,36.37-117.72,42.87a455.38,455.38,0,0,1-113.56,2.94c-55.39-5.35-107.92-20.9-157.89-45.25a426.21,426.21,0,0,1-92.91-60.85c-.87-.75-1.7-1.57-2.78-2.57l53.44-108.51c8.41,7.2,16.31,14.3,24.56,21,49.72,40.14,105.16,68.77,168,81.8,41.17,8.53,82.39,8.47,123-3.49,20.14-5.93,38.28-15.75,51.51-32.61,24.84-31.62,21-79.77-8.18-109.7-16.25-16.69-36.42-27-57.86-34.4-36.59-12.65-73.62-24.05-110.47-36-26.56-8.58-53.54-16-78.86-28.1a306.91,306.91,0,0,1-61.66-38.52c-27.48-22.36-45.08-50.9-53.83-84.93-9.43-36.67-9.73-73.52.7-110,11.87-41.56,37.9-72.72,73.08-96.81,35-24,74.09-37.28,115.7-43.71,12.15-1.88,24.46-2.75,36.69-4.14a7.09,7.09,0,0,0,2-.95Z" transform="translate(-23 -23)"/><path class="cls-2" d="M2691,567c-.85,6.51-1.6,13-2.57,19.53-7.7,51.32-34.36,90.75-75.87,120.87-35.14,25.49-74.54,41.14-117,48.33-126.65,21.41-242.58-5.68-347.87-78.85-10-6.92-19.12-15-28.66-22.53-.78-.61-1.61-1.15-2.54-1.81l53.7-109c7.36,6.39,14.25,12.62,21.41,18.52,47.85,39.42,101.33,67.92,161.84,82.3,44,10.44,88.05,11.3,131.8-1.35,19.15-5.54,36.49-14.67,49.77-30,26.79-31,24.19-81.23-5.21-111.7-17-17.65-38.32-28.27-60.89-36-38-13-76.47-24.93-114.8-37.12-28.21-9-56.58-17.42-82.94-31.28-27-14.2-52.26-30.82-72.27-54.21-20.34-23.76-31.76-51.79-36.52-82.44-5-32.46-4.1-64.75,6.09-96.29,13.45-41.66,40.79-72.29,77-95.67,33.68-21.77,70.9-34.08,110.28-40.18,12.32-1.91,24.8-2.77,37.2-4.16A7.65,7.65,0,0,0,2395,23h56a9.26,9.26,0,0,0,2.15.81c12.95,1.38,25.91,2.65,38.86,4.08,27.5,3.05,54.21,9.78,80.58,17.91a450.12,450.12,0,0,1,77.21,31.62c10.47,5.52,20.78,11.36,31.47,17.23-17.26,36.61-34.16,72.49-50.9,108-18.46-9.58-36.33-19.29-54.6-28.18a328.1,328.1,0,0,0-36.65-15.37c-16.88-5.82-34.1-10.69-51.28-15.58a265,265,0,0,0-60.12-9.38c-11.59-.54-23.26.17-34.86.83-19.82,1.13-38.84,5.74-56.38,15.2-34.65,18.69-42.08,43.76-39.13,73.63,2.38,24.14,15.53,43.19,34.54,58,16.47,12.83,35.28,21.44,54.84,28.12,45.15,15.4,90.57,30,135.77,45.29,38.89,13.14,75.27,31,107.14,57.46,34.3,28.43,52.79,65.19,58.53,108.88q1.41,10.71,2.83,21.43Z" transform="translate(-23 -23)"/><path class="cls-1" d="M23,367c1-6.63,2-13.25,2.85-19.9,8.06-64.33,31.68-122.52,70.22-174.44,51.59-69.5,121-113.57,204.12-134.16C441,3.64,566.37,35.59,675.42,131.31c2.49,2.19,4.7,4.69,7.47,7.46l-72.33,91.36c-6.07-6.4-11.49-12.92-17.71-18.55-45.29-41-97.79-68-158.81-74.07C339.69,128.1,261.3,160.23,201,234,166.22,276.6,149.1,326,146.8,380.72c-2.13,50.9,6.86,99.4,33.53,143.23,41.82,68.76,101.66,112.57,182,125.72,57.11,9.35,111.67.12,163.67-25a323.69,323.69,0,0,0,83.54-57.59,15.19,15.19,0,0,1,1.53-1.09l73.12,82.28c-7.76,6.78-15.14,13.66-23,20-60,48.69-128,80.46-204.42,91.24C345.2,775.24,243.86,748.66,155,678.76c-52.8-41.54-88.23-95.94-111-158.82A363.16,363.16,0,0,1,24,426a13.49,13.49,0,0,0-1-3Z" transform="translate(-23 -23)"/><path class="cls-3" d="M1527.24,448c2.71,10.58,4.85,21.34,8.24,31.69,9.55,29.25,24.81,55.3,44.51,79A272.79,272.79,0,0,0,1636.16,610a244.18,244.18,0,0,0,92.26,38.22,279.5,279.5,0,0,0,70.16,4.55c30.36-1.86,59.49-9.76,87.8-21.13,5.9-2.37,13.57-.74,20.39-.33,8.7.52,17.37,1.71,26.06,2.57,14,1.36,28,2.56,41.89,4.06,17.56,1.9,35.11,4,52.64,6.07,10.39,1.26,20.76,2.75,31.89,4.23-4.79,4.45-8.79,8.87-13.47,12.39-17.26,13-34.37,26.19-52.23,38.3-22,15-46.19,26.14-70.86,36.05s-50.29,17.85-76.66,22.38c-14.5,2.49-29.16,4.39-43.84,5.5a348.22,348.22,0,0,1-43.33.94c-16.6-.83-33.33-2.26-49.64-5.34-20.41-3.86-40.61-9.16-60.62-14.84-11.21-3.18-22-8-32.71-12.74-24.1-10.58-47.15-23.13-68.35-38.8-10-7.39-19.6-15.32-29.08-23.36-6.56-5.57-12.86-11.5-18.85-17.68-23.16-23.85-42.08-50.75-57.73-80.07a380.7,380.7,0,0,1-34.49-91.34c-2.49-10.47-4-21.16-6.08-32.46h-4.91c-17.5,0-35-.06-52.5.07-3.13,0-5.13-.75-6.88-3.56-10.32-16.6-24.55-29.63-38.58-43-25.14-23.94-54.86-41.09-84.32-58.7-.55-.34-1.13-.64-1.66-1s-1.2-1-2.32-1.87H1401.7c1.44-6.77,2.93-13.41,4.26-20.07,7.39-37,20.66-71.71,38.78-104.75a353.15,353.15,0,0,1,38-56.33,348.74,348.74,0,0,1,96.9-80.62c48.25-27.39,100-44.42,155.17-49.89a488.83,488.83,0,0,1,62.18-2,350.7,350.7,0,0,1,68.91,9.33,441.82,441.82,0,0,1,79.92,27.11,381,381,0,0,1,77.05,45.89c11.78,9,22.54,19.34,33.75,29.09a14.13,14.13,0,0,1,1.46,1.95c-16.37,2.42-32.24,4.86-48.13,7.07q-37,5.16-74,10c-14,1.82-28,3.32-42,4.83a8.68,8.68,0,0,1-4.24-1c-25.5-11.54-52-19.85-79.91-22.39-84.87-7.7-158.18,17-217.84,79.13-31.78,33.09-54.59,73.63-64.74,122.41H1533q182,0,364-.07a34.74,34.74,0,0,1,15.43,3.74c13.79,6.43,27.83,12.62,42.32,17.19,33.78,10.65,67.87,20.29,101.83,30.36a22.63,22.63,0,0,1,3,1.37c-32.5,10.63-65,20.84-97.1,31.91-16.82,5.79-33.37,12.56-49.54,20a39.89,39.89,0,0,1-17.38,3.89q-180.51-.12-361,0c-2.17,0-4.33.08-6.49.12Z" transform="translate(-23 -23)"/><path class="cls-3" d="M287.18,446.91V338.85H293q231.95,0,463.89-.09c3.74,0,5.93,1.11,8.18,4.15,14.32,19.39,33,33.93,52.18,48.28,32.21,24.12,68.9,38.67,105.9,52.87a15.84,15.84,0,0,1,5.09,2.85Z" transform="translate(-23 -23)"/><path class="cls-4" d="M1527.24,448l.81-.76Z" transform="translate(-23 -23)"/></svg>