<?xml version="1.0" encoding="utf-8"?>
<!-- Generator: Adobe Illustrator 22.1.0, SVG Export Plug-In . SVG Version: 6.00 Build 0)  -->
<svg version="1.1" id="Layer_1" xmlns="http://www.w3.org/2000/svg" xmlns:xlink="http://www.w3.org/1999/xlink" x="0px" y="0px"
	 viewBox="0 0 830 231" style="enable-background:new 0 0 830 231;" xml:space="preserve">
<style type="text/css">
	.st0{fill:#194B9F;}
</style>
<g>
	<rect x="425.9" y="152.6" class="st0" width="38.6" height="8"/>
	<rect x="482.6" y="152.6" class="st0" width="38.6" height="8"/>
	<polyline class="st0" points="407.8,152.6 407.8,160.6 369.2,160.6 369.2,152.6 	"/>
	<rect x="595.9" y="152.6" class="st0" width="38.7" height="8"/>
	<rect x="652.6" y="152.6" class="st0" width="38.7" height="8"/>
	<rect x="539.2" y="152.6" class="st0" width="38.6" height="8"/>
	<rect x="765.9" y="152.6" class="st0" width="38.6" height="8"/>
	<rect x="709.2" y="152.6" class="st0" width="38.6" height="8"/>
	<g>
		<path class="st0" d="M1,159.4h41.5c34.3,0,64.7-20,64.7-57.3c0-42.1-31.1-57.9-68.2-57.9H1V159.4 M26.4,67.7h15
			c21.5,0,39.5,10.6,39.5,33.2c0,26.2-17.7,35.1-41.3,35.1H26.4V67.7z"/>
		<path class="st0" d="M112.8,119.9c0,25.2,19.5,41.5,43.9,41.5c24.4,0,43.9-16.3,43.9-41.5c0-25.2-19.5-41.5-43.9-41.5
			C132.3,78.4,112.8,94.7,112.8,119.9 M137.2,119.9c0-11.9,7.3-20,19.5-20c12.2,0,19.5,8.1,19.5,20c0,11.9-7.3,20-19.5,20
			C144.5,139.9,137.2,131.8,137.2,119.9"/>
		<path class="st0" d="M279.7,89c-7.6-7.8-18.9-10.6-28.1-10.6c-24.4,0-43.9,16.3-43.9,41.5c0,25.2,19.5,41.5,43.9,41.5
			c9.3,0,20.5-2.8,28.1-10.6l-16.1-16.9c-2.8,3.2-6.7,6-12,6c-12.2,0-19.5-8.1-19.5-20c0-11.8,7.3-20,19.5-20c5,0,9.6,2.6,12,6
			L279.7,89"/>
		<path class="st0" d="M363,80.4h-24.4v39.3c0,10.3-1.9,20.2-14.7,20.2c-12.5,0-12.7-11.7-12.7-20.8V80.4h-24.4V124
			c0,21.1,4.5,37.4,29.3,37.4c11.9,0,19.8-6.5,23.1-12.7h0.3v10.7H363V80.4"/>
		<path class="st0" d="M585.2,140.8c-4.2-4.2,38.2-38.1,50.9-36.3C631.3,119.2,589.4,145,585.2,140.8 M635.1,154.9
			c5.6-7.5,21.9-46.9,21.9-52.6c0-9.5-8.7-14.5-18-14.5c-30.7,0-80.2,52.3-90.7,52.3c-11.8,0,6.3-25.1,6.3-34.9
			c0-6.5-5.8-13.2-10.5-13.2c-9.1,0-37.7,27.2-56.5,33.5c4.2-7,6.3-14.7,6.3-18.8c0-33.5-94.9-21-94.9-39.8c0-16.9,59.4-46,94.2-46
			c4.9,0,37,2.1,37,13.2c0,4.2-7,5.6-7,9.8c0,4.2,3.5,4.9,7.7,4.9c6.3,0,10.5-5.6,10.5-12.6C541.3,7.7,516.6,2,496.6,2
			c-51.3,0-112.3,44.7-112.3,64.9c0,26.5,86.5,21.6,86.5,45.3c0,28.6-92.8,54.4-92.8,61.4c0,7,4.9,6.3,10.4,6.3
			c37.7,0,136.7-62.8,145.1-71.2c0.7,14.6-5.5,28.5-5.5,34.8c0,6.3,4.8,14.8,11.8,14.8c7,0,17.5-10.5,32.8-18.8
			c-0.7,4.9,3.5,12.6,9.1,12.6c11.9,0,48.1-29.3,55.1-34.2c-1.7,13.2-10.1,28.6-14.9,34.6c-3.3-1-8.3-1.5-11.8-1.5
			c-14.4,0-54.2,42.2-54.2,61.8c0,7.7,4.2,15.4,11.8,15.4c10.7,0,49.1-31.8,63.2-64c6.3,0.7,16.4,5.4,16.4,0.4
			C647.3,159.7,640.7,156.3,635.1,154.9 M570.9,211.4c-2.5,0-4.1-1.1-4.1-6.7c0-17.9,37.4-43.3,50.4-43.3
			C609.6,177.9,577.9,211.4,570.9,211.4 M558.7,53.2c0-5.2,3.9-9.4,8.8-9.4c4.8,0,8.7,4.2,8.7,9.4c0,5.2-3.9,9.4-8.7,9.4
			C562.6,62.7,558.7,58.4,558.7,53.2 M675.9,120.6c-4.9,6.3-17.4,21-17.4,26.5c0,5.6,2.8,9,7,9c10.5,0,44.7-41.1,60.7-41.1
			c11.9,0-7.7,42.5,18.2,42.5c9.3,0,40.6-20.7,40.6-32.6c0-2.1-2.2-5.8-5-5.8c-1.7,0-23,25.8-32.1,25.8c-7.7,0,0-16,0-26.5
			c0-10.9-1.7-20.2-12.6-20.2c-14.6,0-35.6,18.8-40.5,21.6c2.1-4.2,2.8-6.3,2.8-9.1c0-5.6-7-11.9-12.6-11.9
			c-4.8,0-30.6,13.2-30.6,30.2C654.4,133.3,669.7,118.5,675.9,120.6"/>
		<path class="st0" d="M783.3,200h3v-6.7h2.2l4.1,6.7h3.2l-4.3-6.9c2.2-0.3,3.9-1.7,3.9-4.5c0-3.2-1.8-5-5.8-5h-6.3V200
			 M786.3,186.2h2.2c1.8,0,3.9,0.1,3.9,2.3c0,2.2-2,2.3-3.9,2.3h-2.2V186.2z M774.5,191.9c0,7.9,6.4,14.4,14.3,14.4
			c7.9,0,14.3-6.4,14.3-14.4c0-7.9-6.4-14.3-14.3-14.3C780.9,177.6,774.5,184,774.5,191.9 M777,191.9c0-6.5,5.3-11.8,11.8-11.8
			c6.5,0,11.8,5.3,11.8,11.8c0,6.5-5.3,11.8-11.8,11.8C782.3,203.7,777,198.4,777,191.9"/>
	</g>
	<line class="st0" x1="464.5" y1="152.6" x2="464.5" y2="160.6"/>
	<line class="st0" x1="425.9" y1="160.6" x2="425.9" y2="152.6"/>
</g>
</svg>
