<svg id="svg" version="1.1" width="400" height="200" viewBox="0 0 400 200" xmlns="http://www.w3.org/2000/svg" xmlns:xlink="http://www.w3.org/1999/xlink" ><g id="svgg"><path id="path0" d="M158.498 63.300 C 158.498 83.430,158.521 91.635,158.550 81.534 C 158.579 71.433,158.579 54.963,158.550 44.934 C 158.521 34.905,158.498 43.170,158.498 63.300 M222.490 63.300 C 222.490 67.150,222.517 68.697,222.550 66.737 C 222.583 64.778,222.582 61.628,222.550 59.737 C 222.517 57.847,222.490 59.450,222.490 63.300 " stroke="none" fill="#000000" fill-rule="evenodd"></path><path id="path1" d="M350.050 116.732 C 349.853 116.812,349.800 119.852,349.800 130.990 L 349.800 145.148 350.550 145.272 C 352.726 145.631,355.200 145.368,355.200 144.777 C 355.200 144.570,355.290 144.400,355.400 144.400 C 355.529 144.400,355.600 142.237,355.600 138.312 L 355.600 132.224 356.570 131.212 C 357.104 130.655,357.689 130.200,357.870 130.200 C 358.052 130.200,358.200 130.110,358.200 130.000 C 358.200 129.890,358.515 129.800,358.900 129.800 C 359.285 129.800,359.600 129.880,359.600 129.978 C 359.600 130.076,359.824 130.213,360.097 130.281 C 360.404 130.358,360.642 130.596,360.719 130.903 C 360.787 131.176,360.924 131.400,361.022 131.400 C 361.120 131.400,361.200 131.625,361.200 131.900 C 361.200 132.175,361.290 132.400,361.400 132.400 C 361.529 132.400,361.600 134.658,361.600 138.774 L 361.600 145.148 362.350 145.272 C 363.314 145.431,365.765 145.431,366.360 145.271 L 366.821 145.148 366.760 136.941 C 366.714 130.596,366.643 128.714,366.450 128.650 C 366.313 128.604,366.200 128.349,366.200 128.083 C 366.200 127.817,366.116 127.600,366.013 127.600 C 365.911 127.600,365.776 127.442,365.715 127.250 C 365.539 126.703,364.746 125.872,364.250 125.715 C 364.003 125.637,363.800 125.489,363.800 125.387 C 363.800 125.284,363.575 125.200,363.300 125.200 C 363.025 125.200,362.800 125.110,362.800 125.000 C 362.800 124.444,357.681 124.831,357.200 125.423 C 357.145 125.491,356.898 125.609,356.650 125.687 C 356.403 125.764,356.200 125.911,356.200 126.013 C 356.200 126.116,356.065 126.200,355.900 126.200 C 355.643 126.200,355.600 125.582,355.600 121.838 C 355.600 116.317,355.762 116.593,352.542 116.616 C 351.309 116.624,350.188 116.677,350.050 116.732 M178.800 117.400 C 178.800 117.510,178.665 117.600,178.500 117.600 C 178.335 117.600,178.200 117.735,178.200 117.900 C 178.200 118.065,178.110 118.200,178.000 118.200 C 177.881 118.200,177.800 118.955,177.800 120.064 C 177.800 122.068,178.175 122.800,179.202 122.800 C 179.421 122.800,179.600 122.890,179.600 123.000 C 179.600 123.113,180.167 123.200,180.900 123.200 C 181.633 123.200,182.200 123.113,182.200 123.000 C 182.200 122.890,182.379 122.800,182.598 122.800 C 183.162 122.800,183.800 122.192,183.800 121.656 C 183.800 121.405,183.890 121.200,184.000 121.200 C 184.110 121.200,184.200 120.710,184.200 120.112 C 184.200 119.513,184.110 118.968,184.000 118.900 C 183.890 118.832,183.800 118.577,183.800 118.333 C 183.800 117.442,183.181 117.200,180.898 117.200 C 179.633 117.200,178.800 117.279,178.800 117.400 M63.600 118.000 C 63.600 118.110,63.195 118.200,62.700 118.200 C 62.205 118.200,61.800 118.278,61.800 118.374 C 61.800 118.470,61.440 118.606,61.000 118.677 C 60.560 118.747,60.200 118.894,60.200 119.002 C 60.200 119.111,60.065 119.200,59.900 119.200 C 59.735 119.200,59.600 119.290,59.600 119.400 C 59.600 119.510,59.417 119.600,59.194 119.600 C 58.970 119.600,58.736 119.735,58.672 119.900 C 58.609 120.065,58.430 120.200,58.275 120.200 C 57.953 120.200,56.600 121.527,56.600 121.844 C 56.600 121.959,56.433 122.199,56.229 122.377 C 56.024 122.554,55.793 122.903,55.715 123.150 C 55.637 123.397,55.489 123.600,55.387 123.600 C 55.284 123.600,55.200 123.735,55.200 123.900 C 55.200 124.065,55.118 124.200,55.019 124.200 C 54.919 124.200,54.776 124.650,54.700 125.200 C 54.624 125.750,54.481 126.200,54.381 126.200 C 54.282 126.200,54.200 126.418,54.200 126.683 C 54.200 126.949,54.088 127.204,53.950 127.250 C 53.759 127.314,53.700 128.484,53.700 132.200 C 53.700 135.916,53.759 137.086,53.950 137.150 C 54.088 137.196,54.200 137.496,54.200 137.817 C 54.200 138.138,54.280 138.400,54.378 138.400 C 54.475 138.400,54.617 138.726,54.691 139.125 C 54.832 139.876,55.119 140.488,55.550 140.957 C 55.688 141.106,55.800 141.310,55.800 141.411 C 55.800 141.814,58.443 144.219,59.011 144.332 C 59.335 144.397,59.600 144.529,59.600 144.625 C 59.600 144.721,59.727 144.800,59.883 144.800 C 60.039 144.800,60.198 144.893,60.236 145.008 C 60.274 145.122,60.956 145.270,61.753 145.337 C 62.549 145.403,63.200 145.535,63.200 145.629 C 63.200 145.723,64.100 145.800,65.200 145.800 C 66.300 145.800,67.200 145.723,67.200 145.628 C 67.200 145.534,67.763 145.398,68.450 145.327 C 69.138 145.255,69.730 145.107,69.767 144.998 C 69.803 144.889,70.006 144.800,70.217 144.800 C 70.427 144.800,70.600 144.720,70.600 144.622 C 70.600 144.524,70.833 144.385,71.117 144.314 C 72.512 143.963,73.189 141.835,72.712 139.295 C 72.566 138.517,70.940 138.202,70.672 138.900 C 70.609 139.065,70.387 139.200,70.179 139.200 C 69.970 139.200,69.800 139.283,69.800 139.384 C 69.800 139.485,69.530 139.628,69.200 139.700 C 68.870 139.772,68.600 139.915,68.600 140.016 C 68.600 140.117,68.375 140.200,68.100 140.200 C 67.825 140.200,67.600 140.290,67.600 140.400 C 67.600 140.652,64.921 140.666,64.447 140.417 C 64.256 140.316,63.784 140.097,63.398 139.930 C 62.393 139.496,60.794 137.715,60.658 136.880 C 60.597 136.506,60.469 136.200,60.374 136.200 C 60.278 136.200,60.200 135.885,60.200 135.500 C 60.200 135.115,60.110 134.800,60.000 134.800 C 59.876 134.800,59.800 133.733,59.800 132.000 C 59.800 130.267,59.876 129.200,60.000 129.200 C 60.110 129.200,60.200 128.890,60.200 128.512 C 60.200 128.133,60.280 127.774,60.377 127.714 C 60.475 127.654,60.614 127.288,60.686 126.902 C 60.759 126.516,60.904 126.200,61.009 126.200 C 61.114 126.200,61.200 126.067,61.200 125.905 C 61.200 125.478,62.806 123.938,63.687 123.519 C 64.594 123.089,68.004 123.112,68.150 123.550 C 68.196 123.688,68.451 123.800,68.717 123.800 C 68.983 123.800,69.200 123.884,69.200 123.987 C 69.200 124.089,69.403 124.237,69.650 124.315 C 69.898 124.393,70.249 124.629,70.432 124.838 C 70.819 125.283,71.967 125.503,72.400 125.215 C 73.242 124.653,72.666 119.974,71.718 119.675 C 71.488 119.602,71.162 119.384,70.993 119.190 C 70.824 118.996,70.261 118.774,69.743 118.696 C 69.224 118.618,68.800 118.475,68.800 118.377 C 68.800 118.280,68.440 118.200,68.000 118.200 C 67.560 118.200,67.200 118.110,67.200 118.000 C 67.200 117.881,66.467 117.800,65.400 117.800 C 64.333 117.800,63.600 117.881,63.600 118.000 M90.200 118.000 C 90.200 118.110,89.885 118.200,89.500 118.200 C 89.115 118.200,88.800 118.278,88.800 118.374 C 88.800 118.469,88.477 118.600,88.082 118.664 C 87.687 118.728,87.214 118.952,87.032 119.162 C 86.849 119.371,86.498 119.607,86.250 119.685 C 86.002 119.763,85.800 119.911,85.800 120.015 C 85.800 120.118,85.579 120.394,85.310 120.629 C 85.040 120.863,84.763 121.313,84.694 121.628 C 84.625 121.942,84.507 122.200,84.433 122.200 C 83.796 122.200,83.338 128.146,83.959 128.353 C 84.092 128.397,84.200 128.651,84.200 128.917 C 84.200 129.183,84.290 129.400,84.400 129.400 C 84.510 129.400,84.600 129.583,84.600 129.806 C 84.600 130.030,84.735 130.264,84.900 130.328 C 85.065 130.391,85.200 130.568,85.200 130.721 C 85.200 131.047,85.905 131.800,86.210 131.800 C 86.325 131.800,86.628 132.025,86.882 132.300 C 87.137 132.575,87.448 132.800,87.573 132.800 C 87.698 132.800,87.800 132.880,87.800 132.978 C 87.800 133.075,88.115 133.215,88.500 133.287 C 88.885 133.359,89.200 133.504,89.200 133.609 C 89.200 133.714,89.335 133.800,89.500 133.800 C 89.665 133.800,89.800 133.880,89.800 133.978 C 89.800 134.075,90.115 134.215,90.500 134.287 C 90.885 134.359,91.200 134.504,91.200 134.609 C 91.200 134.714,91.335 134.800,91.500 134.800 C 91.665 134.800,91.800 134.890,91.800 135.000 C 91.800 135.110,91.945 135.200,92.122 135.200 C 92.810 135.200,94.200 136.918,94.200 137.768 C 94.200 138.839,93.434 140.200,92.831 140.200 C 92.722 140.200,92.596 140.313,92.550 140.450 C 92.490 140.628,91.875 140.700,90.400 140.700 C 88.924 140.700,88.309 140.628,88.250 140.450 C 88.204 140.313,87.949 140.200,87.683 140.200 C 87.418 140.200,87.200 140.117,87.200 140.016 C 87.200 139.915,86.908 139.768,86.550 139.689 C 86.193 139.611,85.760 139.384,85.588 139.187 C 85.087 138.609,83.717 138.583,83.636 139.150 C 83.601 139.398,83.488 139.600,83.386 139.600 C 83.284 139.600,83.200 140.410,83.200 141.400 C 83.200 142.390,83.269 143.200,83.353 143.200 C 83.436 143.200,83.594 143.400,83.703 143.645 C 83.812 143.892,84.189 144.172,84.550 144.274 C 84.908 144.375,85.200 144.535,85.200 144.629 C 85.200 144.723,85.328 144.800,85.483 144.800 C 85.639 144.800,85.797 144.891,85.834 145.003 C 85.872 145.115,86.509 145.263,87.251 145.332 C 87.993 145.401,88.600 145.535,88.600 145.629 C 88.600 145.723,89.545 145.800,90.700 145.800 C 91.855 145.800,92.800 145.723,92.800 145.628 C 92.800 145.534,93.363 145.398,94.050 145.327 C 94.738 145.255,95.330 145.107,95.367 144.998 C 95.403 144.889,95.606 144.800,95.817 144.800 C 96.028 144.800,96.200 144.710,96.200 144.600 C 96.200 144.490,96.329 144.400,96.486 144.400 C 96.867 144.400,99.200 142.077,99.200 141.698 C 99.200 141.534,99.289 141.400,99.398 141.400 C 99.506 141.400,99.653 141.040,99.723 140.600 C 99.794 140.160,99.930 139.800,100.026 139.800 C 100.122 139.800,100.200 138.630,100.200 137.200 C 100.200 135.600,100.123 134.600,100.000 134.600 C 99.890 134.600,99.800 134.381,99.800 134.114 C 99.800 133.847,99.665 133.494,99.500 133.329 C 99.335 133.164,99.200 132.932,99.200 132.814 C 99.200 132.696,99.116 132.600,99.013 132.600 C 98.911 132.600,98.771 132.425,98.703 132.210 C 98.635 131.996,98.409 131.766,98.200 131.700 C 97.991 131.634,97.766 131.409,97.700 131.200 C 97.634 130.991,97.389 130.760,97.155 130.686 C 96.922 130.612,96.546 130.379,96.319 130.168 C 96.093 129.957,95.681 129.729,95.404 129.661 C 95.127 129.594,94.855 129.480,94.800 129.409 C 94.631 129.190,93.259 128.600,92.920 128.600 C 92.744 128.600,92.600 128.510,92.600 128.400 C 92.600 128.290,92.420 128.200,92.200 128.200 C 91.980 128.200,91.800 128.116,91.800 128.013 C 91.800 127.911,91.621 127.770,91.403 127.701 C 89.432 127.075,89.025 123.200,90.931 123.200 C 91.079 123.200,91.200 123.110,91.200 123.000 C 91.200 122.884,91.833 122.800,92.700 122.800 C 93.525 122.800,94.200 122.878,94.200 122.974 C 94.200 123.070,94.560 123.206,95.000 123.277 C 95.440 123.347,95.800 123.494,95.800 123.602 C 95.800 123.711,95.973 123.800,96.183 123.800 C 96.394 123.800,96.602 123.906,96.645 124.035 C 96.690 124.170,97.145 124.276,97.712 124.285 L 98.700 124.300 98.757 122.128 L 98.814 119.957 98.224 119.393 C 97.837 119.023,97.321 118.783,96.717 118.692 C 96.213 118.616,95.800 118.475,95.800 118.377 C 95.800 118.280,95.535 118.200,95.212 118.200 C 94.888 118.200,94.568 118.110,94.500 118.000 C 94.430 117.887,93.465 117.800,92.288 117.800 C 91.029 117.800,90.200 117.879,90.200 118.000 M29.800 118.400 C 29.800 118.510,29.575 118.600,29.300 118.600 L 28.800 118.600 28.800 128.700 C 28.800 135.300,28.869 138.800,29.000 138.800 C 29.110 138.800,29.200 139.025,29.200 139.300 C 29.200 139.575,29.278 139.800,29.374 139.800 C 29.470 139.800,29.606 140.160,29.677 140.600 C 29.747 141.040,29.894 141.400,30.002 141.400 C 30.111 141.400,30.200 141.531,30.200 141.691 C 30.200 142.069,32.234 144.120,32.780 144.294 C 33.011 144.367,33.200 144.511,33.200 144.613 C 33.200 144.716,33.418 144.800,33.683 144.800 C 33.949 144.800,34.197 144.889,34.233 144.998 C 34.270 145.107,34.863 145.255,35.550 145.327 C 36.238 145.398,36.800 145.534,36.800 145.628 C 36.800 145.723,37.880 145.800,39.200 145.800 C 40.520 145.800,41.600 145.723,41.600 145.628 C 41.600 145.534,42.163 145.398,42.850 145.327 C 43.538 145.255,44.130 145.107,44.167 144.998 C 44.203 144.889,44.451 144.800,44.717 144.800 C 44.983 144.800,45.200 144.716,45.200 144.613 C 45.200 144.511,45.394 144.365,45.630 144.290 C 46.287 144.082,48.613 141.587,48.739 140.955 C 48.800 140.650,48.929 140.400,49.025 140.400 C 49.121 140.400,49.200 140.183,49.200 139.917 C 49.200 139.651,49.313 139.396,49.450 139.350 C 49.645 139.285,49.713 136.979,49.760 128.933 L 49.820 118.600 49.310 118.600 C 49.030 118.600,48.800 118.510,48.800 118.400 C 48.800 118.281,48.067 118.200,47.000 118.200 C 46.010 118.200,45.200 118.280,45.200 118.378 C 45.200 118.476,44.975 118.613,44.700 118.682 L 44.200 118.808 44.200 127.804 C 44.200 132.900,44.123 136.800,44.023 136.800 C 43.925 136.800,43.786 137.197,43.713 137.682 C 43.639 138.174,43.451 138.614,43.287 138.677 C 43.126 138.739,42.908 139.017,42.802 139.295 C 42.684 139.605,42.454 139.800,42.205 139.800 C 41.982 139.800,41.800 139.890,41.800 140.000 C 41.800 140.110,41.673 140.200,41.517 140.200 C 41.361 140.200,41.197 140.310,41.152 140.444 C 41.032 140.805,38.190 140.766,37.470 140.394 C 36.737 140.016,35.200 138.468,35.200 138.109 C 35.200 137.957,35.087 137.796,34.950 137.750 C 34.756 137.685,34.686 135.566,34.639 128.267 L 34.578 118.867 33.822 118.534 C 32.974 118.160,29.800 118.054,29.800 118.400 M153.749 118.717 C 153.572 118.894,153.545 144.423,153.721 144.884 C 153.867 145.262,165.600 145.377,165.600 145.000 C 165.600 144.890,165.960 144.800,166.400 144.800 C 166.840 144.800,167.200 144.722,167.200 144.626 C 167.200 144.530,167.560 144.394,168.000 144.323 C 168.440 144.253,168.800 144.117,168.800 144.021 C 168.800 143.925,168.958 143.790,169.150 143.720 C 169.741 143.506,170.402 143.073,170.818 142.626 C 171.037 142.392,171.296 142.200,171.394 142.200 C 171.493 142.200,171.629 142.025,171.697 141.810 C 171.765 141.596,171.996 141.365,172.210 141.297 C 172.424 141.229,172.654 140.954,172.721 140.687 C 172.788 140.419,172.924 140.200,173.022 140.200 C 173.120 140.200,173.200 140.020,173.200 139.800 C 173.200 139.580,173.283 139.400,173.384 139.400 C 173.485 139.400,173.628 139.130,173.700 138.800 C 173.772 138.470,173.915 138.200,174.016 138.200 C 174.117 138.200,174.200 137.893,174.200 137.517 C 174.200 137.141,174.313 136.796,174.450 136.750 C 174.641 136.686,174.700 135.496,174.700 131.700 C 174.700 127.905,174.641 126.714,174.450 126.650 C 174.313 126.604,174.200 126.259,174.200 125.883 C 174.200 125.508,174.110 125.200,174.000 125.200 C 173.890 125.200,173.800 125.101,173.800 124.980 C 173.800 124.563,173.121 123.299,172.661 122.860 C 172.408 122.617,172.200 122.335,172.200 122.233 C 172.200 122.077,171.024 120.964,170.300 120.433 C 169.950 120.177,168.648 119.600,168.420 119.600 C 168.299 119.600,168.200 119.510,168.200 119.400 C 168.200 119.290,167.983 119.200,167.717 119.200 C 167.451 119.200,167.196 119.088,167.150 118.950 C 167.056 118.669,154.025 118.442,153.749 118.717 M257.450 118.726 C 257.053 118.896,257.088 144.517,257.486 144.914 C 257.835 145.264,269.286 145.346,269.500 145.000 C 269.568 144.890,269.843 144.800,270.112 144.800 C 270.380 144.800,270.600 144.722,270.600 144.626 C 270.600 144.530,270.960 144.394,271.400 144.323 C 271.840 144.253,272.200 144.106,272.200 143.998 C 272.200 143.889,272.335 143.800,272.500 143.800 C 272.665 143.800,272.800 143.716,272.800 143.613 C 272.800 143.511,272.975 143.371,273.190 143.303 C 273.404 143.235,273.634 143.009,273.700 142.800 C 273.766 142.591,273.996 142.365,274.210 142.297 C 274.424 142.229,274.654 141.954,274.721 141.687 C 274.788 141.419,274.924 141.200,275.022 141.200 C 275.120 141.200,275.200 141.028,275.200 140.817 C 275.200 140.606,275.313 140.396,275.450 140.350 C 275.840 140.220,275.797 134.652,275.400 133.882 C 274.801 132.721,273.332 131.200,272.808 131.200 C 272.694 131.200,272.600 131.110,272.600 131.000 C 272.600 130.890,272.420 130.800,272.200 130.800 C 271.664 130.800,271.690 130.462,272.241 130.287 C 272.756 130.124,273.200 129.719,273.200 129.414 C 273.200 129.296,273.288 129.200,273.396 129.200 C 273.504 129.200,273.649 128.975,273.718 128.700 C 273.787 128.425,273.924 128.200,274.022 128.200 C 274.120 128.200,274.200 127.885,274.200 127.500 C 274.200 127.115,274.290 126.800,274.400 126.800 C 274.514 126.800,274.600 126.204,274.600 125.412 C 274.600 124.648,274.510 123.968,274.400 123.900 C 274.290 123.832,274.200 123.512,274.200 123.188 C 274.200 122.865,274.121 122.600,274.025 122.600 C 273.929 122.600,273.796 122.329,273.729 121.997 C 273.600 121.350,271.959 119.600,271.482 119.600 C 271.327 119.600,271.200 119.510,271.200 119.400 C 271.200 119.290,270.983 119.200,270.717 119.200 C 270.451 119.200,270.196 119.088,270.150 118.950 C 270.065 118.695,258.017 118.482,257.450 118.726 M164.559 123.578 C 164.600 123.700,164.761 123.800,164.917 123.800 C 165.072 123.800,165.200 123.890,165.200 124.000 C 165.200 124.110,165.331 124.200,165.490 124.200 C 165.650 124.200,166.235 124.654,166.790 125.210 C 167.346 125.765,167.800 126.350,167.800 126.510 C 167.800 126.669,167.890 126.800,168.000 126.800 C 168.110 126.800,168.200 127.017,168.200 127.283 C 168.200 127.549,168.313 127.804,168.450 127.850 C 168.639 127.913,168.700 128.885,168.700 131.800 C 168.700 134.716,168.639 135.687,168.450 135.750 C 168.313 135.796,168.200 136.051,168.200 136.317 C 168.200 136.583,168.116 136.800,168.013 136.800 C 167.911 136.800,167.765 136.995,167.689 137.234 C 167.441 138.015,165.656 139.616,164.896 139.739 C 164.513 139.801,164.200 139.931,164.200 140.026 C 164.200 140.122,163.885 140.200,163.500 140.200 C 163.115 140.200,162.800 140.290,162.800 140.400 C 162.800 140.519,162.067 140.600,161.000 140.600 L 159.200 140.600 159.200 131.871 L 159.200 123.143 161.843 123.250 C 163.509 123.317,164.513 123.439,164.559 123.578 M267.552 123.556 C 267.598 123.694,267.763 123.934,267.918 124.089 C 268.073 124.244,268.200 124.468,268.200 124.586 C 268.200 124.704,268.290 124.800,268.400 124.800 C 268.511 124.800,268.600 125.333,268.600 126.000 C 268.600 126.667,268.511 127.200,268.400 127.200 C 268.290 127.200,268.200 127.335,268.200 127.500 C 268.200 127.665,268.116 127.800,268.013 127.800 C 267.911 127.800,267.770 127.980,267.700 128.200 C 267.630 128.419,267.354 128.654,267.087 128.721 C 266.819 128.788,266.600 128.924,266.600 129.022 C 266.600 129.120,265.745 129.200,264.700 129.200 L 262.800 129.200 262.800 126.178 L 262.800 123.157 265.134 123.231 C 266.774 123.283,267.493 123.380,267.552 123.556 M107.200 125.000 C 107.200 125.110,106.975 125.200,106.700 125.200 C 106.425 125.200,106.200 125.278,106.200 125.374 C 106.200 125.470,105.840 125.606,105.400 125.677 C 104.960 125.747,104.600 125.894,104.600 126.002 C 104.600 126.111,104.465 126.200,104.300 126.200 C 103.799 126.200,103.200 126.962,103.200 127.600 C 103.200 127.930,103.110 128.200,103.000 128.200 C 102.890 128.200,102.800 128.375,102.800 128.588 C 102.800 128.802,102.890 129.032,103.000 129.100 C 103.110 129.168,103.200 129.578,103.200 130.012 C 103.200 130.579,103.284 130.800,103.500 130.800 C 103.665 130.800,103.800 130.890,103.800 131.000 C 103.800 131.110,104.025 131.200,104.300 131.200 C 104.575 131.200,104.800 131.110,104.800 131.000 C 104.800 130.890,104.980 130.800,105.200 130.800 C 105.420 130.800,105.600 130.717,105.600 130.616 C 105.600 130.515,105.870 130.372,106.200 130.300 C 106.530 130.228,106.800 130.085,106.800 129.984 C 106.800 129.883,107.017 129.800,107.283 129.800 C 107.549 129.800,107.800 129.700,107.841 129.578 C 107.886 129.441,108.597 129.346,109.707 129.328 C 111.661 129.297,112.800 129.903,112.800 130.972 C 112.800 131.207,112.890 131.400,113.000 131.400 C 113.110 131.400,113.200 131.805,113.200 132.300 L 113.200 133.200 110.500 133.200 C 109.015 133.200,107.800 133.280,107.800 133.377 C 107.800 133.474,107.305 133.616,106.700 133.691 C 106.095 133.767,105.600 133.912,105.600 134.014 C 105.600 134.116,105.420 134.200,105.200 134.200 C 104.980 134.200,104.800 134.280,104.800 134.378 C 104.800 134.476,104.581 134.612,104.313 134.679 C 104.046 134.746,103.771 134.976,103.703 135.190 C 103.635 135.404,103.414 135.632,103.211 135.697 C 102.987 135.768,102.791 136.086,102.712 136.507 C 102.640 136.888,102.496 137.200,102.391 137.200 C 102.281 137.200,102.200 138.173,102.200 139.500 C 102.200 140.765,102.278 141.800,102.374 141.800 C 102.469 141.800,102.598 142.112,102.660 142.494 C 102.772 143.182,104.122 144.800,104.584 144.800 C 104.703 144.800,104.800 144.887,104.800 144.993 C 104.800 145.099,105.250 145.246,105.800 145.319 C 106.350 145.392,106.800 145.530,106.800 145.626 C 106.800 145.853,110.343 145.854,110.484 145.626 C 110.543 145.531,110.953 145.395,111.396 145.324 C 111.838 145.253,112.200 145.106,112.200 144.998 C 112.200 144.889,112.328 144.800,112.483 144.800 C 112.639 144.800,112.797 144.722,112.833 144.626 C 113.017 144.147,113.800 144.176,113.800 144.662 C 113.800 145.369,116.692 145.735,118.087 145.205 L 118.600 145.010 118.600 137.305 C 118.600 132.302,118.530 129.600,118.400 129.600 C 118.290 129.600,118.200 129.285,118.200 128.900 C 118.200 128.515,118.120 128.200,118.022 128.200 C 117.924 128.200,117.787 127.975,117.718 127.700 C 117.649 127.425,117.504 127.200,117.396 127.200 C 117.288 127.200,117.200 127.104,117.200 126.986 C 117.200 126.709,116.691 126.200,116.414 126.200 C 116.296 126.200,116.200 126.112,116.200 126.004 C 116.200 125.896,115.975 125.751,115.700 125.682 C 115.425 125.613,115.200 125.476,115.200 125.378 C 115.200 125.280,114.980 125.200,114.712 125.200 C 114.443 125.200,114.168 125.110,114.100 125.000 C 114.025 124.879,112.631 124.800,110.588 124.800 C 108.463 124.800,107.200 124.875,107.200 125.000 M130.700 125.062 C 130.480 125.193,130.255 125.355,130.200 125.423 C 130.145 125.491,129.898 125.609,129.650 125.687 C 129.403 125.764,129.200 125.911,129.200 126.013 C 129.200 126.116,129.065 126.200,128.900 126.200 C 128.735 126.200,128.600 126.284,128.600 126.387 C 128.600 126.489,128.433 126.626,128.229 126.691 C 128.024 126.756,127.760 127.009,127.642 127.254 C 127.463 127.625,127.425 127.490,127.414 126.450 L 127.400 125.200 125.386 125.200 C 122.526 125.200,122.800 124.111,122.800 135.460 L 122.800 145.148 123.550 145.272 C 125.681 145.624,128.200 145.355,128.200 144.775 C 128.200 144.569,128.290 144.400,128.400 144.400 C 128.529 144.400,128.600 142.232,128.600 138.297 L 128.600 132.195 129.603 131.197 C 130.154 130.649,130.739 130.200,130.903 130.200 C 131.066 130.200,131.200 130.110,131.200 130.000 C 131.200 129.890,131.515 129.800,131.900 129.800 C 132.285 129.800,132.600 129.880,132.600 129.978 C 132.600 130.076,132.824 130.213,133.097 130.281 C 133.404 130.358,133.642 130.596,133.719 130.903 C 133.787 131.176,133.924 131.400,134.022 131.400 C 134.120 131.400,134.200 131.625,134.200 131.900 C 134.200 132.175,134.290 132.400,134.400 132.400 C 134.529 132.400,134.600 134.658,134.600 138.774 L 134.600 145.148 135.350 145.272 C 136.314 145.431,138.765 145.431,139.360 145.271 L 139.821 145.148 139.760 136.941 C 139.714 130.596,139.643 128.714,139.450 128.650 C 139.313 128.604,139.200 128.349,139.200 128.083 C 139.200 127.817,139.116 127.600,139.013 127.600 C 138.911 127.600,138.776 127.442,138.715 127.250 C 138.539 126.703,137.746 125.872,137.250 125.715 C 137.003 125.637,136.800 125.489,136.800 125.387 C 136.800 125.284,136.575 125.200,136.300 125.200 C 136.025 125.200,135.800 125.110,135.800 125.000 C 135.800 124.708,131.201 124.764,130.700 125.062 M193.200 125.000 C 193.200 125.110,193.065 125.200,192.900 125.200 C 192.735 125.200,192.600 125.290,192.600 125.400 C 192.600 125.510,192.381 125.600,192.114 125.600 C 191.847 125.600,191.494 125.735,191.329 125.900 C 191.164 126.065,190.973 126.200,190.906 126.200 C 190.561 126.200,189.200 127.629,189.200 127.992 C 189.200 128.106,189.112 128.200,189.004 128.200 C 188.896 128.200,188.751 128.425,188.682 128.700 C 188.613 128.975,188.476 129.200,188.378 129.200 C 188.280 129.200,188.200 129.335,188.200 129.500 C 188.200 129.665,188.114 129.800,188.010 129.800 C 187.905 129.800,187.759 130.340,187.684 131.000 C 187.609 131.660,187.470 132.200,187.374 132.200 C 187.278 132.200,187.200 133.685,187.200 135.500 C 187.200 137.315,187.278 138.800,187.374 138.800 C 187.470 138.800,187.609 139.340,187.684 140.000 C 187.759 140.660,187.905 141.200,188.010 141.200 C 188.114 141.200,188.200 141.335,188.200 141.500 C 188.200 141.665,188.290 141.800,188.400 141.800 C 188.510 141.800,188.600 141.931,188.600 142.090 C 188.600 142.468,190.532 144.400,190.910 144.400 C 191.069 144.400,191.200 144.490,191.200 144.600 C 191.200 144.710,191.335 144.800,191.500 144.800 C 191.665 144.800,191.800 144.886,191.800 144.990 C 191.800 145.095,192.340 145.241,193.000 145.316 C 193.660 145.391,194.200 145.530,194.200 145.626 C 194.200 145.722,195.325 145.800,196.700 145.800 C 198.075 145.800,199.200 145.721,199.200 145.623 C 199.200 145.526,199.875 145.384,200.700 145.306 C 201.525 145.229,202.200 145.084,202.200 144.983 C 202.200 144.882,202.380 144.800,202.600 144.800 C 203.509 144.800,203.800 144.144,203.800 142.100 L 203.800 140.200 202.700 140.200 C 202.095 140.200,201.600 140.287,201.600 140.393 C 201.600 140.499,201.150 140.646,200.600 140.719 C 200.050 140.792,199.600 140.930,199.600 141.026 C 199.600 141.256,195.656 141.252,195.514 141.022 C 195.453 140.924,195.161 140.783,194.864 140.709 C 194.276 140.561,193.600 139.899,193.600 139.469 C 193.600 139.321,193.510 139.200,193.400 139.200 C 193.290 139.200,193.200 138.975,193.200 138.700 C 193.200 138.425,193.110 138.200,193.000 138.200 C 192.890 138.200,192.800 137.885,192.800 137.500 L 192.800 136.800 198.414 136.800 C 203.416 136.800,204.065 136.763,204.364 136.463 C 204.784 136.041,204.849 130.383,204.435 130.245 C 204.306 130.202,204.200 129.949,204.200 129.683 C 204.200 129.417,204.110 129.200,204.000 129.200 C 203.890 129.200,203.800 129.065,203.800 128.900 C 203.800 128.735,203.710 128.600,203.600 128.600 C 203.490 128.600,203.400 128.417,203.400 128.194 C 203.400 127.970,203.265 127.736,203.100 127.672 C 202.935 127.609,202.800 127.393,202.800 127.192 C 202.800 126.989,202.600 126.764,202.350 126.685 C 202.103 126.607,201.787 126.383,201.650 126.187 C 201.512 125.992,201.130 125.772,200.800 125.700 C 200.470 125.627,200.200 125.485,200.200 125.384 C 200.200 125.283,200.020 125.200,199.800 125.200 C 199.580 125.200,199.400 125.110,199.400 125.000 C 199.400 124.875,198.233 124.800,196.300 124.800 C 194.367 124.800,193.200 124.875,193.200 125.000 M212.200 125.000 C 212.200 125.110,211.975 125.200,211.700 125.200 C 211.425 125.200,211.200 125.280,211.200 125.378 C 211.200 125.476,210.975 125.613,210.700 125.682 C 210.425 125.751,210.200 125.896,210.200 126.004 C 210.200 126.112,210.065 126.200,209.900 126.200 C 209.735 126.200,209.600 126.284,209.600 126.387 C 209.600 126.489,209.420 126.630,209.200 126.700 C 208.981 126.770,208.746 127.046,208.679 127.313 C 208.612 127.581,208.476 127.800,208.378 127.800 C 208.280 127.800,208.200 127.972,208.200 128.183 C 208.200 128.394,208.088 128.604,207.950 128.650 C 207.764 128.712,207.700 129.545,207.700 131.900 C 207.700 134.256,207.764 135.088,207.950 135.150 C 208.088 135.196,208.200 135.353,208.200 135.500 C 208.200 135.647,208.313 135.807,208.450 135.856 C 208.621 135.918,208.562 136.069,208.263 136.335 C 208.023 136.549,207.766 136.966,207.692 137.262 C 207.617 137.558,207.476 137.800,207.378 137.800 C 207.280 137.800,207.200 138.025,207.200 138.300 C 207.200 138.575,207.110 138.800,207.000 138.800 C 206.890 138.800,206.800 139.250,206.800 139.800 C 206.800 140.350,206.890 140.800,207.000 140.800 C 207.110 140.800,207.200 141.025,207.200 141.300 C 207.200 141.575,207.290 141.800,207.400 141.800 C 207.510 141.800,207.600 141.929,207.600 142.086 C 207.600 142.243,207.745 142.516,207.921 142.693 C 208.217 142.988,208.200 143.054,207.721 143.498 C 207.435 143.763,207.200 144.120,207.200 144.290 C 207.200 144.461,207.117 144.600,207.016 144.600 C 206.915 144.600,206.772 144.870,206.700 145.200 C 206.628 145.530,206.485 145.800,206.384 145.800 C 206.283 145.800,206.200 146.475,206.200 147.300 C 206.200 148.125,206.278 148.800,206.374 148.800 C 206.469 148.800,206.598 149.113,206.661 149.496 C 206.783 150.248,207.472 151.069,208.167 151.290 C 208.405 151.365,208.600 151.511,208.600 151.613 C 208.600 151.716,208.818 151.800,209.083 151.800 C 209.349 151.800,209.598 151.893,209.636 152.008 C 209.674 152.122,210.356 152.270,211.153 152.337 C 211.949 152.403,212.600 152.535,212.600 152.629 C 212.600 152.723,213.545 152.800,214.700 152.800 C 215.855 152.800,216.800 152.723,216.800 152.629 C 216.800 152.535,217.451 152.403,218.247 152.337 C 219.044 152.270,219.726 152.122,219.764 152.008 C 219.802 151.893,220.006 151.800,220.217 151.800 C 220.428 151.800,220.600 151.720,220.600 151.622 C 220.600 151.524,220.832 151.385,221.116 151.314 C 221.664 151.176,223.200 149.778,223.200 149.416 C 223.200 149.297,223.284 149.200,223.388 149.200 C 223.491 149.200,223.636 148.795,223.710 148.300 C 223.785 147.805,223.925 147.400,224.023 147.400 C 224.120 147.400,224.200 146.680,224.200 145.800 C 224.200 144.867,224.117 144.200,224.000 144.200 C 223.890 144.200,223.800 143.981,223.800 143.714 C 223.800 143.447,223.665 143.094,223.500 142.929 C 223.335 142.764,223.200 142.565,223.200 142.488 C 223.200 142.258,222.361 141.600,222.069 141.600 C 221.921 141.600,221.800 141.510,221.800 141.400 C 221.800 141.290,221.673 141.200,221.517 141.200 C 221.361 141.200,221.201 141.103,221.162 140.985 C 221.122 140.867,220.530 140.719,219.845 140.657 C 219.160 140.595,218.600 140.467,218.600 140.372 C 218.600 140.278,217.295 140.200,215.700 140.200 C 213.900 140.200,212.800 140.124,212.800 140.000 C 212.800 139.890,212.665 139.800,212.500 139.800 C 212.335 139.800,212.200 139.672,212.200 139.517 C 212.200 139.361,212.088 139.181,211.950 139.117 C 211.750 139.023,211.750 138.977,211.950 138.883 C 212.088 138.819,212.200 138.650,212.200 138.508 C 212.200 138.214,214.049 138.327,214.167 138.629 C 214.254 138.852,215.800 138.852,215.800 138.629 C 215.800 138.535,216.445 138.404,217.233 138.338 C 218.021 138.272,218.718 138.146,218.783 138.059 C 218.912 137.884,219.533 137.475,219.999 137.258 C 220.352 137.095,221.200 136.273,221.200 136.095 C 221.200 136.027,221.335 135.836,221.500 135.671 C 221.665 135.506,221.800 135.153,221.800 134.886 C 221.800 134.619,221.890 134.400,222.000 134.400 C 222.110 134.400,222.200 134.135,222.200 133.812 C 222.200 133.488,222.290 133.168,222.400 133.100 C 222.510 133.032,222.600 132.492,222.600 131.900 C 222.600 131.308,222.510 130.768,222.400 130.700 C 221.879 130.378,222.200 129.800,222.900 129.800 C 223.285 129.800,223.600 129.710,223.600 129.600 C 223.600 129.490,223.735 129.400,223.900 129.400 C 224.087 129.400,224.200 129.211,224.200 128.900 C 224.200 128.625,224.290 128.400,224.400 128.400 C 224.686 128.400,224.648 126.678,224.350 126.155 C 223.814 125.213,223.765 125.200,220.626 125.200 C 218.840 125.200,217.574 125.119,217.500 125.000 C 217.428 124.883,216.298 124.800,214.788 124.800 C 213.196 124.800,212.200 124.877,212.200 125.000 M231.900 125.000 C 231.832 125.110,231.557 125.200,231.288 125.200 C 231.020 125.200,230.800 125.283,230.800 125.384 C 230.800 125.485,230.547 125.624,230.239 125.691 C 229.930 125.759,229.550 125.991,229.395 126.207 C 229.239 126.423,229.001 126.600,228.865 126.600 C 228.545 126.600,227.600 127.545,227.600 127.865 C 227.600 128.001,227.423 128.239,227.207 128.395 C 226.991 128.550,226.759 128.930,226.691 129.239 C 226.624 129.547,226.485 129.800,226.384 129.800 C 226.283 129.800,226.200 130.018,226.200 130.283 C 226.200 130.549,226.088 130.804,225.950 130.850 C 225.760 130.913,225.700 132.024,225.700 135.500 C 225.700 138.976,225.760 140.087,225.950 140.150 C 226.088 140.196,226.200 140.451,226.200 140.717 C 226.200 140.983,226.280 141.200,226.378 141.200 C 226.476 141.200,226.614 141.430,226.685 141.711 C 226.842 142.335,228.833 144.400,229.278 144.400 C 229.455 144.400,229.600 144.490,229.600 144.600 C 229.600 144.710,229.735 144.800,229.900 144.800 C 230.065 144.800,230.200 144.886,230.200 144.990 C 230.200 145.095,230.740 145.241,231.400 145.316 C 232.060 145.391,232.600 145.530,232.600 145.626 C 232.600 145.722,233.635 145.800,234.900 145.800 C 236.165 145.800,237.200 145.723,237.200 145.628 C 237.200 145.533,237.672 145.400,238.249 145.332 C 238.826 145.263,239.328 145.116,239.365 145.004 C 239.403 144.892,239.606 144.800,239.817 144.800 C 240.028 144.800,240.200 144.716,240.200 144.613 C 240.200 144.511,240.393 144.366,240.630 144.291 C 241.098 144.142,242.800 142.481,242.800 142.173 C 242.800 142.069,242.971 141.799,243.181 141.574 C 243.391 141.349,243.620 140.858,243.690 140.483 C 243.760 140.107,243.904 139.800,244.009 139.800 C 244.114 139.800,244.200 139.485,244.200 139.100 C 244.200 138.715,244.290 138.400,244.400 138.400 C 244.525 138.400,244.600 137.133,244.600 135.000 C 244.600 132.867,244.525 131.600,244.400 131.600 C 244.290 131.600,244.200 131.285,244.200 130.900 C 244.200 130.515,244.110 130.200,244.000 130.200 C 243.890 130.200,243.800 130.011,243.800 129.781 C 243.800 129.318,243.204 128.200,242.957 128.200 C 242.871 128.200,242.800 128.065,242.800 127.900 C 242.800 127.588,241.448 126.200,241.144 126.200 C 241.049 126.200,240.836 126.065,240.671 125.900 C 240.506 125.735,240.198 125.600,239.986 125.600 C 239.774 125.600,239.600 125.510,239.600 125.400 C 239.600 125.290,239.380 125.200,239.112 125.200 C 238.843 125.200,238.568 125.110,238.500 125.000 C 238.426 124.880,237.102 124.800,235.200 124.800 C 233.298 124.800,231.974 124.880,231.900 125.000 M286.000 125.153 C 285.835 125.344,285.526 125.596,285.313 125.713 C 285.101 125.831,284.831 126.097,284.713 126.305 C 284.060 127.462,283.800 127.432,283.800 126.200 L 283.800 125.200 281.786 125.200 C 278.926 125.200,279.200 124.110,279.200 135.471 L 279.200 145.171 280.317 145.311 C 281.568 145.467,284.328 145.338,284.554 145.113 C 284.634 145.033,284.727 142.230,284.761 138.884 C 284.797 135.236,284.897 132.800,285.011 132.800 C 285.115 132.800,285.200 132.706,285.200 132.592 C 285.200 132.366,285.331 132.198,286.400 131.051 L 287.100 130.300 288.900 130.300 L 290.700 130.300 290.756 127.750 C 290.804 125.570,290.768 125.200,290.506 125.200 C 290.338 125.200,290.200 125.110,290.200 125.000 C 290.200 124.616,286.342 124.756,286.000 125.153 M296.600 125.000 C 296.600 125.110,296.375 125.200,296.100 125.200 C 295.825 125.200,295.600 125.280,295.600 125.377 C 295.600 125.475,295.195 125.615,294.700 125.690 C 294.205 125.764,293.800 125.909,293.800 126.012 C 293.800 126.116,293.711 126.200,293.602 126.200 C 293.134 126.200,292.600 126.917,292.600 127.544 C 292.600 127.905,292.510 128.200,292.400 128.200 C 292.290 128.200,292.200 128.425,292.200 128.700 C 292.200 128.975,292.290 129.200,292.400 129.200 C 292.510 129.200,292.600 129.560,292.600 130.000 C 292.600 130.578,292.683 130.800,292.900 130.800 C 293.065 130.800,293.200 130.890,293.200 131.000 C 293.200 131.110,293.425 131.200,293.700 131.200 C 293.975 131.200,294.200 131.110,294.200 131.000 C 294.200 130.890,294.335 130.800,294.500 130.800 C 294.665 130.800,294.800 130.720,294.800 130.622 C 294.800 130.525,295.115 130.385,295.500 130.313 C 295.885 130.241,296.200 130.096,296.200 129.991 C 296.200 129.886,296.418 129.800,296.683 129.800 C 296.949 129.800,297.202 129.695,297.244 129.568 C 297.295 129.416,297.945 129.329,299.117 129.318 C 301.046 129.299,302.200 129.931,302.200 131.007 C 302.200 131.223,302.290 131.400,302.400 131.400 C 302.510 131.400,302.600 131.805,302.600 132.300 L 302.600 133.200 299.900 133.200 C 298.415 133.200,297.200 133.278,297.200 133.374 C 297.200 133.470,296.660 133.609,296.000 133.684 C 295.340 133.759,294.800 133.905,294.800 134.010 C 294.800 134.114,294.665 134.200,294.500 134.200 C 294.335 134.200,294.200 134.290,294.200 134.400 C 294.200 134.510,294.073 134.600,293.917 134.600 C 293.543 134.600,292.200 135.914,292.200 136.280 C 292.200 136.438,292.088 136.604,291.950 136.650 C 291.765 136.712,291.700 137.505,291.700 139.700 C 291.700 141.896,291.765 142.689,291.950 142.750 C 292.088 142.796,292.200 142.922,292.200 143.031 C 292.200 143.412,293.593 144.800,293.975 144.800 C 294.080 144.800,294.200 144.899,294.240 145.020 C 294.280 145.140,294.738 145.287,295.257 145.346 C 295.775 145.404,296.200 145.530,296.200 145.626 C 296.200 145.722,297.010 145.800,298.000 145.800 C 298.990 145.800,299.800 145.720,299.800 145.623 C 299.800 145.525,300.205 145.385,300.700 145.310 C 301.195 145.236,301.600 145.091,301.600 144.988 C 301.600 144.884,301.728 144.800,301.883 144.800 C 302.039 144.800,302.197 144.722,302.233 144.626 C 302.418 144.146,303.200 144.176,303.200 144.663 C 303.200 145.345,305.714 145.712,307.362 145.271 L 307.824 145.147 307.762 136.924 C 307.700 128.644,307.662 128.188,306.985 127.600 C 306.922 127.545,306.700 127.208,306.492 126.850 C 306.284 126.493,305.998 126.200,305.857 126.200 C 305.716 126.200,305.600 126.127,305.600 126.038 C 305.600 125.837,304.182 125.200,303.733 125.200 C 303.550 125.200,303.400 125.110,303.400 125.000 C 303.400 124.875,302.133 124.800,300.000 124.800 C 297.867 124.800,296.600 124.875,296.600 125.000 M319.700 125.062 C 319.480 125.193,319.255 125.355,319.200 125.423 C 319.145 125.491,318.898 125.609,318.650 125.687 C 318.403 125.764,318.200 125.911,318.200 126.013 C 318.200 126.116,318.104 126.200,317.986 126.200 C 317.868 126.200,317.646 126.313,317.493 126.450 C 316.607 127.244,316.625 127.248,316.561 126.248 L 316.500 125.300 314.443 125.243 C 311.517 125.162,311.800 124.066,311.800 135.460 L 311.800 145.148 312.550 145.272 C 314.726 145.631,317.200 145.368,317.200 144.777 C 317.200 144.570,317.290 144.400,317.400 144.400 C 317.529 144.400,317.600 142.232,317.600 138.297 L 317.600 132.195 318.603 131.197 C 319.154 130.649,319.739 130.200,319.903 130.200 C 320.066 130.200,320.200 130.110,320.200 130.000 C 320.200 129.890,320.515 129.800,320.900 129.800 C 321.285 129.800,321.600 129.880,321.600 129.978 C 321.600 130.076,321.824 130.213,322.097 130.281 C 322.404 130.358,322.642 130.596,322.719 130.903 C 322.787 131.176,322.924 131.400,323.022 131.400 C 323.120 131.400,323.200 131.625,323.200 131.900 C 323.200 132.175,323.290 132.400,323.400 132.400 C 323.529 132.400,323.600 134.658,323.600 138.774 L 323.600 145.148 324.350 145.272 C 325.314 145.431,327.765 145.431,328.360 145.271 L 328.821 145.148 328.760 136.941 C 328.714 130.596,328.643 128.714,328.450 128.650 C 328.313 128.604,328.200 128.349,328.200 128.083 C 328.200 127.817,328.116 127.600,328.013 127.600 C 327.911 127.600,327.776 127.442,327.715 127.250 C 327.539 126.703,326.746 125.872,326.250 125.715 C 326.003 125.637,325.800 125.489,325.800 125.387 C 325.800 125.284,325.575 125.200,325.300 125.200 C 325.025 125.200,324.800 125.110,324.800 125.000 C 324.800 124.708,320.201 124.764,319.700 125.062 M338.200 125.000 C 338.200 125.110,337.975 125.200,337.700 125.200 C 337.425 125.200,337.200 125.283,337.200 125.384 C 337.200 125.485,336.942 125.625,336.628 125.694 C 336.313 125.763,335.863 126.040,335.629 126.310 C 335.394 126.579,335.118 126.800,335.015 126.800 C 334.911 126.800,334.771 126.975,334.703 127.190 C 334.635 127.404,334.414 127.632,334.211 127.697 C 333.987 127.768,333.791 128.086,333.712 128.507 C 333.640 128.888,333.496 129.200,333.391 129.200 C 333.286 129.200,333.200 129.335,333.200 129.500 C 333.200 129.665,333.114 129.800,333.010 129.800 C 332.905 129.800,332.759 130.340,332.684 131.000 C 332.609 131.660,332.470 132.200,332.374 132.200 C 332.278 132.200,332.200 133.775,332.200 135.700 C 332.200 137.625,332.278 139.200,332.374 139.200 C 332.470 139.200,332.608 139.650,332.681 140.200 C 332.754 140.750,332.901 141.200,333.007 141.200 C 333.113 141.200,333.200 141.335,333.200 141.500 C 333.200 141.665,333.280 141.800,333.378 141.800 C 333.476 141.800,333.613 142.025,333.682 142.300 C 333.751 142.575,333.896 142.800,334.004 142.800 C 334.112 142.800,334.200 142.889,334.200 142.998 C 334.200 143.312,335.044 144.200,335.342 144.200 C 335.491 144.200,335.664 144.335,335.728 144.500 C 335.791 144.665,336.006 144.800,336.205 144.800 C 336.404 144.800,336.600 144.901,336.642 145.025 C 336.683 145.149,337.186 145.296,337.758 145.351 C 338.331 145.406,338.800 145.529,338.800 145.625 C 338.800 145.855,342.344 145.853,342.486 145.623 C 342.546 145.526,343.091 145.385,343.697 145.309 C 344.304 145.233,344.800 145.109,344.800 145.033 C 344.800 144.896,345.400 144.533,346.026 144.292 C 346.695 144.034,347.158 140.365,346.679 139.116 C 346.509 138.674,345.425 138.711,345.023 139.171 C 344.846 139.376,344.498 139.607,344.250 139.685 C 344.003 139.763,343.800 139.911,343.800 140.013 C 343.800 140.116,343.673 140.200,343.517 140.200 C 343.361 140.200,343.196 140.313,343.150 140.450 C 343.092 140.622,342.575 140.700,341.500 140.700 C 340.424 140.700,339.907 140.622,339.850 140.450 C 339.804 140.313,339.678 140.200,339.569 140.200 C 339.249 140.200,338.830 139.688,338.688 139.124 C 338.616 138.836,338.476 138.600,338.378 138.600 C 338.280 138.600,338.200 138.375,338.200 138.100 C 338.200 137.825,338.110 137.600,338.000 137.600 C 337.878 137.600,337.800 136.667,337.800 135.200 C 337.800 133.733,337.878 132.800,338.000 132.800 C 338.110 132.800,338.200 132.617,338.200 132.393 C 338.200 131.632,339.673 129.800,340.285 129.800 C 340.458 129.800,340.600 129.710,340.600 129.600 C 340.600 129.490,340.960 129.400,341.400 129.400 C 341.840 129.400,342.200 129.490,342.200 129.600 C 342.200 129.710,342.425 129.800,342.700 129.800 C 342.975 129.800,343.200 129.880,343.200 129.978 C 343.200 130.076,343.425 130.213,343.700 130.282 C 343.975 130.351,344.200 130.496,344.200 130.604 C 344.200 130.712,344.335 130.800,344.500 130.800 C 344.665 130.800,344.800 130.879,344.800 130.975 C 344.800 131.071,345.085 131.207,345.433 131.277 C 346.549 131.500,346.800 131.051,346.800 128.833 L 346.800 126.928 346.075 126.264 C 345.676 125.899,345.181 125.600,344.975 125.600 C 344.769 125.600,344.600 125.510,344.600 125.400 C 344.600 125.290,344.420 125.200,344.200 125.200 C 343.980 125.200,343.800 125.110,343.800 125.000 C 343.800 124.876,342.733 124.800,341.000 124.800 C 339.267 124.800,338.200 124.876,338.200 125.000 M178.450 125.499 C 178.257 125.718,178.200 128.007,178.200 135.477 L 178.200 145.171 179.317 145.311 C 180.568 145.467,183.328 145.338,183.554 145.113 C 183.959 144.708,183.827 125.955,183.416 125.572 C 182.895 125.086,178.865 125.027,178.450 125.499 M196.600 128.974 C 196.600 129.069,196.916 129.199,197.302 129.262 C 198.122 129.395,198.528 129.745,198.712 130.478 C 198.785 130.767,198.924 131.053,199.022 131.114 C 199.120 131.174,199.200 131.488,199.200 131.812 C 199.200 132.135,199.290 132.400,199.400 132.400 C 199.510 132.400,199.600 132.490,199.600 132.600 C 199.600 132.725,198.333 132.800,196.200 132.800 L 192.800 132.800 192.800 132.300 C 192.800 132.025,192.890 131.800,193.000 131.800 C 193.110 131.800,193.200 131.575,193.200 131.300 C 193.200 131.025,193.288 130.800,193.396 130.800 C 193.504 130.800,193.649 130.575,193.718 130.300 C 193.787 130.025,193.958 129.800,194.097 129.800 C 194.237 129.800,194.463 129.665,194.600 129.500 C 194.737 129.335,195.063 129.200,195.324 129.200 C 195.586 129.200,195.800 129.110,195.800 129.000 C 195.800 128.890,195.980 128.800,196.200 128.800 C 196.420 128.800,196.600 128.878,196.600 128.974 M215.200 129.000 C 215.200 129.110,215.421 129.200,215.692 129.200 C 215.963 129.200,216.300 129.338,216.442 129.507 C 216.584 129.676,216.813 129.939,216.950 130.093 C 217.088 130.246,217.200 130.558,217.200 130.786 C 217.200 131.014,217.290 131.200,217.400 131.200 C 217.510 131.200,217.600 131.425,217.600 131.700 C 217.600 131.975,217.510 132.200,217.400 132.200 C 217.290 132.200,217.200 132.387,217.200 132.615 C 217.200 133.047,216.192 134.200,215.815 134.200 C 215.697 134.200,215.600 134.290,215.600 134.400 C 215.600 134.510,215.285 134.600,214.900 134.600 C 214.515 134.600,214.200 134.510,214.200 134.400 C 214.200 134.290,214.087 134.200,213.948 134.200 C 213.588 134.200,212.600 133.239,212.600 132.889 C 212.600 132.727,212.492 132.421,212.360 132.210 C 212.178 131.918,212.175 131.712,212.347 131.362 C 212.472 131.108,212.638 130.675,212.716 130.400 C 212.887 129.793,213.531 129.200,214.019 129.200 C 214.215 129.200,214.432 129.110,214.500 129.000 C 214.568 128.890,214.753 128.800,214.912 128.800 C 215.070 128.800,215.200 128.890,215.200 129.000 M236.673 129.703 C 236.737 129.870,237.017 130.092,237.295 130.198 C 237.605 130.316,237.800 130.546,237.800 130.795 C 237.800 131.018,237.890 131.200,238.000 131.200 C 238.110 131.200,238.200 131.328,238.200 131.483 C 238.200 131.639,238.313 131.804,238.450 131.850 C 238.636 131.912,238.700 132.764,238.700 135.200 C 238.700 137.636,238.636 138.488,238.450 138.550 C 238.313 138.596,238.200 138.761,238.200 138.917 C 238.200 139.072,238.110 139.200,238.000 139.200 C 237.890 139.200,237.800 139.321,237.800 139.469 C 237.800 139.970,237.041 140.619,236.318 140.736 C 235.923 140.800,235.600 140.931,235.600 141.026 C 235.600 141.258,234.655 141.250,234.511 141.017 C 234.449 140.917,234.042 140.775,233.607 140.701 C 233.078 140.612,232.776 140.441,232.695 140.184 C 232.628 139.973,232.489 139.800,232.387 139.800 C 232.284 139.800,232.200 139.665,232.200 139.500 C 232.200 139.335,232.111 139.200,232.002 139.200 C 231.894 139.200,231.747 138.840,231.677 138.400 C 231.606 137.960,231.465 137.600,231.362 137.600 C 231.105 137.600,231.274 133.318,231.575 132.218 C 231.811 131.354,233.098 129.800,233.576 129.800 C 233.699 129.800,233.800 129.710,233.800 129.600 C 233.800 129.252,236.538 129.350,236.673 129.703 M267.200 133.974 C 267.200 134.069,267.516 134.199,267.902 134.262 C 268.547 134.366,269.200 134.788,269.200 135.100 C 269.200 135.171,269.344 135.372,269.520 135.548 C 270.538 136.566,269.345 140.200,267.993 140.200 C 267.777 140.200,267.600 140.290,267.600 140.400 C 267.600 140.522,266.667 140.600,265.200 140.600 L 262.800 140.600 262.800 137.200 L 262.800 133.800 265.000 133.800 C 266.210 133.800,267.200 133.878,267.200 133.974 M113.200 138.104 C 113.200 139.447,112.338 140.800,111.483 140.800 C 111.327 140.800,111.200 140.890,111.200 141.000 C 111.200 141.110,111.065 141.200,110.900 141.200 C 110.735 141.200,110.600 141.290,110.600 141.400 C 110.600 141.796,108.908 141.627,108.600 141.200 C 108.441 140.980,108.201 140.800,108.065 140.800 C 107.755 140.800,107.513 139.574,107.686 138.884 C 107.888 138.079,108.724 137.372,109.616 137.252 C 110.053 137.194,110.458 137.068,110.517 136.973 C 110.575 136.878,111.203 136.800,111.912 136.800 L 113.200 136.800 113.200 138.104 M302.600 138.187 C 302.600 139.385,302.547 139.590,302.210 139.697 C 301.996 139.765,301.765 139.996,301.697 140.210 C 301.629 140.424,301.354 140.654,301.087 140.721 C 300.819 140.788,300.600 140.924,300.600 141.022 C 300.600 141.120,300.420 141.200,300.200 141.200 C 299.980 141.200,299.800 141.290,299.800 141.400 C 299.800 141.790,298.305 141.624,298.000 141.200 C 297.841 140.980,297.597 140.800,297.456 140.800 C 297.315 140.800,297.200 140.665,297.200 140.500 C 297.200 140.335,297.110 140.200,297.000 140.200 C 296.890 140.200,296.800 139.885,296.800 139.500 C 296.800 139.115,296.890 138.800,297.000 138.800 C 297.110 138.800,297.203 138.688,297.207 138.550 C 297.222 137.975,297.983 137.395,298.883 137.271 C 299.387 137.202,299.800 137.068,299.800 136.973 C 299.800 136.878,300.430 136.800,301.200 136.800 L 302.600 136.800 302.600 138.187 M216.600 144.600 C 216.600 144.710,216.870 144.800,217.200 144.800 C 217.530 144.800,217.800 144.884,217.800 144.987 C 217.800 145.089,217.980 145.230,218.200 145.300 C 218.624 145.435,218.806 146.800,218.400 146.800 C 218.290 146.800,218.200 146.935,218.200 147.100 C 218.200 147.531,217.470 148.200,217.000 148.200 C 216.780 148.200,216.600 148.290,216.600 148.400 C 216.600 148.518,215.900 148.600,214.900 148.600 C 213.900 148.600,213.200 148.518,213.200 148.400 C 213.200 148.290,213.087 148.200,212.948 148.200 C 212.009 148.200,211.178 146.115,212.005 145.833 C 212.112 145.797,212.200 145.639,212.200 145.483 C 212.200 145.328,212.284 145.200,212.387 145.200 C 212.489 145.200,212.630 145.020,212.700 144.800 C 212.841 144.357,216.600 144.164,216.600 144.600 " stroke="none" fill="#ffffff" fill-rule="evenodd"></path><path id="path2" d="M235.925 26.508 C 235.856 26.686,235.822 43.408,235.849 63.666 L 235.898 100.500 235.999 63.400 C 236.107 23.823,236.111 26.022,235.925 26.508 M158.298 63.300 C 158.298 83.430,158.321 91.635,158.350 81.534 C 158.379 71.433,158.379 54.963,158.350 44.934 C 158.321 34.905,158.298 43.170,158.298 63.300 M53.899 37.001 C 53.388 37.566,53.605 37.619,54.143 37.060 C 54.386 36.807,54.513 36.600,54.424 36.600 C 54.335 36.600,54.099 36.781,53.899 37.001 M88.585 37.066 C 89.094 37.627,89.204 37.696,89.194 37.450 C 89.190 37.367,88.943 37.127,88.644 36.916 L 88.100 36.532 88.585 37.066 M50.100 40.835 L 49.500 41.447 50.150 40.986 C 50.508 40.732,50.800 40.452,50.800 40.362 C 50.800 40.132,50.768 40.153,50.100 40.835 M93.585 41.666 C 94.094 42.227,94.204 42.296,94.194 42.050 C 94.190 41.968,93.943 41.727,93.644 41.516 L 93.100 41.132 93.585 41.666 M189.491 48.500 C 189.491 52.570,189.517 54.207,189.550 52.137 C 189.582 50.067,189.582 46.737,189.550 44.737 C 189.517 42.737,189.490 44.430,189.491 48.500 M51.133 46.250 C 50.932 46.461,50.805 46.671,50.851 46.718 C 50.898 46.764,51.100 46.621,51.300 46.400 C 51.770 45.881,51.617 45.744,51.133 46.250 M222.290 63.200 C 222.290 67.215,222.317 68.858,222.350 66.850 C 222.382 64.843,222.382 61.558,222.350 59.550 C 222.317 57.543,222.290 59.185,222.290 63.200 M109.880 62.700 C 109.880 63.071,109.952 63.330,110.040 63.275 C 110.128 63.221,110.200 62.962,110.200 62.700 C 110.200 62.438,110.128 62.179,110.040 62.125 C 109.952 62.070,109.880 62.329,109.880 62.700 M91.250 64.121 C 90.732 64.712,90.656 64.969,91.111 64.591 C 91.394 64.356,91.892 63.595,91.757 63.604 C 91.726 63.606,91.498 63.838,91.250 64.121 M73.446 65.200 C 73.446 65.585,73.488 65.742,73.538 65.550 C 73.588 65.358,73.588 65.043,73.538 64.850 C 73.488 64.658,73.446 64.815,73.446 65.200 M189.496 78.200 L 189.500 85.700 207.250 85.702 L 225.000 85.703 207.302 85.651 L 189.605 85.598 189.549 78.149 L 189.492 70.700 189.496 78.200 M38.800 73.550 C 38.800 73.635,38.980 73.816,39.200 73.954 C 39.420 74.091,39.600 74.134,39.600 74.050 C 39.600 73.965,39.420 73.784,39.200 73.646 C 38.980 73.509,38.800 73.466,38.800 73.550 M99.107 79.554 C 98.451 80.251,98.046 80.760,98.207 80.685 C 98.549 80.527,100.502 78.423,100.382 78.342 C 100.337 78.312,99.763 78.858,99.107 79.554 M100.687 83.850 L 100.100 84.500 100.750 83.913 C 101.108 83.590,101.400 83.297,101.400 83.263 C 101.400 83.108,101.235 83.244,100.687 83.850 M93.696 85.004 C 93.269 85.442,92.968 85.800,93.029 85.800 C 93.199 85.800,94.634 84.367,94.549 84.282 C 94.508 84.241,94.124 84.566,93.696 85.004 M263.500 85.747 C 280.260 85.885,292.753 85.886,292.669 85.750 C 292.618 85.668,284.594 85.621,274.838 85.647 C 265.082 85.673,259.980 85.718,263.500 85.747 M333.350 85.750 C 338.218 85.780,346.183 85.780,351.050 85.750 C 355.918 85.720,351.935 85.696,342.200 85.696 C 332.465 85.696,328.483 85.720,333.350 85.750 M95.315 89.181 L 94.729 89.900 95.404 89.256 C 95.776 88.902,96.039 88.579,95.990 88.538 C 95.940 88.496,95.637 88.786,95.315 89.181 M88.622 89.612 C 88.359 89.831,88.186 90.052,88.238 90.104 C 88.289 90.156,88.543 89.974,88.801 89.699 C 89.362 89.102,89.281 89.062,88.622 89.612 M89.939 103.679 C 89.858 103.887,89.838 104.104,89.895 104.162 C 90.078 104.344,90.238 104.045,90.162 103.666 C 90.092 103.318,90.081 103.318,89.939 103.679 " stroke="none" fill="#004b87" fill-rule="evenodd"></path><path id="path3" d="" stroke="none" fill="#0000ff" fill-rule="evenodd"></path><path id="path4" d="M73.596 14.077 C 73.213 14.340,72.630 14.931,72.300 15.390 C 71.970 15.850,71.588 16.349,71.450 16.499 C 71.313 16.649,71.200 16.827,71.200 16.896 C 71.200 16.964,70.888 17.342,70.506 17.735 C 70.124 18.128,69.758 18.619,69.692 18.825 C 69.627 19.031,69.509 19.200,69.430 19.200 C 69.351 19.200,69.117 19.486,68.911 19.835 C 68.499 20.533,68.222 20.894,67.250 22.006 C 66.892 22.414,66.600 22.812,66.600 22.889 C 66.600 22.966,66.487 23.143,66.350 23.283 C 66.213 23.423,65.785 23.917,65.400 24.379 C 65.015 24.842,64.475 25.478,64.200 25.792 C 63.925 26.106,63.475 26.648,63.200 26.997 C 62.925 27.345,62.453 27.864,62.150 28.148 C 61.848 28.433,61.600 28.739,61.600 28.829 C 61.600 28.918,61.127 29.475,60.550 30.068 C 59.973 30.660,59.297 31.404,59.048 31.722 C 57.381 33.855,47.402 43.865,45.824 44.986 C 45.603 45.144,45.467 45.346,45.523 45.436 C 45.578 45.526,45.500 45.600,45.348 45.600 C 45.196 45.600,44.538 46.106,43.886 46.725 C 43.234 47.344,42.390 48.086,42.012 48.375 C 41.633 48.664,41.133 49.080,40.901 49.300 C 40.399 49.775,39.815 50.256,38.599 51.194 C 38.105 51.576,37.554 52.049,37.377 52.244 C 37.199 52.440,36.959 52.600,36.843 52.600 C 36.728 52.600,36.603 52.668,36.567 52.751 C 36.530 52.835,36.095 53.216,35.600 53.599 C 35.105 53.981,34.581 54.408,34.436 54.547 C 34.290 54.686,34.076 54.800,33.959 54.800 C 33.842 54.800,33.601 54.959,33.423 55.154 C 33.090 55.519,32.967 55.609,30.850 57.040 C 30.162 57.505,29.600 57.956,29.600 58.042 C 29.600 58.129,29.504 58.200,29.387 58.200 C 29.180 58.200,28.188 58.892,27.248 59.691 C 26.361 60.446,25.677 63.600,26.400 63.600 C 26.510 63.600,26.600 63.715,26.600 63.856 C 26.600 64.141,27.862 65.400,28.148 65.400 C 28.248 65.400,28.542 65.625,28.800 65.900 C 29.058 66.175,29.367 66.400,29.487 66.400 C 29.606 66.400,29.947 66.625,30.243 66.900 C 30.540 67.175,30.876 67.400,30.991 67.400 C 31.106 67.400,31.200 67.476,31.200 67.569 C 31.200 67.661,31.515 67.907,31.900 68.114 C 32.285 68.321,32.600 68.552,32.600 68.626 C 32.600 68.700,32.893 68.939,33.250 69.157 C 33.916 69.563,34.342 69.888,35.461 70.847 C 35.813 71.148,36.191 71.395,36.303 71.397 C 36.414 71.399,36.674 71.625,36.881 71.900 C 37.087 72.175,37.338 72.400,37.437 72.400 C 37.537 72.400,37.843 72.625,38.118 72.900 C 38.393 73.175,38.688 73.400,38.772 73.400 C 38.857 73.400,39.401 73.850,39.980 74.400 C 40.560 74.950,41.112 75.400,41.206 75.400 C 41.301 75.400,41.821 75.850,42.362 76.400 C 42.904 76.950,43.407 77.400,43.481 77.400 C 43.555 77.400,43.958 77.738,44.375 78.150 C 44.793 78.563,45.524 79.215,45.999 79.600 C 46.474 79.985,47.808 81.223,48.964 82.350 C 50.120 83.477,51.146 84.400,51.245 84.400 C 51.343 84.400,51.368 84.490,51.300 84.600 C 51.232 84.710,51.251 84.800,51.342 84.800 C 51.596 84.800,54.372 87.561,54.245 87.688 C 54.184 87.750,54.283 87.800,54.467 87.800 C 54.650 87.800,54.800 87.880,54.800 87.978 C 54.800 88.076,55.543 88.914,56.450 89.840 C 57.358 90.766,58.452 91.923,58.883 92.412 C 59.949 93.622,62.576 96.543,63.250 97.268 C 63.553 97.593,63.800 97.913,63.800 97.980 C 63.800 98.046,64.003 98.343,64.250 98.639 C 64.498 98.935,64.925 99.469,65.200 99.824 C 65.475 100.180,65.813 100.583,65.950 100.721 C 66.088 100.859,66.200 101.029,66.200 101.100 C 66.200 101.171,66.313 101.342,66.450 101.481 C 66.588 101.620,67.015 102.124,67.400 102.600 C 67.785 103.076,68.198 103.565,68.318 103.686 C 68.438 103.808,68.573 104.006,68.618 104.126 C 68.697 104.337,69.204 105.022,70.150 106.199 C 70.398 106.506,70.600 106.853,70.600 106.969 C 70.600 107.085,70.713 107.252,70.850 107.340 C 71.104 107.503,71.493 108.056,71.737 108.600 C 71.810 108.765,71.938 108.946,72.019 109.002 C 72.101 109.058,72.198 109.236,72.234 109.398 C 72.333 109.841,73.326 110.800,73.685 110.800 C 73.858 110.800,74.000 110.890,74.000 111.000 C 74.000 111.617,76.973 111.208,77.640 110.499 C 78.572 109.509,78.800 109.234,78.800 109.100 C 78.800 109.035,79.025 108.740,79.300 108.443 C 79.575 108.147,79.800 107.791,79.800 107.652 C 79.800 107.513,79.875 107.400,79.966 107.400 C 80.058 107.400,80.414 106.972,80.757 106.450 C 81.100 105.927,81.655 105.185,81.990 104.800 C 82.325 104.415,82.599 104.039,82.600 103.965 C 82.600 103.891,82.870 103.561,83.200 103.231 C 83.530 102.901,83.800 102.534,83.800 102.415 C 83.800 102.297,83.868 102.199,83.950 102.199 C 84.033 102.198,84.312 101.885,84.572 101.504 C 84.832 101.123,85.240 100.599,85.479 100.341 C 85.719 100.083,86.271 99.428,86.707 98.886 C 87.142 98.344,87.689 97.720,87.922 97.500 C 88.155 97.280,88.426 96.955,88.523 96.777 C 88.751 96.362,90.733 94.130,92.400 92.414 C 93.115 91.678,94.195 90.496,94.800 89.788 C 95.405 89.079,95.973 88.468,96.061 88.430 C 96.150 88.391,96.330 88.228,96.461 88.069 C 96.752 87.715,101.008 83.523,101.877 82.735 C 102.220 82.424,103.149 81.546,103.942 80.785 C 104.735 80.023,105.430 79.400,105.487 79.400 C 105.544 79.400,106.102 78.905,106.727 78.300 C 107.351 77.695,107.918 77.200,107.985 77.200 C 108.053 77.200,108.557 76.787,109.104 76.281 C 109.652 75.776,110.460 75.081,110.900 74.737 C 111.340 74.393,111.835 73.964,112.000 73.784 C 112.165 73.604,112.498 73.395,112.740 73.318 C 112.982 73.242,113.235 73.004,113.303 72.790 C 113.371 72.575,113.534 72.400,113.666 72.400 C 113.797 72.400,114.128 72.197,114.402 71.948 C 114.676 71.699,115.305 71.182,115.800 70.799 C 116.295 70.416,116.730 70.035,116.767 69.951 C 116.803 69.868,116.961 69.800,117.117 69.800 C 117.272 69.800,117.400 69.716,117.400 69.613 C 117.400 69.511,117.558 69.376,117.750 69.315 C 117.942 69.253,118.343 68.999,118.639 68.751 C 118.935 68.503,119.469 68.075,119.824 67.800 C 120.180 67.525,120.583 67.188,120.721 67.050 C 120.859 66.913,121.068 66.800,121.186 66.800 C 121.304 66.800,121.400 66.710,121.400 66.600 C 121.400 66.490,121.574 66.400,121.786 66.400 C 121.998 66.400,122.306 66.265,122.471 66.100 C 122.636 65.935,122.868 65.800,122.986 65.800 C 123.104 65.800,123.200 65.710,123.200 65.600 C 123.200 65.490,123.290 65.400,123.400 65.400 C 123.675 65.400,124.336 64.715,124.807 63.942 C 125.191 63.313,125.363 61.600,125.043 61.600 C 124.956 61.600,124.872 61.422,124.855 61.205 C 124.839 60.988,124.732 60.696,124.619 60.555 C 123.923 59.698,123.413 59.246,122.750 58.900 C 122.338 58.685,122.000 58.454,122.000 58.386 C 122.000 58.318,121.685 58.093,121.300 57.886 C 120.915 57.679,120.600 57.440,120.600 57.355 C 120.600 57.270,120.500 57.200,120.379 57.200 C 120.257 57.200,119.694 56.841,119.129 56.402 C 117.888 55.439,117.901 55.449,116.900 54.708 C 116.460 54.383,116.070 54.045,116.033 53.958 C 115.997 53.871,115.856 53.800,115.721 53.800 C 115.585 53.800,115.216 53.530,114.900 53.200 C 114.584 52.870,114.240 52.600,114.136 52.600 C 114.032 52.600,113.756 52.393,113.523 52.140 C 113.290 51.887,112.740 51.419,112.300 51.101 C 111.860 50.782,111.455 50.466,111.400 50.399 C 111.345 50.332,111.113 50.147,110.883 49.988 C 110.443 49.683,108.512 48.040,107.607 47.200 C 107.311 46.925,106.522 46.229,105.854 45.654 C 105.187 45.078,104.191 44.156,103.642 43.604 C 103.093 43.052,102.529 42.600,102.388 42.600 C 102.248 42.600,102.190 42.543,102.260 42.473 C 102.329 42.404,102.142 42.158,101.843 41.926 C 101.052 41.313,96.147 36.220,89.650 29.265 C 89.183 28.765,88.800 28.290,88.800 28.209 C 88.800 28.129,88.440 27.696,88.000 27.248 C 87.560 26.799,87.200 26.367,87.200 26.289 C 87.200 26.211,87.040 26.001,86.844 25.823 C 86.649 25.646,86.177 25.095,85.796 24.600 C 84.806 23.314,84.841 23.358,84.280 22.700 C 83.999 22.370,83.397 21.605,82.943 21.000 C 82.489 20.395,81.957 19.727,81.761 19.515 C 81.565 19.303,81.352 18.965,81.289 18.765 C 81.225 18.564,81.089 18.400,80.987 18.400 C 80.884 18.400,80.800 18.306,80.800 18.192 C 80.800 18.077,80.711 17.874,80.603 17.742 C 79.664 16.590,79.400 16.211,79.400 16.015 C 79.400 15.890,79.265 15.736,79.100 15.672 C 78.935 15.609,78.800 15.473,78.800 15.370 C 78.800 15.114,78.124 14.410,77.454 13.968 C 76.592 13.400,74.499 13.459,73.596 14.077 M137.452 26.332 C 137.256 26.411,137.204 34.185,137.201 63.416 L 137.198 100.400 147.699 100.400 C 154.566 100.400,158.200 100.331,158.201 100.200 C 158.201 100.090,158.201 83.485,158.201 63.300 C 158.201 43.115,158.201 26.510,158.201 26.400 C 158.200 26.196,137.953 26.129,137.452 26.332 M168.600 63.299 L 168.600 100.400 196.900 100.400 L 225.200 100.400 225.200 93.101 L 225.200 85.802 207.350 85.751 L 189.500 85.700 189.448 78.251 L 189.395 70.802 205.748 70.751 L 222.100 70.700 222.152 63.250 L 222.205 55.800 205.802 55.800 L 189.400 55.800 189.400 48.501 L 189.400 41.202 207.250 41.151 L 225.100 41.100 225.100 33.700 L 225.100 26.300 196.850 26.249 L 168.600 26.199 168.600 63.299 M236.121 26.516 C 236.055 26.690,236.000 43.385,236.000 63.616 L 236.000 100.400 264.402 100.400 L 292.805 100.400 292.752 93.150 L 292.700 85.900 274.950 85.849 L 257.200 85.798 257.200 78.299 L 257.200 70.800 273.500 70.800 L 289.800 70.800 289.800 63.300 L 289.800 55.800 273.500 55.800 L 257.200 55.800 257.200 48.500 L 257.200 41.200 275.004 41.200 L 292.809 41.200 292.795 33.700 L 292.782 26.200 264.512 26.200 C 238.919 26.200,236.231 26.230,236.121 26.516 M303.600 63.300 L 303.600 100.400 331.902 100.400 L 360.205 100.400 360.152 93.096 L 360.100 85.791 342.350 85.798 L 324.600 85.804 324.600 78.302 L 324.600 70.800 340.760 70.800 C 353.062 70.800,356.977 70.743,357.160 70.560 C 357.338 70.382,357.400 68.440,357.400 63.060 L 357.400 55.800 341.000 55.800 L 324.600 55.800 324.600 48.500 L 324.600 41.200 342.400 41.200 L 360.200 41.200 360.200 33.700 L 360.200 26.200 331.900 26.200 L 303.600 26.200 303.600 63.300 M76.700 26.600 C 76.768 26.710,77.038 26.800,77.300 26.800 C 77.562 26.800,77.828 26.883,77.890 26.985 C 77.953 27.086,78.274 27.228,78.602 27.301 C 78.931 27.373,79.200 27.515,79.200 27.616 C 79.200 27.717,79.335 27.800,79.500 27.800 C 79.665 27.800,79.800 27.884,79.800 27.987 C 79.800 28.089,80.002 28.237,80.250 28.315 C 80.744 28.471,81.838 29.246,82.558 29.950 C 82.811 30.198,83.164 30.400,83.342 30.400 C 83.521 30.400,83.608 30.459,83.536 30.531 C 83.464 30.603,83.786 30.938,84.253 31.276 C 84.719 31.615,85.340 32.118,85.633 32.396 C 85.927 32.673,86.422 33.098,86.733 33.341 C 87.045 33.583,87.930 34.369,88.700 35.088 C 89.470 35.807,90.173 36.396,90.262 36.398 C 90.351 36.399,90.368 36.490,90.300 36.600 C 90.232 36.710,90.276 36.800,90.397 36.800 C 90.780 36.800,100.153 45.995,101.084 47.285 C 101.296 47.577,101.746 48.117,102.084 48.485 C 103.235 49.733,104.699 51.459,104.880 51.780 C 104.978 51.956,105.203 52.249,105.380 52.430 C 105.556 52.612,105.925 53.057,106.200 53.418 C 106.475 53.780,106.903 54.280,107.150 54.529 C 107.397 54.778,107.600 55.066,107.600 55.170 C 107.600 55.273,107.870 55.647,108.200 56.000 C 108.530 56.353,108.800 56.719,108.800 56.812 C 108.800 56.905,109.003 57.202,109.250 57.472 C 109.984 58.271,110.200 58.571,110.200 58.792 C 110.200 58.906,110.284 59.000,110.387 59.000 C 110.489 59.000,110.636 59.203,110.713 59.450 C 110.790 59.698,111.041 60.167,111.271 60.493 C 111.724 61.137,111.890 63.879,111.492 64.161 C 111.384 64.237,111.039 64.817,110.724 65.450 C 110.410 66.083,110.083 66.600,109.998 66.600 C 109.913 66.600,109.787 66.825,109.718 67.100 C 109.649 67.375,109.504 67.600,109.396 67.600 C 109.288 67.600,109.200 67.694,109.200 67.808 C 109.200 68.005,109.044 68.231,108.450 68.893 C 108.313 69.046,108.200 69.223,108.200 69.286 C 108.200 69.349,108.043 69.561,107.850 69.759 C 107.658 69.956,107.320 70.367,107.100 70.673 C 106.880 70.979,106.475 71.475,106.200 71.775 C 105.669 72.355,104.365 73.915,103.700 74.766 C 103.480 75.047,102.754 75.829,102.086 76.503 C 101.419 77.177,100.732 77.930,100.560 78.175 C 100.303 78.541,99.057 79.866,97.975 80.923 C 97.849 81.046,96.724 82.171,95.476 83.423 C 94.227 84.675,92.933 85.925,92.600 86.200 C 92.267 86.475,91.163 87.486,90.147 88.446 C 89.131 89.406,88.243 90.194,88.174 90.196 C 88.105 90.198,87.655 90.557,87.174 90.994 C 85.624 92.402,85.412 92.578,84.247 93.437 C 83.054 94.316,83.019 94.344,82.200 95.021 C 81.925 95.249,81.070 95.850,80.300 96.358 C 79.530 96.865,78.855 97.337,78.800 97.407 C 78.745 97.476,78.205 97.695,77.600 97.894 C 76.995 98.092,76.296 98.349,76.046 98.463 C 75.718 98.614,75.526 98.606,75.356 98.436 C 75.226 98.306,74.966 98.200,74.778 98.200 C 74.400 98.200,71.863 96.823,70.863 96.076 C 70.513 95.814,70.172 95.600,70.105 95.600 C 70.037 95.600,69.740 95.375,69.443 95.100 C 69.147 94.825,68.840 94.600,68.761 94.600 C 68.683 94.600,68.404 94.398,68.142 94.150 C 67.880 93.903,67.108 93.250,66.427 92.700 C 65.746 92.150,64.797 91.340,64.317 90.900 C 63.838 90.460,62.845 89.560,62.110 88.900 C 61.374 88.240,60.528 87.475,60.228 87.200 C 59.929 86.925,59.238 86.309,58.692 85.831 C 57.098 84.436,51.465 78.834,49.400 76.592 C 46.150 73.062,45.800 72.664,45.800 72.499 C 45.800 72.433,45.485 72.056,45.100 71.659 C 44.715 71.263,44.400 70.867,44.400 70.778 C 44.400 70.690,44.175 70.393,43.900 70.118 C 43.625 69.843,43.400 69.524,43.400 69.409 C 43.400 69.294,43.318 69.200,43.217 69.200 C 43.047 69.200,42.203 68.042,40.495 65.467 C 39.200 63.516,39.144 61.448,40.332 59.554 C 40.589 59.144,40.800 58.762,40.800 58.706 C 40.800 58.592,41.321 57.929,41.850 57.370 C 42.043 57.166,42.200 56.947,42.200 56.881 C 42.200 56.712,43.553 54.970,44.550 53.858 C 45.018 53.336,45.400 52.844,45.400 52.764 C 45.400 52.684,45.715 52.313,46.100 51.939 C 46.485 51.566,46.800 51.201,46.800 51.130 C 46.800 51.058,47.138 50.655,47.550 50.232 C 49.139 48.607,50.800 46.809,50.800 46.717 C 50.800 46.664,52.038 45.401,53.550 43.911 C 55.063 42.422,56.390 41.110,56.500 40.996 C 56.829 40.655,57.039 40.460,58.477 39.152 C 59.235 38.463,60.285 37.495,60.812 37.000 C 61.680 36.183,62.698 35.279,64.467 33.754 C 64.815 33.454,65.280 33.049,65.500 32.854 C 65.720 32.659,66.305 32.186,66.800 31.803 C 67.295 31.419,67.796 31.014,67.914 30.903 C 68.032 30.791,68.459 30.475,68.863 30.200 C 69.267 29.925,69.598 29.633,69.599 29.550 C 69.599 29.468,69.738 29.400,69.906 29.400 C 70.075 29.400,70.264 29.265,70.328 29.100 C 70.391 28.935,70.546 28.798,70.671 28.796 C 70.797 28.794,71.260 28.476,71.700 28.090 C 72.140 27.704,72.703 27.336,72.950 27.272 C 73.198 27.209,73.400 27.076,73.400 26.978 C 73.400 26.880,73.620 26.800,73.888 26.800 C 74.157 26.800,74.432 26.710,74.500 26.600 C 74.568 26.490,75.063 26.400,75.600 26.400 C 76.137 26.400,76.632 26.490,76.700 26.600 M74.800 28.436 C 74.525 28.551,73.963 28.784,73.550 28.953 C 73.138 29.122,72.800 29.337,72.800 29.430 C 72.800 29.524,72.685 29.600,72.543 29.600 C 72.289 29.600,71.465 30.179,70.765 30.850 C 70.564 31.043,70.332 31.200,70.248 31.200 C 70.164 31.200,69.853 31.425,69.557 31.700 C 69.260 31.975,68.962 32.200,68.894 32.200 C 68.827 32.200,68.659 32.313,68.521 32.450 C 68.383 32.587,67.975 32.925,67.615 33.200 C 67.255 33.475,66.763 33.887,66.523 34.116 C 66.283 34.345,65.945 34.615,65.773 34.716 C 65.265 35.014,63.612 36.417,62.375 37.600 C 61.743 38.205,60.933 38.925,60.576 39.200 C 59.713 39.865,50.838 48.742,50.200 49.578 C 49.925 49.939,49.273 50.654,48.751 51.167 C 48.229 51.680,47.802 52.181,47.801 52.281 C 47.800 52.380,47.373 52.926,46.850 53.494 C 45.442 55.024,44.613 56.071,44.606 56.329 C 44.603 56.454,44.479 56.604,44.330 56.661 C 44.182 56.718,43.625 57.380,43.092 58.132 C 42.560 58.884,42.044 59.555,41.947 59.621 C 41.849 59.688,41.720 60.115,41.659 60.571 C 41.597 61.027,41.469 61.400,41.374 61.400 C 41.278 61.400,41.200 61.850,41.200 62.400 C 41.200 62.950,41.278 63.400,41.374 63.400 C 41.469 63.400,41.595 63.692,41.653 64.050 C 41.750 64.645,42.805 66.430,43.438 67.069 C 43.582 67.215,44.015 67.724,44.400 68.200 C 44.785 68.676,45.213 69.180,45.350 69.319 C 45.488 69.458,45.600 69.646,45.600 69.738 C 45.600 69.829,45.806 70.128,46.057 70.402 C 46.309 70.676,46.647 71.091,46.809 71.326 C 46.971 71.560,47.598 72.295,48.202 72.961 C 48.806 73.626,49.615 74.543,50.000 74.998 C 50.385 75.453,50.817 75.932,50.960 76.063 C 51.102 76.193,51.327 76.417,51.460 76.560 C 51.592 76.702,51.817 76.927,51.960 77.060 C 52.102 77.192,52.327 77.415,52.460 77.557 C 52.592 77.698,53.295 78.440,54.021 79.207 C 54.748 79.973,55.293 80.600,55.232 80.600 C 55.172 80.600,55.427 80.825,55.800 81.100 C 56.173 81.375,56.412 81.600,56.332 81.600 C 56.252 81.600,56.662 82.008,57.243 82.507 C 58.515 83.599,58.635 83.708,58.931 84.040 C 59.059 84.183,59.854 84.930,60.699 85.700 C 61.544 86.470,62.636 87.483,63.127 87.950 C 63.617 88.418,64.063 88.800,64.118 88.800 C 64.237 88.800,64.431 88.960,65.600 90.017 C 66.095 90.465,66.725 90.981,67.000 91.162 C 67.275 91.344,67.618 91.652,67.761 91.847 C 67.905 92.041,68.130 92.202,68.261 92.206 C 68.393 92.209,68.762 92.479,69.083 92.806 C 69.404 93.132,69.754 93.400,69.860 93.400 C 69.966 93.400,70.199 93.563,70.377 93.763 C 70.929 94.382,72.881 95.771,73.653 96.093 C 75.047 96.676,78.800 96.282,78.800 95.553 C 78.800 95.469,78.913 95.400,79.052 95.400 C 79.191 95.400,79.547 95.175,79.843 94.900 C 80.140 94.625,80.438 94.400,80.505 94.400 C 80.662 94.400,82.677 92.751,82.767 92.550 C 82.803 92.468,82.939 92.400,83.069 92.400 C 83.198 92.400,83.547 92.175,83.843 91.900 C 84.140 91.625,84.462 91.400,84.558 91.400 C 84.655 91.400,84.961 91.152,85.240 90.850 C 85.518 90.548,85.999 90.120,86.310 89.900 C 86.620 89.680,87.285 89.109,87.787 88.632 C 88.289 88.154,89.002 87.528,89.372 87.241 C 90.531 86.340,102.800 73.994,102.800 73.727 C 102.800 73.589,103.323 72.944,104.450 71.690 C 104.863 71.231,105.200 70.785,105.200 70.699 C 105.200 70.613,105.470 70.285,105.800 69.970 C 106.130 69.655,106.400 69.321,106.400 69.229 C 106.400 69.137,106.715 68.737,107.100 68.341 C 107.485 67.944,107.800 67.525,107.800 67.410 C 107.800 67.294,107.884 67.200,107.987 67.200 C 108.089 67.200,108.236 66.998,108.313 66.750 C 108.391 66.502,108.518 66.255,108.597 66.200 C 109.727 65.411,110.286 61.956,109.519 60.500 C 109.345 60.170,109.202 59.829,109.201 59.741 C 109.201 59.654,108.975 59.340,108.700 59.043 C 108.425 58.747,108.200 58.411,108.200 58.296 C 108.200 58.182,108.020 57.959,107.800 57.800 C 107.580 57.641,107.400 57.406,107.400 57.277 C 107.400 57.148,107.130 56.753,106.800 56.400 C 106.470 56.047,106.200 55.684,106.200 55.594 C 106.200 55.504,105.953 55.163,105.650 54.836 C 105.347 54.509,104.695 53.723,104.200 53.088 C 103.705 52.454,102.973 51.589,102.573 51.167 C 102.174 50.745,101.898 50.400,101.961 50.400 C 102.024 50.400,101.901 50.225,101.688 50.011 C 101.474 49.797,100.670 48.931,99.900 48.087 C 97.697 45.671,92.602 40.600,92.379 40.600 C 92.267 40.600,92.232 40.510,92.300 40.400 C 92.368 40.290,92.336 40.200,92.229 40.200 C 92.122 40.200,91.731 39.907,91.360 39.550 C 90.989 39.193,90.065 38.360,89.307 37.700 C 88.548 37.040,87.520 36.117,87.021 35.650 C 86.523 35.182,86.060 34.800,85.993 34.800 C 85.926 34.800,85.465 34.418,84.969 33.950 C 83.779 32.829,83.151 32.307,82.465 31.866 C 82.154 31.667,81.729 31.348,81.520 31.159 C 79.270 29.120,76.170 27.864,74.800 28.436 M75.797 37.750 C 75.799 37.998,75.890 38.200,76.000 38.200 C 76.110 38.200,76.200 38.375,76.200 38.588 C 76.200 38.802,76.282 39.027,76.383 39.089 C 76.483 39.151,76.626 39.561,76.700 40.000 C 76.774 40.439,76.917 40.849,77.017 40.911 C 77.118 40.973,77.200 41.243,77.200 41.512 C 77.200 41.780,77.280 42.000,77.378 42.000 C 77.475 42.000,77.617 42.326,77.691 42.725 C 77.766 43.123,77.904 43.596,77.997 43.775 C 78.454 44.652,78.800 45.602,78.800 45.980 C 78.800 46.211,78.890 46.400,79.000 46.400 C 79.110 46.400,79.200 46.625,79.200 46.900 C 79.200 47.175,79.267 47.401,79.350 47.402 C 79.433 47.403,79.671 47.965,79.881 48.652 C 80.090 49.338,80.327 49.990,80.407 50.100 C 80.488 50.210,80.616 50.593,80.693 50.950 L 80.832 51.600 79.040 51.600 C 77.747 51.600,77.184 51.678,77.016 51.881 C 76.779 52.166,76.803 53.720,77.051 54.120 C 77.126 54.242,77.197 56.154,77.208 58.370 C 77.221 60.694,77.308 62.400,77.415 62.400 C 77.517 62.400,77.600 63.345,77.600 64.500 L 77.600 66.600 75.496 66.600 L 73.392 66.600 73.506 63.450 C 73.569 61.718,73.672 58.343,73.736 55.950 L 73.852 51.600 72.105 51.600 C 70.517 51.600,70.371 51.568,70.507 51.250 C 70.589 51.058,70.699 50.653,70.751 50.350 C 70.803 50.048,70.911 49.800,70.991 49.800 C 71.071 49.800,71.296 49.238,71.490 48.550 C 71.685 47.863,71.913 47.120,71.998 46.900 C 72.083 46.680,72.307 46.095,72.497 45.600 C 72.686 45.105,72.916 44.554,73.007 44.375 C 73.098 44.196,73.234 43.722,73.309 43.322 C 73.384 42.923,73.525 42.546,73.623 42.486 C 73.720 42.426,73.800 42.162,73.800 41.900 C 73.800 41.638,73.878 41.375,73.974 41.316 C 74.116 41.229,74.361 40.474,74.478 39.767 C 74.490 39.693,74.567 39.566,74.650 39.483 C 74.733 39.401,74.800 39.129,74.800 38.878 C 74.800 38.628,74.880 38.374,74.977 38.314 C 75.075 38.254,75.217 37.872,75.293 37.466 C 75.442 36.672,75.791 36.869,75.797 37.750 M65.148 55.325 C 65.394 55.391,65.551 55.518,65.496 55.607 C 65.441 55.696,65.757 55.928,66.198 56.123 C 66.639 56.318,67.000 56.550,67.000 56.638 C 67.000 56.727,67.135 56.800,67.300 56.800 C 67.465 56.800,67.600 56.888,67.600 56.996 C 67.600 57.104,67.825 57.249,68.100 57.318 C 68.671 57.461,68.775 57.798,68.250 57.803 C 67.887 57.806,66.651 58.205,66.298 58.433 C 66.188 58.505,65.760 58.627,65.348 58.704 C 64.937 58.781,64.600 58.908,64.600 58.985 C 64.600 59.062,64.298 59.244,63.929 59.389 C 62.349 60.008,60.747 62.264,61.080 63.398 C 61.306 64.167,62.812 65.800,63.295 65.800 C 63.463 65.800,63.600 65.883,63.600 65.984 C 63.600 66.085,63.892 66.226,64.250 66.296 C 64.865 66.416,65.494 66.644,66.224 67.009 C 66.402 67.098,67.189 67.234,67.974 67.311 C 68.758 67.388,69.400 67.522,69.400 67.608 C 69.400 68.213,81.532 68.209,82.900 67.604 C 83.120 67.506,83.816 67.369,84.447 67.299 C 85.078 67.229,85.645 67.088,85.709 66.986 C 85.772 66.884,86.083 66.800,86.400 66.800 C 86.717 66.800,87.025 66.722,87.084 66.626 C 87.143 66.531,87.553 66.395,87.996 66.324 C 88.438 66.253,88.800 66.128,88.800 66.046 C 88.800 65.965,89.093 65.772,89.450 65.618 C 91.470 64.751,92.446 62.405,91.444 60.826 C 91.006 60.136,90.405 59.600,90.069 59.600 C 89.921 59.600,89.800 59.531,89.800 59.447 C 89.800 59.261,88.315 58.600,87.899 58.600 C 87.734 58.600,87.600 58.499,87.600 58.376 C 87.600 58.224,87.519 58.215,87.350 58.348 C 87.213 58.457,86.592 58.602,85.971 58.672 C 84.820 58.801,84.708 58.742,84.487 57.900 C 84.298 57.176,83.666 55.675,83.500 55.553 C 83.374 55.461,83.388 55.405,83.538 55.403 C 83.669 55.401,83.832 55.490,83.900 55.600 C 83.968 55.710,84.283 55.800,84.600 55.800 C 84.917 55.800,85.229 55.886,85.294 55.991 C 85.359 56.096,85.949 56.242,86.606 56.317 C 87.263 56.391,87.800 56.530,87.800 56.626 C 87.800 56.722,88.041 56.800,88.336 56.800 C 89.215 56.800,91.458 57.562,90.650 57.586 C 90.055 57.604,90.057 58.229,90.652 58.519 C 92.776 59.554,94.600 61.486,94.600 62.701 C 94.600 63.452,92.409 66.200,91.809 66.200 C 91.694 66.200,91.600 66.290,91.600 66.400 C 91.600 66.510,91.501 66.600,91.380 66.600 C 91.259 66.600,90.832 66.744,90.430 66.920 C 90.029 67.097,89.520 67.319,89.300 67.415 C 88.365 67.822,87.062 68.194,86.562 68.197 C 86.266 68.199,85.972 68.283,85.910 68.384 C 85.821 68.528,84.359 68.779,82.967 68.889 C 82.893 68.895,82.766 68.968,82.683 69.050 C 82.601 69.133,82.104 69.200,81.578 69.200 C 81.053 69.200,80.566 69.292,80.497 69.405 C 80.414 69.539,78.440 69.605,74.880 69.594 C 71.507 69.583,69.436 69.504,69.507 69.388 C 69.575 69.279,69.118 69.200,68.412 69.200 C 67.745 69.200,67.200 69.123,67.200 69.029 C 67.200 68.935,66.549 68.797,65.754 68.723 C 64.959 68.649,64.221 68.501,64.114 68.394 C 64.007 68.287,63.673 68.200,63.372 68.200 C 63.070 68.200,62.771 68.115,62.707 68.012 C 62.643 67.908,62.188 67.763,61.695 67.689 C 61.203 67.615,60.800 67.475,60.800 67.377 C 60.800 67.280,60.580 67.200,60.312 67.200 C 60.043 67.200,59.774 67.120,59.714 67.022 C 59.653 66.924,59.363 66.784,59.068 66.710 C 58.357 66.531,55.929 64.951,55.355 64.293 C 53.714 62.411,54.530 59.978,57.443 58.066 C 58.766 57.198,59.044 57.036,59.800 56.693 C 60.185 56.519,60.755 56.246,61.066 56.088 C 61.378 55.929,61.760 55.800,61.916 55.800 C 62.072 55.800,62.200 55.716,62.200 55.613 C 62.200 55.303,64.299 55.098,65.148 55.325 M77.830 73.250 C 77.869 75.913,77.880 76.060,78.046 76.320 C 78.123 76.441,78.197 78.218,78.209 80.270 C 78.222 82.396,78.311 84.000,78.416 84.000 C 78.517 84.000,78.600 84.405,78.600 84.900 L 78.600 85.800 77.650 85.839 C 77.127 85.861,76.340 85.871,75.900 85.861 C 75.460 85.851,74.513 85.833,73.797 85.821 L 72.493 85.800 72.558 85.050 C 72.593 84.638,72.699 82.500,72.793 80.300 C 72.886 78.100,73.006 75.985,73.059 75.600 C 73.112 75.215,73.165 74.067,73.177 73.050 L 73.200 71.200 75.500 71.200 L 77.800 71.200 77.830 73.250 M91.312 100.381 C 91.237 100.501,90.966 100.600,90.709 100.600 C 90.212 100.600,89.220 101.413,88.833 102.137 C 88.258 103.214,88.742 106.793,89.464 106.799 C 89.555 106.799,89.764 106.935,89.929 107.100 C 90.094 107.265,90.397 107.400,90.602 107.400 C 90.808 107.400,91.032 107.490,91.100 107.600 C 91.168 107.710,91.623 107.800,92.112 107.800 C 92.600 107.800,93.000 107.710,93.000 107.600 C 93.000 107.490,93.211 107.400,93.469 107.400 C 95.789 107.400,96.607 103.189,94.664 101.246 C 93.979 100.561,91.583 99.943,91.312 100.381 M90.597 104.150 C 90.595 105.225,90.534 105.608,90.400 105.400 C 90.293 105.235,90.205 104.905,90.203 104.667 C 90.201 104.428,90.106 104.202,89.991 104.164 C 89.789 104.096,90.279 102.600,90.503 102.600 C 90.556 102.600,90.599 103.297,90.597 104.150 M94.197 104.138 C 94.200 105.098,93.867 105.436,93.463 104.883 C 93.225 104.558,93.229 104.473,93.493 104.280 C 93.663 104.156,93.801 103.753,93.803 103.378 C 93.805 102.867,93.854 102.774,94.000 103.000 C 94.107 103.165,94.195 103.677,94.197 104.138 M92.400 103.400 C 92.400 103.510,92.265 103.600,92.100 103.600 C 91.935 103.600,91.800 103.510,91.800 103.400 C 91.800 103.290,91.935 103.200,92.100 103.200 C 92.265 103.200,92.400 103.290,92.400 103.400 M92.200 105.500 C 92.200 105.665,92.290 105.800,92.400 105.800 C 92.510 105.800,92.600 105.890,92.600 106.000 C 92.600 106.110,92.420 106.200,92.200 106.200 C 91.907 106.200,91.800 106.067,91.800 105.700 C 91.800 105.425,91.890 105.200,92.000 105.200 C 92.110 105.200,92.200 105.335,92.200 105.500 " stroke="none" fill="#0072a7" fill-rule="evenodd"></path></g></svg>