<?xml version="1.0" encoding="UTF-8" standalone="no"?>
<svg
   xmlns:dc="http://purl.org/dc/elements/1.1/"
   xmlns:cc="http://creativecommons.org/ns#"
   xmlns:rdf="http://www.w3.org/1999/02/22-rdf-syntax-ns#"
   xmlns:svg="http://www.w3.org/2000/svg"
   xmlns="http://www.w3.org/2000/svg"
   viewBox="0 0 418.78668 72.199997"
   height="72.199997"
   width="418.78668"
   xml:space="preserve"
   id="svg2"
   version="1.1"><metadata
     id="metadata8"><rdf:RDF><cc:Work
         rdf:about=""><dc:format>image/svg+xml</dc:format><dc:type
           rdf:resource="http://purl.org/dc/dcmitype/StillImage" /></cc:Work></rdf:RDF></metadata><defs
     id="defs6"><clipPath
       id="clipPath20"
       clipPathUnits="userSpaceOnUse"><path
         id="path18"
         d="M 0,541.543 V 0 h 3140.9 v 541.543 z" /></clipPath></defs><g
     transform="matrix(1.3333333,0,0,-1.3333333,0,72.2)"
     id="g10"><g
       transform="scale(0.1)"
       id="g12"><g
         id="g14"><g
           clip-path="url(#clipPath20)"
           id="g16"><path
             id="path22"
             style="fill:#d81a2c;fill-opacity:1;fill-rule:nonzero;stroke:none"
             d="M 222.566,541.543 170.277,380.887 H 0 L 137.941,281.039 85.6914,120.316 222.355,219.73 359.832,119.828 307.313,281.293 444.652,380.887 H 274.914 l -52.348,160.656" /><path
             id="path24"
             style="fill:#231f20;fill-opacity:1;fill-rule:nonzero;stroke:none"
             d="m 917.816,392.492 c -9.73,9.731 -21.332,17.043 -34.738,21.942 -13.418,4.902 -28.617,7.363 -45.547,7.363 -16.523,0 -32.754,-3.359 -47.394,-9.531 -14.637,-6.188 -27.688,-15.176 -37.84,-26.45 h -0.004 l -0.004,-0.011 c -5.715,-6.239 -9.961,-12.317 -13.301,-18.102 -3.324,-5.781 -5.726,-11.25 -7.73,-16.242 l -1.61,-4.902 -1.601,4.812 c -0.059,0.133 -3,6.567 -6.949,14.043 -3.961,7.496 -8.903,16.031 -12.973,20.383 -9.723,11.609 -22.246,20.625 -36.875,26.719 -14.641,6.086 -31.379,9.281 -49.52,9.281 -10.136,0 -27.765,-1.504 -46.355,-10.02 -18.59,-8.511 -38.121,-24.007 -52.121,-52.011 l -3.344,-5.969 0.035,6.734 v 53.949 h -12.23 V 119.828 h 12.23 v 168.145 c 0,19.648 2.215,36.582 6.825,51.32 4.617,14.742 11.609,27.289 21.152,38.156 7.984,10.453 19.414,19.039 32.355,24.86 12.957,5.836 27.438,8.918 41.524,8.363 17.703,-0.574 33.281,-3.879 46.644,-9.922 13.371,-6.035 24.508,-14.785 33.352,-26.184 6.863,-9.179 12.316,-18.625 16.062,-31.128 3.746,-12.493 5.774,-28.04 5.774,-49.372 0,-1.441 -0.008,-2.89 -0.028,-4.394 -0.023,-1.484 -0.05,-3.008 -0.089,-4.563 0,0 0,-40.464 0.004,-81.367 v -83.914 h 12.234 v 165.324 c 0,22.586 0.848,38.735 4.195,52.469 3.352,13.738 9.203,25.082 19.219,38.059 9.875,12.902 23.258,21.652 37.25,27.175 14.02,5.528 28.664,7.817 41.113,7.817 15.282,0 28.883,-2.168 40.735,-6.492 11.855,-4.309 21.949,-10.782 30.23,-19.356 10.363,-10.383 18.074,-23.726 23.188,-40.254 5.121,-16.543 7.644,-36.273 7.644,-59.418 V 119.828 h 12.238 v 165.324 c 0,24.661 -2.836,46.008 -8.48,63.946 -5.641,17.929 -14.074,32.429 -25.27,43.394" /><path
             id="path26"
             style="fill:#231f20;fill-opacity:1;fill-rule:nonzero;stroke:none"
             d="m 1264.51,243.285 c -1.45,-8.918 -3.72,-17.551 -6.8,-25.691 -10.27,-28.977 -28.09,-52.473 -51,-68.703 -22.94,-16.239 -50.97,-25.274 -81.59,-25.274 -47.04,0 -83.01,17.981 -107.3,44.856 -24.297,26.836 -36.91,62.586 -37.203,98.101 v 0.578 c 0,40.918 15.348,76.797 40.873,102.446 25.53,25.648 61.24,41.074 101.95,41.074 29.84,0 57.77,-8.613 80.85,-23.887 23.07,-15.262 41.29,-37.199 51.72,-63.859 3.34,-7.821 5.89,-16.25 7.62,-25.071 1.72,-8.82 2.61,-18.007 2.61,-27.324 0.29,-9.187 -0.3,-18.359 -1.73,-27.246 z m 0.05,171.195 v -77.003 l -0.02,-7.985 -3.36,7.363 c -7.99,21.114 -25.09,42.336 -48.86,58.309 -23.77,15.953 -54.22,26.637 -88.88,26.637 -50.37,0 -89.12,-19.91 -115.3,-49.207 -26.175,-29.293 -39.753,-67.946 -39.753,-105.442 0,-37.48 13.578,-76.132 39.753,-105.437 26.18,-29.301 64.93,-49.223 115.3,-49.223 30.84,0 58.51,7.422 81.86,21.543 23.35,14.145 42.37,35 55.94,61.887 l 3.28,6.633 0.04,-7.414 v -75.313 h 12.22 V 414.48 h -12.22" /><path
             id="path28"
             style="fill:#231f20;fill-opacity:1;fill-rule:nonzero;stroke:none"
             d="m 1344.26,370.273 c 15.99,14.258 31.13,24.219 47.41,30.692 16.29,6.465 33.72,9.43 54.34,9.707 24.73,0.312 51.97,-6.395 75.88,-21.012 23.9,-14.617 44.44,-37.133 55.73,-68.441 h 13.69 c -13.07,37.066 -36.73,62.207 -63.51,78.094 -26.79,15.878 -56.72,22.488 -82.3,22.488 -44.22,0 -82.96,-16.68 -110.67,-44.422 -27.74,-27.746 -44.4,-66.539 -44.4,-110.793 0,-38.27 13.58,-76.797 40.07,-105.762 26.51,-28.945 65.98,-48.332 117.8,-48.332 32.71,0 62.94,9.582 87.7,26.594 24.75,17.004 44.02,41.453 54.75,71.184 h -13.67 c -7.15,-20.774 -22.45,-42.297 -44.76,-58.672 -22.29,-16.407 -51.62,-27.676 -86.81,-27.969 -19.05,0 -37.47,3.523 -54.44,10.254 -16.99,6.726 -32.51,16.668 -45.78,29.488 -13.73,13.266 -24.4,29.106 -31.61,46.692 -7.22,17.578 -11.01,36.894 -11.01,57.089 0,19.856 4.1,39.899 11.31,57.848 7.26,17.953 17.66,33.805 30.28,45.273" /><path
             id="path30"
             style="fill:#231f20;fill-opacity:1;fill-rule:nonzero;stroke:none"
             d="m 1833.99,414.484 h -14.72 c -0.47,-1.058 -29.72,-69.847 -58.85,-138.375 -29.14,-68.527 -58.17,-136.781 -58.17,-136.781 l -1.62,-4.402 -1.62,4.426 c 0,0 -27.2,68.242 -54.53,136.746 -27.32,68.511 -54.75,137.297 -55.18,138.386 h -13.66 c 0.94,-2.351 30.2,-76.156 59.23,-149.375 29.05,-73.211 57.85,-145.82 57.85,-145.82 l 0.22,-0.68 -0.26,-0.683 c 0,0 -12.42,-28.3127 -25.07,-57.1994 C 1654.9,31.8203 1641.96,2.34766 1640.93,0.00390625 h 14.18 C 1655.55,1.01953 1699.74,103.441 1744.09,206.215 c 44.37,102.758 88.86,205.871 89.9,208.269" /><path
             id="path32"
             style="fill:#231f20;fill-opacity:1;fill-rule:nonzero;stroke:none"
             d="m 1999,200.109 c -1.63,30.5 -12.61,48.489 -28.11,60.207 -15.51,11.711 -35.54,17.149 -55.24,22.469 l -1.24,0.344 -1.23,0.332 c -20.89,5.852 -37.07,12.164 -48.25,21.703 -11.18,9.566 -17.34,22.367 -18.24,41.223 -0.4,8.472 0.82,16.617 3.51,24.125 2.72,7.496 6.9,14.316 12.44,20.117 6.15,6.476 13.76,11.484 22.39,14.867 8.65,3.399 18.32,5.176 28.61,5.176 9.39,0.168 18.27,-1.27 26.24,-4.164 7.98,-2.879 15.03,-7.242 20.79,-12.914 5.63,-5.5 9.91,-12.223 12.87,-19.946 2.94,-7.722 4.54,-16.453 4.72,-25.984 h 12.23 c -0.37,22.238 -8.08,40.625 -21.43,53.527 -13.35,12.895 -32.37,20.305 -55.44,20.606 -19.7,0 -39.48,-5.817 -54.34,-18.141 -14.87,-12.328 -24.81,-31.148 -24.82,-57.152 0.82,-24.676 9.27,-40.274 23.18,-51.324 13.91,-11.067 33.28,-17.578 55.91,-24.09 25.42,-5.625 43.45,-13.731 55.26,-25.512 11.79,-11.785 17.39,-27.242 17.95,-47.574 0,-0.402 0.01,-0.781 0.01,-1.184 0.02,-0.371 0.02,-0.761 0.02,-1.152 0,-9.727 -1.75,-19.043 -5.16,-27.629 -3.37,-8.57 -8.38,-16.375 -14.83,-23.055 -6.71,-6.894 -14.76,-12.214 -23.76,-15.859 -9.02,-3.613 -18.96,-5.508 -29.4,-5.508 -22.92,0 -42.11,7.559 -55.66,20.774 -13.57,13.191 -21.49,32.058 -21.9,54.629 h -12.36 c -0.03,-0.665 -0.06,-1.321 -0.08,-1.985 -0.03,-0.676 -0.05,-1.316 -0.05,-1.972 0,-10.352 1.85,-20.184 5.37,-29.266 3.58,-9.106 8.88,-17.453 15.83,-24.856 8.49,-9.043 19.02,-16.14 30.76,-20.996 11.73,-4.863 24.7,-7.453 38.09,-7.453 12.29,0 24.05,2.375 34.78,6.875 10.69,4.504 20.37,11.145 28.46,19.731 7.8,8.242 13.66,17.793 17.4,28.113 3.74,10.344 5.38,21.465 4.72,32.898" /><path
             id="path34"
             style="fill:#231f20;fill-opacity:1;fill-rule:nonzero;stroke:none"
             d="m 1855.97,477.289 -7.64,23.586 -7.71,-23.586 h -24.99 l 20.23,-14.652 -7.6,-23.578 20.01,14.582 20.13,-14.649 -7.67,23.68 20.16,14.617 h -24.92" /><path
             id="path36"
             style="fill:#d81a2c;fill-opacity:1;fill-rule:nonzero;stroke:none"
             d="m 2137.75,367.047 h -91.52 V 423.5 h 250.2 V 367.047 H 2204.9 V 118.109 h -67.15 v 248.938" /><path
             id="path38"
             style="fill:#d81a2c;fill-opacity:1;fill-rule:nonzero;stroke:none"
             d="m 2323,423.5 h 228.4 v -56.453 h -161.26 v -65.442 h 148 v -52.187 h -148 v -74.852 h 164.68 V 118.109 H 2323 V 423.5" /><path
             id="path40"
             style="fill:#d81a2c;fill-opacity:1;fill-rule:nonzero;stroke:none"
             d="m 2786.69,320.848 c -4.28,30.371 -33.36,53.468 -66.72,53.468 -60.31,0 -82.98,-51.328 -82.98,-104.789 0,-50.898 22.67,-102.226 82.98,-102.226 41.05,0 64.15,28.222 69.29,68.426 h 65.01 c -6.85,-76.122 -59.46,-124.883 -134.3,-124.883 -94.52,0 -150.14,70.566 -150.14,158.683 0,90.672 55.62,161.243 150.14,161.243 67.15,0 123.6,-39.348 131.73,-109.922 h -65.01" /><path
             id="path42"
             style="fill:#d81a2c;fill-opacity:1;fill-rule:nonzero;stroke:none"
             d="m 2882.98,423.5 h 67.15 V 306.309 h 123.62 V 423.5 h 67.15 V 118.109 h -67.15 V 249.848 H 2950.13 V 118.109 h -67.15 V 423.5" /></g></g></g></g></svg>