<svg id="Layer_1" data-name="Layer 1" xmlns="http://www.w3.org/2000/svg" viewBox="0 0 517.76 83.8"><title>Nanome_Logo_Horizontal-Black</title><path d="M517.66,369.13h11.51l34.61,51.65V369.13h10.11v68.3H563.13L527.86,385v52.48h-10.2Z" transform="translate(-353.12 -354.57)"/><path d="M583.16,425.74c0-8.61,6-12.92,17.12-15.54,7.3-1.77,14.5-2.89,14.5-7,0-3.27-2.52-5.52-9.26-5.52-7.95,0-11.23,3.55-11.23,8.42v.28h-9.35v-.19c0-10.48,7.39-16.46,20.21-16.46,12.63,0,19.83,5.61,19.83,15.34v32.37h-9.64v-6.08a22.13,22.13,0,0,1-16.46,7C588.49,438.37,583.16,432.94,583.16,425.74Zm32.28-6.36v-5.81c-1.22,1.41-6.55,3-12.07,4.21-7.21,1.6-10.57,3.37-10.57,7.21,0,3.18,2.62,5.05,6.64,5.05C606.73,430,612.82,424.89,615.44,419.38Z" transform="translate(-353.12 -354.57)"/><path d="M635.47,390.65h9.91v6.08a17.48,17.48,0,0,1,14.41-7c11.79,0,19,7.67,19,20.39v27.32h-10.1V411c0-7.67-3.84-12.53-11.32-12.53-6.74,0-11.88,5.05-11.88,13.28v25.73h-10Z" transform="translate(-353.12 -354.57)"/><path d="M685.71,414a24.28,24.28,0,1,1,24.23,24.33A24.08,24.08,0,0,1,685.71,414Zm38.64,0a14.66,14.66,0,0,0-14.41-15c-8,0-14.31,6.74-14.31,15s6.27,15,14.31,15A14.66,14.66,0,0,0,724.35,414Z" transform="translate(-353.12 -354.57)"/><path d="M741.29,390.65h9.92v5.62c3-4.12,7.76-6.55,13.75-6.55,7.49,0,12.73,3.18,15.44,8.42a18.13,18.13,0,0,1,15.81-8.42c12.72,0,19.37,7.67,19.37,19.64v28.07h-10.2V410c0-7-3.84-11.6-10.85-11.6-6.27,0-11.14,4.3-11.14,12.63v26.38h-10.1V409.55c0-6.83-3.84-11.13-10.57-11.13-6.55,0-11.42,4.39-11.42,13v26h-10Z" transform="translate(-353.12 -354.57)"/><path d="M822.51,414.23a24.08,24.08,0,0,1,24.32-24.51c13.85,0,24,10,24,23.85v3.93H832.15c1.31,7.21,6.92,12,15.06,12a14.67,14.67,0,0,0,13.66-8.42l8.23,4.58c-4.12,7.67-11.51,12.73-21.89,12.73C832.43,438.37,822.51,427.79,822.51,414.23Zm10.1-5.24h28.07c-1.5-6.74-6.64-10.48-13.85-10.48A14.55,14.55,0,0,0,832.61,409Z" transform="translate(-353.12 -354.57)"/><path d="M407.72,373.73a54.57,54.57,0,0,0-53.83,63.7h42.48a14.56,14.56,0,1,1,22.71,0h42.48a55.69,55.69,0,0,0,.77-9.1A54.6,54.6,0,0,0,407.72,373.73Z" transform="translate(-353.12 -354.57)"/><circle cx="113.8" cy="14.56" r="14.56"/></svg>