<?xml version="1.0" encoding="utf-8"?>
<!-- Generator: Adobe Illustrator 22.1.0, SVG Export Plug-In . SVG Version: 6.00 Build 0)  -->
<svg version="1.1" id="Layer_1" xmlns="http://www.w3.org/2000/svg" xmlns:xlink="http://www.w3.org/1999/xlink" x="0px" y="0px"
	 viewBox="0 0 612 162" style="enable-background:new 0 0 612 162;" xml:space="preserve">
<style type="text/css">
	.st0{fill-rule:evenodd;clip-rule:evenodd;fill:#055EAA;}
	.st1{fill:#055EAA;}
</style>
<g>
	<g>
		<polygon class="st0" points="105.7,45.6 100.6,56.5 93.5,45.8 93.3,45.6 85,45.6 74.7,67.5 83.4,67.5 88.6,56.3 96.2,67.5 
			104.1,67.5 114.4,45.6 105.7,45.6 		"/>
		<polygon class="st0" points="74.7,67.5 85,45.4 93.5,45.4 100.6,56.5 105.8,45.4 114.4,45.4 104.1,67.5 96.2,67.5 88.6,56.3 
			83.4,67.5 74.7,67.5 		"/>
		<polygon class="st0" points="499,67.5 509.3,45.4 517.6,45.4 525,56.5 530,45.4 538.7,45.4 528.5,67.5 520.3,67.5 513,56.3 
			507.6,67.5 499,67.5 		"/>
		<path class="st0" d="M342.1,66.8c-1.7,0.4-2.7,0.6-4.6,0.8c-2.1,0.2-3.5,0.2-5.2,0.2c-1.7,0-3.1-0.2-4.5-0.4
			c-1.4-0.4-2.5-0.8-3.5-1.4c-1.7-1.2-2.7-2.5-3.1-4.1c-0.6-1.7-0.2-3.5,0.6-5.6c0.8-1.6,1.7-3.1,3.1-4.5c1.2-1.4,2.9-2.5,4.6-3.7
			c1.9-1,4.1-1.7,6-2.3c2.1-0.6,4.3-0.8,6.6-0.8c1.7,0,3.3,0.2,4.8,0.4c1.4,0.4,2.9,0.8,4.3,1.4l-2.3,5.2c-1.2-0.6-2.3-1-3.5-1.4
			c-1.2-0.2-2.3-0.4-3.7-0.4c-2.3,0-4.5,0.6-6.4,1.6c-1.9,1.2-3.3,2.7-4.1,4.5c-0.8,1.7-0.8,3.3,0,4.3c1,1.2,2.3,1.7,4.3,1.7
			c0.4,0,0.8,0,1.2-0.2c0.4,0,0.4,0,0.8-0.2l1.4-2.5h-3.5l2.5-4.5h9.9L342.1,66.8L342.1,66.8z"/>
		<path class="st0" d="M291.6,49.5h1.9c1.4,0,2.3,0.2,2.9,0.8c0.4,0.4,0.4,1.2-0.2,2.1c-0.4,1.2-1.2,1.9-2.1,2.3
			c-0.8,0.6-2.1,0.8-3.7,0.8h-1.7L291.6,49.5L291.6,49.5z M283.3,67.5l3.7-8h2.9c3.9,0,7-0.6,9.5-1.7c2.5-1.4,4.5-3.1,5.4-5.4
			c1.2-2.3,1-4.1-0.4-5.2c-1.5-1.2-4.1-1.7-7.9-1.7h-12l-10.3,22.1H283.3L283.3,67.5z"/>
		<polygon class="st0" points="187.1,67.5 197.8,45.4 207.1,45.4 203.2,53.5 212.9,53.5 216.7,45.4 226.2,45.4 215.6,67.5 
			206.1,67.5 210,59.4 200.5,59.4 196.4,67.5 187.1,67.5 		"/>
		<polygon class="st0" points="168.9,67.5 176.9,51 168.9,51 171.6,45.4 196.6,45.4 193.7,51 185.8,51 177.6,67.5 168.9,67.5 		"/>
		<path class="st0" d="M123.3,52.8c1.4-0.8,2.9-1.4,4.5-1.4c1.5,0,2.5,0.6,3.3,1.4c0.6,1,0.6,2.1,0,3.7c-0.6,1.4-1.7,2.5-3.1,3.5
			c-1.4,1-2.9,1.4-4.5,1.4c-1.5,0-2.5-0.4-3.3-1.4c-0.6-1-0.6-2.1,0-3.5C120.7,54.9,121.9,53.7,123.3,52.8L123.3,52.8z M110.3,60.9
			c0,1.4,0.6,2.5,1.5,3.7c1,1.2,2.1,1.9,3.7,2.5c1.4,0.4,3.1,0.8,5.2,0.8c1.9,0,4.1-0.4,6-0.8c1.9-0.6,3.9-1.4,5.6-2.5
			c1.9-1.2,3.5-2.3,4.6-3.7c1.4-1.4,2.3-2.9,3.1-4.5c0.6-1.7,1-3.3,0.8-4.7c0-1.4-0.6-2.5-1.5-3.7c-0.8-1-2.1-1.7-3.5-2.3
			c-1.5-0.6-3.3-0.8-5.4-0.8c-1.9,0-4.1,0.2-6,0.8c-1.9,0.6-3.9,1.4-5.6,2.3c-1.9,1.2-3.5,2.3-4.8,3.7c-1.2,1.4-2.1,2.9-2.9,4.7
			C110.5,58,110.1,59.6,110.3,60.9L110.3,60.9z"/>
		<path class="st0" d="M261.2,52.8c1.4-0.8,2.9-1.4,4.5-1.4c1.5,0,2.5,0.6,3.1,1.4c0.8,1,0.8,2.1,0.2,3.7c-0.8,1.4-1.7,2.5-3.1,3.5
			c-1.4,1-2.9,1.4-4.5,1.4c-1.6,0-2.7-0.4-3.3-1.4c-0.6-1-0.6-2.1,0-3.5C258.7,54.9,259.7,53.7,261.2,52.8L261.2,52.8z M248.3,60.9
			c0,1.4,0.6,2.5,1.5,3.7c0.8,1.2,2.1,1.9,3.5,2.5c1.5,0.4,3.3,0.8,5.4,0.8c1.9,0,3.9-0.4,6-0.8c1.9-0.6,3.9-1.4,5.6-2.5
			c1.9-1.2,3.5-2.3,4.6-3.7c1.4-1.4,2.3-2.9,3.1-4.5c0.6-1.7,1-3.3,0.8-4.7c0-1.4-0.6-2.5-1.5-3.7c-1-1-2.1-1.7-3.7-2.3
			c-1.4-0.6-3.3-0.8-5.2-0.8c-2.1,0-4.1,0.2-6,0.8c-1.9,0.6-3.9,1.4-5.6,2.3c-1.9,1.2-3.5,2.3-4.8,3.7c-1.2,1.4-2.1,2.9-2.9,4.7
			C248.3,58,248.1,59.6,248.3,60.9L248.3,60.9z"/>
		<path class="st0" d="M381.4,45.4h9.1l-5.4,11.8c-0.8,1.6-1,2.7-0.4,3.5c0.4,0.8,1.4,1.2,3.1,1.2c1.5,0,2.9-0.4,4.1-1.2
			c1.2-0.8,2.1-1.9,2.7-3.5l5.4-11.8h9.1l-5.4,12c-1.6,3.5-4.1,6-7.2,7.8c-3.1,1.7-7,2.7-11.6,2.7c-4.4,0-7.5-1-9.1-2.7
			c-1.6-1.7-1.6-4.3,0-7.8L381.4,45.4L381.4,45.4z"/>
		<path class="st0" d="M490.1,51.2l-0.2,8.4h-7.5L490.1,51.2L490.1,51.2z M475,67.5l3.5-3.9H490v3.9h8.7l-1.2-22.1h-9.3l-22.1,22.1
			H475L475,67.5z"/>
		<path class="st0" d="M167.6,46.9c-1.5-1.2-4.3-1.6-8.3-1.6h-12.4l-10.3,22.1h9.1l4.5-9.3h2.5c2.3,0.2,3.1,2.9,3.1,7.4
			c0,0.4,0,1.2,0,1.9h8.7l-0.4-7c0-0.8-0.2-1.9-0.6-2.5c-0.2-0.4-0.8-0.8-1.2-1c1.5-0.6,2.3-1.2,3.5-2.1c1-0.8,1.7-1.9,2.3-3.1
			C169.1,49.7,168.9,48.1,167.6,46.9L167.6,46.9z M159.6,52.2c-0.2,0.8-1.2,1.6-2.1,1.9c-0.8,0.4-2.7,0.8-4.5,0.8h-1.7l2.9-6h1.7
			c1.5,0,2.7,0.4,3.3,0.8C159.6,50,160,51,159.6,52.2L159.6,52.2z"/>
		<path class="st0" d="M249.4,46.9c-1.5-1.2-4.3-1.6-8.3-1.6h-12.2l-10.4,22.1h9.1l4.4-9.3h2.5c2.3,0.2,3.3,2.9,3.3,7.4
			c0,0.4-0.2,1.2-0.2,1.9h8.7l-0.2-7c-0.2-0.8-0.4-1.9-0.8-2.5c-0.2-0.4-0.6-0.8-1.2-1c1.5-0.6,2.5-1.2,3.5-2.1
			c1-0.8,1.7-1.9,2.3-3.1C251,49.7,250.8,48.1,249.4,46.9L249.4,46.9z M241.5,52.2c-0.2,0.8-1.2,1.6-2.1,1.9
			c-0.8,0.4-2.7,0.8-4.3,0.8h-1.9l2.9-6h1.7c1.5,0,2.9,0.4,3.3,0.8C241.7,50,241.9,51,241.5,52.2L241.5,52.2z"/>
		<path class="st0" d="M375.6,46.9c-1.4-1.2-4.1-1.6-8.3-1.6h-12.2l-10.4,22.1h9.3l4.5-9.3h2.5c2.3,0.2,3.1,2.9,3.1,7.4
			c0,0.4,0,1.2,0,1.9h8.7l-0.4-7c0-0.8-0.4-1.9-0.6-2.5c-0.2-0.4-0.8-0.8-1.2-1c1.5-0.6,2.3-1.2,3.3-2.1c1.2-0.8,1.9-1.9,2.3-3.1
			C377.3,49.7,377.1,48.1,375.6,46.9L375.6,46.9z M367.8,52.2c-0.2,0.8-1.4,1.6-2.1,1.9c-0.8,0.4-2.7,0.8-4.4,0.8h-1.7l2.9-6h1.7
			c1.5,0,2.7,0.4,3.3,0.8C367.8,50,368.2,51,367.8,52.2L367.8,52.2z"/>
		<polygon class="st0" points="401.1,67.5 411.4,45.4 419.9,45.4 422.8,54.1 433.4,45.4 442,45.4 431.7,67.5 423,67.5 428.8,54.9 
			418,63.8 415.3,55.3 409.6,67.5 401.1,67.5 		"/>
		<polygon class="st0" points="434.2,67.5 444.7,45.4 453.2,45.4 455.9,54.1 466.5,45.4 475.2,45.4 465,67.5 456.1,67.5 462.1,54.9 
			451.2,63.8 448.5,55.3 442.7,67.5 434.2,67.5 		"/>
		<path class="st1" d="M544.7,73.7c-9,0-19.8,0-32.4-0.1C410,73,197.1,71.8,121.3,125.4l1.2,1.6c75.2-53.2,287.7-52,389.8-51.4
			c12.6,0.1,23.5,0.1,32.5,0.1L544.7,73.7z"/>
	</g>
</g>
</svg>
