<?xml version="1.0" encoding="utf-8"?>
<!-- Generator: Adobe Illustrator 22.1.0, SVG Export Plug-In . SVG Version: 6.00 Build 0)  -->
<svg version="1.1" id="Layer_1" xmlns="http://www.w3.org/2000/svg" xmlns:xlink="http://www.w3.org/1999/xlink" x="0px" y="0px"
	 viewBox="0 0 478.6 286.2" style="enable-background:new 0 0 478.6 286.2;" xml:space="preserve">
<style type="text/css">
	.st0{fill:#2E2F30;}
</style>
<g>
	<path class="st0" d="M238.5,208.1h0.9C239.1,208.1,238.8,208.1,238.5,208.1L238.5,208.1z"/>
</g>
<g>
	<g>
		<rect x="326.8" y="88.6" class="st0" width="16.9" height="138.4"/>
	</g>
	<g>
		<g>
			<path class="st0" d="M326.8,5.3L326.8,5.3V18c29.6,0,53.7,24.1,53.7,53.7h12.8C393.3,35.1,363.5,5.3,326.8,5.3z M326.8,30.8
				L326.8,30.8v12.8c15.5,0,28.1,12.6,28.1,28.1h12.8C367.7,49.2,349.4,30.8,326.8,30.8z"/>
		</g>
		<g>
			<path class="st0" d="M343.8,71.7c0-9.4-7.6-16.9-16.9-16.9v16.9H343.8z"/>
		</g>
	</g>
	<g>
		<path class="st0" d="M305.2,116.5C305.2,116.5,305.2,116.5,305.2,116.5c0-0.1,0-0.1,0-0.1c0-11.8-1.7-23-4.9-33.4
			c-13.9-46-55.9-76.8-105.6-76.8c-60.9,0-110.1,46.4-110.1,110.3h0c0,0,0,0,0,0.1c0,0,0,0,0,0h0c0,27.8,9.3,52.4,24.9,71.2
			c20,24.2,50.3,39,84.4,39.2l0,0h0.4c0.2,0,0.3,0,0.5,0c0.2,0,0.3,0,0.5,0h114.6v-16.9h-55.2C285,191,305.1,157.3,305.2,116.5z
			 M194.8,210c-28.3,0-53.2-11.3-70-30.6l0,0c-9.5-10.5-15.9-23.9-19.6-39c-1.9-7.7-2.9-16-2.9-24.7c0-45,26.6-78.1,64.3-88.6
			c8.8-2.6,18.3-4,28.1-4c43.5,0,79.4,26.8,89.6,68.6c1.9,7.8,2.9,16,2.9,24.8C287.3,172.3,246.3,210,194.8,210z"/>
	</g>
</g>
<g>
	<g>
		<path class="st0" d="M46.1,284.5c-5.8,0-10-3.7-10-10.5v-14.2h1.8v14c0,5.7,3.1,9,8.2,9c4.9,0,8.1-3,8.1-8.9v-14.2h1.8v14
			C56.1,280.8,52,284.5,46.1,284.5z"/>
		<path class="st0" d="M46.1,285c-6.5,0-10.5-4.2-10.5-11v-14.7h2.8v14.5c0,5.4,2.8,8.5,7.7,8.5c4.9,0,7.6-3,7.6-8.4v-14.7h2.8v14.5
			C56.6,280.7,52.5,285,46.1,285z M36.6,260.3V274c0,6.2,3.6,10,9.5,10c5.9,0,9.5-3.8,9.5-10.2v-13.5h-0.8V274c0,6-3.1,9.4-8.6,9.4
			c-5.5,0-8.7-3.6-8.7-9.5v-13.5H36.6z"/>
	</g>
	<g>
		<path class="st0" d="M86.2,284.1l-3.1-6.8H68.8l-3.1,6.8h-1.9l11.3-24.5h1.7l11.3,24.5H86.2z M75.9,261.6l-6.4,14.1h12.8
			L75.9,261.6z"/>
		<path class="st0" d="M89,284.6h-3.1l-3.1-6.8H69.1l-3.1,6.8h-3l11.8-25.5h2.4L89,284.6z M86.5,283.6h0.9l-10.9-23.5h-1.1
			l-10.9,23.5h0.8l3.1-6.8h15L86.5,283.6z M83.1,276.1H68.7l7.2-15.8L83.1,276.1z M70.3,275.1h11.3l-5.6-12.4L70.3,275.1z"/>
	</g>
	<g>
		<path class="st0" d="M97.2,284.1v-24.3H99v22.7h14.3v1.7H97.2z"/>
		<path class="st0" d="M113.8,284.6H96.7v-25.3h2.8v22.7h14.3V284.6z M97.7,283.6h15.1v-0.7H98.5v-22.7h-0.8V283.6z"/>
	</g>
	<g>
		<path class="st0" d="M20.5,282.8c3.8-2.2,6-6.4,6-10.9c0,0,0,0,0-0.1c0-6.6-4.8-12.5-12.2-12.5c-7.4,0-12.3,5.9-12.3,12.6v0.1
			c0,6.6,4.8,12.5,12.2,12.5c0.1,0,0.2,0,0.4,0l-0.1,0h13v-1.7H20.5z M3.9,271.9L3.9,271.9c0-6.1,4.3-11,10.3-11
			c6,0,10.4,4.9,10.4,11v0.1c0,6-4.3,10.9-10.3,10.9C8.3,282.9,3.9,277.9,3.9,271.9z"/>
		<path class="st0" d="M28.1,285h-16l0.3-0.1C6.1,284,1.5,278.8,1.5,272c0-6.5,4.8-13.2,12.8-13.2c7.2,0,12.6,5.5,12.7,12.8l0,0.4
			l0,0c-0.1,4.1-1.9,7.8-4.9,10.2h6V285z M17,284h10.1v-0.7h-8.5l1.6-0.9c3.6-2.1,5.8-6.1,5.8-10.5v-0.1c0-6.9-5-12-11.7-12
			c-7.4,0-11.8,6.1-11.8,12.1c0,6.9,5,12.1,11.7,12.1c0,0,0.1,0,0.1,0c0.1,0,0.2,0,0.2,0L17,284L17,284z M14.3,283.4
			c-6.1,0-10.9-5-10.9-11.4v-0.1c0-6.5,4.7-11.4,10.8-11.4c6.1,0,10.9,5,10.9,11.5C25.1,278.5,20.5,283.4,14.3,283.4z M14.2,261.5
			c-5.6,0-9.8,4.5-9.8,10.4v0.1c0,5.9,4.3,10.4,9.9,10.4c5.6,0,9.8-4.5,9.8-10.4C24.1,266.1,19.8,261.5,14.2,261.5z"/>
	</g>
	<g>
		<path class="st0" d="M132.1,284.5c-6.9,0-12.1-5.5-12.1-12.5v-0.1c0-6.9,5.1-12.6,12.2-12.6c4.3,0,7,1.6,9.5,3.9l-1.3,1.3
			c-2.1-2.1-4.6-3.6-8.2-3.6c-5.8,0-10.3,4.8-10.3,10.9v0.1c0,6.2,4.5,10.9,10.3,10.9c3.5,0,5.9-1.4,8.4-3.8l1.2,1.2
			C139.2,282.8,136.4,284.5,132.1,284.5z"/>
		<path class="st0" d="M132.1,285c-7.2,0-12.6-5.6-12.6-13c0-7.4,5.6-13.2,12.7-13.2c4.7,0,7.5,1.9,9.8,4l0.4,0.3l-2,2l-0.4-0.3
			c-2.5-2.4-4.8-3.4-7.9-3.4c-5.6,0-9.8,4.5-9.8,10.4c0,5.9,4.3,10.5,9.8,10.5c3.1,0,5.4-1.1,8-3.6l0.3-0.3l1.9,1.9l-0.4,0.4
			C140,282.8,137,285,132.1,285z M132.2,259.8c-6.5,0-11.7,5.3-11.7,12.1c0,6.9,5,12.1,11.6,12.1c3.5,0,6.1-1.1,8.9-3.7l-0.5-0.5
			c-2.7,2.5-5.2,3.6-8.4,3.6c-6,0-10.8-5-10.8-11.4c0-6.5,4.7-11.5,10.8-11.5c3.9,0,6.4,1.7,8.2,3.4l0.6-0.6
			C138.6,261.2,136.1,259.8,132.2,259.8z"/>
	</g>
	<g>
		<path class="st0" d="M161,284.5c-7.4,0-12.2-5.9-12.2-12.5v-0.1c0-6.6,4.9-12.6,12.3-12.6c7.4,0,12.2,5.9,12.2,12.5c0,0,0,0,0,0.1
			C173.3,278.6,168.4,284.5,161,284.5z M171.4,271.9c0-6-4.4-11-10.4-11c-6,0-10.3,4.9-10.3,10.9v0.1c0,6,4.4,10.9,10.4,10.9
			C167.1,282.9,171.4,278,171.4,271.9L171.4,271.9z"/>
		<path class="st0" d="M161,285c-7.2,0-12.7-5.6-12.7-13c0-6.5,4.8-13.2,12.8-13.2c7.2,0,12.6,5.5,12.7,12.8l0,0.4l0,0
			C173.7,278.5,168.9,285,161,285z M161.1,259.8c-7.4,0-11.8,6.1-11.8,12.1c0,6.9,5,12.1,11.7,12.1c7.4,0,11.8-6.1,11.8-12.1v-0.1
			C172.8,265,167.8,259.8,161.1,259.8z M161.1,283.4c-6.1,0-10.9-5-10.9-11.4c0-6.6,4.7-11.5,10.8-11.5c6.1,0,10.9,5,10.9,11.5v0.1
			C171.9,278.5,167.3,283.4,161.1,283.4z M161,261.5c-5.6,0-9.8,4.5-9.8,10.4c0,5.9,4.3,10.5,9.9,10.5c5.6,0,9.8-4.5,9.8-10.4v-0.1
			C170.9,266.1,166.6,261.5,161,261.5z"/>
	</g>
	<g>
		<path class="st0" d="M204.4,284.1v-21.1l-9.6,14h-0.1l-9.6-14v21.1h-1.7v-24.3h1.7l9.8,14.4l9.8-14.4h1.7v24.3H204.4z"/>
		<path class="st0" d="M206.7,284.6h-2.8v-20l-8.9,12.9h-0.7l-8.9-12.9v20h-2.7v-25.3h2.5l9.5,14l9.5-14h2.5V284.6z M204.9,283.6
			h0.8v-23.3h-0.9l-10,14.8l-10-14.8h-0.9v23.3h0.7v-22.2l10.2,14.8l10.2-14.8V283.6z"/>
	</g>
	<g>
		<path class="st0" d="M238.4,284.1v-21.1l-9.6,14h-0.1l-9.6-14v21.1h-1.7v-24.3h1.7l9.8,14.4l9.8-14.4h1.7v24.3H238.4z"/>
		<path class="st0" d="M240.7,284.6h-2.8v-20l-8.9,12.9h-0.7l-8.9-12.9v20h-2.7v-25.3h2.5l9.5,14l9.5-14h2.5V284.6z M238.9,283.6
			h0.8v-23.3h-0.9l-10,14.8l-10-14.8h-0.9v23.3h0.7v-22.2l10.2,14.8l10.2-14.8V283.6z"/>
	</g>
	<g>
		<path class="st0" d="M265.8,284.1v-24.3h1.8v24.3H265.8z"/>
		<path class="st0" d="M268.1,284.6h-2.8v-25.3h2.8V284.6z M266.3,283.6h0.8v-23.3h-0.8V283.6z"/>
	</g>
	<g>
		<path class="st0" d="M297.8,284.1l-17.1-21.6v21.6h-1.7v-24.3h1.7l16.8,21.2v-21.2h1.7v24.3H297.8z"/>
		<path class="st0" d="M299.6,284.6h-2.1l-16.4-20.7v20.7h-2.7v-25.3h2.4l16,20.2v-20.2h2.7V284.6z M298,283.6h0.6v-23.3h-0.7v22.1
			l-17.5-22.1h-1v23.3h0.7V261L298,283.6z"/>
	</g>
	<g>
		<path class="st0" d="M318.4,284.4c-3.9,0-6.9-1.3-9.8-3.9l1.2-1.4c2.7,2.5,5.1,3.6,8.7,3.6c3.7,0,6.2-2.1,6.2-4.8v-0.1
			c0-2.6-1.4-4.1-6.9-5.2c-5.8-1.2-8.2-3.2-8.2-6.8v-0.1c0-3.6,3.3-6.4,7.8-6.4c3.5,0,5.9,1,8.3,2.9l-1.1,1.4
			c-2.3-2-4.6-2.7-7.3-2.7c-3.6,0-5.9,2.1-5.9,4.6v0.1c0,2.6,1.3,4.1,7.1,5.3c5.6,1.1,8,3.2,8,6.7v0.1
			C326.5,281.7,323.1,284.4,318.4,284.4z"/>
		<path class="st0" d="M318.4,284.9c-3.9,0-7-1.2-10.1-4l-0.4-0.3l1.8-2.1l0.4,0.3c2.7,2.5,5.1,3.5,8.4,3.5c3.3,0,5.7-1.8,5.7-4.3
			c0-2.3-1-3.7-6.5-4.8c-6-1.2-8.6-3.4-8.6-7.3c0-4,3.6-7,8.3-7c3.4,0,5.9,0.9,8.7,3.1l0.4,0.3l-1.8,2.2l-0.4-0.3
			c-2.1-1.8-4.2-2.6-6.9-2.6c-3.2,0-5.4,1.7-5.4,4.1c0,2.3,1.1,3.7,6.7,4.9c5.8,1.2,8.4,3.4,8.4,7.2
			C327,282,323.5,284.9,318.4,284.9z M309.3,280.5c2.8,2.4,5.6,3.4,9.1,3.4c4.5,0,7.6-2.5,7.6-6.1c0-3.3-2.3-5.2-7.6-6.3
			c-5.5-1.1-7.5-2.7-7.5-5.8c0-3,2.7-5.2,6.4-5.2c2.7,0,5,0.8,7.2,2.5l0.5-0.6c-2.4-1.8-4.6-2.5-7.6-2.5c-4.2,0-7.3,2.5-7.3,5.9
			c0,3.5,2.2,5.3,7.8,6.4c5.4,1.1,7.3,2.6,7.3,5.7c0,3.2-2.8,5.4-6.7,5.4c-3.4,0-5.9-1-8.7-3.4L309.3,280.5z"/>
	</g>
	<g>
		<path class="st0" d="M344.3,261.4v22.7h-1.8v-22.7H334v-1.7h18.8v1.7H344.3z"/>
		<path class="st0" d="M344.8,284.6H342v-22.7h-8.5v-2.7h19.8v2.7h-8.5V284.6z M343,283.6h0.8v-22.7h8.5v-0.7h-17.8v0.7h8.5V283.6z"
			/>
	</g>
	<g>
		<path class="st0" d="M362.3,284.1v-24.3h1.8v24.3H362.3z"/>
		<path class="st0" d="M364.6,284.6h-2.8v-25.3h2.8V284.6z M362.8,283.6h0.8v-23.3h-0.8V283.6z"/>
	</g>
	<g>
		<path class="st0" d="M384,261.4v22.7h-1.8v-22.7h-8.5v-1.7h18.8v1.7H384z"/>
		<path class="st0" d="M384.5,284.6h-2.8v-22.7h-8.5v-2.7H393v2.7h-8.5V284.6z M382.7,283.6h0.8v-22.7h8.5v-0.7h-17.8v0.7h8.5V283.6
			z"/>
	</g>
	<g>
		<path class="st0" d="M411.4,284.5c-5.8,0-10-3.7-10-10.5v-14.2h1.8v14c0,5.7,3.1,9,8.2,9c4.9,0,8.1-3,8.1-8.9v-14.2h1.8v14
			C421.4,280.8,417.3,284.5,411.4,284.5z"/>
		<path class="st0" d="M411.4,285c-6.5,0-10.5-4.2-10.5-11v-14.7h2.8v14.5c0,5.4,2.8,8.5,7.7,8.5c4.9,0,7.6-3,7.6-8.4v-14.7h2.8
			v14.5C421.9,280.7,417.9,285,411.4,285z M401.9,260.3V274c0,6.2,3.6,10,9.5,10c5.9,0,9.5-3.8,9.5-10.2v-13.5h-0.8V274
			c0,6-3.1,9.4-8.6,9.4c-5.5,0-8.7-3.6-8.7-9.5v-13.5H401.9z"/>
	</g>
	<g>
		<path class="st0" d="M440.6,261.4v22.7h-1.8v-22.7h-8.5v-1.7h18.8v1.7H440.6z"/>
		<path class="st0" d="M441.1,284.6h-2.8v-22.7h-8.5v-2.7h19.8v2.7h-8.5V284.6z M439.3,283.6h0.8v-22.7h8.5v-0.7h-17.8v0.7h8.5
			V283.6z"/>
	</g>
	<g>
		<path class="st0" d="M458.4,284.1v-24.3h17.3v1.7h-15.5v9.6h13.9v1.7h-13.9v9.8h15.7v1.7H458.4z"/>
		<path class="st0" d="M476.4,284.6h-18.5v-25.3h18.3v2.7h-15.5v8.6h13.9v2.7h-13.9v8.8h15.7V284.6z M458.9,283.6h16.5v-0.7h-15.7
			v-10.8h13.9v-0.7h-13.9v-10.6h15.5v-0.7h-16.3V283.6z"/>
	</g>
</g>
</svg>
