<?xml version="1.0" encoding="utf-8"?>
<!-- Generator: Adobe Illustrator 22.1.0, SVG Export Plug-In . SVG Version: 6.00 Build 0)  -->
<svg version="1.1" id="Layer_1" xmlns="http://www.w3.org/2000/svg" xmlns:xlink="http://www.w3.org/1999/xlink" x="0px" y="0px"
	 viewBox="0 0 561 557" style="enable-background:new 0 0 561 557;" xml:space="preserve">
<style type="text/css">
	.st0{fill:#050505;}
	.st1{fill:#F5C02A;}
	.st2{fill:#F9BE2C;}
	.st3{fill:#0C0C0C;}
	.st4{fill:#0B0B0B;}
	.st5{fill:#0A0A0A;}
	.st6{fill:#0E0E0E;}
	.st7{fill:#0C0D0D;}
	.st8{fill:#0F0F10;}
	.st9{fill:none;}
	.st10{fill:#14477A;}
	.st11{fill:#D11E47;}
</style>
<g>
	<path class="st0" d="M487.6,46.9c8.2,0,16,0.1,23.8,0c8.8-0.1,16.5-8,16.4-16.9c0-5-2.2-7.3-7.3-7.3c-9.4-0.1-18.9,0.1-28.3-0.1
		c-3.1-0.1-4.3,0.9-5.3,3.7c-8.4,25.7-17.1,51.3-25.4,77.1c-1.1,3.4-2.5,4.5-6.1,4.4c-11.3-0.3-22.6-0.1-34.7-0.1c0-7.2,0-14,0-21.2
		c-7.4,0-14-0.1-20.6,0.1c-1.1,0-2.5,1.3-3,2.4c-2.3,5.1-4.5,10.2-6.5,15.4c-0.9,2.3-2.3,3.3-4.9,3.2c-8.5-0.2-17-0.1-26.2-0.1
		c3.8-8.7,7.4-16.9,11-25.1c8.4-19.3,16.9-38.5,25.3-57.8c7.2-16.4,23.7-26.1,45.5-24c0.7,20.1,1.4,40.4,2.2,60.6
		c0.2,0.1,0.4,0.3,0.7,0.4c0.8-1.6,1.8-3.2,2.4-4.9c5.9-17.4,11.8-34.8,17.5-52.3c0.9-2.8,2-4,5.1-3.9c19.7,0.2,39.5,0.1,59.2,0.1
		c2.2,0,4.4,0.2,6.6,0.6c19.5,4.1,26.2,19.8,15.9,37c-5.4,9.1-13.4,15.1-23.5,19.5c11.1,16.6,22.1,32.9,33.6,50
		c-6.3,0-11.8,0-17.3,0c-6,0-12.1,0.1-18.1-0.1c-1.3,0-3.2-0.9-3.9-2c-11.2-18.9-22.2-37.8-33.3-56.8
		C487.8,48.5,487.8,48,487.6,46.9z M418.9,41c-0.5-0.1-1-0.2-1.5-0.3c-4,9.3-8,18.7-12.1,28.5c5.1,0,9.5,0,13.6,0
		C418.9,59.6,418.9,50.3,418.9,41z"/>
	<path class="st0" d="M163.7,22.8c-8.1,24.9-16.2,49.5-24.1,74.1c-3.4,10.6-3.3,10.7-14.3,10.7c-6.3,0-12.6,0-19.7,0
		c11.8-35.9,23.4-71.3,35.1-107c9,0,17.8,0,26.6,0c11.2,0,22.4,0.3,33.6-0.1c15.3-0.5,25.3,9.9,21.2,26c-0.1,0.5,0.1,1,0.8,2.2
		c8.9-21.4,25.6-28.8,47.6-28.3c1.4,35.9,2.8,71.4,4.2,107.1c-8.1,0-15.9,0-24.5,0c0-6.7,0-13.4,0-20.7c-7.7,0-14.5-0.1-21.4,0.1
		c-0.9,0-2,1.5-2.5,2.6c-2.3,5.1-4.3,10.3-6.7,15.4c-0.6,1.2-2.1,2.7-3.3,2.7c-8.9,0.2-17.9,0.1-27.6,0.1
		c8.5-19.6,16.8-38.6,25.1-57.6c-0.5-0.3-0.9-0.6-1.4-0.9c-0.9,1-1.8,1.9-2.7,2.9c-9.2,10-20.2,15.9-34.3,15.2
		c-6.7-0.4-13.5-0.1-21-0.1c2.1-6.5,3.9-12.6,6.1-18.6c0.3-0.8,2.3-1.5,3.6-1.5c5.2-0.2,10.3,0.1,15.5-0.1
		c8.9-0.4,17.6-9.4,17.6-17.9c0-4.3-1.4-6-5.7-6.1C182.4,22.8,173.3,22.8,163.7,22.8z M248.4,40.8c-0.5-0.1-0.9-0.2-1.4-0.3
		c-4.1,9.5-8.1,19-12.3,28.8c5.2,0,9.6,0,13.7,0C248.4,59.6,248.4,50.2,248.4,40.8z"/>
	<path class="st0" d="M400.7,0.4c-4.8,10.9-9.3,21.2-13.9,31.5c-10.6,23.9-21.2,47.8-31.7,71.8c-1.3,3.1-2.9,4.1-6.2,4
		c-6.8-0.3-13.5-0.1-20.9-0.1c-0.7-15.5-1.4-30.8-2-46c-0.3-0.1-0.6-0.1-1-0.2c-1.9,5.3-3.7,10.6-5.6,15.9c-3,8.9-6.1,17.8-9,26.7
		c-0.8,2.6-2,3.7-4.9,3.6c-8.2-0.2-16.5-0.1-25.5-0.1c-1.3-35.6-2.6-71.1-3.9-106.9c8,0,15.7,0,23.8,0c0.8,19.7,1.5,39.3,2.3,58.9
		c0.2,0.1,0.5,0.1,0.7,0.2c0.5-1.1,1.1-2.1,1.5-3.3c6-17.4,12.1-34.7,17.9-52.2c1.1-3.2,2.5-4.3,5.9-4.1c5.7,0.3,11.5,0.1,17.7,0.1
		c0.9,19.3,1.7,38.3,2.6,57.3c0.3,0.1,0.6,0.2,1,0.3c2.1-4.9,4.2-9.7,6.3-14.6c5.6-13.3,11.3-26.5,16.7-39.9c1-2.5,2.3-3.3,4.9-3.2
		C384.9,0.5,392.5,0.4,400.7,0.4z"/>
	<path class="st0" d="M0.1,107.5C4.3,98.7,8,90.5,12,82.6c0.6-1.2,3-2.1,4.6-2.1c16.9-0.1,33.9,0,50.8-0.2c2,0,5.3-0.6,5.7-1.8
		c0.7-2,0.2-5-0.9-6.8C63.4,57,54.3,42.3,45.1,27.8c-1.7-2.7-1.8-4.9-0.7-7.7C49.6,7.1,59,0.6,72.9,0.6c18.8,0,37.7-0.1,56.5-0.2
		c1.6,0,3.1,0,5.3,0c-2.6,7.7-4.8,14.8-7.4,21.7c-0.4,1-2.6,1.9-4,1.9c-11.3,0.2-22.7,0.1-34,0.1c-1.2,0-2.4-0.1-3.5,0
		c-6.2,0.5-7.6,3.1-4.4,8.3c7.2,11.8,14.4,23.6,21.8,35.2c4.2,6.6,4.7,13.4,2.1,20.6c-2.3,6.3-4.5,12.7-6.8,19.1
		C65.9,107.5,33.4,107.5,0.1,107.5z"/>
	<path class="st1" d="M457.1,163c-56.7,80.1-112.9,159.4-169.4,239.3c-4.6-5.7-8.7-10.8-12.8-16c-20-25.3-40-50.6-60.1-75.8
		c-2.7-3.4-2.9-5.8-0.2-9.4c32-44.6,63.9-89.3,95.7-134.1c2.2-3.1,4.5-4.3,8.4-4.3c44.2,0.1,88.4,0.1,132.6,0.1
		C452.8,162.8,454.4,162.9,457.1,163z M440.9,171.3c-1.9-0.1-2.8-0.2-3.7-0.2c-38.7,0-77.5,0-116.2-0.1c-3,0-4.5,1.4-6,3.5
		c-28.7,40.4-57.5,80.9-86.3,121.3c-2.1,3-4.2,6-6.3,9c21.8,27.5,43.3,54.8,65.2,82.5C338.8,315.2,389.6,243.6,440.9,171.3z"/>
	<path class="st2" d="M202.2,294.3c-34.9-43.9-69.2-87.2-104.2-131.2c65.9,0,130.8,0,196.7,0C263.8,207,233.2,250.4,202.2,294.3z
		 M278.5,171.6c-54,0-107.3,0-161.3,0c28.5,36,56.4,71.4,84.8,107.3C227.6,242.9,252.9,207.4,278.5,171.6z"/>
	<path class="st3" d="M162.8,554.7c8.1-12.3,16.1-24.5,24.1-36.6c3.7-5.7,7.6-11.2,11.1-17c1.7-2.8,3.6-3.8,6.8-3.5
		c2.9,0.3,5.9,0.1,9.4,0.1c1,19.3,2,38.3,3.1,57.5c-4.5,0-8.5,0-13,0c0-3.8,0-7.4,0-11.7c-7.1,0-13.8,0-20.5,0.1
		c-0.7,0-1.5,0.8-2.1,1.3c-0.6,0.6-1.1,1.4-1.5,2.2C177.1,555.1,171.1,556.9,162.8,554.7z M203.3,512.1c-0.4-0.1-0.7-0.3-1.1-0.4
		c-4.3,6.9-8.7,13.9-13.3,21.3c5.4,0,10,0,14.4,0C203.3,525.8,203.3,519,203.3,512.1z"/>
	<path class="st3" d="M436.4,516.2c-3.6,0-7.2,0-10.9,0c-3.2-10.2-11.8-13.1-20.5-6.4c-8.7,6.6-12.2,16.2-12.1,26.7
		c0.1,9,8.7,12.9,17.4,8.2c2.3-1.2,4.7-2.9,5.9-5.1c2-3.5,4.6-4.5,8.3-4.1c1.7,0.2,3.5,0,6.1,0c-3.9,8.3-9.5,14.2-17.1,18
		c-6,3-12.3,3.7-18.9,2.7c-8.4-1.3-13.3-6.4-14.4-14.9c-2.5-20.1,13.9-42.4,33.9-44.9c5-0.6,10.6,0.5,15.3,2.4
		C436.1,501.5,438.5,509,436.4,516.2z"/>
	<path class="st3" d="M283.5,516.2c-3.6,0-7.2,0-10.8,0c-1.8-11.8-11.4-11.4-19-7.4c-8.1,4.3-15.2,19.5-13.8,28.5
		c1.3,8.5,9.2,11.9,17.5,7.4c1.8-1,3.4-2.3,4.9-3.8c5.8-5.8,5.7-5.8,14.9-5.2c0,0.5,0.1,1.1-0.1,1.6c-5.7,12.3-19.1,20.2-32.6,19.3
		c-11.2-0.7-17.9-7.6-17.2-18.7c1-14.6,6.6-27.1,18.9-35.9c7.8-5.6,16.6-7.3,26-5.2C281.1,498.8,286.2,507.3,283.5,516.2z"/>
	<path class="st4" d="M136.3,497.6c9.4,0,18.3-0.2,27.1,0c10,0.2,14.5,6.4,12.3,16.2c-2.6,11.5-11.7,19.4-23.5,20.5
		c-1.2,0.1-2.3,0.1-3.5,0.1c-11.6,0.1-11.6,0.1-15,11.3c-0.9,3.1-1.9,6.2-2.8,9.2c-4,0-7.7,0-11.9,0
		C124.8,535.8,130.5,516.8,136.3,497.6z M140.1,524.4c4.4,0,8.3,0.1,12.2,0c6.3-0.1,10.6-4.3,11.3-10.6c0.4-3.6-1.2-5.8-4.7-6.1
		c-3.9-0.4-7.9-0.4-11.8-0.3c-0.8,0-2.1,1-2.4,1.8C143.1,514,141.8,518.9,140.1,524.4z"/>
	<path class="st5" d="M316.1,555.1c-3.9,0-7.5,0-11.9,0c2.3-7.5,4.4-14.7,6.6-22c3.3-10.8,6.5-21.7,9.9-32.5
		c0.4-1.2,1.9-2.9,2.9-2.9c11.5-0.2,23-0.1,34.5-0.1c1.3,0,2.6,0,4.4,0c-0.7,2.7-1.5,4.9-2,7.2c-0.5,2.3-1.7,3-4,2.9
		c-7.7-0.1-15.3,0-23-0.1c-2.3,0-3.5,0.5-4,2.9c-0.7,3.3-1.9,6.4-2.9,10.1c8.6,0,16.6,0,25.4,0c-0.9,3.2-1.5,6.1-2.7,8.6
		c-0.4,0.9-2.3,1.4-3.5,1.5c-6.2,0.1-12.4,0.2-18.5,0c-2.9-0.1-4.2,1.1-4.9,3.7C320.3,541.2,318.3,547.9,316.1,555.1z"/>
	<path class="st6" d="M204.5,474.7c3.6-12.1,6.8-23.6,10.6-34.8c0.4-1.2,4.2-1.6,6.4-1.7c1.1-0.1,2.3,1.3,3.7,2.1
		c2.9-0.9,6.4-2.5,10-3.1c4-0.7,7.1,1.2,8.6,4.7c3.7-1.6,7.2-3.9,10.8-4.5c7.3-1.3,12.1,3.6,10.3,10.6c-2.3,9-5.2,17.7-7.8,26.6
		c-3.1,0-5.9,0-9.4,0c1.7-5.8,3.4-11.4,5-16.9c0.8-2.7,1.5-5.4,1.9-8.1c0.5-3.3-1.4-4.5-4.4-4.3c-4.6,0.3-6.7,3.3-8,7.2
		c-1.6,5-3.1,10.1-4.6,15.2c-2.4,7.7-2.4,7.7-11.4,6.7c1.7-5.9,3.5-11.8,5.2-17.6c0.5-1.6,1.3-3.1,1.3-4.6c0.1-2,0-5.7-0.7-5.9
		c-2.3-0.6-5.3-0.6-7.4,0.5c-1.8,0.9-3,3.5-3.8,5.6c-1.9,5.5-3.8,11.2-5.1,16.9c-1,4.3-2.9,6.5-7.5,5.5
		C207.3,474.5,206.3,474.7,204.5,474.7z M224.2,441.8c0.1-0.1,0.2-0.2,0.3-0.3c-0.2-0.1-0.4-0.2-0.5-0.3c-0.1,0-0.2,0.2-0.3,0.3
		C223.9,441.6,224,441.7,224.2,441.8z"/>
	<path class="st7" d="M58.9,440.9c0-5-1.3-7.8-5.2-8.3c-4.5-0.6-9-0.5-12.3,3.1c-3.1,3.4-2,6.6,2.5,7.9c4.8,1.4,9.7,2.4,14.4,4.1
		c5.5,1.9,7.2,5.5,5.8,11.1c-2.4,9.6-9.2,14.5-18.3,16.4c-4.1,0.8-8.5,0.7-12.7,0.1c-8.5-1.2-11.6-6.4-9.8-15.6c3,0,6,0,9.3,0
		c-0.3,4.6,1.9,7.1,6.5,7.6c6.4,0.8,12.2-1.2,14.1-5.1c1.5-3,0.8-5.2-2.5-6.2c-4.2-1.3-8.5-2.3-12.7-3.5c-8.2-2.3-10.5-7.1-7.2-15.1
		C35.3,426.1,52,420,63,425.7c4.4,2.2,7.8,8.5,5.4,12.1C67.1,439.8,62.8,439.7,58.9,440.9z"/>
	<path class="st6" d="M376.3,441.1c-3.2,0-6.1,0-9,0c-3.1-8.9-10.9-11.2-18.2-5c-7.3,6.2-10.4,14.5-9.7,24c0.5,6,6.2,8.7,12.8,6.3
		c2.1-0.8,4.8-2,5.8-3.8c3.1-5.6,7.9-5.1,12.9-4.5c-2.1,8.1-12.4,16.5-21.8,17.5c-2.3,0.3-4.7,0.3-7,0.1
		c-8.1-0.6-13.1-5.7-13.9-13.8c-1.2-13.4,8.6-30.6,21.2-35.3c5.1-1.9,11.2-2.4,16.8-1.9C374.2,425.4,378.5,432.9,376.3,441.1z"/>
	<path class="st8" d="M199.8,464.2c-4.5,9.9-19,14.8-27.6,9.4c-2-1.3-3.9-3.8-4.5-6.1c-3.9-15.3,11.6-32.3,27-30.1
		c7.1,1,10.7,5.9,9.8,13.1c-0.1,1-0.3,2-0.4,3.1c-0.4,4-1.9,5.9-6.5,5.5c-5.4-0.5-10.9-0.3-16.3,0c-1.5,0.1-3.9,1.1-4.2,2.2
		c-0.8,2.6-0.1,5.7,3.2,6.2c2.4,0.4,5.9,0.5,7.5-0.8C191.4,463.5,195.3,464.2,199.8,464.2z M180.1,452.4c4.9,0,9.7,0,14.5,0
		c0.4-5.1-0.6-6.9-4.2-7.6C186.1,444.1,181.7,447.2,180.1,452.4z"/>
	<path class="st8" d="M384.4,458.8c1,3.1,1.1,6.8,2.7,7.7c2.3,1.2,6.7,1.6,8.5,0.1c3.9-3,7.9-2.5,12.7-2.5c-0.8,1.3-1.1,2.6-1.9,3.1
		c-4.1,2.7-8,6.4-12.5,7.7c-13.3,3.9-20.8-3.8-17.5-17.1c3.3-13.6,13.8-22,25.7-20.6c7.6,0.9,11.2,5.3,10.6,12.9
		c-0.1,1.5-0.6,2.9-0.7,4.3c-0.4,3.4-1.9,4.6-5.5,4.5C399.6,458.6,392.7,458.8,384.4,458.8z M402.8,452.5c0.3-5.2-0.8-7-4.3-7.7
		c-4.4-0.8-8.6,2.3-10.3,7.7C393,452.5,397.8,452.5,402.8,452.5z"/>
	<path class="st6" d="M512.1,464c-4.8,9.8-18,14.4-27,10c-3.6-1.7-5.3-4.6-5.5-8.4c-0.7-10.3,6.3-27.7,23-28.5
		c4.9-0.2,9.7,0.3,12.4,4.9c3,5,1.7,10.3,0.1,15.4c-0.2,0.7-2.1,1.3-3.3,1.3c-6.2,0.1-12.4,0-18.5,0.1c-1.7,0-4.5-0.7-4.1,2.3
		c0.3,2.2,1.5,5.5,3,5.9c2.5,0.8,6.4,0.7,8.2-0.8C504.2,463.1,508,464.5,512.1,464z M491.8,452.8c4.6,0,8.4-0.1,12.1,0
		c3.3,0.1,3.7-1.5,3-4.1c-0.9-3.3-3.5-4.3-6.5-3.8C496.3,445.5,493.5,447.9,491.8,452.8z"/>
	<path class="st8" d="M64.1,488.9c0.7-2.4,1.4-4.5,2.1-6.8c1-0.1,2-0.2,3-0.3c4.3-0.4,7-3.2,6.8-7.5c-0.5-10.4-1.1-20.9-1.7-31.3
		c-0.1-1.5,0-2.9,0-4.7c3.4,0,6.7,0,10.3,0c0,8.3,0,16.5,0,25.9c1.4-1.7,2.1-2.4,2.7-3.3c3.2-5.5,6.8-10.7,9.3-16.5
		c2.7-6.3,7.1-7.4,13.1-6c0,0.3,0,0.8-0.2,1.1c-9.2,14-18.4,28-27.5,42.1C77.8,488.1,72.1,490.6,64.1,488.9z"/>
	<path class="st6" d="M267.3,463.2c3.2,0,6.1,0,9,0c1.6,5.4,9.4,7.3,13.4,3.3c2.1-2.2,1.5-4.1-1.3-4.9c-3.2-1-6.6-1.6-9.8-2.6
		c-6.3-2-7.9-6-5-11.9c4.2-8.8,18.4-13,26.9-8.1c3.9,2.3,4.7,5.7,3.5,10c-3,0-5.9,0-8.8,0c-1.6-4.7-7.3-6.3-11.2-3.2
		c-2.3,1.8-2.1,4,0.7,4.9c2.9,1,6,1.4,8.9,2.3c8.2,2.4,10,7.6,5.1,14.7c-5.4,7.9-20.3,10.9-28.3,5.6
		C266.9,470.8,266.1,467.5,267.3,463.2z"/>
	<path class="st8" d="M412.8,474.4c3-9.9,5.9-19.6,8.8-29.2c2.2-7.5,2.2-7.5,10.7-6.9c-0.1,1.2-0.2,2.4-0.3,4.2
		c4.6-3.7,9-6.1,14.5-5.2c6.2,1,9,5,7.3,11c-2.1,7.3-4.7,14.6-6.4,22c-0.9,4-2.9,4.9-6.4,4.4c-1.3-0.2-2.6,0-4.5,0
		c2.2-7.3,4.5-14.1,6.2-21c0.6-2.4,0.8-6.4-0.6-7.5c-3-2.3-7-1.3-9.6,1.5c-2,2.2-3.4,5.1-4.4,7.9c-2.1,6.1-3.8,12.4-5.7,18.8
		C419.3,474.4,416.2,474.4,412.8,474.4z"/>
	<path class="st6" d="M142.1,448.9c-2.9,0-5.7,0-8.4,0c-2-4.6-6.9-6.3-10.9-3.6c-1,0.7-1.9,2-1.9,3.1c0,0.7,1.3,1.9,2.3,2.2
		c3.2,1,6.6,1.6,9.8,2.6c6.8,2.3,8.3,6.2,5,12.6c-4.7,9.3-21.5,13.1-29.9,6.9c-2.7-2-3.3-4.1-2.6-9.4c2.8,0,5.7,0,8.7,0
		c2.2,4.9,6.7,6.7,11.8,4.2c1.3-0.6,2.8-2.2,2.8-3.4c0.1-0.9-1.8-2.4-3.1-2.8c-2.9-1-6-1.4-8.9-2.4c-6.4-2.1-7.9-5.8-5-11.9
		c4.3-8.9,18.2-13.1,26.8-8.2C142.6,441.2,142.9,444.7,142.1,448.9z"/>
	<path class="st4" d="M381.8,497.6c-5.7,18.9-11.1,37.2-16.7,55.4c-0.3,1-1.9,2.1-3,2.2c-2.9,0.3-5.8,0.1-9.4,0.1
		c1.9-6.6,3.7-12.7,5.5-18.8c3.5-11.7,7.2-23.3,10.5-35c0.9-3.2,2.3-4.3,5.5-4C376.5,497.8,378.8,497.6,381.8,497.6z"/>
	<path class="st4" d="M309.9,497.6c-3.6,11.8-6.9,22.9-10.2,34c-2,6.6-4.2,13.2-5.9,19.9c-0.8,2.9-1.9,4.3-5.1,3.9
		c-2.4-0.3-4.9-0.1-8-0.1c3.2-10.8,6.3-21,9.3-31.2c2.2-7.3,4.7-14.5,6.5-22c0.9-3.9,2.7-5,6.4-4.6
		C304.9,497.8,307,497.6,309.9,497.6z"/>
	<path class="st6" d="M468.1,467.2c2.1,0.4,3.7,0.6,6.1,1.1c-1.4,2.5-2.4,6.2-3.9,6.4c-3.6,0.5-7.5-0.3-11-1.4
		c-0.8-0.3-1.2-4-0.7-5.8c1.8-7.2,4.1-14.4,6.2-21.6c0-0.1-0.1-0.3-0.2-0.7c-1.2-0.2-2.5-0.4-3.9-0.7c0.3-4.2,1.3-7.5,6.5-6.5
		c1.1-3.4,2.2-6.6,3.2-9.7c3.1,0,5.8,0,9.1,0c-0.8,3.2-1.6,6.2-2.5,9.6c2,0.2,3.6,0.3,5.4,0.5c-0.5,3.8-0.9,7.5-6.3,6.6
		c-0.5-0.1-1.6,0.8-1.8,1.5C472.2,453.1,470.2,460,468.1,467.2z"/>
	<path class="st7" d="M170.4,438.5c-0.7,2.3-1.2,4.1-1.8,6.1c-2,0.1-3.9,0.2-6.2,0.4c-2.2,7.3-4.3,14.7-6.6,22.4
		c2.3,0.3,3.7,0.4,6.1,0.7c-1.3,2.6-2.3,6.4-3.6,6.5c-3.7,0.4-7.7-0.5-11.4-1.6c-0.7-0.2-1-3.8-0.6-5.6c1.6-6.1,3.5-12.1,5.3-18.2
		c0.4-1.2,0.6-2.5,1.1-4.2c-1.5-0.3-2.7-0.5-4.2-0.7c0.2-1,0.1-2.1,0.6-2.8c0.8-1.3,2-3.3,3-3.4c2.8,0,3.4-1.5,4.1-3.6
		c2.4-7.6,2.4-7.5,11-6.1c-0.4,1.5-0.8,3.1-1.2,4.6c-0.4,1.4-0.8,2.8-1.2,4.5C166.8,437.9,168.6,438.2,170.4,438.5z"/>
	<path class="st8" d="M536.3,438.2c0,1.2,0,2.3,0,3.2c4-1.7,7.8-3.4,11.7-5.1c0.3,0.4,0.7,0.8,1,1.3c-0.8,2.9-1.7,5.8-2.6,9
		c-9.8-1-13.9,4.6-15.7,13.1c-0.7,3.3-2.2,6.4-2.8,9.8c-0.8,4.3-2.9,6-7.2,5.2c-1.1-0.2-2.3-0.2-3.9-0.3
		c3.7-12.2,7.3-24.1,10.9-36.2C530.5,438.2,533.1,438.2,536.3,438.2z M536.5,442.3c-0.1-0.1-0.2-0.2-0.3-0.3
		c-0.1,0.2-0.2,0.4-0.3,0.6c0,0.1,0.2,0.2,0.3,0.3C536.3,442.6,536.4,442.4,536.5,442.3z"/>
	<path class="st9" d="M418.9,41c0,9.3,0,18.6,0,28.2c-4.1,0-8.5,0-13.6,0c4.2-9.8,8.2-19.1,12.1-28.5
		C417.9,40.8,418.4,40.9,418.9,41z"/>
	<path class="st9" d="M248.4,40.8c0,9.4,0,18.8,0,28.5c-4.1,0-8.4,0-13.7,0c4.2-9.8,8.3-19.3,12.3-28.8
		C247.5,40.6,247.9,40.7,248.4,40.8z"/>
	<path class="st10" d="M440.9,171.3c-51.3,72.3-102.1,143.9-153.3,216c-21.9-27.7-43.4-54.9-65.2-82.5c2.1-3,4.2-6,6.3-9
		c28.8-40.4,57.5-80.8,86.3-121.3c1.5-2.2,3-3.5,6-3.5c38.7,0.1,77.5,0.1,116.2,0.1C438.1,171,439,171.2,440.9,171.3z"/>
	<path class="st11" d="M278.5,171.6c-25.5,35.9-50.8,71.3-76.5,107.3c-28.4-35.9-56.3-71.3-84.8-107.3
		C171.2,171.6,224.5,171.6,278.5,171.6z"/>
	<path class="st9" d="M203.3,512.1c0,6.9,0,13.7,0,20.9c-4.5,0-9,0-14.4,0c4.6-7.4,9-14.4,13.3-21.3
		C202.6,511.8,203,512,203.3,512.1z"/>
	<path class="st9" d="M140.1,524.4c1.6-5.5,3-10.4,4.6-15.2c0.3-0.8,1.6-1.8,2.4-1.8c3.9-0.1,7.9-0.1,11.8,0.3
		c3.4,0.3,5,2.5,4.7,6.1c-0.7,6.3-5,10.5-11.3,10.6C148.4,524.5,144.5,524.4,140.1,524.4z"/>
	<path class="st9" d="M224.2,441.8c-0.2-0.1-0.3-0.2-0.5-0.3c0.1-0.1,0.2-0.3,0.3-0.3c0.2,0,0.4,0.2,0.5,0.3
		C224.4,441.6,224.3,441.7,224.2,441.8z"/>
	<path class="st9" d="M180.1,452.4c1.6-5.2,5.9-8.4,10.3-7.6c3.5,0.6,4.6,2.5,4.2,7.6C189.8,452.4,185,452.4,180.1,452.4z"/>
	<path class="st9" d="M402.8,452.5c-5.1,0-9.8,0-14.6,0c1.7-5.4,5.9-8.5,10.3-7.7C402,445.5,403.1,447.3,402.8,452.5z"/>
	<path class="st9" d="M491.8,452.8c1.6-4.9,4.5-7.3,8.7-7.9c3-0.4,5.6,0.5,6.5,3.8c0.7,2.6,0.3,4.3-3,4.1
		C500.2,452.7,496.4,452.8,491.8,452.8z"/>
	<path class="st9" d="M536.5,442.3c-0.1,0.2-0.2,0.4-0.3,0.6c-0.1-0.1-0.3-0.2-0.3-0.3c0-0.2,0.2-0.4,0.3-0.6
		C536.3,442,536.4,442.1,536.5,442.3z"/>
</g>
</svg>
