<?xml version="1.0" encoding="UTF-8" standalone="no"?>
<svg
   xmlns:dc="http://purl.org/dc/elements/1.1/"
   xmlns:cc="http://creativecommons.org/ns#"
   xmlns:rdf="http://www.w3.org/1999/02/22-rdf-syntax-ns#"
   xmlns:svg="http://www.w3.org/2000/svg"
   xmlns="http://www.w3.org/2000/svg"
   viewBox="0 0 400.61334 77.09333"
   height="77.09333"
   width="400.61334"
   xml:space="preserve"
   id="svg2"
   version="1.1"><metadata
     id="metadata8"><rdf:RDF><cc:Work
         rdf:about=""><dc:format>image/svg+xml</dc:format><dc:type
           rdf:resource="http://purl.org/dc/dcmitype/StillImage" /></cc:Work></rdf:RDF></metadata><defs
     id="defs6" /><g
     transform="matrix(1.3333333,0,0,-1.3333333,0,77.093333)"
     id="g10"><g
       transform="scale(0.1)"
       id="g12"><path
         id="path14"
         style="fill:#339130;fill-opacity:1;fill-rule:nonzero;stroke:none"
         d="m 2489.96,350.125 c -0.91,-11.516 -6.45,-18.699 -17.52,-20.027 -17.54,-2.168 -55.9,-3.821 -82.28,-3.821 -26.41,0 -65.23,1.653 -82.78,3.821 -11.05,1.238 -16.66,8.511 -17.48,20.027 -0.4,7.695 -1.29,46.008 -1.29,67.805 0,21.718 0.89,60.125 1.29,67.84 0.82,11.437 6.43,18.691 17.48,19.992 17.55,2.097 56.37,3.797 82.78,3.797 26.38,0 64.74,-1.7 82.28,-3.797 11.07,-1.301 16.61,-8.555 17.52,-19.992 0.39,-7.715 1.24,-46.122 1.24,-67.84 0,-21.797 -0.85,-60.11 -1.24,-67.805 z m 28.46,221.699 c -39.2,4.239 -88.63,6.387 -128.26,6.387 -39.66,0 -89.6,-2.148 -128.8,-6.387 -28.16,-3.015 -47.35,-28.125 -49.48,-54.187 -1.23,-16.633 -2.19,-83.137 -2.19,-99.707 0,-16.645 0.96,-83.203 2.19,-99.797 2.13,-26.055 21.32,-51.582 49.48,-54.602 39.2,-4.285 89.14,-5.926 128.8,-5.926 39.63,0 89.06,1.641 128.26,5.926 28.2,3.02 47.39,28.547 49.47,54.602 1.35,16.594 2.12,83.152 2.12,99.797 0,16.57 -0.77,83.074 -2.12,99.707 -2.08,26.062 -21.27,51.172 -49.47,54.187" /><path
         id="path16"
         style="fill:#339130;fill-opacity:1;fill-rule:nonzero;stroke:none"
         d="m 2071.47,350.125 c -0.8,-11.516 -6.33,-18.789 -17.54,-20.027 -17.38,-2.168 -55.77,-3.821 -82.17,-3.821 -26.43,0 -65.3,1.653 -82.75,3.821 -11.05,1.238 -16.64,8.511 -17.49,20.027 -0.46,7.695 -1.23,46.008 -1.23,67.781 0,21.742 0.77,60.149 1.23,67.864 0.85,11.437 6.44,18.691 17.49,19.992 17.45,2.097 56.32,3.797 82.75,3.797 26.4,0 64.79,-1.7 82.17,-3.797 11.21,-1.301 16.74,-8.555 17.54,-19.992 0.49,-7.715 1.33,-46.122 1.33,-67.84 0,-21.797 -0.84,-60.11 -1.33,-67.805 z m 28.61,221.699 c -39.23,4.239 -88.74,6.387 -128.32,6.387 -39.76,0 -89.6,-2.148 -128.83,-6.387 -28.13,-3.015 -47.29,-28.144 -49.42,-54.187 -1.26,-16.633 -2.16,-83.137 -2.16,-99.731 0,-16.621 0.9,-83.179 2.16,-99.773 2.13,-26.055 21.29,-51.582 49.42,-54.602 39.23,-4.285 89.07,-5.926 128.83,-5.926 39.58,0 89.09,1.641 128.32,5.926 28.19,3.02 47.39,28.547 49.46,54.602 1.23,16.594 2.12,83.152 2.12,99.797 0,16.57 -0.89,83.074 -2.12,99.707 -2.07,26.062 -21.27,51.172 -49.46,54.187" /><path
         id="path18"
         style="fill:#339130;fill-opacity:1;fill-rule:nonzero;stroke:none"
         d="m 1645.11,459.93 c -0.8,-11.477 -6.32,-18.778 -17.4,-20.086 -17.5,-2.121 -55.85,-3.789 -82.32,-3.789 -26.37,0 -68.59,2.156 -84.03,3.367 -2.13,0.422 -13.18,1.73 -17.43,2.156 v 62.473 c 3.72,0.41 16.21,1.711 24.36,2.512 16.47,1.765 50.18,2.996 77.1,2.996 26.47,0 64.82,-1.7 82.32,-3.797 11.08,-1.301 16.6,-8.555 17.4,-19.992 0.48,-6.024 0.37,-5.223 0.37,-11.336 0,-11.118 0.11,-8.508 -0.37,-14.504 z m 5.32,-87.305 v 0.051 c 8.12,0.672 16.11,1.375 23.62,2.183 18.34,1.965 32.62,13.411 41.04,28.254 4.6,9.328 7.32,19.715 8.06,29.524 0.88,11.531 1.76,9.988 1.76,26.597 0,22.231 -0.88,46.957 -1.76,58.403 -2.15,26.043 -21.26,51.172 -49.45,54.187 -39.13,4.239 -88.69,6.387 -128.31,6.387 -39.68,0 -87.48,-1.648 -124.13,-5.125 -25.56,-2.57 -56.24,-5.918 -56.24,-5.918 V 260.125 h 78.91 v 111.523 h 0.43 v 0.071 c 30.35,-1.836 72,-3.254 101.19,-3.254 6.92,0 14.03,0.066 21.45,0.281 l 70.72,-108.844 h 89.37 l -61.65,90.418 c 0.08,0 -15.11,22.266 -15.01,22.305" /><path
         id="path20"
         style="fill:#339130;fill-opacity:1;fill-rule:nonzero;stroke:none"
         d="m 1200.65,451.602 c -16.28,-1.711 -48.66,-3.43 -75.05,-3.43 h -110.5 v 56.738 c 3.9,0.403 16.27,1.281 24.4,2.141 16.55,1.66 54.93,3.347 81.78,3.347 26.44,0 64.04,-2.07 80.2,-3.835 13.67,-1.653 17.01,-12.727 17.01,-27.668 0,-14.954 -4.17,-25.657 -17.84,-27.293 z m 0.83,-122.844 c -16.16,-1.699 -53.76,-3.406 -80.2,-3.406 -26.85,0 -65.23,1.336 -81.78,2.968 -8.13,0.914 -20.5,2.164 -24.4,2.586 v 56.746 h 110.5 c 26.39,0 58.77,-1.265 75.05,-2.996 13.67,-1.679 17.84,-13.261 17.84,-28.164 0,-14.929 -3.34,-26.008 -17.01,-27.734 z m 95.48,165.422 c 0,33.281 -9.26,73.379 -50.33,77.644 -38.71,4.239 -86.51,6.387 -125.35,6.387 -39.62,0 -92.03,-1.648 -128.788,-5.125 -25.445,-2.57 -56.238,-5.918 -56.238,-5.918 V 268.711 c 4.289,-0.473 32.793,-3.84 56.238,-5.996 36.758,-3.469 89.168,-5.11 128.788,-5.11 38.84,0 86.64,1.641 125.35,5.926 41.07,4.321 50.33,44.758 50.33,78.032 0,25.632 -5.12,58.398 -26.81,72.089 -2.14,1.27 -6.85,2.957 -8.56,4.254 1.71,1.313 6.42,3.828 8.56,5.102 21.69,13.711 26.81,45.664 26.81,71.172" /><path
         id="path22"
         style="fill:#339130;fill-opacity:1;fill-rule:nonzero;stroke:none"
         d="m 616.293,506.563 c 17.41,2.148 56.211,3.835 82.668,3.835 38.359,0 96.363,-0.457 135.195,-2.539 5.449,-0.32 24.715,-2.625 32.364,-3.808 l 5.136,67.344 c -8.144,1.25 -30.273,3.839 -36.289,4.199 -38.332,2.492 -97.629,2.617 -136.406,2.617 -39.66,0 -89.57,-2.148 -128.781,-6.387 -28.153,-3.015 -47.344,-28.144 -49.481,-54.187 -1.269,-16.574 -2.121,-83.137 -2.121,-99.731 0,-16.648 0.852,-83.179 2.121,-99.773 2.137,-26.055 21.328,-51.582 49.481,-54.602 39.211,-4.285 89.121,-5.926 128.781,-5.926 38.777,0 98.406,0.032 136.406,2.297 6.016,0.332 28.145,3.375 36.289,4.657 l -5.136,67.382 c -7.649,-1.289 -26.915,-3.836 -32.364,-4.238 -38.652,-3.269 -96.836,-2.351 -135.195,-2.351 -26.457,0 -65.258,1.707 -82.668,3.882 -11.18,1.25 -16.707,8.547 -17.578,20.024 -0.399,5.078 -0.828,22.597 -0.828,37.129 h 181.355 v 63.504 H 597.887 c 0,14.519 0.429,31.574 0.828,36.679 0.871,11.535 6.398,18.743 17.578,19.993" /><path
         id="path24"
         style="fill:#339130;fill-opacity:1;fill-rule:nonzero;stroke:none"
         d="m 2610.55,507.051 h 157.76 V 260.125 h 78.93 v 246.926 h 157.4 v 68.633 h -394.09 v -68.633" /><path
         id="path26"
         style="fill:#339130;fill-opacity:1;fill-rule:nonzero;stroke:none"
         d="m 472.445,576.043 v -0.117 h -78.828 c -2.097,-10.223 -27.246,-98.535 -30.047,-108.153 -2.707,-9.738 -18.312,-57.777 -21.789,-67.277 -0.437,-1.062 -5.644,-14.402 -6.172,-15.43 l -69.98,154.297 H 207.5 L 137.504,385.066 c -0.512,1.028 -5.789,14.368 -6.199,15.43 -3.496,9.5 -19.153,57.539 -21.867,67.277 -2.715,9.618 -27.9185,97.93 -29.9692,108.153 H 0.515625 c 0,0 0,0 0,0.117 H 0 l 0.0664063,-0.117 H 0 l 1.12891,-3.731 c 0,0 0,-0.047 0,-0.078 3.30468,-16.336 47.14059,-162.324 51.61329,-178.359 4.582,-15.996 31.7539,-96.992 37.4805,-112.559 0.6054,-1.609 1.3007,-3.125 2.0078,-4.636 l 0.0234,-0.129 C 97.2344,261.355 108.805,259.09 123.867,258.23 l 1.883,-0.039 c 15.27,0 25.156,3.094 30.965,13.293 l 79.808,176.258 79.84,-176.258 c 5.797,-10.199 15.731,-13.293 30.926,-13.293 l 1.914,0.039 c 15.098,0.86 26.621,3.125 31.574,18.204 l 0.078,0.129 c 0.692,1.511 1.415,3.027 1.922,4.636 5.743,15.567 33,96.563 37.532,112.559 4.519,16.035 48.32,162.043 51.64,178.359 v 0.078 l 1.141,3.731 h -0.137 l 0.137,0.117 h -0.645" /><path
         id="path28"
         style="fill:#339130;fill-opacity:1;fill-rule:nonzero;stroke:none"
         d="m 2972.78,130.398 c -1.37,-0.539 -3.51,-0.789 -6.2,-0.789 h -5.82 v 13.321 h 5.53 c 3.59,0 6.19,-0.461 7.86,-1.407 1.61,-0.863 2.45,-2.687 2.45,-5.371 0,-2.793 -1.22,-4.738 -3.82,-5.754 z m 9.62,-17.421 c -0.11,0.949 -0.11,1.867 -0.11,2.722 v 2.68 c 0,1.844 -0.68,3.738 -2.03,5.699 -1.28,1.938 -3.41,3.086 -6.36,3.586 2.33,0.383 4.06,0.906 5.39,1.797 2.32,1.523 3.54,3.965 3.54,7.227 0,4.66 -1.87,7.773 -5.62,9.335 -2.14,0.832 -5.55,1.321 -10.05,1.321 h -12.87 v -36.778 h 6.47 v 14.442 h 5.1 c 3.41,0 5.8,-0.371 7.22,-1.133 2.34,-1.406 3.42,-4.172 3.42,-8.418 v -2.93 l 0.13,-1.164 c 0.11,-0.172 0.11,-0.308 0.11,-0.418 0.11,-0.156 0.11,-0.246 0.11,-0.379 h 6.08 l -0.26,0.465 c -0.13,0.317 -0.22,0.969 -0.27,1.946" /><path
         id="path30"
         style="fill:#339130;fill-opacity:1;fill-rule:nonzero;stroke:none"
         d="m 2989.95,108.523 c -5.65,-5.644 -12.39,-8.488 -20.42,-8.488 -8.01,0 -14.8,2.844 -20.37,8.488 -5.54,5.645 -8.37,12.461 -8.37,20.516 0,7.941 2.83,14.746 8.42,20.371 5.59,5.664 12.41,8.488 20.32,8.488 8.03,0 14.74,-2.824 20.42,-8.488 5.54,-5.625 8.39,-12.43 8.39,-20.371 0,-8.055 -2.85,-14.871 -8.39,-20.516 z m -20.42,53.946 c -9.18,0 -17.07,-3.274 -23.57,-9.754 -6.54,-6.574 -9.87,-14.406 -9.87,-23.652 0,-9.297 3.25,-17.227 9.76,-23.743 6.52,-6.5622 14.45,-9.8747 23.68,-9.8747 9.31,0 17.16,3.3125 23.72,9.8747 6.56,6.543 9.87,14.461 9.87,23.743 0,9.246 -3.31,17.128 -9.87,23.652 -6.56,6.48 -14.41,9.754 -23.72,9.754" /><path
         id="path32"
         style="fill:#339130;fill-opacity:1;fill-rule:nonzero;stroke:none"
         d="m 983.961,41.0547 c -15.051,0 -26.223,1.5039 -35.676,3.0078 -3.652,0.6328 -4.082,1.5039 -4.082,3.8672 v 8.5937 c 0,2.3633 1.707,3.4375 3.645,3.4375 0.222,0 0.437,0 0.652,0 9.883,-0.8515 25.574,-1.2812 35.461,-1.2812 25.779,0 32.659,10.3125 32.659,25.3516 0,10.7421 -6.23,16.7697 -25.784,28.7967 l -20.852,12.68 c -19.765,12.027 -29.648,22.996 -29.648,40.191 0,26.008 18.691,38.031 51.348,38.031 12.686,0 29.236,-1.289 37.406,-2.57 2.14,-0.437 3.65,-1.504 3.65,-3.664 v -9.234 c 0,-2.153 -1.51,-3.442 -3.65,-3.442 -0.22,0 -0.22,0 -0.43,0 -9.47,0.649 -24.51,1.289 -36.976,1.289 -22.129,0 -31.582,-4.722 -31.582,-20.41 0,-10.105 7.097,-16.121 23.429,-26.004 l 19.769,-11.816 c 24.93,-14.844 33.74,-26.66 33.74,-43.8477 0,-20.6329 -10.75,-42.9766 -53.079,-42.9766" /><path
         id="path34"
         style="fill:#339130;fill-opacity:1;fill-rule:nonzero;stroke:none"
         d="m 1194.96,42.5586 h -10.32 c -2.37,0 -4.3,1.9297 -4.3,4.2969 v 76.0825 c 0,18.039 -8.38,22.976 -19.56,22.976 -7.74,0 -16.76,-2.566 -25.14,-5.789 1.29,-4.727 1.93,-10.312 1.93,-16.758 V 46.8555 c 0,-2.1602 -1.5,-4.2969 -3.86,-4.2969 h -11.39 c -2.16,0 -3.66,1.9297 -3.66,4.2969 v 76.5115 c 0,18.692 -5.37,22.547 -16.55,22.547 -7.73,0 -17.18,-3.855 -26.22,-8.379 V 46.8555 c 0,-2.1602 -1.5,-4.2969 -3.87,-4.2969 h -11.39 c -2.14,0 -3.64,1.9297 -3.64,4.2969 V 156.453 c 0,2.371 1.71,4.309 4.07,4.309 h 10.75 c 2.36,0 4.08,-1.938 4.08,-4.309 v -4.07 c 8.6,5.371 19.55,10.086 31.38,10.086 9.24,0 16.11,-2.578 21.49,-8.809 11.82,5.598 24.5,8.809 35.68,8.809 19.33,0 34.8,-9.68 34.8,-39.531 V 46.8555 c 0,-2.3672 -1.93,-4.2969 -4.28,-4.2969" /><path
         id="path36"
         style="fill:#339130;fill-opacity:1;fill-rule:nonzero;stroke:none"
         d="m 1286.45,99.7148 h -15.91 c -26,0 -32.88,-5.789 -32.88,-21.0625 v -2.582 c 0,-15.457 7.31,-19.5469 19.78,-19.5469 9.89,0 18.7,3.0157 29.01,8.6016 z m 14.62,-57.1562 h -9.89 c -2.36,0 -4.3,1.9297 -4.3,4.2969 v 4.7226 c -10.31,-6.0117 -21.06,-10.5234 -33.1,-10.5234 -18.27,0 -35.03,7.9492 -35.03,34.8125 v 2.5781 c 0,23.2027 13.55,34.8167 51.79,34.8167 h 15.91 v 8.593 c 0,18.047 -6.23,24.286 -23,24.286 -13.96,0 -24.28,-0.86 -32.88,-1.731 -0.43,0 -0.63,0 -1.06,0 -1.95,0 -3.88,0.656 -3.88,3.442 v 7.527 c 0,2.375 1.5,3.652 4.51,4.082 8.81,1.504 18.7,2.805 33.31,2.805 29.87,0 41.91,-15.051 41.91,-40.411 V 46.8555 c 0,-2.3672 -1.94,-4.2969 -4.29,-4.2969" /><path
         id="path38"
         style="fill:#339130;fill-opacity:1;fill-rule:nonzero;stroke:none"
         d="m 1377.77,145.914 c -9.89,0 -18.93,-2.566 -29.67,-9.019 V 46.8555 c 0,-2.1602 -1.93,-4.2969 -4.3,-4.2969 h -10.52 c -2.15,0 -4.09,1.9297 -4.09,4.2969 V 156.453 c 0,2.371 1.71,4.309 4.09,4.309 h 10.1 c 2.36,0 4.08,-1.938 4.08,-4.309 v -4.512 c 10.75,7.52 20.63,10.325 30.31,10.325 3.01,0 4.5,-1.301 4.5,-3.879 v -8.809 c 0,-2.363 -1.49,-3.664 -4.5,-3.664" /><path
         id="path40"
         style="fill:#339130;fill-opacity:1;fill-rule:nonzero;stroke:none"
         d="m 1456.19,42.1289 c -4.31,-0.6445 -9.89,-1.0742 -13.98,-1.0742 -19.77,0 -29.22,5.1445 -29.22,28.7969 v 74.9924 l -20.86,2.371 c -2.36,0.207 -4.07,1.504 -4.07,3.867 v 5.801 c 0,2.375 1.71,3.879 4.07,3.879 h 20.86 v 21.043 c 0,2.16 1.5,3.879 3.87,4.304 l 11.16,1.719 c 0.23,0 0.43,0 0.66,0 1.71,0 3.21,-1.504 3.21,-3.648 v -23.418 h 23.21 c 2.37,0 4.3,-1.938 4.3,-4.309 v -7.305 c 0,-2.363 -1.93,-4.304 -4.3,-4.304 h -23.21 V 69.8516 c 0,-11.8243 3.01,-13.543 11.61,-13.543 h 12.03 c 3.01,0 4.52,-0.8633 4.52,-3.0078 v -7.5235 c 0,-1.9296 -1.08,-3.2187 -3.86,-3.6484" /><path
         id="path42"
         style="fill:#339130;fill-opacity:1;fill-rule:nonzero;stroke:none"
         d="m 1546.63,111.961 c 0,24.297 -9.25,33.75 -28.16,33.75 -18.49,0 -28.8,-10.527 -28.8,-33.75 v -1.934 h 56.96 z m 15.04,-16.3282 h -72 V 92.625 c 0,-25.5664 10.11,-35.0195 29.88,-35.0195 12.47,0 28.36,0.8476 38.25,2.3554 0.43,0 0.64,0 1.07,0 1.73,0 3.44,-0.8515 3.44,-3.0117 v -7.3008 c 0,-2.7929 -0.85,-4.2968 -4.3,-4.9531 -12.23,-2.3515 -24.06,-3.6406 -38.46,-3.6406 -24.71,0 -48.78,11.6094 -48.78,51.5703 v 19.336 c 0,30.742 16.97,50.305 47.7,50.305 31.38,0 47.28,-19.786 47.28,-50.305 v -11.594 c 0,-2.8006 -1.51,-4.7342 -4.08,-4.7342" /><path
         id="path44"
         style="fill:#339130;fill-opacity:1;fill-rule:nonzero;stroke:none"
         d="m 1634.7,145.914 c -9.88,0 -18.91,-2.566 -29.66,-9.019 V 46.8555 c 0,-2.1602 -1.93,-4.2969 -4.3,-4.2969 h -10.52 c -2.15,0 -4.08,1.9297 -4.08,4.2969 V 156.453 c 0,2.371 1.71,4.309 4.08,4.309 h 10.1 c 2.35,0 4.08,-1.938 4.08,-4.309 v -4.512 c 10.75,7.52 20.63,10.325 30.3,10.325 3.01,0 4.51,-1.301 4.51,-3.879 v -8.809 c 0,-2.363 -1.5,-3.664 -4.51,-3.664" /><path
         id="path46"
         style="fill:#339130;fill-opacity:1;fill-rule:nonzero;stroke:none"
         d="m 1792.63,43.8477 c -9.02,-1.7188 -17.4,-2.793 -35.66,-2.793 -26.44,0 -56.75,14.1797 -56.75,66.4063 v 29.871 c 0,52.648 30.31,66.398 56.75,66.398 13.52,0 26.64,-1.933 36.09,-3.441 1.93,-0.203 3.44,-0.855 3.44,-2.793 v -10.957 c 0,-1.277 -0.43,-2.359 -2.58,-2.359 -0.2,0 -0.43,0 -0.63,0 -7.75,0.64 -23.65,1.929 -36.12,1.929 -21.06,0 -37.39,-12.254 -37.39,-48.777 v -29.871 c 0,-36.1055 16.33,-48.7813 37.39,-48.7813 12.26,0 27.74,1.0625 35.46,1.7109 0.23,0 0.66,0 0.86,0 2.37,0 3.44,-1.0742 3.44,-3.4414 v -8.8047 c 0,-2.5781 -1.94,-3.8789 -4.3,-4.2968" /><path
         id="path48"
         style="fill:#339130;fill-opacity:1;fill-rule:nonzero;stroke:none"
         d="M 1900.69,155.594 1865.24,31.8047 c -6.67,-23.20314 -14.62,-31.80860625 -39.33,-31.80860625 -6.01,0 -13.54,0.86328125 -18.05,1.93749625 -2.58,0.65235 -4.52,1.29688 -4.52,3.4336 v 7.97261 c 0,2.3516 1.71,3.418 4.09,3.418 0.21,0 0.43,0 0.64,0 4.73,-0.4101 14.4,-1.2812 19.12,-1.2812 12.25,0 17.62,3.2226 21.28,18.2617 l 2.15,8.8203 h -3.01 c -6.44,0 -12.03,1.5039 -15.9,14.8242 l -28.58,98.2112 c -0.22,0.429 -0.22,1.074 -0.22,1.504 0,2.16 1.29,3.664 3.87,3.664 h 11.82 c 1.72,0 3.23,-1.731 3.65,-3.442 l 25.36,-93.2692 c 1.08,-4.3086 2.58,-4.7344 4.08,-4.7344 h 3.44 l 26.22,98.2106 c 0.43,1.731 2.15,3.235 4.08,3.235 h 12.04 c 2.15,0 3.44,-1.504 3.44,-3.664 0,-0.43 0,-1.075 -0.22,-1.504" /><path
         id="path50"
         style="fill:#339130;fill-opacity:1;fill-rule:nonzero;stroke:none"
         d="m 1990.49,109.609 c 0,22.989 -6.88,36.102 -27.94,36.102 -6.66,0 -18.04,-0.215 -25.14,-1.504 V 58.8867 c 7.3,-0.6484 17.84,-1.2812 25.14,-1.2812 21.28,0 27.94,13.0937 27.94,36.5234 z m -27.94,-68.5543 c -12.89,0 -26.22,1.0742 -39.54,3.6406 -3.87,0.6563 -4.51,1.9453 -4.51,4.9531 V 200.086 c 0,2.141 1.5,4.082 3.87,4.082 h 10.95 c 2.15,0 4.09,-1.727 4.09,-4.082 v -39.981 c 8.17,1.504 18.26,2.161 25.14,2.161 31.17,0 46.86,-18.918 46.86,-52.657 V 94.1289 c 0,-32.2344 -14.62,-53.0742 -46.86,-53.0742" /><path
         id="path52"
         style="fill:#339130;fill-opacity:1;fill-rule:nonzero;stroke:none"
         d="m 2101.33,111.961 c 0,24.297 -9.23,33.75 -28.14,33.75 -18.49,0 -28.8,-10.527 -28.8,-33.75 v -1.934 h 56.94 z m 15.05,-16.3282 h -71.99 V 92.625 c 0,-25.5664 10.1,-35.0195 29.87,-35.0195 12.47,0 28.37,0.8476 38.25,2.3554 0.43,0 0.65,0 1.08,0 1.72,0 3.44,-0.8515 3.44,-3.0117 v -7.3008 c 0,-2.7929 -0.86,-4.2968 -4.29,-4.9531 -12.26,-2.3515 -24.08,-3.6406 -38.48,-3.6406 -24.71,0 -48.78,11.6094 -48.78,51.5703 v 19.336 c 0,30.742 16.97,50.305 47.71,50.305 31.37,0 47.27,-19.786 47.27,-50.305 v -11.594 c 0,-2.8006 -1.5,-4.7342 -4.08,-4.7342" /><path
         id="path54"
         style="fill:#339130;fill-opacity:1;fill-rule:nonzero;stroke:none"
         d="m 2189.42,145.914 c -9.89,0 -18.92,-2.566 -29.67,-9.019 V 46.8555 c 0,-2.1602 -1.93,-4.2969 -4.29,-4.2969 h -10.53 c -2.14,0 -4.09,1.9297 -4.09,4.2969 V 156.453 c 0,2.371 1.72,4.309 4.09,4.309 h 10.1 c 2.36,0 4.09,-1.938 4.09,-4.309 v -4.512 c 10.74,7.52 20.62,10.325 30.3,10.325 3.01,0 4.51,-1.301 4.51,-3.879 v -8.809 c 0,-2.363 -1.5,-3.664 -4.51,-3.664" /><path
         id="path56"
         style="fill:#339130;fill-opacity:1;fill-rule:nonzero;stroke:none"
         d="m 2243.56,41.0547 c -7.95,0 -23.43,0.6328 -33.96,3.2109 -2.79,0.6563 -4.51,1.9336 -4.51,4.3047 v 7.5313 c 0,1.9257 1.72,3.2148 3.88,3.2148 0.43,0 0.63,0 0.86,0 10.3,-1.2891 25.99,-2.3672 33.73,-2.3672 13.97,0 21.29,3.6641 21.29,15.2539 0,6.4492 -3.88,10.5391 -16.13,17.8555 l -21.71,12.8864 c -13.1,7.953 -21.92,17.192 -21.92,30.727 0,22.351 16.77,28.594 38.9,28.594 12.04,0 23.43,-1.086 33.52,-2.805 2.8,-0.43 4.1,-1.934 4.1,-4.297 v -7.09 c 0,-2.578 -1.51,-3.664 -3.67,-3.664 -0.2,0 -0.43,0 -0.64,0 -7.51,0.656 -21.27,1.731 -33.31,1.731 -12.02,0 -19.99,-1.504 -19.99,-12.469 0,-6.445 4.94,-10.527 14.84,-16.328 l 21.27,-12.688 c 17.83,-10.5271 23.64,-19.7654 23.64,-32.4529 0,-21.914 -16.12,-31.1484 -40.19,-31.1484" /><path
         id="path58"
         style="fill:#339130;fill-opacity:1;fill-rule:nonzero;stroke:none"
         d="m 2375.69,111.961 c 0,24.297 -9.23,33.75 -28.15,33.75 -18.48,0 -28.8,-10.527 -28.8,-33.75 v -1.934 h 56.95 z m 15.05,-16.3282 h -72 V 92.625 c 0,-25.5664 10.1,-35.0195 29.88,-35.0195 12.47,0 28.37,0.8476 38.25,2.3554 0.43,0 0.64,0 1.07,0 1.72,0 3.44,-0.8515 3.44,-3.0117 v -7.3008 c 0,-2.7929 -0.87,-4.2968 -4.29,-4.9531 -12.25,-2.3515 -24.08,-3.6406 -38.47,-3.6406 -24.72,0 -48.78,11.6094 -48.78,51.5703 v 19.336 c 0,30.742 16.96,50.305 47.7,50.305 31.38,0 47.28,-19.786 47.28,-50.305 v -11.594 c 0,-2.8006 -1.51,-4.7342 -4.08,-4.7342" /><path
         id="path60"
         style="fill:#339130;fill-opacity:1;fill-rule:nonzero;stroke:none"
         d="m 2483.97,43.4141 c -7.09,-1.2852 -16.76,-2.3594 -26.87,-2.3594 -29.21,0 -45.77,20.625 -45.77,52.2148 v 16.7575 c 0,31.602 16.33,52.239 45.77,52.239 9.89,0 19.78,-1.086 26.87,-2.375 3.45,-0.633 4.3,-1.719 4.3,-4.727 v -7.742 c 0,-2.141 -1.72,-3.215 -3.66,-3.215 -0.43,0 -0.64,0 -0.86,0 -9.45,1.074 -16.12,1.504 -26.65,1.504 -17.18,0 -26.86,-11.387 -26.86,-35.684 V 93.2695 c 0,-24.0742 9.46,-35.664 26.86,-35.664 10.53,0 17.2,0.4218 26.65,1.5039 0.22,0 0.43,0 0.86,0 1.94,0 3.66,-1.0821 3.66,-3.2305 v -7.7344 c 0,-2.7929 -0.85,-4.082 -4.3,-4.7304" /><path
         id="path62"
         style="fill:#339130;fill-opacity:1;fill-rule:nonzero;stroke:none"
         d="m 2593.32,42.5586 h -10.74 c -2.36,0 -4.09,1.9297 -4.09,4.2969 v 4.082 c -11.82,-6.6719 -21.48,-9.8828 -34.16,-9.8828 -25.8,0 -37.39,16.1211 -37.39,44.6953 v 70.703 c 0,2.371 1.93,4.309 4.28,4.309 h 10.33 c 2.36,0 4.29,-1.938 4.29,-4.309 V 85.75 c 0,-21.6992 7.31,-28.3672 23.64,-28.3672 9.03,0 19.13,3.4336 29.01,8.3789 v 90.6913 c 0,2.149 1.93,4.309 4.3,4.309 h 10.53 c 2.15,0 4.09,-1.938 4.09,-4.309 V 46.8555 c 0,-2.3672 -1.72,-4.2969 -4.09,-4.2969" /><path
         id="path64"
         style="fill:#339130;fill-opacity:1;fill-rule:nonzero;stroke:none"
         d="m 2669.79,145.914 c -9.88,0 -18.92,-2.566 -29.66,-9.019 V 46.8555 c 0,-2.1602 -1.94,-4.2969 -4.31,-4.2969 h -10.52 c -2.14,0 -4.08,1.9297 -4.08,4.2969 V 156.453 c 0,2.371 1.71,4.309 4.08,4.309 h 10.1 c 2.36,0 4.09,-1.938 4.09,-4.309 v -4.512 c 10.74,7.52 20.63,10.325 30.3,10.325 3.01,0 4.51,-1.301 4.51,-3.879 v -8.809 c 0,-2.363 -1.5,-3.664 -4.51,-3.664" /><path
         id="path66"
         style="fill:#339130;fill-opacity:1;fill-rule:nonzero;stroke:none"
         d="m 2706.31,42.5586 h -10.32 c -2.35,0 -4.29,1.9297 -4.29,4.2969 V 156.453 c 0,2.371 1.94,4.309 4.29,4.309 h 10.32 c 2.37,0 4.3,-1.938 4.3,-4.309 V 46.8555 c 0,-2.3672 -1.93,-4.2969 -4.3,-4.2969 z m 0.43,137.1054 h -10.95 c -2.37,0 -4.31,1.938 -4.31,4.301 v 17.195 c 0,2.363 1.94,4.297 4.31,4.297 h 10.95 c 2.37,0 4.3,-1.934 4.3,-4.297 v -17.195 c 0,-2.363 -1.93,-4.301 -4.3,-4.301" /><path
         id="path68"
         style="fill:#339130;fill-opacity:1;fill-rule:nonzero;stroke:none"
         d="m 2795.92,42.1289 c -4.3,-0.6445 -9.9,-1.0742 -13.97,-1.0742 -19.78,0 -29.23,5.1445 -29.23,28.7969 v 74.9924 l -20.85,2.371 c -2.36,0.207 -4.08,1.504 -4.08,3.867 v 5.801 c 0,2.375 1.72,3.879 4.08,3.879 h 20.85 v 21.043 c 0,2.16 1.5,3.879 3.88,4.304 l 11.16,1.719 c 0.22,0 0.43,0 0.65,0 1.71,0 3.22,-1.504 3.22,-3.648 v -23.418 h 23.21 c 2.36,0 4.3,-1.938 4.3,-4.309 v -7.305 c 0,-2.363 -1.94,-4.304 -4.3,-4.304 h -23.21 V 69.8516 c 0,-11.8243 3,-13.543 11.61,-13.543 h 12.03 c 3.01,0 4.51,-0.8633 4.51,-3.0078 v -7.5235 c 0,-1.9296 -1.07,-3.2187 -3.86,-3.6484" /><path
         id="path70"
         style="fill:#339130;fill-opacity:1;fill-rule:nonzero;stroke:none"
         d="M 2905.91,155.594 2870.45,31.8047 c -6.66,-23.20314 -14.61,-31.80860625 -39.32,-31.80860625 -6.01,0 -13.55,0.86328125 -18.05,1.93749625 -2.58,0.65235 -4.51,1.29688 -4.51,3.4336 v 7.97261 c 0,2.3516 1.71,3.418 4.07,3.418 0.23,0 0.44,0 0.66,0 4.72,-0.4101 14.39,-1.2812 19.12,-1.2812 12.24,0 17.61,3.2226 21.28,18.2617 l 2.14,8.8203 h -3 c -6.45,0 -12.03,1.5039 -15.9,14.8242 l -28.59,98.2112 c -0.21,0.429 -0.21,1.074 -0.21,1.504 0,2.16 1.29,3.664 3.87,3.664 h 11.81 c 1.71,0 3.24,-1.731 3.65,-3.442 l 25.37,-93.2692 c 1.07,-4.3086 2.57,-4.7344 4.08,-4.7344 h 3.44 l 26.22,98.2106 c 0.43,1.731 2.14,3.235 4.08,3.235 h 12.04 c 2.14,0 3.44,-1.504 3.44,-3.664 0,-0.43 0,-1.075 -0.23,-1.504" /></g></g></svg>