<?xml version="1.0" encoding="UTF-8" standalone="no"?>
<svg
   xmlns:dc="http://purl.org/dc/elements/1.1/"
   xmlns:cc="http://creativecommons.org/ns#"
   xmlns:rdf="http://www.w3.org/1999/02/22-rdf-syntax-ns#"
   xmlns:svg="http://www.w3.org/2000/svg"
   xmlns="http://www.w3.org/2000/svg"
   viewBox="0 0 1365.2 438.66666"
   height="438.66666"
   width="1365.2"
   xml:space="preserve"
   id="svg2"
   version="1.1"><metadata
     id="metadata8"><rdf:RDF><cc:Work
         rdf:about=""><dc:format>image/svg+xml</dc:format><dc:type
           rdf:resource="http://purl.org/dc/dcmitype/StillImage" /></cc:Work></rdf:RDF></metadata><defs
     id="defs6" /><g
     transform="matrix(1.3333333,0,0,-1.3333333,0,438.66667)"
     id="g10"><g
       transform="scale(0.1)"
       id="g12"><path
         id="path14"
         style="fill:#1c2737;fill-opacity:1;fill-rule:nonzero;stroke:none"
         d="M 700.543,1216.24 417.848,571.879 986.895,573.398 Z M 1232.94,22.3711 1048.4,436.68 357.121,434.832 174.934,19.5508 0,19.0781 689.059,1545.19 716.477,1545.26 1414.19,22.8594 1232.94,22.3711" /><path
         id="path16"
         style="fill:#1c2737;fill-opacity:1;fill-rule:nonzero;stroke:none"
         d="m 2029.56,0 c -174.93,-0.460938 -312.09,52.2891 -447.22,137.75 l 81.8,143.23 c 118.26,-81.398 253.29,-132.109 373.43,-131.789 198.12,0.528 290.48,127.438 290.1,262.297 -0.37,130.774 -53.27,208.25 -306.49,315.864 -267.98,113.699 -367.39,229.91 -367.9,409.718 -0.61,216.58 188.52,409.15 470.96,409.9 130.66,0.35 255.12,-42.24 343.81,-101.25 l -75.47,-139.14 c -76.04,52.92 -177.3,91.47 -278.46,91.19 -193.92,-0.51 -292.63,-115.19 -292.25,-252.08 0.3,-104.22 74.31,-187.792 264.24,-271.049 C 2408.96,734.539 2499.9,630.559 2500.47,430.328 2501.15,187.199 2297.22,0.71875 2029.56,0" /><path
         id="path18"
         style="fill:#1c2737;fill-opacity:1;fill-rule:nonzero;stroke:none"
         d="m 3427.13,1378.81 3.83,-1350.5717 -168.61,-0.4492 -3.84,1350.5709 -516.36,-1.38 -0.42,147.11 1199.24,3.2 0.41,-147.11 -514.25,-1.37" /><path
         id="path20"
         style="fill:#1c2737;fill-opacity:1;fill-rule:nonzero;stroke:none"
         d="m 4651.47,1392.3 c -71.66,-0.19 -158.06,-4.52 -212.82,-16.92 l 1.73,-608.88 c 50.61,-5.98 128.6,-9.871 187.62,-9.719 288.73,0.77 412.73,129.848 412.18,323.929 -0.5,175.74 -135.77,312.26 -388.71,311.59 z M 5131.66,32.7813 4719,622.18 c -33.72,-2.141 -67.42,-4.25 -103.27,-4.34 -50.56,-0.141 -124.34,1.691 -174.94,3.601 l 1.68,-590.4996 -168.62,-0.4492 -4.21,1483.3778 c 113.78,14.6 227.57,25.13 356.14,25.48 398.32,1.06 594.89,-190.48 595.62,-447.93 0.6,-208.408 -119.1,-366.041 -336,-434.068 l 450.72,-624.0317 -204.46,-0.539" /><path
         id="path22"
         style="fill:#1c2737;fill-opacity:1;fill-rule:nonzero;stroke:none"
         d="M 6171.43,1230.84 5888.74,586.48 6457.79,588 Z M 6703.83,36.9688 6519.28,451.27 5828.01,449.43 5645.83,34.1484 5470.89,33.6797 6159.96,1559.79 l 27.41,0.07 697.71,-1522.3991 -181.25,-0.4921" /><path
         id="path24"
         style="fill:#1c2737;fill-opacity:1;fill-rule:nonzero;stroke:none"
         d="M 8341.4,12.7383 7334.86,1174.7 7338.08,38.6602 7169.5,38.2109 l -4.32,1518.1091 33.71,8.26 993.83,-1143.592 -3.17,1117.642 168.59,0.45 4.31,-1520.1308 -21.05,-6.2109" /><path
         id="path26"
         style="fill:#54c5b7;fill-opacity:1;fill-rule:nonzero;stroke:none"
         d="M 8815.36,42.6094 8891.69,2859.8 8983.98,43.0586 Z" /><path
         id="path28"
         style="fill:#1c2737;fill-opacity:1;fill-rule:nonzero;stroke:none"
         d="m 9768.04,20.6484 c -174.93,-0.457 -312.08,52.293 -447.21,137.7496 l 81.8,143.231 c 118.26,-81.41 253.28,-132.109 373.43,-131.789 198.12,0.531 290.44,127.441 290.14,262.301 -0.4,130.769 -53.3,208.25 -306.54,315.859 -267.97,113.699 -367.38,229.91 -367.9,409.71 -0.61,216.59 188.53,409.16 470.97,409.91 130.66,0.35 255.07,-42.24 343.77,-101.25 l -75.4,-139.14 c -76.1,52.91 -177.33,91.46 -278.5,91.19 -193.91,-0.51 -292.63,-115.19 -292.24,-252.08 0.3,-104.22 74.31,-187.789 264.23,-271.051 C 10147.4,755.191 10238.4,651.211 10239,450.98 10239.6,207.852 10035.7,21.3711 9768.04,20.6484" /><path
         id="path30"
         style="fill:#1c2737;fill-opacity:1;fill-rule:nonzero;stroke:none"
         d="m 8888.27,3289.98 c -76.48,-1.38 -137.54,-62.83 -136.12,-136.99 1.42,-74.13 64.8,-133.33 141.27,-131.95 76.48,1.37 137.54,62.81 136.13,136.95 -1.43,74.15 -64.81,133.36 -141.28,131.99 z m 0.79,-41.31 c 53.05,0.95 96.88,-39.97 97.87,-91.44 0.99,-51.45 -41.26,-93.93 -94.3,-94.88 -53.1,-0.96 -96.88,39.96 -97.87,91.42 -0.98,51.47 41.2,93.94 94.3,94.9" /></g></g></svg>